<?xml version="1.0" encoding="utf-8"?>
<svg xmlns="http://www.w3.org/2000/svg" version="1.1" x="0px" y="0px" xml:space="preserve" width="53.978" height="53.978" viewBox="1.838 -55.628 53.978 53.978">
	<metadata id="metadata2">
	<rdf:RDF
		xmlns:dc="http://purl.org/dc/elements/1.1/"
		xmlns:cc="http://creativecommons.org/ns#"
		xmlns:rdf="http://www.w3.org/1999/02/22-rdf-syntax-ns#"
		xmlns="http://my.netscape.com/rdf/simple/0.9/">
		<item rdf:ID="biblio1">
			<link>rdf:resource="http://pubs.usgs.gov/tm/2006/11A02/</link>
			<title>U.S. Geological Survey, 2006, FGDC Digital Cartographic Standard for Geologic Map Symbolization (PostScript Implementation): U.S. Geological Survey Techniques and Methods 11-A2</title>
		</item>
		<item rdf:ID="biblio2">
			<link>https://davenquinn.com/projects/geologic-patterns/</link>
			<title>FGDC Geologic Patterns for the Web</title>
		</item>
		<rdf:Description>
			<dc:description>Converted from 'FGDC Geologic Patterns for the Web' to QGIS compatible svg symbols, with customisable fill colour/stroke colour/stroke width (when appropriate)</dc:description>
			<dc:date>01 MARCH 2019</dc:date>
			<dc:creator>GeoProc.com</dc:creator>
			<dc:publisher rdf:resource="https://github.com/BC-Consulting/QGIS-FGDC-Fill" />
		</rdf:Description>
		<cc:Work rdf:about="">
			<dc:format>image/svg+xml</dc:format>
			<dc:type rdf:resource="http://purl.org/dc/dcmitype/StillImage" />
			<dc:title>FGDC fill symbol: Lithology - Sedimentary - 608 Bedded Sand Or Sandstone</dc:title>
		</cc:Work>
	</rdf:RDF>
	</metadata>
	<g>
		<rect x="1.838" y="-55.628" style="fill:none;stroke:none;" width="53.978" height="53.978"/>
        <g fill="param(outline) #000" stroke="param(outline) #000" stroke-width="param(outline-width) 0.5">
			<circle cx="10.084" cy="-2.587" r="0.5"/>
			<circle cx="10.272" cy="-28.264" r="0.5"/>
			<circle cx="10.621" cy="-11.936" r="0.5"/>
			<circle cx="10.621" cy="-5.186" r="0.5"/>
			<circle cx="10.633" cy="-14.296" r="0.5"/>
			<circle cx="10.647" cy="-54.503" r="0.5"/>
			<circle cx="10.678" cy="-18.68" r="0.5"/>
			<circle cx="10.734" cy="-25.43" r="0.5"/>
			<circle cx="10.791" cy="-32.18" r="0.5"/>
			<circle cx="10.848" cy="-38.885" r="0.5"/>
			<circle cx="10.848" cy="-45.686" r="0.5"/>
			<circle cx="10.905" cy="-52.436" r="0.5"/>
			<circle cx="10.948" cy="-37.42" r="0.5"/>
			<circle cx="11.021" cy="-9.335" r="0.5"/>
			<circle cx="11.181" cy="-16.886" r="0.5"/>
			<circle cx="11.396" cy="-20.955" r="0.5"/>
			<circle cx="11.4" cy="-23.463" r="0.5"/>
			<circle cx="11.482" cy="-43.817" r="0.5"/>
			<circle cx="11.584" cy="-40.822" r="0.5"/>
			<circle cx="11.649" cy="-50.65" r="0.5"/>
			<circle cx="11.959" cy="-3.712" r="0.5"/>
			<circle cx="11.959" cy="-6.523" r="0.5"/>
			<circle cx="11.959" cy="-6.523" r="0.5"/>
			<circle cx="12.073" cy="-35.358" r="0.5"/>
			<circle cx="12.333" cy="-30.326" r="0.5"/>
			<circle cx="12.615" cy="-11.936" r="0.5"/>
			<circle cx="12.615" cy="-5.186" r="0.5"/>
			<circle cx="12.672" cy="-18.68" r="0.5"/>
			<circle cx="12.708" cy="-47.756" r="0.5"/>
			<circle cx="12.729" cy="-25.43" r="0.5"/>
			<circle cx="12.785" cy="-32.18" r="0.5"/>
			<circle cx="12.842" cy="-38.885" r="0.5"/>
			<circle cx="12.842" cy="-45.686" r="0.5"/>
			<circle cx="12.899" cy="-52.436" r="0.5"/>
			<circle cx="13.833" cy="-26.577" r="0.5"/>
			<circle cx="14.02" cy="-20.393" r="0.5"/>
			<circle cx="14.02" cy="-9.147" r="0.5"/>
			<circle cx="14.149" cy="-16.817" r="0.5"/>
			<circle cx="14.569" cy="-14.109" r="0.5"/>
			<circle cx="14.583" cy="-34.449" r="0.5"/>
			<circle cx="14.583" cy="-53.754" r="0.5"/>
			<circle cx="14.615" cy="-11.936" r="0.5"/>
			<circle cx="14.615" cy="-5.186" r="0.5"/>
			<circle cx="14.672" cy="-18.68" r="0.5"/>
			<circle cx="14.729" cy="-25.43" r="0.5"/>
			<circle cx="14.785" cy="-32.18" r="0.5"/>
			<circle cx="14.842" cy="-38.885" r="0.5"/>
			<circle cx="14.842" cy="-45.686" r="0.5"/>
			<circle cx="14.899" cy="-52.436" r="0.5"/>
			<circle cx="14.957" cy="-29.201" r="0.5"/>
			<circle cx="15.145" cy="-3.524" r="0.5"/>
			<circle cx="15.145" cy="-50.755" r="0.5"/>
			<circle cx="15.149" cy="-23.65" r="0.5"/>
			<circle cx="15.707" cy="-41.384" r="0.5"/>
			<circle cx="16.181" cy="-44.386" r="0.5"/>
			<circle cx="16.269" cy="-17.581" r="0.5"/>
			<circle cx="16.615" cy="-11.936" r="0.5"/>
			<circle cx="16.615" cy="-5.186" r="0.5"/>
			<circle cx="16.644" cy="-35.949" r="0.5"/>
			<circle cx="16.672" cy="-18.68" r="0.5"/>
			<circle cx="16.729" cy="-25.43" r="0.5"/>
			<circle cx="16.785" cy="-32.18" r="0.5"/>
			<circle cx="16.842" cy="-38.885" r="0.5"/>
			<circle cx="16.842" cy="-45.686" r="0.5"/>
			<circle cx="16.899" cy="-52.436" r="0.5"/>
			<circle cx="17.019" cy="-47.944" r="0.5"/>
			<circle cx="17.581" cy="-21.892" r="0.5"/>
			<circle cx="17.581" cy="-50.568" r="0.5"/>
			<circle cx="17.581" cy="-53.566" r="0.5"/>
			<circle cx="17.581" cy="-53.566" r="0.5"/>
			<circle cx="17.581" cy="-8.585" r="0.5"/>
			<circle cx="17.769" cy="-28.077" r="0.5"/>
			<circle cx="18.143" cy="-2.775" r="0.5"/>
			<circle cx="18.331" cy="-15.894" r="0.5"/>
			<circle cx="18.331" cy="-30.701" r="0.5"/>
			<circle cx="18.621" cy="-11.936" r="0.5"/>
			<circle cx="18.621" cy="-5.186" r="0.5"/>
			<circle cx="18.658" cy="-10.463" r="0.5"/>
			<circle cx="18.678" cy="-18.68" r="0.5"/>
			<circle cx="18.734" cy="-25.43" r="0.5"/>
			<circle cx="18.791" cy="-32.18" r="0.5"/>
			<circle cx="18.848" cy="-38.885" r="0.5"/>
			<circle cx="18.848" cy="-45.686" r="0.5"/>
			<circle cx="18.904" cy="-52.436" r="0.5"/>
			<circle cx="18.982" cy="-42.15" r="0.5"/>
			<circle cx="19.83" cy="-35.574" r="0.5"/>
			<circle cx="19.83" cy="-40.072" r="0.5"/>
			<circle cx="2.4" cy="-22.642" r="0.5"/>
			<circle cx="2.615" cy="-11.936" r="0.5"/>
			<circle cx="2.615" cy="-5.186" r="0.5"/>
			<circle cx="2.672" cy="-18.68" r="0.5"/>
			<circle cx="2.729" cy="-25.43" r="0.5"/>
			<circle cx="2.775" cy="-43.258" r="0.5"/>
			<circle cx="2.785" cy="-32.18" r="0.5"/>
			<circle cx="2.842" cy="-38.885" r="0.5"/>
			<circle cx="2.842" cy="-45.686" r="0.5"/>
			<circle cx="2.899" cy="-52.436" r="0.5"/>
			<circle cx="2.962" cy="-49.068" r="0.5"/>
			<circle cx="20.018" cy="-47.944" r="0.5"/>
			<circle cx="20.205" cy="-55.066" r="0.5"/>
			<circle cx="20.621" cy="-11.936" r="0.5"/>
			<circle cx="20.621" cy="-5.186" r="0.5"/>
			<circle cx="20.649" cy="-13.984" r="0.5"/>
			<circle cx="20.678" cy="-18.68" r="0.5"/>
			<circle cx="20.734" cy="-25.43" r="0.5"/>
			<circle cx="20.767" cy="-37.448" r="0.5"/>
			<circle cx="20.791" cy="-32.18" r="0.5"/>
			<circle cx="20.806" cy="-28.011" r="0.5"/>
			<circle cx="20.848" cy="-38.885" r="0.5"/>
			<circle cx="20.848" cy="-45.686" r="0.5"/>
			<circle cx="20.904" cy="-52.436" r="0.5"/>
			<circle cx="20.982" cy="-43.817" r="0.5"/>
			<circle cx="21.142" cy="-23.204" r="0.5"/>
			<circle cx="21.142" cy="-3.337" r="0.5"/>
			<circle cx="21.142" cy="-50.568" r="0.5"/>
			<circle cx="21.33" cy="-30.326" r="0.5"/>
			<circle cx="21.33" cy="-8.023" r="0.5"/>
			<circle cx="21.517" cy="-20.018" r="0.5"/>
			<circle cx="21.649" cy="-34.15" r="0.5"/>
			<circle cx="21.844" cy="-10.838" r="0.5"/>
			<circle cx="22.149" cy="-16.65" r="0.5"/>
			<circle cx="22.621" cy="-11.936" r="0.5"/>
			<circle cx="22.621" cy="-5.186" r="0.5"/>
			<circle cx="22.678" cy="-18.68" r="0.5"/>
			<circle cx="22.734" cy="-25.43" r="0.5"/>
			<circle cx="22.791" cy="-32.18" r="0.5"/>
			<circle cx="22.848" cy="-38.885" r="0.5"/>
			<circle cx="22.848" cy="-45.686" r="0.5"/>
			<circle cx="22.904" cy="-52.436" r="0.5"/>
			<circle cx="23.204" cy="-2.4" r="0.5"/>
			<circle cx="23.766" cy="-42.133" r="0.5"/>
			<circle cx="23.766" cy="-48.319" r="0.5"/>
			<circle cx="24.141" cy="-22.642" r="0.5"/>
			<circle cx="24.141" cy="-29.201" r="0.5"/>
			<circle cx="24.141" cy="-35.574" r="0.5"/>
			<circle cx="24.516" cy="-9.147" r="0.5"/>
			<circle cx="24.621" cy="-11.936" r="0.5"/>
			<circle cx="24.621" cy="-5.186" r="0.5"/>
			<circle cx="24.649" cy="-53.65" r="0.5"/>
			<circle cx="24.678" cy="-18.68" r="0.5"/>
			<circle cx="24.734" cy="-25.43" r="0.5"/>
			<circle cx="24.791" cy="-32.18" r="0.5"/>
			<circle cx="24.848" cy="-38.885" r="0.5"/>
			<circle cx="24.848" cy="-45.686" r="0.5"/>
			<circle cx="24.904" cy="-52.436" r="0.5"/>
			<circle cx="25.64" cy="-47.007" r="0.5"/>
			<circle cx="25.64" cy="-47.007" r="0.5"/>
			<circle cx="25.828" cy="-14.02" r="0.5"/>
			<circle cx="25.982" cy="-40.65" r="0.5"/>
			<circle cx="26.015" cy="-50.568" r="0.5"/>
			<circle cx="26.149" cy="-16.65" r="0.5"/>
			<circle cx="26.203" cy="-20.58" r="0.5"/>
			<circle cx="26.315" cy="-6.817" r="0.5"/>
			<circle cx="26.627" cy="-11.936" r="0.5"/>
			<circle cx="26.627" cy="-5.186" r="0.5"/>
			<circle cx="26.684" cy="-18.68" r="0.5"/>
			<circle cx="26.74" cy="-25.43" r="0.5"/>
			<circle cx="26.797" cy="-32.18" r="0.5"/>
			<circle cx="26.815" cy="-23.65" r="0.5"/>
			<circle cx="26.854" cy="-38.885" r="0.5"/>
			<circle cx="26.854" cy="-45.686" r="0.5"/>
			<circle cx="26.91" cy="-52.436" r="0.5"/>
			<circle cx="27.327" cy="-30.326" r="0.5"/>
			<circle cx="27.327" cy="-44.57" r="0.5"/>
			<circle cx="27.327" cy="-54.878" r="0.5"/>
			<circle cx="27.515" cy="-35.574" r="0.5"/>
			<circle cx="27.515" cy="-35.574" r="0.5"/>
			<circle cx="27.889" cy="-27.889" r="0.5"/>
			<circle cx="28.627" cy="-11.936" r="0.5"/>
			<circle cx="28.627" cy="-5.186" r="0.5"/>
			<circle cx="28.639" cy="-47.569" r="0.5"/>
			<circle cx="28.684" cy="-18.68" r="0.5"/>
			<circle cx="28.74" cy="-25.43" r="0.5"/>
			<circle cx="28.797" cy="-32.18" r="0.5"/>
			<circle cx="28.827" cy="-13.645" r="0.5"/>
			<circle cx="28.854" cy="-38.885" r="0.5"/>
			<circle cx="28.854" cy="-45.686" r="0.5"/>
			<circle cx="28.91" cy="-52.436" r="0.5"/>
			<circle cx="29.201" cy="-16.269" r="0.5"/>
			<circle cx="29.341" cy="-10.463" r="0.5"/>
			<circle cx="29.482" cy="-7.484" r="0.5"/>
			<circle cx="29.576" cy="-22.454" r="0.5"/>
			<circle cx="29.576" cy="-50.193" r="0.5"/>
			<circle cx="29.764" cy="-34.449" r="0.5"/>
			<circle cx="29.951" cy="-3.337" r="0.5"/>
			<circle cx="29.982" cy="-30.15" r="0.5"/>
			<circle cx="29.982" cy="-40.65" r="0.5"/>
			<circle cx="3.337" cy="-33.887" r="0.5"/>
			<circle cx="3.514" cy="-37.345" r="0.5"/>
			<circle cx="3.524" cy="-14.957" r="0.5"/>
			<circle cx="3.524" cy="-9.335" r="0.5"/>
			<circle cx="3.712" cy="-29.389" r="0.5"/>
			<circle cx="3.899" cy="-2.4" r="0.5"/>
			<circle cx="30.326" cy="-42.508" r="0.5"/>
			<circle cx="30.627" cy="-11.936" r="0.5"/>
			<circle cx="30.627" cy="-5.186" r="0.5"/>
			<circle cx="30.684" cy="-18.68" r="0.5"/>
			<circle cx="30.74" cy="-25.43" r="0.5"/>
			<circle cx="30.797" cy="-32.18" r="0.5"/>
			<circle cx="30.854" cy="-38.885" r="0.5"/>
			<circle cx="30.854" cy="-45.686" r="0.5"/>
			<circle cx="30.91" cy="-52.436" r="0.5"/>
			<circle cx="31.076" cy="-37.261" r="0.5"/>
			<circle cx="31.263" cy="-44.57" r="0.5"/>
			<circle cx="31.638" cy="-54.503" r="0.5"/>
			<circle cx="31.825" cy="-27.515" r="0.5"/>
			<circle cx="31.825" cy="-8.772" r="0.5"/>
			<circle cx="32.013" cy="-48.131" r="0.5"/>
			<circle cx="32.056" cy="-22.011" r="0.5"/>
			<circle cx="32.431" cy="-17.136" r="0.5"/>
			<circle cx="32.627" cy="-11.936" r="0.5"/>
			<circle cx="32.627" cy="-5.186" r="0.5"/>
			<circle cx="32.683" cy="-18.68" r="0.5"/>
			<circle cx="32.74" cy="-25.43" r="0.5"/>
			<circle cx="32.797" cy="-32.18" r="0.5"/>
			<circle cx="32.854" cy="-38.885" r="0.5"/>
			<circle cx="32.854" cy="-45.686" r="0.5"/>
			<circle cx="32.91" cy="-52.436" r="0.5"/>
			<circle cx="32.95" cy="-29.951" r="0.5"/>
			<circle cx="32.95" cy="-50.568" r="0.5"/>
			<circle cx="33.049" cy="-20.102" r="0.5"/>
			<circle cx="33.137" cy="-14.582" r="0.5"/>
			<circle cx="33.465" cy="-10.838" r="0.5"/>
			<circle cx="33.7" cy="-34.637" r="0.5"/>
			<circle cx="33.776" cy="-6.463" r="0.5"/>
			<circle cx="34.075" cy="-40.259" r="0.5"/>
			<circle cx="34.449" cy="-54.691" r="0.5"/>
			<circle cx="34.621" cy="-11.936" r="0.5"/>
			<circle cx="34.621" cy="-5.186" r="0.5"/>
			<circle cx="34.637" cy="-37.073" r="0.5"/>
			<circle cx="34.678" cy="-18.68" r="0.5"/>
			<circle cx="34.734" cy="-25.43" r="0.5"/>
			<circle cx="34.791" cy="-32.18" r="0.5"/>
			<circle cx="34.806" cy="-23.011" r="0.5"/>
			<circle cx="34.824" cy="-8.585" r="0.5"/>
			<circle cx="34.848" cy="-38.885" r="0.5"/>
			<circle cx="34.848" cy="-45.686" r="0.5"/>
			<circle cx="34.904" cy="-52.436" r="0.5"/>
			<circle cx="35.012" cy="-26.39" r="0.5"/>
			<circle cx="35.199" cy="-2.4" r="0.5"/>
			<circle cx="35.199" cy="-2.4" r="0.5"/>
			<circle cx="35.815" cy="-43.484" r="0.5"/>
			<circle cx="35.949" cy="-50.755" r="0.5"/>
			<circle cx="36.129" cy="-20.484" r="0.5"/>
			<circle cx="36.136" cy="-16.644" r="0.5"/>
			<circle cx="36.306" cy="-28.511" r="0.5"/>
			<circle cx="36.511" cy="-48.131" r="0.5"/>
			<circle cx="36.621" cy="-11.936" r="0.5"/>
			<circle cx="36.621" cy="-5.186" r="0.5"/>
			<circle cx="36.678" cy="-18.68" r="0.5"/>
			<circle cx="36.698" cy="-13.271" r="0.5"/>
			<circle cx="36.734" cy="-25.43" r="0.5"/>
			<circle cx="36.791" cy="-32.18" r="0.5"/>
			<circle cx="36.848" cy="-38.885" r="0.5"/>
			<circle cx="36.848" cy="-45.686" r="0.5"/>
			<circle cx="36.904" cy="-52.436" r="0.5"/>
			<circle cx="37.448" cy="-30.513" r="0.5"/>
			<circle cx="37.448" cy="-35.386" r="0.5"/>
			<circle cx="37.649" cy="-40.984" r="0.5"/>
			<circle cx="37.775" cy="-10.276" r="0.5"/>
			<circle cx="37.823" cy="-22.642" r="0.5"/>
			<circle cx="37.823" cy="-4.087" r="0.5"/>
			<circle cx="38.306" cy="-27.261" r="0.5"/>
			<circle cx="38.621" cy="-11.936" r="0.5"/>
			<circle cx="38.621" cy="-5.186" r="0.5"/>
			<circle cx="38.649" cy="-6.65" r="0.5"/>
			<circle cx="38.678" cy="-18.68" r="0.5"/>
			<circle cx="38.734" cy="-25.43" r="0.5"/>
			<circle cx="38.791" cy="-32.18" r="0.5"/>
			<circle cx="38.848" cy="-38.885" r="0.5"/>
			<circle cx="38.848" cy="-45.686" r="0.5"/>
			<circle cx="38.904" cy="-52.436" r="0.5"/>
			<circle cx="38.947" cy="-8.398" r="0.5"/>
			<circle cx="39.135" cy="-54.878" r="0.5"/>
			<circle cx="39.315" cy="-20.484" r="0.5"/>
			<circle cx="39.51" cy="-17.206" r="0.5"/>
			<circle cx="39.697" cy="-42.321" r="0.5"/>
			<circle cx="39.697" cy="-42.321" r="0.5"/>
			<circle cx="4.087" cy="-17.581" r="0.5"/>
			<circle cx="4.274" cy="-20.393" r="0.5"/>
			<circle cx="4.274" cy="-40.447" r="0.5"/>
			<circle cx="4.274" cy="-6.523" r="0.5"/>
			<circle cx="4.462" cy="-53.941" r="0.5"/>
			<circle cx="4.621" cy="-11.936" r="0.5"/>
			<circle cx="4.621" cy="-5.186" r="0.5"/>
			<circle cx="4.678" cy="-18.68" r="0.5"/>
			<circle cx="4.734" cy="-25.43" r="0.5"/>
			<circle cx="4.791" cy="-32.18" r="0.5"/>
			<circle cx="4.815" cy="-50.484" r="0.5"/>
			<circle cx="4.848" cy="-38.885" r="0.5"/>
			<circle cx="4.848" cy="-45.686" r="0.5"/>
			<circle cx="4.905" cy="-52.436" r="0.5"/>
			<circle cx="40.259" cy="-13.645" r="0.5"/>
			<circle cx="40.259" cy="-36.886" r="0.5"/>
			<circle cx="40.259" cy="-49.068" r="0.5"/>
			<circle cx="40.627" cy="-11.936" r="0.5"/>
			<circle cx="40.627" cy="-5.186" r="0.5"/>
			<circle cx="40.683" cy="-18.68" r="0.5"/>
			<circle cx="40.74" cy="-25.43" r="0.5"/>
			<circle cx="40.797" cy="-32.18" r="0.5"/>
			<circle cx="40.822" cy="-23.579" r="0.5"/>
			<circle cx="40.822" cy="-33.7" r="0.5"/>
			<circle cx="40.854" cy="-38.885" r="0.5"/>
			<circle cx="40.854" cy="-45.686" r="0.5"/>
			<circle cx="40.91" cy="-52.436" r="0.5"/>
			<circle cx="40.982" cy="-30.317" r="0.5"/>
			<circle cx="41.009" cy="-27.327" r="0.5"/>
			<circle cx="41.149" cy="-10.65" r="0.5"/>
			<circle cx="41.384" cy="-3.524" r="0.5"/>
			<circle cx="41.759" cy="-44.57" r="0.5"/>
			<circle cx="42.627" cy="-11.936" r="0.5"/>
			<circle cx="42.627" cy="-5.186" r="0.5"/>
			<circle cx="42.649" cy="-17.15" r="0.5"/>
			<circle cx="42.683" cy="-18.68" r="0.5"/>
			<circle cx="42.74" cy="-25.43" r="0.5"/>
			<circle cx="42.797" cy="-32.18" r="0.5"/>
			<circle cx="42.854" cy="-38.885" r="0.5"/>
			<circle cx="42.854" cy="-45.686" r="0.5"/>
			<circle cx="42.883" cy="-47.569" r="0.5"/>
			<circle cx="42.883" cy="-50.755" r="0.5"/>
			<circle cx="42.91" cy="-52.436" r="0.5"/>
			<circle cx="43.071" cy="-15.145" r="0.5"/>
			<circle cx="43.071" cy="-15.145" r="0.5"/>
			<circle cx="43.071" cy="-20.58" r="0.5"/>
			<circle cx="43.071" cy="-6.898" r="0.5"/>
			<circle cx="43.149" cy="-36.984" r="0.5"/>
			<circle cx="43.315" cy="-23.484" r="0.5"/>
			<circle cx="43.445" cy="-41.759" r="0.5"/>
			<circle cx="43.633" cy="-29.201" r="0.5"/>
			<circle cx="44.195" cy="-55.253" r="0.5"/>
			<circle cx="44.315" cy="-34.317" r="0.5"/>
			<circle cx="44.383" cy="-26.577" r="0.5"/>
			<circle cx="44.627" cy="-11.936" r="0.5"/>
			<circle cx="44.627" cy="-5.186" r="0.5"/>
			<circle cx="44.683" cy="-18.68" r="0.5"/>
			<circle cx="44.74" cy="-25.43" r="0.5"/>
			<circle cx="44.797" cy="-32.18" r="0.5"/>
			<circle cx="44.854" cy="-38.885" r="0.5"/>
			<circle cx="44.854" cy="-45.686" r="0.5"/>
			<circle cx="44.91" cy="-52.436" r="0.5"/>
			<circle cx="44.945" cy="-4.087" r="0.5"/>
			<circle cx="45.507" cy="-9.71" r="0.5"/>
			<circle cx="45.882" cy="-13.083" r="0.5"/>
			<circle cx="45.882" cy="-23.954" r="0.5"/>
			<circle cx="45.882" cy="-50.193" r="0.5"/>
			<circle cx="46.069" cy="-21.142" r="0.5"/>
			<circle cx="46.069" cy="-30.701" r="0.5"/>
			<circle cx="46.069" cy="-30.701" r="0.5"/>
			<circle cx="46.069" cy="-40.259" r="0.5"/>
			<circle cx="46.149" cy="-37.15" r="0.5"/>
			<circle cx="46.444" cy="-42.883" r="0.5"/>
			<circle cx="46.444" cy="-47.756" r="0.5"/>
			<circle cx="46.633" cy="-11.936" r="0.5"/>
			<circle cx="46.633" cy="-5.186" r="0.5"/>
			<circle cx="46.649" cy="-16.65" r="0.5"/>
			<circle cx="46.689" cy="-18.68" r="0.5"/>
			<circle cx="46.746" cy="-25.43" r="0.5"/>
			<circle cx="46.803" cy="-32.18" r="0.5"/>
			<circle cx="46.859" cy="-38.885" r="0.5"/>
			<circle cx="46.859" cy="-45.686" r="0.5"/>
			<circle cx="46.916" cy="-52.436" r="0.5"/>
			<circle cx="47.381" cy="-6.523" r="0.5"/>
			<circle cx="47.756" cy="-35.574" r="0.5"/>
			<circle cx="48.131" cy="-26.577" r="0.5"/>
			<circle cx="48.638" cy="-11.936" r="0.5"/>
			<circle cx="48.638" cy="-5.186" r="0.5"/>
			<circle cx="48.693" cy="-24.141" r="0.5"/>
			<circle cx="48.693" cy="-29.201" r="0.5"/>
			<circle cx="48.693" cy="-3.15" r="0.5"/>
			<circle cx="48.695" cy="-18.68" r="0.5"/>
			<circle cx="48.752" cy="-25.43" r="0.5"/>
			<circle cx="48.808" cy="-32.18" r="0.5"/>
			<circle cx="48.865" cy="-38.885" r="0.5"/>
			<circle cx="48.865" cy="-45.686" r="0.5"/>
			<circle cx="48.881" cy="-54.316" r="0.5"/>
			<circle cx="48.922" cy="-52.436" r="0.5"/>
			<circle cx="49.068" cy="-13.083" r="0.5"/>
			<circle cx="49.256" cy="-15.519" r="0.5"/>
			<circle cx="49.443" cy="-48.881" r="0.5"/>
			<circle cx="49.443" cy="-9.522" r="0.5"/>
			<circle cx="49.681" cy="-41.761" r="0.5"/>
			<circle cx="49.818" cy="-50.942" r="0.5"/>
			<circle cx="5.351" cy="-10.463" r="0.5"/>
			<circle cx="5.586" cy="-13.271" r="0.5"/>
			<circle cx="5.774" cy="-3.524" r="0.5"/>
			<circle cx="5.815" cy="-27.15" r="0.5"/>
			<circle cx="50.005" cy="-33.7" r="0.5"/>
			<circle cx="50.38" cy="-21.517" r="0.5"/>
			<circle cx="50.38" cy="-6.711" r="0.5"/>
			<circle cx="50.638" cy="-11.936" r="0.5"/>
			<circle cx="50.638" cy="-5.186" r="0.5"/>
			<circle cx="50.695" cy="-18.68" r="0.5"/>
			<circle cx="50.752" cy="-25.43" r="0.5"/>
			<circle cx="50.755" cy="-44.008" r="0.5"/>
			<circle cx="50.808" cy="-32.18" r="0.5"/>
			<circle cx="50.865" cy="-38.885" r="0.5"/>
			<circle cx="50.865" cy="-45.686" r="0.5"/>
			<circle cx="50.922" cy="-52.436" r="0.5"/>
			<circle cx="50.982" cy="-37.317" r="0.5"/>
			<circle cx="50.982" cy="-47.317" r="0.5"/>
			<circle cx="51.315" cy="-30.65" r="0.5"/>
			<circle cx="51.692" cy="-27.889" r="0.5"/>
			<circle cx="52.067" cy="-17.019" r="0.5"/>
			<circle cx="52.149" cy="-40.65" r="0.5"/>
			<circle cx="52.431" cy="-49.011" r="0.5"/>
			<circle cx="52.442" cy="-12.896" r="0.5"/>
			<circle cx="52.442" cy="-51.317" r="0.5"/>
			<circle cx="52.442" cy="-54.503" r="0.5"/>
			<circle cx="52.442" cy="-9.522" r="0.5"/>
			<circle cx="52.638" cy="-11.936" r="0.5"/>
			<circle cx="52.638" cy="-5.186" r="0.5"/>
			<circle cx="52.695" cy="-18.68" r="0.5"/>
			<circle cx="52.752" cy="-25.43" r="0.5"/>
			<circle cx="52.808" cy="-32.18" r="0.5"/>
			<circle cx="52.865" cy="-38.885" r="0.5"/>
			<circle cx="52.865" cy="-45.686" r="0.5"/>
			<circle cx="52.922" cy="-52.436" r="0.5"/>
			<circle cx="53.192" cy="-23.017" r="0.5"/>
			<circle cx="53.566" cy="-35.949" r="0.5"/>
			<circle cx="53.754" cy="-2.962" r="0.5"/>
			<circle cx="53.941" cy="-15.145" r="0.5"/>
			<circle cx="53.941" cy="-33.512" r="0.5"/>
			<circle cx="53.941" cy="-42.321" r="0.5"/>
			<circle cx="53.941" cy="-6.523" r="0.5"/>
			<circle cx="54.503" cy="-29.951" r="0.5"/>
			<circle cx="54.621" cy="-11.936" r="0.5"/>
			<circle cx="54.621" cy="-5.186" r="0.5"/>
			<circle cx="54.678" cy="-18.68" r="0.5"/>
			<circle cx="54.691" cy="-47.569" r="0.5"/>
			<circle cx="54.734" cy="-25.43" r="0.5"/>
			<circle cx="54.791" cy="-32.18" r="0.5"/>
			<circle cx="54.848" cy="-38.885" r="0.5"/>
			<circle cx="54.848" cy="-45.686" r="0.5"/>
			<circle cx="54.904" cy="-52.436" r="0.5"/>
			<circle cx="55.066" cy="-27.14" r="0.5"/>
			<circle cx="55.149" cy="-17.15" r="0.5"/>
			<circle cx="55.253" cy="-8.585" r="0.5"/>
			<circle cx="55.253" cy="-8.585" r="0.5"/>
			<circle cx="6.336" cy="-47.007" r="0.5"/>
			<circle cx="6.336" cy="-8.21" r="0.5"/>
			<circle cx="6.482" cy="-40.984" r="0.5"/>
			<circle cx="6.621" cy="-11.936" r="0.5"/>
			<circle cx="6.621" cy="-5.186" r="0.5"/>
			<circle cx="6.678" cy="-18.68" r="0.5"/>
			<circle cx="6.711" cy="-30.326" r="0.5"/>
			<circle cx="6.734" cy="-25.43" r="0.5"/>
			<circle cx="6.791" cy="-32.18" r="0.5"/>
			<circle cx="6.848" cy="-38.885" r="0.5"/>
			<circle cx="6.848" cy="-45.686" r="0.5"/>
			<circle cx="6.898" cy="-49.443" r="0.5"/>
			<circle cx="6.905" cy="-52.436" r="0.5"/>
			<circle cx="7.086" cy="-16.644" r="0.5"/>
			<circle cx="7.086" cy="-53.754" r="0.5"/>
			<circle cx="7.273" cy="-23.579" r="0.5"/>
			<circle cx="7.273" cy="-35.012" r="0.5"/>
			<circle cx="7.273" cy="-44.008" r="0.5"/>
			<circle cx="7.46" cy="-37.073" r="0.5"/>
			<circle cx="7.821" cy="-14.296" r="0.5"/>
			<circle cx="7.835" cy="-20.58" r="0.5"/>
			<circle cx="8.621" cy="-11.936" r="0.5"/>
			<circle cx="8.621" cy="-5.186" r="0.5"/>
			<circle cx="8.678" cy="-18.68" r="0.5"/>
			<circle cx="8.734" cy="-25.43" r="0.5"/>
			<circle cx="8.791" cy="-32.18" r="0.5"/>
			<circle cx="8.848" cy="-38.885" r="0.5"/>
			<circle cx="8.848" cy="-45.686" r="0.5"/>
			<circle cx="8.905" cy="-52.436" r="0.5"/>
			<circle cx="9.147" cy="-41.759" r="0.5"/>
			<circle cx="9.147" cy="-7.835" r="0.5"/>
			<circle cx="9.474" cy="-10.65" r="0.5"/>
			<circle cx="9.522" cy="-48.881" r="0.5"/>
			<circle cx="9.71" cy="-30.701" r="0.5"/>
			<circle cx="9.982" cy="-33.984" r="0.5"/>
		</g>
	</g>
</svg>
