<?xml version="1.0" encoding="utf-8"?>
<svg xmlns="http://www.w3.org/2000/svg" version="1.1" x="0px" y="0px" xml:space="preserve" width="54" height="54" viewBox="1.936 -56.079 54 54">
	<metadata id="metadata2">
	<rdf:RDF
		xmlns:dc="http://purl.org/dc/elements/1.1/"
		xmlns:cc="http://creativecommons.org/ns#"
		xmlns:rdf="http://www.w3.org/1999/02/22-rdf-syntax-ns#"
		xmlns="http://my.netscape.com/rdf/simple/0.9/">
		<item rdf:ID="biblio1">
			<link>rdf:resource="http://pubs.usgs.gov/tm/2006/11A02/</link>
			<title>U.S. Geological Survey, 2006, FGDC Digital Cartographic Standard for Geologic Map Symbolization (PostScript Implementation): U.S. Geological Survey Techniques and Methods 11-A2</title>
		</item>
		<item rdf:ID="biblio2">
			<link>https://davenquinn.com/projects/geologic-patterns/</link>
			<title>FGDC Geologic Patterns for the Web</title>
		</item>
		<rdf:Description>
			<dc:description>Converted from 'FGDC Geologic Patterns for the Web' to QGIS compatible svg symbols, with customisable fill colour/stroke colour/stroke width (when appropriate)</dc:description>
			<dc:date>01 MARCH 2019</dc:date>
			<dc:creator>GeoProc.com</dc:creator>
			<dc:publisher rdf:resource="https://github.com/BC-Consulting/QGIS-FGDC-Fill" />
		</rdf:Description>
		<cc:Work rdf:about="">
			<dc:format>image/svg+xml</dc:format>
			<dc:type rdf:resource="http://purl.org/dc/dcmitype/StillImage" />
			<dc:title>FGDC fill symbol: Lithology - Sedimentary - 610 Crossbedded Sand Or Sandstone 2nd Option</dc:title>
		</cc:Work>
	</rdf:RDF>
	</metadata>
	<g>
		<rect x="1.936" y="-56.079" style="fill:none;stroke:none;" width="54" height="54"/>
        <g fill="param(fill) #000" stroke="param(fill) #000" stroke-width="param(outline-width) 0.3">
			<circle cx="10.059" cy="-12.337" r="0.5"/>
			<circle cx="10.309" cy="-39.463" r="0.5"/>
			<circle cx="10.472" cy="-44.438" r="0.5"/>
			<circle cx="10.551" cy="-41.096" r="0.5"/>
			<circle cx="10.551" cy="-41.096" r="0.5"/>
			<circle cx="10.597" cy="-17.397" r="0.5"/>
			<circle cx="10.726" cy="-52.46" r="0.5"/>
			<circle cx="10.809" cy="-2.775" r="0.5"/>
			<circle cx="10.825" cy="-14.837" r="0.5"/>
			<circle cx="10.851" cy="-25.418" r="0.5"/>
			<circle cx="10.934" cy="-5.713" r="0.5"/>
			<circle cx="10.986" cy="-29.834" r="0.5"/>
			<circle cx="10.987" cy="-48.896" r="0.5"/>
			<circle cx="11.061" cy="-36.891" r="0.5"/>
			<circle cx="11.184" cy="-10.15" r="0.5"/>
			<circle cx="11.184" cy="-21.275" r="0.5"/>
			<circle cx="11.186" cy="-32.891" r="0.5"/>
			<circle cx="11.309" cy="-8.275" r="0.5"/>
			<circle cx="11.353" cy="-35.079" r="0.5"/>
			<circle cx="11.996" cy="-11.9" r="0.5"/>
			<circle cx="12.309" cy="-39.15" r="0.5"/>
			<circle cx="12.461" cy="-40.314" r="0.5"/>
			<circle cx="12.461" cy="-40.314" r="0.5"/>
			<circle cx="12.53" cy="-44.625" r="0.5"/>
			<circle cx="12.61" cy="-52.451" r="0.5"/>
			<circle cx="12.655" cy="-17.583" r="0.5"/>
			<circle cx="12.735" cy="-25.41" r="0.5"/>
			<circle cx="12.762" cy="-14.025" r="0.5"/>
			<circle cx="12.824" cy="-2.705" r="0.5"/>
			<circle cx="12.866" cy="-29.705" r="0.5"/>
			<circle cx="12.934" cy="-5.588" r="0.5"/>
			<circle cx="12.998" cy="-49.13" r="0.5"/>
			<circle cx="13.124" cy="-32.829" r="0.5"/>
			<circle cx="13.184" cy="-21.525" r="0.5"/>
			<circle cx="13.249" cy="-36.579" r="0.5"/>
			<circle cx="13.309" cy="-8.087" r="0.5"/>
			<circle cx="13.353" cy="-34.995" r="0.5"/>
			<circle cx="13.371" cy="-9.837" r="0.5"/>
			<circle cx="14.091" cy="-11.493" r="0.5"/>
			<circle cx="14.309" cy="-39.65" r="0.5"/>
			<circle cx="14.457" cy="-44.995" r="0.5"/>
			<circle cx="14.582" cy="-17.953" r="0.5"/>
			<circle cx="14.694" cy="-52.548" r="0.5"/>
			<circle cx="14.7" cy="-13.212" r="0.5"/>
			<circle cx="14.819" cy="-25.507" r="0.5"/>
			<circle cx="14.871" cy="-5.463" r="0.5"/>
			<circle cx="14.91" cy="-2.667" r="0.5"/>
			<circle cx="14.913" cy="-32.739" r="0.5"/>
			<circle cx="14.951" cy="-29.667" r="0.5"/>
			<circle cx="15.003" cy="-49.238" r="0.5"/>
			<circle cx="15.309" cy="-21.712" r="0.5"/>
			<circle cx="15.371" cy="-7.9" r="0.5"/>
			<circle cx="15.436" cy="-34.891" r="0.5"/>
			<circle cx="15.624" cy="-36.641" r="0.5"/>
			<circle cx="15.624" cy="-9.641" r="0.5"/>
			<circle cx="15.889" cy="-16.76" r="0.5"/>
			<circle cx="15.889" cy="-16.76" r="0.5"/>
			<circle cx="15.889" cy="-43.759" r="0.5"/>
			<circle cx="15.889" cy="-43.759" r="0.5"/>
			<circle cx="16.211" cy="-39.057" r="0.5"/>
			<circle cx="16.447" cy="-45.367" r="0.5"/>
			<circle cx="16.572" cy="-18.325" r="0.5"/>
			<circle cx="16.575" cy="-12.4" r="0.5"/>
			<circle cx="16.653" cy="-52.658" r="0.5"/>
			<circle cx="16.778" cy="-25.616" r="0.5"/>
			<circle cx="16.809" cy="-5.4" r="0.5"/>
			<circle cx="16.872" cy="-2.65" r="0.5"/>
			<circle cx="16.912" cy="-32.658" r="0.5"/>
			<circle cx="16.914" cy="-29.65" r="0.5"/>
			<circle cx="17.017" cy="-49.535" r="0.5"/>
			<circle cx="17.184" cy="-22.025" r="0.5"/>
			<circle cx="17.371" cy="-7.838" r="0.5"/>
			<circle cx="17.624" cy="-34.766" r="0.5"/>
			<circle cx="17.749" cy="-36.579" r="0.5"/>
			<circle cx="17.776" cy="-15.925" r="0.5"/>
			<circle cx="17.776" cy="-15.925" r="0.5"/>
			<circle cx="17.776" cy="-42.925" r="0.5"/>
			<circle cx="17.776" cy="-42.925" r="0.5"/>
			<circle cx="17.871" cy="-9.4" r="0.5"/>
			<circle cx="18.083" cy="-38.498" r="0.5"/>
			<circle cx="18.325" cy="-11.712" r="0.5"/>
			<circle cx="18.441" cy="-45.614" r="0.5"/>
			<circle cx="18.566" cy="-18.572" r="0.5"/>
			<circle cx="18.675" cy="-52.761" r="0.5"/>
			<circle cx="18.8" cy="-25.72" r="0.5"/>
			<circle cx="18.871" cy="-5.338" r="0.5"/>
			<circle cx="18.896" cy="-2.623" r="0.5"/>
			<circle cx="18.897" cy="-49.649" r="0.5"/>
			<circle cx="18.935" cy="-32.439" r="0.5"/>
			<circle cx="18.938" cy="-29.623" r="0.5"/>
			<circle cx="19.184" cy="-22.275" r="0.5"/>
			<circle cx="19.559" cy="-7.713" r="0.5"/>
			<circle cx="19.632" cy="-15.313" r="0.5"/>
			<circle cx="19.632" cy="-42.313" r="0.5"/>
			<circle cx="19.874" cy="-34.704" r="0.5"/>
			<circle cx="19.996" cy="-37.838" r="0.5"/>
			<circle cx="19.996" cy="-9.337" r="0.5"/>
			<circle cx="2.4" cy="-41.9" r="0.5"/>
			<circle cx="2.52" cy="-14.662" r="0.5"/>
			<circle cx="2.559" cy="-43.515" r="0.5"/>
			<circle cx="2.559" cy="-43.515" r="0.5"/>
			<circle cx="2.684" cy="-16.473" r="0.5"/>
			<circle cx="2.684" cy="-16.473" r="0.5"/>
			<circle cx="2.708" cy="-52.103" r="0.5"/>
			<circle cx="2.746" cy="-3.088" r="0.5"/>
			<circle cx="2.811" cy="-33.266" r="0.5"/>
			<circle cx="2.811" cy="-6.266" r="0.5"/>
			<circle cx="2.833" cy="-25.061" r="0.5"/>
			<circle cx="2.936" cy="-28.266" r="0.5"/>
			<circle cx="2.962" cy="-29.994" r="0.5"/>
			<circle cx="2.996" cy="-20.837" r="0.5"/>
			<circle cx="20.061" cy="-36.516" r="0.5"/>
			<circle cx="20.075" cy="-11.087" r="0.5"/>
			<circle cx="20.429" cy="-46.048" r="0.5"/>
			<circle cx="20.554" cy="-19.007" r="0.5"/>
			<circle cx="20.641" cy="-52.933" r="0.5"/>
			<circle cx="20.766" cy="-25.891" r="0.5"/>
			<circle cx="20.871" cy="-2.65" r="0.5"/>
			<circle cx="20.871" cy="-5.213" r="0.5"/>
			<circle cx="20.911" cy="-29.668" r="0.5"/>
			<circle cx="20.934" cy="-32.358" r="0.5"/>
			<circle cx="20.971" cy="-49.88" r="0.5"/>
			<circle cx="21.184" cy="-22.65" r="0.5"/>
			<circle cx="21.489" cy="-14.562" r="0.5"/>
			<circle cx="21.489" cy="-41.562" r="0.5"/>
			<circle cx="21.916" cy="-37.272" r="0.5"/>
			<circle cx="21.934" cy="-9.275" r="0.5"/>
			<circle cx="22.075" cy="-10.337" r="0.5"/>
			<circle cx="22.246" cy="-7.588" r="0.5"/>
			<circle cx="22.297" cy="-46.291" r="0.5"/>
			<circle cx="22.311" cy="-34.829" r="0.5"/>
			<circle cx="22.422" cy="-19.25" r="0.5"/>
			<circle cx="22.725" cy="-53.03" r="0.5"/>
			<circle cx="22.85" cy="-25.988" r="0.5"/>
			<circle cx="22.916" cy="-32.217" r="0.5"/>
			<circle cx="22.916" cy="-5.217" r="0.5"/>
			<circle cx="22.919" cy="-50.117" r="0.5"/>
			<circle cx="22.934" cy="-2.713" r="0.5"/>
			<circle cx="22.997" cy="-29.63" r="0.5"/>
			<circle cx="23.059" cy="-22.962" r="0.5"/>
			<circle cx="23.345" cy="-13.951" r="0.5"/>
			<circle cx="23.345" cy="-40.951" r="0.5"/>
			<circle cx="23.746" cy="-36.713" r="0.5"/>
			<circle cx="24.137" cy="-9.65" r="0.5"/>
			<circle cx="24.35" cy="-46.665" r="0.5"/>
			<circle cx="24.39" cy="-17.542" r="0.5"/>
			<circle cx="24.39" cy="-17.542" r="0.5"/>
			<circle cx="24.39" cy="-44.542" r="0.5"/>
			<circle cx="24.39" cy="-44.542" r="0.5"/>
			<circle cx="24.436" cy="-34.954" r="0.5"/>
			<circle cx="24.475" cy="-19.624" r="0.5"/>
			<circle cx="24.635" cy="-53.27" r="0.5"/>
			<circle cx="24.712" cy="-2.838" r="0.5"/>
			<circle cx="24.746" cy="-7.463" r="0.5"/>
			<circle cx="24.76" cy="-26.229" r="0.5"/>
			<circle cx="24.915" cy="-32.136" r="0.5"/>
			<circle cx="24.915" cy="-5.136" r="0.5"/>
			<circle cx="24.919" cy="-29.747" r="0.5"/>
			<circle cx="24.93" cy="-50.35" r="0.5"/>
			<circle cx="25.055" cy="-23.309" r="0.5"/>
			<circle cx="25.259" cy="-13.173" r="0.5"/>
			<circle cx="25.259" cy="-40.173" r="0.5"/>
			<circle cx="25.774" cy="-36.104" r="0.5"/>
			<circle cx="26.075" cy="-9.025" r="0.5"/>
			<circle cx="26.277" cy="-47.035" r="0.5"/>
			<circle cx="26.302" cy="-16.766" r="0.5"/>
			<circle cx="26.302" cy="-16.766" r="0.5"/>
			<circle cx="26.302" cy="-43.766" r="0.5"/>
			<circle cx="26.302" cy="-43.766" r="0.5"/>
			<circle cx="26.402" cy="-19.993" r="0.5"/>
			<circle cx="26.601" cy="-53.442" r="0.5"/>
			<circle cx="26.726" cy="-26.4" r="0.5"/>
			<circle cx="26.746" cy="-2.963" r="0.5"/>
			<circle cx="26.88" cy="-50.649" r="0.5"/>
			<circle cx="26.891" cy="-29.792" r="0.5"/>
			<circle cx="26.932" cy="-32.115" r="0.5"/>
			<circle cx="26.932" cy="-5.115" r="0.5"/>
			<circle cx="27.005" cy="-23.608" r="0.5"/>
			<circle cx="27.141" cy="-12.618" r="0.5"/>
			<circle cx="27.141" cy="-39.618" r="0.5"/>
			<circle cx="27.246" cy="-7.4" r="0.5"/>
			<circle cx="27.621" cy="-35.588" r="0.5"/>
			<circle cx="27.887" cy="-8.462" r="0.5"/>
			<circle cx="28.176" cy="-16.212" r="0.5"/>
			<circle cx="28.176" cy="-43.212" r="0.5"/>
			<circle cx="28.267" cy="-47.407" r="0.5"/>
			<circle cx="28.392" cy="-20.365" r="0.5"/>
			<circle cx="28.623" cy="-53.545" r="0.5"/>
			<circle cx="28.746" cy="-3.025" r="0.5"/>
			<circle cx="28.748" cy="-26.504" r="0.5"/>
			<circle cx="28.89" cy="-32.112" r="0.5"/>
			<circle cx="28.89" cy="-5.112" r="0.5"/>
			<circle cx="28.916" cy="-29.765" r="0.5"/>
			<circle cx="28.954" cy="-50.881" r="0.5"/>
			<circle cx="29.079" cy="-23.839" r="0.5"/>
			<circle cx="29.08" cy="-12.035" r="0.5"/>
			<circle cx="29.08" cy="-39.035" r="0.5"/>
			<circle cx="29.543" cy="-35.043" r="0.5"/>
			<circle cx="29.887" cy="-7.9" r="0.5"/>
			<circle cx="3.024" cy="-48.395" r="0.5"/>
			<circle cx="3.116" cy="-11.368" r="0.5"/>
			<circle cx="3.116" cy="-38.368" r="0.5"/>
			<circle cx="3.353" cy="-36.045" r="0.5"/>
			<circle cx="3.353" cy="-9.045" r="0.5"/>
			<circle cx="30.056" cy="-15.519" r="0.5"/>
			<circle cx="30.056" cy="-42.519" r="0.5"/>
			<circle cx="30.192" cy="-47.84" r="0.5"/>
			<circle cx="30.3" cy="-19.556" r="0.5"/>
			<circle cx="30.3" cy="-46.556" r="0.5"/>
			<circle cx="30.317" cy="-20.798" r="0.5"/>
			<circle cx="30.602" cy="-53.842" r="0.5"/>
			<circle cx="30.684" cy="-3.15" r="0.5"/>
			<circle cx="30.727" cy="-26.8" r="0.5"/>
			<circle cx="30.844" cy="-51.244" r="0.5"/>
			<circle cx="30.889" cy="-32.03" r="0.5"/>
			<circle cx="30.909" cy="-29.933" r="0.5"/>
			<circle cx="30.934" cy="-5.213" r="0.5"/>
			<circle cx="30.965" cy="-11.341" r="0.5"/>
			<circle cx="30.965" cy="-11.341" r="0.5"/>
			<circle cx="30.965" cy="-38.341" r="0.5"/>
			<circle cx="30.965" cy="-38.341" r="0.5"/>
			<circle cx="30.969" cy="-24.203" r="0.5"/>
			<circle cx="31.554" cy="-34.49" r="0.5"/>
			<circle cx="31.825" cy="-7.338" r="0.5"/>
			<circle cx="31.929" cy="-14.966" r="0.5"/>
			<circle cx="31.929" cy="-41.966" r="0.5"/>
			<circle cx="32.141" cy="-18.766" r="0.5"/>
			<circle cx="32.141" cy="-45.766" r="0.5"/>
			<circle cx="32.244" cy="-48.213" r="0.5"/>
			<circle cx="32.369" cy="-21.172" r="0.5"/>
			<circle cx="32.63" cy="-54.007" r="0.5"/>
			<circle cx="32.755" cy="-26.965" r="0.5"/>
			<circle cx="32.795" cy="-51.543" r="0.5"/>
			<circle cx="32.808" cy="-3.338" r="0.5"/>
			<circle cx="32.871" cy="-5.338" r="0.5"/>
			<circle cx="32.92" cy="-24.501" r="0.5"/>
			<circle cx="32.941" cy="-10.747" r="0.5"/>
			<circle cx="32.941" cy="-10.747" r="0.5"/>
			<circle cx="32.941" cy="-37.747" r="0.5"/>
			<circle cx="32.941" cy="-37.747" r="0.5"/>
			<circle cx="32.943" cy="-32.129" r="0.5"/>
			<circle cx="32.944" cy="-29.967" r="0.5"/>
			<circle cx="33.451" cy="-33.988" r="0.5"/>
			<circle cx="33.762" cy="-6.9" r="0.5"/>
			<circle cx="33.867" cy="-14.247" r="0.5"/>
			<circle cx="33.867" cy="-41.247" r="0.5"/>
			<circle cx="33.983" cy="-18.115" r="0.5"/>
			<circle cx="33.983" cy="-45.115" r="0.5"/>
			<circle cx="34.106" cy="-48.707" r="0.5"/>
			<circle cx="34.231" cy="-21.665" r="0.5"/>
			<circle cx="34.609" cy="-54.303" r="0.5"/>
			<circle cx="34.734" cy="-27.261" r="0.5"/>
			<circle cx="34.806" cy="-51.777" r="0.5"/>
			<circle cx="34.808" cy="-3.525" r="0.5"/>
			<circle cx="34.871" cy="-5.525" r="0.5"/>
			<circle cx="34.917" cy="-10.153" r="0.5"/>
			<circle cx="34.917" cy="-10.153" r="0.5"/>
			<circle cx="34.917" cy="-37.153" r="0.5"/>
			<circle cx="34.917" cy="-37.153" r="0.5"/>
			<circle cx="34.931" cy="-24.735" r="0.5"/>
			<circle cx="34.936" cy="-32.245" r="0.5"/>
			<circle cx="34.938" cy="-30.135" r="0.5"/>
			<circle cx="35.406" cy="-33.461" r="0.5"/>
			<circle cx="35.575" cy="-6.463" r="0.5"/>
			<circle cx="35.765" cy="-13.751" r="0.5"/>
			<circle cx="35.765" cy="-40.751" r="0.5"/>
			<circle cx="35.88" cy="-17.296" r="0.5"/>
			<circle cx="35.88" cy="-44.296" r="0.5"/>
			<circle cx="36.031" cy="-49.139" r="0.5"/>
			<circle cx="36.156" cy="-22.097" r="0.5"/>
			<circle cx="36.308" cy="-20.587" r="0.5"/>
			<circle cx="36.499" cy="-47.804" r="0.5"/>
			<circle cx="36.581" cy="-54.537" r="0.5"/>
			<circle cx="36.683" cy="-3.775" r="0.5"/>
			<circle cx="36.706" cy="-27.496" r="0.5"/>
			<circle cx="36.761" cy="-52.201" r="0.5"/>
			<circle cx="36.834" cy="-36.777" r="0.5"/>
			<circle cx="36.834" cy="-9.777" r="0.5"/>
			<circle cx="36.886" cy="-25.159" r="0.5"/>
			<circle cx="36.921" cy="-30.242" r="0.5"/>
			<circle cx="37.328" cy="-33.016" r="0.5"/>
			<circle cx="37.345" cy="-5.975" r="0.5"/>
			<circle cx="37.721" cy="-13.229" r="0.5"/>
			<circle cx="37.721" cy="-40.229" r="0.5"/>
			<circle cx="37.75" cy="-16.701" r="0.5"/>
			<circle cx="37.75" cy="-43.701" r="0.5"/>
			<circle cx="38.021" cy="-49.511" r="0.5"/>
			<circle cx="38.146" cy="-22.469" r="0.5"/>
			<circle cx="38.496" cy="-19.65" r="0.5"/>
			<circle cx="38.558" cy="-3.963" r="0.5"/>
			<circle cx="38.56" cy="-54.833" r="0.5"/>
			<circle cx="38.634" cy="-46.565" r="0.5"/>
			<circle cx="38.685" cy="-27.792" r="0.5"/>
			<circle cx="38.771" cy="-36.263" r="0.5"/>
			<circle cx="38.771" cy="-9.263" r="0.5"/>
			<circle cx="38.774" cy="-52.497" r="0.5"/>
			<circle cx="38.899" cy="-25.455" r="0.5"/>
			<circle cx="38.915" cy="-30.41" r="0.5"/>
			<circle cx="39.34" cy="-32.464" r="0.5"/>
			<circle cx="39.387" cy="-5.588" r="0.5"/>
			<circle cx="39.627" cy="-12.593" r="0.5"/>
			<circle cx="39.627" cy="-12.593" r="0.5"/>
			<circle cx="39.627" cy="-39.593" r="0.5"/>
			<circle cx="39.627" cy="-39.593" r="0.5"/>
			<circle cx="39.676" cy="-16.078" r="0.5"/>
			<circle cx="39.676" cy="-43.078" r="0.5"/>
			<circle cx="39.943" cy="-50.068" r="0.5"/>
			<circle cx="4.308" cy="-41.025" r="0.5"/>
			<circle cx="4.433" cy="-13.9" r="0.5"/>
			<circle cx="4.558" cy="-2.963" r="0.5"/>
			<circle cx="4.618" cy="-43.639" r="0.5"/>
			<circle cx="4.618" cy="-43.639" r="0.5"/>
			<circle cx="4.667" cy="-52.212" r="0.5"/>
			<circle cx="4.743" cy="-16.597" r="0.5"/>
			<circle cx="4.743" cy="-16.597" r="0.5"/>
			<circle cx="4.792" cy="-25.17" r="0.5"/>
			<circle cx="4.924" cy="-29.978" r="0.5"/>
			<circle cx="4.936" cy="-33.204" r="0.5"/>
			<circle cx="4.996" cy="-6.15" r="0.5"/>
			<circle cx="40.068" cy="-23.027" r="0.5"/>
			<circle cx="40.308" cy="-4.15" r="0.5"/>
			<circle cx="40.496" cy="-55.338" r="0.5"/>
			<circle cx="40.671" cy="-28.15" r="0.5"/>
			<circle cx="40.688" cy="-35.887" r="0.5"/>
			<circle cx="40.688" cy="-8.887" r="0.5"/>
			<circle cx="40.73" cy="-52.921" r="0.5"/>
			<circle cx="40.746" cy="-18.775" r="0.5"/>
			<circle cx="40.855" cy="-25.879" r="0.5"/>
			<circle cx="40.92" cy="-30.64" r="0.5"/>
			<circle cx="40.971" cy="-45.708" r="0.5"/>
			<circle cx="41.231" cy="-32.101" r="0.5"/>
			<circle cx="41.262" cy="-5.213" r="0.5"/>
			<circle cx="41.546" cy="-15.343" r="0.5"/>
			<circle cx="41.546" cy="-15.343" r="0.5"/>
			<circle cx="41.546" cy="-42.343" r="0.5"/>
			<circle cx="41.546" cy="-42.343" r="0.5"/>
			<circle cx="41.62" cy="-12.061" r="0.5"/>
			<circle cx="41.62" cy="-12.061" r="0.5"/>
			<circle cx="41.62" cy="-39.061" r="0.5"/>
			<circle cx="41.62" cy="-39.061" r="0.5"/>
			<circle cx="41.931" cy="-50.503" r="0.5"/>
			<circle cx="42.056" cy="-23.461" r="0.5"/>
			<circle cx="42.371" cy="-55.713" r="0.5"/>
			<circle cx="42.594" cy="-28.515" r="0.5"/>
			<circle cx="42.683" cy="-35.352" r="0.5"/>
			<circle cx="42.683" cy="-53.282" r="0.5"/>
			<circle cx="42.683" cy="-8.352" r="0.5"/>
			<circle cx="42.808" cy="-26.24" r="0.5"/>
			<circle cx="43.121" cy="-18.15" r="0.5"/>
			<circle cx="43.154" cy="-31.657" r="0.5"/>
			<circle cx="43.262" cy="-4.9" r="0.5"/>
			<circle cx="43.396" cy="-45.028" r="0.5"/>
			<circle cx="43.509" cy="-14.707" r="0.5"/>
			<circle cx="43.509" cy="-14.707" r="0.5"/>
			<circle cx="43.509" cy="-41.707" r="0.5"/>
			<circle cx="43.509" cy="-41.707" r="0.5"/>
			<circle cx="43.614" cy="-11.529" r="0.5"/>
			<circle cx="43.614" cy="-11.529" r="0.5"/>
			<circle cx="43.614" cy="-38.529" r="0.5"/>
			<circle cx="43.614" cy="-38.529" r="0.5"/>
			<circle cx="43.852" cy="-51.06" r="0.5"/>
			<circle cx="43.977" cy="-24.019" r="0.5"/>
			<circle cx="44.121" cy="-22.587" r="0.5"/>
			<circle cx="44.246" cy="-2.4" r="0.5"/>
			<circle cx="44.499" cy="-29.037" r="0.5"/>
			<circle cx="44.62" cy="-35.035" r="0.5"/>
			<circle cx="44.62" cy="-8.035" r="0.5"/>
			<circle cx="44.639" cy="-53.706" r="0.5"/>
			<circle cx="44.764" cy="-26.664" r="0.5"/>
			<circle cx="44.996" cy="-31.337" r="0.5"/>
			<circle cx="45.367" cy="-44.555" r="0.5"/>
			<circle cx="45.367" cy="-44.555" r="0.5"/>
			<circle cx="45.367" cy="-44.555" r="0.5"/>
			<circle cx="45.387" cy="-4.463" r="0.5"/>
			<circle cx="45.472" cy="-14.072" r="0.5"/>
			<circle cx="45.472" cy="-14.072" r="0.5"/>
			<circle cx="45.472" cy="-41.072" r="0.5"/>
			<circle cx="45.472" cy="-41.072" r="0.5"/>
			<circle cx="45.496" cy="-17.462" r="0.5"/>
			<circle cx="45.542" cy="-11.213" r="0.5"/>
			<circle cx="45.542" cy="-38.213" r="0.5"/>
			<circle cx="45.776" cy="-51.555" r="0.5"/>
			<circle cx="45.901" cy="-24.514" r="0.5"/>
			<circle cx="45.933" cy="-3.025" r="0.5"/>
			<circle cx="46.371" cy="-22.025" r="0.5"/>
			<circle cx="46.497" cy="-29.52" r="0.5"/>
			<circle cx="46.504" cy="-49.107" r="0.5"/>
			<circle cx="46.597" cy="-54.192" r="0.5"/>
			<circle cx="46.616" cy="-34.699" r="0.5"/>
			<circle cx="46.616" cy="-7.699" r="0.5"/>
			<circle cx="46.722" cy="-27.15" r="0.5"/>
			<circle cx="47.058" cy="-30.962" r="0.5"/>
			<circle cx="47.381" cy="-13.655" r="0.5"/>
			<circle cx="47.381" cy="-40.655" r="0.5"/>
			<circle cx="47.45" cy="-4.15" r="0.5"/>
			<circle cx="47.493" cy="-10.759" r="0.5"/>
			<circle cx="47.493" cy="-37.759" r="0.5"/>
			<circle cx="47.683" cy="-17.025" r="0.5"/>
			<circle cx="47.698" cy="-52.113" r="0.5"/>
			<circle cx="47.8" cy="-44.035" r="0.5"/>
			<circle cx="47.823" cy="-25.071" r="0.5"/>
			<circle cx="48.492" cy="-54.68" r="0.5"/>
			<circle cx="48.496" cy="-21.587" r="0.5"/>
			<circle cx="48.573" cy="-34.243" r="0.5"/>
			<circle cx="48.573" cy="-7.243" r="0.5"/>
			<circle cx="48.617" cy="-27.639" r="0.5"/>
			<circle cx="48.989" cy="-48.69" r="0.5"/>
			<circle cx="49.121" cy="-30.65" r="0.5"/>
			<circle cx="49.306" cy="-13.099" r="0.5"/>
			<circle cx="49.306" cy="-40.099" r="0.5"/>
			<circle cx="49.421" cy="-10.442" r="0.5"/>
			<circle cx="49.421" cy="-37.442" r="0.5"/>
			<circle cx="49.512" cy="-3.9" r="0.5"/>
			<circle cx="49.618" cy="-52.733" r="0.5"/>
			<circle cx="49.743" cy="-25.691" r="0.5"/>
			<circle cx="5.027" cy="-48.441" r="0.5"/>
			<circle cx="5.058" cy="-11.087" r="0.5"/>
			<circle cx="5.058" cy="-20.837" r="0.5"/>
			<circle cx="5.063" cy="-37.872" r="0.5"/>
			<circle cx="5.382" cy="-35.889" r="0.5"/>
			<circle cx="5.382" cy="-8.889" r="0.5"/>
			<circle cx="50.183" cy="-16.712" r="0.5"/>
			<circle cx="50.297" cy="-43.702" r="0.5"/>
			<circle cx="50.448" cy="-55.104" r="0.5"/>
			<circle cx="50.573" cy="-28.062" r="0.5"/>
			<circle cx="50.596" cy="-34.025" r="0.5"/>
			<circle cx="50.596" cy="-7.025" r="0.5"/>
			<circle cx="50.621" cy="-21.212" r="0.5"/>
			<circle cx="50.996" cy="-30.4" r="0.5"/>
			<circle cx="50.998" cy="-48.43" r="0.5"/>
			<circle cx="50.998" cy="-48.43" r="0.5"/>
			<circle cx="51.214" cy="-12.682" r="0.5"/>
			<circle cx="51.214" cy="-39.682" r="0.5"/>
			<circle cx="51.325" cy="-3.65" r="0.5"/>
			<circle cx="51.433" cy="-36.97" r="0.5"/>
			<circle cx="51.433" cy="-9.97" r="0.5"/>
			<circle cx="51.475" cy="-53.351" r="0.5"/>
			<circle cx="51.6" cy="-26.309" r="0.5"/>
			<circle cx="52.314" cy="-43.51" r="0.5"/>
			<circle cx="52.314" cy="-43.51" r="0.5"/>
			<circle cx="52.433" cy="-16.525" r="0.5"/>
			<circle cx="52.436" cy="-55.641" r="0.5"/>
			<circle cx="52.445" cy="-33.662" r="0.5"/>
			<circle cx="52.445" cy="-6.662" r="0.5"/>
			<circle cx="52.561" cy="-28.6" r="0.5"/>
			<circle cx="52.621" cy="-20.962" r="0.5"/>
			<circle cx="52.632" cy="-25.166" r="0.5"/>
			<circle cx="52.732" cy="-52.145" r="0.5"/>
			<circle cx="52.999" cy="-30.204" r="0.5"/>
			<circle cx="53.059" cy="-48.326" r="0.5"/>
			<circle cx="53.059" cy="-48.326" r="0.5"/>
			<circle cx="53.059" cy="-48.326" r="0.5"/>
			<circle cx="53.198" cy="-12.106" r="0.5"/>
			<circle cx="53.198" cy="-39.106" r="0.5"/>
			<circle cx="53.2" cy="-3.463" r="0.5"/>
			<circle cx="53.378" cy="-36.714" r="0.5"/>
			<circle cx="53.378" cy="-9.714" r="0.5"/>
			<circle cx="53.397" cy="-53.908" r="0.5"/>
			<circle cx="53.522" cy="-26.867" r="0.5"/>
			<circle cx="54.506" cy="-43.529" r="0.5"/>
			<circle cx="54.51" cy="-33.366" r="0.5"/>
			<circle cx="54.51" cy="-6.366" r="0.5"/>
			<circle cx="54.558" cy="-16.462" r="0.5"/>
			<circle cx="54.585" cy="-25.213" r="0.5"/>
			<circle cx="54.685" cy="-52.192" r="0.5"/>
			<circle cx="54.808" cy="-20.837" r="0.5"/>
			<circle cx="54.825" cy="-3.275" r="0.5"/>
			<circle cx="54.936" cy="-30.079" r="0.5"/>
			<circle cx="55.061" cy="-27.454" r="0.5"/>
			<circle cx="55.119" cy="-48.221" r="0.5"/>
			<circle cx="55.119" cy="-48.221" r="0.5"/>
			<circle cx="55.119" cy="-48.221" r="0.5"/>
			<circle cx="55.128" cy="-11.748" r="0.5"/>
			<circle cx="55.128" cy="-38.748" r="0.5"/>
			<circle cx="55.27" cy="-36.412" r="0.5"/>
			<circle cx="55.27" cy="-9.412" r="0.5"/>
			<circle cx="55.313" cy="-54.653" r="0.5"/>
			<circle cx="6.308" cy="-40.338" r="0.5"/>
			<circle cx="6.371" cy="-13.337" r="0.5"/>
			<circle cx="6.548" cy="-43.946" r="0.5"/>
			<circle cx="6.558" cy="-2.838" r="0.5"/>
			<circle cx="6.621" cy="-42.588" r="0.5"/>
			<circle cx="6.689" cy="-52.315" r="0.5"/>
			<circle cx="6.808" cy="-16.775" r="0.5"/>
			<circle cx="6.814" cy="-25.274" r="0.5"/>
			<circle cx="6.948" cy="-29.95" r="0.5"/>
			<circle cx="6.973" cy="-48.615" r="0.5"/>
			<circle cx="6.999" cy="-33.016" r="0.5"/>
			<circle cx="6.999" cy="-6.016" r="0.5"/>
			<circle cx="7.058" cy="-10.712" r="0.5"/>
			<circle cx="7.081" cy="-37.61" r="0.5"/>
			<circle cx="7.121" cy="-20.962" r="0.5"/>
			<circle cx="7.242" cy="-35.584" r="0.5"/>
			<circle cx="7.246" cy="-8.65" r="0.5"/>
			<circle cx="8.184" cy="-12.837" r="0.5"/>
			<circle cx="8.309" cy="-39.9" r="0.5"/>
			<circle cx="8.543" cy="-44.131" r="0.5"/>
			<circle cx="8.621" cy="-2.775" r="0.5"/>
			<circle cx="8.641" cy="-41.877" r="0.5"/>
			<circle cx="8.668" cy="-17.089" r="0.5"/>
			<circle cx="8.698" cy="-52.294" r="0.5"/>
			<circle cx="8.823" cy="-25.253" r="0.5"/>
			<circle cx="8.825" cy="-15.775" r="0.5"/>
			<circle cx="8.922" cy="-37.208" r="0.5"/>
			<circle cx="8.951" cy="-29.8" r="0.5"/>
			<circle cx="9.039" cy="-48.659" r="0.5"/>
			<circle cx="9.061" cy="-32.954" r="0.5"/>
			<circle cx="9.061" cy="-5.954" r="0.5"/>
			<circle cx="9.121" cy="-10.4" r="0.5"/>
			<circle cx="9.184" cy="-8.462" r="0.5"/>
			<circle cx="9.246" cy="-21.087" r="0.5"/>
			<circle cx="9.315" cy="-35.352" r="0.5"/>
		</g>
	</g>
</svg>
