<?xml version="1.0" encoding="utf-8"?>
<svg xmlns="http://www.w3.org/2000/svg" version="1.1" x="0px" y="0px" xml:space="preserve" width="54.125" height="54.125" viewBox="1.942 -56.037 54.125 54.125">
	<metadata id="metadata2">
	<rdf:RDF
		xmlns:dc="http://purl.org/dc/elements/1.1/"
		xmlns:cc="http://creativecommons.org/ns#"
		xmlns:rdf="http://www.w3.org/1999/02/22-rdf-syntax-ns#"
		xmlns="http://my.netscape.com/rdf/simple/0.9/">
		<item rdf:ID="biblio1">
			<link>rdf:resource="http://pubs.usgs.gov/tm/2006/11A02/</link>
			<title>U.S. Geological Survey, 2006, FGDC Digital Cartographic Standard for Geologic Map Symbolization (PostScript Implementation): U.S. Geological Survey Techniques and Methods 11-A2</title>
		</item>
		<item rdf:ID="biblio2">
			<link>https://davenquinn.com/projects/geologic-patterns/</link>
			<title>FGDC Geologic Patterns for the Web</title>
		</item>
		<rdf:Description>
			<dc:description>Converted from 'FGDC Geologic Patterns for the Web' to QGIS compatible svg symbols, with customisable fill colour/stroke colour/stroke width (when appropriate)</dc:description>
			<dc:date>01 MARCH 2019</dc:date>
			<dc:creator>GeoProc.com</dc:creator>
			<dc:publisher rdf:resource="https://github.com/BC-Consulting/QGIS-FGDC-Fill" />
		</rdf:Description>
		<cc:Work rdf:about="">
			<dc:format>image/svg+xml</dc:format>
			<dc:type rdf:resource="http://purl.org/dc/dcmitype/StillImage" />
			<dc:title>FGDC fill symbol: Lithology - Sedimentary - 611 Ripple - Bedded Sand Or Sandstone</dc:title>
		</cc:Work>
	</rdf:RDF>
	</metadata>
	<g>
		<rect x="1.942" y="-56.037" style="fill:none;stroke:none;" width="54.125" height="54.125"/>
        <g fill="param(outline) #000" stroke="param(outline) #000" stroke-width="param(outline-width) 0.3">
			<circle cx="10.076" cy="-43.397" r="0.5"/>
			<circle cx="10.087" cy="-40.85" r="0.5"/>
			<circle cx="10.093" cy="-54.1" r="0.5"/>
			<circle cx="10.177" cy="-4.335" r="0.5"/>
			<circle cx="10.243" cy="-38.564" r="0.5"/>
			<circle cx="10.397" cy="-48.767" r="0.5"/>
			<circle cx="10.4" cy="-51.6" r="0.5"/>
			<circle cx="10.563" cy="-29.1" r="0.5"/>
			<circle cx="10.712" cy="-26.85" r="0.5"/>
			<circle cx="10.73" cy="-33.767" r="0.5"/>
			<circle cx="10.792" cy="-14.71" r="0.5"/>
			<circle cx="10.959" cy="-19.543" r="0.5"/>
			<circle cx="11.448" cy="-9.225" r="0.5"/>
			<circle cx="11.897" cy="-24.1" r="0.5"/>
			<circle cx="12.023" cy="-3.966" r="0.5"/>
			<circle cx="12.031" cy="-53.657" r="0.5"/>
			<circle cx="12.105" cy="-43.272" r="0.5"/>
			<circle cx="12.243" cy="-48.397" r="0.5"/>
			<circle cx="12.272" cy="-38.439" r="0.5"/>
			<circle cx="12.337" cy="-6.537" r="0.5"/>
			<circle cx="12.409" cy="-28.731" r="0.5"/>
			<circle cx="12.462" cy="-17.225" r="0.5"/>
			<circle cx="12.576" cy="-33.397" r="0.5"/>
			<circle cx="12.73" cy="-14.267" r="0.5"/>
			<circle cx="12.837" cy="-35.6" r="0.5"/>
			<circle cx="12.897" cy="-19.1" r="0.5"/>
			<circle cx="12.9" cy="-45.537" r="0.5"/>
			<circle cx="13.293" cy="-8.856" r="0.5"/>
			<circle cx="13.743" cy="-23.731" r="0.5"/>
			<circle cx="13.837" cy="-21.288" r="0.5"/>
			<circle cx="13.877" cy="-53.287" r="0.5"/>
			<circle cx="14.052" cy="-3.841" r="0.5"/>
			<circle cx="14.162" cy="-43.591" r="0.5"/>
			<circle cx="14.212" cy="-30.725" r="0.5"/>
			<circle cx="14.272" cy="-48.272" r="0.5"/>
			<circle cx="14.328" cy="-38.757" r="0.5"/>
			<circle cx="14.337" cy="-11.538" r="0.5"/>
			<circle cx="14.438" cy="-28.606" r="0.5"/>
			<circle cx="14.576" cy="-13.898" r="0.5"/>
			<circle cx="14.605" cy="-33.272" r="0.5"/>
			<circle cx="14.743" cy="-18.731" r="0.5"/>
			<circle cx="15.15" cy="-55.475" r="0.5"/>
			<circle cx="15.323" cy="-8.731" r="0.5"/>
			<circle cx="15.525" cy="-50.725" r="0.5"/>
			<circle cx="15.772" cy="-23.606" r="0.5"/>
			<circle cx="15.837" cy="-25.975" r="0.5"/>
			<circle cx="15.906" cy="-53.162" r="0.5"/>
			<circle cx="15.98" cy="-44.21" r="0.5"/>
			<circle cx="16.087" cy="-41.662" r="0.5"/>
			<circle cx="16.108" cy="-4.159" r="0.5"/>
			<circle cx="16.147" cy="-39.377" r="0.5"/>
			<circle cx="16.328" cy="-48.591" r="0.5"/>
			<circle cx="16.495" cy="-28.924" r="0.5"/>
			<circle cx="16.605" cy="-13.773" r="0.5"/>
			<circle cx="16.662" cy="-33.591" r="0.5"/>
			<circle cx="16.772" cy="-18.606" r="0.5"/>
			<circle cx="17.337" cy="-6.787" r="0.5"/>
			<circle cx="17.379" cy="-9.049" r="0.5"/>
			<circle cx="17.587" cy="-16.35" r="0.5"/>
			<circle cx="17.828" cy="-23.924" r="0.5"/>
			<circle cx="17.906" cy="-44.335" r="0.5"/>
			<circle cx="17.927" cy="-4.778" r="0.5"/>
			<circle cx="17.962" cy="-53.481" r="0.5"/>
			<circle cx="18.025" cy="-36.912" r="0.5"/>
			<circle cx="18.073" cy="-39.502" r="0.5"/>
			<circle cx="18.147" cy="-49.21" r="0.5"/>
			<circle cx="18.313" cy="-29.543" r="0.5"/>
			<circle cx="18.48" cy="-34.21" r="0.5"/>
			<circle cx="18.662" cy="-14.091" r="0.5"/>
			<circle cx="18.828" cy="-18.924" r="0.5"/>
			<circle cx="18.837" cy="-21.538" r="0.5"/>
			<circle cx="18.837" cy="-46.85" r="0.5"/>
			<circle cx="19.198" cy="-9.668" r="0.5"/>
			<circle cx="19.337" cy="-11.788" r="0.5"/>
			<circle cx="19.462" cy="-31.85" r="0.5"/>
			<circle cx="19.647" cy="-24.543" r="0.5"/>
			<circle cx="19.781" cy="-54.1" r="0.5"/>
			<circle cx="19.853" cy="-4.903" r="0.5"/>
			<circle cx="19.855" cy="-44.21" r="0.5"/>
			<circle cx="2.4" cy="-53.162" r="0.5"/>
			<circle cx="2.416" cy="-23.606" r="0.5"/>
			<circle cx="2.417" cy="-44.21" r="0.5"/>
			<circle cx="2.546" cy="-4.159" r="0.5"/>
			<circle cx="2.584" cy="-39.377" r="0.5"/>
			<circle cx="2.766" cy="-48.591" r="0.5"/>
			<circle cx="2.932" cy="-28.924" r="0.5"/>
			<circle cx="20.022" cy="-39.377" r="0.5"/>
			<circle cx="20.073" cy="-49.335" r="0.5"/>
			<circle cx="20.239" cy="-29.668" r="0.5"/>
			<circle cx="20.406" cy="-34.335" r="0.5"/>
			<circle cx="20.48" cy="-14.71" r="0.5"/>
			<circle cx="20.647" cy="-19.543" r="0.5"/>
			<circle cx="20.775" cy="-51.85" r="0.5"/>
			<circle cx="21.087" cy="-27.1" r="0.5"/>
			<circle cx="21.123" cy="-9.793" r="0.5"/>
			<circle cx="21.15" cy="-41.475" r="0.5"/>
			<circle cx="21.525" cy="-2.725" r="0.5"/>
			<circle cx="21.573" cy="-24.668" r="0.5"/>
			<circle cx="21.707" cy="-54.225" r="0.5"/>
			<circle cx="21.792" cy="-43.767" r="0.5"/>
			<circle cx="21.802" cy="-4.778" r="0.5"/>
			<circle cx="21.959" cy="-38.933" r="0.5"/>
			<circle cx="22.022" cy="-49.21" r="0.5"/>
			<circle cx="22.188" cy="-29.543" r="0.5"/>
			<circle cx="22.355" cy="-34.21" r="0.5"/>
			<circle cx="22.406" cy="-14.835" r="0.5"/>
			<circle cx="22.573" cy="-19.668" r="0.5"/>
			<circle cx="22.837" cy="-17.475" r="0.5"/>
			<circle cx="22.837" cy="-7.287" r="0.5"/>
			<circle cx="23.073" cy="-9.668" r="0.5"/>
			<circle cx="23.212" cy="-45.787" r="0.5"/>
			<circle cx="23.337" cy="-36.162" r="0.5"/>
			<circle cx="23.522" cy="-24.543" r="0.5"/>
			<circle cx="23.525" cy="-43.397" r="0.5"/>
			<circle cx="23.656" cy="-54.1" r="0.5"/>
			<circle cx="23.692" cy="-38.564" r="0.5"/>
			<circle cx="23.739" cy="-4.335" r="0.5"/>
			<circle cx="23.959" cy="-48.767" r="0.5"/>
			<circle cx="24.126" cy="-29.1" r="0.5"/>
			<circle cx="24.292" cy="-33.767" r="0.5"/>
			<circle cx="24.337" cy="-22.038" r="0.5"/>
			<circle cx="24.355" cy="-14.71" r="0.5"/>
			<circle cx="24.522" cy="-19.543" r="0.5"/>
			<circle cx="24.837" cy="-12.288" r="0.5"/>
			<circle cx="24.837" cy="-30.913" r="0.5"/>
			<circle cx="25.01" cy="-9.225" r="0.5"/>
			<circle cx="25.459" cy="-24.1" r="0.5"/>
			<circle cx="25.472" cy="-3.966" r="0.5"/>
			<circle cx="25.531" cy="-43.329" r="0.5"/>
			<circle cx="25.593" cy="-53.657" r="0.5"/>
			<circle cx="25.692" cy="-48.397" r="0.5"/>
			<circle cx="25.698" cy="-38.496" r="0.5"/>
			<circle cx="25.858" cy="-28.731" r="0.5"/>
			<circle cx="26.025" cy="-33.397" r="0.5"/>
			<circle cx="26.15" cy="-50.912" r="0.5"/>
			<circle cx="26.292" cy="-14.267" r="0.5"/>
			<circle cx="26.459" cy="-19.1" r="0.5"/>
			<circle cx="26.462" cy="-26.163" r="0.5"/>
			<circle cx="26.65" cy="-40.85" r="0.5"/>
			<circle cx="26.743" cy="-8.856" r="0.5"/>
			<circle cx="27.192" cy="-23.731" r="0.5"/>
			<circle cx="27.326" cy="-53.287" r="0.5"/>
			<circle cx="27.478" cy="-3.898" r="0.5"/>
			<circle cx="27.587" cy="-43.647" r="0.5"/>
			<circle cx="27.698" cy="-48.329" r="0.5"/>
			<circle cx="27.754" cy="-38.814" r="0.5"/>
			<circle cx="27.864" cy="-28.663" r="0.5"/>
			<circle cx="28.025" cy="-13.898" r="0.5"/>
			<circle cx="28.025" cy="-45.912" r="0.5"/>
			<circle cx="28.031" cy="-33.329" r="0.5"/>
			<circle cx="28.192" cy="-18.731" r="0.5"/>
			<circle cx="28.212" cy="-16.538" r="0.5"/>
			<circle cx="28.4" cy="-6.225" r="0.5"/>
			<circle cx="28.525" cy="-55.475" r="0.5"/>
			<circle cx="28.587" cy="-35.85" r="0.5"/>
			<circle cx="28.748" cy="-8.788" r="0.5"/>
			<circle cx="29.198" cy="-23.663" r="0.5"/>
			<circle cx="29.332" cy="-53.219" r="0.5"/>
			<circle cx="29.406" cy="-44.267" r="0.5"/>
			<circle cx="29.534" cy="-4.216" r="0.5"/>
			<circle cx="29.573" cy="-39.433" r="0.5"/>
			<circle cx="29.754" cy="-48.647" r="0.5"/>
			<circle cx="29.837" cy="-31.163" r="0.5"/>
			<circle cx="29.9" cy="-20.975" r="0.5"/>
			<circle cx="29.921" cy="-28.981" r="0.5"/>
			<circle cx="3.099" cy="-13.773" r="0.5"/>
			<circle cx="3.099" cy="-33.591" r="0.5"/>
			<circle cx="3.213" cy="-21.1" r="0.5"/>
			<circle cx="3.266" cy="-18.606" r="0.5"/>
			<circle cx="3.463" cy="-31.35" r="0.5"/>
			<circle cx="3.713" cy="-11.35" r="0.5"/>
			<circle cx="3.817" cy="-9.049" r="0.5"/>
			<circle cx="30.031" cy="-13.829" r="0.5"/>
			<circle cx="30.087" cy="-33.647" r="0.5"/>
			<circle cx="30.198" cy="-18.663" r="0.5"/>
			<circle cx="30.4" cy="-11.225" r="0.5"/>
			<circle cx="30.805" cy="-9.106" r="0.5"/>
			<circle cx="31.15" cy="-51.162" r="0.5"/>
			<circle cx="31.254" cy="-23.981" r="0.5"/>
			<circle cx="31.332" cy="-44.392" r="0.5"/>
			<circle cx="31.353" cy="-4.835" r="0.5"/>
			<circle cx="31.388" cy="-53.537" r="0.5"/>
			<circle cx="31.462" cy="-26.413" r="0.5"/>
			<circle cx="31.498" cy="-39.558" r="0.5"/>
			<circle cx="31.573" cy="-49.267" r="0.5"/>
			<circle cx="31.739" cy="-29.6" r="0.5"/>
			<circle cx="31.837" cy="-42.225" r="0.5"/>
			<circle cx="31.906" cy="-34.267" r="0.5"/>
			<circle cx="32.088" cy="-14.148" r="0.5"/>
			<circle cx="32.254" cy="-18.981" r="0.5"/>
			<circle cx="32.623" cy="-9.725" r="0.5"/>
			<circle cx="33.072" cy="-24.6" r="0.5"/>
			<circle cx="33.207" cy="-54.157" r="0.5"/>
			<circle cx="33.213" cy="-16.788" r="0.5"/>
			<circle cx="33.278" cy="-4.96" r="0.5"/>
			<circle cx="33.281" cy="-44.267" r="0.5"/>
			<circle cx="33.447" cy="-39.433" r="0.5"/>
			<circle cx="33.498" cy="-49.392" r="0.5"/>
			<circle cx="33.588" cy="-7.475" r="0.5"/>
			<circle cx="33.665" cy="-29.725" r="0.5"/>
			<circle cx="33.713" cy="-46.85" r="0.5"/>
			<circle cx="33.832" cy="-34.392" r="0.5"/>
			<circle cx="33.906" cy="-14.767" r="0.5"/>
			<circle cx="34.072" cy="-19.6" r="0.5"/>
			<circle cx="34.463" cy="-36.537" r="0.5"/>
			<circle cx="34.549" cy="-9.85" r="0.5"/>
			<circle cx="34.998" cy="-24.725" r="0.5"/>
			<circle cx="35.088" cy="-22.225" r="0.5"/>
			<circle cx="35.132" cy="-54.282" r="0.5"/>
			<circle cx="35.15" cy="-2.6" r="0.5"/>
			<circle cx="35.218" cy="-43.823" r="0.5"/>
			<circle cx="35.228" cy="-4.835" r="0.5"/>
			<circle cx="35.338" cy="-31.663" r="0.5"/>
			<circle cx="35.385" cy="-38.99" r="0.5"/>
			<circle cx="35.447" cy="-49.267" r="0.5"/>
			<circle cx="35.588" cy="-12.475" r="0.5"/>
			<circle cx="35.614" cy="-29.6" r="0.5"/>
			<circle cx="35.781" cy="-34.267" r="0.5"/>
			<circle cx="35.832" cy="-14.892" r="0.5"/>
			<circle cx="35.998" cy="-19.725" r="0.5"/>
			<circle cx="36.498" cy="-9.725" r="0.5"/>
			<circle cx="36.65" cy="-51.662" r="0.5"/>
			<circle cx="36.947" cy="-24.6" r="0.5"/>
			<circle cx="36.963" cy="-26.913" r="0.5"/>
			<circle cx="37.082" cy="-54.157" r="0.5"/>
			<circle cx="37.121" cy="-43.454" r="0.5"/>
			<circle cx="37.165" cy="-4.392" r="0.5"/>
			<circle cx="37.275" cy="-41.037" r="0.5"/>
			<circle cx="37.288" cy="-38.621" r="0.5"/>
			<circle cx="37.385" cy="-48.823" r="0.5"/>
			<circle cx="37.552" cy="-29.157" r="0.5"/>
			<circle cx="37.718" cy="-33.823" r="0.5"/>
			<circle cx="37.781" cy="-14.767" r="0.5"/>
			<circle cx="37.947" cy="-19.6" r="0.5"/>
			<circle cx="38.275" cy="-45.225" r="0.5"/>
			<circle cx="38.436" cy="-9.282" r="0.5"/>
			<circle cx="38.713" cy="-17.288" r="0.5"/>
			<circle cx="38.885" cy="-24.157" r="0.5"/>
			<circle cx="39.019" cy="-53.713" r="0.5"/>
			<circle cx="39.068" cy="-4.023" r="0.5"/>
			<circle cx="39.088" cy="-6.475" r="0.5"/>
			<circle cx="39.099" cy="-43.329" r="0.5"/>
			<circle cx="39.266" cy="-38.496" r="0.5"/>
			<circle cx="39.288" cy="-48.454" r="0.5"/>
			<circle cx="39.454" cy="-28.788" r="0.5"/>
			<circle cx="39.621" cy="-33.454" r="0.5"/>
			<circle cx="39.718" cy="-14.323" r="0.5"/>
			<circle cx="39.885" cy="-19.157" r="0.5"/>
			<circle cx="39.9" cy="-35.6" r="0.5"/>
			<circle cx="4.266" cy="-23.924" r="0.5"/>
			<circle cx="4.343" cy="-44.335" r="0.5"/>
			<circle cx="4.364" cy="-4.778" r="0.5"/>
			<circle cx="4.4" cy="-53.481" r="0.5"/>
			<circle cx="4.51" cy="-39.502" r="0.5"/>
			<circle cx="4.584" cy="-49.21" r="0.5"/>
			<circle cx="4.751" cy="-29.543" r="0.5"/>
			<circle cx="4.775" cy="-51.35" r="0.5"/>
			<circle cx="4.917" cy="-34.21" r="0.5"/>
			<circle cx="40.339" cy="-8.913" r="0.5"/>
			<circle cx="40.588" cy="-21.225" r="0.5"/>
			<circle cx="40.788" cy="-23.788" r="0.5"/>
			<circle cx="40.9" cy="-30.6" r="0.5"/>
			<circle cx="40.922" cy="-53.344" r="0.5"/>
			<circle cx="41.046" cy="-3.898" r="0.5"/>
			<circle cx="41.088" cy="-11.475" r="0.5"/>
			<circle cx="41.156" cy="-43.647" r="0.5"/>
			<circle cx="41.266" cy="-48.329" r="0.5"/>
			<circle cx="41.322" cy="-38.814" r="0.5"/>
			<circle cx="41.432" cy="-28.663" r="0.5"/>
			<circle cx="41.599" cy="-33.329" r="0.5"/>
			<circle cx="41.621" cy="-13.954" r="0.5"/>
			<circle cx="41.788" cy="-18.788" r="0.5"/>
			<circle cx="42.213" cy="-50.6" r="0.5"/>
			<circle cx="42.317" cy="-8.788" r="0.5"/>
			<circle cx="42.4" cy="-55.475" r="0.5"/>
			<circle cx="42.525" cy="-25.85" r="0.5"/>
			<circle cx="42.525" cy="-41.725" r="0.5"/>
			<circle cx="42.766" cy="-23.663" r="0.5"/>
			<circle cx="42.9" cy="-46.35" r="0.5"/>
			<circle cx="42.9" cy="-53.219" r="0.5"/>
			<circle cx="42.974" cy="-44.267" r="0.5"/>
			<circle cx="43.103" cy="-4.216" r="0.5"/>
			<circle cx="43.141" cy="-39.433" r="0.5"/>
			<circle cx="43.322" cy="-48.647" r="0.5"/>
			<circle cx="43.489" cy="-28.981" r="0.5"/>
			<circle cx="43.599" cy="-13.829" r="0.5"/>
			<circle cx="43.656" cy="-33.647" r="0.5"/>
			<circle cx="43.766" cy="-18.663" r="0.5"/>
			<circle cx="44.275" cy="-16.225" r="0.5"/>
			<circle cx="44.373" cy="-9.106" r="0.5"/>
			<circle cx="44.463" cy="-6.975" r="0.5"/>
			<circle cx="44.775" cy="-37.1" r="0.5"/>
			<circle cx="44.822" cy="-23.981" r="0.5"/>
			<circle cx="44.9" cy="-44.392" r="0.5"/>
			<circle cx="44.921" cy="-4.835" r="0.5"/>
			<circle cx="44.957" cy="-53.537" r="0.5"/>
			<circle cx="45.067" cy="-39.558" r="0.5"/>
			<circle cx="45.141" cy="-49.267" r="0.5"/>
			<circle cx="45.307" cy="-29.6" r="0.5"/>
			<circle cx="45.474" cy="-34.267" r="0.5"/>
			<circle cx="45.656" cy="-14.148" r="0.5"/>
			<circle cx="45.822" cy="-18.981" r="0.5"/>
			<circle cx="45.963" cy="-21.725" r="0.5"/>
			<circle cx="46.088" cy="-31.85" r="0.5"/>
			<circle cx="46.192" cy="-9.725" r="0.5"/>
			<circle cx="46.463" cy="-11.975" r="0.5"/>
			<circle cx="46.641" cy="-24.6" r="0.5"/>
			<circle cx="46.775" cy="-54.157" r="0.5"/>
			<circle cx="46.847" cy="-4.96" r="0.5"/>
			<circle cx="46.849" cy="-44.267" r="0.5"/>
			<circle cx="47.016" cy="-39.433" r="0.5"/>
			<circle cx="47.067" cy="-49.392" r="0.5"/>
			<circle cx="47.233" cy="-29.725" r="0.5"/>
			<circle cx="47.4" cy="-34.392" r="0.5"/>
			<circle cx="47.4" cy="-51.85" r="0.5"/>
			<circle cx="47.474" cy="-14.767" r="0.5"/>
			<circle cx="47.641" cy="-19.6" r="0.5"/>
			<circle cx="47.713" cy="-27.1" r="0.5"/>
			<circle cx="47.9" cy="-41.725" r="0.5"/>
			<circle cx="48.118" cy="-9.85" r="0.5"/>
			<circle cx="48.567" cy="-24.725" r="0.5"/>
			<circle cx="48.701" cy="-54.282" r="0.5"/>
			<circle cx="48.787" cy="-43.823" r="0.5"/>
			<circle cx="48.796" cy="-4.835" r="0.5"/>
			<circle cx="48.9" cy="-2.6" r="0.5"/>
			<circle cx="48.953" cy="-38.99" r="0.5"/>
			<circle cx="49.016" cy="-49.267" r="0.5"/>
			<circle cx="49.182" cy="-29.6" r="0.5"/>
			<circle cx="49.349" cy="-34.267" r="0.5"/>
			<circle cx="49.4" cy="-14.892" r="0.5"/>
			<circle cx="49.4" cy="-46.475" r="0.5"/>
			<circle cx="49.463" cy="-17.475" r="0.5"/>
			<circle cx="49.567" cy="-19.725" r="0.5"/>
			<circle cx="5.088" cy="-26.6" r="0.5"/>
			<circle cx="5.099" cy="-14.091" r="0.5"/>
			<circle cx="5.266" cy="-18.924" r="0.5"/>
			<circle cx="5.4" cy="-41.85" r="0.5"/>
			<circle cx="5.635" cy="-9.668" r="0.5"/>
			<circle cx="50.025" cy="-7.6" r="0.5"/>
			<circle cx="50.067" cy="-9.725" r="0.5"/>
			<circle cx="50.4" cy="-36.35" r="0.5"/>
			<circle cx="50.516" cy="-24.6" r="0.5"/>
			<circle cx="50.519" cy="-43.454" r="0.5"/>
			<circle cx="50.65" cy="-54.157" r="0.5"/>
			<circle cx="50.686" cy="-38.621" r="0.5"/>
			<circle cx="50.733" cy="-4.392" r="0.5"/>
			<circle cx="50.953" cy="-48.823" r="0.5"/>
			<circle cx="51.12" cy="-29.157" r="0.5"/>
			<circle cx="51.287" cy="-33.823" r="0.5"/>
			<circle cx="51.349" cy="-14.767" r="0.5"/>
			<circle cx="51.516" cy="-19.6" r="0.5"/>
			<circle cx="51.588" cy="-30.85" r="0.5"/>
			<circle cx="51.9" cy="-21.85" r="0.5"/>
			<circle cx="52.004" cy="-9.282" r="0.5"/>
			<circle cx="52.025" cy="-11.975" r="0.5"/>
			<circle cx="52.453" cy="-24.157" r="0.5"/>
			<circle cx="52.466" cy="-4.023" r="0.5"/>
			<circle cx="52.507" cy="-43.386" r="0.5"/>
			<circle cx="52.588" cy="-53.713" r="0.5"/>
			<circle cx="52.674" cy="-38.553" r="0.5"/>
			<circle cx="52.686" cy="-48.454" r="0.5"/>
			<circle cx="52.853" cy="-28.788" r="0.5"/>
			<circle cx="52.9" cy="-40.975" r="0.5"/>
			<circle cx="52.9" cy="-50.85" r="0.5"/>
			<circle cx="53.019" cy="-33.454" r="0.5"/>
			<circle cx="53.213" cy="-26.1" r="0.5"/>
			<circle cx="53.287" cy="-14.323" r="0.5"/>
			<circle cx="53.453" cy="-19.157" r="0.5"/>
			<circle cx="53.737" cy="-8.913" r="0.5"/>
			<circle cx="54.186" cy="-23.788" r="0.5"/>
			<circle cx="54.32" cy="-53.344" r="0.5"/>
			<circle cx="54.454" cy="-3.954" r="0.5"/>
			<circle cx="54.564" cy="-43.704" r="0.5"/>
			<circle cx="54.674" cy="-48.386" r="0.5"/>
			<circle cx="54.731" cy="-38.871" r="0.5"/>
			<circle cx="54.841" cy="-28.719" r="0.5"/>
			<circle cx="54.963" cy="-16.475" r="0.5"/>
			<circle cx="55.007" cy="-33.386" r="0.5"/>
			<circle cx="55.019" cy="-13.954" r="0.5"/>
			<circle cx="55.025" cy="-55.35" r="0.5"/>
			<circle cx="55.15" cy="-45.85" r="0.5"/>
			<circle cx="55.186" cy="-18.788" r="0.5"/>
			<circle cx="55.275" cy="-6.475" r="0.5"/>
			<circle cx="55.4" cy="-36.35" r="0.5"/>
			<circle cx="55.725" cy="-8.844" r="0.5"/>
			<circle cx="6.084" cy="-24.543" r="0.5"/>
			<circle cx="6.218" cy="-54.1" r="0.5"/>
			<circle cx="6.29" cy="-4.903" r="0.5"/>
			<circle cx="6.292" cy="-44.21" r="0.5"/>
			<circle cx="6.459" cy="-39.377" r="0.5"/>
			<circle cx="6.51" cy="-49.335" r="0.5"/>
			<circle cx="6.677" cy="-29.668" r="0.5"/>
			<circle cx="6.838" cy="-16.975" r="0.5"/>
			<circle cx="6.843" cy="-34.335" r="0.5"/>
			<circle cx="6.917" cy="-14.71" r="0.5"/>
			<circle cx="6.963" cy="-7.475" r="0.5"/>
			<circle cx="7.084" cy="-19.543" r="0.5"/>
			<circle cx="7.561" cy="-9.793" r="0.5"/>
			<circle cx="7.713" cy="-36.725" r="0.5"/>
			<circle cx="7.775" cy="-46.662" r="0.5"/>
			<circle cx="8.01" cy="-24.668" r="0.5"/>
			<circle cx="8.144" cy="-54.225" r="0.5"/>
			<circle cx="8.15" cy="-2.4" r="0.5"/>
			<circle cx="8.23" cy="-43.767" r="0.5"/>
			<circle cx="8.239" cy="-4.778" r="0.5"/>
			<circle cx="8.397" cy="-38.933" r="0.5"/>
			<circle cx="8.459" cy="-49.21" r="0.5"/>
			<circle cx="8.462" cy="-22.225" r="0.5"/>
			<circle cx="8.626" cy="-29.543" r="0.5"/>
			<circle cx="8.792" cy="-34.21" r="0.5"/>
			<circle cx="8.843" cy="-14.835" r="0.5"/>
			<circle cx="8.962" cy="-12.475" r="0.5"/>
			<circle cx="9.01" cy="-19.668" r="0.5"/>
			<circle cx="9.087" cy="-31.6" r="0.5"/>
			<circle cx="9.51" cy="-9.668" r="0.5"/>
			<circle cx="9.959" cy="-24.543" r="0.5"/>
		</g>
	</g>
</svg>
