<?xml version="1.0" encoding="utf-8"?>
<svg xmlns="http://www.w3.org/2000/svg" version="1.1" x="0px" y="0px" xml:space="preserve" width="54.125" height="54.125" viewBox="0 -54.125 54.125 54.125">
	<metadata id="metadata2">
	<rdf:RDF
		xmlns:dc="http://purl.org/dc/elements/1.1/"
		xmlns:cc="http://creativecommons.org/ns#"
		xmlns:rdf="http://www.w3.org/1999/02/22-rdf-syntax-ns#"
		xmlns="http://my.netscape.com/rdf/simple/0.9/">
		<item rdf:ID="biblio1">
			<link>rdf:resource="http://pubs.usgs.gov/tm/2006/11A02/</link>
			<title>U.S. Geological Survey, 2006, FGDC Digital Cartographic Standard for Geologic Map Symbolization (PostScript Implementation): U.S. Geological Survey Techniques and Methods 11-A2</title>
		</item>
		<item rdf:ID="biblio2">
			<link>https://davenquinn.com/projects/geologic-patterns/</link>
			<title>FGDC Geologic Patterns for the Web</title>
		</item>
		<rdf:Description>
			<dc:description>Converted from 'FGDC Geologic Patterns for the Web' to QGIS compatible svg symbols, with customisable fill colour/stroke colour/stroke width (when appropriate)</dc:description>
			<dc:date>01 MARCH 2019</dc:date>
			<dc:creator>GeoProc.com</dc:creator>
			<dc:publisher rdf:resource="https://github.com/BC-Consulting/QGIS-FGDC-Fill" />
		</rdf:Description>
		<cc:Work rdf:about="">
			<dc:format>image/svg+xml</dc:format>
			<dc:type rdf:resource="http://purl.org/dc/dcmitype/StillImage" />
			<dc:title>FGDC fill symbol: Lithology - Sedimentary - 624 Carbonaceous Shale</dc:title>
		</cc:Work>
	</rdf:RDF>
	</metadata>
	<g>
		<rect y="-54.125" style="fill:none;stroke:none;" width="54.125" height="54.125"/>
        <g style="fill:none;" stroke="param(outline) #000" stroke-width="param(outline-width) 0.8">
			<line x1="54.125" y1="-43.736" x2="0" y2="-43.736"/>
			<line x1="54.125" y1="-42.146" x2="0" y2="-42.146"/>
			<line x1="54.125" y1="-40.556" x2="0" y2="-40.556"/>
			<line x1="54.125" y1="-38.965" x2="0" y2="-38.965"/>
			<line x1="54.125" y1="-37.375" x2="0" y2="-37.375"/>
			<line x1="54.125" y1="-35.784" x2="0" y2="-35.784"/>
			<line x1="54.125" y1="-34.194" x2="0" y2="-34.194"/>
			<line x1="54.125" y1="-32.604" x2="0" y2="-32.604"/>
			<line x1="54.125" y1="-31.013" x2="0" y2="-31.013"/>
			<line x1="54.125" y1="-29.423" x2="0" y2="-29.423"/>
			<line x1="54.125" y1="-27.831" x2="0" y2="-27.831"/>
			<line x1="0" y1="-53.28" x2="54.125" y2="-53.28"/>
			<line x1="54.125" y1="-51.689" x2="0" y2="-51.689"/>
			<line x1="54.125" y1="-50.1" x2="0" y2="-50.1"/>
			<line x1="54.125" y1="-48.509" x2="0" y2="-48.509"/>
			<line x1="54.125" y1="-46.918" x2="0" y2="-46.918"/>
			<line x1="54.125" y1="-45.328" x2="0" y2="-45.328"/>
			<line x1="54.125" y1="-26.241" x2="0" y2="-26.241"/>
			<line x1="54.125" y1="-24.65" x2="0" y2="-24.65"/>
			<line x1="54.125" y1="-23.06" x2="0" y2="-23.06"/>
			<line x1="54.125" y1="-21.47" x2="0" y2="-21.47"/>
			<line x1="54.125" y1="-19.879" x2="0" y2="-19.879"/>
			<line x1="54.125" y1="-18.289" x2="0" y2="-18.289"/>
			<line x1="54.125" y1="-16.698" x2="0" y2="-16.698"/>
			<line x1="54.125" y1="-15.107" x2="0" y2="-15.107"/>
			<line x1="54.125" y1="-13.518" x2="0" y2="-13.518"/>
			<line x1="54.125" y1="-11.927" x2="0" y2="-11.927"/>
			<line x1="54.125" y1="-10.336" x2="0" y2="-10.336"/>
			<line x1="54.125" y1="-8.745" x2="0" y2="-8.745"/>
			<line x1="54.125" y1="-7.155" x2="0" y2="-7.155"/>
			<line x1="54.125" y1="-5.564" x2="0" y2="-5.564"/>
			<line x1="54.125" y1="-3.974" x2="0" y2="-3.974"/>
			<line x1="54.125" y1="-2.384" x2="0" y2="-2.384"/>
			<line x1="54.125" y1="-0.793" x2="0" y2="-0.793"/>
		</g>
	</g>
</svg>
