<?xml version="1.0" encoding="utf-8"?>
<svg xmlns="http://www.w3.org/2000/svg" version="1.1" x="0px" y="0px" xml:space="preserve" width="54.125" height="54.125" viewBox="0 -55.983 54.125 54.125">
	<metadata id="metadata2">
	<rdf:RDF
		xmlns:dc="http://purl.org/dc/elements/1.1/"
		xmlns:cc="http://creativecommons.org/ns#"
		xmlns:rdf="http://www.w3.org/1999/02/22-rdf-syntax-ns#"
		xmlns="http://my.netscape.com/rdf/simple/0.9/">
		<item rdf:ID="biblio1">
			<link>rdf:resource="http://pubs.usgs.gov/tm/2006/11A02/</link>
			<title>U.S. Geological Survey, 2006, FGDC Digital Cartographic Standard for Geologic Map Symbolization (PostScript Implementation): U.S. Geological Survey Techniques and Methods 11-A2</title>
		</item>
		<item rdf:ID="biblio2">
			<link>https://davenquinn.com/projects/geologic-patterns/</link>
			<title>FGDC Geologic Patterns for the Web</title>
		</item>
		<rdf:Description>
			<dc:description>Converted from 'FGDC Geologic Patterns for the Web' to QGIS compatible svg symbols, with customisable fill colour/stroke colour/stroke width (when appropriate)</dc:description>
			<dc:date>01 MARCH 2019</dc:date>
			<dc:creator>GeoProc.com</dc:creator>
			<dc:publisher rdf:resource="https://github.com/BC-Consulting/QGIS-FGDC-Fill" />
		</rdf:Description>
		<cc:Work rdf:about="">
			<dc:format>image/svg+xml</dc:format>
			<dc:type rdf:resource="http://purl.org/dc/dcmitype/StillImage" />
			<dc:title>FGDC fill symbol: Lithology - Sedimentary - 625 Oil Shale</dc:title>
		</cc:Work>
	</rdf:RDF>
	</metadata>
	<g>
		<rect y="-55.983" style="fill:none;stroke:none;" width="54.125" height="54.125"/>
        <g style="fill:none;" stroke="param(outline) #000">
			<line style="stroke-width:0.3;" x1="0" y1="-39.735" x2="54.125" y2="-39.735"/>
			<line style="stroke-width:0.3;" x1="0" y1="-40.735" x2="54.125" y2="-40.735"/>
			<line style="stroke-width:0.3;" x1="0" y1="-50.094" x2="54.125" y2="-50.094"/>
			<line style="stroke-width:0.3;" x1="0" y1="-53.048" x2="54.125" y2="-53.048"/>
			<line style="stroke-width:0.3;" x1="54.125" y1="-14.735" x2="0" y2="-14.735"/>
			<line style="stroke-width:0.3;" x1="54.125" y1="-21.11" x2="0" y2="-21.11"/>
			<line style="stroke-width:0.3;" x1="54.125" y1="-24.36" x2="0" y2="-24.36"/>
			<line style="stroke-width:0.3;" x1="54.125" y1="-29.985" x2="0" y2="-29.985"/>
			<line style="stroke-width:0.3;" x1="54.125" y1="-32.235" x2="0" y2="-32.235"/>
			<line style="stroke-width:0.3;" x1="54.125" y1="-33.36" x2="0" y2="-33.36"/>
			<line style="stroke-width:0.3;" x1="54.125" y1="-6.048" x2="0" y2="-6.048"/>
			<line style="stroke-width:0.3;" x1="54.125" y1="-8.61" x2="0" y2="-8.61"/>
			<line style="stroke-width:0.4;" x1="0" y1="-15.735" x2="54.125" y2="-15.735"/>
			<line style="stroke-width:0.4;" x1="0" y1="-48.946" x2="54.125" y2="-48.946"/>
			<line style="stroke-width:0.4;" x1="54.125" y1="-16.735" x2="0" y2="-16.735"/>
			<line style="stroke-width:0.4;" x1="54.125" y1="-23.61" x2="0" y2="-23.61"/>
			<line style="stroke-width:0.4;" x1="54.125" y1="-28.735" x2="0" y2="-28.735"/>
			<line style="stroke-width:0.4;" x1="54.125" y1="-36.485" x2="0" y2="-36.485"/>
			<line style="stroke-width:0.4;" x1="54.125" y1="-6.985" x2="0" y2="-6.985"/>
			<line style="stroke-width:0.7;" x1="0" y1="-47.696" x2="54.125" y2="-47.696"/>
			<line style="stroke-width:0.7;" x1="0" y1="-51.219" x2="54.125" y2="-51.219"/>
			<line style="stroke-width:0.7;" x1="54.125" y1="-22.36" x2="0" y2="-22.36"/>
			<line style="stroke-width:0.7;" x1="54.125" y1="-35.61" x2="0" y2="-35.61"/>
			<line style="stroke-width:0.7;" x1="54.125" y1="-38.61" x2="0" y2="-38.61"/>
			<line style="stroke-width:0.8;" x1="54.125" y1="-31.11" x2="0" y2="-31.11"/>
			<line style="stroke-width:2;" x1="54.125" y1="-19.173" x2="0" y2="-19.173"/>
			<line style="stroke-width:2;" x1="54.125" y1="-26.11" x2="0" y2="-26.11"/>
			<line style="stroke-width:4;" x1="0" y1="-44.598" x2="54.125" y2="-44.598"/>
			<line style="stroke-width:4;" x1="0" y1="-55.973" x2="54.125" y2="-55.973"/>
			<line style="stroke-width:4;" x1="54.125" y1="-2" x2="0" y2="-2"/>
			<line style="stroke-width:4.5;" x1="54.125" y1="-11.668" x2="0" y2="-11.668"/>
		</g>
	</g>
</svg>
