<?xml version="1.0" encoding="utf-8"?>
<svg xmlns="http://www.w3.org/2000/svg" version="1.1" x="0px" y="0px" xml:space="preserve" width="54.125" height="54.125" viewBox="1.6 -55.725 54.125 54.125">
	<metadata id="metadata2">
	<rdf:RDF
		xmlns:dc="http://purl.org/dc/elements/1.1/"
		xmlns:cc="http://creativecommons.org/ns#"
		xmlns:rdf="http://www.w3.org/1999/02/22-rdf-syntax-ns#"
		xmlns="http://my.netscape.com/rdf/simple/0.9/">
		<item rdf:ID="biblio1">
			<link>rdf:resource="http://pubs.usgs.gov/tm/2006/11A02/</link>
			<title>U.S. Geological Survey, 2006, FGDC Digital Cartographic Standard for Geologic Map Symbolization (PostScript Implementation): U.S. Geological Survey Techniques and Methods 11-A2</title>
		</item>
		<item rdf:ID="biblio2">
			<link>https://davenquinn.com/projects/geologic-patterns/</link>
			<title>FGDC Geologic Patterns for the Web</title>
		</item>
		<rdf:Description>
			<dc:description>Converted from 'FGDC Geologic Patterns for the Web' to QGIS compatible svg symbols, with customisable fill colour/stroke colour/stroke width (when appropriate)</dc:description>
			<dc:date>01 MARCH 2019</dc:date>
			<dc:creator>GeoProc.com</dc:creator>
			<dc:publisher rdf:resource="https://github.com/BC-Consulting/QGIS-FGDC-Fill" />
		</rdf:Description>
		<cc:Work rdf:about="">
			<dc:format>image/svg+xml</dc:format>
			<dc:type rdf:resource="http://purl.org/dc/dcmitype/StillImage" />
			<dc:title>FGDC fill symbol: Lithology - Sedimentary - 627 Limestone</dc:title>
		</cc:Work>
	</rdf:RDF>
	</metadata>
	<g>
		<rect x="1.6" y="-55.725" style="fill:none;stroke:none;" width="54.125" height="54.125"/>
        <g style="fill:none;" stroke="param(outline) #000" stroke-width="param(outline-width) 0.8">
			<line x1="1.6" y1="-51.975" x2="55.725" y2="-51.975"/>
			<line x1="1.6" y1="-47.8" x2="55.725" y2="-47.8"/>
			<line x1="1.6" y1="-43.612" x2="55.725" y2="-43.612"/>
			<line x1="1.6" y1="-14" x2="55.787" y2="-14"/>
			<line x1="1.6" y1="-10.225" x2="55.725" y2="-10.225"/>
			<line x1="1.6" y1="-39.594" x2="55.725" y2="-39.594"/>
			<line x1="1.6" y1="-36.312" x2="55.725" y2="-36.312"/>
			<line x1="1.6" y1="-32.887" x2="55.725" y2="-32.887"/>
			<line x1="1.6" y1="-28.837" x2="55.725" y2="-28.837"/>
			<line x1="1.6" y1="-25.037" x2="55.725" y2="-25.037"/>
			<line x1="1.6" y1="-20.837" x2="55.787" y2="-20.837"/>
			<line x1="1.6" y1="-17.612" x2="55.725" y2="-17.612"/>
			<line x1="1.6" y1="-2.437" x2="55.725" y2="-2.437"/>
			<line x1="7.525" y1="-55.725" x2="7.525" y2="-51.975"/>
			<line x1="20.275" y1="-55.725" x2="20.275" y2="-51.975"/>
			<line x1="33.775" y1="-55.725" x2="33.775" y2="-51.975"/>
			<line x1="48.15" y1="-55.725" x2="48.15" y2="-51.975"/>
			<line x1="7.525" y1="-2.45" x2="7.525" y2="-1.6"/>
			<line x1="20.275" y1="-2.45" x2="20.275" y2="-1.6"/>
			<line x1="33.775" y1="-2.45" x2="33.775" y2="-1.6"/>
			<line x1="48.15" y1="-2.45" x2="48.15" y2="-1.6"/>
			<line x1="14.2" y1="-52.037" x2="14.2" y2="-47.812"/>
			<line x1="29.075" y1="-52.037" x2="29.075" y2="-47.812"/>
			<line x1="42.7" y1="-52.037" x2="42.7" y2="-47.812"/>
			<line x1="55.525" y1="-52.037" x2="55.525" y2="-47.812"/>
			<line x1="8.637" y1="-47.675" x2="8.637" y2="-43.625"/>
			<line x1="21.888" y1="-47.675" x2="21.888" y2="-43.625"/>
			<line x1="35.45" y1="-47.675" x2="35.45" y2="-43.625"/>
			<line x1="50.388" y1="-47.675" x2="50.388" y2="-43.625"/>
			<line x1="41.763" y1="-43.625" x2="41.763" y2="-39.625"/>
			<line x1="28.388" y1="-43.625" x2="28.388" y2="-39.625"/>
			<line x1="13.512" y1="-43.625" x2="13.512" y2="-39.625"/>
			<line x1="55.013" y1="-43.625" x2="55.013" y2="-39.625"/>
			<line x1="48.15" y1="-39.625" x2="48.15" y2="-36.325"/>
			<line x1="33.525" y1="-39.625" x2="33.525" y2="-36.325"/>
			<line x1="20.275" y1="-39.625" x2="20.275" y2="-36.325"/>
			<line x1="7.525" y1="-39.625" x2="7.525" y2="-36.325"/>
			<line x1="14.075" y1="-36.325" x2="14.075" y2="-32.9"/>
			<line x1="29.075" y1="-36.325" x2="29.075" y2="-32.9"/>
			<line x1="42.825" y1="-36.325" x2="42.825" y2="-32.9"/>
			<line x1="55.575" y1="-36.325" x2="55.575" y2="-32.9"/>
			<line x1="8.262" y1="-32.9" x2="8.262" y2="-28.85"/>
			<line x1="21.763" y1="-32.9" x2="21.763" y2="-28.85"/>
			<line x1="35.388" y1="-32.9" x2="35.388" y2="-28.85"/>
			<line x1="50.263" y1="-32.9" x2="50.263" y2="-28.85"/>
			<line x1="41.638" y1="-28.787" x2="41.638" y2="-25.05"/>
			<line x1="28.313" y1="-28.787" x2="28.313" y2="-25.05"/>
			<line x1="13.313" y1="-28.787" x2="13.313" y2="-25.05"/>
			<line x1="54.867" y1="-28.787" x2="54.867" y2="-25.05"/>
			<line x1="7.125" y1="-24.987" x2="7.125" y2="-20.85"/>
			<line x1="20.125" y1="-24.987" x2="20.125" y2="-20.85"/>
			<line x1="33.75" y1="-24.987" x2="33.75" y2="-20.85"/>
			<line x1="48" y1="-24.987" x2="48" y2="-20.85"/>
			<line x1="43.8" y1="-20.787" x2="43.8" y2="-17.625"/>
			<line x1="29.65" y1="-20.787" x2="29.65" y2="-17.625"/>
			<line x1="14.525" y1="-20.787" x2="14.525" y2="-17.625"/>
			<line x1="2.108" y1="-20.787" x2="2.108" y2="-17.625"/>
			<line x1="8.483" y1="-17.562" x2="8.483" y2="-14"/>
			<line x1="21.733" y1="-17.562" x2="21.733" y2="-14"/>
			<line x1="35.358" y1="-17.562" x2="35.358" y2="-14"/>
			<line x1="50.233" y1="-17.562" x2="50.233" y2="-14"/>
			<line x1="41.883" y1="-13.95" x2="41.883" y2="-10.187"/>
			<line x1="28.008" y1="-13.95" x2="28.008" y2="-10.187"/>
			<line x1="13.458" y1="-13.95" x2="13.458" y2="-10.187"/>
			<line x1="55.333" y1="-13.95" x2="55.333" y2="-10.187"/>
			<line x1="1.6" y1="-5.812" x2="55.725" y2="-5.812"/>
			<line x1="11.896" y1="-5.838" x2="11.896" y2="-2.375"/>
			<line x1="26.333" y1="-5.838" x2="26.333" y2="-2.375"/>
			<line x1="39.958" y1="-5.838" x2="39.958" y2="-2.375"/>
			<line x1="53.333" y1="-5.838" x2="53.333" y2="-2.375"/>
			<line x1="6.171" y1="-10.187" x2="6.171" y2="-5.838"/>
			<line x1="19.171" y1="-10.187" x2="19.171" y2="-5.838"/>
			<line x1="33.171" y1="-10.187" x2="33.171" y2="-5.838"/>
			<line x1="47.733" y1="-10.187" x2="47.733" y2="-5.838"/>
		</g>
	</g>
</svg>
