<?xml version="1.0" encoding="utf-8"?>
<svg xmlns="http://www.w3.org/2000/svg" version="1.1" x="0px" y="0px" xml:space="preserve" width="54.242" height="54.125" viewBox="1.6 -55.725 54.242 54.125">
	<metadata id="metadata2">
	<rdf:RDF
		xmlns:dc="http://purl.org/dc/elements/1.1/"
		xmlns:cc="http://creativecommons.org/ns#"
		xmlns:rdf="http://www.w3.org/1999/02/22-rdf-syntax-ns#"
		xmlns="http://my.netscape.com/rdf/simple/0.9/">
		<item rdf:ID="biblio1">
			<link>rdf:resource="http://pubs.usgs.gov/tm/2006/11A02/</link>
			<title>U.S. Geological Survey, 2006, FGDC Digital Cartographic Standard for Geologic Map Symbolization (PostScript Implementation): U.S. Geological Survey Techniques and Methods 11-A2</title>
		</item>
		<item rdf:ID="biblio2">
			<link>https://davenquinn.com/projects/geologic-patterns/</link>
			<title>FGDC Geologic Patterns for the Web</title>
		</item>
		<rdf:Description>
			<dc:description>Converted from 'FGDC Geologic Patterns for the Web' to QGIS compatible svg symbols, with customisable fill colour/stroke colour/stroke width (when appropriate)</dc:description>
			<dc:date>01 MARCH 2019</dc:date>
			<dc:creator>GeoProc.com</dc:creator>
			<dc:publisher rdf:resource="https://github.com/BC-Consulting/QGIS-FGDC-Fill" />
		</rdf:Description>
		<cc:Work rdf:about="">
			<dc:format>image/svg+xml</dc:format>
			<dc:type rdf:resource="http://purl.org/dc/dcmitype/StillImage" />
			<dc:title>FGDC fill symbol: Lithology - Sedimentary - 637 Silty Limestone</dc:title>
		</cc:Work>
	</rdf:RDF>
	</metadata>
	<g>
		<rect x="1.6" y="-55.725" style="fill:none;stroke:none;" width="54.242" height="54.125"/>
        <g stroke="param(outline) #000" stroke-width="param(outline-width) 0.8">
			<line style="fill:none;" x1="1.6" y1="-15.629" x2="5.463" y2="-15.629"/>
			<line style="fill:none;" x1="1.6" y1="-45.742" x2="6.088" y2="-45.742"/>
			<line style="fill:none;" x1="1.654" y1="-10.225" x2="55.779" y2="-10.225"/>
			<line style="fill:none;" x1="1.654" y1="-14" x2="55.842" y2="-14"/>
			<line style="fill:none;" x1="1.654" y1="-17.612" x2="55.779" y2="-17.612"/>
			<line style="fill:none;" x1="1.654" y1="-2.437" x2="55.779" y2="-2.437"/>
			<line style="fill:none;" x1="1.654" y1="-20.837" x2="55.842" y2="-20.837"/>
			<line style="fill:none;" x1="1.654" y1="-25.037" x2="55.779" y2="-25.037"/>
			<line style="fill:none;" x1="1.654" y1="-28.837" x2="55.779" y2="-28.837"/>
			<line style="fill:none;" x1="1.654" y1="-32.887" x2="55.779" y2="-32.887"/>
			<line style="fill:none;" x1="1.654" y1="-36.312" x2="55.779" y2="-36.312"/>
			<line style="fill:none;" x1="1.654" y1="-39.594" x2="55.779" y2="-39.594"/>
			<line style="fill:none;" x1="1.654" y1="-43.612" x2="55.779" y2="-43.612"/>
			<line style="fill:none;" x1="1.654" y1="-47.8" x2="55.779" y2="-47.8"/>
			<line style="fill:none;" x1="1.654" y1="-5.812" x2="55.779" y2="-5.812"/>
			<line style="fill:none;" x1="1.654" y1="-51.975" x2="55.779" y2="-51.975"/>
			<line style="fill:none;" x1="1.663" y1="-30.742" x2="4.287" y2="-30.742"/>
			<line style="fill:none;" x1="1.837" y1="-4.067" x2="9.087" y2="-4.067"/>
			<line style="fill:none;" x1="10.087" y1="-22.879" x2="17.337" y2="-22.879"/>
			<line style="fill:none;" x1="10.212" y1="-37.879" x2="17.462" y2="-37.879"/>
			<line style="fill:none;" x1="10.413" y1="-54.067" x2="17.663" y2="-54.067"/>
			<line style="fill:none;" x1="11.95" y1="-5.838" x2="11.95" y2="-2.375"/>
			<line style="fill:none;" x1="13.367" y1="-28.787" x2="13.367" y2="-25.05"/>
			<line style="fill:none;" x1="13.512" y1="-13.95" x2="13.512" y2="-10.187"/>
			<line style="fill:none;" x1="13.567" y1="-43.625" x2="13.567" y2="-39.625"/>
			<line style="fill:none;" x1="14.129" y1="-36.325" x2="14.129" y2="-32.9"/>
			<line style="fill:none;" x1="14.254" y1="-52.037" x2="14.254" y2="-47.812"/>
			<line style="fill:none;" x1="14.579" y1="-20.787" x2="14.579" y2="-17.625"/>
			<line style="fill:none;" x1="17.087" y1="-12.117" x2="24.337" y2="-12.117"/>
			<line style="fill:none;" x1="17.462" y1="-26.879" x2="24.712" y2="-26.879"/>
			<line style="fill:none;" x1="17.587" y1="-34.629" x2="24.837" y2="-34.629"/>
			<line style="fill:none;" x1="17.913" y1="-49.804" x2="25.163" y2="-49.804"/>
			<line style="fill:none;" x1="19.225" y1="-10.187" x2="19.225" y2="-5.838"/>
			<line style="fill:none;" x1="2.162" y1="-20.787" x2="2.162" y2="-17.625"/>
			<line style="fill:none;" x1="20.179" y1="-24.987" x2="20.179" y2="-20.85"/>
			<line style="fill:none;" x1="20.329" y1="-2.45" x2="20.329" y2="-1.6"/>
			<line style="fill:none;" x1="20.329" y1="-39.625" x2="20.329" y2="-36.325"/>
			<line style="fill:none;" x1="20.329" y1="-55.725" x2="20.329" y2="-51.975"/>
			<line style="fill:none;" x1="21.788" y1="-17.562" x2="21.788" y2="-14"/>
			<line style="fill:none;" x1="21.817" y1="-32.9" x2="21.817" y2="-28.85"/>
			<line style="fill:none;" x1="21.942" y1="-47.675" x2="21.942" y2="-43.625"/>
			<line style="fill:none;" x1="24.962" y1="-30.879" x2="32.213" y2="-30.879"/>
			<line style="fill:none;" x1="25.163" y1="-45.742" x2="32.412" y2="-45.742"/>
			<line style="fill:none;" x1="25.212" y1="-15.742" x2="32.463" y2="-15.742"/>
			<line style="fill:none;" x1="26.388" y1="-5.838" x2="26.388" y2="-2.375"/>
			<line style="fill:none;" x1="28.063" y1="-13.95" x2="28.063" y2="-10.187"/>
			<line style="fill:none;" x1="28.367" y1="-28.787" x2="28.367" y2="-25.05"/>
			<line style="fill:none;" x1="28.442" y1="-43.625" x2="28.442" y2="-39.625"/>
			<line style="fill:none;" x1="29.129" y1="-36.325" x2="29.129" y2="-32.9"/>
			<line style="fill:none;" x1="29.129" y1="-52.037" x2="29.129" y2="-47.812"/>
			<line style="fill:none;" x1="29.587" y1="-4.129" x2="36.838" y2="-4.129"/>
			<line style="fill:none;" x1="29.704" y1="-20.787" x2="29.704" y2="-17.625"/>
			<line style="fill:none;" x1="3.463" y1="-41.492" x2="10.712" y2="-41.492"/>
			<line style="fill:none;" x1="31.837" y1="-41.492" x2="39.088" y2="-41.492"/>
			<line style="fill:none;" x1="33.225" y1="-10.187" x2="33.225" y2="-5.838"/>
			<line style="fill:none;" x1="33.338" y1="-19.242" x2="40.588" y2="-19.242"/>
			<line style="fill:none;" x1="33.579" y1="-39.625" x2="33.579" y2="-36.325"/>
			<line style="fill:none;" x1="33.804" y1="-24.987" x2="33.804" y2="-20.85"/>
			<line style="fill:none;" x1="33.829" y1="-2.45" x2="33.829" y2="-1.6"/>
			<line style="fill:none;" x1="33.829" y1="-55.725" x2="33.829" y2="-51.975"/>
			<line style="fill:none;" x1="35.412" y1="-17.562" x2="35.412" y2="-14"/>
			<line style="fill:none;" x1="35.442" y1="-32.9" x2="35.442" y2="-28.85"/>
			<line style="fill:none;" x1="35.504" y1="-47.675" x2="35.504" y2="-43.625"/>
			<line style="fill:none;" x1="36.963" y1="-7.879" x2="44.213" y2="-7.879"/>
			<line style="fill:none;" x1="37.088" y1="-37.992" x2="44.338" y2="-37.992"/>
			<line style="fill:none;" x1="37.463" y1="-22.992" x2="44.713" y2="-22.992"/>
			<line style="fill:none;" x1="37.537" y1="-54.067" x2="44.787" y2="-54.067"/>
			<line style="fill:none;" x1="4.838" y1="-19.129" x2="12.087" y2="-19.129"/>
			<line style="fill:none;" x1="40.013" y1="-5.838" x2="40.013" y2="-2.375"/>
			<line style="fill:none;" x1="41.692" y1="-28.787" x2="41.692" y2="-25.05"/>
			<line style="fill:none;" x1="41.817" y1="-43.625" x2="41.817" y2="-39.625"/>
			<line style="fill:none;" x1="41.938" y1="-13.95" x2="41.938" y2="-10.187"/>
			<line style="fill:none;" x1="42.754" y1="-52.037" x2="42.754" y2="-47.812"/>
			<line style="fill:none;" x1="42.879" y1="-36.325" x2="42.879" y2="-32.9"/>
			<line style="fill:none;" x1="43.854" y1="-20.787" x2="43.854" y2="-17.625"/>
			<line style="fill:none;" x1="44.838" y1="-26.992" x2="52.088" y2="-26.992"/>
			<line style="fill:none;" x1="45.338" y1="-12.004" x2="52.588" y2="-12.004"/>
			<line style="fill:none;" x1="45.662" y1="-49.804" x2="52.912" y2="-49.804"/>
			<line style="fill:none;" x1="45.838" y1="-34.617" x2="53.088" y2="-34.617"/>
			<line style="fill:none;" x1="47.787" y1="-10.187" x2="47.787" y2="-5.838"/>
			<line style="fill:none;" x1="48.054" y1="-24.987" x2="48.054" y2="-20.85"/>
			<line style="fill:none;" x1="48.204" y1="-2.45" x2="48.204" y2="-1.6"/>
			<line style="fill:none;" x1="48.204" y1="-39.625" x2="48.204" y2="-36.325"/>
			<line style="fill:none;" x1="48.204" y1="-55.725" x2="48.204" y2="-51.975"/>
			<line style="fill:none;" x1="50.287" y1="-17.562" x2="50.287" y2="-14"/>
			<line style="fill:none;" x1="50.317" y1="-32.9" x2="50.317" y2="-28.85"/>
			<line style="fill:none;" x1="50.442" y1="-47.675" x2="50.442" y2="-43.625"/>
			<line style="fill:none;" x1="52.912" y1="-15.629" x2="55.725" y2="-15.629"/>
			<line style="fill:none;" x1="52.912" y1="-45.742" x2="55.725" y2="-45.742"/>
			<line style="fill:none;" x1="52.963" y1="-30.742" x2="55.746" y2="-30.742"/>
			<line style="fill:none;" x1="53.388" y1="-5.838" x2="53.388" y2="-2.375"/>
			<line style="fill:none;" x1="54.921" y1="-28.787" x2="54.921" y2="-25.05"/>
			<line style="fill:none;" x1="55.067" y1="-43.625" x2="55.067" y2="-39.625"/>
			<line style="fill:none;" x1="55.388" y1="-13.95" x2="55.388" y2="-10.187"/>
			<line style="fill:none;" x1="55.579" y1="-52.037" x2="55.579" y2="-47.812"/>
			<line style="fill:none;" x1="55.629" y1="-36.325" x2="55.629" y2="-32.9"/>
			<line style="fill:none;" x1="6.225" y1="-10.187" x2="6.225" y2="-5.838"/>
			<line style="fill:none;" x1="7.179" y1="-24.987" x2="7.179" y2="-20.85"/>
			<line style="fill:none;" x1="7.579" y1="-2.45" x2="7.579" y2="-1.6"/>
			<line style="fill:none;" x1="7.579" y1="-39.625" x2="7.579" y2="-36.325"/>
			<line style="fill:none;" x1="7.579" y1="-55.725" x2="7.579" y2="-51.975"/>
			<line style="fill:none;" x1="8.317" y1="-32.9" x2="8.317" y2="-28.85"/>
			<line style="fill:none;" x1="8.538" y1="-17.562" x2="8.538" y2="-14"/>
			<line style="fill:none;" x1="8.692" y1="-47.675" x2="8.692" y2="-43.625"/>
			<line style="fill:none;" x1="8.962" y1="-7.742" x2="16.212" y2="-7.742"/>
			<circle cx="10.046" cy="-26.854" r="0.4"/>
			<circle cx="10.379" cy="-12.021" r="0.4"/>
			<circle cx="10.646" cy="-49.771" r="0.4"/>
			<circle cx="10.712" cy="-34.654" r="0.4"/>
			<circle cx="12.046" cy="-30.854" r="0.4"/>
			<circle cx="12.212" cy="-45.754" r="0.4"/>
			<circle cx="12.379" cy="-15.688" r="0.4"/>
			<circle cx="15.212" cy="-30.854" r="0.4"/>
			<circle cx="15.379" cy="-45.754" r="0.4"/>
			<circle cx="15.546" cy="-15.688" r="0.4"/>
			<circle cx="16.546" cy="-4.137" r="0.4"/>
			<circle cx="18.212" cy="-30.854" r="0.4"/>
			<circle cx="18.212" cy="-41.604" r="0.4"/>
			<circle cx="18.379" cy="-45.754" r="0.4"/>
			<circle cx="18.546" cy="-15.688" r="0.4"/>
			<circle cx="19.379" cy="-19.188" r="0.4"/>
			<circle cx="19.712" cy="-4.137" r="0.4"/>
			<circle cx="21.546" cy="-41.604" r="0.4"/>
			<circle cx="22.546" cy="-19.188" r="0.4"/>
			<circle cx="22.712" cy="-4.137" r="0.4"/>
			<circle cx="23.546" cy="-7.921" r="0.4"/>
			<circle cx="23.712" cy="-37.854" r="0.4"/>
			<circle cx="23.879" cy="-54.037" r="0.4"/>
			<circle cx="24.046" cy="-22.854" r="0.4"/>
			<circle cx="24.379" cy="-41.604" r="0.4"/>
			<circle cx="25.546" cy="-19.188" r="0.4"/>
			<circle cx="26.712" cy="-7.921" r="0.4"/>
			<circle cx="26.996" cy="-54.037" r="0.4"/>
			<circle cx="27.046" cy="-37.854" r="0.4"/>
			<circle cx="27.212" cy="-22.854" r="0.4"/>
			<circle cx="29.712" cy="-7.921" r="0.4"/>
			<circle cx="29.746" cy="-54.037" r="0.4"/>
			<circle cx="29.879" cy="-37.854" r="0.4"/>
			<circle cx="3.379" cy="-7.921" r="0.4"/>
			<circle cx="3.546" cy="-54.037" r="0.4"/>
			<circle cx="3.612" cy="-37.854" r="0.4"/>
			<circle cx="3.879" cy="-26.854" r="0.4"/>
			<circle cx="30.212" cy="-22.854" r="0.4"/>
			<circle cx="32.046" cy="-12.021" r="0.4"/>
			<circle cx="32.046" cy="-26.854" r="0.4"/>
			<circle cx="32.879" cy="-49.771" r="0.4"/>
			<circle cx="33.046" cy="-34.654" r="0.4"/>
			<circle cx="35.213" cy="-12.021" r="0.4"/>
			<circle cx="35.213" cy="-26.854" r="0.4"/>
			<circle cx="36.046" cy="-49.771" r="0.4"/>
			<circle cx="36.213" cy="-34.654" r="0.4"/>
			<circle cx="38.213" cy="-12.021" r="0.4"/>
			<circle cx="38.213" cy="-26.854" r="0.4"/>
			<circle cx="38.879" cy="-49.771" r="0.4"/>
			<circle cx="39.213" cy="-34.654" r="0.4"/>
			<circle cx="39.379" cy="-45.754" r="0.4"/>
			<circle cx="39.879" cy="-30.854" r="0.4"/>
			<circle cx="4.046" cy="-22.854" r="0.4"/>
			<circle cx="4.213" cy="-12.021" r="0.4"/>
			<circle cx="4.546" cy="-34.654" r="0.4"/>
			<circle cx="4.546" cy="-49.771" r="0.4"/>
			<circle cx="40.046" cy="-15.688" r="0.4"/>
			<circle cx="43.046" cy="-30.854" r="0.4"/>
			<circle cx="43.046" cy="-45.754" r="0.4"/>
			<circle cx="43.213" cy="-15.688" r="0.4"/>
			<circle cx="43.579" cy="-4.088" r="0.4"/>
			<circle cx="45.213" cy="-41.604" r="0.4"/>
			<circle cx="46.046" cy="-30.854" r="0.4"/>
			<circle cx="46.213" cy="-15.688" r="0.4"/>
			<circle cx="46.213" cy="-45.754" r="0.4"/>
			<circle cx="46.746" cy="-4.088" r="0.4"/>
			<circle cx="47.213" cy="-19.188" r="0.4"/>
			<circle cx="48.546" cy="-41.604" r="0.4"/>
			<circle cx="49.746" cy="-4.088" r="0.4"/>
			<circle cx="50.379" cy="-19.188" r="0.4"/>
			<circle cx="51.379" cy="-41.604" r="0.4"/>
			<circle cx="51.546" cy="-22.854" r="0.4"/>
			<circle cx="51.546" cy="-37.854" r="0.4"/>
			<circle cx="51.546" cy="-7.921" r="0.4"/>
			<circle cx="52.713" cy="-54.037" r="0.4"/>
			<circle cx="53.379" cy="-19.188" r="0.4"/>
			<circle cx="54.713" cy="-22.854" r="0.4"/>
			<circle cx="54.713" cy="-7.921" r="0.4"/>
			<circle cx="54.879" cy="-37.854" r="0.4"/>
			<circle cx="55.046" cy="-54.037" r="0.4"/>
			<circle cx="7.046" cy="-26.854" r="0.4"/>
			<circle cx="7.379" cy="-12.021" r="0.4"/>
			<circle cx="7.713" cy="-34.654" r="0.4"/>
			<circle cx="7.713" cy="-49.771" r="0.4"/>
		</g>
	</g>
</svg>