<?xml version="1.0" encoding="utf-8"?>
<svg xmlns="http://www.w3.org/2000/svg" version="1.1" x="0px" y="0px" xml:space="preserve" width="54.125" height="54.125" viewBox="0.058 -54.125 54.125 54.125">
	<metadata id="metadata2">
	<rdf:RDF
		xmlns:dc="http://purl.org/dc/elements/1.1/"
		xmlns:cc="http://creativecommons.org/ns#"
		xmlns:rdf="http://www.w3.org/1999/02/22-rdf-syntax-ns#"
		xmlns="http://my.netscape.com/rdf/simple/0.9/">
		<item rdf:ID="biblio1">
			<link>rdf:resource="http://pubs.usgs.gov/tm/2006/11A02/</link>
			<title>U.S. Geological Survey, 2006, FGDC Digital Cartographic Standard for Geologic Map Symbolization (PostScript Implementation): U.S. Geological Survey Techniques and Methods 11-A2</title>
		</item>
		<item rdf:ID="biblio2">
			<link>https://davenquinn.com/projects/geologic-patterns/</link>
			<title>FGDC Geologic Patterns for the Web</title>
		</item>
		<rdf:Description>
			<dc:description>Converted from 'FGDC Geologic Patterns for the Web' to QGIS compatible svg symbols, with customisable fill colour/stroke colour/stroke width (when appropriate)</dc:description>
			<dc:date>01 MARCH 2019</dc:date>
			<dc:creator>GeoProc.com</dc:creator>
			<dc:publisher rdf:resource="https://github.com/BC-Consulting/QGIS-FGDC-Fill" />
		</rdf:Description>
		<cc:Work rdf:about="">
			<dc:format>image/svg+xml</dc:format>
			<dc:type rdf:resource="http://purl.org/dc/dcmitype/StillImage" />
			<dc:title>FGDC fill symbol: Lithology - Sedimentary - 639 Cherty Limestone 1st Option</dc:title>
		</cc:Work>
	</rdf:RDF>
	</metadata>
	<g>
		<rect x="0.058" y="-54.125" style="fill:none;stroke:none;" width="54.125" height="54.125"/>
        <g style="fill:none;" stroke="param(outline) #000" stroke-width="param(outline-width) 0.8">
			<ellipse cx="10.965" cy="-6.25" rx="2.383" ry="0.794"/>
			<ellipse cx="11.965" cy="-21.125" rx="2.383" ry="0.794"/>
			<ellipse cx="12.215" cy="-52.4" rx="2.383" ry="0.795"/>
			<ellipse cx="12.34" cy="-36.225" rx="2.383" ry="0.794"/>
			<ellipse cx="13.215" cy="-14.125" rx="2.383" ry="0.794"/>
			<ellipse cx="13.215" cy="-29.125" rx="2.383" ry="0.794"/>
			<ellipse cx="13.715" cy="-44" rx="2.383" ry="0.794"/>
			<ellipse cx="17.215" cy="-2.375" rx="2.383" ry="0.794"/>
			<ellipse cx="18.715" cy="-25.25" rx="2.383" ry="0.794"/>
			<ellipse cx="18.84" cy="-10.375" rx="2.383" ry="0.794"/>
			<ellipse cx="19.34" cy="-39.875" rx="2.383" ry="0.794"/>
			<ellipse cx="19.59" cy="-33" rx="2.383" ry="0.794"/>
			<ellipse cx="20.09" cy="-17.625" rx="2.383" ry="0.794"/>
			<ellipse cx="20.09" cy="-48.125" rx="2.383" ry="0.794"/>
			<ellipse cx="24.715" cy="-6.25" rx="2.383" ry="0.794"/>
			<ellipse cx="25.215" cy="-21.125" rx="2.383" ry="0.794"/>
			<ellipse cx="25.59" cy="-52.4" rx="2.383" ry="0.795"/>
			<ellipse cx="25.715" cy="-36.225" rx="2.383" ry="0.794"/>
			<ellipse cx="26.715" cy="-14.125" rx="2.383" ry="0.794"/>
			<ellipse cx="26.84" cy="-29.125" rx="2.383" ry="0.794"/>
			<ellipse cx="27.34" cy="-44" rx="2.383" ry="0.794"/>
			<ellipse cx="3.715" cy="-2.375" rx="2.383" ry="0.794"/>
			<ellipse cx="31.465" cy="-2.375" rx="2.383" ry="0.794"/>
			<ellipse cx="33.215" cy="-25.25" rx="2.383" ry="0.794"/>
			<ellipse cx="33.34" cy="-10.375" rx="2.383" ry="0.794"/>
			<ellipse cx="33.715" cy="-39.875" rx="2.383" ry="0.794"/>
			<ellipse cx="34.215" cy="-48.125" rx="2.383" ry="0.794"/>
			<ellipse cx="34.34" cy="-33" rx="2.383" ry="0.794"/>
			<ellipse cx="34.715" cy="-17.625" rx="2.383" ry="0.794"/>
			<ellipse cx="38.84" cy="-6.25" rx="2.383" ry="0.794"/>
			<ellipse cx="39.09" cy="-21.125" rx="2.383" ry="0.794"/>
			<ellipse cx="39.215" cy="-36.225" rx="2.383" ry="0.794"/>
			<ellipse cx="39.34" cy="-52.4" rx="2.383" ry="0.795"/>
			<ellipse cx="4.84" cy="-25.25" rx="2.383" ry="0.794"/>
			<ellipse cx="4.965" cy="-10.375" rx="2.383" ry="0.794"/>
			<ellipse cx="41.09" cy="-14.125" rx="2.383" ry="0.794"/>
			<ellipse cx="41.34" cy="-29.125" rx="2.383" ry="0.794"/>
			<ellipse cx="41.59" cy="-44" rx="2.383" ry="0.794"/>
			<ellipse cx="44.965" cy="-2.375" rx="2.383" ry="0.794"/>
			<ellipse cx="46.34" cy="-25.25" rx="2.383" ry="0.794"/>
			<ellipse cx="47.09" cy="-10.375" rx="2.383" ry="0.794"/>
			<ellipse cx="47.34" cy="-39.875" rx="2.383" ry="0.794"/>
			<ellipse cx="47.59" cy="-33" rx="2.383" ry="0.794"/>
			<ellipse cx="47.715" cy="-48.125" rx="2.383" ry="0.794"/>
			<ellipse cx="48.215" cy="-17.625" rx="2.383" ry="0.794"/>
			<ellipse cx="5.59" cy="-39.875" rx="2.383" ry="0.794"/>
			<ellipse cx="5.715" cy="-33" rx="2.383" ry="0.794"/>
			<ellipse cx="6.09" cy="-48.125" rx="2.383" ry="0.794"/>
			<ellipse cx="6.59" cy="-17.625" rx="2.383" ry="0.794"/>
			<line x1="0.058" y1="-0.838" x2="5.983" y2="-0.838"/>
			<line x1="0.058" y1="-16.013" x2="54.183" y2="-16.013"/>
			<line x1="0.058" y1="-19.237" x2="54.183" y2="-19.237"/>
			<line x1="0.058" y1="-23.438" x2="54.183" y2="-23.438"/>
			<line x1="0.058" y1="-27.237" x2="54.183" y2="-27.237"/>
			<line x1="0.058" y1="-46.2" x2="54.183" y2="-46.2"/>
			<line x1="0.058" y1="-50.375" x2="5.983" y2="-50.375"/>
			<line x1="0.566" y1="-19.188" x2="0.566" y2="-16.025"/>
			<line x1="10.354" y1="-0.838" x2="10.354" y2="-0.775"/>
			<line x1="10.354" y1="-0.838" x2="10.354" y2="-4.213"/>
			<line x1="10.354" y1="-0.838" x2="18.733" y2="-0.838"/>
			<line x1="10.354" y1="-0.838" x2="5.983" y2="-0.838"/>
			<line x1="10.354" y1="-4.213" x2="0.058" y2="-4.213"/>
			<line x1="10.354" y1="-4.238" x2="10.354" y2="-4.213"/>
			<line x1="11.77" y1="-27.188" x2="11.77" y2="-23.45"/>
			<line x1="11.917" y1="-8.625" x2="0.058" y2="-8.625"/>
			<line x1="11.917" y1="-8.625" x2="11.917" y2="-12.35"/>
			<line x1="11.917" y1="-8.625" x2="11.917" y2="-8.588"/>
			<line x1="11.97" y1="-42.013" x2="0.058" y2="-42.013"/>
			<line x1="11.97" y1="-42.013" x2="11.97" y2="-38.025"/>
			<line x1="11.97" y1="-42.013" x2="11.97" y2="-42.025"/>
			<line x1="12.533" y1="-34.713" x2="0.058" y2="-34.713"/>
			<line x1="12.533" y1="-34.713" x2="12.533" y2="-31.3"/>
			<line x1="12.533" y1="-34.713" x2="12.533" y2="-34.726"/>
			<line x1="12.658" y1="-50.375" x2="12.658" y2="-46.213"/>
			<line x1="12.658" y1="-50.375" x2="12.658" y2="-50.438"/>
			<line x1="12.658" y1="-50.375" x2="18.733" y2="-50.375"/>
			<line x1="12.658" y1="-50.375" x2="5.983" y2="-50.375"/>
			<line x1="12.983" y1="-19.188" x2="12.983" y2="-16.025"/>
			<line x1="17.628" y1="-8.588" x2="17.628" y2="-4.238"/>
			<line x1="18.583" y1="-23.388" x2="18.583" y2="-19.25"/>
			<line x1="18.733" y1="-0.851" x2="18.733" y2="-0.838"/>
			<line x1="18.733" y1="-37.994" x2="18.733" y2="-34.726"/>
			<line x1="18.733" y1="-37.994" x2="18.733" y2="-38.025"/>
			<line x1="18.733" y1="-37.994" x2="31.983" y2="-37.994"/>
			<line x1="18.733" y1="-37.994" x2="5.983" y2="-37.994"/>
			<line x1="18.733" y1="-54.125" x2="18.733" y2="-50.375"/>
			<line x1="18.733" y1="0" x2="18.733" y2="-0.838"/>
			<line x1="20.191" y1="-12.4" x2="20.191" y2="-15.963"/>
			<line x1="20.191" y1="-12.4" x2="33.816" y2="-12.4"/>
			<line x1="20.191" y1="-12.4" x2="6.941" y2="-12.4"/>
			<line x1="20.22" y1="-31.288" x2="20.22" y2="-27.25"/>
			<line x1="20.22" y1="-31.288" x2="6.72" y2="-31.288"/>
			<line x1="20.22" y1="-31.3" x2="20.22" y2="-31.288"/>
			<line x1="20.345" y1="-42.025" x2="20.345" y2="-46.075"/>
			<line x1="24.792" y1="-0.838" x2="18.733" y2="-0.838"/>
			<line x1="24.792" y1="-0.838" x2="24.792" y2="-0.775"/>
			<line x1="24.792" y1="-0.838" x2="24.792" y2="-4.213"/>
			<line x1="24.792" y1="-0.838" x2="32.233" y2="-0.838"/>
			<line x1="24.792" y1="-4.213" x2="10.354" y2="-4.213"/>
			<line x1="24.792" y1="-4.238" x2="24.792" y2="-4.213"/>
			<line x1="26.466" y1="-12.35" x2="26.466" y2="-8.625"/>
			<line x1="26.466" y1="-8.625" x2="11.917" y2="-8.625"/>
			<line x1="26.466" y1="-8.625" x2="26.466" y2="-8.588"/>
			<line x1="26.77" y1="-27.188" x2="26.77" y2="-23.45"/>
			<line x1="26.845" y1="-42.013" x2="11.97" y2="-42.013"/>
			<line x1="26.845" y1="-42.013" x2="26.845" y2="-38.025"/>
			<line x1="26.845" y1="-42.013" x2="26.845" y2="-42.025"/>
			<line x1="27.533" y1="-34.713" x2="12.533" y2="-34.713"/>
			<line x1="27.533" y1="-34.713" x2="27.533" y2="-31.3"/>
			<line x1="27.533" y1="-34.726" x2="27.533" y2="-34.713"/>
			<line x1="27.533" y1="-50.375" x2="18.733" y2="-50.375"/>
			<line x1="27.533" y1="-50.375" x2="27.533" y2="-46.213"/>
			<line x1="27.533" y1="-50.375" x2="27.533" y2="-50.438"/>
			<line x1="27.533" y1="-50.375" x2="32.233" y2="-50.375"/>
			<line x1="28.108" y1="-19.188" x2="28.108" y2="-16.025"/>
			<line x1="31.628" y1="-8.588" x2="31.628" y2="-4.238"/>
			<line x1="31.983" y1="-37.994" x2="31.983" y2="-34.726"/>
			<line x1="31.983" y1="-37.994" x2="31.983" y2="-38.025"/>
			<line x1="31.983" y1="-37.994" x2="46.608" y2="-37.994"/>
			<line x1="32.208" y1="-23.388" x2="32.208" y2="-19.25"/>
			<line x1="32.233" y1="-0.851" x2="32.233" y2="-0.838"/>
			<line x1="32.233" y1="-54.125" x2="32.233" y2="-50.375"/>
			<line x1="32.233" y1="0" x2="32.233" y2="-0.838"/>
			<line x1="33.816" y1="-12.4" x2="33.816" y2="-15.963"/>
			<line x1="33.816" y1="-12.4" x2="48.691" y2="-12.4"/>
			<line x1="33.845" y1="-31.288" x2="20.22" y2="-31.288"/>
			<line x1="33.845" y1="-31.288" x2="33.845" y2="-27.25"/>
			<line x1="33.845" y1="-31.3" x2="33.845" y2="-31.288"/>
			<line x1="33.908" y1="-42.025" x2="33.908" y2="-46.075"/>
			<line x1="38.417" y1="-0.838" x2="32.233" y2="-0.838"/>
			<line x1="38.417" y1="-0.838" x2="38.417" y2="-0.775"/>
			<line x1="38.417" y1="-0.838" x2="38.417" y2="-4.213"/>
			<line x1="38.417" y1="-0.838" x2="46.608" y2="-0.838"/>
			<line x1="38.417" y1="-4.213" x2="24.792" y2="-4.213"/>
			<line x1="38.417" y1="-4.238" x2="38.417" y2="-4.213"/>
			<line x1="4.628" y1="-4.238" x2="4.628" y2="-8.588"/>
			<line x1="40.095" y1="-27.188" x2="40.095" y2="-23.45"/>
			<line x1="40.22" y1="-42.013" x2="26.845" y2="-42.013"/>
			<line x1="40.22" y1="-42.013" x2="40.22" y2="-38.025"/>
			<line x1="40.22" y1="-42.013" x2="40.22" y2="-42.025"/>
			<line x1="40.22" y1="-42.013" x2="53.47" y2="-42.013"/>
			<line x1="40.341" y1="-8.625" x2="26.466" y2="-8.625"/>
			<line x1="40.341" y1="-8.625" x2="40.341" y2="-12.35"/>
			<line x1="40.341" y1="-8.625" x2="40.341" y2="-8.588"/>
			<line x1="40.341" y1="-8.625" x2="53.792" y2="-8.625"/>
			<line x1="41.158" y1="-50.375" x2="32.233" y2="-50.375"/>
			<line x1="41.158" y1="-50.375" x2="41.158" y2="-46.213"/>
			<line x1="41.158" y1="-50.375" x2="41.158" y2="-50.438"/>
			<line x1="41.158" y1="-50.375" x2="46.608" y2="-50.375"/>
			<line x1="41.283" y1="-34.713" x2="27.533" y2="-34.713"/>
			<line x1="41.283" y1="-34.713" x2="41.283" y2="-31.3"/>
			<line x1="41.283" y1="-34.713" x2="41.283" y2="-34.726"/>
			<line x1="41.283" y1="-34.713" x2="54.033" y2="-34.713"/>
			<line x1="42.258" y1="-19.188" x2="42.258" y2="-16.025"/>
			<line x1="46.191" y1="-4.238" x2="46.191" y2="-8.588"/>
			<line x1="46.458" y1="-23.388" x2="46.458" y2="-19.25"/>
			<line x1="46.608" y1="-0.851" x2="46.608" y2="-0.838"/>
			<line x1="46.608" y1="-37.994" x2="46.608" y2="-34.726"/>
			<line x1="46.608" y1="-37.994" x2="46.608" y2="-38.025"/>
			<line x1="46.608" y1="-37.994" x2="54.183" y2="-37.994"/>
			<line x1="46.608" y1="-54.125" x2="46.608" y2="-50.375"/>
			<line x1="46.608" y1="0" x2="46.608" y2="-0.838"/>
			<line x1="48.691" y1="-12.4" x2="48.691" y2="-15.963"/>
			<line x1="48.691" y1="-12.4" x2="54.183" y2="-12.4"/>
			<line x1="48.72" y1="-31.288" x2="33.845" y2="-31.288"/>
			<line x1="48.72" y1="-31.288" x2="48.72" y2="-27.25"/>
			<line x1="48.72" y1="-31.288" x2="48.72" y2="-31.3"/>
			<line x1="48.72" y1="-31.288" x2="54.183" y2="-31.288"/>
			<line x1="48.845" y1="-42.025" x2="48.845" y2="-46.075"/>
			<line x1="5.582" y1="-23.388" x2="5.582" y2="-19.25"/>
			<line x1="5.983" y1="-0.851" x2="5.983" y2="-0.838"/>
			<line x1="5.983" y1="-37.994" x2="0.058" y2="-37.994"/>
			<line x1="5.983" y1="-37.994" x2="5.983" y2="-34.726"/>
			<line x1="5.983" y1="-37.994" x2="5.983" y2="-38.025"/>
			<line x1="5.983" y1="-54.125" x2="5.983" y2="-50.375"/>
			<line x1="5.983" y1="0" x2="5.983" y2="-0.838"/>
			<line x1="51.792" y1="-0.838" x2="46.608" y2="-0.838"/>
			<line x1="51.792" y1="-0.838" x2="51.792" y2="-0.775"/>
			<line x1="51.792" y1="-0.838" x2="51.792" y2="-4.213"/>
			<line x1="51.792" y1="-0.838" x2="54.183" y2="-0.838"/>
			<line x1="51.792" y1="-4.213" x2="38.417" y2="-4.213"/>
			<line x1="51.792" y1="-4.213" x2="51.792" y2="-4.238"/>
			<line x1="51.792" y1="-4.213" x2="54.183" y2="-4.213"/>
			<line x1="53.325" y1="-23.45" x2="53.325" y2="-27.188"/>
			<line x1="53.47" y1="-42.013" x2="53.47" y2="-38.025"/>
			<line x1="53.47" y1="-42.013" x2="53.47" y2="-42.025"/>
			<line x1="53.47" y1="-42.013" x2="54.183" y2="-42.013"/>
			<line x1="53.792" y1="-12.35" x2="53.792" y2="-8.625"/>
			<line x1="53.792" y1="-8.625" x2="53.792" y2="-8.588"/>
			<line x1="53.792" y1="-8.625" x2="54.183" y2="-8.625"/>
			<line x1="53.983" y1="-50.375" x2="46.608" y2="-50.375"/>
			<line x1="53.983" y1="-50.375" x2="53.983" y2="-46.213"/>
			<line x1="53.983" y1="-50.375" x2="53.983" y2="-50.438"/>
			<line x1="53.983" y1="-50.375" x2="54.183" y2="-50.375"/>
			<line x1="54.033" y1="-34.713" x2="54.033" y2="-31.3"/>
			<line x1="54.033" y1="-34.713" x2="54.033" y2="-34.726"/>
			<line x1="54.033" y1="-34.713" x2="54.183" y2="-34.713"/>
			<line x1="6.72" y1="-31.288" x2="0.058" y2="-31.288"/>
			<line x1="6.72" y1="-31.288" x2="6.72" y2="-27.25"/>
			<line x1="6.72" y1="-31.3" x2="6.72" y2="-31.288"/>
			<line x1="6.941" y1="-12.4" x2="0.058" y2="-12.4"/>
			<line x1="6.941" y1="-12.4" x2="6.941" y2="-15.963"/>
			<line x1="7.095" y1="-42.025" x2="7.095" y2="-46.075"/>
			<path d="M0.058-13.362c0.209,0.021,0.429,0.031,0.656,0.031    c1.316,0,2.384-0.355,2.384-0.794c0-0.439-1.067-0.795-2.384-0.795c-0.228,0-0.447,0.011-0.656,0.03"/>
			<path d="M0.058-20.399c0.834-0.124,1.415-0.402,1.415-0.726    c0-0.324-0.581-0.603-1.415-0.727"/>
			<path d="M0.058-28.351c0.171,0.013,0.349,0.019,0.531,0.019    c1.316,0,2.384-0.355,2.384-0.794c0-0.44-1.067-0.795-2.384-0.795c-0.183,0-0.36,0.007-0.531,0.021"/>
			<path d="M0.058-35.453c1.042-0.085,1.814-0.399,1.814-0.773    c0-0.373-0.772-0.687-1.814-0.771"/>
			<path d="M0.058-43.284c0.312,0.05,0.662,0.078,1.031,0.078    c1.316,0,2.384-0.355,2.384-0.794c0-0.439-1.067-0.795-2.384-0.795c-0.369,0-0.72,0.028-1.031,0.078"/>
			<path d="M0.058-5.7c0.411-0.143,0.665-0.336,0.665-0.55    S0.469-6.658,0.058-6.801"/>
			<path d="M0.058-51.646c0.952-0.104,1.64-0.403,1.64-0.755    c0-0.352-0.688-0.651-1.64-0.755"/>
			<path d="M54.183-14.89c-0.997,0.096-1.727,0.401-1.727,0.765    c0,0.362,0.729,0.668,1.727,0.763"/>
			<path d="M54.183-21.852c-0.296-0.044-0.624-0.068-0.969-0.068    c-1.317,0-2.384,0.355-2.384,0.795c0,0.438,1.067,0.794,2.384,0.794c0.345,0,0.673-0.024,0.969-0.068"/>
			<path d="M54.183-29.899c-1.061,0.08-1.852,0.396-1.852,0.774    c0,0.378,0.791,0.693,1.852,0.774"/>
			<path d="M54.183-36.997C54-37.012,53.811-37.02,53.615-37.02    c-1.316,0-2.384,0.355-2.384,0.794c0,0.44,1.067,0.795,2.384,0.795c0.196,0,0.386-0.008,0.568-0.022"/>
			<path d="M54.183-44.717c-0.8,0.128-1.352,0.4-1.352,0.717    c0,0.315,0.552,0.588,1.352,0.716"/>
			<path d="M54.183-53.155c-0.234-0.026-0.483-0.04-0.743-0.04    c-1.316,0-2.384,0.356-2.384,0.795c0,0.438,1.067,0.795,2.384,0.795c0.26,0,0.509-0.014,0.743-0.04"/>
			<path d="M54.183-6.801c-0.434-0.15-1.043-0.244-1.719-0.244    c-1.317,0-2.384,0.355-2.384,0.795c0,0.438,1.067,0.794,2.384,0.794c0.676,0,1.285-0.094,1.719-0.244"/>
		</g>
	</g>
</svg>
