<?xml version="1.0" encoding="utf-8"?>
<svg xmlns="http://www.w3.org/2000/svg" version="1.1" x="0px" y="0px" xml:space="preserve" width="54.125" height="54.125" viewBox="0.064 -54.203 54.125 54.125">
	<metadata id="metadata2">
	<rdf:RDF
		xmlns:dc="http://purl.org/dc/elements/1.1/"
		xmlns:cc="http://creativecommons.org/ns#"
		xmlns:rdf="http://www.w3.org/1999/02/22-rdf-syntax-ns#"
		xmlns="http://my.netscape.com/rdf/simple/0.9/">
		<item rdf:ID="biblio1">
			<link>rdf:resource="http://pubs.usgs.gov/tm/2006/11A02/</link>
			<title>U.S. Geological Survey, 2006, FGDC Digital Cartographic Standard for Geologic Map Symbolization (PostScript Implementation): U.S. Geological Survey Techniques and Methods 11-A2</title>
		</item>
		<item rdf:ID="biblio2">
			<link>https://davenquinn.com/projects/geologic-patterns/</link>
			<title>FGDC Geologic Patterns for the Web</title>
		</item>
		<rdf:Description>
			<dc:description>Converted from 'FGDC Geologic Patterns for the Web' to QGIS compatible svg symbols, with customisable fill colour/stroke colour/stroke width (when appropriate)</dc:description>
			<dc:date>01 MARCH 2019</dc:date>
			<dc:creator>GeoProc.com</dc:creator>
			<dc:publisher rdf:resource="https://github.com/BC-Consulting/QGIS-FGDC-Fill" />
		</rdf:Description>
		<cc:Work rdf:about="">
			<dc:format>image/svg+xml</dc:format>
			<dc:type rdf:resource="http://purl.org/dc/dcmitype/StillImage" />
			<dc:title>FGDC fill symbol: Lithology - Sedimentary - 644 Oolitic Dolostone Or Dolomite</dc:title>
		</cc:Work>
	</rdf:RDF>
	</metadata>
	<g>
		<rect x="0.064" y="-54.203" style="fill:none;stroke:none;" width="54.125" height="54.125"/>
        <g style="fill:none;" stroke="param(outline) #000" stroke-width="param(outline-width) 0.8">
			<circle cx="10.302" cy="-6.453" r="0.955"/>
			<circle cx="11.427" cy="-21.328" r="0.955"/>
			<circle cx="11.727" cy="-52.499" r="0.955"/>
			<circle cx="11.927" cy="-36.328" r="0.955"/>
			<circle cx="12.802" cy="-44.078" r="0.955"/>
			<circle cx="12.927" cy="-29.328" r="0.955"/>
			<circle cx="13.177" cy="-14.303" r="0.955"/>
			<circle cx="16.927" cy="-2.578" r="0.955"/>
			<circle cx="18.552" cy="-10.553" r="0.955"/>
			<circle cx="18.677" cy="-17.703" r="0.955"/>
			<circle cx="18.677" cy="-39.928" r="0.955"/>
			<circle cx="18.802" cy="-25.403" r="0.955"/>
			<circle cx="18.927" cy="-48.203" r="0.955"/>
			<circle cx="19.427" cy="-33.053" r="0.955"/>
			<circle cx="24.052" cy="-6.453" r="0.955"/>
			<circle cx="24.427" cy="-21.328" r="0.955"/>
			<circle cx="24.802" cy="-36.328" r="0.955"/>
			<circle cx="25.052" cy="-52.499" r="0.955"/>
			<circle cx="26.427" cy="-29.328" r="0.955"/>
			<circle cx="26.632" cy="-44.078" r="0.955"/>
			<circle cx="26.677" cy="-14.303" r="0.955"/>
			<circle cx="3.177" cy="-2.578" r="0.955"/>
			<circle cx="30.927" cy="-2.578" r="0.955"/>
			<circle cx="32.802" cy="-10.553" r="0.955"/>
			<circle cx="32.802" cy="-25.403" r="0.955"/>
			<circle cx="32.927" cy="-39.928" r="0.955"/>
			<circle cx="33.377" cy="-48.203" r="0.955"/>
			<circle cx="33.677" cy="-17.703" r="0.955"/>
			<circle cx="33.677" cy="-33.053" r="0.955"/>
			<circle cx="38.552" cy="-6.453" r="0.955"/>
			<circle cx="38.802" cy="-21.328" r="0.955"/>
			<circle cx="38.802" cy="-36.328" r="0.955"/>
			<circle cx="38.802" cy="-52.499" r="0.955"/>
			<circle cx="4.302" cy="-39.928" r="0.955"/>
			<circle cx="4.427" cy="-10.553" r="0.955"/>
			<circle cx="4.427" cy="-17.703" r="0.955"/>
			<circle cx="4.427" cy="-25.403" r="0.955"/>
			<circle cx="4.927" cy="-33.053" r="0.955"/>
			<circle cx="40.677" cy="-29.328" r="0.955"/>
			<circle cx="40.927" cy="-44.078" r="0.955"/>
			<circle cx="41.052" cy="-14.303" r="0.955"/>
			<circle cx="44.677" cy="-2.578" r="0.955"/>
			<circle cx="46.052" cy="-25.403" r="0.955"/>
			<circle cx="46.177" cy="-39.928" r="0.955"/>
			<circle cx="46.802" cy="-10.553" r="0.955"/>
			<circle cx="46.802" cy="-48.203" r="0.955"/>
			<circle cx="47.052" cy="-33.053" r="0.955"/>
			<circle cx="47.177" cy="-17.703" r="0.955"/>
			<circle cx="5.052" cy="-48.203" r="0.955"/>
			<circle cx="52.052" cy="-6.453" r="0.955"/>
			<circle cx="52.552" cy="-21.328" r="0.955"/>
			<circle cx="52.927" cy="-52.499" r="0.955"/>
			<circle cx="53.177" cy="-36.328" r="0.955"/>
			<line x1="0.064" y1="-0.915" x2="9.079" y2="-0.915"/>
			<line x1="0.064" y1="-19.315" x2="54.188" y2="-19.315"/>
			<line x1="0.064" y1="-23.515" x2="54.188" y2="-23.515"/>
			<line x1="0.064" y1="-4.29" x2="54.188" y2="-4.29"/>
			<line x1="10.352" y1="-8.703" x2="10.314" y2="-8.64"/>
			<line x1="10.352" y1="-8.703" x2="18.526" y2="-8.703"/>
			<line x1="10.352" y1="-8.703" x2="5.526" y2="-8.703"/>
			<line x1="10.751" y1="-16.14" x2="12.689" y2="-19.265"/>
			<line x1="12.556" y1="-27.315" x2="0.064" y2="-27.315"/>
			<line x1="12.556" y1="-27.315" x2="10.314" y2="-23.578"/>
			<line x1="12.564" y1="-27.328" x2="12.556" y2="-27.315"/>
			<line x1="12.665" y1="-12.477" x2="0.064" y2="-12.477"/>
			<line x1="12.665" y1="-12.477" x2="10.352" y2="-8.703"/>
			<line x1="12.665" y1="-12.477" x2="12.689" y2="-12.515"/>
			<line x1="12.784" y1="-42.09" x2="0.064" y2="-42.09"/>
			<line x1="12.784" y1="-42.09" x2="10.376" y2="-38.078"/>
			<line x1="12.784" y1="-42.09" x2="27.596" y2="-42.09"/>
			<line x1="12.814" y1="-42.14" x2="12.784" y2="-42.09"/>
			<line x1="13.104" y1="-34.79" x2="0.064" y2="-34.79"/>
			<line x1="13.104" y1="-34.79" x2="11.126" y2="-31.39"/>
			<line x1="13.104" y1="-34.79" x2="13.126" y2="-34.828"/>
			<line x1="13.522" y1="-50.411" x2="11.001" y2="-46.328"/>
			<line x1="17.393" y1="-50.44" x2="17.4" y2="-50.453"/>
			<line x1="17.4" y1="-50.453" x2="19.685" y2="-54.203"/>
			<line x1="18.526" y1="-8.703" x2="15.934" y2="-4.315"/>
			<line x1="18.563" y1="-8.765" x2="18.526" y2="-8.703"/>
			<line x1="18.688" y1="-42.14" x2="21.188" y2="-46.265"/>
			<line x1="18.813" y1="-12.515" x2="20.938" y2="-16.078"/>
			<line x1="19.372" y1="-38.071" x2="17.376" y2="-34.828"/>
			<line x1="19.372" y1="-38.071" x2="19.376" y2="-38.078"/>
			<line x1="19.372" y1="-38.071" x2="6.685" y2="-38.071"/>
			<line x1="19.501" y1="-23.453" x2="16.938" y2="-19.39"/>
			<line x1="20.126" y1="-0.828" x2="19.674" y2="-0.078"/>
			<line x1="20.986" y1="-31.365" x2="18.563" y2="-27.328"/>
			<line x1="20.986" y1="-31.365" x2="21.001" y2="-31.39"/>
			<line x1="20.986" y1="-31.365" x2="34.673" y2="-31.365"/>
			<line x1="20.986" y1="-31.365" x2="7.548" y2="-31.365"/>
			<line x1="23.391" y1="-0.915" x2="23.376" y2="-0.89"/>
			<line x1="23.391" y1="-0.915" x2="25.438" y2="-4.265"/>
			<line x1="23.391" y1="-0.915" x2="37.079" y2="-0.915"/>
			<line x1="24.852" y1="-8.703" x2="18.526" y2="-8.703"/>
			<line x1="24.852" y1="-8.703" x2="24.813" y2="-8.64"/>
			<line x1="24.852" y1="-8.703" x2="27.166" y2="-12.477"/>
			<line x1="24.852" y1="-8.703" x2="32.526" y2="-8.703"/>
			<line x1="25.188" y1="-38.078" x2="27.596" y2="-42.09"/>
			<line x1="25.813" y1="-16.14" x2="27.751" y2="-19.265"/>
			<line x1="27.166" y1="-12.477" x2="12.665" y2="-12.477"/>
			<line x1="27.166" y1="-12.477" x2="27.188" y2="-12.515"/>
			<line x1="27.556" y1="-27.315" x2="12.556" y2="-27.315"/>
			<line x1="27.556" y1="-27.315" x2="25.313" y2="-23.578"/>
			<line x1="27.563" y1="-27.328" x2="27.556" y2="-27.315"/>
			<line x1="27.596" y1="-42.09" x2="27.626" y2="-42.14"/>
			<line x1="28.104" y1="-34.79" x2="13.104" y2="-34.79"/>
			<line x1="28.104" y1="-34.79" x2="26.126" y2="-31.39"/>
			<line x1="28.126" y1="-34.828" x2="28.104" y2="-34.79"/>
			<line x1="28.413" y1="-50.453" x2="17.4" y2="-50.453"/>
			<line x1="28.413" y1="-50.453" x2="25.876" y2="-46.328"/>
			<line x1="28.413" y1="-50.453" x2="28.438" y2="-50.495"/>
			<line x1="28.413" y1="-50.453" x2="30.837" y2="-50.453"/>
			<line x1="30.837" y1="-50.453" x2="30.83" y2="-50.44"/>
			<line x1="30.837" y1="-50.453" x2="33.122" y2="-54.203"/>
			<line x1="32.501" y1="-12.515" x2="34.626" y2="-16.078"/>
			<line x1="32.526" y1="-8.703" x2="29.934" y2="-4.315"/>
			<line x1="32.563" y1="-8.765" x2="32.526" y2="-8.703"/>
			<line x1="32.685" y1="-38.071" x2="19.372" y2="-38.071"/>
			<line x1="32.685" y1="-38.071" x2="30.688" y2="-34.828"/>
			<line x1="32.685" y1="-38.071" x2="32.688" y2="-38.078"/>
			<line x1="32.685" y1="-38.071" x2="47.31" y2="-38.071"/>
			<line x1="33.126" y1="-23.453" x2="30.563" y2="-19.39"/>
			<line x1="33.563" y1="-0.828" x2="33.112" y2="-0.078"/>
			<line x1="34.673" y1="-31.365" x2="32.251" y2="-27.328"/>
			<line x1="34.673" y1="-31.365" x2="34.688" y2="-31.39"/>
			<line x1="34.673" y1="-31.365" x2="49.611" y2="-31.365"/>
			<line x1="34.846" y1="-46.278" x2="32.313" y2="-42.14"/>
			<line x1="34.846" y1="-46.278" x2="34.876" y2="-46.328"/>
			<line x1="34.846" y1="-46.278" x2="8.033" y2="-46.278"/>
			<line x1="37.079" y1="-0.915" x2="37.063" y2="-0.89"/>
			<line x1="37.079" y1="-0.915" x2="39.126" y2="-4.265"/>
			<line x1="37.079" y1="-0.915" x2="50.454" y2="-0.915"/>
			<line x1="38.852" y1="-8.703" x2="32.526" y2="-8.703"/>
			<line x1="38.852" y1="-8.703" x2="38.813" y2="-8.64"/>
			<line x1="38.852" y1="-8.703" x2="41.166" y2="-12.477"/>
			<line x1="38.852" y1="-8.703" x2="47.126" y2="-8.703"/>
			<line x1="4.65" y1="-50.453" x2="0.064" y2="-50.453"/>
			<line x1="4.65" y1="-50.453" x2="17.4" y2="-50.453"/>
			<line x1="4.65" y1="-50.453" x2="4.643" y2="-50.44"/>
			<line x1="4.65" y1="-50.453" x2="6.935" y2="-54.203"/>
			<line x1="40.063" y1="-16.14" x2="42.001" y2="-19.265"/>
			<line x1="40.931" y1="-27.315" x2="27.556" y2="-27.315"/>
			<line x1="40.931" y1="-27.315" x2="38.688" y2="-23.578"/>
			<line x1="40.931" y1="-27.315" x2="40.938" y2="-27.328"/>
			<line x1="40.931" y1="-27.315" x2="54.118" y2="-27.315"/>
			<line x1="41.034" y1="-42.09" x2="27.596" y2="-42.09"/>
			<line x1="41.034" y1="-42.09" x2="38.626" y2="-38.078"/>
			<line x1="41.034" y1="-42.09" x2="41.063" y2="-42.14"/>
			<line x1="41.166" y1="-12.477" x2="27.166" y2="-12.477"/>
			<line x1="41.166" y1="-12.477" x2="41.188" y2="-12.515"/>
			<line x1="41.166" y1="-12.477" x2="53.746" y2="-12.477"/>
			<line x1="41.917" y1="-34.79" x2="28.104" y2="-34.79"/>
			<line x1="41.917" y1="-34.79" x2="39.938" y2="-31.39"/>
			<line x1="41.917" y1="-34.79" x2="41.938" y2="-34.828"/>
			<line x1="41.917" y1="-34.79" x2="53.975" y2="-34.79"/>
			<line x1="42.08" y1="-50.453" x2="30.837" y2="-50.453"/>
			<line x1="42.08" y1="-50.453" x2="39.563" y2="-46.328"/>
			<line x1="42.08" y1="-50.453" x2="42.105" y2="-50.495"/>
			<line x1="42.08" y1="-50.453" x2="45.212" y2="-50.453"/>
			<line x1="45.212" y1="-50.453" x2="45.205" y2="-50.44"/>
			<line x1="45.212" y1="-50.453" x2="47.497" y2="-54.203"/>
			<line x1="46.251" y1="-42.14" x2="48.905" y2="-46.249"/>
			<line x1="47.126" y1="-8.703" x2="44.497" y2="-4.315"/>
			<line x1="47.31" y1="-38.071" x2="45.313" y2="-34.828"/>
			<line x1="47.31" y1="-38.071" x2="47.313" y2="-38.078"/>
			<line x1="47.31" y1="-38.071" x2="54.188" y2="-38.071"/>
			<line x1="47.376" y1="-12.515" x2="49.501" y2="-16.078"/>
			<line x1="47.438" y1="-23.453" x2="44.876" y2="-19.39"/>
			<line x1="47.938" y1="-0.828" x2="47.487" y2="-0.078"/>
			<line x1="49.611" y1="-31.365" x2="47.188" y2="-27.328"/>
			<line x1="49.611" y1="-31.365" x2="51.775" y2="-31.365"/>
			<line x1="49.626" y1="-31.39" x2="49.611" y2="-31.365"/>
			<line x1="5.526" y1="-8.703" x2="0.064" y2="-8.703"/>
			<line x1="5.526" y1="-8.703" x2="2.934" y2="-4.315"/>
			<line x1="5.563" y1="-12.515" x2="7.688" y2="-16.078"/>
			<line x1="5.563" y1="-8.765" x2="5.526" y2="-8.703"/>
			<line x1="50.454" y1="-0.915" x2="50.438" y2="-0.89"/>
			<line x1="50.454" y1="-0.915" x2="52.501" y2="-4.265"/>
			<line x1="50.454" y1="-0.915" x2="54.188" y2="-0.915"/>
			<line x1="51.292" y1="-8.703" x2="47.126" y2="-8.703"/>
			<line x1="51.292" y1="-8.703" x2="51.251" y2="-8.64"/>
			<line x1="51.292" y1="-8.703" x2="53.746" y2="-12.477"/>
			<line x1="51.292" y1="-8.703" x2="54.188" y2="-8.703"/>
			<line x1="51.355" y1="-46.328" x2="53.968" y2="-50.436"/>
			<line x1="51.751" y1="-31.328" x2="51.775" y2="-31.365"/>
			<line x1="51.775" y1="-31.365" x2="54.188" y2="-31.365"/>
			<line x1="51.876" y1="-23.578" x2="54.118" y2="-27.315"/>
			<line x1="51.884" y1="-16.09" x2="0.064" y2="-16.09"/>
			<line x1="51.884" y1="-16.09" x2="51.876" y2="-16.078"/>
			<line x1="51.884" y1="-16.09" x2="53.926" y2="-19.29"/>
			<line x1="51.884" y1="-16.09" x2="54.188" y2="-16.09"/>
			<line x1="53.746" y1="-12.477" x2="53.759" y2="-12.498"/>
			<line x1="53.746" y1="-12.477" x2="54.188" y2="-12.477"/>
			<line x1="53.846" y1="-42.09" x2="41.034" y2="-42.09"/>
			<line x1="53.846" y1="-42.09" x2="51.422" y2="-38.078"/>
			<line x1="53.846" y1="-42.09" x2="53.876" y2="-42.14"/>
			<line x1="53.846" y1="-42.09" x2="54.188" y2="-42.09"/>
			<line x1="53.975" y1="-34.79" x2="51.775" y2="-31.365"/>
			<line x1="53.975" y1="-34.79" x2="54.188" y2="-34.79"/>
			<line x1="53.988" y1="-34.811" x2="53.975" y2="-34.79"/>
			<line x1="54.118" y1="-27.315" x2="54.188" y2="-27.315"/>
			<line x1="54.126" y1="-27.328" x2="54.118" y2="-27.315"/>
			<line x1="54.188" y1="-12.477" x2="54.251" y2="-12.477"/>
			<line x1="54.188" y1="-46.278" x2="34.846" y2="-46.278"/>
			<line x1="54.188" y1="-50.453" x2="45.212" y2="-50.453"/>
			<line x1="54.251" y1="-19.315" x2="54.188" y2="-19.315"/>
			<line x1="6.501" y1="-23.453" x2="3.938" y2="-19.39"/>
			<line x1="6.685" y1="-38.071" x2="0.064" y2="-38.071"/>
			<line x1="6.685" y1="-38.071" x2="4.688" y2="-34.828"/>
			<line x1="6.685" y1="-38.071" x2="6.688" y2="-38.078"/>
			<line x1="7.376" y1="-0.828" x2="6.924" y2="-0.078"/>
			<line x1="7.548" y1="-31.365" x2="0.064" y2="-31.365"/>
			<line x1="7.548" y1="-31.365" x2="5.126" y2="-27.328"/>
			<line x1="7.548" y1="-31.365" x2="7.563" y2="-31.39"/>
			<line x1="8.033" y1="-46.278" x2="0.064" y2="-46.278"/>
			<line x1="8.033" y1="-46.278" x2="5.501" y2="-42.14"/>
			<line x1="8.033" y1="-46.278" x2="8.064" y2="-46.328"/>
			<line x1="9.079" y1="-0.915" x2="11.126" y2="-4.265"/>
			<line x1="9.079" y1="-0.915" x2="23.391" y2="-0.915"/>
			<line x1="9.079" y1="-0.915" x2="9.064" y2="-0.89"/>
			<path d="M0.064-13.377c0.413-0.105,0.718-0.479,0.718-0.925    s-0.305-0.82-0.718-0.925"/>
			<path d="M0.064-28.41c0.4-0.114,0.693-0.482,0.693-0.918    c0-0.436-0.293-0.805-0.693-0.918"/>
			<path d="M0.064-43.13c0.038,0.004,0.075,0.007,0.114,0.007    c0.527,0,0.955-0.428,0.955-0.955c0-0.527-0.427-0.955-0.955-0.955c-0.039,0-0.076,0.002-0.114,0.007"/>
			<path d="M54.188-15.229c-0.074-0.019-0.152-0.029-0.232-0.029    c-0.527,0-0.955,0.427-0.955,0.955s0.427,0.955,0.955,0.955c0.08,0,0.158-0.01,0.232-0.029"/>
			<path d="M54.188-30.247c-0.082-0.023-0.168-0.036-0.258-0.036    c-0.527,0-0.955,0.427-0.955,0.955c0,0.527,0.428,0.955,0.955,0.955c0.089,0,0.176-0.013,0.258-0.036"/>
			<path d="M54.188-45.025c-0.472,0.058-0.837,0.459-0.837,0.947    c0,0.487,0.366,0.889,0.837,0.947"/>
		</g>
	</g>
</svg>
