<?xml version="1.0" encoding="utf-8"?>
<svg xmlns="http://www.w3.org/2000/svg" version="1.1" x="0px" y="0px" xml:space="preserve" width="54.125" height="54.125" viewBox="0 -54.203 54.125 54.125">
	<metadata id="metadata2">
	<rdf:RDF
		xmlns:dc="http://purl.org/dc/elements/1.1/"
		xmlns:cc="http://creativecommons.org/ns#"
		xmlns:rdf="http://www.w3.org/1999/02/22-rdf-syntax-ns#"
		xmlns="http://my.netscape.com/rdf/simple/0.9/">
		<item rdf:ID="biblio1">
			<link>rdf:resource="http://pubs.usgs.gov/tm/2006/11A02/</link>
			<title>U.S. Geological Survey, 2006, FGDC Digital Cartographic Standard for Geologic Map Symbolization (PostScript Implementation): U.S. Geological Survey Techniques and Methods 11-A2</title>
		</item>
		<item rdf:ID="biblio2">
			<link>https://davenquinn.com/projects/geologic-patterns/</link>
			<title>FGDC Geologic Patterns for the Web</title>
		</item>
		<rdf:Description>
			<dc:description>Converted from 'FGDC Geologic Patterns for the Web' to QGIS compatible svg symbols, with customisable fill colour/stroke colour/stroke width (when appropriate)</dc:description>
			<dc:date>01 MARCH 2019</dc:date>
			<dc:creator>GeoProc.com</dc:creator>
			<dc:publisher rdf:resource="https://github.com/BC-Consulting/QGIS-FGDC-Fill" />
		</rdf:Description>
		<cc:Work rdf:about="">
			<dc:format>image/svg+xml</dc:format>
			<dc:type rdf:resource="http://purl.org/dc/dcmitype/StillImage" />
			<dc:title>FGDC fill symbol: Lithology - Sedimentary - 647 Argillaceous Or Shaly Dolostone Or Dolomite</dc:title>
		</cc:Work>
	</rdf:RDF>
	</metadata>
	<g>
		<rect y="-54.203" style="fill:none;stroke:none;" width="54.125" height="54.125"/>
        <g style="fill:none;" stroke="param(outline) #000" stroke-width="param(outline-width) 0.8">
			<line x1="17.337" y1="-50.453" x2="4.587" y2="-50.453"/>
			<line x1="42.017" y1="-50.453" x2="45.149" y2="-50.453"/>
			<line x1="54.125" y1="-50.453" x2="45.149" y2="-50.453"/>
			<line x1="4.587" y1="-50.453" x2="0" y2="-50.453"/>
			<line x1="42.017" y1="-50.453" x2="30.774" y2="-50.453"/>
			<line x1="17.337" y1="-50.453" x2="28.35" y2="-50.453"/>
			<line x1="30.774" y1="-50.453" x2="28.35" y2="-50.453"/>
			<line x1="34.782" y1="-46.278" x2="7.97" y2="-46.278"/>
			<line x1="54.125" y1="-46.278" x2="34.782" y2="-46.278"/>
			<line x1="7.97" y1="-46.278" x2="0" y2="-46.278"/>
			<line x1="53.782" y1="-42.09" x2="54.125" y2="-42.09"/>
			<line x1="27.532" y1="-42.09" x2="12.72" y2="-42.09"/>
			<line x1="40.97" y1="-42.09" x2="53.782" y2="-42.09"/>
			<line x1="12.72" y1="-42.09" x2="0" y2="-42.09"/>
			<line x1="27.532" y1="-42.09" x2="40.97" y2="-42.09"/>
			<line x1="41.102" y1="-12.477" x2="27.102" y2="-12.477"/>
			<line x1="41.102" y1="-12.477" x2="53.683" y2="-12.477"/>
			<line x1="53.683" y1="-12.477" x2="54.125" y2="-12.477"/>
			<line x1="54.125" y1="-12.477" x2="54.188" y2="-12.477"/>
			<line x1="12.602" y1="-12.477" x2="27.102" y2="-12.477"/>
			<line x1="12.602" y1="-12.477" x2="0" y2="-12.477"/>
			<line x1="18.463" y1="-8.703" x2="24.788" y2="-8.703"/>
			<line x1="38.788" y1="-8.703" x2="47.062" y2="-8.703"/>
			<line x1="10.288" y1="-8.703" x2="5.463" y2="-8.703"/>
			<line x1="38.788" y1="-8.703" x2="32.463" y2="-8.703"/>
			<line x1="24.788" y1="-8.703" x2="32.463" y2="-8.703"/>
			<line x1="5.463" y1="-8.703" x2="0" y2="-8.703"/>
			<line x1="10.288" y1="-8.703" x2="18.463" y2="-8.703"/>
			<line x1="51.229" y1="-8.703" x2="54.125" y2="-8.703"/>
			<line x1="51.229" y1="-8.703" x2="47.062" y2="-8.703"/>
			<line x1="32.621" y1="-38.071" x2="19.309" y2="-38.071"/>
			<line x1="54.125" y1="-38.071" x2="47.246" y2="-38.071"/>
			<line x1="6.621" y1="-38.071" x2="19.309" y2="-38.071"/>
			<line x1="32.621" y1="-38.071" x2="47.246" y2="-38.071"/>
			<line x1="6.621" y1="-38.071" x2="0" y2="-38.071"/>
			<line x1="54.125" y1="-34.79" x2="53.912" y2="-34.79"/>
			<line x1="28.041" y1="-34.79" x2="41.854" y2="-34.79"/>
			<line x1="13.041" y1="-34.79" x2="0" y2="-34.79"/>
			<line x1="41.854" y1="-34.79" x2="53.912" y2="-34.79"/>
			<line x1="28.041" y1="-34.79" x2="13.041" y2="-34.79"/>
			<line x1="34.61" y1="-31.365" x2="49.548" y2="-31.365"/>
			<line x1="7.485" y1="-31.365" x2="20.923" y2="-31.365"/>
			<line x1="49.548" y1="-31.365" x2="51.712" y2="-31.365"/>
			<line x1="34.61" y1="-31.365" x2="20.923" y2="-31.365"/>
			<line x1="7.485" y1="-31.365" x2="0" y2="-31.365"/>
			<line x1="51.712" y1="-31.365" x2="54.125" y2="-31.365"/>
			<line x1="27.492" y1="-27.315" x2="12.492" y2="-27.315"/>
			<line x1="40.867" y1="-27.315" x2="27.492" y2="-27.315"/>
			<line x1="54.055" y1="-27.315" x2="54.125" y2="-27.315"/>
			<line x1="54.055" y1="-27.315" x2="40.867" y2="-27.315"/>
			<line x1="12.492" y1="-27.315" x2="0" y2="-27.315"/>
			<line x1="54.125" y1="-23.515" x2="0" y2="-23.515"/>
			<line x1="54.188" y1="-19.315" x2="54.125" y2="-19.315"/>
			<line x1="0" y1="-19.315" x2="54.125" y2="-19.315"/>
			<line x1="51.82" y1="-16.09" x2="54.125" y2="-16.09"/>
			<line x1="0" y1="-16.09" x2="51.82" y2="-16.09"/>
			<line x1="37.016" y1="-0.915" x2="50.391" y2="-0.915"/>
			<line x1="9.016" y1="-0.915" x2="23.328" y2="-0.915"/>
			<line x1="0" y1="-0.915" x2="9.016" y2="-0.915"/>
			<line x1="23.328" y1="-0.915" x2="37.016" y2="-0.915"/>
			<line x1="50.391" y1="-0.915" x2="54.125" y2="-0.915"/>
			<line x1="0" y1="-4.29" x2="54.125" y2="-4.29"/>
			<line x1="5.5" y1="-8.765" x2="5.463" y2="-8.703"/>
			<line x1="5.463" y1="-8.703" x2="2.871" y2="-4.315"/>
			<line x1="18.463" y1="-8.703" x2="15.871" y2="-4.315"/>
			<line x1="18.5" y1="-8.765" x2="18.463" y2="-8.703"/>
			<line x1="32.5" y1="-8.765" x2="32.463" y2="-8.703"/>
			<line x1="29.871" y1="-4.315" x2="32.463" y2="-8.703"/>
			<line x1="47.062" y1="-8.703" x2="44.434" y2="-4.315"/>
			<line x1="50.391" y1="-0.915" x2="50.375" y2="-0.89"/>
			<line x1="50.391" y1="-0.915" x2="52.438" y2="-4.265"/>
			<line x1="37.016" y1="-0.915" x2="37" y2="-0.89"/>
			<line x1="37.016" y1="-0.915" x2="39.062" y2="-4.265"/>
			<line x1="23.328" y1="-0.915" x2="23.312" y2="-0.89"/>
			<line x1="23.328" y1="-0.915" x2="25.375" y2="-4.265"/>
			<line x1="9.016" y1="-0.915" x2="11.062" y2="-4.265"/>
			<line x1="9.016" y1="-0.915" x2="9" y2="-0.89"/>
			<line x1="51.229" y1="-8.703" x2="51.188" y2="-8.64"/>
			<line x1="53.683" y1="-12.477" x2="53.696" y2="-12.498"/>
			<line x1="51.229" y1="-8.703" x2="53.683" y2="-12.477"/>
			<line x1="47.312" y1="-12.515" x2="49.438" y2="-16.078"/>
			<line x1="47.375" y1="-23.453" x2="44.812" y2="-19.39"/>
			<line x1="51.812" y1="-16.078" x2="51.82" y2="-16.09"/>
			<line x1="53.863" y1="-19.29" x2="51.82" y2="-16.09"/>
			<line x1="54.055" y1="-27.315" x2="51.812" y2="-23.578"/>
			<line x1="54.055" y1="-27.315" x2="54.062" y2="-27.328"/>
			<line x1="49.548" y1="-31.365" x2="49.562" y2="-31.39"/>
			<line x1="49.548" y1="-31.365" x2="47.125" y2="-27.328"/>
			<line x1="53.912" y1="-34.79" x2="51.712" y2="-31.365"/>
			<line x1="51.688" y1="-31.328" x2="51.712" y2="-31.365"/>
			<line x1="53.912" y1="-34.79" x2="53.926" y2="-34.811"/>
			<line x1="47.25" y1="-38.078" x2="47.246" y2="-38.071"/>
			<line x1="45.25" y1="-34.828" x2="47.246" y2="-38.071"/>
			<line x1="53.782" y1="-42.09" x2="53.812" y2="-42.14"/>
			<line x1="53.782" y1="-42.09" x2="51.359" y2="-38.078"/>
			<line x1="46.188" y1="-42.14" x2="48.842" y2="-46.249"/>
			<line x1="51.292" y1="-46.328" x2="53.904" y2="-50.436"/>
			<line x1="45.149" y1="-50.453" x2="47.434" y2="-54.203"/>
			<line x1="45.149" y1="-50.453" x2="45.142" y2="-50.44"/>
			<line x1="41.102" y1="-12.477" x2="41.125" y2="-12.515"/>
			<line x1="38.788" y1="-8.703" x2="38.75" y2="-8.64"/>
			<line x1="41.102" y1="-12.477" x2="38.788" y2="-8.703"/>
			<line x1="27.102" y1="-12.477" x2="24.788" y2="-8.703"/>
			<line x1="24.75" y1="-8.64" x2="24.788" y2="-8.703"/>
			<line x1="27.125" y1="-12.515" x2="27.102" y2="-12.477"/>
			<line x1="12.602" y1="-12.477" x2="10.288" y2="-8.703"/>
			<line x1="10.288" y1="-8.703" x2="10.25" y2="-8.64"/>
			<line x1="12.602" y1="-12.477" x2="12.625" y2="-12.515"/>
			<line x1="32.438" y1="-12.515" x2="34.562" y2="-16.078"/>
			<line x1="18.75" y1="-12.515" x2="20.875" y2="-16.078"/>
			<line x1="5.5" y1="-12.515" x2="7.625" y2="-16.078"/>
			<line x1="41.938" y1="-19.265" x2="40" y2="-16.14"/>
			<line x1="27.688" y1="-19.265" x2="25.75" y2="-16.14"/>
			<line x1="12.625" y1="-19.265" x2="10.688" y2="-16.14"/>
			<line x1="33.062" y1="-23.453" x2="30.5" y2="-19.39"/>
			<line x1="19.438" y1="-23.453" x2="16.875" y2="-19.39"/>
			<line x1="6.438" y1="-23.453" x2="3.875" y2="-19.39"/>
			<line x1="40.867" y1="-27.315" x2="38.625" y2="-23.578"/>
			<line x1="40.875" y1="-27.328" x2="40.867" y2="-27.315"/>
			<line x1="27.492" y1="-27.315" x2="25.25" y2="-23.578"/>
			<line x1="27.5" y1="-27.328" x2="27.492" y2="-27.315"/>
			<line x1="12.492" y1="-27.315" x2="10.25" y2="-23.578"/>
			<line x1="12.492" y1="-27.315" x2="12.5" y2="-27.328"/>
			<line x1="34.61" y1="-31.365" x2="32.188" y2="-27.328"/>
			<line x1="34.61" y1="-31.365" x2="34.625" y2="-31.39"/>
			<line x1="18.5" y1="-27.328" x2="20.923" y2="-31.365"/>
			<line x1="20.938" y1="-31.39" x2="20.923" y2="-31.365"/>
			<line x1="7.485" y1="-31.365" x2="5.062" y2="-27.328"/>
			<line x1="7.485" y1="-31.365" x2="7.5" y2="-31.39"/>
			<line x1="41.854" y1="-34.79" x2="41.875" y2="-34.828"/>
			<line x1="41.854" y1="-34.79" x2="39.875" y2="-31.39"/>
			<line x1="28.041" y1="-34.79" x2="26.062" y2="-31.39"/>
			<line x1="28.041" y1="-34.79" x2="28.062" y2="-34.828"/>
			<line x1="13.041" y1="-34.79" x2="13.062" y2="-34.828"/>
			<line x1="13.041" y1="-34.79" x2="11.062" y2="-31.39"/>
			<line x1="32.621" y1="-38.071" x2="30.625" y2="-34.828"/>
			<line x1="32.621" y1="-38.071" x2="32.625" y2="-38.078"/>
			<line x1="19.312" y1="-38.078" x2="19.309" y2="-38.071"/>
			<line x1="17.312" y1="-34.828" x2="19.309" y2="-38.071"/>
			<line x1="6.621" y1="-38.071" x2="6.625" y2="-38.078"/>
			<line x1="6.621" y1="-38.071" x2="4.625" y2="-34.828"/>
			<line x1="40.97" y1="-42.09" x2="41" y2="-42.14"/>
			<line x1="38.562" y1="-38.078" x2="40.97" y2="-42.09"/>
			<line x1="27.532" y1="-42.09" x2="25.125" y2="-38.078"/>
			<line x1="27.532" y1="-42.09" x2="27.562" y2="-42.14"/>
			<line x1="12.72" y1="-42.09" x2="12.75" y2="-42.14"/>
			<line x1="12.72" y1="-42.09" x2="10.312" y2="-38.078"/>
			<line x1="34.782" y1="-46.278" x2="34.812" y2="-46.328"/>
			<line x1="34.782" y1="-46.278" x2="32.25" y2="-42.14"/>
			<line x1="18.625" y1="-42.14" x2="21.125" y2="-46.265"/>
			<line x1="7.97" y1="-46.278" x2="5.438" y2="-42.14"/>
			<line x1="7.97" y1="-46.278" x2="8" y2="-46.328"/>
			<line x1="42.017" y1="-50.453" x2="39.5" y2="-46.328"/>
			<line x1="42.017" y1="-50.453" x2="42.042" y2="-50.495"/>
			<line x1="25.812" y1="-46.328" x2="28.35" y2="-50.453"/>
			<line x1="28.375" y1="-50.495" x2="28.35" y2="-50.453"/>
			<line x1="13.459" y1="-50.411" x2="10.938" y2="-46.328"/>
			<line x1="30.774" y1="-50.453" x2="33.059" y2="-54.203"/>
			<line x1="30.767" y1="-50.44" x2="30.774" y2="-50.453"/>
			<line x1="17.337" y1="-50.453" x2="17.329" y2="-50.44"/>
			<line x1="17.337" y1="-50.453" x2="19.621" y2="-54.203"/>
			<line x1="4.579" y1="-50.44" x2="4.587" y2="-50.453"/>
			<line x1="4.587" y1="-50.453" x2="6.871" y2="-54.203"/>
			<line x1="47.875" y1="-0.828" x2="47.423" y2="-0.078"/>
			<line x1="33.5" y1="-0.828" x2="33.048" y2="-0.078"/>
			<line x1="20.062" y1="-0.828" x2="19.61" y2="-0.078"/>
			<line x1="7.312" y1="-0.828" x2="6.86" y2="-0.078"/>
			<line x1="8.122" y1="-52.27" x2="15.372" y2="-52.27"/>
			<line x1="35.247" y1="-52.27" x2="42.497" y2="-52.27"/>
			<line x1="22.672" y1="-48.257" x2="15.422" y2="-48.257"/>
			<line x1="50.422" y1="-48.257" x2="43.172" y2="-48.257"/>
			<line x1="22.812" y1="-44.194" x2="30.062" y2="-44.194"/>
			<line x1="3.398" y1="-44.194" x2="0" y2="-44.194"/>
			<line x1="36.497" y1="-39.944" x2="29.247" y2="-39.944"/>
			<line x1="0.872" y1="-39.944" x2="8.122" y2="-39.944"/>
			<line x1="42.197" y1="-36.444" x2="34.947" y2="-36.444"/>
			<line x1="51.247" y1="-33.069" x2="43.997" y2="-33.069"/>
			<line x1="51.196" y1="-29.194" x2="54.125" y2="-29.194"/>
			<line x1="49.647" y1="-25.444" x2="42.397" y2="-25.444"/>
			<line x1="42.405" y1="-21.444" x2="35.155" y2="-21.444"/>
			<line x1="37.331" y1="-17.694" x2="30.081" y2="-17.694"/>
			<line x1="22.822" y1="-14.194" x2="30.072" y2="-14.194"/>
			<line x1="14.917" y1="-10.569" x2="22.167" y2="-10.569"/>
			<line x1="13.969" y1="-6.194" x2="6.719" y2="-6.194"/>
			<line x1="7.265" y1="-2.52" x2="0.015" y2="-2.52"/>
			<line x1="8.072" y1="-36.332" x2="15.322" y2="-36.332"/>
			<line x1="23.224" y1="-33.082" x2="15.974" y2="-33.082"/>
			<line x1="22.912" y1="-29.332" x2="30.162" y2="-29.332"/>
			<line x1="22.272" y1="-25.332" x2="15.023" y2="-25.332"/>
			<line x1="15.144" y1="-21.332" x2="7.894" y2="-21.332"/>
			<line x1="8.547" y1="-17.582" x2="1.297" y2="-17.582"/>
			<line x1="3.072" y1="-14.082" x2="0" y2="-14.082"/>
			<line x1="42.997" y1="-10.457" x2="50.247" y2="-10.457"/>
			<line x1="41.969" y1="-6.332" x2="34.719" y2="-6.332"/>
			<line x1="34.447" y1="-2.582" x2="27.197" y2="-2.582"/>
			<line x1="50.222" y1="-44.194" x2="54.125" y2="-44.194"/>
			<line x1="50.522" y1="-14.082" x2="54.125" y2="-14.082"/>
			<line x1="2.52" y1="-29.194" x2="0" y2="-29.194"/>
			<line x1="53.723" y1="-2.52" x2="54.125" y2="-2.52"/>
		</g>
	</g>
</svg>
