<?xml version="1.0" encoding="utf-8"?>
<svg xmlns="http://www.w3.org/2000/svg" version="1.1" x="0px" y="0px" xml:space="preserve" width="54.125" height="54.125" viewBox="0 -54.125 54.125 54.125">
	<metadata id="metadata2">
	<rdf:RDF
		xmlns:dc="http://purl.org/dc/elements/1.1/"
		xmlns:cc="http://creativecommons.org/ns#"
		xmlns:rdf="http://www.w3.org/1999/02/22-rdf-syntax-ns#"
		xmlns="http://my.netscape.com/rdf/simple/0.9/">
		<item rdf:ID="biblio1">
			<link>rdf:resource="http://pubs.usgs.gov/tm/2006/11A02/</link>
			<title>U.S. Geological Survey, 2006, FGDC Digital Cartographic Standard for Geologic Map Symbolization (PostScript Implementation): U.S. Geological Survey Techniques and Methods 11-A2</title>
		</item>
		<item rdf:ID="biblio2">
			<link>https://davenquinn.com/projects/geologic-patterns/</link>
			<title>FGDC Geologic Patterns for the Web</title>
		</item>
		<rdf:Description>
			<dc:description>Converted from 'FGDC Geologic Patterns for the Web' to QGIS compatible svg symbols, with customisable fill colour/stroke colour/stroke width (when appropriate)</dc:description>
			<dc:date>01 MARCH 2019</dc:date>
			<dc:creator>GeoProc.com</dc:creator>
			<dc:publisher rdf:resource="https://github.com/BC-Consulting/QGIS-FGDC-Fill" />
		</rdf:Description>
		<cc:Work rdf:about="">
			<dc:format>image/svg+xml</dc:format>
			<dc:type rdf:resource="http://purl.org/dc/dcmitype/StillImage" />
			<dc:title>FGDC fill symbol: Lithology - Sedimentary - 660 Underclay</dc:title>
		</cc:Work>
	</rdf:RDF>
	</metadata>
	<g>
		<rect y="-54.125" style="fill:none;stroke:none;" width="54.125" height="54.125"/>
        <g style="fill:none;" stroke="param(outline) #000" stroke-width="param(outline-width) 0.8">
			<line x1="0" y1="-13.394" x2="54.125" y2="-13.394"/>
			<line x1="0" y1="-27.519" x2="54.125" y2="-27.519"/>
			<line x1="0" y1="-37.894" x2="54.125" y2="-37.894"/>
			<path d="M1.333-1.584c0,0-0.125-1.375,0.125-2.5s0.125-1.25-0.125-2    s-0.25-1,0-1.625s0.125-0.875,0-1.625s0-1,0.75-2.5H0.208"/>
			<path d="M5.521-1.584c0,0-0.125-1.375,0.125-2.5s0.125-1.25-0.125-2    s-0.25-1,0-1.625s0.125-0.875,0-1.625s0-1,0.75-2.5H4.396"/>
			<path d="M9.646-1.584c0,0-0.125-1.375,0.125-2.5s0.125-1.25-0.125-2    s-0.25-1,0-1.625s0.125-0.875,0-1.625s0-1,0.75-2.5H8.521"/>
			<path d="M13.833-1.584c0,0-0.125-1.375,0.125-2.5s0.125-1.25-0.125-2    s-0.25-1,0-1.625s0.125-0.875,0-1.625s0-1,0.75-2.5h-1.875"/>
			<path d="M17.958-1.584c0,0-0.125-1.375,0.125-2.5s0.125-1.25-0.125-2    s-0.25-1,0-1.625s0.125-0.875,0-1.625s0-1,0.75-2.5h-1.875"/>
			<path d="M22.146-1.584c0,0-0.125-1.375,0.125-2.5s0.125-1.25-0.125-2    s-0.25-1,0-1.625s0.125-0.875,0-1.625s0-1,0.75-2.5h-1.875"/>
			<path d="M26.333-1.584c0,0-0.125-1.375,0.125-2.5s0.125-1.25-0.125-2    s-0.25-1,0-1.625s0.125-0.875,0-1.625s0-1,0.75-2.5h-1.875"/>
			<path d="M30.458-1.584c0,0-0.125-1.375,0.125-2.5s0.125-1.25-0.125-2    s-0.25-1,0-1.625s0.125-0.875,0-1.625s0-1,0.75-2.5h-1.875"/>
			<path d="M34.646-1.584c0,0-0.125-1.375,0.125-2.5s0.125-1.25-0.125-2    s-0.25-1,0-1.625s0.125-0.875,0-1.625s0-1,0.75-2.5h-1.875"/>
			<path d="M38.771-1.584c0,0-0.125-1.375,0.125-2.5s0.125-1.25-0.125-2    s-0.25-1,0-1.625s0.125-0.875,0-1.625s0-1,0.75-2.5h-1.875"/>
			<path d="M42.958-1.584c0,0-0.125-1.375,0.125-2.5s0.125-1.25-0.125-2    s-0.25-1,0-1.625s0.125-0.875,0-1.625s0-1,0.75-2.5h-1.875"/>
			<path d="M47.021-1.584c0,0-0.125-1.375,0.125-2.5s0.125-1.25-0.125-2    s-0.25-1,0-1.625s0.125-0.875,0-1.625s0-1,0.75-2.5h-1.875"/>
			<path d="M51.208-1.584c0,0-0.125-1.375,0.125-2.5s0.125-1.25-0.125-2    s-0.25-1,0-1.625s0.125-0.875,0-1.625s0-1,0.75-2.5h-1.875"/>
			<path d="M1.208-19.458c0.125-0.5,0.125-1.125-0.125-1.75    s-0.25-1.125,0.125-1.875s0.25-0.75,0.125-1.5s-0.125-0.5,0.375-1.477H0.083"/>
			<path d="M4.583-19.458c0.125-0.5,0.125-1.125-0.125-1.75    s-0.25-1.125,0.125-1.875s0.25-0.75,0.125-1.5s-0.125-0.5,0.375-1.477H3.458"/>
			<path d="M7.958-19.458c0.125-0.5,0.125-1.125-0.125-1.75    s-0.25-1.125,0.125-1.875s0.25-0.75,0.125-1.5s-0.125-0.5,0.375-1.477H6.833"/>
			<path d="M11.396-19.458c0.125-0.5,0.125-1.125-0.125-1.75    s-0.25-1.125,0.125-1.875s0.25-0.75,0.125-1.5s-0.125-0.5,0.375-1.477h-1.625"/>
			<path d="M14.771-19.458c0.125-0.5,0.125-1.125-0.125-1.75    s-0.25-1.125,0.125-1.875s0.25-0.75,0.125-1.5s-0.125-0.5,0.375-1.477h-1.625"/>
			<path d="M18.146-19.458c0.125-0.5,0.125-1.125-0.125-1.75    s-0.25-1.125,0.125-1.875s0.25-0.75,0.125-1.5s-0.125-0.5,0.375-1.477h-1.625"/>
			<path d="M21.583-19.458c0.125-0.5,0.125-1.125-0.125-1.75    s-0.25-1.125,0.125-1.875s0.25-0.75,0.125-1.5s-0.125-0.5,0.375-1.477h-1.625"/>
			<path d="M24.958-19.458c0.125-0.5,0.125-1.125-0.125-1.75    s-0.25-1.125,0.125-1.875s0.25-0.75,0.125-1.5s-0.125-0.5,0.375-1.477h-1.625"/>
			<path d="M28.271-19.458c0.125-0.5,0.125-1.125-0.125-1.75    s-0.25-1.125,0.125-1.875s0.25-0.75,0.125-1.5s-0.125-0.5,0.375-1.477h-1.625"/>
			<path d="M31.708-19.458c0.125-0.5,0.125-1.125-0.125-1.75    s-0.25-1.125,0.125-1.875s0.25-0.75,0.125-1.5s-0.125-0.5,0.375-1.477h-1.625"/>
			<path d="M35.083-19.458c0.125-0.5,0.125-1.125-0.125-1.75    s-0.25-1.125,0.125-1.875s0.25-0.75,0.125-1.5s-0.125-0.5,0.375-1.477h-1.625"/>
			<path d="M38.458-19.458c0.125-0.5,0.125-1.125-0.125-1.75    s-0.25-1.125,0.125-1.875s0.25-0.75,0.125-1.5s-0.125-0.5,0.375-1.477h-1.625"/>
			<path d="M41.833-19.458c0.125-0.5,0.125-1.125-0.125-1.75    s-0.25-1.125,0.125-1.875s0.25-0.75,0.125-1.5s-0.125-0.5,0.375-1.477h-1.625"/>
			<path d="M45.208-19.458c0.125-0.5,0.125-1.125-0.125-1.75    s-0.25-1.125,0.125-1.875s0.25-0.75,0.125-1.5s-0.125-0.5,0.375-1.477h-1.625"/>
			<path d="M48.646-19.458c0.125-0.5,0.125-1.125-0.125-1.75    s-0.25-1.125,0.125-1.875s0.25-0.75,0.125-1.5s-0.125-0.5,0.375-1.477h-1.625"/>
			<path d="M51.958-19.458c0.125-0.5,0.125-1.125-0.125-1.75    s-0.25-1.125,0.125-1.875s0.25-0.75,0.125-1.5s-0.125-0.5,0.375-1.477h-1.625"/>
			<line x1="0" y1="-50.894" x2="54.125" y2="-50.894"/>
			<path d="M1.208-42.833c0.125-0.5,0.579-1.125,0.329-1.75    s-0.704-1.125-0.329-1.875s0.137-0.75,0.012-1.5s-0.012-0.5,0.488-1.477H0.083"/>
			<path d="M4.583-42.833c0.125-0.5,0.579-1.125,0.329-1.75    s-0.704-1.125-0.329-1.875s0.137-0.75,0.012-1.5s-0.012-0.5,0.488-1.477H3.458"/>
			<path d="M7.958-42.833c0.125-0.5,0.579-1.125,0.329-1.75    s-0.704-1.125-0.329-1.875s0.137-0.75,0.012-1.5s-0.012-0.5,0.488-1.477H6.833"/>
			<path d="M11.396-42.833c0.125-0.5,0.579-1.125,0.329-1.75    s-0.704-1.125-0.329-1.875s0.137-0.75,0.012-1.5s-0.012-0.5,0.488-1.477h-1.625"/>
			<path d="M14.771-42.833c0.125-0.5,0.579-1.125,0.329-1.75    s-0.704-1.125-0.329-1.875s0.137-0.75,0.012-1.5s-0.012-0.5,0.488-1.477h-1.625"/>
			<path d="M18.146-42.833c0.125-0.5,0.579-1.125,0.329-1.75    s-0.704-1.125-0.329-1.875s0.137-0.75,0.012-1.5s-0.012-0.5,0.488-1.477h-1.625"/>
			<path d="M21.583-42.833c0.125-0.5,0.579-1.125,0.329-1.75    s-0.704-1.125-0.329-1.875s0.137-0.75,0.012-1.5s-0.012-0.5,0.488-1.477h-1.625"/>
			<path d="M24.958-42.833c0.125-0.5,0.579-1.125,0.329-1.75    s-0.704-1.125-0.329-1.875s0.137-0.75,0.012-1.5s-0.012-0.5,0.488-1.477h-1.625"/>
			<path d="M28.271-42.833c0.125-0.5,0.579-1.125,0.329-1.75    s-0.704-1.125-0.329-1.875s0.137-0.75,0.012-1.5s-0.012-0.5,0.488-1.477h-1.625"/>
			<path d="M31.708-42.833c0.125-0.5,0.579-1.125,0.329-1.75    c-0.25-0.625-0.704-1.125-0.329-1.875s0.137-0.75,0.012-1.5s-0.012-0.5,0.488-1.477h-1.625"/>
			<path d="M35.083-42.833c0.125-0.5,0.579-1.125,0.329-1.75    s-0.704-1.125-0.329-1.875s0.137-0.75,0.012-1.5s-0.012-0.5,0.488-1.477h-1.625"/>
			<path d="M38.458-42.833c0.125-0.5,0.579-1.125,0.329-1.75    s-0.704-1.125-0.329-1.875s0.137-0.75,0.012-1.5s-0.012-0.5,0.488-1.477h-1.625"/>
			<path d="M41.833-42.833c0.125-0.5,0.579-1.125,0.329-1.75    s-0.704-1.125-0.329-1.875s0.137-0.75,0.012-1.5s-0.012-0.5,0.488-1.477h-1.625"/>
			<path d="M45.208-42.833c0.125-0.5,0.579-1.125,0.329-1.75    s-0.704-1.125-0.329-1.875s0.137-0.75,0.012-1.5s-0.012-0.5,0.488-1.477h-1.625"/>
			<path d="M48.646-42.833c0.125-0.5,0.579-1.125,0.329-1.75    s-0.704-1.125-0.329-1.875s0.137-0.75,0.012-1.5s-0.012-0.5,0.488-1.477h-1.625"/>
			<path d="M51.958-42.833c0.125-0.5,0.579-1.125,0.329-1.75    s-0.704-1.125-0.329-1.875s0.137-0.75,0.012-1.5s-0.012-0.5,0.488-1.477h-1.625"/>
			<path d="M0.958-33.917c0-0.375,0-0.875,0.125-1.5s0-0.5,0.375-1.375h-1.25"/>
			<path d="M3.77-33.917c0-0.375,0-0.875,0.125-1.5    c0.125-0.625,0-0.5,0.375-1.375H3.02"/>
			<path d="M6.646-33.917c0-0.375,0-0.875,0.125-1.5s0-0.5,0.375-1.375h-1.25"/>
			<path d="M9.458-33.917c0-0.375,0-0.875,0.125-1.5s0-0.5,0.375-1.375h-1.25"/>
			<path d="M12.396-33.917c0-0.375,0-0.875,0.125-1.5s0-0.5,0.375-1.375h-1.25"/>
			<path d="M15.208-33.917c0-0.375,0-0.875,0.125-1.5s0-0.5,0.375-1.375h-1.25"/>
			<path d="M18.083-33.917c0-0.375,0-0.875,0.125-1.5s0-0.5,0.375-1.375h-1.25"/>
			<path d="M20.896-33.917c0-0.375,0-0.875,0.125-1.5s0-0.5,0.375-1.375h-1.25"/>
			<path d="M23.771-33.917c0-0.375,0-0.875,0.125-1.5s0-0.5,0.375-1.375h-1.25"/>
			<path d="M26.583-33.917c0-0.375,0-0.875,0.125-1.5s0-0.5,0.375-1.375h-1.25"/>
			<path d="M29.458-33.917c0-0.375,0-0.875,0.125-1.5s0-0.5,0.375-1.375h-1.25"/>
			<path d="M32.271-33.917c0-0.375,0-0.875,0.125-1.5s0-0.5,0.375-1.375h-1.25"/>
			<path d="M35.146-33.917c0-0.375,0-0.875,0.125-1.5s0-0.5,0.375-1.375h-1.25"/>
			<path d="M38.021-33.917c0-0.375,0-0.875,0.125-1.5s0-0.5,0.375-1.375h-1.25"/>
			<path d="M40.833-33.917c0-0.375,0-0.875,0.125-1.5s0-0.5,0.375-1.375h-1.25"/>
			<path d="M43.708-33.917c0-0.375,0-0.875,0.125-1.5s0-0.5,0.375-1.375h-1.25"/>
			<path d="M46.521-33.917c0-0.375,0-0.875,0.125-1.5s0-0.5,0.375-1.375h-1.25"/>
			<path d="M49.396-33.917c0-0.375,0-0.875,0.125-1.5s0-0.5,0.375-1.375h-1.25"/>
			<path d="M52.208-33.917c0-0.375,0-0.875,0.125-1.5s0-0.5,0.375-1.375h-1.25"/>
		</g>
	</g>
</svg>
