<?xml version="1.0" encoding="utf-8"?>
<svg xmlns="http://www.w3.org/2000/svg" version="1.1" x="0px" y="0px" xml:space="preserve" width="54.125" height="54.125" viewBox="0 -54.125 54.125 54.125">
	<metadata id="metadata2">
	<rdf:RDF
		xmlns:dc="http://purl.org/dc/elements/1.1/"
		xmlns:cc="http://creativecommons.org/ns#"
		xmlns:rdf="http://www.w3.org/1999/02/22-rdf-syntax-ns#"
		xmlns="http://my.netscape.com/rdf/simple/0.9/">
		<item rdf:ID="biblio1">
			<link>rdf:resource="http://pubs.usgs.gov/tm/2006/11A02/</link>
			<title>U.S. Geological Survey, 2006, FGDC Digital Cartographic Standard for Geologic Map Symbolization (PostScript Implementation): U.S. Geological Survey Techniques and Methods 11-A2</title>
		</item>
		<item rdf:ID="biblio2">
			<link>https://davenquinn.com/projects/geologic-patterns/</link>
			<title>FGDC Geologic Patterns for the Web</title>
		</item>
		<rdf:Description>
			<dc:description>Converted from 'FGDC Geologic Patterns for the Web' to QGIS compatible svg symbols, with customisable fill colour/stroke colour/stroke width (when appropriate)</dc:description>
			<dc:date>01 MARCH 2019</dc:date>
			<dc:creator>GeoProc.com</dc:creator>
			<dc:publisher rdf:resource="https://github.com/BC-Consulting/QGIS-FGDC-Fill" />
		</rdf:Description>
		<cc:Work rdf:about="">
			<dc:format>image/svg+xml</dc:format>
			<dc:type rdf:resource="http://purl.org/dc/dcmitype/StillImage" />
			<dc:title>FGDC fill symbol: Lithology - Sedimentary - 668 Salt</dc:title>
		</cc:Work>
	</rdf:RDF>
	</metadata>
	<g>
		<rect y="-54.125" style="fill:none;stroke:none;" width="54.125" height="54.125"/>
        <g style="fill:none;" stroke="param(outline) #000" stroke-width="param(outline-width) 0.8">
			<line x1="1.251" y1="-35.804" x2="1.251" y2="-33.342"/>
			<line x1="1.251" y1="-28.418" x2="1.251" y2="-25.956"/>
			<line x1="1.251" y1="-43.188" x2="1.251" y2="-40.727"/>
			<line x1="1.251" y1="-40.727" x2="1.251" y2="-38.265"/>
			<line x1="1.251" y1="-30.88" x2="1.251" y2="-28.418"/>
			<line x1="1.251" y1="-33.342" x2="1.251" y2="-30.88"/>
			<line x1="1.251" y1="-38.265" x2="1.251" y2="-35.804"/>
			<line x1="1.251" y1="-53.037" x2="1.251" y2="-50.575"/>
			<line x1="1.251" y1="-54.125" x2="1.251" y2="-53.037"/>
			<line x1="1.251" y1="-48.113" x2="1.251" y2="-45.65"/>
			<line x1="1.251" y1="-45.65" x2="1.251" y2="-43.188"/>
			<line x1="1.251" y1="-50.575" x2="1.251" y2="-48.113"/>
			<line x1="1.251" y1="-18.57" x2="1.251" y2="-16.108"/>
			<line x1="1.251" y1="-1.337" x2="1.251" y2="0"/>
			<line x1="1.251" y1="-3.799" x2="1.251" y2="-1.337"/>
			<line x1="1.251" y1="-6.261" x2="1.251" y2="-3.799"/>
			<line x1="1.251" y1="-8.723" x2="1.251" y2="-6.261"/>
			<line x1="1.251" y1="-23.494" x2="1.251" y2="-21.032"/>
			<line x1="1.251" y1="-21.032" x2="1.251" y2="-18.57"/>
			<line x1="1.251" y1="-25.956" x2="1.251" y2="-23.494"/>
			<line x1="1.251" y1="-13.647" x2="1.251" y2="-11.185"/>
			<line x1="1.251" y1="-16.108" x2="1.251" y2="-13.647"/>
			<line x1="1.251" y1="-11.185" x2="1.251" y2="-8.723"/>
			<line x1="3.713" y1="-30.88" x2="3.713" y2="-28.418"/>
			<line x1="3.713" y1="-28.418" x2="3.713" y2="-25.956"/>
			<line x1="3.713" y1="-23.494" x2="3.713" y2="-21.032"/>
			<line x1="3.713" y1="-25.956" x2="3.713" y2="-23.494"/>
			<line x1="3.713" y1="-45.65" x2="3.713" y2="-43.188"/>
			<line x1="3.713" y1="-35.804" x2="3.713" y2="-33.342"/>
			<line x1="3.713" y1="-38.265" x2="3.713" y2="-35.804"/>
			<line x1="3.713" y1="-43.188" x2="3.713" y2="-40.727"/>
			<line x1="3.713" y1="-40.727" x2="3.713" y2="-38.265"/>
			<line x1="3.713" y1="-21.032" x2="3.713" y2="-18.57"/>
			<line x1="3.713" y1="-8.723" x2="3.713" y2="-6.261"/>
			<line x1="3.713" y1="-54.125" x2="3.713" y2="-53.037"/>
			<line x1="3.713" y1="-3.799" x2="3.713" y2="-1.337"/>
			<line x1="3.713" y1="-53.037" x2="3.713" y2="-50.575"/>
			<line x1="3.713" y1="0" x2="3.713" y2="-1.337"/>
			<line x1="3.713" y1="-50.575" x2="3.713" y2="-48.113"/>
			<line x1="3.713" y1="-48.113" x2="3.713" y2="-45.65"/>
			<line x1="3.713" y1="-16.108" x2="3.713" y2="-13.647"/>
			<line x1="3.713" y1="-13.647" x2="3.713" y2="-11.185"/>
			<line x1="3.713" y1="-11.185" x2="3.713" y2="-8.723"/>
			<line x1="3.713" y1="-18.57" x2="3.713" y2="-16.108"/>
			<line x1="3.713" y1="-6.261" x2="3.713" y2="-3.799"/>
			<line x1="3.713" y1="-33.342" x2="3.713" y2="-30.88"/>
			<line x1="6.175" y1="-23.494" x2="6.175" y2="-21.032"/>
			<line x1="6.175" y1="-25.956" x2="6.175" y2="-23.494"/>
			<line x1="6.175" y1="-28.418" x2="6.175" y2="-25.956"/>
			<line x1="6.175" y1="-21.032" x2="6.175" y2="-18.57"/>
			<line x1="6.175" y1="-18.57" x2="6.175" y2="-16.108"/>
			<line x1="6.175" y1="-30.88" x2="6.175" y2="-28.418"/>
			<line x1="6.175" y1="-45.65" x2="6.175" y2="-43.188"/>
			<line x1="6.175" y1="-33.342" x2="6.175" y2="-30.88"/>
			<line x1="6.175" y1="-13.647" x2="6.175" y2="-11.185"/>
			<line x1="6.175" y1="-43.188" x2="6.175" y2="-40.727"/>
			<line x1="6.175" y1="-35.804" x2="6.175" y2="-33.342"/>
			<line x1="6.175" y1="-38.265" x2="6.175" y2="-35.804"/>
			<line x1="6.175" y1="-40.727" x2="6.175" y2="-38.265"/>
			<line x1="6.175" y1="-54.125" x2="6.175" y2="-53.037"/>
			<line x1="6.175" y1="0" x2="6.175" y2="-1.337"/>
			<line x1="6.175" y1="-53.037" x2="6.175" y2="-50.575"/>
			<line x1="6.175" y1="-6.261" x2="6.175" y2="-3.799"/>
			<line x1="6.175" y1="-8.723" x2="6.175" y2="-6.261"/>
			<line x1="6.175" y1="-11.185" x2="6.175" y2="-8.723"/>
			<line x1="6.175" y1="-1.337" x2="6.175" y2="-3.799"/>
			<line x1="6.175" y1="-48.113" x2="6.175" y2="-45.65"/>
			<line x1="6.175" y1="-50.575" x2="6.175" y2="-48.113"/>
			<line x1="6.175" y1="-16.108" x2="6.175" y2="-13.647"/>
			<line x1="8.637" y1="-8.723" x2="8.637" y2="-6.261"/>
			<line x1="8.637" y1="-30.88" x2="8.637" y2="-28.418"/>
			<line x1="8.637" y1="-16.108" x2="8.637" y2="-13.647"/>
			<line x1="8.637" y1="-50.575" x2="8.637" y2="-48.113"/>
			<line x1="8.637" y1="-11.185" x2="8.637" y2="-8.723"/>
			<line x1="8.637" y1="-33.342" x2="8.637" y2="-30.88"/>
			<line x1="8.637" y1="-43.188" x2="8.637" y2="-40.727"/>
			<line x1="8.637" y1="-21.032" x2="8.637" y2="-18.57"/>
			<line x1="8.637" y1="-18.57" x2="8.637" y2="-16.108"/>
			<line x1="8.637" y1="-54.125" x2="8.637" y2="-53.037"/>
			<line x1="8.637" y1="-53.037" x2="8.637" y2="-50.575"/>
			<line x1="8.637" y1="-1.337" x2="8.637" y2="-3.799"/>
			<line x1="8.637" y1="-3.799" x2="8.637" y2="-6.261"/>
			<line x1="8.637" y1="0" x2="8.637" y2="-1.337"/>
			<line x1="8.637" y1="-40.727" x2="8.637" y2="-38.265"/>
			<line x1="8.637" y1="-25.956" x2="8.637" y2="-23.494"/>
			<line x1="8.637" y1="-48.113" x2="8.637" y2="-45.65"/>
			<line x1="8.637" y1="-28.418" x2="8.637" y2="-25.956"/>
			<line x1="8.637" y1="-23.494" x2="8.637" y2="-21.032"/>
			<line x1="8.637" y1="-35.804" x2="8.637" y2="-33.342"/>
			<line x1="8.637" y1="-45.65" x2="8.637" y2="-43.188"/>
			<line x1="8.637" y1="-38.265" x2="8.637" y2="-35.804"/>
			<line x1="8.637" y1="-13.647" x2="8.637" y2="-11.185"/>
			<line x1="11.099" y1="-43.188" x2="11.099" y2="-40.727"/>
			<line x1="11.099" y1="0" x2="11.099" y2="-1.337"/>
			<line x1="11.099" y1="-45.65" x2="11.099" y2="-43.188"/>
			<line x1="11.099" y1="-6.261" x2="11.099" y2="-8.723"/>
			<line x1="11.099" y1="-35.804" x2="11.099" y2="-33.342"/>
			<line x1="11.099" y1="-30.88" x2="11.099" y2="-28.418"/>
			<line x1="11.099" y1="-33.342" x2="11.099" y2="-30.88"/>
			<line x1="11.099" y1="-28.418" x2="11.099" y2="-25.956"/>
			<line x1="11.099" y1="-38.265" x2="11.099" y2="-35.804"/>
			<line x1="11.099" y1="-25.956" x2="11.099" y2="-23.494"/>
			<line x1="11.099" y1="-18.57" x2="11.099" y2="-16.108"/>
			<line x1="11.099" y1="-11.185" x2="11.099" y2="-8.723"/>
			<line x1="11.099" y1="-54.125" x2="11.099" y2="-53.037"/>
			<line x1="11.099" y1="-13.647" x2="11.099" y2="-11.185"/>
			<line x1="11.099" y1="-21.032" x2="11.099" y2="-18.57"/>
			<line x1="11.099" y1="-23.494" x2="11.099" y2="-21.032"/>
			<line x1="11.099" y1="-53.037" x2="11.099" y2="-50.575"/>
			<line x1="11.099" y1="-16.108" x2="11.099" y2="-13.647"/>
			<line x1="11.099" y1="-40.727" x2="11.099" y2="-38.265"/>
			<line x1="11.099" y1="-48.113" x2="11.099" y2="-45.65"/>
			<line x1="11.099" y1="-50.575" x2="11.099" y2="-48.113"/>
			<line x1="11.099" y1="-1.337" x2="11.099" y2="-3.799"/>
			<line x1="11.099" y1="-3.799" x2="11.099" y2="-6.261"/>
			<line x1="13.561" y1="-54.125" x2="13.561" y2="-53.037"/>
			<line x1="13.561" y1="-25.956" x2="13.561" y2="-23.494"/>
			<line x1="13.561" y1="-3.799" x2="13.561" y2="-6.261"/>
			<line x1="13.561" y1="-1.337" x2="13.561" y2="-3.799"/>
			<line x1="13.561" y1="-28.418" x2="13.561" y2="-25.956"/>
			<line x1="13.561" y1="-50.575" x2="13.561" y2="-48.113"/>
			<line x1="13.561" y1="-53.037" x2="13.561" y2="-50.575"/>
			<line x1="13.561" y1="-6.261" x2="13.561" y2="-8.723"/>
			<line x1="13.561" y1="-48.113" x2="13.561" y2="-45.65"/>
			<line x1="13.561" y1="-43.188" x2="13.561" y2="-40.727"/>
			<line x1="13.561" y1="-40.727" x2="13.561" y2="-38.265"/>
			<line x1="13.561" y1="-30.88" x2="13.561" y2="-28.418"/>
			<line x1="13.561" y1="-33.342" x2="13.561" y2="-30.88"/>
			<line x1="13.561" y1="-35.804" x2="13.561" y2="-33.342"/>
			<line x1="13.561" y1="-38.265" x2="13.561" y2="-35.804"/>
			<line x1="13.561" y1="0" x2="13.561" y2="-1.337"/>
			<line x1="13.561" y1="-13.647" x2="13.561" y2="-11.185"/>
			<line x1="13.561" y1="-18.57" x2="13.561" y2="-16.108"/>
			<line x1="13.561" y1="-45.65" x2="13.561" y2="-43.188"/>
			<line x1="13.561" y1="-16.108" x2="13.561" y2="-13.647"/>
			<line x1="13.561" y1="-23.494" x2="13.561" y2="-21.032"/>
			<line x1="13.561" y1="-21.032" x2="13.561" y2="-18.57"/>
			<line x1="13.561" y1="-8.723" x2="13.561" y2="-11.185"/>
			<line x1="16.022" y1="-45.65" x2="16.022" y2="-43.188"/>
			<line x1="16.022" y1="-54.125" x2="16.022" y2="-53.037"/>
			<line x1="16.022" y1="0" x2="16.022" y2="-1.337"/>
			<line x1="16.022" y1="-48.113" x2="16.022" y2="-45.65"/>
			<line x1="16.022" y1="-1.337" x2="16.022" y2="-3.799"/>
			<line x1="16.022" y1="-18.57" x2="16.022" y2="-16.108"/>
			<line x1="16.022" y1="-16.108" x2="16.022" y2="-13.647"/>
			<line x1="16.022" y1="-38.265" x2="16.022" y2="-35.804"/>
			<line x1="16.022" y1="-50.575" x2="16.022" y2="-48.113"/>
			<line x1="16.022" y1="-40.727" x2="16.022" y2="-38.265"/>
			<line x1="16.022" y1="-3.799" x2="16.022" y2="-6.261"/>
			<line x1="16.022" y1="-11.185" x2="16.022" y2="-13.647"/>
			<line x1="16.022" y1="-43.188" x2="16.022" y2="-40.727"/>
			<line x1="16.022" y1="-28.418" x2="16.022" y2="-25.956"/>
			<line x1="16.022" y1="-6.261" x2="16.022" y2="-8.723"/>
			<line x1="16.022" y1="-33.342" x2="16.022" y2="-30.88"/>
			<line x1="16.022" y1="-8.723" x2="16.022" y2="-11.185"/>
			<line x1="16.022" y1="-30.88" x2="16.022" y2="-28.418"/>
			<line x1="16.022" y1="-35.804" x2="16.022" y2="-33.342"/>
			<line x1="16.022" y1="-25.956" x2="16.022" y2="-23.494"/>
			<line x1="16.022" y1="-21.032" x2="16.022" y2="-18.57"/>
			<line x1="16.022" y1="-23.494" x2="16.022" y2="-21.032"/>
			<line x1="16.022" y1="-53.037" x2="16.022" y2="-50.575"/>
			<line x1="18.483" y1="-8.723" x2="18.483" y2="-11.185"/>
			<line x1="18.483" y1="-48.113" x2="18.483" y2="-45.65"/>
			<line x1="18.483" y1="-40.727" x2="18.483" y2="-38.265"/>
			<line x1="18.483" y1="-25.956" x2="18.483" y2="-23.494"/>
			<line x1="18.483" y1="-21.032" x2="18.483" y2="-18.57"/>
			<line x1="18.483" y1="-6.261" x2="18.483" y2="-8.723"/>
			<line x1="18.483" y1="-13.647" x2="18.483" y2="-16.108"/>
			<line x1="18.483" y1="-18.57" x2="18.483" y2="-16.108"/>
			<line x1="18.483" y1="-43.188" x2="18.483" y2="-40.727"/>
			<line x1="18.483" y1="-33.342" x2="18.483" y2="-30.88"/>
			<line x1="18.483" y1="-30.88" x2="18.483" y2="-28.418"/>
			<line x1="18.483" y1="-23.494" x2="18.483" y2="-21.032"/>
			<line x1="18.483" y1="-28.418" x2="18.483" y2="-25.956"/>
			<line x1="18.483" y1="-45.65" x2="18.483" y2="-43.188"/>
			<line x1="18.483" y1="-53.037" x2="18.483" y2="-50.575"/>
			<line x1="18.483" y1="0" x2="18.483" y2="-1.337"/>
			<line x1="18.483" y1="-1.337" x2="18.483" y2="-3.799"/>
			<line x1="18.483" y1="-50.575" x2="18.483" y2="-48.113"/>
			<line x1="18.483" y1="-54.125" x2="18.483" y2="-53.037"/>
			<line x1="18.483" y1="-38.265" x2="18.483" y2="-35.804"/>
			<line x1="18.483" y1="-35.804" x2="18.483" y2="-33.342"/>
			<line x1="18.483" y1="-11.185" x2="18.483" y2="-13.647"/>
			<line x1="18.483" y1="-3.799" x2="18.483" y2="-6.261"/>
			<line x1="20.945" y1="-33.342" x2="20.945" y2="-30.88"/>
			<line x1="20.945" y1="-38.265" x2="20.945" y2="-35.804"/>
			<line x1="20.945" y1="-13.647" x2="20.945" y2="-16.108"/>
			<line x1="20.945" y1="-6.261" x2="20.945" y2="-8.723"/>
			<line x1="20.945" y1="0" x2="20.945" y2="-1.337"/>
			<line x1="20.945" y1="-53.037" x2="20.945" y2="-50.575"/>
			<line x1="20.945" y1="-45.65" x2="20.945" y2="-43.188"/>
			<line x1="20.945" y1="-40.727" x2="20.945" y2="-38.265"/>
			<line x1="20.945" y1="-3.799" x2="20.945" y2="-6.261"/>
			<line x1="20.945" y1="-11.185" x2="20.945" y2="-13.647"/>
			<line x1="20.945" y1="-48.113" x2="20.945" y2="-45.65"/>
			<line x1="20.945" y1="-35.804" x2="20.945" y2="-33.342"/>
			<line x1="20.945" y1="-50.575" x2="20.945" y2="-48.113"/>
			<line x1="20.945" y1="-1.337" x2="20.945" y2="-3.799"/>
			<line x1="20.945" y1="-8.723" x2="20.945" y2="-11.185"/>
			<line x1="20.945" y1="-43.188" x2="20.945" y2="-40.727"/>
			<line x1="20.945" y1="-54.125" x2="20.945" y2="-53.037"/>
			<line x1="20.945" y1="-16.108" x2="20.945" y2="-18.57"/>
			<line x1="20.945" y1="-25.956" x2="20.945" y2="-23.494"/>
			<line x1="20.945" y1="-30.88" x2="20.945" y2="-28.418"/>
			<line x1="20.945" y1="-28.418" x2="20.945" y2="-25.956"/>
			<line x1="20.945" y1="-23.494" x2="20.945" y2="-21.032"/>
			<line x1="20.945" y1="-21.032" x2="20.945" y2="-18.57"/>
			<line x1="23.407" y1="-45.65" x2="23.407" y2="-43.188"/>
			<line x1="23.407" y1="-16.108" x2="23.407" y2="-18.57"/>
			<line x1="23.407" y1="-6.261" x2="23.407" y2="-8.723"/>
			<line x1="23.407" y1="-48.113" x2="23.407" y2="-45.65"/>
			<line x1="23.407" y1="-38.265" x2="23.407" y2="-35.804"/>
			<line x1="23.407" y1="-30.88" x2="23.407" y2="-28.418"/>
			<line x1="23.407" y1="-43.188" x2="23.407" y2="-40.727"/>
			<line x1="23.407" y1="-18.57" x2="23.407" y2="-21.032"/>
			<line x1="23.407" y1="-8.723" x2="23.407" y2="-11.185"/>
			<line x1="23.407" y1="-1.337" x2="23.407" y2="-3.799"/>
			<line x1="23.407" y1="-23.494" x2="23.407" y2="-21.032"/>
			<line x1="23.407" y1="-53.037" x2="23.407" y2="-50.575"/>
			<line x1="23.407" y1="-28.418" x2="23.407" y2="-25.956"/>
			<line x1="23.407" y1="-54.125" x2="23.407" y2="-53.037"/>
			<line x1="23.407" y1="0" x2="23.407" y2="-1.337"/>
			<line x1="23.407" y1="-11.185" x2="23.407" y2="-13.647"/>
			<line x1="23.407" y1="-13.647" x2="23.407" y2="-16.108"/>
			<line x1="23.407" y1="-35.804" x2="23.407" y2="-33.342"/>
			<line x1="23.407" y1="-50.575" x2="23.407" y2="-48.113"/>
			<line x1="23.407" y1="-25.956" x2="23.407" y2="-23.494"/>
			<line x1="23.407" y1="-3.799" x2="23.407" y2="-6.261"/>
			<line x1="23.407" y1="-33.342" x2="23.407" y2="-30.88"/>
			<line x1="23.407" y1="-40.727" x2="23.407" y2="-38.265"/>
			<line x1="25.87" y1="-54.125" x2="25.87" y2="-53.037"/>
			<line x1="25.87" y1="-28.418" x2="25.87" y2="-25.956"/>
			<line x1="25.87" y1="-45.65" x2="25.87" y2="-43.188"/>
			<line x1="25.87" y1="-30.88" x2="25.87" y2="-28.418"/>
			<line x1="25.87" y1="-13.647" x2="25.87" y2="-16.108"/>
			<line x1="25.87" y1="-48.113" x2="25.87" y2="-45.65"/>
			<line x1="25.87" y1="-40.727" x2="25.87" y2="-38.265"/>
			<line x1="25.87" y1="-16.108" x2="25.87" y2="-18.57"/>
			<line x1="25.87" y1="-21.032" x2="25.87" y2="-23.494"/>
			<line x1="25.87" y1="-43.188" x2="25.87" y2="-40.727"/>
			<line x1="25.87" y1="-33.342" x2="25.87" y2="-30.88"/>
			<line x1="25.87" y1="-35.804" x2="25.87" y2="-33.342"/>
			<line x1="25.87" y1="-11.185" x2="25.87" y2="-13.647"/>
			<line x1="25.87" y1="-3.799" x2="25.87" y2="-6.261"/>
			<line x1="25.87" y1="-50.575" x2="25.87" y2="-48.113"/>
			<line x1="25.87" y1="0" x2="25.87" y2="-1.337"/>
			<line x1="25.87" y1="-23.494" x2="25.87" y2="-25.956"/>
			<line x1="25.87" y1="-1.337" x2="25.87" y2="-3.799"/>
			<line x1="25.87" y1="-8.723" x2="25.87" y2="-11.185"/>
			<line x1="25.87" y1="-53.037" x2="25.87" y2="-50.575"/>
			<line x1="25.87" y1="-6.261" x2="25.87" y2="-8.723"/>
			<line x1="25.87" y1="-18.57" x2="25.87" y2="-21.032"/>
			<line x1="25.87" y1="-38.265" x2="25.87" y2="-35.804"/>
			<line x1="28.331" y1="0" x2="28.331" y2="-1.337"/>
			<line x1="28.331" y1="-16.108" x2="28.331" y2="-18.57"/>
			<line x1="28.331" y1="-23.494" x2="28.331" y2="-25.956"/>
			<line x1="28.331" y1="-38.265" x2="28.331" y2="-35.804"/>
			<line x1="28.331" y1="-1.337" x2="28.331" y2="-3.799"/>
			<line x1="28.331" y1="-11.185" x2="28.331" y2="-13.647"/>
			<line x1="28.331" y1="-50.575" x2="28.331" y2="-48.113"/>
			<line x1="28.331" y1="-53.037" x2="28.331" y2="-50.575"/>
			<line x1="28.331" y1="-40.727" x2="28.331" y2="-38.265"/>
			<line x1="28.331" y1="-54.125" x2="28.331" y2="-53.037"/>
			<line x1="28.331" y1="-43.188" x2="28.331" y2="-40.727"/>
			<line x1="28.331" y1="-48.113" x2="28.331" y2="-45.65"/>
			<line x1="28.331" y1="-18.57" x2="28.331" y2="-21.032"/>
			<line x1="28.331" y1="-33.342" x2="28.331" y2="-30.88"/>
			<line x1="28.331" y1="-35.804" x2="28.331" y2="-33.342"/>
			<line x1="28.331" y1="-13.647" x2="28.331" y2="-16.108"/>
			<line x1="28.331" y1="-21.032" x2="28.331" y2="-23.494"/>
			<line x1="28.331" y1="-45.65" x2="28.331" y2="-43.188"/>
			<line x1="28.331" y1="-8.723" x2="28.331" y2="-11.185"/>
			<line x1="28.331" y1="-6.261" x2="28.331" y2="-8.723"/>
			<line x1="28.331" y1="-30.88" x2="28.331" y2="-28.418"/>
			<line x1="28.331" y1="-3.799" x2="28.331" y2="-6.261"/>
			<line x1="28.331" y1="-25.956" x2="28.331" y2="-28.418"/>
			<line x1="30.793" y1="-16.108" x2="30.793" y2="-18.57"/>
			<line x1="30.793" y1="-43.188" x2="30.793" y2="-40.727"/>
			<line x1="30.793" y1="-28.418" x2="30.793" y2="-30.88"/>
			<line x1="30.793" y1="-50.575" x2="30.793" y2="-48.113"/>
			<line x1="30.793" y1="-6.261" x2="30.793" y2="-8.723"/>
			<line x1="30.793" y1="-45.65" x2="30.793" y2="-43.188"/>
			<line x1="30.793" y1="-11.185" x2="30.793" y2="-13.647"/>
			<line x1="30.793" y1="-38.265" x2="30.793" y2="-35.804"/>
			<line x1="30.793" y1="-33.342" x2="30.793" y2="-30.88"/>
			<line x1="30.793" y1="-53.037" x2="30.793" y2="-50.575"/>
			<line x1="30.793" y1="-8.723" x2="30.793" y2="-11.185"/>
			<line x1="30.793" y1="-23.494" x2="30.793" y2="-25.956"/>
			<line x1="30.793" y1="-40.727" x2="30.793" y2="-38.265"/>
			<line x1="30.793" y1="-1.337" x2="30.793" y2="-3.799"/>
			<line x1="30.793" y1="-28.418" x2="30.793" y2="-25.956"/>
			<line x1="30.793" y1="-13.647" x2="30.793" y2="-16.108"/>
			<line x1="30.793" y1="-48.113" x2="30.793" y2="-45.65"/>
			<line x1="30.793" y1="-21.032" x2="30.793" y2="-23.494"/>
			<line x1="30.793" y1="-3.799" x2="30.793" y2="-6.261"/>
			<line x1="30.793" y1="0" x2="30.793" y2="-1.337"/>
			<line x1="30.793" y1="-18.57" x2="30.793" y2="-21.032"/>
			<line x1="30.793" y1="-35.804" x2="30.793" y2="-33.342"/>
			<line x1="30.793" y1="-54.125" x2="30.793" y2="-53.037"/>
			<line x1="33.256" y1="-8.723" x2="33.256" y2="-11.185"/>
			<line x1="33.256" y1="-6.261" x2="33.256" y2="-8.723"/>
			<line x1="33.256" y1="-30.88" x2="33.256" y2="-33.342"/>
			<line x1="33.256" y1="-38.265" x2="33.256" y2="-35.804"/>
			<line x1="33.256" y1="-16.108" x2="33.256" y2="-18.57"/>
			<line x1="33.256" y1="-35.804" x2="33.256" y2="-33.342"/>
			<line x1="33.256" y1="-13.647" x2="33.256" y2="-16.108"/>
			<line x1="33.256" y1="-43.188" x2="33.256" y2="-40.727"/>
			<line x1="33.256" y1="-18.57" x2="33.256" y2="-21.032"/>
			<line x1="33.256" y1="-21.032" x2="33.256" y2="-23.494"/>
			<line x1="33.256" y1="-1.337" x2="33.256" y2="-3.799"/>
			<line x1="33.256" y1="-40.727" x2="33.256" y2="-38.265"/>
			<line x1="33.256" y1="-53.037" x2="33.256" y2="-50.575"/>
			<line x1="33.256" y1="-48.113" x2="33.256" y2="-45.65"/>
			<line x1="33.256" y1="-3.799" x2="33.256" y2="-6.261"/>
			<line x1="33.256" y1="-11.185" x2="33.256" y2="-13.647"/>
			<line x1="33.256" y1="-50.575" x2="33.256" y2="-48.113"/>
			<line x1="33.256" y1="-23.494" x2="33.256" y2="-25.956"/>
			<line x1="33.256" y1="-25.956" x2="33.256" y2="-28.418"/>
			<line x1="33.256" y1="-45.65" x2="33.256" y2="-43.188"/>
			<line x1="33.256" y1="0" x2="33.256" y2="-1.337"/>
			<line x1="33.256" y1="-54.125" x2="33.256" y2="-53.037"/>
			<line x1="33.256" y1="-30.88" x2="33.256" y2="-28.418"/>
			<line x1="35.718" y1="-45.65" x2="35.718" y2="-43.188"/>
			<line x1="35.718" y1="-53.037" x2="35.718" y2="-50.575"/>
			<line x1="35.718" y1="-28.418" x2="35.718" y2="-30.88"/>
			<line x1="35.718" y1="-23.494" x2="35.718" y2="-25.956"/>
			<line x1="35.718" y1="-25.956" x2="35.718" y2="-28.418"/>
			<line x1="35.718" y1="-1.337" x2="35.718" y2="-3.799"/>
			<line x1="35.718" y1="-11.185" x2="35.718" y2="-13.647"/>
			<line x1="35.718" y1="-43.188" x2="35.718" y2="-40.727"/>
			<line x1="35.718" y1="-3.799" x2="35.718" y2="-6.261"/>
			<line x1="35.718" y1="-33.342" x2="35.718" y2="-30.88"/>
			<line x1="35.718" y1="-18.57" x2="35.718" y2="-21.032"/>
			<line x1="35.718" y1="-40.727" x2="35.718" y2="-38.265"/>
			<line x1="35.718" y1="-50.575" x2="35.718" y2="-48.113"/>
			<line x1="35.718" y1="-16.108" x2="35.718" y2="-18.57"/>
			<line x1="35.718" y1="-33.342" x2="35.718" y2="-35.804"/>
			<line x1="35.718" y1="-48.113" x2="35.718" y2="-45.65"/>
			<line x1="35.718" y1="0" x2="35.718" y2="-1.337"/>
			<line x1="35.718" y1="-13.647" x2="35.718" y2="-16.108"/>
			<line x1="35.718" y1="-8.723" x2="35.718" y2="-11.185"/>
			<line x1="35.718" y1="-54.125" x2="35.718" y2="-53.037"/>
			<line x1="35.718" y1="-21.032" x2="35.718" y2="-23.494"/>
			<line x1="35.718" y1="-38.265" x2="35.718" y2="-35.804"/>
			<line x1="35.718" y1="-6.261" x2="35.718" y2="-8.723"/>
			<line x1="38.18" y1="-50.575" x2="38.18" y2="-48.113"/>
			<line x1="38.18" y1="-16.108" x2="38.18" y2="-18.57"/>
			<line x1="38.18" y1="-18.57" x2="38.18" y2="-21.032"/>
			<line x1="38.18" y1="-35.804" x2="38.18" y2="-38.265"/>
			<line x1="38.18" y1="-40.727" x2="38.18" y2="-38.265"/>
			<line x1="38.18" y1="-21.032" x2="38.18" y2="-23.494"/>
			<line x1="38.18" y1="-23.494" x2="38.18" y2="-25.956"/>
			<line x1="38.18" y1="-45.65" x2="38.18" y2="-43.188"/>
			<line x1="38.18" y1="-3.799" x2="38.18" y2="-6.261"/>
			<line x1="38.18" y1="-13.647" x2="38.18" y2="-16.108"/>
			<line x1="38.18" y1="-48.113" x2="38.18" y2="-45.65"/>
			<line x1="38.18" y1="-54.125" x2="38.18" y2="-53.037"/>
			<line x1="38.18" y1="-43.188" x2="38.18" y2="-40.727"/>
			<line x1="38.18" y1="-6.261" x2="38.18" y2="-8.723"/>
			<line x1="38.18" y1="-8.723" x2="38.18" y2="-11.185"/>
			<line x1="38.18" y1="-35.804" x2="38.18" y2="-33.342"/>
			<line x1="38.18" y1="-1.337" x2="38.18" y2="-3.799"/>
			<line x1="38.18" y1="-53.037" x2="38.18" y2="-50.575"/>
			<line x1="38.18" y1="-28.418" x2="38.18" y2="-30.88"/>
			<line x1="38.18" y1="0" x2="38.18" y2="-1.337"/>
			<line x1="38.18" y1="-25.956" x2="38.18" y2="-28.418"/>
			<line x1="38.18" y1="-11.185" x2="38.18" y2="-13.647"/>
			<line x1="38.18" y1="-30.88" x2="38.18" y2="-33.342"/>
			<line x1="40.641" y1="-1.337" x2="40.641" y2="-3.799"/>
			<line x1="40.641" y1="-48.113" x2="40.641" y2="-45.65"/>
			<line x1="40.641" y1="-8.723" x2="40.641" y2="-11.185"/>
			<line x1="40.641" y1="-38.265" x2="40.641" y2="-35.804"/>
			<line x1="40.641" y1="-6.261" x2="40.641" y2="-8.723"/>
			<line x1="40.641" y1="-45.65" x2="40.641" y2="-43.188"/>
			<line x1="40.641" y1="-11.185" x2="40.641" y2="-13.647"/>
			<line x1="40.641" y1="-33.342" x2="40.641" y2="-35.804"/>
			<line x1="40.641" y1="-3.799" x2="40.641" y2="-6.261"/>
			<line x1="40.641" y1="-21.032" x2="40.641" y2="-23.494"/>
			<line x1="40.641" y1="-18.57" x2="40.641" y2="-21.032"/>
			<line x1="40.641" y1="-16.108" x2="40.641" y2="-18.57"/>
			<line x1="40.641" y1="0" x2="40.641" y2="-1.337"/>
			<line x1="40.641" y1="-28.418" x2="40.641" y2="-30.88"/>
			<line x1="40.641" y1="-23.494" x2="40.641" y2="-25.956"/>
			<line x1="40.641" y1="-30.88" x2="40.641" y2="-33.342"/>
			<line x1="40.641" y1="-13.647" x2="40.641" y2="-16.108"/>
			<line x1="40.641" y1="-50.575" x2="40.641" y2="-48.113"/>
			<line x1="40.641" y1="-25.956" x2="40.641" y2="-28.418"/>
			<line x1="40.641" y1="-43.188" x2="40.641" y2="-40.727"/>
			<line x1="40.641" y1="-38.265" x2="40.641" y2="-40.727"/>
			<line x1="40.641" y1="-54.125" x2="40.641" y2="-53.037"/>
			<line x1="40.641" y1="-53.037" x2="40.641" y2="-50.575"/>
			<line x1="43.103" y1="-35.804" x2="43.103" y2="-38.265"/>
			<line x1="43.103" y1="-3.799" x2="43.103" y2="-6.261"/>
			<line x1="43.103" y1="-1.337" x2="43.103" y2="-3.799"/>
			<line x1="43.103" y1="-33.342" x2="43.103" y2="-35.804"/>
			<line x1="43.103" y1="-6.261" x2="43.103" y2="-8.723"/>
			<line x1="43.103" y1="-13.647" x2="43.103" y2="-16.108"/>
			<line x1="43.103" y1="-48.113" x2="43.103" y2="-45.65"/>
			<line x1="43.103" y1="-23.494" x2="43.103" y2="-25.956"/>
			<line x1="43.103" y1="-21.032" x2="43.103" y2="-23.494"/>
			<line x1="43.103" y1="-53.037" x2="43.103" y2="-50.575"/>
			<line x1="43.103" y1="-40.727" x2="43.103" y2="-43.188"/>
			<line x1="43.103" y1="-45.65" x2="43.103" y2="-43.188"/>
			<line x1="43.103" y1="-40.727" x2="43.103" y2="-38.265"/>
			<line x1="43.103" y1="-28.418" x2="43.103" y2="-30.88"/>
			<line x1="43.103" y1="-18.57" x2="43.103" y2="-21.032"/>
			<line x1="43.103" y1="-30.88" x2="43.103" y2="-33.342"/>
			<line x1="43.103" y1="-50.575" x2="43.103" y2="-48.113"/>
			<line x1="43.103" y1="-8.723" x2="43.103" y2="-11.185"/>
			<line x1="43.103" y1="-11.185" x2="43.103" y2="-13.647"/>
			<line x1="43.103" y1="-25.956" x2="43.103" y2="-28.418"/>
			<line x1="43.103" y1="0" x2="43.103" y2="-1.337"/>
			<line x1="43.103" y1="-54.125" x2="43.103" y2="-53.037"/>
			<line x1="43.103" y1="-16.108" x2="43.103" y2="-18.57"/>
			<line x1="45.564" y1="-6.261" x2="45.564" y2="-8.723"/>
			<line x1="45.564" y1="-25.956" x2="45.564" y2="-28.418"/>
			<line x1="45.564" y1="-33.342" x2="45.564" y2="-35.804"/>
			<line x1="45.564" y1="-8.723" x2="45.564" y2="-11.185"/>
			<line x1="45.564" y1="-35.804" x2="45.564" y2="-38.265"/>
			<line x1="45.564" y1="-53.037" x2="45.564" y2="-50.575"/>
			<line x1="45.564" y1="-30.88" x2="45.564" y2="-33.342"/>
			<line x1="45.564" y1="-11.185" x2="45.564" y2="-13.647"/>
			<line x1="45.564" y1="-1.337" x2="45.564" y2="-3.799"/>
			<line x1="45.564" y1="-28.418" x2="45.564" y2="-30.88"/>
			<line x1="45.564" y1="0" x2="45.564" y2="-1.337"/>
			<line x1="45.564" y1="-54.125" x2="45.564" y2="-53.037"/>
			<line x1="45.564" y1="-38.265" x2="45.564" y2="-40.727"/>
			<line x1="45.564" y1="-18.57" x2="45.564" y2="-21.032"/>
			<line x1="45.564" y1="-48.113" x2="45.564" y2="-45.65"/>
			<line x1="45.564" y1="-3.799" x2="45.564" y2="-6.261"/>
			<line x1="45.564" y1="-23.494" x2="45.564" y2="-25.956"/>
			<line x1="45.564" y1="-16.108" x2="45.564" y2="-18.57"/>
			<line x1="45.564" y1="-21.032" x2="45.564" y2="-23.494"/>
			<line x1="45.564" y1="-43.188" x2="45.564" y2="-45.65"/>
			<line x1="45.564" y1="-43.188" x2="45.564" y2="-40.727"/>
			<line x1="45.564" y1="-13.647" x2="45.564" y2="-16.108"/>
			<line x1="45.564" y1="-50.575" x2="45.564" y2="-48.113"/>
			<line x1="48.026" y1="-53.037" x2="48.026" y2="-50.575"/>
			<line x1="48.026" y1="-50.575" x2="48.026" y2="-48.113"/>
			<line x1="48.026" y1="-6.261" x2="48.026" y2="-8.723"/>
			<line x1="48.026" y1="-25.956" x2="48.026" y2="-28.418"/>
			<line x1="48.026" y1="-21.032" x2="48.026" y2="-23.494"/>
			<line x1="48.026" y1="-18.57" x2="48.026" y2="-21.032"/>
			<line x1="48.026" y1="-16.108" x2="48.026" y2="-18.57"/>
			<line x1="48.026" y1="-23.494" x2="48.026" y2="-25.956"/>
			<line x1="48.026" y1="-30.88" x2="48.026" y2="-33.342"/>
			<line x1="48.026" y1="-13.647" x2="48.026" y2="-16.108"/>
			<line x1="48.026" y1="-54.125" x2="48.026" y2="-53.037"/>
			<line x1="48.026" y1="-8.723" x2="48.026" y2="-11.185"/>
			<line x1="48.026" y1="-11.185" x2="48.026" y2="-13.647"/>
			<line x1="48.026" y1="-28.418" x2="48.026" y2="-30.88"/>
			<line x1="48.026" y1="0" x2="48.026" y2="-1.337"/>
			<line x1="48.026" y1="-1.337" x2="48.026" y2="-3.799"/>
			<line x1="48.026" y1="-35.804" x2="48.026" y2="-38.265"/>
			<line x1="48.026" y1="-33.342" x2="48.026" y2="-35.804"/>
			<line x1="48.026" y1="-45.65" x2="48.026" y2="-43.188"/>
			<line x1="48.026" y1="-38.265" x2="48.026" y2="-40.727"/>
			<line x1="48.026" y1="-40.727" x2="48.026" y2="-43.188"/>
			<line x1="48.026" y1="-45.65" x2="48.026" y2="-48.113"/>
			<line x1="48.026" y1="-3.799" x2="48.026" y2="-6.261"/>
			<line x1="50.488" y1="-21.032" x2="50.488" y2="-23.494"/>
			<line x1="50.488" y1="-23.494" x2="50.488" y2="-25.956"/>
			<line x1="50.488" y1="-18.57" x2="50.488" y2="-21.032"/>
			<line x1="50.488" y1="-16.108" x2="50.488" y2="-18.57"/>
			<line x1="50.488" y1="-11.185" x2="50.488" y2="-13.647"/>
			<line x1="50.488" y1="-25.956" x2="50.488" y2="-28.418"/>
			<line x1="50.488" y1="-13.647" x2="50.488" y2="-16.108"/>
			<line x1="50.488" y1="-38.265" x2="50.488" y2="-40.727"/>
			<line x1="50.488" y1="-28.418" x2="50.488" y2="-30.88"/>
			<line x1="50.488" y1="-48.113" x2="50.488" y2="-45.65"/>
			<line x1="50.488" y1="-35.804" x2="50.488" y2="-38.265"/>
			<line x1="50.488" y1="-43.188" x2="50.488" y2="-45.65"/>
			<line x1="50.488" y1="-8.723" x2="50.488" y2="-11.185"/>
			<line x1="50.488" y1="-33.342" x2="50.488" y2="-35.804"/>
			<line x1="50.488" y1="-54.125" x2="50.488" y2="-53.037"/>
			<line x1="50.488" y1="-30.88" x2="50.488" y2="-33.342"/>
			<line x1="50.488" y1="-1.337" x2="50.488" y2="-3.799"/>
			<line x1="50.488" y1="-6.261" x2="50.488" y2="-8.723"/>
			<line x1="50.488" y1="0" x2="50.488" y2="-1.337"/>
			<line x1="50.488" y1="-48.113" x2="50.488" y2="-50.575"/>
			<line x1="50.488" y1="-3.799" x2="50.488" y2="-6.261"/>
			<line x1="50.488" y1="-40.727" x2="50.488" y2="-43.188"/>
			<line x1="50.488" y1="-53.037" x2="50.488" y2="-50.575"/>
			<line x1="52.95" y1="-54.125" x2="52.95" y2="-53.037"/>
			<line x1="52.95" y1="-43.188" x2="52.95" y2="-45.65"/>
			<line x1="52.95" y1="-8.723" x2="52.95" y2="-11.185"/>
			<line x1="52.95" y1="-11.185" x2="52.95" y2="-13.647"/>
			<line x1="52.95" y1="-50.575" x2="52.95" y2="-53.037"/>
			<line x1="52.95" y1="-50.575" x2="52.95" y2="-48.113"/>
			<line x1="52.95" y1="-45.65" x2="52.95" y2="-48.113"/>
			<line x1="52.95" y1="0" x2="52.95" y2="-1.337"/>
			<line x1="52.95" y1="-28.418" x2="52.95" y2="-30.88"/>
			<line x1="52.95" y1="-1.337" x2="52.95" y2="-3.799"/>
			<line x1="52.95" y1="-30.88" x2="52.95" y2="-33.342"/>
			<line x1="52.95" y1="-33.342" x2="52.95" y2="-35.804"/>
			<line x1="52.95" y1="-35.804" x2="52.95" y2="-38.265"/>
			<line x1="52.95" y1="-6.261" x2="52.95" y2="-8.723"/>
			<line x1="52.95" y1="-23.494" x2="52.95" y2="-25.956"/>
			<line x1="52.95" y1="-18.57" x2="52.95" y2="-21.032"/>
			<line x1="52.95" y1="-25.956" x2="52.95" y2="-28.418"/>
			<line x1="52.95" y1="-21.032" x2="52.95" y2="-23.494"/>
			<line x1="52.95" y1="-40.727" x2="52.95" y2="-43.188"/>
			<line x1="52.95" y1="-13.647" x2="52.95" y2="-16.108"/>
			<line x1="52.95" y1="-3.799" x2="52.95" y2="-6.261"/>
			<line x1="52.95" y1="-38.265" x2="52.95" y2="-40.727"/>
			<line x1="52.95" y1="-16.108" x2="52.95" y2="-18.57"/>
			<line x1="35.718" y1="-1.337" x2="38.18" y2="-1.337"/>
			<line x1="11.099" y1="-1.337" x2="13.561" y2="-1.337"/>
			<line x1="50.488" y1="-1.337" x2="52.95" y2="-1.337"/>
			<line x1="33.256" y1="-1.337" x2="35.718" y2="-1.337"/>
			<line x1="30.793" y1="-1.337" x2="33.256" y2="-1.337"/>
			<line x1="43.103" y1="-1.337" x2="45.564" y2="-1.337"/>
			<line x1="18.483" y1="-1.337" x2="20.945" y2="-1.337"/>
			<line x1="20.945" y1="-1.337" x2="23.407" y2="-1.337"/>
			<line x1="16.022" y1="-1.337" x2="18.483" y2="-1.337"/>
			<line x1="25.87" y1="-1.337" x2="28.331" y2="-1.337"/>
			<line x1="1.251" y1="-1.337" x2="3.713" y2="-1.337"/>
			<line x1="38.18" y1="-1.337" x2="40.641" y2="-1.337"/>
			<line x1="50.488" y1="-1.337" x2="48.026" y2="-1.337"/>
			<line x1="0" y1="-1.337" x2="1.251" y2="-1.337"/>
			<line x1="13.561" y1="-1.337" x2="16.022" y2="-1.337"/>
			<line x1="3.713" y1="-1.337" x2="6.175" y2="-1.337"/>
			<line x1="8.637" y1="-1.337" x2="11.099" y2="-1.337"/>
			<line x1="6.175" y1="-1.337" x2="8.637" y2="-1.337"/>
			<line x1="52.95" y1="-1.337" x2="54.125" y2="-1.337"/>
			<line x1="48.026" y1="-1.337" x2="45.564" y2="-1.337"/>
			<line x1="40.641" y1="-1.337" x2="43.103" y2="-1.337"/>
			<line x1="23.407" y1="-1.337" x2="25.87" y2="-1.337"/>
			<line x1="28.331" y1="-1.337" x2="30.793" y2="-1.337"/>
			<line x1="1.251" y1="-3.799" x2="3.713" y2="-3.799"/>
			<line x1="48.026" y1="-3.799" x2="50.488" y2="-3.799"/>
			<line x1="33.256" y1="-3.799" x2="35.718" y2="-3.799"/>
			<line x1="13.561" y1="-3.799" x2="16.022" y2="-3.799"/>
			<line x1="16.022" y1="-3.799" x2="18.483" y2="-3.799"/>
			<line x1="11.099" y1="-3.799" x2="13.561" y2="-3.799"/>
			<line x1="18.483" y1="-3.799" x2="20.945" y2="-3.799"/>
			<line x1="45.564" y1="-3.799" x2="43.103" y2="-3.799"/>
			<line x1="23.407" y1="-3.799" x2="25.87" y2="-3.799"/>
			<line x1="28.331" y1="-3.799" x2="30.793" y2="-3.799"/>
			<line x1="40.641" y1="-3.799" x2="43.103" y2="-3.799"/>
			<line x1="38.18" y1="-3.799" x2="40.641" y2="-3.799"/>
			<line x1="20.945" y1="-3.799" x2="23.407" y2="-3.799"/>
			<line x1="35.718" y1="-3.799" x2="38.18" y2="-3.799"/>
			<line x1="8.637" y1="-3.799" x2="11.099" y2="-3.799"/>
			<line x1="0" y1="-3.799" x2="1.251" y2="-3.799"/>
			<line x1="48.026" y1="-3.799" x2="45.564" y2="-3.799"/>
			<line x1="50.488" y1="-3.799" x2="52.95" y2="-3.799"/>
			<line x1="25.87" y1="-3.799" x2="28.331" y2="-3.799"/>
			<line x1="52.95" y1="-3.799" x2="54.125" y2="-3.799"/>
			<line x1="6.175" y1="-3.799" x2="8.637" y2="-3.799"/>
			<line x1="3.713" y1="-3.799" x2="6.175" y2="-3.799"/>
			<line x1="30.793" y1="-3.799" x2="33.256" y2="-3.799"/>
			<line x1="20.945" y1="-6.261" x2="23.407" y2="-6.261"/>
			<line x1="28.331" y1="-6.261" x2="30.793" y2="-6.261"/>
			<line x1="25.87" y1="-6.261" x2="28.331" y2="-6.261"/>
			<line x1="23.407" y1="-6.261" x2="25.87" y2="-6.261"/>
			<line x1="16.022" y1="-6.261" x2="18.483" y2="-6.261"/>
			<line x1="6.175" y1="-6.261" x2="8.637" y2="-6.261"/>
			<line x1="13.561" y1="-6.261" x2="16.022" y2="-6.261"/>
			<line x1="8.637" y1="-6.261" x2="11.099" y2="-6.261"/>
			<line x1="11.099" y1="-6.261" x2="13.561" y2="-6.261"/>
			<line x1="18.483" y1="-6.261" x2="20.945" y2="-6.261"/>
			<line x1="50.488" y1="-6.261" x2="52.95" y2="-6.261"/>
			<line x1="48.026" y1="-6.261" x2="50.488" y2="-6.261"/>
			<line x1="1.251" y1="-6.261" x2="3.713" y2="-6.261"/>
			<line x1="38.18" y1="-6.261" x2="40.641" y2="-6.261"/>
			<line x1="45.564" y1="-6.261" x2="48.026" y2="-6.261"/>
			<line x1="0" y1="-6.261" x2="1.251" y2="-6.261"/>
			<line x1="30.793" y1="-6.261" x2="33.256" y2="-6.261"/>
			<line x1="43.103" y1="-6.261" x2="40.641" y2="-6.261"/>
			<line x1="3.713" y1="-6.261" x2="6.175" y2="-6.261"/>
			<line x1="54.125" y1="-6.261" x2="52.95" y2="-6.261"/>
			<line x1="45.564" y1="-6.261" x2="43.103" y2="-6.261"/>
			<line x1="33.256" y1="-6.261" x2="35.718" y2="-6.261"/>
			<line x1="35.718" y1="-6.261" x2="38.18" y2="-6.261"/>
			<line x1="6.175" y1="-8.723" x2="8.637" y2="-8.723"/>
			<line x1="43.103" y1="-8.723" x2="40.641" y2="-8.723"/>
			<line x1="16.022" y1="-8.723" x2="18.483" y2="-8.723"/>
			<line x1="13.561" y1="-8.723" x2="16.022" y2="-8.723"/>
			<line x1="48.026" y1="-8.723" x2="50.488" y2="-8.723"/>
			<line x1="11.099" y1="-8.723" x2="13.561" y2="-8.723"/>
			<line x1="18.483" y1="-8.723" x2="20.945" y2="-8.723"/>
			<line x1="1.251" y1="-8.723" x2="3.713" y2="-8.723"/>
			<line x1="52.95" y1="-8.723" x2="50.488" y2="-8.723"/>
			<line x1="33.256" y1="-8.723" x2="35.718" y2="-8.723"/>
			<line x1="45.564" y1="-8.723" x2="48.026" y2="-8.723"/>
			<line x1="23.407" y1="-8.723" x2="25.87" y2="-8.723"/>
			<line x1="20.945" y1="-8.723" x2="23.407" y2="-8.723"/>
			<line x1="25.87" y1="-8.723" x2="28.331" y2="-8.723"/>
			<line x1="43.103" y1="-8.723" x2="45.564" y2="-8.723"/>
			<line x1="8.637" y1="-8.723" x2="11.099" y2="-8.723"/>
			<line x1="40.641" y1="-8.723" x2="38.18" y2="-8.723"/>
			<line x1="30.793" y1="-8.723" x2="33.256" y2="-8.723"/>
			<line x1="0" y1="-8.723" x2="1.251" y2="-8.723"/>
			<line x1="54.125" y1="-8.723" x2="52.95" y2="-8.723"/>
			<line x1="28.331" y1="-8.723" x2="30.793" y2="-8.723"/>
			<line x1="3.713" y1="-8.723" x2="6.175" y2="-8.723"/>
			<line x1="35.718" y1="-8.723" x2="38.18" y2="-8.723"/>
			<line x1="52.95" y1="-11.185" x2="50.488" y2="-11.185"/>
			<line x1="33.256" y1="-11.185" x2="35.718" y2="-11.185"/>
			<line x1="30.793" y1="-11.185" x2="33.256" y2="-11.185"/>
			<line x1="6.175" y1="-11.185" x2="8.637" y2="-11.185"/>
			<line x1="8.637" y1="-11.185" x2="11.099" y2="-11.185"/>
			<line x1="40.641" y1="-11.185" x2="38.18" y2="-11.185"/>
			<line x1="20.945" y1="-11.185" x2="23.407" y2="-11.185"/>
			<line x1="25.87" y1="-11.185" x2="28.331" y2="-11.185"/>
			<line x1="16.022" y1="-11.185" x2="18.483" y2="-11.185"/>
			<line x1="1.251" y1="-11.185" x2="3.713" y2="-11.185"/>
			<line x1="23.407" y1="-11.185" x2="25.87" y2="-11.185"/>
			<line x1="18.483" y1="-11.185" x2="20.945" y2="-11.185"/>
			<line x1="38.18" y1="-11.185" x2="35.718" y2="-11.185"/>
			<line x1="0" y1="-11.185" x2="1.251" y2="-11.185"/>
			<line x1="11.099" y1="-11.185" x2="13.561" y2="-11.185"/>
			<line x1="13.561" y1="-11.185" x2="16.022" y2="-11.185"/>
			<line x1="28.331" y1="-11.185" x2="30.793" y2="-11.185"/>
			<line x1="3.713" y1="-11.185" x2="6.175" y2="-11.185"/>
			<line x1="40.641" y1="-11.185" x2="43.103" y2="-11.185"/>
			<line x1="45.564" y1="-11.185" x2="48.026" y2="-11.185"/>
			<line x1="43.103" y1="-11.185" x2="45.564" y2="-11.185"/>
			<line x1="50.488" y1="-11.185" x2="48.026" y2="-11.185"/>
			<line x1="54.125" y1="-11.185" x2="52.95" y2="-11.185"/>
			<line x1="38.18" y1="-13.647" x2="35.718" y2="-13.647"/>
			<line x1="38.18" y1="-13.647" x2="40.641" y2="-13.647"/>
			<line x1="11.099" y1="-13.647" x2="13.561" y2="-13.647"/>
			<line x1="8.637" y1="-13.647" x2="11.099" y2="-13.647"/>
			<line x1="6.175" y1="-13.647" x2="8.637" y2="-13.647"/>
			<line x1="48.026" y1="-13.647" x2="45.564" y2="-13.647"/>
			<line x1="40.641" y1="-13.647" x2="43.103" y2="-13.647"/>
			<line x1="43.103" y1="-13.647" x2="45.564" y2="-13.647"/>
			<line x1="28.331" y1="-13.647" x2="30.793" y2="-13.647"/>
			<line x1="18.483" y1="-13.647" x2="20.945" y2="-13.647"/>
			<line x1="20.945" y1="-13.647" x2="23.407" y2="-13.647"/>
			<line x1="23.407" y1="-13.647" x2="25.87" y2="-13.647"/>
			<line x1="50.488" y1="-13.647" x2="48.026" y2="-13.647"/>
			<line x1="52.95" y1="-13.647" x2="50.488" y2="-13.647"/>
			<line x1="54.125" y1="-13.647" x2="52.95" y2="-13.647"/>
			<line x1="35.718" y1="-13.647" x2="33.256" y2="-13.647"/>
			<line x1="25.87" y1="-13.647" x2="28.331" y2="-13.647"/>
			<line x1="30.793" y1="-13.647" x2="33.256" y2="-13.647"/>
			<line x1="16.022" y1="-13.647" x2="18.483" y2="-13.647"/>
			<line x1="1.251" y1="-13.647" x2="3.713" y2="-13.647"/>
			<line x1="3.713" y1="-13.647" x2="6.175" y2="-13.647"/>
			<line x1="0" y1="-13.647" x2="1.251" y2="-13.647"/>
			<line x1="13.561" y1="-13.647" x2="16.022" y2="-13.647"/>
			<line x1="23.407" y1="-16.108" x2="25.87" y2="-16.108"/>
			<line x1="38.18" y1="-16.108" x2="40.641" y2="-16.108"/>
			<line x1="3.713" y1="-16.108" x2="6.175" y2="-16.108"/>
			<line x1="20.945" y1="-16.108" x2="23.407" y2="-16.108"/>
			<line x1="0" y1="-16.108" x2="1.251" y2="-16.108"/>
			<line x1="16.022" y1="-16.108" x2="18.483" y2="-16.108"/>
			<line x1="18.483" y1="-16.108" x2="20.945" y2="-16.108"/>
			<line x1="54.125" y1="-16.108" x2="52.95" y2="-16.108"/>
			<line x1="1.251" y1="-16.108" x2="3.713" y2="-16.108"/>
			<line x1="52.95" y1="-16.108" x2="50.488" y2="-16.108"/>
			<line x1="13.561" y1="-16.108" x2="16.022" y2="-16.108"/>
			<line x1="48.026" y1="-16.108" x2="45.564" y2="-16.108"/>
			<line x1="35.718" y1="-16.108" x2="33.256" y2="-16.108"/>
			<line x1="45.564" y1="-16.108" x2="43.103" y2="-16.108"/>
			<line x1="40.641" y1="-16.108" x2="43.103" y2="-16.108"/>
			<line x1="33.256" y1="-16.108" x2="30.793" y2="-16.108"/>
			<line x1="6.175" y1="-16.108" x2="8.637" y2="-16.108"/>
			<line x1="35.718" y1="-16.108" x2="38.18" y2="-16.108"/>
			<line x1="25.87" y1="-16.108" x2="28.331" y2="-16.108"/>
			<line x1="50.488" y1="-16.108" x2="48.026" y2="-16.108"/>
			<line x1="28.331" y1="-16.108" x2="30.793" y2="-16.108"/>
			<line x1="11.099" y1="-16.108" x2="13.561" y2="-16.108"/>
			<line x1="8.637" y1="-16.108" x2="11.099" y2="-16.108"/>
			<line x1="6.175" y1="-18.57" x2="8.637" y2="-18.57"/>
			<line x1="45.564" y1="-18.57" x2="43.103" y2="-18.57"/>
			<line x1="35.718" y1="-18.57" x2="38.18" y2="-18.57"/>
			<line x1="18.483" y1="-18.57" x2="20.945" y2="-18.57"/>
			<line x1="30.793" y1="-18.57" x2="28.331" y2="-18.57"/>
			<line x1="50.488" y1="-18.57" x2="48.026" y2="-18.57"/>
			<line x1="11.099" y1="-18.57" x2="13.561" y2="-18.57"/>
			<line x1="13.561" y1="-18.57" x2="16.022" y2="-18.57"/>
			<line x1="8.637" y1="-18.57" x2="11.099" y2="-18.57"/>
			<line x1="3.713" y1="-18.57" x2="6.175" y2="-18.57"/>
			<line x1="33.256" y1="-18.57" x2="35.718" y2="-18.57"/>
			<line x1="54.125" y1="-18.57" x2="52.95" y2="-18.57"/>
			<line x1="48.026" y1="-18.57" x2="45.564" y2="-18.57"/>
			<line x1="0" y1="-18.57" x2="1.251" y2="-18.57"/>
			<line x1="52.95" y1="-18.57" x2="50.488" y2="-18.57"/>
			<line x1="23.407" y1="-18.57" x2="25.87" y2="-18.57"/>
			<line x1="43.103" y1="-18.57" x2="40.641" y2="-18.57"/>
			<line x1="1.251" y1="-18.57" x2="3.713" y2="-18.57"/>
			<line x1="33.256" y1="-18.57" x2="30.793" y2="-18.57"/>
			<line x1="20.945" y1="-18.57" x2="23.407" y2="-18.57"/>
			<line x1="16.022" y1="-18.57" x2="18.483" y2="-18.57"/>
			<line x1="38.18" y1="-18.57" x2="40.641" y2="-18.57"/>
			<line x1="25.87" y1="-18.57" x2="28.331" y2="-18.57"/>
			<line x1="20.945" y1="-21.032" x2="23.407" y2="-21.032"/>
			<line x1="50.488" y1="-21.032" x2="48.026" y2="-21.032"/>
			<line x1="30.793" y1="-21.032" x2="28.331" y2="-21.032"/>
			<line x1="28.331" y1="-21.032" x2="25.87" y2="-21.032"/>
			<line x1="1.251" y1="-21.032" x2="3.713" y2="-21.032"/>
			<line x1="13.561" y1="-21.032" x2="16.022" y2="-21.032"/>
			<line x1="6.175" y1="-21.032" x2="8.637" y2="-21.032"/>
			<line x1="54.125" y1="-21.032" x2="52.95" y2="-21.032"/>
			<line x1="23.407" y1="-21.032" x2="25.87" y2="-21.032"/>
			<line x1="48.026" y1="-21.032" x2="45.564" y2="-21.032"/>
			<line x1="30.793" y1="-21.032" x2="33.256" y2="-21.032"/>
			<line x1="11.099" y1="-21.032" x2="13.561" y2="-21.032"/>
			<line x1="0" y1="-21.032" x2="1.251" y2="-21.032"/>
			<line x1="35.718" y1="-21.032" x2="38.18" y2="-21.032"/>
			<line x1="8.637" y1="-21.032" x2="11.099" y2="-21.032"/>
			<line x1="33.256" y1="-21.032" x2="35.718" y2="-21.032"/>
			<line x1="16.022" y1="-21.032" x2="18.483" y2="-21.032"/>
			<line x1="3.713" y1="-21.032" x2="6.175" y2="-21.032"/>
			<line x1="43.103" y1="-21.032" x2="40.641" y2="-21.032"/>
			<line x1="45.564" y1="-21.032" x2="43.103" y2="-21.032"/>
			<line x1="18.483" y1="-21.032" x2="20.945" y2="-21.032"/>
			<line x1="52.95" y1="-21.032" x2="50.488" y2="-21.032"/>
			<line x1="40.641" y1="-21.032" x2="38.18" y2="-21.032"/>
			<line x1="1.251" y1="-23.494" x2="3.713" y2="-23.494"/>
			<line x1="28.331" y1="-23.494" x2="25.87" y2="-23.494"/>
			<line x1="30.793" y1="-23.494" x2="33.256" y2="-23.494"/>
			<line x1="33.256" y1="-23.494" x2="35.718" y2="-23.494"/>
			<line x1="0" y1="-23.494" x2="1.251" y2="-23.494"/>
			<line x1="25.87" y1="-23.494" x2="23.407" y2="-23.494"/>
			<line x1="8.637" y1="-23.494" x2="11.099" y2="-23.494"/>
			<line x1="52.95" y1="-23.494" x2="50.488" y2="-23.494"/>
			<line x1="13.561" y1="-23.494" x2="16.022" y2="-23.494"/>
			<line x1="28.331" y1="-23.494" x2="30.793" y2="-23.494"/>
			<line x1="3.713" y1="-23.494" x2="6.175" y2="-23.494"/>
			<line x1="43.103" y1="-23.494" x2="40.641" y2="-23.494"/>
			<line x1="20.945" y1="-23.494" x2="23.407" y2="-23.494"/>
			<line x1="50.488" y1="-23.494" x2="48.026" y2="-23.494"/>
			<line x1="45.564" y1="-23.494" x2="43.103" y2="-23.494"/>
			<line x1="11.099" y1="-23.494" x2="13.561" y2="-23.494"/>
			<line x1="48.026" y1="-23.494" x2="45.564" y2="-23.494"/>
			<line x1="38.18" y1="-23.494" x2="35.718" y2="-23.494"/>
			<line x1="18.483" y1="-23.494" x2="20.945" y2="-23.494"/>
			<line x1="40.641" y1="-23.494" x2="38.18" y2="-23.494"/>
			<line x1="6.175" y1="-23.494" x2="8.637" y2="-23.494"/>
			<line x1="16.022" y1="-23.494" x2="18.483" y2="-23.494"/>
			<line x1="54.125" y1="-23.494" x2="52.95" y2="-23.494"/>
			<line x1="45.564" y1="-25.956" x2="43.103" y2="-25.956"/>
			<line x1="8.637" y1="-25.956" x2="11.099" y2="-25.956"/>
			<line x1="54.125" y1="-25.956" x2="52.95" y2="-25.956"/>
			<line x1="3.713" y1="-25.956" x2="6.175" y2="-25.956"/>
			<line x1="52.95" y1="-25.956" x2="50.488" y2="-25.956"/>
			<line x1="25.87" y1="-25.956" x2="28.331" y2="-25.956"/>
			<line x1="13.561" y1="-25.956" x2="16.022" y2="-25.956"/>
			<line x1="18.483" y1="-25.956" x2="20.945" y2="-25.956"/>
			<line x1="43.103" y1="-25.956" x2="40.641" y2="-25.956"/>
			<line x1="35.718" y1="-25.956" x2="33.256" y2="-25.956"/>
			<line x1="1.251" y1="-25.956" x2="3.713" y2="-25.956"/>
			<line x1="30.793" y1="-25.956" x2="33.256" y2="-25.956"/>
			<line x1="28.331" y1="-25.956" x2="30.793" y2="-25.956"/>
			<line x1="48.026" y1="-25.956" x2="45.564" y2="-25.956"/>
			<line x1="25.87" y1="-25.956" x2="23.407" y2="-25.956"/>
			<line x1="20.945" y1="-25.956" x2="23.407" y2="-25.956"/>
			<line x1="6.175" y1="-25.956" x2="8.637" y2="-25.956"/>
			<line x1="16.022" y1="-25.956" x2="18.483" y2="-25.956"/>
			<line x1="38.18" y1="-25.956" x2="35.718" y2="-25.956"/>
			<line x1="11.099" y1="-25.956" x2="13.561" y2="-25.956"/>
			<line x1="0" y1="-25.956" x2="1.251" y2="-25.956"/>
			<line x1="40.641" y1="-25.956" x2="38.18" y2="-25.956"/>
			<line x1="50.488" y1="-25.956" x2="48.026" y2="-25.956"/>
			<line x1="18.483" y1="-28.418" x2="20.945" y2="-28.418"/>
			<line x1="54.125" y1="-28.418" x2="52.95" y2="-28.418"/>
			<line x1="13.561" y1="-28.418" x2="16.022" y2="-28.418"/>
			<line x1="33.256" y1="-28.418" x2="30.793" y2="-28.418"/>
			<line x1="23.407" y1="-28.418" x2="20.945" y2="-28.418"/>
			<line x1="8.637" y1="-28.418" x2="11.099" y2="-28.418"/>
			<line x1="35.718" y1="-28.418" x2="33.256" y2="-28.418"/>
			<line x1="45.564" y1="-28.418" x2="43.103" y2="-28.418"/>
			<line x1="38.18" y1="-28.418" x2="35.718" y2="-28.418"/>
			<line x1="16.022" y1="-28.418" x2="18.483" y2="-28.418"/>
			<line x1="0" y1="-28.418" x2="1.251" y2="-28.418"/>
			<line x1="1.251" y1="-28.418" x2="3.713" y2="-28.418"/>
			<line x1="40.641" y1="-28.418" x2="38.18" y2="-28.418"/>
			<line x1="23.407" y1="-28.418" x2="25.87" y2="-28.418"/>
			<line x1="52.95" y1="-28.418" x2="50.488" y2="-28.418"/>
			<line x1="6.175" y1="-28.418" x2="8.637" y2="-28.418"/>
			<line x1="11.099" y1="-28.418" x2="13.561" y2="-28.418"/>
			<line x1="50.488" y1="-28.418" x2="48.026" y2="-28.418"/>
			<line x1="28.331" y1="-28.418" x2="25.87" y2="-28.418"/>
			<line x1="30.793" y1="-28.418" x2="28.331" y2="-28.418"/>
			<line x1="48.026" y1="-28.418" x2="45.564" y2="-28.418"/>
			<line x1="3.713" y1="-28.418" x2="6.175" y2="-28.418"/>
			<line x1="43.103" y1="-28.418" x2="40.641" y2="-28.418"/>
			<line x1="16.022" y1="-30.88" x2="18.483" y2="-30.88"/>
			<line x1="20.945" y1="-30.88" x2="18.483" y2="-30.88"/>
			<line x1="35.718" y1="-30.88" x2="33.256" y2="-30.88"/>
			<line x1="20.945" y1="-30.88" x2="23.407" y2="-30.88"/>
			<line x1="33.256" y1="-30.88" x2="30.793" y2="-30.88"/>
			<line x1="11.099" y1="-30.88" x2="13.561" y2="-30.88"/>
			<line x1="30.793" y1="-30.88" x2="28.331" y2="-30.88"/>
			<line x1="43.103" y1="-30.88" x2="40.641" y2="-30.88"/>
			<line x1="13.561" y1="-30.88" x2="16.022" y2="-30.88"/>
			<line x1="25.87" y1="-30.88" x2="23.407" y2="-30.88"/>
			<line x1="40.641" y1="-30.88" x2="38.18" y2="-30.88"/>
			<line x1="38.18" y1="-30.88" x2="35.718" y2="-30.88"/>
			<line x1="28.331" y1="-30.88" x2="25.87" y2="-30.88"/>
			<line x1="1.251" y1="-30.88" x2="3.713" y2="-30.88"/>
			<line x1="3.713" y1="-30.88" x2="6.175" y2="-30.88"/>
			<line x1="8.637" y1="-30.88" x2="11.099" y2="-30.88"/>
			<line x1="48.026" y1="-30.88" x2="45.564" y2="-30.88"/>
			<line x1="52.95" y1="-30.88" x2="50.488" y2="-30.88"/>
			<line x1="45.564" y1="-30.88" x2="43.103" y2="-30.88"/>
			<line x1="54.125" y1="-30.88" x2="52.95" y2="-30.88"/>
			<line x1="0" y1="-30.88" x2="1.251" y2="-30.88"/>
			<line x1="6.175" y1="-30.88" x2="8.637" y2="-30.88"/>
			<line x1="50.488" y1="-30.88" x2="48.026" y2="-30.88"/>
			<line x1="1.251" y1="-33.342" x2="3.713" y2="-33.342"/>
			<line x1="50.488" y1="-33.342" x2="48.026" y2="-33.342"/>
			<line x1="54.125" y1="-33.342" x2="52.95" y2="-33.342"/>
			<line x1="11.099" y1="-33.342" x2="13.561" y2="-33.342"/>
			<line x1="43.103" y1="-33.342" x2="40.641" y2="-33.342"/>
			<line x1="3.713" y1="-33.342" x2="6.175" y2="-33.342"/>
			<line x1="52.95" y1="-33.342" x2="50.488" y2="-33.342"/>
			<line x1="25.87" y1="-33.342" x2="23.407" y2="-33.342"/>
			<line x1="33.256" y1="-33.342" x2="30.793" y2="-33.342"/>
			<line x1="30.793" y1="-33.342" x2="28.331" y2="-33.342"/>
			<line x1="35.718" y1="-33.342" x2="33.256" y2="-33.342"/>
			<line x1="28.331" y1="-33.342" x2="25.87" y2="-33.342"/>
			<line x1="38.18" y1="-33.342" x2="35.718" y2="-33.342"/>
			<line x1="13.561" y1="-33.342" x2="16.022" y2="-33.342"/>
			<line x1="40.641" y1="-33.342" x2="38.18" y2="-33.342"/>
			<line x1="18.483" y1="-33.342" x2="16.022" y2="-33.342"/>
			<line x1="0" y1="-33.342" x2="1.251" y2="-33.342"/>
			<line x1="18.483" y1="-33.342" x2="20.945" y2="-33.342"/>
			<line x1="6.175" y1="-33.342" x2="8.637" y2="-33.342"/>
			<line x1="23.407" y1="-33.342" x2="20.945" y2="-33.342"/>
			<line x1="8.637" y1="-33.342" x2="11.099" y2="-33.342"/>
			<line x1="45.564" y1="-33.342" x2="43.103" y2="-33.342"/>
			<line x1="48.026" y1="-33.342" x2="45.564" y2="-33.342"/>
			<line x1="11.099" y1="-35.804" x2="13.561" y2="-35.804"/>
			<line x1="54.125" y1="-35.804" x2="52.95" y2="-35.804"/>
			<line x1="48.026" y1="-35.804" x2="45.564" y2="-35.804"/>
			<line x1="28.331" y1="-35.804" x2="25.87" y2="-35.804"/>
			<line x1="52.95" y1="-35.804" x2="50.488" y2="-35.804"/>
			<line x1="16.022" y1="-35.804" x2="13.561" y2="-35.804"/>
			<line x1="35.718" y1="-35.804" x2="33.256" y2="-35.804"/>
			<line x1="3.713" y1="-35.804" x2="6.175" y2="-35.804"/>
			<line x1="33.256" y1="-35.804" x2="30.793" y2="-35.804"/>
			<line x1="30.793" y1="-35.804" x2="28.331" y2="-35.804"/>
			<line x1="38.18" y1="-35.804" x2="35.718" y2="-35.804"/>
			<line x1="16.022" y1="-35.804" x2="18.483" y2="-35.804"/>
			<line x1="45.564" y1="-35.804" x2="43.103" y2="-35.804"/>
			<line x1="25.87" y1="-35.804" x2="23.407" y2="-35.804"/>
			<line x1="1.251" y1="-35.804" x2="3.713" y2="-35.804"/>
			<line x1="43.103" y1="-35.804" x2="40.641" y2="-35.804"/>
			<line x1="40.641" y1="-35.804" x2="38.18" y2="-35.804"/>
			<line x1="20.945" y1="-35.804" x2="18.483" y2="-35.804"/>
			<line x1="23.407" y1="-35.804" x2="20.945" y2="-35.804"/>
			<line x1="6.175" y1="-35.804" x2="8.637" y2="-35.804"/>
			<line x1="50.488" y1="-35.804" x2="48.026" y2="-35.804"/>
			<line x1="8.637" y1="-35.804" x2="11.099" y2="-35.804"/>
			<line x1="0" y1="-35.804" x2="1.251" y2="-35.804"/>
			<line x1="8.637" y1="-38.265" x2="11.099" y2="-38.265"/>
			<line x1="30.793" y1="-38.265" x2="28.331" y2="-38.265"/>
			<line x1="28.331" y1="-38.265" x2="25.87" y2="-38.265"/>
			<line x1="38.18" y1="-38.265" x2="35.718" y2="-38.265"/>
			<line x1="40.641" y1="-38.265" x2="38.18" y2="-38.265"/>
			<line x1="35.718" y1="-38.265" x2="33.256" y2="-38.265"/>
			<line x1="33.256" y1="-38.265" x2="30.793" y2="-38.265"/>
			<line x1="13.561" y1="-38.265" x2="11.099" y2="-38.265"/>
			<line x1="20.945" y1="-38.265" x2="18.483" y2="-38.265"/>
			<line x1="6.175" y1="-38.265" x2="8.637" y2="-38.265"/>
			<line x1="1.251" y1="-38.265" x2="3.713" y2="-38.265"/>
			<line x1="0" y1="-38.265" x2="1.251" y2="-38.265"/>
			<line x1="43.103" y1="-38.265" x2="40.641" y2="-38.265"/>
			<line x1="50.488" y1="-38.265" x2="48.026" y2="-38.265"/>
			<line x1="45.564" y1="-38.265" x2="43.103" y2="-38.265"/>
			<line x1="48.026" y1="-38.265" x2="45.564" y2="-38.265"/>
			<line x1="23.407" y1="-38.265" x2="20.945" y2="-38.265"/>
			<line x1="25.87" y1="-38.265" x2="23.407" y2="-38.265"/>
			<line x1="54.125" y1="-38.265" x2="52.95" y2="-38.265"/>
			<line x1="18.483" y1="-38.265" x2="16.022" y2="-38.265"/>
			<line x1="3.713" y1="-38.265" x2="6.175" y2="-38.265"/>
			<line x1="52.95" y1="-38.265" x2="50.488" y2="-38.265"/>
			<line x1="13.561" y1="-38.265" x2="16.022" y2="-38.265"/>
			<line x1="54.125" y1="-40.727" x2="52.95" y2="-40.727"/>
			<line x1="40.641" y1="-40.727" x2="38.18" y2="-40.727"/>
			<line x1="23.407" y1="-40.727" x2="20.945" y2="-40.727"/>
			<line x1="18.483" y1="-40.727" x2="16.022" y2="-40.727"/>
			<line x1="0" y1="-40.727" x2="1.251" y2="-40.727"/>
			<line x1="25.87" y1="-40.727" x2="23.407" y2="-40.727"/>
			<line x1="28.331" y1="-40.727" x2="25.87" y2="-40.727"/>
			<line x1="20.945" y1="-40.727" x2="18.483" y2="-40.727"/>
			<line x1="16.022" y1="-40.727" x2="13.561" y2="-40.727"/>
			<line x1="38.18" y1="-40.727" x2="35.718" y2="-40.727"/>
			<line x1="30.793" y1="-40.727" x2="28.331" y2="-40.727"/>
			<line x1="43.103" y1="-40.727" x2="40.641" y2="-40.727"/>
			<line x1="35.718" y1="-40.727" x2="33.256" y2="-40.727"/>
			<line x1="1.251" y1="-40.727" x2="3.713" y2="-40.727"/>
			<line x1="33.256" y1="-40.727" x2="30.793" y2="-40.727"/>
			<line x1="11.099" y1="-40.727" x2="13.561" y2="-40.727"/>
			<line x1="48.026" y1="-40.727" x2="45.564" y2="-40.727"/>
			<line x1="52.95" y1="-40.727" x2="50.488" y2="-40.727"/>
			<line x1="45.564" y1="-40.727" x2="43.103" y2="-40.727"/>
			<line x1="11.099" y1="-40.727" x2="8.637" y2="-40.727"/>
			<line x1="50.488" y1="-40.727" x2="48.026" y2="-40.727"/>
			<line x1="3.713" y1="-40.727" x2="6.175" y2="-40.727"/>
			<line x1="6.175" y1="-40.727" x2="8.637" y2="-40.727"/>
			<line x1="54.125" y1="-43.188" x2="52.95" y2="-43.188"/>
			<line x1="38.18" y1="-43.188" x2="35.718" y2="-43.188"/>
			<line x1="52.95" y1="-43.188" x2="50.488" y2="-43.188"/>
			<line x1="40.641" y1="-43.188" x2="38.18" y2="-43.188"/>
			<line x1="35.718" y1="-43.188" x2="33.256" y2="-43.188"/>
			<line x1="48.026" y1="-43.188" x2="45.564" y2="-43.188"/>
			<line x1="45.564" y1="-43.188" x2="43.103" y2="-43.188"/>
			<line x1="0" y1="-43.188" x2="1.251" y2="-43.188"/>
			<line x1="50.488" y1="-43.188" x2="48.026" y2="-43.188"/>
			<line x1="3.713" y1="-43.188" x2="6.175" y2="-43.188"/>
			<line x1="30.793" y1="-43.188" x2="28.331" y2="-43.188"/>
			<line x1="8.637" y1="-43.188" x2="6.175" y2="-43.188"/>
			<line x1="43.103" y1="-43.188" x2="40.641" y2="-43.188"/>
			<line x1="33.256" y1="-43.188" x2="30.793" y2="-43.188"/>
			<line x1="13.561" y1="-43.188" x2="11.099" y2="-43.188"/>
			<line x1="8.637" y1="-43.188" x2="11.099" y2="-43.188"/>
			<line x1="16.022" y1="-43.188" x2="13.561" y2="-43.188"/>
			<line x1="20.945" y1="-43.188" x2="18.483" y2="-43.188"/>
			<line x1="18.483" y1="-43.188" x2="16.022" y2="-43.188"/>
			<line x1="23.407" y1="-43.188" x2="20.945" y2="-43.188"/>
			<line x1="1.251" y1="-43.188" x2="3.713" y2="-43.188"/>
			<line x1="28.331" y1="-43.188" x2="25.87" y2="-43.188"/>
			<line x1="25.87" y1="-43.188" x2="23.407" y2="-43.188"/>
			<line x1="18.483" y1="-45.65" x2="16.022" y2="-45.65"/>
			<line x1="20.945" y1="-45.65" x2="18.483" y2="-45.65"/>
			<line x1="25.87" y1="-45.65" x2="23.407" y2="-45.65"/>
			<line x1="23.407" y1="-45.65" x2="20.945" y2="-45.65"/>
			<line x1="40.641" y1="-45.65" x2="38.18" y2="-45.65"/>
			<line x1="38.18" y1="-45.65" x2="35.718" y2="-45.65"/>
			<line x1="43.103" y1="-45.65" x2="40.641" y2="-45.65"/>
			<line x1="45.564" y1="-45.65" x2="43.103" y2="-45.65"/>
			<line x1="30.793" y1="-45.65" x2="28.331" y2="-45.65"/>
			<line x1="33.256" y1="-45.65" x2="30.793" y2="-45.65"/>
			<line x1="48.026" y1="-45.65" x2="45.564" y2="-45.65"/>
			<line x1="28.331" y1="-45.65" x2="25.87" y2="-45.65"/>
			<line x1="35.718" y1="-45.65" x2="33.256" y2="-45.65"/>
			<line x1="54.125" y1="-45.65" x2="52.95" y2="-45.65"/>
			<line x1="52.95" y1="-45.65" x2="50.488" y2="-45.65"/>
			<line x1="50.488" y1="-45.65" x2="48.026" y2="-45.65"/>
			<line x1="0" y1="-45.65" x2="1.251" y2="-45.65"/>
			<line x1="6.175" y1="-45.65" x2="3.713" y2="-45.65"/>
			<line x1="6.175" y1="-45.65" x2="8.637" y2="-45.65"/>
			<line x1="11.099" y1="-45.65" x2="8.637" y2="-45.65"/>
			<line x1="13.561" y1="-45.65" x2="11.099" y2="-45.65"/>
			<line x1="1.251" y1="-45.65" x2="3.713" y2="-45.65"/>
			<line x1="16.022" y1="-45.65" x2="13.561" y2="-45.65"/>
			<line x1="3.713" y1="-48.113" x2="1.251" y2="-48.113"/>
			<line x1="0" y1="-48.113" x2="1.251" y2="-48.113"/>
			<line x1="40.641" y1="-48.113" x2="38.18" y2="-48.113"/>
			<line x1="20.945" y1="-48.113" x2="18.483" y2="-48.113"/>
			<line x1="18.483" y1="-48.113" x2="16.022" y2="-48.113"/>
			<line x1="23.407" y1="-48.113" x2="20.945" y2="-48.113"/>
			<line x1="8.637" y1="-48.113" x2="6.175" y2="-48.113"/>
			<line x1="13.561" y1="-48.113" x2="11.099" y2="-48.113"/>
			<line x1="25.87" y1="-48.113" x2="23.407" y2="-48.113"/>
			<line x1="16.022" y1="-48.113" x2="13.561" y2="-48.113"/>
			<line x1="35.718" y1="-48.113" x2="33.256" y2="-48.113"/>
			<line x1="38.18" y1="-48.113" x2="35.718" y2="-48.113"/>
			<line x1="30.793" y1="-48.113" x2="28.331" y2="-48.113"/>
			<line x1="33.256" y1="-48.113" x2="30.793" y2="-48.113"/>
			<line x1="28.331" y1="-48.113" x2="25.87" y2="-48.113"/>
			<line x1="11.099" y1="-48.113" x2="8.637" y2="-48.113"/>
			<line x1="52.95" y1="-48.113" x2="50.488" y2="-48.113"/>
			<line x1="54.125" y1="-48.113" x2="52.95" y2="-48.113"/>
			<line x1="50.488" y1="-48.113" x2="48.026" y2="-48.113"/>
			<line x1="48.026" y1="-48.113" x2="45.564" y2="-48.113"/>
			<line x1="3.713" y1="-48.113" x2="6.175" y2="-48.113"/>
			<line x1="43.103" y1="-48.113" x2="40.641" y2="-48.113"/>
			<line x1="45.564" y1="-48.113" x2="43.103" y2="-48.113"/>
			<line x1="54.125" y1="-50.575" x2="52.95" y2="-50.575"/>
			<line x1="1.251" y1="-50.575" x2="0" y2="-50.575"/>
			<line x1="45.564" y1="-50.575" x2="43.103" y2="-50.575"/>
			<line x1="13.561" y1="-50.575" x2="11.099" y2="-50.575"/>
			<line x1="16.022" y1="-50.575" x2="13.561" y2="-50.575"/>
			<line x1="38.18" y1="-50.575" x2="35.718" y2="-50.575"/>
			<line x1="18.483" y1="-50.575" x2="16.022" y2="-50.575"/>
			<line x1="11.099" y1="-50.575" x2="8.637" y2="-50.575"/>
			<line x1="40.641" y1="-50.575" x2="38.18" y2="-50.575"/>
			<line x1="28.331" y1="-50.575" x2="25.87" y2="-50.575"/>
			<line x1="43.103" y1="-50.575" x2="40.641" y2="-50.575"/>
			<line x1="25.87" y1="-50.575" x2="23.407" y2="-50.575"/>
			<line x1="33.256" y1="-50.575" x2="30.793" y2="-50.575"/>
			<line x1="23.407" y1="-50.575" x2="20.945" y2="-50.575"/>
			<line x1="35.718" y1="-50.575" x2="33.256" y2="-50.575"/>
			<line x1="20.945" y1="-50.575" x2="18.483" y2="-50.575"/>
			<line x1="30.793" y1="-50.575" x2="28.331" y2="-50.575"/>
			<line x1="6.175" y1="-50.575" x2="3.713" y2="-50.575"/>
			<line x1="1.251" y1="-50.575" x2="3.713" y2="-50.575"/>
			<line x1="52.95" y1="-50.575" x2="50.488" y2="-50.575"/>
			<line x1="8.637" y1="-50.575" x2="6.175" y2="-50.575"/>
			<line x1="50.488" y1="-50.575" x2="48.026" y2="-50.575"/>
			<line x1="48.026" y1="-50.575" x2="45.564" y2="-50.575"/>
			<line x1="33.256" y1="-53.037" x2="30.793" y2="-53.037"/>
			<line x1="50.488" y1="-53.037" x2="48.026" y2="-53.037"/>
			<line x1="35.718" y1="-53.037" x2="33.256" y2="-53.037"/>
			<line x1="43.103" y1="-53.037" x2="40.641" y2="-53.037"/>
			<line x1="38.18" y1="-53.037" x2="35.718" y2="-53.037"/>
			<line x1="48.026" y1="-53.037" x2="45.564" y2="-53.037"/>
			<line x1="52.95" y1="-53.037" x2="50.488" y2="-53.037"/>
			<line x1="45.564" y1="-53.037" x2="43.103" y2="-53.037"/>
			<line x1="3.713" y1="-53.037" x2="1.251" y2="-53.037"/>
			<line x1="6.175" y1="-53.037" x2="3.713" y2="-53.037"/>
			<line x1="8.637" y1="-53.037" x2="6.175" y2="-53.037"/>
			<line x1="0" y1="-53.037" x2="1.251" y2="-53.037"/>
			<line x1="30.793" y1="-53.037" x2="28.331" y2="-53.037"/>
			<line x1="11.099" y1="-53.037" x2="8.637" y2="-53.037"/>
			<line x1="25.87" y1="-53.037" x2="23.407" y2="-53.037"/>
			<line x1="28.331" y1="-53.037" x2="25.87" y2="-53.037"/>
			<line x1="23.407" y1="-53.037" x2="20.945" y2="-53.037"/>
			<line x1="16.022" y1="-53.037" x2="13.561" y2="-53.037"/>
			<line x1="13.561" y1="-53.037" x2="11.099" y2="-53.037"/>
			<line x1="20.945" y1="-53.037" x2="18.483" y2="-53.037"/>
			<line x1="18.483" y1="-53.037" x2="16.022" y2="-53.037"/>
			<line x1="40.641" y1="-53.037" x2="38.18" y2="-53.037"/>
			<line x1="54.125" y1="-53.037" x2="52.95" y2="-53.037"/>
		</g>
	</g>
</svg>
