<?xml version="1.0" encoding="utf-8"?>
<svg xmlns="http://www.w3.org/2000/svg" version="1.1" x="0px" y="0px" xml:space="preserve" width="54.125" height="54.125" viewBox="0 -54.125 54.125 54.125">
	<metadata id="metadata2">
	<rdf:RDF
		xmlns:dc="http://purl.org/dc/elements/1.1/"
		xmlns:cc="http://creativecommons.org/ns#"
		xmlns:rdf="http://www.w3.org/1999/02/22-rdf-syntax-ns#"
		xmlns="http://my.netscape.com/rdf/simple/0.9/">
		<item rdf:ID="biblio1">
			<link>rdf:resource="http://pubs.usgs.gov/tm/2006/11A02/</link>
			<title>U.S. Geological Survey, 2006, FGDC Digital Cartographic Standard for Geologic Map Symbolization (PostScript Implementation): U.S. Geological Survey Techniques and Methods 11-A2</title>
		</item>
		<item rdf:ID="biblio2">
			<link>https://davenquinn.com/projects/geologic-patterns/</link>
			<title>FGDC Geologic Patterns for the Web</title>
		</item>
		<rdf:Description>
			<dc:description>Converted from 'FGDC Geologic Patterns for the Web' to QGIS compatible svg symbols, with customisable fill colour/stroke colour/stroke width (when appropriate)</dc:description>
			<dc:date>01 MARCH 2019</dc:date>
			<dc:creator>GeoProc.com</dc:creator>
			<dc:publisher rdf:resource="https://github.com/BC-Consulting/QGIS-FGDC-Fill" />
		</rdf:Description>
		<cc:Work rdf:about="">
			<dc:format>image/svg+xml</dc:format>
			<dc:type rdf:resource="http://purl.org/dc/dcmitype/StillImage" />
			<dc:title>FGDC fill symbol: Lithology - Sedimentary - 676 Interbedded Silty Limestone And Shale</dc:title>
		</cc:Work>
	</rdf:RDF>
	</metadata>
	<g>
		<rect y="-54.125" style="fill:none;stroke:none;" width="54.125" height="54.125"/>
        <g fill="param(outline) #000" stroke="param(outline) #000" stroke-width="param(outline-width) 0.7">
			<line x1="0" y1="-0.838" x2="5.926" y2="-0.838"/>
			<line x1="0" y1="-10.465" x2="1.517" y2="-10.465"/>
			<line x1="0" y1="-14.03" x2="3.809" y2="-14.03"/>
			<line x1="0" y1="-16.013" x2="54.125" y2="-16.013"/>
			<line x1="0" y1="-19.238" x2="54.125" y2="-19.238"/>
			<line x1="0" y1="-23.438" x2="54.125" y2="-23.438"/>
			<line x1="0" y1="-27.238" x2="54.125" y2="-27.238"/>
			<line x1="0" y1="-32.958" x2="3.101" y2="-32.958"/>
			<line x1="0" y1="-34.713" x2="54.125" y2="-34.713"/>
			<line x1="0" y1="-4.212" x2="54.125" y2="-4.212"/>
			<line x1="0" y1="-42.013" x2="54.125" y2="-42.013"/>
			<line x1="0" y1="-48.2" x2="4.122" y2="-48.2"/>
			<line x1="0" y1="-8.625" x2="54.125" y2="-8.625"/>
			<line x1="1.456" y1="-39.97" x2="7.825" y2="-39.97"/>
			<line x1="1.523" y1="-2.469" x2="7.892" y2="-2.469"/>
			<line x1="10.373" y1="-39.97" x2="16.741" y2="-39.97"/>
			<line x1="10.467" y1="-10.465" x2="4.098" y2="-10.465"/>
			<line x1="12.425" y1="-17.607" x2="6.056" y2="-17.607"/>
			<line x1="13.072" y1="-48.2" x2="6.703" y2="-48.2"/>
			<line x1="14.559" y1="-6.142" x2="7.309" y2="-6.142"/>
			<line x1="14.598" y1="-32.958" x2="20.966" y2="-32.958"/>
			<line x1="15.684" y1="-21.28" x2="8.434" y2="-21.28"/>
			<line x1="15.809" y1="-36.28" x2="8.559" y2="-36.28"/>
			<line x1="16.842" y1="-2.469" x2="10.473" y2="-2.469"/>
			<line x1="17.05" y1="-25.25" x2="10.681" y2="-25.25"/>
			<line x1="17.571" y1="-8.588" x2="17.571" y2="-4.238"/>
			<line x1="18.525" y1="-23.388" x2="18.525" y2="-19.25"/>
			<line x1="18.676" y1="-0.838" x2="18.676" y2="-0.001"/>
			<line x1="18.676" y1="-0.838" x2="18.676" y2="-0.85"/>
			<line x1="18.676" y1="-0.838" x2="32.176" y2="-0.838"/>
			<line x1="18.676" y1="-0.838" x2="5.926" y2="-0.838"/>
			<line x1="18.676" y1="-37.994" x2="18.676" y2="-34.725"/>
			<line x1="18.676" y1="-37.994" x2="5.926" y2="-37.994"/>
			<line x1="18.676" y1="-38.025" x2="18.676" y2="-37.994"/>
			<line x1="18.676" y1="-54.125" x2="18.676" y2="-50.375"/>
			<line x1="19.289" y1="-39.97" x2="25.658" y2="-39.97"/>
			<line x1="19.383" y1="-10.465" x2="13.014" y2="-10.465"/>
			<line x1="19.389" y1="-2.469" x2="25.758" y2="-2.469"/>
			<line x1="2.634" y1="-29.142" x2="0.009" y2="-29.142"/>
			<line x1="20.134" y1="-15.963" x2="20.134" y2="-12.4"/>
			<line x1="20.163" y1="-31.288" x2="20.163" y2="-27.25"/>
			<line x1="20.163" y1="-31.288" x2="6.663" y2="-31.288"/>
			<line x1="20.163" y1="-31.3" x2="20.163" y2="-31.288"/>
			<line x1="20.288" y1="-46.075" x2="20.288" y2="-42.025"/>
			<line x1="21.341" y1="-17.607" x2="14.973" y2="-17.607"/>
			<line x1="21.988" y1="-48.2" x2="15.619" y2="-48.2"/>
			<line x1="23.514" y1="-32.958" x2="29.883" y2="-32.958"/>
			<line x1="23.559" y1="-14.142" x2="30.809" y2="-14.142"/>
			<line x1="25.966" y1="-25.25" x2="19.598" y2="-25.25"/>
			<line x1="28.3" y1="-10.465" x2="21.931" y2="-10.465"/>
			<line x1="28.306" y1="-2.469" x2="34.675" y2="-2.469"/>
			<line x1="3.476" y1="-17.607" x2="0" y2="-17.607"/>
			<line x1="30.258" y1="-17.607" x2="23.889" y2="-17.607"/>
			<line x1="30.559" y1="-29.28" x2="23.309" y2="-29.28"/>
			<line x1="30.759" y1="-44.142" x2="23.509" y2="-44.142"/>
			<line x1="30.905" y1="-48.2" x2="24.536" y2="-48.2"/>
			<line x1="31.571" y1="-8.588" x2="31.571" y2="-4.238"/>
			<line x1="31.926" y1="-37.994" x2="18.676" y2="-37.994"/>
			<line x1="31.926" y1="-37.994" x2="31.926" y2="-34.725"/>
			<line x1="31.926" y1="-37.994" x2="31.926" y2="-38.025"/>
			<line x1="31.926" y1="-37.994" x2="46.551" y2="-37.994"/>
			<line x1="32.15" y1="-23.388" x2="32.15" y2="-19.25"/>
			<line x1="32.176" y1="-0.001" x2="32.176" y2="-0.838"/>
			<line x1="32.176" y1="-0.85" x2="32.176" y2="-0.838"/>
			<line x1="32.176" y1="-50.375" x2="18.676" y2="-50.375"/>
			<line x1="32.176" y1="-50.375" x2="32.176" y2="-54.125"/>
			<line x1="32.176" y1="-50.375" x2="46.551" y2="-50.375"/>
			<line x1="32.431" y1="-32.958" x2="38.8" y2="-32.958"/>
			<line x1="33.453" y1="-48.2" x2="39.822" y2="-48.2"/>
			<line x1="33.759" y1="-12.4" x2="20.134" y2="-12.4"/>
			<line x1="33.759" y1="-12.4" x2="33.759" y2="-15.963"/>
			<line x1="33.759" y1="-12.4" x2="48.634" y2="-12.4"/>
			<line x1="33.788" y1="-31.288" x2="20.163" y2="-31.288"/>
			<line x1="33.788" y1="-31.288" x2="33.788" y2="-27.25"/>
			<line x1="33.788" y1="-31.3" x2="33.788" y2="-31.288"/>
			<line x1="33.851" y1="-46.075" x2="33.851" y2="-42.025"/>
			<line x1="34.575" y1="-39.97" x2="28.206" y2="-39.97"/>
			<line x1="34.883" y1="-25.25" x2="28.514" y2="-25.25"/>
			<line x1="35.884" y1="-52.467" x2="43.134" y2="-52.467"/>
			<line x1="37.216" y1="-10.465" x2="30.847" y2="-10.465"/>
			<line x1="37.222" y1="-2.469" x2="43.591" y2="-2.469"/>
			<line x1="39.175" y1="-17.607" x2="32.806" y2="-17.607"/>
			<line x1="4.434" y1="-44.142" x2="0" y2="-44.142"/>
			<line x1="4.571" y1="-8.588" x2="4.571" y2="-4.238"/>
			<line x1="41.347" y1="-32.958" x2="47.716" y2="-32.958"/>
			<line x1="42.559" y1="-6.28" x2="35.309" y2="-6.28"/>
			<line x1="42.684" y1="-36.392" x2="35.434" y2="-36.392"/>
			<line x1="43.059" y1="-21.392" x2="35.809" y2="-21.392"/>
			<line x1="43.491" y1="-39.97" x2="37.122" y2="-39.97"/>
			<line x1="43.8" y1="-25.25" x2="37.431" y2="-25.25"/>
			<line x1="46.039" y1="-39.97" x2="52.408" y2="-39.97"/>
			<line x1="46.133" y1="-10.465" x2="39.764" y2="-10.465"/>
			<line x1="46.134" y1="-8.588" x2="46.134" y2="-4.238"/>
			<line x1="46.139" y1="-2.469" x2="52.508" y2="-2.469"/>
			<line x1="46.4" y1="-19.25" x2="46.4" y2="-23.388"/>
			<line x1="46.551" y1="-0.838" x2="32.176" y2="-0.838"/>
			<line x1="46.551" y1="-0.838" x2="46.551" y2="-0.001"/>
			<line x1="46.551" y1="-0.838" x2="46.551" y2="-0.85"/>
			<line x1="46.551" y1="-0.838" x2="54.125" y2="-0.838"/>
			<line x1="46.551" y1="-34.725" x2="46.551" y2="-37.994"/>
			<line x1="46.551" y1="-37.994" x2="54.125" y2="-37.994"/>
			<line x1="46.551" y1="-38.025" x2="46.551" y2="-37.994"/>
			<line x1="46.551" y1="-54.125" x2="46.551" y2="-50.375"/>
			<line x1="48.091" y1="-17.607" x2="41.722" y2="-17.607"/>
			<line x1="48.634" y1="-12.4" x2="48.634" y2="-15.963"/>
			<line x1="48.634" y1="-12.4" x2="54.125" y2="-12.4"/>
			<line x1="48.663" y1="-31.288" x2="33.788" y2="-31.288"/>
			<line x1="48.663" y1="-31.288" x2="48.663" y2="-27.25"/>
			<line x1="48.663" y1="-31.288" x2="48.663" y2="-31.3"/>
			<line x1="48.663" y1="-31.288" x2="54.125" y2="-31.288"/>
			<line x1="48.681" y1="-10.465" x2="54.125" y2="-10.465"/>
			<line x1="48.738" y1="-48.2" x2="42.369" y2="-48.2"/>
			<line x1="48.788" y1="-46.075" x2="48.788" y2="-42.025"/>
			<line x1="5.525" y1="-23.388" x2="5.525" y2="-19.25"/>
			<line x1="5.681" y1="-32.958" x2="12.05" y2="-32.958"/>
			<line x1="5.926" y1="-0.001" x2="5.926" y2="-0.838"/>
			<line x1="5.926" y1="-0.85" x2="5.926" y2="-0.838"/>
			<line x1="5.926" y1="-37.994" x2="0" y2="-37.994"/>
			<line x1="5.926" y1="-37.994" x2="5.926" y2="-34.725"/>
			<line x1="5.926" y1="-38.025" x2="5.926" y2="-37.994"/>
			<line x1="5.926" y1="-50.375" x2="0" y2="-50.375"/>
			<line x1="5.926" y1="-50.375" x2="18.676" y2="-50.375"/>
			<line x1="5.926" y1="-50.375" x2="5.926" y2="-54.125"/>
			<line x1="50.264" y1="-32.958" x2="54.125" y2="-32.958"/>
			<line x1="50.639" y1="-17.607" x2="54.125" y2="-17.607"/>
			<line x1="51.259" y1="-14.03" x2="54.071" y2="-14.03"/>
			<line x1="51.286" y1="-48.2" x2="54.125" y2="-48.2"/>
			<line x1="52.716" y1="-25.25" x2="46.347" y2="-25.25"/>
			<line x1="54.071" y1="-44.142" x2="51.259" y2="-44.142"/>
			<line x1="54.092" y1="-29.142" x2="51.309" y2="-29.142"/>
			<line x1="54.125" y1="-46.2" x2="0" y2="-46.2"/>
			<line x1="54.125" y1="-50.375" x2="46.551" y2="-50.375"/>
			<line x1="6.663" y1="-31.288" x2="0" y2="-31.288"/>
			<line x1="6.663" y1="-31.288" x2="6.663" y2="-27.25"/>
			<line x1="6.663" y1="-31.3" x2="6.663" y2="-31.288"/>
			<line x1="6.884" y1="-12.4" x2="0" y2="-12.4"/>
			<line x1="6.884" y1="-12.4" x2="20.134" y2="-12.4"/>
			<line x1="6.884" y1="-12.4" x2="6.884" y2="-15.963"/>
			<line x1="7.038" y1="-46.075" x2="7.038" y2="-42.025"/>
			<line x1="8.101" y1="-25.25" x2="1.731" y2="-25.25"/>
			<line x1="8.759" y1="-52.467" x2="16.009" y2="-52.467"/>
			<circle cx="1.726" cy="-6.321" r="0.4"/>
			<circle cx="1.892" cy="-52.438" r="0.4"/>
			<circle cx="1.959" cy="-36.254" r="0.4"/>
			<circle cx="10.392" cy="-29.254" r="0.4"/>
			<circle cx="10.559" cy="-44.155" r="0.4"/>
			<circle cx="10.726" cy="-14.088" r="0.4"/>
			<circle cx="13.559" cy="-29.254" r="0.4"/>
			<circle cx="13.726" cy="-44.155" r="0.4"/>
			<circle cx="13.892" cy="-14.088" r="0.4"/>
			<circle cx="16.559" cy="-29.254" r="0.4"/>
			<circle cx="16.726" cy="-44.155" r="0.4"/>
			<circle cx="16.892" cy="-14.088" r="0.4"/>
			<circle cx="2.392" cy="-21.254" r="0.4"/>
			<circle cx="21.892" cy="-6.321" r="0.4"/>
			<circle cx="22.059" cy="-36.254" r="0.4"/>
			<circle cx="22.226" cy="-52.438" r="0.4"/>
			<circle cx="22.392" cy="-21.254" r="0.4"/>
			<circle cx="25.059" cy="-6.321" r="0.4"/>
			<circle cx="25.342" cy="-52.438" r="0.4"/>
			<circle cx="25.392" cy="-36.254" r="0.4"/>
			<circle cx="25.559" cy="-21.254" r="0.4"/>
			<circle cx="28.059" cy="-6.321" r="0.4"/>
			<circle cx="28.092" cy="-52.438" r="0.4"/>
			<circle cx="28.226" cy="-36.254" r="0.4"/>
			<circle cx="28.559" cy="-21.254" r="0.4"/>
			<circle cx="37.726" cy="-44.155" r="0.4"/>
			<circle cx="38.226" cy="-29.254" r="0.4"/>
			<circle cx="38.392" cy="-14.088" r="0.4"/>
			<circle cx="41.392" cy="-29.254" r="0.4"/>
			<circle cx="41.392" cy="-44.155" r="0.4"/>
			<circle cx="41.559" cy="-14.088" r="0.4"/>
			<circle cx="44.392" cy="-29.254" r="0.4"/>
			<circle cx="44.559" cy="-14.088" r="0.4"/>
			<circle cx="44.559" cy="-44.155" r="0.4"/>
			<circle cx="49.892" cy="-21.254" r="0.4"/>
			<circle cx="49.892" cy="-36.254" r="0.4"/>
			<circle cx="49.892" cy="-6.321" r="0.4"/>
			<circle cx="51.059" cy="-52.438" r="0.4"/>
			<circle cx="53.059" cy="-21.254" r="0.4"/>
			<circle cx="53.059" cy="-6.321" r="0.4"/>
			<circle cx="53.226" cy="-36.254" r="0.4"/>
			<circle cx="53.392" cy="-52.438" r="0.4"/>
		</g>
	</g>
</svg>