<?xml version="1.0" encoding="utf-8"?>
<svg xmlns="http://www.w3.org/2000/svg" version="1.1" x="0px" y="0px" xml:space="preserve" width="48.712" height="48.712" viewBox="0 -48.713 48.712 48.712">
	<metadata id="metadata2">
	<rdf:RDF
		xmlns:dc="http://purl.org/dc/elements/1.1/"
		xmlns:cc="http://creativecommons.org/ns#"
		xmlns:rdf="http://www.w3.org/1999/02/22-rdf-syntax-ns#"
		xmlns="http://my.netscape.com/rdf/simple/0.9/">
		<item rdf:ID="biblio1">
			<link>rdf:resource="http://pubs.usgs.gov/tm/2006/11A02/</link>
			<title>U.S. Geological Survey, 2006, FGDC Digital Cartographic Standard for Geologic Map Symbolization (PostScript Implementation): U.S. Geological Survey Techniques and Methods 11-A2</title>
		</item>
		<item rdf:ID="biblio2">
			<link>https://davenquinn.com/projects/geologic-patterns/</link>
			<title>FGDC Geologic Patterns for the Web</title>
		</item>
		<rdf:Description>
			<dc:description>Converted from 'FGDC Geologic Patterns for the Web' to QGIS compatible svg symbols, with customisable fill colour/stroke colour/stroke width (when appropriate)</dc:description>
			<dc:date>01 MARCH 2019</dc:date>
			<dc:creator>GeoProc.com</dc:creator>
			<dc:publisher rdf:resource="https://github.com/BC-Consulting/QGIS-FGDC-Fill" />
		</rdf:Description>
		<cc:Work rdf:about="">
			<dc:format>image/svg+xml</dc:format>
			<dc:type rdf:resource="http://purl.org/dc/dcmitype/StillImage" />
			<dc:title>FGDC fill symbol: Lithology - Sedimentary - 679 Interbedded Limestone And Shale Limestone Dominant</dc:title>
		</cc:Work>
	</rdf:RDF>
	</metadata>
	<g>
		<rect x="0" y="-48.713" style="fill:none;stroke:none;" width="48.712" height="48.712"/>
        <g style="fill:none;" stroke="param(outline) #000" stroke-width="param(outline-width) 0.8">
			<line x1="3.52" y1="-34.511" x2="0" y2="-34.511"/>
			<line x1="5.812" y1="-34.511" x2="11.545" y2="-34.511"/>
			<line x1="13.838" y1="-34.511" x2="19.569" y2="-34.511"/>
			<line x1="21.862" y1="-34.511" x2="27.595" y2="-34.511"/>
			<line x1="29.888" y1="-34.511" x2="35.619" y2="-34.511"/>
			<line x1="37.912" y1="-34.511" x2="43.645" y2="-34.511"/>
			<line x1="48.712" y1="-34.511" x2="45.938" y2="-34.511"/>
			<line x1="0" y1="-31.304" x2="0.768" y2="-31.304"/>
			<line x1="8.822" y1="-31.304" x2="3.09" y2="-31.304"/>
			<line x1="16.847" y1="-31.304" x2="11.115" y2="-31.304"/>
			<line x1="24.872" y1="-31.304" x2="19.14" y2="-31.304"/>
			<line x1="32.896" y1="-31.304" x2="27.165" y2="-31.304"/>
			<line x1="40.922" y1="-31.304" x2="35.189" y2="-31.304"/>
			<line x1="43.215" y1="-31.304" x2="48.712" y2="-31.304"/>
			<line x1="0" y1="-10.808" x2="3.52" y2="-10.808"/>
			<line x1="5.812" y1="-10.808" x2="11.545" y2="-10.808"/>
			<line x1="13.838" y1="-10.808" x2="19.569" y2="-10.808"/>
			<line x1="21.862" y1="-10.808" x2="27.595" y2="-10.808"/>
			<line x1="29.888" y1="-10.808" x2="35.619" y2="-10.808"/>
			<line x1="37.912" y1="-10.808" x2="43.645" y2="-10.808"/>
			<line x1="45.938" y1="-10.808" x2="48.712" y2="-10.808"/>
			<line x1="0" y1="-6.938" x2="0.768" y2="-6.938"/>
			<line x1="8.822" y1="-6.938" x2="3.09" y2="-6.938"/>
			<line x1="16.847" y1="-6.938" x2="11.115" y2="-6.938"/>
			<line x1="19.14" y1="-6.938" x2="24.872" y2="-6.938"/>
			<line x1="32.896" y1="-6.938" x2="27.165" y2="-6.938"/>
			<line x1="40.922" y1="-6.938" x2="35.189" y2="-6.938"/>
			<line x1="43.215" y1="-6.938" x2="48.712" y2="-6.938"/>
			<line x1="48.532" y1="-45.281" x2="41.895" y2="-45.281"/>
			<line x1="0" y1="-45.281" x2="5.333" y2="-45.281"/>
			<line x1="41.895" y1="-45.281" x2="36.99" y2="-45.281"/>
			<line x1="48.532" y1="-45.281" x2="48.712" y2="-45.281"/>
			<line x1="24.728" y1="-45.281" x2="16.808" y2="-45.281"/>
			<line x1="28.957" y1="-45.281" x2="36.99" y2="-45.281"/>
			<line x1="28.957" y1="-45.281" x2="24.728" y2="-45.281"/>
			<line x1="11.34" y1="-45.281" x2="16.808" y2="-45.281"/>
			<line x1="11.34" y1="-45.281" x2="5.333" y2="-45.281"/>
			<line x1="48.712" y1="-41.523" x2="0" y2="-41.523"/>
			<line x1="18.146" y1="-28.102" x2="30.408" y2="-28.102"/>
			<line x1="43.796" y1="-28.102" x2="48.712" y2="-28.102"/>
			<line x1="43.796" y1="-28.102" x2="30.408" y2="-28.102"/>
			<line x1="18.146" y1="-28.102" x2="5.996" y2="-28.102"/>
			<line x1="5.996" y1="-28.102" x2="0" y2="-28.102"/>
			<line x1="48.712" y1="-24.457" x2="0" y2="-24.457"/>
			<line x1="48.712" y1="-21.037" x2="0" y2="-21.037"/>
			<line x1="48.712" y1="-17.257" x2="0" y2="-17.257"/>
			<line x1="9.267" y1="-0.697" x2="16.808" y2="-0.697"/>
			<line x1="28.957" y1="-0.697" x2="34.522" y2="-0.697"/>
			<line x1="41.895" y1="-0.697" x2="34.522" y2="-0.697"/>
			<line x1="46.56" y1="-0.697" x2="41.895" y2="-0.697"/>
			<line x1="46.56" y1="-0.697" x2="48.712" y2="-0.697"/>
			<line x1="22.26" y1="-0.697" x2="28.957" y2="-0.697"/>
			<line x1="9.267" y1="-0.697" x2="5.333" y2="-0.697"/>
			<line x1="16.808" y1="-0.697" x2="22.26" y2="-0.697"/>
			<line x1="0" y1="-0.697" x2="5.333" y2="-0.697"/>
			<line x1="5.333" y1="-45.281" x2="5.333" y2="-48.713"/>
			<line x1="16.808" y1="-45.281" x2="16.808" y2="-48.713"/>
			<line x1="28.957" y1="-45.281" x2="28.957" y2="-48.713"/>
			<line x1="41.895" y1="-45.281" x2="41.895" y2="-48.713"/>
			<line x1="5.333" y1="-0.697" x2="5.333" y2="-0.001"/>
			<line x1="5.333" y1="-0.709" x2="5.333" y2="-0.697"/>
			<line x1="16.808" y1="-0.709" x2="16.808" y2="-0.697"/>
			<line x1="16.808" y1="-0.697" x2="16.808" y2="-0.001"/>
			<line x1="28.957" y1="-0.697" x2="28.957" y2="-0.709"/>
			<line x1="28.957" y1="-0.001" x2="28.957" y2="-0.697"/>
			<line x1="41.895" y1="-0.697" x2="41.895" y2="-0.001"/>
			<line x1="41.895" y1="-0.709" x2="41.895" y2="-0.697"/>
			<line x1="11.34" y1="-45.281" x2="11.34" y2="-41.535"/>
			<line x1="11.34" y1="-45.281" x2="11.34" y2="-45.337"/>
			<line x1="24.728" y1="-45.337" x2="24.728" y2="-45.281"/>
			<line x1="24.728" y1="-45.281" x2="24.728" y2="-41.535"/>
			<line x1="36.99" y1="-41.535" x2="36.99" y2="-45.281"/>
			<line x1="36.99" y1="-45.337" x2="36.99" y2="-45.281"/>
			<line x1="48.532" y1="-45.281" x2="48.532" y2="-41.535"/>
			<line x1="5.996" y1="-28.102" x2="5.996" y2="-28.113"/>
			<line x1="5.996" y1="-28.102" x2="5.996" y2="-24.468"/>
			<line x1="18.146" y1="-28.113" x2="18.146" y2="-28.102"/>
			<line x1="18.146" y1="-28.102" x2="18.146" y2="-24.468"/>
			<line x1="30.408" y1="-28.113" x2="30.408" y2="-28.102"/>
			<line x1="30.408" y1="-24.468" x2="30.408" y2="-28.102"/>
			<line x1="43.796" y1="-28.113" x2="43.796" y2="-28.102"/>
			<line x1="43.796" y1="-28.102" x2="43.796" y2="-24.468"/>
			<line x1="48.712" y1="-14.149" x2="0" y2="-14.149"/>
			<line x1="8.548" y1="-17.238" x2="8.548" y2="-14.161"/>
			<line x1="20.697" y1="-14.161" x2="20.697" y2="-17.238"/>
			<line x1="32.96" y1="-14.161" x2="32.96" y2="-17.238"/>
			<line x1="46.348" y1="-14.161" x2="46.348" y2="-17.238"/>
			<line x1="36.033" y1="-21.048" x2="36.033" y2="-24.412"/>
			<line x1="24.041" y1="-21.048" x2="24.041" y2="-24.412"/>
			<line x1="10.541" y1="-24.412" x2="10.541" y2="-21.048"/>
			<line x1="47.939" y1="-21.048" x2="47.939" y2="-24.412"/>
			<line x1="48.712" y1="-37.912" x2="0" y2="-37.912"/>
			<line x1="27.925" y1="-37.923" x2="27.925" y2="-41.287"/>
			<line x1="15.933" y1="-37.923" x2="15.933" y2="-41.287"/>
			<line x1="2.433" y1="-37.923" x2="2.433" y2="-41.287"/>
			<line x1="39.831" y1="-37.923" x2="39.831" y2="-41.287"/>
			<line x1="4.973" y1="-20.992" x2="4.973" y2="-17.269"/>
			<line x1="16.673" y1="-17.269" x2="16.673" y2="-20.992"/>
			<line x1="28.935" y1="-17.269" x2="28.935" y2="-20.992"/>
			<line x1="41.76" y1="-17.269" x2="41.76" y2="-20.992"/>
			<line x1="46.56" y1="-3.735" x2="48.712" y2="-3.735"/>
			<line x1="46.56" y1="-3.735" x2="34.522" y2="-3.735"/>
			<line x1="9.267" y1="-3.735" x2="0" y2="-3.735"/>
			<line x1="22.26" y1="-3.735" x2="34.522" y2="-3.735"/>
			<line x1="9.267" y1="-3.735" x2="22.26" y2="-3.735"/>
			<line x1="9.267" y1="-0.697" x2="9.267" y2="-0.641"/>
			<line x1="9.267" y1="-3.735" x2="9.267" y2="-0.697"/>
			<line x1="9.267" y1="-3.735" x2="9.267" y2="-3.757"/>
			<line x1="22.26" y1="-3.735" x2="22.26" y2="-0.697"/>
			<line x1="22.26" y1="-0.641" x2="22.26" y2="-0.697"/>
			<line x1="22.26" y1="-3.757" x2="22.26" y2="-3.735"/>
			<line x1="34.522" y1="-0.697" x2="34.522" y2="-0.641"/>
			<line x1="34.522" y1="-0.697" x2="34.522" y2="-3.735"/>
			<line x1="34.522" y1="-3.757" x2="34.522" y2="-3.735"/>
			<line x1="46.56" y1="-0.697" x2="46.56" y2="-0.641"/>
			<line x1="46.56" y1="-3.735" x2="46.56" y2="-0.697"/>
			<line x1="46.56" y1="-3.735" x2="46.56" y2="-3.757"/>
		</g>
	</g>
</svg>
