<?xml version="1.0" encoding="utf-8"?>
<svg xmlns="http://www.w3.org/2000/svg" version="1.1" x="0px" y="0px" xml:space="preserve" width="54.125" height="54.125" viewBox="0.01 -54.221 54.125 54.125">
	<metadata id="metadata2">
	<rdf:RDF
		xmlns:dc="http://purl.org/dc/elements/1.1/"
		xmlns:cc="http://creativecommons.org/ns#"
		xmlns:rdf="http://www.w3.org/1999/02/22-rdf-syntax-ns#"
		xmlns="http://my.netscape.com/rdf/simple/0.9/">
		<item rdf:ID="biblio1">
			<link>rdf:resource="http://pubs.usgs.gov/tm/2006/11A02/</link>
			<title>U.S. Geological Survey, 2006, FGDC Digital Cartographic Standard for Geologic Map Symbolization (PostScript Implementation): U.S. Geological Survey Techniques and Methods 11-A2</title>
		</item>
		<item rdf:ID="biblio2">
			<link>https://davenquinn.com/projects/geologic-patterns/</link>
			<title>FGDC Geologic Patterns for the Web</title>
		</item>
		<rdf:Description>
			<dc:description>Converted from 'FGDC Geologic Patterns for the Web' to QGIS compatible svg symbols, with customisable fill colour/stroke colour/stroke width (when appropriate)</dc:description>
			<dc:date>01 MARCH 2019</dc:date>
			<dc:creator>GeoProc.com</dc:creator>
			<dc:publisher rdf:resource="https://github.com/BC-Consulting/QGIS-FGDC-Fill" />
		</rdf:Description>
		<cc:Work rdf:about="">
			<dc:format>image/svg+xml</dc:format>
			<dc:type rdf:resource="http://purl.org/dc/dcmitype/StillImage" />
			<dc:title>FGDC fill symbol: Lithology - Sedimentary - 683 Till Or Diamicton 3rd Option</dc:title>
		</cc:Work>
	</rdf:RDF>
	</metadata>
	<g>
		<rect x="0.01" y="-54.221" style="fill:none;stroke:none;" width="54.125" height="54.125"/>
        <g fill="param(outline) #000" stroke="param(outline) #000" stroke-width="param(outline-width) 0.8">
			<circle cx="0.448" cy="-19.709" r="0.4"/>
			<circle cx="0.635" cy="-0.721" r="0.4"/>
			<circle cx="1.328" cy="-31.699" r="0.4"/>
			<circle cx="1.385" cy="-50.346" r="0.4"/>
			<circle cx="1.428" cy="-24.403" r="0.4"/>
			<circle cx="1.769" cy="-5.629" r="0.4"/>
			<circle cx="1.769" cy="-9.809" r="0.4"/>
			<circle cx="10.898" cy="-35.219" r="0.4"/>
			<circle cx="11.558" cy="-29.94" r="0.4"/>
			<circle cx="12.108" cy="-41.049" r="0.4"/>
			<circle cx="12.653" cy="-15.164" r="0.4"/>
			<circle cx="13.098" cy="-1.01" r="0.4"/>
			<circle cx="13.208" cy="-22.459" r="0.4"/>
			<circle cx="13.318" cy="-4.309" r="0.4"/>
			<circle cx="13.51" cy="-49.971" r="0.4"/>
			<circle cx="13.51" cy="-8.346" r="0.4"/>
			<circle cx="14.528" cy="-27.299" r="0.4"/>
			<circle cx="14.968" cy="-34.779" r="0.4"/>
			<circle cx="15.307" cy="-43.612" r="0.4"/>
			<circle cx="16.508" cy="-6.839" r="0.4"/>
			<circle cx="16.618" cy="-22.789" r="0.4"/>
			<circle cx="16.729" cy="-17.068" r="0.4"/>
			<circle cx="16.838" cy="-1.338" r="0.4"/>
			<circle cx="16.838" cy="-40.059" r="0.4"/>
			<circle cx="17.278" cy="-10.908" r="0.4"/>
			<circle cx="17.635" cy="-49.221" r="0.4"/>
			<circle cx="18.269" cy="-29.94" r="0.4"/>
			<circle cx="18.818" cy="-36.209" r="0.4"/>
			<circle cx="19.369" cy="-13.879" r="0.4"/>
			<circle cx="19.369" cy="-3.76" r="0.4"/>
			<circle cx="19.479" cy="-24.988" r="0.4"/>
			<circle cx="2.282" cy="-40.12" r="0.4"/>
			<circle cx="2.428" cy="-16.959" r="0.4"/>
			<circle cx="20.028" cy="-20.809" r="0.4"/>
			<circle cx="20.509" cy="-44.938" r="0.4"/>
			<circle cx="21.019" cy="-0.568" r="0.4"/>
			<circle cx="21.349" cy="-33.568" r="0.4"/>
			<circle cx="21.885" cy="-50.846" r="0.4"/>
			<circle cx="22.448" cy="-10.469" r="0.4"/>
			<circle cx="22.448" cy="-26.859" r="0.4"/>
			<circle cx="22.999" cy="-37.199" r="0.4"/>
			<circle cx="23.108" cy="-14.429" r="0.4"/>
			<circle cx="23.329" cy="-20.148" r="0.4"/>
			<circle cx="23.51" cy="-7.221" r="0.4"/>
			<circle cx="24.208" cy="-23.779" r="0.4"/>
			<circle cx="24.635" cy="-47.596" r="0.4"/>
			<circle cx="25.309" cy="-2.658" r="0.4"/>
			<circle cx="25.353" cy="-51.355" r="0.4"/>
			<circle cx="25.51" cy="-33.596" r="0.4"/>
			<circle cx="26.079" cy="-18.059" r="0.4"/>
			<circle cx="26.12" cy="-44.734" r="0.4"/>
			<circle cx="26.958" cy="-40.499" r="0.4"/>
			<circle cx="27.398" cy="-14.648" r="0.4"/>
			<circle cx="27.398" cy="-26.529" r="0.4"/>
			<circle cx="27.508" cy="-5.629" r="0.4"/>
			<circle cx="28.135" cy="-36.221" r="0.4"/>
			<circle cx="29.158" cy="-22.02" r="0.4"/>
			<circle cx="30.369" cy="-17.398" r="0.4"/>
			<circle cx="30.698" cy="-30.379" r="0.4"/>
			<circle cx="31.139" cy="-12.339" r="0.4"/>
			<circle cx="31.579" cy="-2.658" r="0.4"/>
			<circle cx="32.568" cy="-8.269" r="0.4"/>
			<circle cx="32.648" cy="-44.53" r="0.4"/>
			<circle cx="32.678" cy="-26.749" r="0.4"/>
			<circle cx="32.898" cy="-40.609" r="0.4"/>
			<circle cx="33.008" cy="-37.199" r="0.4"/>
			<circle cx="33.76" cy="-49.346" r="0.4"/>
			<circle cx="33.999" cy="-22.568" r="0.4"/>
			<circle cx="34.26" cy="-53.621" r="0.4"/>
			<circle cx="34.548" cy="-15.089" r="0.4"/>
			<circle cx="35.648" cy="-29.609" r="0.4"/>
			<circle cx="36.969" cy="-36.1" r="0.4"/>
			<circle cx="37.034" cy="-43.715" r="0.4"/>
			<circle cx="37.188" cy="-6.728" r="0.4"/>
			<circle cx="37.849" cy="-2.988" r="0.4"/>
			<circle cx="37.885" cy="-51.846" r="0.4"/>
			<circle cx="38.068" cy="-20.259" r="0.4"/>
			<circle cx="38.179" cy="-41.049" r="0.4"/>
			<circle cx="38.729" cy="-14.099" r="0.4"/>
			<circle cx="38.729" cy="-26.859" r="0.4"/>
			<circle cx="4.26" cy="-44.346" r="0.4"/>
			<circle cx="4.958" cy="-2.44" r="0.4"/>
			<circle cx="40.135" cy="-30.596" r="0.4"/>
			<circle cx="40.599" cy="-0.459" r="0.4"/>
			<circle cx="41.148" cy="-9.039" r="0.4"/>
			<circle cx="41.385" cy="-49.346" r="0.4"/>
			<circle cx="41.699" cy="-33.679" r="0.4"/>
			<circle cx="41.809" cy="-22.238" r="0.4"/>
			<circle cx="41.809" cy="-4.639" r="0.4"/>
			<circle cx="42.798" cy="-14.869" r="0.4"/>
			<circle cx="43.01" cy="-42.471" r="0.4"/>
			<circle cx="44.338" cy="-1.338" r="0.4"/>
			<circle cx="44.668" cy="-29.389" r="0.4"/>
			<circle cx="45.01" cy="-51.721" r="0.4"/>
			<circle cx="45.548" cy="-23.669" r="0.4"/>
			<circle cx="45.548" cy="-8.488" r="0.4"/>
			<circle cx="46.099" cy="-35.77" r="0.4"/>
			<circle cx="46.385" cy="-48.346" r="0.4"/>
			<circle cx="46.635" cy="-44.971" r="0.4"/>
			<circle cx="47.309" cy="-40.939" r="0.4"/>
			<circle cx="47.418" cy="-13.769" r="0.4"/>
			<circle cx="48.188" cy="-32.689" r="0.4"/>
			<circle cx="48.298" cy="-20.809" r="0.4"/>
			<circle cx="48.385" cy="-28.971" r="0.4"/>
			<circle cx="49.619" cy="-36.869" r="0.4"/>
			<circle cx="49.949" cy="-8.488" r="0.4"/>
			<circle cx="5.068" cy="-31.369" r="0.4"/>
			<circle cx="5.068" cy="-8.158" r="0.4"/>
			<circle cx="5.219" cy="-16.058" r="0.4"/>
			<circle cx="50.135" cy="-50.471" r="0.4"/>
			<circle cx="50.39" cy="-44.424" r="0.4"/>
			<circle cx="50.719" cy="-27.299" r="0.4"/>
			<circle cx="51.159" cy="-17.398" r="0.4"/>
			<circle cx="51.489" cy="-22.898" r="0.4"/>
			<circle cx="52.369" cy="-11.019" r="0.4"/>
			<circle cx="52.588" cy="-1.889" r="0.4"/>
			<circle cx="52.918" cy="-34.999" r="0.4"/>
			<circle cx="53.029" cy="-6.289" r="0.4"/>
			<circle cx="53.51" cy="-48.721" r="0.4"/>
			<circle cx="53.579" cy="-41.709" r="0.4"/>
			<circle cx="6.388" cy="-35.879" r="0.4"/>
			<circle cx="6.498" cy="-40.719" r="0.4"/>
			<circle cx="7.048" cy="-27.299" r="0.4"/>
			<circle cx="7.598" cy="-0.35" r="0.4"/>
			<circle cx="8.085" cy="-51.233" r="0.4"/>
			<circle cx="8.116" cy="-10.953" r="0.4"/>
			<circle cx="8.363" cy="-15.384" r="0.4"/>
			<circle cx="9.51" cy="-9.221" r="0.4"/>
			<circle cx="9.578" cy="-23.559" r="0.4"/>
			<circle cx="9.635" cy="-43.846" r="0.4"/>
			<circle cx="9.798" cy="-18.719" r="0.4"/>
			<line style="fill:none;" x1="0" y1="-38.959" x2="2.794" y2="-38.959"/>
			<line style="fill:none;" x1="0.001" y1="-13.866" x2="13.299" y2="-13.866"/>
			<line style="fill:none;" x1="1.965" y1="-52.331" x2="13.304" y2="-52.331"/>
			<line style="fill:none;" x1="17.035" y1="-32.493" x2="6.008" y2="-32.493"/>
			<line style="fill:none;" x1="19.208" y1="-53.017" x2="31.965" y2="-53.017"/>
			<line style="fill:none;" x1="22.753" y1="-47.18" x2="13.804" y2="-47.18"/>
			<line style="fill:none;" x1="24.651" y1="-18.633" x2="16.542" y2="-18.633"/>
			<line style="fill:none;" x1="25.231" y1="-5.477" x2="13.095" y2="-5.477"/>
			<line style="fill:none;" x1="25.475" y1="-38.959" x2="37.722" y2="-38.959"/>
			<line style="fill:none;" x1="27.269" y1="-25.022" x2="38.608" y2="-25.096"/>
			<line style="fill:none;" x1="3.971" y1="-25.539" x2="14.308" y2="-25.539"/>
			<line style="fill:none;" x1="30.678" y1="-42.49" x2="20.713" y2="-42.49"/>
			<line style="fill:none;" x1="38.188" y1="-0.662" x2="32.028" y2="-0.662"/>
			<line style="fill:none;" x1="38.729" y1="-11.679" x2="46.648" y2="-11.679"/>
			<line style="fill:none;" x1="39.264" y1="-46.637" x2="28.598" y2="-46.637"/>
			<line style="fill:none;" x1="4.631" y1="-38.062" x2="18.25" y2="-38.062"/>
			<line style="fill:none;" x1="40.49" y1="-5.41" x2="29.682" y2="-5.41"/>
			<line style="fill:none;" x1="40.733" y1="-53.26" x2="52.072" y2="-53.26"/>
			<line style="fill:none;" x1="40.734" y1="-18.499" x2="32.568" y2="-18.499"/>
			<line style="fill:none;" x1="44.211" y1="-32.211" x2="28.311" y2="-32.211"/>
			<line style="fill:none;" x1="44.986" y1="-38.959" x2="54.125" y2="-38.959"/>
			<line style="fill:none;" x1="46.869" y1="-25.318" x2="53.688" y2="-25.318"/>
			<line style="fill:none;" x1="53.032" y1="-13.866" x2="54.126" y2="-13.866"/>
			<line style="fill:none;" x1="53.868" y1="-46.814" x2="47.708" y2="-46.814"/>
			<line style="fill:none;" x1="8.167" y1="-42.49" x2="1.363" y2="-42.49"/>
			<path style="fill:none;" d="M14.198-20.148c1.375,0.934,0.11,1.925-0.88,1.32    C12.328-19.434,13.153-20.645,14.198-20.148z"/>
			<path style="fill:none;" d="M16.97-52.871c1.65,0,1.402,1.65,0.165,1.65    C15.898-51.221,15.568-52.871,16.97-52.871z"/>
			<path style="fill:none;" d="M19.588-9.919c1.375,0.11,1.155,1.485,0.165,1.54    C18.764-8.324,18.158-9.919,19.588-9.919z"/>
			<path style="fill:none;" d="M2.841-36.154c1.732-0.66,3.3,1.402,1.237,1.98    C2.016-33.596,1.026-35.741,2.841-36.154z"/>
			<path style="fill:none;" d="M20.908-30.627c0.76-1.265,2.64-1.484,3.465-1.236    c0.825,0.247,1.155,0.66,1.65,0.577c0.495-0.083,1.733,1.155,0.578,1.979c-1.155,0.825-2.888,1.568-3.465,1.238    c-0.577-0.33-1.237-0.66-1.65-0.826C21.073-29.059,20.661-30.214,20.908-30.627z"/>
			<path style="fill:none;" d="M20.991-41.187c1.485,0.083,1.32,1.567,0.083,1.649    C19.836-39.454,19.671-41.021,20.991-41.187z"/>
			<path style="fill:none;" d="M28.278-20.094c-0.055,1.32-1.54,0.99-1.595,0.055    C26.628-20.974,28.059-21.469,28.278-20.094z"/>
			<path style="fill:none;" d="M28.333-2.055c1.132,0.418,0.77,1.871-0.44,1.432    C26.684-1.064,27.289-2.44,28.333-2.055z"/>
			<path style="fill:none;" d="M28.911-11.321c1.733,0.907,1.402,2.64-0.578,2.227    c-1.98-0.412-2.723-1.237-3.135-2.145c-0.412-0.908,0.99-1.98,2.558-0.99C28.169-11.816,28.911-11.321,28.911-11.321z"/>
			<path style="fill:none;" d="M3.028-46.031c-0.055,1.32-1.54,0.99-1.595,0.055    C1.378-46.911,2.809-47.406,3.028-46.031z"/>
			<path style="fill:none;" d="M3.108-27.383c0.055,1.265-1.43,1.154-1.485,0.22    C1.568-28.098,2.999-28.538,3.108-27.383z"/>
			<path style="fill:none;" d="M30.885-50.783c1.017,0.61,1.25,2,0.5,2.5s-2.875,0.375-3.375-0.125    s-1-1.5,0.25-2.125S30.26-51.158,30.885-50.783z"/>
			<path style="fill:none;" d="M32.293-35.906c1.65,0,1.402,1.65,0.165,1.65    C31.221-34.256,30.891-35.906,32.293-35.906z"/>
			<path style="fill:none;" d="M36.693-11.789c0,1.266-1.43,1.045-1.43,0.055    C35.264-12.724,36.693-13.054,36.693-11.789z"/>
			<path style="fill:none;" d="M41.369-38.877c0.99,0,1.815,0.578,2.062,1.238    c0.248,0.66-0.66,2.64-2.558,1.402C38.976-37.475,39.719-39.041,41.369-38.877z"/>
			<path style="fill:none;" d="M42.523-26.336c1.403,0,1.32,1.402,0.165,1.402    C41.534-24.934,40.791-26.254,42.523-26.336z"/>
			<path style="fill:none;" d="M43.32-46.096c0.055,1.266-1.43,1.155-1.485,0.221    C41.78-46.811,43.21-47.25,43.32-46.096z"/>
			<path style="fill:none;" d="M45.824-20.066c2.228,1.402,2.062,3.631-0.413,2.888    c-2.475-0.743-2.392-0.99-3.465-2.64C40.874-21.469,44.338-20.974,45.824-20.066z"/>
			<path style="fill:none;" d="M46.113-6.482c0.825,0.605,0.33,1.705-0.825,1.045    C44.133-6.097,44.793-7.252,46.113-6.482z"/>
			<path style="fill:none;" d="M49.619-4.475c1.485-1.154,2.723,0.332,1.732,1.156    c-0.99,0.824-2.393,1.98-3.3,1.32c-0.908-0.66-0.578-1.817,0.33-1.98C49.289-4.143,49.619-4.475,49.619-4.475z"/>
			<path style="fill:none;" d="M5.51-49.096c0.625-0.75,1.625-0.75,3.125-0.25s1.625,1,2.125,1    s1.375,2,0.125,2.25s-4.375,0.5-4.75-0.375S5.51-49.096,5.51-49.096z"/>
			<path style="fill:none;" d="M5.971-11.779c0.825,0.826-0.22,1.596-0.88,0.99    C4.431-11.394,4.816-12.494,5.971-11.779z"/>
			<path style="fill:none;" d="M50.195-15.651c1.21,0,1.375,1.43,0.275,1.484    S48.765-15.542,50.195-15.651z"/>
			<path style="fill:none;" d="M52.753-31.946c0,1.319-1.402,1.155-1.485,0    C51.186-33.102,52.753-32.937,52.753-31.946z"/>
			<path style="fill:none;" d="M6.223-23.283c1.238,0.247,1.897,0.742,1.98,1.732    c0.082,0.989-0.577,1.979-2.887,1.815c-2.31-0.165-3.795-0.578-2.475-2.145c0.825-0.083,1.155-0.248,1.485-0.908    C4.656-23.449,5.646-23.449,6.223-23.283z"/>
			<path style="fill:none;" d="M9.276-5.794c2.062,0.413,2.97,1.403,1.567,2.227    C9.441-2.742,9.441-2.906,7.873-3.4c-1.568-0.496-2.97-1.074-1.98-1.816C6.883-5.959,8.203-6.206,9.276-5.794z"/>
		</g>
	</g>
</svg>