<?xml version="1.0" encoding="UTF-8" standalone="no"?>
<svg xmlns:dc="http://purl.org/dc/elements/1.1/" xmlns:cc="http://creativecommons.org/ns#" xmlns:rdf="http://www.w3.org/1999/02/22-rdf-syntax-ns#" xmlns:svg="http://www.w3.org/2000/svg" xmlns="http://www.w3.org/2000/svg" version="1.1" x="0px" y="0px" xml:space="preserve" width="50.00" height="50.00" viewBox="0 0 50.00 50.00">
	<metadata id="metadata2">
		<rdf:RDF>
			<ns:item rdf:ID="biblio1">
				<ns:link>rdf:resource=&quot;http://pubs.usgs.gov/tm/2006/11A02/</ns:link>
				<ns:title>U.S. Geological Survey, 2006, FGDC Digital Cartographic Standard for Geologic Map Symbolization (PostScript Implementation): U.S. Geological Survey Techniques and Methods 11-A2</ns:title>
			</ns:item>
			<ns:item rdf:ID="biblio2">
				<ns:link>https://davenquinn.com/projects/geologic-patterns/</ns:link>
				<ns:title>FGDC Geologic Patterns for the Web</ns:title>
			</ns:item>
			<rdf:Description>
				<dc:description>
					Converted from 'FGDC Geologic Patterns for the Web' to QGIS compatible svg symbols, with customisable fill colour/stroke colour/stroke width (when appropriate).
					SVG scaled to 50x50 pixels so that base outline-width is 0.387 px and width is 90 in the QGIS xml definition file. 
					Some of the original FGDC symbols have been omitted from this set because they can be generated from other symbols using the 'texture width' and/or 'stroke width' fields in QGIS symbology form.
				</dc:description>
				<dc:date>01 MARCH 2019</dc:date>
				<dc:creator>GeoProc.com</dc:creator>
				<dc:publisher rdf:resource="https://github.com/BC-Consulting/QGIS-FGDC-Fill" />
			</rdf:Description>
			<cc:Work rdf:about="">
				<dc:format>image/svg+xml</dc:format>
				<dc:type rdf:resource="http://purl.org/dc/dcmitype/StillImage" />
				<dc:title>FGDC fill symbol: Igneous - 305 - 306</dc:title>
			</cc:Work>
		</rdf:RDF>
	</metadata>
	<path style="fill:none;stroke:none;stroke-width:0;" id="rect1500" width="50.00" height="50.00" x="0.0" y="0.0" />
	<path stroke="param(outline) #000" stroke-width="param(outline-width) 0.852" id="path9" style="fill:none;stroke-miterlimit:4;stroke-dasharray:none;stroke-opacity:1" d="M 4.1343984,48.196587 12.347672,42.877259 M 3.6265886,42.041992 0.16023328,40.679188 m 18.87728272,3.385028 -5.74046,-6.220538 m 1.722138,-3.714738 7.506757,-3.736718 m -0.02209,-9.825373 -5.475517,6.879958 M 7.8877743,25.556469 13.849022,30.677971 M 4.3551854,33.865172 0.38102022,25.952121 M 19.368695,38.349235 28.509276,42.085952 M 9.1021045,32.370484 7.3358091,40.811073 M 12.480144,17.907184 4.1343984,23.006707 m -3.97416512,-7.56136 3.46635532,1.406765 m 9.6925444,-4.220295 5.740461,6.220538 M 22.503871,5.2023389 14.997115,8.939059 M 18.595944,0.27866313 17.050434,2.2569265 M 7.8877763,0.32262403 13.849024,5.4661069 M 4.3551854,8.6313282 0.38102022,0.78421811 M 28.509276,16.852112 19.368695,13.115391 M 9.1021045,7.1586219 7.3358091,15.577228 m 29.8503939,27.300031 -8.169117,5.341309 m 14.85896,-4.154352 -5.74046,-6.220538 m 1.722139,-3.714738 7.506754,-3.736718 m 0,-9.825373 -5.475513,6.879958 m -9.16266,-1.890338 5.961248,5.121502 m -13.468004,-4.68189 3.974166,7.869091 m 20.643578,6.770054 -5.58591,-2.285991 m -10.310749,-5.978751 -1.766296,8.440589 m 4.989785,-23.167656 -8.169117,5.36329 m 14.881039,-4.154352 -5.74046,-6.220538 M 39.857725,8.9170786 47.364479,5.1803585 M 41.888966,2.2569265 43.434472,0.27866313 M 22.503871,44.723636 18.529707,49.735237 m 28.834772,-5.011601 -3.974165,5.011601 M 32.726306,0.32262403 38.687554,5.4661069 M 25.21955,0.76223765 29.193716,8.6752891 m 15.057668,4.4620819 5.58591,2.307976 M 33.940635,7.1586219 32.174339,15.577228" />
</svg>
