<?xml version="1.0" encoding="UTF-8" standalone="no"?>
<svg xmlns:dc="http://purl.org/dc/elements/1.1/" xmlns:cc="http://creativecommons.org/ns#" xmlns:rdf="http://www.w3.org/1999/02/22-rdf-syntax-ns#" xmlns:svg="http://www.w3.org/2000/svg" xmlns="http://www.w3.org/2000/svg" version="1.1" x="0px" y="0px" xml:space="preserve" width="50.00" height="50.00" viewBox="0 0 50.00 50.00">
	<metadata id="metadata2">
		<rdf:RDF>
			<ns:item rdf:ID="biblio1">
				<ns:link>rdf:resource=&quot;http://pubs.usgs.gov/tm/2006/11A02/</ns:link>
				<ns:title>U.S. Geological Survey, 2006, FGDC Digital Cartographic Standard for Geologic Map Symbolization (PostScript Implementation): U.S. Geological Survey Techniques and Methods 11-A2</ns:title>
			</ns:item>
			<ns:item rdf:ID="biblio2">
				<ns:link>https://davenquinn.com/projects/geologic-patterns/</ns:link>
				<ns:title>FGDC Geologic Patterns for the Web</ns:title>
			</ns:item>
			<rdf:Description>
				<dc:description>
					Converted from 'FGDC Geologic Patterns for the Web' to QGIS compatible svg symbols, with customisable fill colour/stroke colour/stroke width (when appropriate).
					SVG scaled to 50x50 pixels so that base outline-width is 0.387 px and width is 90 in the QGIS xml definition file. 
					Some of the original FGDC symbols have been omitted from this set because they can be generated from other symbols using the 'texture width' and/or 'stroke width' fields in QGIS symbology form.
				</dc:description>
				<dc:date>01 MARCH 2019</dc:date>
				<dc:creator>GeoProc.com</dc:creator>
				<dc:publisher rdf:resource="https://github.com/BC-Consulting/QGIS-FGDC-Fill" />
			</rdf:Description>
			<cc:Work rdf:about="">
				<dc:format>image/svg+xml</dc:format>
				<dc:type rdf:resource="http://purl.org/dc/dcmitype/StillImage" />
				<dc:title>FGDC fill symbol: Igneous - 316</dc:title>
			</cc:Work>
		</rdf:RDF>
	</metadata>
	<path style="fill:none;stroke:none;stroke-width:0;" id="rect1500" width="50.00" height="50.00" x="0.0" y="0.0" />
	<path id="path3" style="fill:none;" stroke-width="param(outline-width) 1.00" stroke="param(outline) #000" d="m 22.385747,27.685471 -1.936483,3.14915 m 0.56158,-8.268933 1.510457,2.782071 m -3.659953,-1.526275 0.193648,4.173106 m 8.346243,13.968316 -0.697134,-3.632149 m -12.18048,-1.043276 0.658404,-3.670789 M 11.425252,36.398764 8.5592564,34.041731 M 1.6460108,34.119011 0,32.766615 m 18.048025,-1.313756 -2.865996,-2.357032 m 3.601859,8.616692 -1.258714,-3.477589 m -12.9744381,5.390263 3.6405887,-3.09119 m 8.5011614,-10.297527 -3.582494,0.965997 m 10.515105,14.799073 -2.982185,2.202473 m -5.615801,-1.545596 -1.936484,3.16847 m 16.189001,-16.112828 1.452363,3.400309 m 5.480248,-11.456723 -0.464756,4.984544 m -11.076685,10.413446 1.859024,-3.245749 m 7.881487,-0.13524 -2.865995,2.318393 m 1.955848,9.21561 2.865995,2.318393 M 34.8567,30.622102 32.029435,28.26507 m -4.628196,-1.642195 -1.297443,3.477589 m 3.640588,-3.574189 3.156468,-1.931994 M 10.844307,38.601236 8.7141751,41.634467 M 35.573199,17.793663 33.501162,20.884853 M 12.141751,32.921175 10.650658,28.400309 m 0.774594,-13.408037 2.381874,-2.820711 m 15.898529,11.649923 0.387296,-4.752705 m -11.444616,1.294436 1.665375,-3.979907 m 1.994578,20.170015 -1.219984,3.477589 m 9.275755,-1.487635 -2.865995,-2.357033 M 16.460108,23.183926 14.175058,19.126739 m 10.805577,26.777434 -3.175833,1.931994 M 10.011619,24.111283 13.594113,25.07728 m -1.12316,-7.341577 -1.413633,2.627512 M 39.697909,5.2163833 39.891557,9.6599691 M 26.432998,3.0525502 29.298993,5.4095827 m -7.61038,0.0966 -3.756777,2.5695518 M 15.182029,4.3469861 11.928737,2.1251932 m 12.238575,12.3261208 1.859024,3.18779 M 25.56158,10.973725 26.026336,8.0370943 m 6.274206,1.0819165 -3.40821,-1.4876352 M 24.051123,5.4482226 22.11464,8.6166924 m 19.7134,9.7952086 -3.292021,2.936631 m -23.140976,-4.231067 1.665375,-4.250386 m 0.03873,-2.666152 -2.633617,-2.6468312 m 20.236251,0.03864 1.936483,-3.3616692 m 1.975213,8.9837714 0.07746,3.709428 m -3.44694,-6.047141 3.679318,0.1932 m -19.364834,2.646831 2.904725,-2.357032 m 16.78931,15.340031 -1.452362,3.419629 m 5.654531,3.458269 0.619675,3.612828 m -0.116189,-7.959815 1.394268,3.438949 m -4.182804,10.258888 2.84663,-2.376353 m 3.5244,-0.07728 -1.897754,3.16847 m -7.048799,0.0966 -0.871417,-4.443586 m 5.964368,-19.242658 3.679319,0.309119 m -1.316809,16.962906 2.84663,-2.395673 m -7.552285,-3.245749 -1.549186,3.361669 m 9.29512,-9.717929 -2.711077,-2.511592 M 7.203718,4.057187 4.8412084,6.6653787 M 9.2951201,11.360124 12.161115,8.9837713 M 10.766847,5.8925811 9.6824167,2.3570325 M 41.9055,26.275116 45.584818,26.700155 M 5.8481797,41.537867 4.3958172,44.938176 m -0.058095,3.419629 2.8466305,-2.357032 M 8.1719597,28.400309 5.3253292,26.043277 M 42.447715,6.3369397 45.604183,4.366306 M 43.570875,8.4621329 42.331526,11.978362 M 0,40.62983 2.32378,42.523184 M 1.3555383,27.704791 0,28.09119 M 0,20.401855 0.85205267,21.87017 M 4.066615,11.804482 0.42602634,12.712519 M 2.1688613,25.173879 4.1053447,22.00541 m 0.7358637,-6.008501 -2.9047251,2.414992 m 5.1510457,-5.119784 1.8783889,3.20711 m -3.020914,2.163833 2.3818745,3.902628 M 3.48567,28.16847 2.788536,31.839258 m 1.975213,1.796754 3.4856701,-2.666151 M 10.205267,47.044049 9.9341596,43.373261 M 0,45.826893 1.2199845,44.822257 M 26.72347,13.910355 l 3.427576,-2.85935 m 2.28505,0.598918 1.859024,3.18779 m -5.402788,0.521638 3.292021,1.661515 m -7.49419,15.011591 -2.865996,2.357033 m -4.298993,4.443586 -3.44694,1.352395 m 3.272657,3.32303 1.742835,3.670788 M 34.93416,42.407264 31.44849,41.132148 M 31.758327,6.6267388 32.087529,2.8400309 m 3.350116,33.3462131 -0.910147,3.593509 m -6.700232,4.462905 3.543764,-1.062596 m -3.175832,-22.604328 -3.330752,3.574189 m 18.474051,20.440494 1.452363,3.400309 m 3.969791,-16.228748 1.219984,1.004637 M 49.419055,40.146832 50,40.62983 M 47.753679,28.748068 49.96127,28.09119 m -1.006971,-9.38949 1.006971,1.700155 m 0,25.425038 -1.626646,1.352396 M 45.836561,16.151468 44.364833,12.751159 m 4.357088,25.328439 1.239349,-0.270479 M 0,37.828439 2.3625097,37.287481 M 39.697909,23.821484 44.19055,22.739567 M 8.3268784,7.7666151 5.2672347,9.8531685 M 41.673122,39.509274 39.078234,36.862442 m 7.01007,-29.2117465 1.704105,3.2843895 M 1.278079,15.66847 0,15.57187 m 49.96127,0 -2.420604,-0.193199 m -24.690163,1.912674 1.006972,4.366306 M 37.296669,35.316847 36.58017,31.646059 M 44.209915,17.484544 40.956623,15.68779 m -13.226181,30.641422 3.233927,0.965997 M 17.525174,5.4289026 17.912471,1.7581144 M 2.5948877,9.5440495 1.742835,4.984544 M 49.96127,4.0185471 48.79938,7.1676971 M 0,4.0185471 0.116189,3.6901082 m 41.324555,42.0981448 -1.549187,3.36167 M 35.243997,50 h 0.05809 M 25.56158,47.932767 24.903176,50 M 18.648335,49.034003 19.345469,50 M 44.19055,49.806801 43.938807,50 M 6.6808675,48.724884 6.390395,50 M 13.013168,48.261206 10.611929,50 M 1.3749032,48.106646 1.7621998,50 M 48.760651,49.265842 48.315259,50 M 29.357088,49.034003 29.395818,50 M 15.18203,50 14.65918,47.00541 M 33.113865,50 32.223083,48.454405 M 35.302091,0.15455951 h -0.03873 M 38.458558,2.0285935 35.30209,0.15455951 M 24.012392,2.8593509 24.903175,0.15455951 M 21.243221,2.8593509 19.364832,0.15455951 M 41.324554,2.2797527 43.958171,0.15455951 M 5.8675445,2.4729521 6.390395,0.15455951 m 3.795507,0.30911901 0.426027,-0.30911901 M 2.0720372,1.8933539 1.742835,0.15455951 M 46.862897,2.5695518 48.295895,0.15455951 M 29.492641,2.8593509 V 0.15455951 m -0.01936,0 V 0 M 15.298218,0.8114374 15.162665,0.15455951 m 17.9512,0 0.716499,1.29443589" />
</svg>
