<?xml version="1.0" encoding="UTF-8" standalone="no"?>
<svg xmlns:dc="http://purl.org/dc/elements/1.1/" xmlns:cc="http://creativecommons.org/ns#" xmlns:rdf="http://www.w3.org/1999/02/22-rdf-syntax-ns#" xmlns:svg="http://www.w3.org/2000/svg" xmlns="http://www.w3.org/2000/svg" version="1.1" x="0px" y="0px" xml:space="preserve" width="50.00" height="50.00" viewBox="0 0 50.00 50.00">
	<metadata id="metadata2">
		<rdf:RDF>
			<ns:item rdf:ID="biblio1">
				<ns:link>rdf:resource=&quot;http://pubs.usgs.gov/tm/2006/11A02/</ns:link>
				<ns:title>U.S. Geological Survey, 2006, FGDC Digital Cartographic Standard for Geologic Map Symbolization (PostScript Implementation): U.S. Geological Survey Techniques and Methods 11-A2</ns:title>
			</ns:item>
			<ns:item rdf:ID="biblio2">
				<ns:link>https://davenquinn.com/projects/geologic-patterns/</ns:link>
				<ns:title>FGDC Geologic Patterns for the Web</ns:title>
			</ns:item>
			<rdf:Description>
				<dc:description>
					Converted from 'FGDC Geologic Patterns for the Web' to QGIS compatible svg symbols, with customisable fill colour/stroke colour/stroke width (when appropriate).
					SVG scaled to 50x50 pixels so that base outline-width is 0.387 px and width is 90 in the QGIS xml definition file.
					Some of the original FGDC symbols have been omitted from this set because they can be generated from other symbols using the 'texture width' and/or 'stroke width' fields in QGIS symbology form.
				</dc:description>
				<dc:date>01 MARCH 2019</dc:date>
				<dc:creator>GeoProc.com</dc:creator>
				<dc:publisher rdf:resource="https://github.com/BC-Consulting/QGIS-FGDC-Fill" />
			</rdf:Description>
			<cc:Work rdf:about="">
				<dc:format>image/svg+xml</dc:format>
				<dc:type rdf:resource="http://purl.org/dc/dcmitype/StillImage" />
				<dc:title>FGDC fill symbol: Igneous - 319</dc:title>
			</cc:Work>
		</rdf:RDF>
	</metadata>
	<path style="fill:none;stroke:none;stroke-width:0;" id="rect1500" width="50.00" height="50.00" x="0.0" y="0.0" />
	<g style="fill:none;stroke-linecap:round;" stroke="param(outline) #000" stroke-width="param(outline-width) 0.6">
		<polyline id="polyline5" points="15.5031222732,18.3985799968 22.0454473982,18.4794810624    21.9497425278,18.2413571712 19.1503750686,12.2043059552" />
		<polyline id="polyline7" points="2.804282282,41.7530385568 9.2598748682,40.670796    9.1252898942,40.4525157664 5.338965959,35.0061949728" />
		<polyline id="polyline9" points="33.534518012,36.9798756864 34.1745443328,30.3322503904    33.9337867682,30.4100985856 27.8011981196,32.7394387008" />
		<polyline id="polyline11" points="36.4609935022,21.117161088 39.9377719972,15.4571393664    39.688042101,15.4174520512 33.1816063024,14.7122389888" />
		<polyline id="polyline13" points="11.82147554,6.9889910392 9.5096047644,0.7412917656    9.3271673552,0.919884684 4.8410015552,5.781580796" />
		<polyline id="polyline15" points="7.44444095,22.7748697152 3.4861473258,17.4552430432    3.362030072,17.6796290176 0.41611453,23.643411344" />
		<polyline id="polyline17" points="22.4701377606,29.2332170464 16.00856362,28.1860824992    16.0698745526,28.4348914368 17.982476572,34.8230227488" />
		<polyline id="polyline19" points="29.7048278074,2.2443162752 28.1795314354,8.7392980512    28.427765943,8.6950314304 34.8145706536,7.2464444256" />
		<polyline id="polyline21" points="42.536757384,3.1479659136 46.6027189874,8.3805857792    46.723845464,8.1531469344 49.5441483636,2.1283072" />
		<polyline id="polyline23" points="44.7953099664,28.5218982432 42.8647632838,34.9023973792    43.1159885686,34.8764479808 49.5805534864,33.847630656" />
		<polyline id="polyline25" points="38.6278115836,49.58200348 42.8941552594,44.5188179216    42.6533976948,44.4409697264 36.323417751,42.7481530896" />
		<polyline id="polyline27" points="22.3056450146,42.4994653696 19.4240311824,48.4953028352    19.6767518558,48.509040752 26.2190769808,48.5212522336" />
	</g>
</svg>
