<?xml version="1.0" encoding="UTF-8" standalone="no"?>
<svg xmlns:dc="http://purl.org/dc/elements/1.1/" xmlns:cc="http://creativecommons.org/ns#" xmlns:rdf="http://www.w3.org/1999/02/22-rdf-syntax-ns#" xmlns:svg="http://www.w3.org/2000/svg" xmlns="http://www.w3.org/2000/svg" version="1.1" x="0px" y="0px" xml:space="preserve" width="50.000" height="50.000" viewBox="0.000 0.000 50.000 50.000">
	<metadata id="metadata2">
		<rdf:RDF>
			<ns:item rdf:ID="biblio1">
				<ns:link>rdf:resource=&quot;http://pubs.usgs.gov/tm/2006/11A02/</ns:link>
				<ns:title>U.S. Geological Survey, 2006, FGDC Digital Cartographic Standard for Geologic Map Symbolization (PostScript Implementation): U.S. Geological Survey Techniques and Methods 11-A2</ns:title>
			</ns:item>
			<ns:item rdf:ID="biblio2">
				<ns:link>https://davenquinn.com/projects/geologic-patterns/</ns:link>
				<ns:title>FGDC Geologic Patterns for the Web</ns:title>
			</ns:item>
			<rdf:Description>
				<dc:description>
					Converted from 'FGDC Geologic Patterns for the Web' to QGIS compatible svg symbols, with customisable fill colour/stroke colour/stroke width (when appropriate).
					SVG scaled to 50x50 pixels so that base outline-width is 0.387 px and width is 90 in the QGIS xml definition file. 
					Some of the original FGDC symbols have been omitted from this set because they can be generated from other symbols using the 'texture width' and/or 'stroke width' fields in QGIS symbology form.
				</dc:description>
				<dc:date>01 MARCH 2019</dc:date>
				<dc:creator>GeoProc.com</dc:creator>
				<dc:publisher rdf:resource="https://github.com/BC-Consulting/QGIS-FGDC-Fill" />
			</rdf:Description>
			<cc:Work rdf:about="">
				<dc:format>image/svg+xml</dc:format>
				<dc:type rdf:resource="http://purl.org/dc/dcmitype/StillImage" />
				<dc:title>FGDC fill symbol: Surficial - 103</dc:title>
			</cc:Work>
		</rdf:RDF>
	</metadata>
	<g id="g259" style="fill:none;">
		<path style="fill:none;stroke:none;stroke-width:0;" id="rect1500" width="50.00" height="50.00" x="0.0" y="0.0" />
		<g id="g257" style="fill:none;" stroke="param(outline) #000" stroke-width="param(outline-width) 0.387">
			<ellipse id="circle5" cy="37.211895" cx="10.269312" rx="1.0028456" ry="1.003224" />
			<ellipse id="circle7" cy="20.544655" cx="10.269312" rx="1.0028456" ry="1.003224" />
			<ellipse id="circle9" cy="3.8782744" cx="10.269312" rx="1.0028456" ry="1.003224" />
			<ellipse id="circle11" cy="24.800213" cx="12.178146" rx="1.0028456" ry="1.003224" />
			<ellipse id="circle13" cy="8.133832" cx="12.178146" rx="1.0028456" ry="1.003224" />
			<ellipse id="circle15" cy="41.467449" cx="12.178146" rx="1.0028456" ry="1.003224" />
			<ellipse id="circle17" cy="33.363628" cx="12.306717" rx="1.0028456" ry="1.003224" />
			<ellipse id="circle19" cy="33.363628" cx="12.306717" rx="1.0028456" ry="1.003224" />
			<ellipse id="circle21" cy="16.697248" cx="12.306717" rx="1.0028456" ry="1.003224" />
			<ellipse id="circle23" cy="16.697248" cx="12.306717" rx="1.0028456" ry="1.003224" />
			<ellipse id="circle25" cy="29.012896" cx="13.753557" rx="1.0028456" ry="1.003224" />
			<ellipse id="circle27" cy="12.346514" cx="13.753557" rx="1.0028456" ry="1.003224" />
			<ellipse id="circle29" cy="45.680134" cx="13.753557" rx="1.0028456" ry="1.003224" />
			<ellipse id="circle31" cy="39.313519" cx="16.678953" rx="1.0028456" ry="1.003224" />
			<ellipse id="circle33" cy="35.187439" cx="16.678953" rx="1.0028456" ry="1.003224" />
			<ellipse id="circle35" cy="22.647141" cx="16.678953" rx="1.0028456" ry="1.003224" />
			<ellipse id="circle37" cy="18.520201" cx="16.678953" rx="1.0028456" ry="1.003224" />
			<ellipse id="circle39" cy="5.9799004" cx="16.678953" rx="1.0028456" ry="1.003224" />
			<ellipse id="circle41" cy="1.8538197" cx="16.678953" rx="1.0028456" ry="1.003224" />
			<ellipse id="circle43" cy="29.012896" cx="1.9062638" rx="1.0028456" ry="1.003224" />
			<ellipse id="circle45" cy="12.346514" cx="1.9062638" rx="1.0028456" ry="1.003224" />
			<ellipse id="circle47" cy="45.680134" cx="1.9062638" rx="1.0028456" ry="1.003224" />
			<ellipse id="circle49" cy="29.012896" cx="18.620358" rx="1.0028456" ry="1.003224" />
			<ellipse id="circle51" cy="12.346514" cx="18.620358" rx="1.0028456" ry="1.003224" />
			<ellipse id="circle53" cy="45.680134" cx="18.620358" rx="1.0028456" ry="1.003224" />
			<ellipse id="circle55" cy="33.326759" cx="20.932047" rx="1.0028456" ry="1.003224" />
			<ellipse id="circle57" cy="16.659521" cx="20.932047" rx="1.0028456" ry="1.003224" />
			<ellipse id="circle59" cy="24.800213" cx="21.106045" rx="1.0028456" ry="1.003224" />
			<ellipse id="circle61" cy="8.133832" cx="21.106045" rx="1.0028456" ry="1.003224" />
			<ellipse id="circle63" cy="41.467449" cx="21.106045" rx="1.0028456" ry="1.003224" />
			<ellipse id="circle65" cy="37.211895" cx="22.578598" rx="1.0028456" ry="1.003224" />
			<ellipse id="circle67" cy="20.544655" cx="22.578598" rx="1.0028456" ry="1.003224" />
			<ellipse id="circle69" cy="3.8782744" cx="22.578598" rx="1.0028456" ry="1.003224" />
			<ellipse id="circle71" cy="47.845211" cx="24.581718" rx="1.0028456" ry="1.003224" />
			<ellipse id="circle73" cy="31.178831" cx="24.581718" rx="1.0028456" ry="1.003224" />
			<ellipse id="circle75" cy="14.511593" cx="24.581718" rx="1.0028456" ry="1.003224" />
			<ellipse id="circle77" cy="27.146214" cx="24.595434" rx="1.0028456" ry="1.003224" />
			<ellipse id="circle79" cy="10.479833" cx="24.595434" rx="1.0028456" ry="1.003224" />
			<ellipse id="circle81" cy="43.813454" cx="24.595434" rx="1.0028456" ry="1.003224" />
			<ellipse id="circle83" cy="37.211895" cx="26.983406" rx="1.0028456" ry="1.003224" />
			<ellipse id="circle85" cy="20.544655" cx="26.983406" rx="1.0028456" ry="1.003224" />
			<ellipse id="circle87" cy="3.8782744" cx="26.983406" rx="1.0028456" ry="1.003224" />
			<ellipse id="circle89" cy="24.800213" cx="28.892242" rx="1.0028456" ry="1.003224" />
			<ellipse id="circle91" cy="8.133832" cx="28.892242" rx="1.0028456" ry="1.003224" />
			<ellipse id="circle93" cy="41.467449" cx="28.892242" rx="1.0028456" ry="1.003224" />
			<ellipse id="circle95" cy="33.363628" cx="29.020809" rx="1.0028456" ry="1.003224" />
			<ellipse id="circle97" cy="33.363628" cx="29.020809" rx="1.0028456" ry="1.003224" />
			<ellipse id="circle99" cy="16.697248" cx="29.020809" rx="1.0028456" ry="1.003224" />
			<ellipse id="circle101" cy="16.697248" cx="29.020809" rx="1.0028456" ry="1.003224" />
			<ellipse id="circle103" cy="29.012896" cx="30.46851" rx="1.0028456" ry="1.003224" />
			<ellipse id="circle105" cy="12.346514" cx="30.46851" rx="1.0028456" ry="1.003224" />
			<ellipse id="circle107" cy="45.680134" cx="30.46851" rx="1.0028456" ry="1.003224" />
			<ellipse id="circle109" cy="39.313519" cx="33.393047" rx="1.0028456" ry="1.003224" />
			<ellipse id="circle111" cy="35.187439" cx="33.393047" rx="1.0028456" ry="1.003224" />
			<ellipse id="circle113" cy="22.647141" cx="33.393047" rx="1.0028456" ry="1.003224" />
			<ellipse id="circle115" cy="18.520201" cx="33.393047" rx="1.0028456" ry="1.003224" />
			<ellipse id="circle117" cy="5.9799004" cx="33.393047" rx="1.0028456" ry="1.003224" />
			<ellipse id="circle119" cy="1.8538197" cx="33.393047" rx="1.0028456" ry="1.003224" />
			<ellipse id="circle121" cy="33.326759" cx="4.2179518" rx="1.0028456" ry="1.003224" />
			<ellipse id="circle123" cy="16.659521" cx="4.2179518" rx="1.0028456" ry="1.003224" />
			<ellipse id="circle125" cy="29.012896" cx="35.334454" rx="1.0028456" ry="1.003224" />
			<ellipse id="circle127" cy="12.346514" cx="35.334454" rx="1.0028456" ry="1.003224" />
			<ellipse id="circle129" cy="45.680134" cx="35.334454" rx="1.0028456" ry="1.003224" />
			<ellipse id="circle131" cy="33.363628" cx="37.646141" rx="1.0028456" ry="1.003224" />
			<ellipse id="circle133" cy="16.659521" cx="37.646141" rx="1.0028456" ry="1.003224" />
			<ellipse id="circle135" cy="24.800213" cx="37.820141" rx="1.0028456" ry="1.003224" />
			<ellipse id="circle137" cy="8.133832" cx="37.820141" rx="1.0028456" ry="1.003224" />
			<ellipse id="circle139" cy="41.467449" cx="37.820141" rx="1.0028456" ry="1.003224" />
			<ellipse id="circle141" cy="37.211895" cx="39.292694" rx="1.0028456" ry="1.003224" />
			<ellipse id="circle143" cy="20.544655" cx="39.292694" rx="1.0028456" ry="1.003224" />
			<ellipse id="circle145" cy="3.8782744" cx="39.292694" rx="1.0028456" ry="1.003224" />
			<ellipse id="circle147" cy="47.845211" cx="41.295815" rx="1.0028456" ry="1.003224" />
			<ellipse id="circle149" cy="31.178831" cx="41.295815" rx="1.0028456" ry="1.003224" />
			<ellipse id="circle151" cy="14.511593" cx="41.295815" rx="1.0028456" ry="1.003224" />
			<ellipse id="circle153" cy="27.146214" cx="41.309528" rx="1.0028456" ry="1.003224" />
			<ellipse id="circle155" cy="10.479833" cx="41.309528" rx="1.0028456" ry="1.003224" />
			<ellipse id="circle157" cy="43.813454" cx="41.309528" rx="1.0028456" ry="1.003224" />
			<ellipse id="circle159" cy="24.800213" cx="4.3919497" rx="1.0028456" ry="1.003224" />
			<ellipse id="circle161" cy="8.133832" cx="4.3919497" rx="1.0028456" ry="1.003224" />
			<ellipse id="circle163" cy="41.467449" cx="4.3919497" rx="1.0028456" ry="1.003224" />
			<ellipse id="circle165" cy="37.211895" cx="43.697498" rx="1.0028456" ry="1.003224" />
			<ellipse id="circle167" cy="20.544655" cx="43.697498" rx="1.0028456" ry="1.003224" />
			<ellipse id="circle169" cy="3.8782744" cx="43.697498" rx="1.0028456" ry="1.003224" />
			<ellipse id="circle171" cy="24.800213" cx="45.606335" rx="1.0028456" ry="1.003224" />
			<ellipse id="circle173" cy="8.133832" cx="45.606335" rx="1.0028456" ry="1.003224" />
			<ellipse id="circle175" cy="41.467449" cx="45.606335" rx="1.0028456" ry="1.003224" />
			<ellipse id="circle177" cy="33.363628" cx="45.734905" rx="1.0028456" ry="1.003224" />
			<ellipse id="circle179" cy="33.363628" cx="45.734905" rx="1.0028456" ry="1.003224" />
			<ellipse id="circle181" cy="16.697248" cx="45.734905" rx="1.0028456" ry="1.003224" />
			<ellipse id="circle183" cy="16.697248" cx="45.734905" rx="1.0028456" ry="1.003224" />
			<ellipse id="circle185" cy="29.012896" cx="47.182606" rx="1.0028456" ry="1.003224" />
			<ellipse id="circle187" cy="12.346514" cx="47.182606" rx="1.0028456" ry="1.003224" />
			<ellipse id="circle189" cy="45.680134" cx="47.182606" rx="1.0028456" ry="1.003224" />
			<ellipse id="circle191" cy="37.211895" cx="5.8645043" rx="1.0028456" ry="1.003224" />
			<ellipse id="circle193" cy="20.544655" cx="5.8645043" rx="1.0028456" ry="1.003224" />
			<ellipse id="circle195" cy="3.8782744" cx="5.8645043" rx="1.0028456" ry="1.003224" />
			<ellipse id="circle197" cy="47.845211" cx="7.8676248" rx="1.0028456" ry="1.003224" />
			<ellipse id="circle199" cy="31.178831" cx="7.8676248" rx="1.0028456" ry="1.003224" />
			<ellipse id="circle201" cy="14.511593" cx="7.8676248" rx="1.0028456" ry="1.003224" />
			<ellipse id="circle203" cy="27.146214" cx="7.8813386" rx="1.0028456" ry="1.003224" />
			<ellipse id="circle205" cy="10.479833" cx="7.8813386" rx="1.0028456" ry="1.003224" />
			<ellipse id="circle207" cy="43.813454" cx="7.8813386" rx="1.0028456" ry="1.003224" />
			<path id="path209" d="m 0,36.190664 c 0.55370796,0 1.0028457,-0.44845 1.0028457,-1.003224 0,-0.553059 -0.44913774,-1.003224 -1.0028457,-1.003224" />
			<path id="path211" d="m 8.571371e-4,40.316744 c 0.5537079529,0 1.0028456629,-0.448449 1.0028456629,-1.003224 0,-0.553059 -0.44913771,-1.003224 -1.0028456629,-1.003224" />
			<path id="path213" d="m 8.571371e-4,23.650364 c 0.5537079529,0 1.0028456629,-0.44845 1.0028456629,-1.003224 0,-0.55306 -0.44913771,-1.003224 -1.0028456629,-1.003224" />
			<path id="path215" d="m 0.00342854,6.9831253 c 0.55370795,0 1.00284566,-0.4484497 1.00284566,-1.003224 0,-0.5530594 -0.44913771,-1.003224 -1.00284566,-1.003224" />
			<path id="path217" d="m 0.00342854,2.857045 c 0.55370795,0 1.00284566,-0.4484498 1.00284566,-1.0032241 0,-0.5530594 -0.44913771,-1.00322402 -1.00284566,-1.00322402" />
			<path id="path219" d="m 0.0077142,19.523426 c 0.55370796,0 1.0028457,-0.44845 1.0028457,-1.003224 0,-0.55306 -0.44913774,-1.003224 -1.0028457,-1.003224" />
			<path id="path221" d="M 11.303871,9.5320004e-8 C 11.303871,0.55477441 11.753009,1.0032241 12.306716,1.0032241 c 0.553708,0 1.002846,-0.44844969 1.002846,-1.003224004679996" />
			<path id="path223" d="m 13.309562,50 c 0,-0.553059 -0.449138,-1.003224 -1.002846,-1.003224 -0.553707,0 -1.002845,0.450165 -1.002845,1.003224" />
			<path id="path225" d="m 19.929201,0.00257246 c 0,0.55477432 0.449138,1.00322404 1.002845,1.00322404 0.553708,0 1.002846,-0.44844972 1.002846,-1.00322404" />
			<path id="path227" d="m 21.934892,49.99314 c 0,-0.553059 -0.449138,-1.003224 -1.002846,-1.003224 -0.553707,0 -1.002845,0.450165 -1.002845,1.003224" />
			<path id="path229" d="M 3.2151061,9.5320004e-8 C 3.2151061,0.55477441 3.6642438,1.0032241 4.2179518,1.0032241 4.7716597,1.0032241 5.2207975,0.55477441 5.2207975,9.5320004e-8" />
			<path id="path231" d="M 28.017965,9.5320004e-8 C 28.017965,0.55477441 28.467103,1.0032241 29.020811,1.0032241 c 0.553708,0 1.002846,-0.44844969 1.002846,-1.003224004679996" />
			<path id="path233" d="m 30.023657,49.992283 c 0,-0.553059 -0.449138,-1.003224 -1.002846,-1.003224 -0.553708,0 -1.002846,0.450165 -1.002846,1.003224" />
			<path id="path235" d="M 36.643295,9.5320004e-8 C 36.643295,0.55477441 37.092433,1.0032241 37.646141,1.0032241 c 0.553708,0 1.002846,-0.44844969 1.002846,-1.003224004679996" />
			<path id="path237" d="m 38.648987,49.99314 c 0,-0.553059 -0.449138,-1.003224 -1.002846,-1.003224 -0.553708,0 -1.002846,0.450165 -1.002846,1.003224" />
			<path id="path239" d="M 44.73206,9.5320004e-8 C 44.73206,0.55477441 45.181198,1.0032241 45.734906,1.0032241 c 0.553708,0 1.002845,-0.44844969 1.002845,-1.003224004679996" />
			<path id="path241" d="m 46.737751,49.992283 c 0,-0.553059 -0.449137,-1.003224 -1.002845,-1.003224 -0.553708,0 -1.002846,0.450165 -1.002846,1.003224" />
			<path id="path243" d="m 49.985429,17.516978 c -0.553708,0 -1.002846,0.450164 -1.002846,1.003224 0,0.554774 0.449138,1.003224 1.002846,1.003224" />
			<path id="path245" d="m 49.985429,4.9766773 c -0.553708,0 -1.002846,0.4501646 -1.002846,1.003224 0,0.5547743 0.449138,1.003224 1.002846,1.003224" />
			<path id="path247" d="m 50,38.310296 c -0.553708,0 -1.002846,0.450165 -1.002846,1.003224 0,0.554775 0.449138,1.003224 1.002846,1.003224" />
			<path id="path249" d="m 50,34.184216 c -0.553708,0 -1.002846,0.450165 -1.002846,1.003224 0,0.554774 0.449138,1.003224 1.002846,1.003224" />
			<path id="path251" d="m 50,21.643916 c -0.553708,0 -1.002846,0.450164 -1.002846,1.003224 0,0.554774 0.449138,1.003224 1.002846,1.003224" />
			<path id="path253" d="m 50,0.85059688 c -0.553708,0 -1.002846,0.45016462 -1.002846,1.00322402 0,0.5547743 0.449138,1.0032241 1.002846,1.0032241" />
			<path id="path255" d="m 5.2207975,49.99314 c 0,-0.553059 -0.4491378,-1.003224 -1.0028457,-1.003224 -0.553708,0 -1.0028457,0.450165 -1.0028457,1.003224" />
		</g>
	</g>
</svg>