<?xml version="1.0" encoding="UTF-8" standalone="no"?>
<svg xmlns:dc="http://purl.org/dc/elements/1.1/" xmlns:cc="http://creativecommons.org/ns#" xmlns:rdf="http://www.w3.org/1999/02/22-rdf-syntax-ns#" xmlns:svg="http://www.w3.org/2000/svg" xmlns="http://www.w3.org/2000/svg" version="1.1" x="0px" y="0px" xml:space="preserve" width="50.00" height="50.00" viewBox="0 0 50.00 50.00">
	<metadata id="metadata2">
		<rdf:RDF>
			<ns:item rdf:ID="biblio1">
				<ns:link>rdf:resource=&quot;http://pubs.usgs.gov/tm/2006/11A02/</ns:link>
				<ns:title>U.S. Geological Survey, 2006, FGDC Digital Cartographic Standard for Geologic Map Symbolization (PostScript Implementation): U.S. Geological Survey Techniques and Methods 11-A2</ns:title>
			</ns:item>
			<ns:item rdf:ID="biblio2">
				<ns:link>https://davenquinn.com/projects/geologic-patterns/</ns:link>
				<ns:title>FGDC Geologic Patterns for the Web</ns:title>
			</ns:item>
			<rdf:Description>
				<dc:description>
					Converted from 'FGDC Geologic Patterns for the Web' to QGIS compatible svg symbols, with customisable fill colour/stroke colour/stroke width (when appropriate).
					SVG scaled to 50x50 pixels so that base outline-width is 0.387 px and width is 90 in the QGIS xml definition file. 
					Some of the original FGDC symbols have been omitted from this set because they can be generated from other symbols using the 'texture width' and/or 'stroke width' fields in QGIS symbology form.
				</dc:description>
				<dc:date>01 MARCH 2019</dc:date>
				<dc:creator>GeoProc.com</dc:creator>
				<dc:publisher rdf:resource="https://github.com/BC-Consulting/QGIS-FGDC-Fill" />
			</rdf:Description>
			<cc:Work rdf:about="">
				<dc:format>image/svg+xml</dc:format>
				<dc:type rdf:resource="http://purl.org/dc/dcmitype/StillImage" />
				<dc:title>FGDC fill symbol: Surficial - 121</dc:title>
			</cc:Work>
		</rdf:RDF>
	</metadata>
	<path style="fill:none;stroke:none;stroke-width:0;" id="rect1500" width="50.00" height="50.00" x="0.0" y="0.0" />
	<g fill="param(outline) #000000" style="stroke:none;stroke-width:0">
		<circle cx="0.91059029" cy="21.829863" r="0.7673611" id="circle228" />
		<circle cx="1.0920138" cy="47.633682" r="0.7673611" id="circle472" />
		<circle cx="1.2291666" cy="39.431423" r="0.7673611" id="circle476" />
		<circle cx="1.3003471" cy="17.177952" r="0.7673611" id="circle230" />
		<circle cx="1.4279513" cy="31.085938" r="0.7673611" id="circle418" />
		<circle cx="1.6093751" cy="27.211805" r="0.7673611" id="circle420" />
		<circle cx="1.9262154" cy="24.264757" r="0.7673611" id="circle424" />
		<circle cx="10.134549" cy="26.402779" r="0.7673611" id="circle408" />
		<circle cx="11.211806" cy="4.9262161" r="0.7673611" id="circle200" />
		<circle cx="11.269965" cy="21.123264" r="0.7673611" id="circle218" />
		<circle cx="11.320312" cy="45.073784" r="0.7673611" id="circle502" />
		<circle cx="11.537327" cy="38.454861" r="0.7673611" id="circle484" />
		<circle cx="11.653646" cy="1.0199661" r="0.7673611" id="circle194" />
		<circle cx="11.653646" cy="10.560766" r="0.7673611" id="circle248" />
		<circle cx="11.842014" cy="14.951389" r="0.7673611" id="circle242" />
		<circle cx="12.19618" cy="32.8125" r="0.7673611" id="circle384" />
		<circle cx="12.622396" cy="7.6388898" r="0.7673611" id="circle202" />
		<circle cx="13.056424" cy="42.252605" r="0.7673611" id="circle504" />
		<circle cx="13.064236" cy="48.220486" r="0.7673611" id="circle460" />
		<circle cx="13.172743" cy="24.131945" r="0.7673611" id="circle400" />
		<circle cx="13.252604" cy="18.619791" r="0.7673611" id="circle240" />
		<circle cx="13.443576" cy="2.8098969" r="0.7673611" id="circle192" />
		<circle cx="13.498263" cy="27.162327" r="0.7673611" id="circle398" />
		<circle cx="13.823784" cy="36.067711" r="0.7673611" id="circle370" />
		<circle cx="13.932291" cy="12.730905" r="0.7673611" id="circle246" />
		<circle cx="14.688368" cy="30.479166" r="0.7673611" id="circle388" />
		<circle cx="14.988715" cy="15.907117" r="0.7673611" id="circle244" />
		<circle cx="15.017361" cy="21.636286" r="0.7673611" id="circle216" />
		<circle cx="15.017361" cy="4.9262161" r="0.7673611" id="circle190" />
		<circle cx="15.118056" cy="39.539932" r="0.7673611" id="circle486" />
		<circle cx="15.125868" cy="44.965279" r="0.7673611" id="circle456" />
		<circle cx="15.717882" cy="10.598091" r="0.7673611" id="circle204" />
		<circle cx="15.993923" cy="0.90364766" r="0.7673611" id="circle522" />
		<circle cx="16.10243" cy="33.029514" r="0.7673611" id="circle368" />
		<circle cx="16.42795" cy="47.786457" r="0.7673611" id="circle458" />
		<circle cx="16.48177" cy="7.9644108" r="0.7673611" id="circle188" />
		<circle cx="16.528646" cy="18.381077" r="0.7673611" id="circle238" />
		<circle cx="16.637154" cy="36.71875" r="0.7673611" id="circle494" />
		<circle cx="16.753471" cy="24.449654" r="0.7673611" id="circle402" />
		<circle cx="16.962673" cy="13.281251" r="0.7673611" id="circle206" />
		<circle cx="17.288195" cy="42.144096" r="0.7673611" id="circle506" />
		<circle cx="17.51302" cy="3.0737865" r="0.7673611" id="circle520" />
		<circle cx="17.947048" cy="21.310764" r="0.7673611" id="circle214" />
		<circle cx="18.164062" cy="30.533855" r="0.7673611" id="circle390" />
		<circle cx="18.590279" cy="15.668404" r="0.7673611" id="circle208" />
		<circle cx="18.598089" cy="45.182293" r="0.7673611" id="circle454" />
		<circle cx="18.760416" cy="5.7317696" r="0.7673611" id="circle518" />
		<circle cx="18.815104" cy="33.680557" r="0.7673611" id="circle366" />
		<circle cx="19.132812" cy="38.997395" r="0.7673611" id="circle488" />
		<circle cx="19.169271" cy="10.134549" r="0.7673611" id="circle186" />
		<circle cx="19.683159" cy="48.220486" r="0.7673611" id="circle452" />
		<circle cx="19.783855" cy="18.27257" r="0.7673611" id="circle210" />
		<circle cx="19.900173" cy="1.0199661" r="0.7673611" id="circle44" />
		<circle cx="19.900173" cy="24.449654" r="0.7673611" id="circle404" />
		<circle cx="2.2135417" cy="11.591145" r="0.7673611" id="circle256" />
		<circle cx="2.2135417" cy="6.2204881" r="0.7673611" id="circle276" />
		<circle cx="2.3758681" cy="1.2829849" r="0.7673611" id="circle282" />
		<circle cx="2.6006944" cy="34.42448" r="0.7673611" id="circle378" />
		<circle cx="2.8645835" cy="41.810764" r="0.7673611" id="circle508" />
		<circle cx="2.9730904" cy="45.282986" r="0.7673611" id="circle470" />
		<circle cx="20.094618" cy="27.704861" r="0.7673611" id="circle394" />
		<circle cx="20.706598" cy="7.7473969" r="0.7673611" id="circle516" />
		<circle cx="20.771702" cy="13.064237" r="0.7673611" id="circle184" />
		<circle cx="20.868923" cy="36.176216" r="0.7673611" id="circle490" />
		<circle cx="21.519966" cy="20.985245" r="0.7673611" id="circle212" />
		<circle cx="21.527777" cy="41.601562" r="0.7673611" id="circle446" />
		<circle cx="21.744791" cy="3.9418421" r="0.7673611" id="circle46" />
		<circle cx="21.961805" cy="44.965279" r="0.7673611" id="circle448" />
		<circle cx="22.019096" cy="15.722223" r="0.7673611" id="circle182" />
		<circle cx="22.070312" cy="33.029514" r="0.7673611" id="circle364" />
		<circle cx="22.236111" cy="30.25868" r="0.7673611" id="circle392" />
		<circle cx="22.496529" cy="9.9175358" r="0.7673611" id="circle514" />
		<circle cx="22.938368" cy="48.003471" r="0.7673611" id="circle450" />
		<circle cx="23.198786" cy="23.293402" r="0.7673611" id="circle284" />
		<circle cx="23.480902" cy="1.0199661" r="0.7673611" id="circle42" />
		<circle cx="23.480902" cy="37.803822" r="0.7673611" id="circle444" />
		<circle cx="23.589409" cy="6.6623273" r="0.7673611" id="circle48" />
		<circle cx="23.592882" cy="18.434896" r="0.7673611" id="circle180" />
		<circle cx="23.783854" cy="26.619791" r="0.7673611" id="circle406" />
		<circle cx="24.232639" cy="12.630209" r="0.7673611" id="circle162" />
		<circle cx="24.674479" cy="41.702259" r="0.7673611" id="circle440" />
		<circle cx="25.108507" cy="3.7326398" r="0.7673611" id="circle40" />
		<circle cx="25.162327" cy="45.561634" r="0.7673611" id="circle438" />
		<circle cx="25.534723" cy="28.689238" r="0.7673611" id="circle290" />
		<circle cx="25.542534" cy="31.835939" r="0.7673611" id="circle362" />
		<circle cx="25.64323" cy="9.0494804" r="0.7673611" id="circle158" />
		<circle cx="25.704861" cy="21.039064" r="0.7673611" id="circle178" />
		<circle cx="25.96875" cy="35.308159" r="0.7673611" id="circle492" />
		<circle cx="26.048611" cy="24.319445" r="0.7673611" id="circle286" />
		<circle cx="26.302082" cy="48.546009" r="0.7673611" id="circle436" />
		<circle cx="26.888889" cy="0.93229103" r="0.7673611" id="circle524" />
		<circle cx="26.953125" cy="38.888889" r="0.7673611" id="circle442" />
		<circle cx="26.953125" cy="6.4453135" r="0.7673611" id="circle50" />
		<circle cx="27.170139" cy="18.055557" r="0.7673611" id="circle176" />
		<circle cx="27.379341" cy="12.196181" r="0.7673611" id="circle160" />
		<circle cx="27.929688" cy="42.46962" r="0.7673611" id="circle432" />
		<circle cx="28.363714" cy="46.592884" r="0.7673611" id="circle434" />
		<circle cx="28.580729" cy="29.99132" r="0.7673611" id="circle360" />
		<circle cx="28.689236" cy="3.7326398" r="0.7673611" id="circle38" />
		<circle cx="28.689236" cy="33.463543" r="0.7673611" id="circle358" />
		<circle cx="28.78993" cy="26.932293" r="0.7673611" id="circle292" />
		<circle cx="28.797743" cy="15.226564" r="0.7673611" id="circle166" />
		<circle cx="28.826389" cy="24.145834" r="0.7673611" id="circle288" />
		<circle cx="29.043404" cy="21.006075" r="0.7673611" id="circle174" />
		<circle cx="29.332466" cy="8.9409733" r="0.7673611" id="circle156" />
		<circle cx="29.448784" cy="36.935764" r="0.7673611" id="circle428" />
		<circle cx="3.1085069" cy="19.731771" r="0.7673611" id="circle224" />
		<circle cx="3.4314237" cy="29.050346" r="0.7673611" id="circle416" />
		<circle cx="3.4609375" cy="14.474828" r="0.7673611" id="circle232" />
		<circle cx="3.7326391" cy="48.863716" r="0.7673611" id="circle468" />
		<circle cx="3.8333333" cy="37.803822" r="0.7673611" id="circle478" />
		<circle cx="3.841146" cy="9.2039919" r="0.7673611" id="circle260" />
		<circle cx="30.533854" cy="18.264759" r="0.7673611" id="circle168" />
		<circle cx="30.533854" cy="6.0112858" r="0.7673611" id="circle52" />
		<circle cx="30.642361" cy="40.190971" r="0.7673611" id="circle430" />
		<circle cx="30.851562" cy="11.870661" r="0.7673611" id="circle154" />
		<circle cx="31.401909" cy="43.771702" r="0.7673611" id="circle350" />
		<circle cx="31.618923" cy="31.394098" r="0.7673611" id="circle298" />
		<circle cx="31.719618" cy="28.363716" r="0.7673611" id="circle296" />
		<circle cx="31.741322" cy="25.543404" r="0.7673611" id="circle294" />
		<circle cx="31.835938" cy="3.081598" r="0.7673611" id="circle34" />
		<circle cx="31.944445" cy="14.792537" r="0.7673611" id="circle122" />
		<circle cx="32.052952" cy="47.243923" r="0.7673611" id="circle348" />
		<circle cx="32.081596" cy="22.755207" r="0.7673611" id="circle172" />
		<circle cx="32.161457" cy="34.982639" r="0.7673611" id="circle356" />
		<circle cx="32.479168" cy="8.9409733" r="0.7673611" id="circle150" />
		<circle cx="32.895832" cy="19.750868" r="0.7673611" id="circle170" />
		<circle cx="33.191841" cy="38.291668" r="0.7673611" id="circle354" />
		<circle cx="34.006077" cy="16.854168" r="0.7673611" id="circle120" />
		<circle cx="34.006077" cy="41.384548" r="0.7673611" id="circle352" />
		<circle cx="34.10677" cy="11.436633" r="0.7673611" id="circle152" />
		<circle cx="34.223091" cy="6.2282996" r="0.7673611" id="circle54" />
		<circle cx="34.982639" cy="45.065971" r="0.7673611" id="circle346" />
		<circle cx="35.07465" cy="26.160591" r="0.7673611" id="circle310" />
		<circle cx="35.083332" cy="32.052952" r="0.7673611" id="circle300" />
		<circle cx="35.091145" cy="29.115452" r="0.7673611" id="circle312" />
		<circle cx="35.383682" cy="23.166666" r="0.7673611" id="circle126" />
		<circle cx="35.525173" cy="3.2986119" r="0.7673611" id="circle32" />
		<circle cx="35.842884" cy="8.5069456" r="0.7673611" id="circle148" />
		<circle cx="35.850693" cy="14.358509" r="0.7673611" id="circle118" />
		<circle cx="35.959202" cy="19.783855" r="0.7673611" id="circle124" />
		<circle cx="36.276909" cy="35.742188" r="0.7673611" id="circle308" />
		<circle cx="36.71875" cy="47.670139" r="0.7673611" id="circle338" />
		<circle cx="37.04427" cy="42.570312" r="0.7673611" id="circle342" />
		<circle cx="37.470486" cy="11.328126" r="0.7673611" id="circle146" />
		<circle cx="37.586803" cy="39.005207" r="0.7673611" id="circle344" />
		<circle cx="37.695312" cy="16.854168" r="0.7673611" id="circle116" />
		<circle cx="38.129341" cy="6.0112858" r="0.7673611" id="circle56" />
		<circle cx="38.43924" cy="24.58507" r="0.7673611" id="circle112" />
		<circle cx="38.473957" cy="30.440104" r="0.7673611" id="circle314" />
		<circle cx="38.582466" cy="33.315971" r="0.7673611" id="circle316" />
		<circle cx="38.649303" cy="27.396702" r="0.7673611" id="circle128" />
		<circle cx="38.896702" cy="3.0659719" r="0.7673611" id="circle28" />
		<circle cx="38.95052" cy="22.027779" r="0.7673611" id="circle110" />
		<circle cx="39.189236" cy="19.623264" r="0.7673611" id="circle114" />
		<circle cx="39.315105" cy="8.8324661" r="0.7673611" id="circle142" />
		<circle cx="39.431423" cy="45.82552" r="0.7673611" id="circle332" />
		<circle cx="39.640625" cy="36.176216" r="0.7673611" id="circle302" />
		<circle cx="39.756943" cy="14.467016" r="0.7673611" id="circle92" />
		<circle cx="4.2751737" cy="4.2126722" r="0.7673611" id="circle272" />
		<circle cx="4.5034723" cy="25.311632" r="0.7673611" id="circle414" />
		<circle cx="4.6171875" cy="22.498264" r="0.7673611" id="circle422" />
		<circle cx="4.833333" cy="31.754341" r="0.7673611" id="circle380" />
		<circle cx="40.082466" cy="42.136284" r="0.7673611" id="circle340" />
		<circle cx="41.221355" cy="11.1033" r="0.7673611" id="circle140" />
		<circle cx="41.26823" cy="39.322918" r="0.7673611" id="circle304" />
		<circle cx="41.43837" cy="5.3055568" r="0.7673611" id="circle58" />
		<circle cx="41.440975" cy="24.427952" r="0.7673611" id="circle108" />
		<circle cx="41.493053" cy="17.396704" r="0.7673611" id="circle94" />
		<circle cx="41.578991" cy="48.164062" r="0.7673611" id="circle336" />
		<circle cx="42.035591" cy="2.2135425" r="0.7673611" id="circle6" />
		<circle cx="42.074654" cy="33.621529" r="0.7673611" id="circle318" />
		<circle cx="42.079865" cy="27.494791" r="0.7673611" id="circle106" />
		<circle cx="42.23698" cy="30.36632" r="0.7673611" id="circle130" />
		<circle cx="42.469616" cy="20.651911" r="0.7673611" id="circle96" />
		<circle cx="42.469616" cy="44.414932" r="0.7673611" id="circle334" />
		<circle cx="42.570312" cy="7.9644108" r="0.7673611" id="circle144" />
		<circle cx="43.065971" cy="14.195312" r="0.7673611" id="circle90" />
		<circle cx="43.309025" cy="36.355904" r="0.7673611" id="circle322" />
		<circle cx="43.872395" cy="41.710072" r="0.7673611" id="circle306" />
		<circle cx="44.302082" cy="23.709202" r="0.7673611" id="circle98" />
		<circle cx="44.314236" cy="4.437501" r="0.7673611" id="circle60" />
		<circle cx="44.46962" cy="10.568577" r="0.7673611" id="circle74" />
		<circle cx="44.53125" cy="17.45052" r="0.7673611" id="circle88" />
		<circle cx="45.453125" cy="29.6033" r="0.7673611" id="circle104" />
		<circle cx="45.479164" cy="38.743057" r="0.7673611" id="circle324" />
		<circle cx="45.56163" cy="32.804688" r="0.7673611" id="circle320" />
		<circle cx="45.616318" cy="20.00087" r="0.7673611" id="circle86" />
		<circle cx="45.696178" cy="26.432293" r="0.7673611" id="circle100" />
		<circle cx="45.887154" cy="13.652777" r="0.7673611" id="circle76" />
		<circle cx="46.158855" cy="43.663197" r="0.7673611" id="circle328" />
		<circle cx="46.321182" cy="7.8480921" r="0.7673611" id="circle64" />
		<circle cx="46.564236" cy="35.704861" r="0.7673611" id="circle134" />
		<circle cx="46.863716" cy="2.0503483" r="0.7673611" id="circle4" />
		<circle cx="46.918404" cy="48.654514" r="0.7673611" id="circle512" />
		<circle cx="46.980034" cy="22.814236" r="0.7673611" id="circle82" />
		<circle cx="47.360241" cy="5.2361107" r="0.7673611" id="circle62" />
		<circle cx="47.685764" cy="16.086805" r="0.7673611" id="circle78" />
		<circle cx="48.011284" cy="11.203993" r="0.7673611" id="circle70" />
		<circle cx="48.220486" cy="41.317707" r="0.7673611" id="circle326" />
		<circle cx="48.4375" cy="28.898438" r="0.7673611" id="circle102" />
		<circle cx="48.4375" cy="46.050346" r="0.7673611" id="circle510" />
		<circle cx="48.470486" cy="38.084202" r="0.7673611" id="circle138" />
		<circle cx="48.654514" cy="19.349829" r="0.7673611" id="circle80" />
		<circle cx="48.726562" cy="25.118923" r="0.7673611" id="circle84" />
		<circle cx="48.879337" cy="32.145832" r="0.7673611" id="circle132" />
		<circle cx="5.2517362" cy="17.513021" r="0.7673611" id="circle234" />
		<circle cx="5.6857643" cy="11.971356" r="0.7673611" id="circle254" />
		<circle cx="5.6857643" cy="43.546875" r="0.7673611" id="circle496" />
		<circle cx="5.794271" cy="34.65712" r="0.7673611" id="circle376" />
		<circle cx="5.8845487" cy="2.1918397" r="0.7673611" id="circle278" />
		<circle cx="5.8949652" cy="40.190971" r="0.7673611" id="circle480" />
		<circle cx="5.9565973" cy="7.1970506" r="0.7673611" id="circle266" />
		<circle cx="6.2282987" cy="27.611979" r="0.7673611" id="circle412" />
		<circle cx="6.4453125" cy="47.019096" r="0.7673611" id="circle466" />
		<circle cx="6.7248263" cy="21.008682" r="0.7673611" id="circle222" />
		<circle cx="7.1762156" cy="14.68403" r="0.7673611" id="circle252" />
		<circle cx="7.3732643" cy="25.182291" r="0.7673611" id="circle426" />
		<circle cx="7.414063" cy="5.2517371" r="0.7673611" id="circle270" />
		<circle cx="7.9644098" cy="37.803822" r="0.7673611" id="circle374" />
		<circle cx="8.0043402" cy="29.526911" r="0.7673611" id="circle410" />
		<circle cx="8.072917" cy="9.9097242" r="0.7673611" id="circle264" />
		<circle cx="8.3532991" cy="32.45573" r="0.7673611" id="circle382" />
		<circle cx="8.3914928" cy="19.190971" r="0.7673611" id="circle226" />
		<circle cx="8.4991322" cy="44.53125" r="0.7673611" id="circle500" />
		<circle cx="9.2196188" cy="3.0112846" r="0.7673611" id="circle196" />
		<circle cx="9.2664928" cy="23.263889" r="0.7673611" id="circle220" />
		<circle cx="9.5920143" cy="48.11198" r="0.7673611" id="circle462" />
		<circle cx="9.5920143" cy="7.4140644" r="0.7673611" id="circle268" />
		<circle cx="9.8090277" cy="35.091148" r="0.7673611" id="circle372" />
		<circle cx="9.8810768" cy="17.04948" r="0.7673611" id="circle236" />
		<circle cx="9.9097223" cy="41.493057" r="0.7673611" id="circle482" />
		<circle cx="9.9175348" cy="12.513891" r="0.7673611" id="circle250" />
		<circle cx="11.056424" cy="29.502604" r="0.7673611" id="circle386" />
		<circle cx="16.753471" cy="27.596354" r="0.7673611" id="circle396" />
		<circle cx="25.49132" cy="15.305557" r="0.7673611" id="circle164" />
		<circle cx="44.585068" cy="46.538197" r="0.7673611" id="circle330" />
		<path d="M 0,1.8400001e-7 V 0.78819463 c 0.41059028,-0.015625 0.73871528,-0.3515625 0.73871528,-0.765625 0,-0.0069444 0,-0.01475695 -8.6805e-4,-0.0217013904 H 8.6805556e-4" id="path280" />
		<path d="M 0,14.420139 C 0.41840278,14.414063 0.75607639,14.073785 0.75607639,13.653646 0.75607639,13.234375 0.41840278,12.892361 0,12.887153" id="path258" />
		<path d="M 0,4.1657988 C 0.41840278,4.1597224 0.75607639,3.8194446 0.75607639,3.3993058 0.75607639,2.9800349 0.41840278,2.638021 0,2.6328127" id="path274" />
		<path d="M 0,8.7048613 C 0.4140625,8.6935766 0.74565973,8.3550349 0.74565973,7.9383683 0.74565973,7.5217016 0.4140625,7.1831599 0,7.1718752" id="path262" />
		<path d="M 30.540799,1.8400001e-7 C 30.534722,0.41840296 30.193577,0.75694463 29.774306,0.75694463 c -0.419271,0 -0.760417,-0.33767361 -0.766493,-0.75694444599999" id="path36" />
		<path d="M 34.942709,1.8400001e-7 C 34.92882,0.41145852 34.591146,0.74131963 34.176215,0.74131963 c -0.414062,0 -0.752604,-0.32899305 -0.766493,-0.74131944599999" id="path30" />
		<path d="M 39.618924,1.8400001e-7 C 39.610243,0.41666685 39.270834,0.7517363 38.852431,0.7517363 38.434896,0.7517363 38.09375,0.41666685 38.085938,1.8400001e-7" id="path8" />
		<path d="M 8.4496528,1.8400001e-7 C 8.4418403,0.41666685 8.1015625,0.7517363 7.6831598,0.7517363 7.265625,0.7517363 6.9244792,0.4157988 6.9166667,1.8400001e-7" id="path198" />
		<path d="M 8.6805556e-4,50 H 0.71961806 C 0.70920139,49.601563 0.39496528,49.279514 0,49.256077 V 50" id="path474" />
		<path d="m 0,35.916667 c 0.01388889,8.68e-4 0.02777778,8.68e-4 0.04166667,8.68e-4 0.42361111,0 0.76736111,-0.34375 0.76736111,-0.767361 0,-0.423611 -0.34288194,-0.767361 -0.76736111,-0.767361 -0.01388889,0 -0.02777778,0 -0.04166667,8.68e-4" id="path136" />
		<path d="m 0,43.023438 c 0.40885417,0.01736 0.734375,0.354167 0.734375,0.766493 0,0.412326 -0.32638889,0.747396 -0.734375,0.764757" id="path498" />
		<path d="m 30.510417,50 c 0,-0.0043 0,-0.0078 0,-0.01215 0,-0.423611 -0.34375,-0.767361 -0.767361,-0.767361 -0.422743,0 -0.767361,0.34375 -0.767361,0.767361 0,0.0043 0,0.0078 0,0.01215" id="path22" />
		<path d="m 34.893229,50 c 0,-0.0052 0,-0.01042 0,-0.01563 0,-0.423611 -0.34375,-0.767361 -0.767361,-0.767361 -0.422743,0 -0.767361,0.34375 -0.767361,0.767361 0,0.0052 0,0.01042 0,0.01563" id="path24" />
		<path d="m 39.625,50 c 0,-0.0043 0,-0.0078 0,-0.01215 0,-0.423611 -0.34375,-0.767361 -0.767361,-0.767361 -0.422743,0 -0.767361,0.34375 -0.767361,0.767361 0,0.0043 0,0.0078 0,0.01215" id="path26" />
		<path d="m 43.463542,50 c 0.0217,-0.403645 0.356771,-0.724826 0.765625,-0.724826 0.409722,0 0.743924,0.321181 0.765625,0.724826" id="path12" />
		<path d="m 43.480035,1.8400001e-7 c 0,0.009548616 -8.68e-4,0.019965276 -8.68e-4,0.029513886 0,0.42361112 0.344618,0.76736112 0.767361,0.76736112 0.423611,0 0.767361,-0.34375 0.767361,-0.76736112 0,-0.01041666 0,-0.01996527 -8.68e-4,-0.029513886" id="path10" />
		<path d="m 50,0.0251738 v 0.71701389 c -0.0061,0 -0.01302,0 -0.0191,0 -0.408854,0 -0.743924,-0.32118056 -0.765625,-0.72482639 H 50" id="path20" />
		<path d="m 50,12.871528 c -0.0087,0 -0.01649,-8.68e-4 -0.0243,-8.68e-4 -0.422743,0 -0.767361,0.34375 -0.767361,0.767361 0,0.423611 0.34375,0.767361 0.767361,0.767361 0.0087,0 0.01649,-8.68e-4 0.0243,-8.68e-4" id="path72" />
		<path d="m 50,2.6354169 c -0.392361,0.032986 -0.702257,0.3628472 -0.702257,0.7638889 0,0.4019097 0.309028,0.7309027 0.702257,0.7638888" id="path66" />
		<path d="m 50,34.410591 c -0.0061,0 -0.01302,0 -0.0191,0 -0.422743,0 -0.767361,0.34375 -0.767361,0.767361 0,0.423611 0.34375,0.767361 0.767361,0.767361 0.0061,0 0.01302,0 0.0191,0" id="path14" />
		<path d="m 50,43.036459 c -0.0061,0 -0.01302,0 -0.0191,0 -0.422743,0 -0.767361,0.34375 -0.767361,0.767361 0,0.423611 0.34375,0.767361 0.767361,0.767361 0.0061,0 0.01302,0 0.0191,-8.68e-4" id="path16" />
		<path d="m 50,49.993056 v -0.717014 c -0.0061,0 -0.01302,-8.68e-4 -0.0191,-8.68e-4 -0.408854,0 -0.743924,0.321181 -0.765625,0.724826 H 50" id="path18" />
		<path d="m 50,7.1354169 c -0.417534,0.00608 -0.756076,0.3472222 -0.756076,0.766493 0,0.4201389 0.338542,0.7612848 0.756076,0.7673612" id="path68" />
		<path d="m 8.4592014,50 c 8.681e-4,-0.01476 0.00174,-0.02864 0.00174,-0.0434 0,-0.423611 -0.34375,-0.767361 -0.7673611,-0.767361 -0.422743,0 -0.7673611,0.34375 -0.7673611,0.767361 0,0.01476 8.681e-4,0.02951 0.00174,0.0434" id="path464" />	</g>
</svg>
