<?xml version="1.0" encoding="UTF-8" standalone="no"?>
<svg xmlns:dc="http://purl.org/dc/elements/1.1/" xmlns:cc="http://creativecommons.org/ns#" xmlns:rdf="http://www.w3.org/1999/02/22-rdf-syntax-ns#" xmlns:svg="http://www.w3.org/2000/svg" xmlns="http://www.w3.org/2000/svg" version="1.1" x="0px" y="0px" xml:space="preserve" width="50.00" height="50.00" viewBox="0 0 50.00 50.00">
	<metadata id="metadata2">
		<rdf:RDF>
			<ns:item rdf:ID="biblio1">
				<ns:link>rdf:resource=&quot;http://pubs.usgs.gov/tm/2006/11A02/</ns:link>
				<ns:title>U.S. Geological Survey, 2006, FGDC Digital Cartographic Standard for Geologic Map Symbolization (PostScript Implementation): U.S. Geological Survey Techniques and Methods 11-A2</ns:title>
			</ns:item>
			<ns:item rdf:ID="biblio2">
				<ns:link>https://davenquinn.com/projects/geologic-patterns/</ns:link>
				<ns:title>FGDC Geologic Patterns for the Web</ns:title>
			</ns:item>
			<rdf:Description>
				<dc:description>
					Converted from 'FGDC Geologic Patterns for the Web' to QGIS compatible svg symbols, with customisable fill colour/stroke colour/stroke width (when appropriate).
					SVG scaled to 50x50 pixels so that base outline-width is 0.387 px and width is 90 in the QGIS xml definition file. 
					Some of the original FGDC symbols have been omitted from this set because they can be generated from other symbols using the 'texture width' and/or 'stroke width' fields in QGIS symbology form.
				</dc:description>
				<dc:date>01 MARCH 2019</dc:date>
				<dc:creator>GeoProc.com</dc:creator>
				<dc:publisher rdf:resource="https://github.com/BC-Consulting/QGIS-FGDC-Fill" />
			</rdf:Description>
			<cc:Work rdf:about="">
				<dc:format>image/svg+xml</dc:format>
				<dc:type rdf:resource="http://purl.org/dc/dcmitype/StillImage" />
				<dc:title>FGDC fill symbol: Surficial - 123</dc:title>
			</cc:Work>
		</rdf:RDF>
	</metadata>
	<path style="fill:none;stroke:none;stroke-width:0;" id="rect1500" width="50.00" height="50.00" x="0.0" y="0.0" />
	<g style="fill:none;" stroke="param(outline) #000" stroke-width="param(outline-width) 0.387">
		<path id="path5" d="M 3.424998,0.33673014 C 4.4333026,0.00207443 4.4738585,1.9021675 3.5998081,2.2500424 2.7257576,2.5979174 2.6383526,0.59763636 3.424998,0.33673014 Z" />
		<path id="path7" d="M 7.0960098,0.6846051 C 7.4966746,-0.03271307 9.2811359,0.94551132 8.3196804,1.8151987 7.358225,2.6848861 6.6589846,1.4673238 7.0960098,0.6846051 Z" />
		<path id="path9" d="M 12.165502,2.3370112 C 12.833976,3.4008128 13.126958,4.6851671 11.553667,4.076386 9.9803763,3.4676048 11.728477,1.6412612 12.165502,2.3370112 Z" />
		<path id="path11" d="m 15.661704,1.380355 c -0.774758,0.2205527 -0.87405,2.0872498 0.786646,2.0872498 1.660695,0 -0.174811,-2.2611873 -0.786646,-2.0872498 z" />
		<path id="path13" d="M 21.168222,0.07582392 C 21.73111,-0.37223903 22.741513,1.2933863 21.430437,1.72823 20.119361,2.1630737 20.731197,0.42369888 21.168222,0.07582392 Z" />
		<path id="path15" d="M 28.24803,0.2497614 C 26.699912,0.46961837 27.461385,1.9891362 28.597651,1.8151987 29.733916,1.6412612 29.471701,0.07582392 28.24803,0.2497614 Z" />
		<path id="path17" d="m 1.1524669,5.2939483 c 0.323049,-0.7347119 1.6606958,0 1.2236706,0.8696874 C 1.9391123,7.0340189 0.54063155,6.6854482 1.1524669,5.2939483 Z" />
		<path id="path19" d="M 4.4738585,9.8170185 C 3.5627483,10.64844 4.6486686,12.165175 5.522719,11.382456 c 0.8740505,-0.782719 0,-2.5220936 -1.0488605,-1.5654375 z" />
		<path id="path21" d="m 0.10360634,20.601142 c 0.29507942,-1.291312 1.83550596,0.521813 1.22367056,1.3915 -0.61183526,0.869688 -1.66069578,0.521813 -1.22367056,-1.3915 z" />
		<path id="path23" d="M 3.9494283,15.035143 C 4.69342,14.294865 5.7849342,15.20908 4.7360737,16.426643 3.6872131,17.644205 3.512403,15.469987 3.9494283,15.035143 Z" />
		<path id="path25" d="M 33.929358,0.85854258 C 35.091496,0.2803744 35.240434,2.0761049 34.366383,2.5979174 33.492333,3.1197298 33.230118,1.2064175 33.929358,0.85854258 Z" />
		<path id="path27" d="m 39.523281,1.4673238 c 0.942576,-0.1878525 1.660696,1.3045311 0.437025,1.7393748 -1.22367,0.4348437 -1.311075,-1.5654374 -0.437025,-1.7393748 z" />
		<path id="path29" d="M 0.27841642,24.775642 C 0.59587154,24.038843 1.2398719,24.079892 1.414682,25.384423 1.5894921,26.688954 -0.50822897,26.601985 0.27841642,24.775642 Z" />
		<path id="path31" d="M 0.71544164,29.993766 C 0.94898792,28.911179 2.4635425,29.03711 2.3761375,30.254672 2.2887324,31.472235 0.45322651,31.211329 0.71544164,29.993766 Z" />
		<path id="path33" d="m 2.1139223,35.298859 c 1.1600398,-1.07215 1.922911,1.304531 0.8740505,1.565438 -1.0488605,0.260906 -2.09772107,-0.434844 -0.8740505,-1.565438 z" />
		<path id="path35" d="M 2.1139223,40.08214 C 2.9474168,39.045473 3.7746182,40.690921 2.9879728,41.386671 2.2013274,42.082421 1.414682,40.951132 2.1139223,40.08214 Z" />
		<path id="path37" d="m 7.1946027,35.729529 c 0.8985239,-1.400545 1.3495339,0.205246 1.2740159,1.433244 -0.074819,1.226608 -2.3011999,0.167676 -1.2740159,-1.433244 z" />
		<path id="path39" d="M 48.205049,0.55728286 C 48.721089,-0.98380321 49.865745,1.4269703 48.816885,2.3836264 47.768024,3.3402825 47.855429,1.6009077 48.205049,0.55728286 Z" />
		<path id="path41" d="m 46.384927,5.728792 c 1.020191,-0.072358 1.311075,1.3914999 0.34962,1.8263436 -0.961456,0.4348437 -1.573291,-1.7393748 -0.34962,-1.8263436 z" />
		<path id="path43" d="m 48.72948,9.990956 c -0.882442,0.768108 0.0874,2.348156 0.87405,1.478469 0.786645,-0.869688 -0.17481,-2.0872502 -0.87405,-1.478469 z" />
		<path id="path45" d="m 48.991695,14.165456 c 0.857968,-0.74654 1.485885,1.739374 0.52443,2.000281 -0.961456,0.260906 -1.223671,-1.3915 -0.52443,-2.000281 z" />
		<path id="path47" d="m 47.156189,18.600861 c 1.252339,-0.146107 0.961455,2.000281 0.08741,2.174219 -0.874051,0.173937 -1.573291,-2.000281 -0.08741,-2.174219 z" />
		<path id="path49" d="m 47.243594,24.166861 c 1.039071,0.345092 0.786645,2.609062 -0.34962,1.826343 -1.136266,-0.782718 -0.17481,-2.000281 0.34962,-1.826343 z" />
		<path id="path51" d="m 46.456948,28.950141 c 1.020891,0.676965 -2.185126,2.696031 -1.660695,0.869688 0.52443,-1.826344 1.136265,-1.217563 1.660695,-0.869688 z" />
		<path id="path53" d="m 48.816885,32.602828 c -0.931389,0.617826 -0.699241,3.043906 0.34962,2.08725 1.04886,-0.956656 0.437025,-2.609062 -0.34962,-2.08725 z" />
		<path id="path55" d="m 47.593214,37.820953 c 1.198498,0.357615 1.573291,2.000281 0.262215,2.000281 -1.311076,0 -1.136265,-2.261187 -0.262215,-2.000281 z" />
		<path id="path57" d="m 48.72948,43.038381 c 1.04886,-0.521812 1.22367,1.652407 0.262215,2.08725 -0.961456,0.434844 -1.485886,-1.478468 -0.262215,-2.08725 z" />
		<path id="path59" d="m 9.1063258,5.9896982 c 1.1138902,0.665137 1.2236702,2.696031 0,2.2611873 -1.2236706,-0.4348437 -0.4370252,-2.5220935 0,-2.2611873 z" />
		<path id="path61" d="m 19.682336,5.728792 c 0.824405,-0.091143 1.136266,2.000281 0.17481,2.000281 -0.961455,0 -0.961455,-1.9133122 -0.17481,-2.000281 z" />
		<path id="path63" d="m 23.965183,3.8154797 c 1.336948,0 1.485886,2.0872498 0.262215,2.0002811 -1.22367,-0.086969 -1.311075,-2.0002811 -0.262215,-2.0002811 z" />
		<path id="path65" d="M 30.520562,4.1633547 C 31.911351,4.5098382 30.782777,6.6854482 29.908726,6.076667 29.034676,5.4678858 29.471701,3.9024485 30.520562,4.1633547 Z" />
		<path id="path67" d="m 37.07594,5.1200108 c 1.108995,0.2455998 0.87405,1.9133123 -0.08741,1.9133123 -0.961456,0 -0.699241,-2.0872497 0.08741,-1.9133123 z" />
		<path id="path69" d="M 42.27619,7.7297688 C 43.689355,8.241145 43.412456,10.773675 41.839165,10.338831 40.265874,9.9039873 41.314735,7.3818938 42.27619,7.7297688 Z" />
		<path id="path71" d="m 44.680179,12.773956 c 0.701338,-0.06958 0.87405,1.739375 0,2.087249 -0.874051,0.347875 -0.874051,-2.000281 0,-2.087249 z" />
		<path id="path73" d="m 33.404928,8.4255187 c 0.786645,-0.2609062 1.398481,1.3914998 0.262215,1.8263433 -1.136265,0.434844 -1.311076,-1.4784683 -0.262215,-1.8263433 z" />
		<path id="path75" d="m 5.6975291,45.865213 c 0.83769,-0.500244 1.922911,1.304532 1.1362656,1.913313 -0.7866454,0.608781 -2.010316,-1.3915 -1.1362656,-1.913313 z" />
		<path id="path77" d="M 0.71544164,46.647932 C 1.4209752,44.774973 2.4635425,48.300338 1.414682,48.648213 0.36582147,48.996088 0.19101138,48.039432 0.71544164,46.647932 Z" />
		<path id="path79" d="m 11.990692,47.604588 c 0.390876,-0.777848 2.010316,2.000281 1.136266,2.348156 -0.874051,0.347875 -1.660696,-1.304531 -1.136266,-2.348156 z" />
		<path id="path81" d="m 20.206766,45.865213 c 0.778954,-0.110624 1.223671,2.000281 0,2.08725 -1.22367,0.08697 -0.611835,-2.000281 0,-2.08725 z" />
		<path id="path83" d="m 33.841953,46.300057 c 0.894329,-1.026927 1.311076,2.000281 0.437025,2.348156 -0.87405,0.347875 -1.57329,-1.043625 -0.437025,-2.348156 z" />
		<path id="path85" d="m 39.523281,46.995807 c -0.758676,0.431365 -1.136266,2.435125 0.34962,1.913312 1.485886,-0.521812 0.262215,-2.261187 -0.34962,-1.913312 z" />
		<path id="path87" d="m 43.980938,48.039432 c 0.398567,-0.793155 1.485886,0.260906 1.223671,1.217562 -0.262215,0.956656 -2.097721,0.521813 -1.223671,-1.217562 z" />
		<path id="path89" d="m 25.625879,46.82187 c 0.899922,0.336047 1.835506,-2.000281 0.69924,-2.435125 -1.136265,-0.434844 -1.39848,2.174218 -0.69924,2.435125 z" />
		<path id="path91" d="m 29.821321,45.256432 c 0.752383,-0.28804 1.573291,1.913313 0.611836,2.08725 -0.961456,0.173937 -1.748101,-1.652406 -0.611836,-2.08725 z" />
		<path id="path93" d="m 15.836514,44.125839 c 1.027184,-0.226815 1.573291,2.782999 0.34962,2.869968 -1.22367,0.08697 -1.136265,-2.696031 -0.34962,-2.869968 z" />
		<path id="path95" d="m 25.713284,34.168266 c 0.585964,-0.175329 1.223671,0.956656 0.874051,1.739375 -0.349621,0.782718 -0.349621,0.869687 -0.786646,1.043624 -0.437025,0.173938 -0.961455,-2.522093 -0.0874,-2.782999 z" />
		<path id="path97" d="m 29.821321,39.995171 c 0.699241,0.69575 1.048861,2.261188 -0.34962,1.652406 -1.398481,-0.608781 0.34962,-1.652406 0.34962,-1.652406 z" />
		<path id="path99" d="m 22.566703,40.256078 c 0.409055,-0.668616 1.39848,0.782718 1.04886,1.304531 -0.34962,0.521812 -2.272531,0.695054 -1.04886,-1.304531 z" />
		<path id="path101" d="m 18.19645,38.603671 c 1.035575,0.63035 0.349621,1.739375 -0.87405,1.478469 -1.223671,-0.260906 -0.69924,-2.435125 0.87405,-1.478469 z" />
		<path id="path103" d="m 12.078097,40.690225 c 1.03138,-0.256731 1.223671,1.217563 0.349621,1.652407 -0.874051,0.434843 -1.048861,-1.478469 -0.349621,-1.652407 z" />
		<path id="path105" d="M 7.6204401,41.559913 C 8.5077761,41.41311 8.4070855,43.995038 7.1834149,43.386256 5.9597443,42.777475 7.0960098,41.646882 7.6204401,41.559913 Z" />
		<path id="path107" d="m 11.903287,35.298859 c 0.376192,-0.641481 1.398481,-0.08697 0.786646,0.956657 -0.611836,1.043624 -1.398481,0.08697 -0.786646,-0.956657 z" />
		<path id="path109" d="m 19.769741,24.340798 c 0.376191,-0.641481 1.398481,-0.08697 0.786646,0.956656 -0.611836,1.043625 -1.398481,0.08697 -0.786646,-0.956656 z" />
		<path id="path111" d="M 43.369103,2.7718549 C 43.745294,2.1303734 44.767584,2.6848859 44.155748,3.728511 43.543913,4.7721359 42.757268,3.81548 43.369103,2.7718549 Z" />
		<path id="path113" d="m 16.360944,33.298578 c 0.945373,0 0.524431,2.435125 -0.34962,2.261188 -0.87405,-0.173938 -0.0874,-2.261188 0.34962,-2.261188 z" />
		<path id="path115" d="m 43.369103,41.299007 c 1.441834,-0.358312 1.573291,2.174218 0.437025,2.696031 -1.136265,0.521812 -1.136265,-2.522094 -0.437025,-2.696031 z" />
		<path id="path117" d="m 38.1248,38.038027 c 0.946073,-0.387533 1.922911,0.69575 0.961456,1.652406 C 38.1248,40.647089 36.638915,38.646808 38.1248,38.038027 Z" />
		<path id="path119" d="m 33.754548,36.168547 c 1.106898,0.163501 0.611835,2.000281 -0.17481,2.348156 -0.786645,0.347875 -2.185126,-2.696031 0.17481,-2.348156 z" />
		<path id="path121" d="m 44.068343,35.472797 c 0.643301,-0.711057 1.660696,2.000281 0.611836,2.174218 -1.048861,0.173938 -1.398481,-1.304531 -0.611836,-2.174218 z" />
		<path id="path123" d="m 40.659547,32.167985 c 0.897824,-0.281779 1.04886,1.478468 0.437025,2.261187 -0.611835,0.782719 -2.097721,-1.739375 -0.437025,-2.261187 z" />
		<path id="path125" d="m 35.065624,31.472235 c 1.644613,0.727058 0.17481,2.696031 -0.874051,2.000281 -1.04886,-0.69575 0.08741,-2.348156 0.874051,-2.000281 z" />
		<path id="path127" d="m 39.086256,27.210767 c 1.165634,0 0.87405,1.652406 -0.0874,2.174218 -0.961456,0.521812 -0.699241,-2.174218 0.0874,-2.174218 z" />
		<path id="path129" d="m 42.320242,21.209923 c 1.193604,0.692967 0.262216,2.522094 -0.87405,2.435125 -1.136266,-0.08697 -0.17481,-3.043906 0.87405,-2.435125 z" />
		<path id="path131" d="m 29.646511,32.428891 c 0.611835,-1.217562 1.311076,-0.521812 1.485886,0.869687 0.17481,1.3915 -2.359936,0.869688 -1.485886,-0.869687 z" />
		<path id="path133" d="m 32.530878,25.645329 c 1.086619,-0.617826 1.922911,1.652406 0.87405,2.000281 -1.048861,0.347875 -2.097721,-1.304531 -0.87405,-2.000281 z" />
		<path id="path135" d="m 27.7236,25.645329 c 1.353729,0.179504 1.048861,1.478469 0.17481,1.739375 -0.87405,0.260906 -1.485885,-1.913312 -0.17481,-1.739375 z" />
		<path id="path137" d="m 36.289294,20.949017 c 1.076131,-0.401447 1.573291,1.913313 0.524431,2.08725 -1.048861,0.173938 -1.223671,-1.826344 -0.524431,-2.08725 z" />
		<path id="path139" d="m 20.993412,33.298578 c 0.953764,-0.506506 1.660696,1.826344 0.786645,2.261188 -0.87405,0.434843 -2.097721,-1.565438 -0.786645,-2.261188 z" />
		<path id="path141" d="m 24.314803,28.167423 c 1.078928,-0.26856 1.048861,1.739374 0.262216,2.087249 -0.786646,0.347875 -2.010316,-1.652406 -0.262216,-2.087249 z" />
		<path id="path143" d="M 6.0471493,29.471954 C 6.706533,28.487468 8.2322754,29.73286 7.5330351,30.602547 6.8337947,31.472235 5.1730989,30.776485 6.0471493,29.471954 Z" />
		<path id="path145" d="m 10.417401,30.515579 c 0.797134,-0.396578 1.398481,1.304531 0.524431,1.739374 -0.874051,0.434844 -1.2236709,-1.391499 -0.524431,-1.739374 z" />
		<path id="path147" d="m 36.988535,42.603538 c 0.797134,-0.396578 1.39848,1.304531 0.52443,1.739375 -0.87405,0.434843 -1.223671,-1.3915 -0.52443,-1.739375 z" />
		<path id="path149" d="m 17.49721,27.732579 c 0.863562,-0.429278 1.398481,1.826344 0.611835,2.348156 -0.786645,0.521812 -2.185126,-1.565437 -0.611835,-2.348156 z" />
		<path id="path151" d="M 4.9982888,24.601704 C 5.7031231,23.900388 6.2219594,25.297454 5.522719,26.25411 4.8234787,27.210767 3.7746182,25.819267 4.9982888,24.601704 Z" />
		<path id="path153" d="m 10.941832,24.688673 c 0.398567,-0.674877 1.136265,1.130594 0.52443,1.652406 -0.611835,0.521813 -1.398481,-0.173937 -0.52443,-1.652406 z" />
		<path id="path155" d="m 23.702968,21.47083 c 0.366402,-0.455716 1.048861,1.478468 0.262215,1.913312 -0.786645,0.434844 -0.961455,-1.043625 -0.262215,-1.913312 z" />
		<path id="path157" d="m 30.433157,21.122955 c 0.688052,-0.124539 1.39848,1.652406 0.34962,1.913312 -1.048861,0.260906 -1.311076,-1.739375 -0.34962,-1.913312 z" />
		<path id="path159" d="m 41.271382,16.513612 c 1.320865,-0.164197 1.311076,2.087249 0.262215,2.261187 -1.04886,0.173937 -0.961455,-2.174219 -0.262215,-2.261187 z" />
		<path id="path161" d="m 38.561826,11.643362 c 0.890832,0.126627 1.04886,2.261187 -0.174811,2.174219 -1.22367,-0.08697 -0.437025,-2.261188 0.174811,-2.174219 z" />
		<path id="path163" d="m 34.191573,16.774518 c 0.69085,-0.687401 1.398481,1.130593 0.524431,1.652406 -0.874051,0.521812 -1.136266,-1.043625 -0.524431,-1.652406 z" />
		<path id="path165" d="m 19.245311,19.122674 c 0.51534,-0.470327 1.136265,0.956656 0.437025,1.739375 -0.69924,0.782718 -1.485886,-0.782719 -0.437025,-1.739375 z" />
		<path id="path167" d="m 14.962464,21.383861 c 1.028582,-0.681835 1.311075,1.565437 0.69924,2.000281 -0.611835,0.434844 -1.748101,-1.304531 -0.69924,-2.000281 z" />
		<path id="path169" d="m 11.029237,18.513893 c 0.815314,0.124539 1.04886,1.391499 0.17481,1.913312 -0.874051,0.521812 -1.3110758,-2.08725 -0.17481,-1.913312 z" />
		<path id="path171" d="m 6.3093644,19.38358 c 0.7174206,-0.503723 1.3984807,1.913312 0.5244303,2.435125 -0.8740504,0.521812 -2.010316,-1.3915 -0.5244303,-2.435125 z" />
		<path id="path173" d="m 29.471701,16.861486 c 0.530024,-0.461977 1.660696,1.130594 0.437025,1.565438 -1.22367,0.434844 -1.136265,-0.956656 -0.437025,-1.565438 z" />
		<path id="path175" d="m 30.607967,11.643362 c 0.685255,-0.136367 1.22367,1.3915 0.17481,1.652406 -1.048861,0.260906 -1.048861,-1.478468 -0.17481,-1.652406 z" />
		<path id="path177" d="m 27.811005,7.9037063 c 1.024387,-0.9225644 0.699241,2.0872497 0.34962,2.000281 -0.34962,-0.086969 -2.185126,-0.347875 -0.34962,-2.000281 z" />
		<path id="path179" d="m 23.702968,9.6430811 c 0.599249,-0.1488905 0.874051,1.4784689 0.17481,1.9133119 -0.69924,0.434844 -0.87405,-1.7393745 -0.17481,-1.9133119 z" />
		<path id="path181" d="m 25.975499,15.296049 c 1.127176,-0.224031 1.048861,1.217563 0.262215,1.739375 -0.786645,0.521812 -1.136265,-1.565437 -0.262215,-1.739375 z" />
		<path id="path183" d="m 21.780057,14.426362 c 0.844683,-0.224032 1.048861,0.956656 0.262215,1.565437 -0.786645,0.608781 -1.57329,-1.217562 -0.262215,-1.565437 z" />
		<path id="path185" d="m 9.8929712,11.730331 c 0.7796528,0.05218 0.7866458,2.174218 -0.1748101,2.261187 -0.9614554,0.08697 -1.1362655,-2.348156 0.1748101,-2.261187 z" />
		<path id="path187" d="m 14.175818,14.426362 c 1.163536,-0.386141 1.048861,1.739375 0.17481,2.000281 -0.87405,0.260906 -0.69924,-1.826344 -0.17481,-2.000281 z" />
		<path id="path189" d="m 18.895691,10.773675 c 0.893629,0.104362 0.87405,2.261187 -0.17481,2.435124 -1.048861,0.173938 -1.311076,-2.609062 0.17481,-2.435124 z" />
		<path id="path191" d="m 14.175818,7.9037063 c 0.687354,-0.537119 1.311076,1.5654373 0.437026,2.1742187 -0.874051,0.608781 -1.660696,-1.2175626 -0.437026,-2.1742187 z" />
	</g>
</svg>
