<?xml version="1.0" encoding="UTF-8" standalone="no"?>
<svg xmlns:dc="http://purl.org/dc/elements/1.1/" xmlns:cc="http://creativecommons.org/ns#" xmlns:rdf="http://www.w3.org/1999/02/22-rdf-syntax-ns#" xmlns:svg="http://www.w3.org/2000/svg" xmlns="http://www.w3.org/2000/svg" version="1.1" x="0px" y="0px" xml:space="preserve" width="50.00" height="50.00" viewBox="0 0 50.00 50.00">
	<metadata id="metadata2">
		<rdf:RDF>
			<ns:item rdf:ID="biblio1">
				<ns:link>rdf:resource=&quot;http://pubs.usgs.gov/tm/2006/11A02/</ns:link>
				<ns:title>U.S. Geological Survey, 2006, FGDC Digital Cartographic Standard for Geologic Map Symbolization (PostScript Implementation): U.S. Geological Survey Techniques and Methods 11-A2</ns:title>
			</ns:item>
			<ns:item rdf:ID="biblio2">
				<ns:link>https://davenquinn.com/projects/geologic-patterns/</ns:link>
				<ns:title>FGDC Geologic Patterns for the Web</ns:title>
			</ns:item>
			<rdf:Description>
				<dc:description>
					Converted from 'FGDC Geologic Patterns for the Web' to QGIS compatible svg symbols, with customisable fill colour/stroke colour/stroke width (when appropriate).
					SVG scaled to 50x50 pixels so that base outline-width is 0.387 px and width is 90 in the QGIS xml definition file. 
					Some of the original FGDC symbols have been omitted from this set because they can be generated from other symbols using the 'texture width' and/or 'stroke width' fields in QGIS symbology form.
				</dc:description>
				<dc:date>01 MARCH 2019</dc:date>
				<dc:creator>GeoProc.com</dc:creator>
				<dc:publisher rdf:resource="https://github.com/BC-Consulting/QGIS-FGDC-Fill" />
			</rdf:Description>
			<cc:Work rdf:about="">
				<dc:format>image/svg+xml</dc:format>
				<dc:type rdf:resource="http://purl.org/dc/dcmitype/StillImage" />
				<dc:title>FGDC fill symbol: Glacial and Periglacial - 523</dc:title>
			</cc:Work>
		</rdf:RDF>
	</metadata>
	<path style="fill:none;stroke:none;stroke-width:0;" id="rect1500" width="50.00" height="50.00" x="0.0" y="0.0" />
	<g fill="param(outline) #000" style="stroke:none;stroke-width:0;">
		<path d="M6.3647587 7.289437C6.0887587 6.4752257 6.3437587 5.7883709 6.6407587 5.3464326C7.5477587 3.9629264 7.9647587 3.3228778 8.4827587 3.0322436C9.0017587 2.7416093 9.0607587 3.0322436 9.8387587 3.6026269C10.615759 4.1838955 10.558759 4.2535606 10.992759 5.0209658C11.423759 5.8003446 10.873759 6.5329171 10.356759 7.0924153C9.7407587 7.7553227 7.4077587 10.046653 7.0097587 9.1856352C6.5507587 8.197261 6.4897587 7.6617102 6.3647587 7.289437C6.3647587 7.289437 6.3647587 7.289437 6.3647587 7.289437" id="path11" />
		<path d="M31.689192 4.5217626C31.969192 4.8940357 32.549192 5.638582 34.129192 4.5217626C35.699192 3.4288907 35.489192 3.3472518 35.569192 2.6723707C35.669192 1.9974896 35.459192 0.89242624 34.619192 1.2414051C34.349192 1.3577676 31.989192 2.113961 31.209192 2.9401461C30.439192 3.7663312 31.359192 4.0449918 31.689192 4.4989037C31.689192 4.4989037 31.689192 4.5217626 31.689192 4.5217626" id="path25" />
		<path d="M1.3867513 4.684536C1.6367513 5.1036154 2.3647509 5.9178268 2.8347509 5.8481617C3.2947508 5.7316902 4.1047506 4.8706726 4.3747506 4.684536C4.6447509 4.4983995 4.9747509 2.0905979 4.7847509 1.8231491C4.5747506 1.5555914 3.7647508 1.299572 3.1347508 1.3345134C2.4947509 1.3345134 1.0857513 1.1018971 0.98575127 2.0437916C0.88175125 2.9864481 1.1187513 4.2306241 1.3867513 4.684536C1.3867513 4.684536 1.3867513 4.684536 1.3867513 4.684536" id="path29" />
		<path d="M18.253139 3.4602593C18.253139 3.6932021 18.413139 4.8568277 18.883139 4.8568277C19.363139 4.8568277 20.863139 4.169973 21.503139 3.4254267C22.143139 2.6699953 22.513139 1.7273388 21.943139 1.1689291C21.373139 0.59887224 20.963139 -0.29686906 20.163139 0.29648204C19.363139 0.90115368 18.143139 2.8550433 18.253139 3.4602593C18.253139 3.4602593 18.253139 3.4602593 18.253139 3.4602593" id="path31" />
		<path d="M36.803154 45.12093C36.953154 45.665189 38.233154 47.787799 38.763154 47.83134C39.283154 47.83134 40.443154 46.829904 40.823154 46.372726C41.203154 45.926434 41.853154 44.326312 40.943154 44.141264C40.053154 43.945331 38.553154 43.357531 38.143154 43.54258C37.753154 43.727628 36.613154 44.48959 36.803154 45.12093C36.803154 45.12093 36.803154 45.12093 36.803154 45.12093" id="path33" />
		<path d="M47.816585 43.56844C48.006585 43.448703 48.946585 43.56844 48.876585 44.504565C48.766585 45.451576 48.086585 46.137342 47.866585 46.333275C47.646585 46.540094 45.876585 48.412344 45.436585 48.325263C44.996585 48.216411 43.316585 47.182319 43.206585 46.420357C43.096585 45.658394 43.366585 44.319517 44.116585 44.450139C44.876585 44.569876 46.426585 44.569876 46.826585 44.450139C47.226585 44.265091 47.556585 43.764373 47.816585 43.622866C47.816585 43.622866 47.816585 43.56844 47.816585 43.56844" id="path35" />
		<path d="M33.333432 44.989754C34.293432 45.098606 35.413432 45.795258 34.953432 46.666072C34.503432 47.536886 32.303432 48.701601 32.043432 47.906982C31.783432 47.101479 31.933432 44.848247 33.333432 44.989754C33.333432 44.989754 33.333432 44.989754 33.333432 44.989754" id="path39" />
		<path d="M24.625295 45.166074C25.275295 45.895381 25.595295 46.983899 26.565295 45.960692C27.545295 44.94837 28.795295 43.304708 28.265295 42.499205C27.745295 41.693702 26.375295 42.499205 25.725295 42.836645C25.075295 43.195856 24.105295 44.578274 24.625295 45.166074C24.625295 45.166074 24.625295 45.166074 24.625295 45.166074" id="path41" />
		<path d="M31.112518 42.157263C30.552518 41.525922 29.942518 39.022331 31.492518 38.66312C33.052518 38.303909 34.282518 38.238598 34.802518 39.022331C35.322518 39.827834 35.702518 40.774845 34.902518 41.504152C34.062518 42.222574 32.052518 43.18047 31.152518 42.157263C31.152518 42.157263 31.112518 42.157263 31.112518 42.157263" id="path43" />
		<path d="M35.998414 36.594722C36.188414 35.713022 37.358414 34.559193 38.198414 34.983715C39.038414 35.430008 41.708414 38.118647 41.248414 38.695561C40.788414 39.283361 39.698414 39.860275 38.718414 39.794964C37.748414 39.675227 37.298414 39.642572 36.968414 38.92415C36.648414 38.183958 35.868414 37.171636 35.998414 36.594722C35.998414 36.594722 35.998414 36.594722 35.998414 36.594722" id="path45" />
		<path d="M48.11129 25.645284C48.57129 25.754135 49.22129 26.004495 49.54129 26.799113C49.86129 27.593731 49.80129 28.616938 49.28129 28.551626C48.76129 28.43189 48.63129 28.040023 48.11129 27.963827C47.59129 27.854975 47.15129 27.746123 46.95129 27.016816C46.75129 26.287509 47.53129 25.492891 48.11129 25.645284C48.11129 25.645284 48.11129 25.645284 48.11129 25.645284" id="path49" />
		<path d="M12.936154 8.9328818C13.386154 9.0526188 14.046154 9.3029779 14.366154 10.097596C14.686154 10.892214 14.626154 11.91542 14.106154 11.850109C13.596154 11.730372 13.456154 11.338507 12.936154 11.26231C12.416154 11.153459 11.976154 11.044607 11.776154 10.3153C11.576154 9.5859929 12.356154 8.7913748 12.936154 8.9328818C12.936154 8.9328818 12.936154 8.9328818 12.936154 8.9328818" id="path51" />
		<path d="M5.6180182 33.426897C6.0660182 33.535749 6.7190182 33.786108 7.0440182 34.580726C7.3690182 35.375344 7.3030182 36.398551 6.7850182 36.33324C6.2660182 36.213503 6.1370182 35.821637 5.6180182 35.745441C5.1000182 35.636589 4.6450182 35.527737 4.4520182 34.79843C4.2580182 34.069123 5.0340182 33.274505 5.6180182 33.426897C5.6180182 33.426897 5.6180182 33.426897 5.6180182 33.426897" id="path53" />
		<path d="M11.985019 34.756637C11.525019 33.885823 10.744019 32.49252 9.9660186 32.634027C9.1890182 32.78642 8.0860182 37.151377 8.7340182 37.95688C9.3830182 38.751498 10.160019 38.751498 11.005019 38.609991C11.845019 38.457598 12.825018 37.66298 12.625018 36.792166C12.425018 35.921352 11.985019 34.756637 11.985019 34.756637C11.985019 34.756637 11.985019 34.756637 11.985019 34.756637" id="path57" />
		<path d="M1.5451508 46.619614C2.1551512 46.06447 4.4551502 45.596407 4.9151502 46.184207C5.3651503 46.772007 2.9751502 49.025239 2.1951512 49.09055C1.4151509 49.199402 0.18215067 47.860525 1.5451508 46.619614C1.5451508 46.619614 1.5451508 46.619614 1.5451508 46.619614" id="path59" />
		<path d="M11.284935 42.405527C12.194935 41.893924 12.384935 41.08842 13.094935 41.600024C13.814935 42.111627 14.724935 43.635552 14.274935 44.800266C13.814935 45.964981 13.614935 47.935198 12.454935 47.423594C11.284935 46.911991 9.9849349 43.134834 11.284935 42.405527C11.284935 42.405527 11.284935 42.405527 11.284935 42.405527" id="path61" />
		<path d="M20.344704 40.916379C20.504704 41.656572 22.094704 42.505616 23.454704 41.776309C24.814704 41.047002 25.144704 40.03468 24.884704 39.163866C24.624704 38.293051 22.544704 37.846759 21.774704 38.434559C20.994704 39.011473 20.214704 40.32858 20.344704 40.916379C20.344704 40.916379 20.344704 40.916379 20.344704 40.916379" id="path63" />
		<path d="M13.526236 40.179293C13.836236 40.875945 14.106236 40.9086 15.796236 40.473193C17.476236 40.026901 18.966236 39.526183 17.736236 38.437665C16.516236 37.338262 16.186236 37.207639 15.346236 37.849865C14.506236 38.502976 13.266236 39.602379 13.526236 40.179293C13.526236 40.179293 13.526236 40.179293 13.526236 40.179293" id="path65" />
		<path d="M27.2469 31.827616C27.8869 32.143286 28.4769 34.015537 28.7369 35.104055C28.9969 36.192572 29.5169 37.215779 28.8569 38.16279C28.2169 39.098915 27.5669 39.469011 26.7869 38.881212C26.0069 38.304297 25.5669 37.57499 25.5669 35.898673C25.5669 34.23324 25.5669 33.645441 26.2069 32.774626C26.8569 31.903812 26.6669 31.544601 27.2469 31.827616C27.2469 31.827616 27.2469 31.827616 27.2469 31.827616" id="path67" />
		<path d="M29.934391 33.464735C29.584391 32.506839 29.834391 31.788417 31.234391 31.788417C32.604391 31.788417 33.504391 31.363895 34.084391 31.135306C34.674391 30.917603 35.374391 30.776095 35.714391 31.287699C36.034391 31.788417 36.034391 33.617127 34.674391 34.052534C33.304391 34.487941 30.264391 34.335549 29.934391 33.464735C29.934391 33.464735 29.934391 33.464735 29.934391 33.464735" id="path69" />
		<path d="M43.159095 29.99297C43.429095 29.078615 43.279095 28.675863 44.459095 29.111271C45.619095 29.546678 46.009095 28.828256 46.269095 29.840578C46.529095 30.863784 46.269095 32.028498 45.949095 32.736035C45.619095 33.465342 44.839095 34.053142 44.389095 33.095246C43.939095 32.170006 42.959095 30.646081 43.159095 29.99297C43.159095 29.99297 43.159095 29.99297 43.159095 29.99297" id="path71" />
		<path d="M44.040663 25.301646C44.810663 25.867676 45.730663 26.466361 46.250663 25.595546C46.770663 24.713847 47.290663 22.460615 46.770663 21.437408C46.250663 20.425086 46.110663 19.771976 45.340663 19.695779C44.560663 19.576042 43.660663 21.002001 43.660663 22.166715C43.660663 23.331429 43.660663 25.007747 44.040663 25.301646C44.040663 25.301646 44.040663 25.301646 44.040663 25.301646" id="path73" />
		<path d="M37.594078 28.876173C38.214078 27.787655 39.144078 27.199855 39.604078 27.77677C40.054078 28.36457 42.054078 30.672227 41.874078 31.619238C41.674078 32.566249 41.474078 33.143163 40.514078 32.783952C39.534078 32.424741 36.874078 30.095313 37.594078 28.876173C37.594078 28.876173 37.594078 28.876173 37.594078 28.876173" id="path75" />
		<path d="M6.7694909 27.155721C7.4684909 26.132514 8.1954909 24.771866 9.1684909 24.837177C10.137491 24.956914 9.8174909 26.50261 9.8174909 27.514931C9.8174909 28.538138 9.7174909 29.84436 9.1684909 29.702852C8.5844909 29.55046 6.1214909 28.091846 6.7694909 27.155721C6.7694909 27.155721 6.7694909 27.155721 6.7694909 27.155721" id="path77" />
		<path d="M11.850313 29.695492C12.370313 30.860206 13.150313 31.796331 13.600313 31.796331C14.050313 31.796331 15.410313 30.120014 15.610313 29.249199C15.800313 28.378385 15.740313 27.507571 14.630313 26.85446C13.530313 26.201349 13.080313 25.548239 12.500313 26.136038C11.920313 26.712953 11.660313 29.249199 11.850313 29.695492C11.850313 29.695492 11.850313 29.695492 11.850313 29.695492" id="path79" />
		<path d="M14.080555 33.369824C14.180555 32.531665 14.600555 31.551999 16.090555 31.61731C17.570555 31.737047 18.940555 32.063603 19.000555 33.075924C19.110555 34.099131 18.230555 35.481549 16.930555 35.699253C15.630555 35.916956 14.020555 34.316835 14.080555 33.369824C14.080555 33.369824 14.080555 33.369824 14.080555 33.369824" id="path81" />
		<path d="M13.161496 22.836625C13.711496 23.446195 13.861496 23.848947 14.971496 22.684232C16.071496 21.519518 16.971496 20.931719 16.271496 20.354804C15.551496 19.77789 15.811496 19.701693 15.101496 20.474541C14.381496 21.192963 12.901496 22.575381 13.161496 22.86928C13.161496 22.86928 13.161496 22.836625 13.161496 22.836625" id="path85" />
		<path d="M1.1074777 23.604813C1.2604778 22.636033 1.1074777 22.527181 2.2744778 22.592492C3.4404778 22.712229 4.6074778 23.397995 4.9324778 23.97491C5.2564778 24.562709 3.8304778 27.349315 3.1814778 27.349315C2.2764778 27.349315 -0.32852227 32.835445 1.1074777 23.604813C1.1074777 23.604813 1.1074777 23.604813 1.1074777 23.604813" id="path87" />
		<path d="M9.8705555 19.476091C10.560555 19.476091 11.740555 21.000016 10.970555 21.87083C10.190554 22.741644 8.6305555 23.841048 7.6605551 22.382434C6.6805549 20.92382 7.2605551 19.693794 8.1205551 18.735899C8.9605555 17.799773 9.5405551 19.476091 9.8705555 19.476091C9.8705555 19.476091 9.8705555 19.476091 9.8705555 19.476091" id="path89" />
		<path d="M20.527914 34.529429C20.387914 33.745696 20.197914 33.016389 21.437914 32.798685C22.667914 32.570096 22.787914 32.363278 23.247914 32.798685C23.707914 33.234092 24.347914 33.963399 23.377914 34.529429C22.407914 35.106343 20.657914 35.258736 20.527914 34.529429C20.527914 34.529429 20.527914 34.529429 20.527914 34.529429" id="path91" />
		<path d="M18.457142 24.978045C19.107142 24.978045 22.537142 26.512855 22.607142 27.231277C22.707142 27.971469 22.087142 28.33068 21.107142 28.831398C20.137142 29.332116 19.297142 29.125298 18.397142 28.33068C17.477142 27.525177 16.707142 25.054241 18.497142 24.978045C18.497142 24.978045 18.457142 24.978045 18.457142 24.978045" id="path93" />
		<path d="M27.202159 24.953951C28.052159 24.953951 28.102159 25.171654 28.232159 26.924168C28.362159 28.665797 28.622159 30.548933 27.972159 30.548933C27.322159 30.548933 26.482159 29.689004 26.162159 28.818189C25.842159 27.947375 24.182159 27.479312 24.642159 26.76089C25.092159 26.020698 26.872159 24.953951 27.202159 24.953951C27.202159 24.953951 27.202159 24.953951 27.202159 24.953951" id="path95" />
		<path d="M32.507177 24.419368C33.297177 24.680613 34.587177 25.518771 34.587177 26.454897C34.587177 27.412793 33.667177 27.989707 32.827177 28.283607C31.987177 28.566622 31.597177 28.414229 31.277177 27.772003C30.957177 27.108008 31.597177 24.136354 32.507177 24.419368C32.507177 24.419368 32.507177 24.419368 32.507177 24.419368" id="path97" />
		<path d="M36.697528 23.172012C37.087528 22.671293 38.577528 21.495694 39.487528 21.354187C40.387528 21.212679 41.037528 21.354187 41.167528 22.15969C41.297528 22.943423 40.527528 25.272851 39.747528 25.272851C38.967528 25.272851 36.237528 23.748926 36.697528 23.172012C36.697528 23.172012 36.697528 23.172012 36.697528 23.172012" id="path99" />
		<path d="M31.601255 17.664439C33.171255 18.611449 34.851255 20.723174 34.191255 21.670185C33.551255 22.617195 30.561255 24.217316 30.561255 23.128798C30.561255 22.029395 30.761255 17.152835 31.601255 17.664439C31.601255 17.664439 31.601255 17.664439 31.601255 17.664439" id="path101" />
		<path d="M39.79286 15.419422C40.51286 15.299685 42.39286 16.50794 42.26286 17.378754C42.13286 18.249568 40.89286 19.120383 40.19286 19.207464C39.47286 19.316316 38.18286 19.316316 37.85286 18.401961C37.52286 17.531146 39.15286 15.495618 39.79286 15.419422C39.79286 15.419422 39.79286 15.419422 39.79286 15.419422" id="path103" />
		<path d="M41.881273 11.113372C42.671273 10.928324 43.821273 10.242558 44.541273 10.536458C45.241273 10.830357 45.861273 11.679401 45.601273 12.474019C45.341273 13.279523 44.601273 13.954404 43.621273 13.802011C42.661273 13.660504 41.551273 13.083589 41.351273 12.637297C41.171273 12.212775 41.231273 11.254879 41.881273 11.113372C41.881273 11.113372 41.881273 11.113372 41.881273 11.113372" id="path105" />
		<path d="M47.6751 6.4589655C48.3151 6.5754369 49.4151 6.8900186 49.2351 7.7630096C49.0351 8.6392661 47.6751 8.8569701 46.8251 8.4106771C45.9851 7.9861556 45.2651 7.9861556 45.7851 7.0413226C46.3051 6.0866924 47.0251 6.3893003 47.6751 6.4589655C47.6751 6.4589655 47.6751 6.4589655 47.6751 6.4589655" id="path107" />
		<path d="M0.8592413 16.411835C0.2432413 16.705735 0.1472413 17.957531 0.8592413 18.763034C1.5722413 19.557652 2.4792413 21.364592 3.3222413 21.288396C4.1652413 21.179544 4.7482413 20.265189 4.8142413 19.100475C4.8742413 17.93576 5.2022413 16.346524 3.9062413 15.987313C2.6102413 15.617217 0.8592413 16.411835 0.8592413 16.411835C0.8592413 16.411835 0.8592413 16.411835 0.8592413 16.411835" id="path109" />
		<path d="M45.5025 14.888578C44.8925 15.182478 44.0425 15.3131 45.5025 17.239777C46.1625 18.099706 47.1225 19.841334 47.9625 19.765138C48.8125 19.656286 49.3925 18.741931 49.4525 17.577217C49.5625 16.412503 49.8525 14.823267 48.5525 14.464056C47.2525 14.09396 45.5025 14.888578 45.5025 14.888578C45.5025 14.888578 45.5025 14.888578 45.5025 14.888578" id="path111" />
		<path d="M9.3868637 16.19528C9.3168637 15.759873 10.416864 13.909392 10.876864 14.116211C11.346864 14.312144 13.096865 15.966691 13.006865 16.434754C12.896865 16.902816 10.996864 17.958679 10.596863 17.893368C10.216864 17.773631 9.4468637 16.565376 9.3868637 16.19528C9.3868637 16.19528 9.3868637 16.19528 9.3868637 16.19528" id="path113" />
		<path d="M15.129299 13.365414C15.459299 13.637543 17.179299 14.900224 16.999299 15.662186C16.829299 16.435034 15.679299 17.991615 15.359299 17.850107C15.019299 17.697715 13.959299 16.054053 14.099299 15.085272C14.249299 14.116491 14.719299 13.017088 15.129299 13.365414C15.129299 13.365414 15.129299 13.365414 15.129299 13.365414" id="path115" />
		<path d="M6.1576959 10.234531C6.7976959 10.028801 8.0276959 12.378911 8.3476957 12.999366C8.6676957 13.608936 8.4676957 15.154633 7.7676959 15.492073C7.0676959 15.840399 5.4176958 15.818629 4.9776958 14.860733C4.5376958 13.891951 4.4276958 12.280945 4.8776958 11.791112C5.3276958 11.290393 6.0476959 10.278072 6.1576959 10.234531C6.1576959 10.234531 6.1576959 10.234531 6.1576959 10.234531" id="path117" />
		<path d="M20.322473 20.731389C21.182473 20.48103 22.532473 20.611652 23.372473 21.961414C24.212473 23.267636 24.862473 23.855435 24.212473 24.356154C23.552473 24.867757 22.532473 24.650053 21.492473 23.931632C20.452473 23.191439 19.282473 21.014404 20.322473 20.731389C20.322473 20.731389 20.322473 20.731389 20.322473 20.731389" id="path119" />
		<path d="M25.729687 15.930478C26.379687 15.505956 27.029687 15.277367 27.549687 15.788971C28.069687 16.289689 28.969687 18.706199 28.709687 19.642324C28.449687 20.589335 27.549687 22.483356 26.959687 21.612542C26.379687 20.741727 24.439687 16.801293 25.729687 15.930478C25.729687 15.930478 25.729687 15.930478 25.729687 15.930478" id="path121" />
		<path d="M33.06345 14.194192C33.71345 12.877085 36.34345 11.011365 37.18345 11.524057C38.01345 12.038926 38.05345 13.454 37.18345 14.69491C36.34345 15.93582 33.68345 18.112856 33.29345 16.730438C32.90345 15.348021 33.03345 14.194192 33.03345 14.194192C33.03345 14.194192 33.06345 14.194192 33.06345 14.194192" id="path123" />
		<path d="M39.225296 6.8257151C39.985296 6.5579397 41.495296 6.3837768 41.695296 7.1163494C41.895296 7.8380368 41.695296 9.221543 40.715296 10.1642C39.745296 11.104679 38.785296 11.975493 38.645296 11.039368C38.525296 10.094534 38.005296 7.2556797 39.225296 6.8257151C39.225296 6.8257151 39.225296 6.8257151 39.225296 6.8257151" id="path125" />
		<path d="M37.435645 5.460025C36.955645 4.9712805 36.465645 5.1693907 35.435645 6.0412936C34.395645 6.9142849 32.965645 8.6591791 33.605645 9.3917516C34.265645 10.113439 34.845645 10.183104 35.955645 9.3917516C37.055645 8.5895139 38.085645 6.1120472 37.435645 5.460025C37.435645 5.460025 37.435645 5.460025 37.435645 5.460025" id="path127" />
		<path d="M27.390941 6.4520612C28.050941 5.800039 30.120941 5.7303738 30.640941 6.4520612C31.160941 7.1857222 31.080941 8.2666205 30.380941 9.2201622C29.660941 10.162819 28.750941 8.3482593 27.850941 8.1969554C26.940941 8.0565365 26.030941 8.0565365 26.680941 7.2553874C27.330941 6.4520612 27.390941 6.4520612 27.390941 6.4520612C27.390941 6.4520612 27.390941 6.4520612 27.390941 6.4520612" id="path129" />
		<path d="M30.27345 11.070347C30.98345 10.852644 31.44345 11.070347 31.64345 11.864965C31.82345 12.659583 32.02345 13.900494 31.38345 14.335901C30.72345 14.782193 30.01345 14.553604 29.82345 13.530398C29.63345 12.518076 29.49345 11.288051 30.27345 11.070347C30.27345 11.070347 30.27345 11.070347 30.27345 11.070347" id="path131" />
		<path d="M20.609373 19.324268C19.669373 18.790894 19.709373 18.671157 20.749373 17.800343C21.779373 16.929529 22.299373 15.677733 22.819373 16.548547C23.339373 17.430247 23.079373 18.301061 22.429373 19.030368C21.779373 19.74879 21.269373 19.683479 20.609373 19.324268C20.609373 19.324268 20.609373 19.324268 20.609373 19.324268" id="path133" />
		<path d="M22.708118 14.196519C21.528118 12.879412 23.218118 12.378694 24.398118 11.725583C25.558118 11.06703 25.488118 9.9034037 26.208118 10.635977C26.918118 11.355487 27.888118 14.022356 26.468118 13.902619C25.558118 13.793767 23.358118 14.925826 22.708118 14.196519C22.708118 14.196519 22.708118 14.196519 22.708118 14.196519" id="path135" />
		<path d="M19.306882 8.7370512C18.686882 8.3408307 19.816882 7.7835095 21.046882 6.4805536C22.156882 5.316928 22.806882 4.4439366 23.386882 5.0262937C23.976882 5.6075622 24.066882 9.0744917 22.766882 10.097699C21.476882 11.111109 20.346882 9.3879849 19.306882 8.7370512C19.306882 8.7370512 19.306882 8.7370512 19.306882 8.7370512" id="path137" />
		<path d="M16.77405 11.951017C17.60405 11.134628 16.89405 10.205034 18.25405 10.720991C19.62405 11.22171 20.78405 12.016328 20.32405 13.05042C19.88405 14.062741 19.10405 13.986545 18.45405 13.159272C17.80405 12.288457 16.25405 12.506161 16.77405 11.994557C16.77405 11.994557 16.77405 11.951017 16.77405 11.951017" id="path139" />
		<path d="M11.669037 3.5545035C11.669037 2.6009618 12.269037 2.8807109 13.159037 1.8096093C14.079037 0.71673732 15.109037 -0.30755798 15.499037 0.20404542C15.889037 0.71673732 17.309037 3.2649577 16.669037 4.0552217C16.009037 4.8574594 16.049037 8.3472481 15.229037 7.3131561C14.029037 5.7881425 11.739037 4.6364902 11.669037 3.5545035C11.669037 3.5545035 11.669037 3.5545035 11.669037 3.5545035" id="path141" />
		<path id="path886" d="M4.4048852 43.587565C4.1248852 42.773353 4.4048852 42.086499 4.6748852 41.64456C5.5848852 40.261054 5.9948852 39.621006 6.5148852 39.330371C7.0348852 39.039737 7.0948852 39.330371 7.8748852 39.900755C8.6548852 40.482023 8.5948852 40.551688 9.0248852 41.319094C9.4648852 42.098472 8.9148852 42.831045 8.3948852 43.390543C7.7748852 44.05345 5.4348852 46.344781 5.0448852 45.483763C4.5848852 44.495389 4.5248852 43.959838 4.4048852 43.587565C4.4048852 43.587565 4.4048852 43.587565 4.4048852 43.587565" />
		<path id="path888" d="M47.270344 40.75257C47.546344 39.938358 47.291344 39.251504 46.994344 38.809565C46.087344 37.426059 45.670344 36.786011 45.152344 36.495376C44.633344 36.204742 44.574344 36.495376 43.796344 37.06576C43.019344 37.647028 43.076344 37.716693 42.642344 38.484099C42.211344 39.263477 42.761344 39.99605 43.278344 40.555548C43.894344 41.218455 46.227344 43.509786 46.625344 42.648768C47.084344 41.660394 47.145344 41.124843 47.270344 40.75257C47.270344 40.75257 47.270344 40.75257 47.270344 40.75257" />
		<path id="path882" d="M0.008443 32.453278C0.825694 33.455203 1.804363 34.956887 1.571991 35.570077C1.251991 36.440892 0.656366 37.086189 0.006366 36.585471" />
		<path d="M50.006366 36.585471C49.356366 36.073868 48.401991 35.210866 48.141991 34.470674C47.881991 33.752252 47.70371 33.378299 47.70371 33.378299C47.58371 34.03141 48.22371 30.907363 48.94371 31.408081C49.153758 31.559435 49.665086 32.032332 50.008443 32.453278" id="path884" />
		<path id="path891" d="M0.01540303 38.096118C0.82089144 38.171548 2.0297866 38.157518 2.3764138 38.054018C2.7794138 37.86897 3.1064138 37.368251 3.3624138 37.226744C3.3624138 37.226744 3.3624138 37.172314 3.3624138 37.172314C3.5544138 37.052577 4.4964138 37.172314 4.4224138 38.108439C4.3524138 39.05545 3.6374138 39.741216 3.4174138 39.937149C3.1974138 40.143968 1.4254138 42.016219 0.98641376 41.929137C0.80469523 41.884077 0.40997873 41.680487 0.00201251 41.403284" />
		<path d="M50.002013 41.403288C49.424404 41.010818 48.820236 40.470792 48.756414 40.024235C48.647514 39.262272 48.921314 37.923395 49.671014 38.054018C49.772627 38.070258 49.889052 38.084288 50.015403 38.096118" id="path37" />
		<path d="M7.7617437 50.026305C7.7347657 49.920976 7.7205447 49.798408 7.7205447 49.653982C7.7205447 48.783167 8.3685452 47.542257 8.9525442 47.183046C9.5355442 46.823835 9.7285442 47.074194 9.7285442 47.074194C9.7285442 47.074194 9.7285442 47.106854 9.7285442 47.106854C10.506545 47.694653 10.442545 47.542261 10.247545 48.565468C10.163405 49.006991 10.04332 49.555937 9.8766152 50.01377" id="path55" />
		<path id="path893" d="M9.8766157 0.013766C9.6569922 0.616938 9.356447 1.061971 8.9505447 0.894892C8.3557972 0.649736 7.8974268 0.556059 7.7617437 0.026305" />
		<path d="M23.386229 50.016008C23.146281 49.709101 22.945621 49.413729 22.813763 49.267438C22.313763 48.701409 22.493763 47.808824 23.533763 48.17892C24.563763 48.538131 26.043763 48.494591 25.773763 49.517797C25.725853 49.699389 25.675603 49.861548 25.623318 50.005787" id="path83" />
		<path id="path895" d="M25.623318 0.005787C24.983169 1.771841 24.039215 0.851213 23.386229 0.016007" />
		<path id="path897" d="M0.00139261 9.1792108C0.39324556 8.6052446 0.77770545 8.250773 1.1106779 8.5136586C1.7586779 9.025262 3.1826779 9.8982534 2.4716779 11.28176C1.8649985 12.452268 0.78639545 14.322984 -0.00011150758 14.352497" />
		<path d="M49.999888 14.352497C49.863349 14.357597 49.735614 14.307257 49.620678 14.188103C48.903678 13.447911 48.194678 12.294082 48.906678 11.060791C49.253305 10.461751 49.630658 9.7222442 50.001393 9.1792108" id="path143" />
		<path d="M30.296008 50.003346C30.262128 49.819694 30.220438 49.667668 30.183475 49.561257C30.023475 49.072621 29.613475 48.665515 29.043475 48.921426C28.820079 49.026245 28.433863 49.456437 28.069041 50.001735" id="path23" />
		<path id="path899" d="M28.069041 0.00173506C27.503013 0.84777659 26.988487 1.9709051 27.213475 2.5858125C27.213475 2.5858125 27.213475 2.5629535 27.213475 2.5629535C27.363475 2.9820329 27.923475 4.8325133 29.773475 2.5629535C30.438657 1.7349664 30.417938 0.66432927 30.296008 0.00334556" />
		<path style="stroke-width:1.55131759331;display:inline" d="M42.067726 50.004555C41.909427 49.373351 41.33449 49.0419 39.851282 49.503006C39.369712 49.657554 38.846779 49.64371 38.454201 50.000794" id="path27" />
		<path id="path901" d="M38.454201 0.00079437129C38.37396 0.07378041 38.171762 0.2789907 38.22062 0.60137003C38.2868 1.0380203 38.24666 1.5421104 38.63306 2.1282927C38.882396 2.5065481 39.432789 2.5567539 39.863129 2.6915995C40.287796 2.8246674 41.002152 2.0116618 41.246786 1.2753291C41.344326 0.5414459 41.950316 0.87564718 42.067726 0.00455487" style="stroke-width:1.55131759331;display:inline" />
		<path d="M47.50298 0.00511943C47.54059 0.03384329 47.58006 0.06340485 47.621567 0.09375865C48.401567 0.67502717 48.341567 0.74469237 48.771567 1.5120975C49.211567 2.2914763 48.661567 3.0240488 48.141567 3.583547C47.521567 4.2464544 45.181567 6.5377846 44.791567 5.6767669C44.331567 4.6883927 44.271567 4.1528419 44.151567 3.7805688C43.871567 2.9663574 44.151567 2.2795026 44.421567 1.8375643C44.99743 0.96205856 45.373065 0.38427557 45.703055 0.00435852" id="path9" />
		<path id="path903" d="M45.703055 50.004359C45.894527 49.783917 46.070632 49.630091 46.261567 49.523375C46.753894 49.248208 46.833878 49.494085 47.50298 50.005119" />
		<path id="path905" d="M17.693173 45.084314C17.553173 44.300581 17.363173 43.571274 18.603173 43.35357C19.833173 43.124981 19.953173 42.918163 20.413173 43.35357C20.873173 43.788977 21.513173 44.518284 20.543173 45.084314C19.573173 45.661228 17.823173 45.813621 17.693173 45.084314C17.693173 45.084314 17.693173 45.084314 17.693173 45.084314" />
		<path id="path907" d="M17.048752 46.799163C18.008752 46.908015 19.128752 47.604667 18.668752 48.475481C18.218752 49.346295 16.018752 50.51101 15.758752 49.716391C15.498752 48.910888 15.648752 46.657656 17.048752 46.799163C17.048752 46.799163 17.048752 46.799163 17.048752 46.799163" />
		<path id="path909" d="M3.1926297 29.043809C3.9026297 28.826106 4.3626297 29.043809 4.5626297 29.838427C4.7426297 30.633045 4.9426297 31.873956 4.3026297 32.309363C3.6426297 32.755655 2.9326297 32.527066 2.7426297 31.50386C2.5526297 30.491538 2.4126297 29.261513 3.1926297 29.043809C3.1926297 29.043809 3.1926297 29.043809 3.1926297 29.043809" />
	</g>
</svg>