<?xml version="1.0" encoding="UTF-8" standalone="no"?>
<svg xmlns:dc="http://purl.org/dc/elements/1.1/" xmlns:cc="http://creativecommons.org/ns#" xmlns:rdf="http://www.w3.org/1999/02/22-rdf-syntax-ns#" xmlns:svg="http://www.w3.org/2000/svg" xmlns="http://www.w3.org/2000/svg" version="1.1" x="0px" y="0px" xml:space="preserve" width="50.00" height="50.00" viewBox="0 0 50.00 50.00">
	<metadata id="metadata2">
		<rdf:RDF>
			<ns:item rdf:ID="biblio1">
				<ns:link>rdf:resource=&quot;http://pubs.usgs.gov/tm/2006/11A02/</ns:link>
				<ns:title>U.S. Geological Survey, 2006, FGDC Digital Cartographic Standard for Geologic Map Symbolization (PostScript Implementation): U.S. Geological Survey Techniques and Methods 11-A2</ns:title>
			</ns:item>
			<ns:item rdf:ID="biblio2">
				<ns:link>https://davenquinn.com/projects/geologic-patterns/</ns:link>
				<ns:title>FGDC Geologic Patterns for the Web</ns:title>
			</ns:item>
			<rdf:Description>
				<dc:description>
					Converted from 'FGDC Geologic Patterns for the Web' to QGIS compatible svg symbols, with customisable fill colour/stroke colour/stroke width (when appropriate).
					SVG scaled to 50x50 pixels so that base outline-width is 0.387 px and width is 90 in the QGIS xml definition file. 
					Some of the original FGDC symbols have been omitted from this set because they can be generated from other symbols using the 'texture width' and/or 'stroke width' fields in QGIS symbology form.
				</dc:description>
				<dc:date>01 MARCH 2019</dc:date>
				<dc:creator>GeoProc.com</dc:creator>
				<dc:publisher rdf:resource="https://github.com/BC-Consulting/QGIS-FGDC-Fill" />
			</rdf:Description>
			<cc:Work rdf:about="">
				<dc:format>image/svg+xml</dc:format>
				<dc:type rdf:resource="http://purl.org/dc/dcmitype/StillImage" />
				<dc:title>FGDC fill symbol: Glacial and Periglacial - 594</dc:title>
			</cc:Work>
		</rdf:RDF>
	</metadata>
	<path style="fill:none;stroke:none;stroke-width:0;" id="rect1500" width="50.00" height="50.00" x="0.0" y="0.0" />
	<g stroke="param(outline) #000" stroke-width="param(outline-width) 0.387" style="fill:none;stroke-linecap:butt;stroke-linejoin:miter;stroke-miterlimit:0.625;stroke-opacity:1;">
		<path id="path4584" d="M 0,5.8652449 3.8778478,3.44159 3.7566651,0" />
		<path id="path4588" d="M 12.312167,0 6.7862337,6.3742124 0,5.8652449" />
		<path id="path4590" d="M 14.541929,0 22.370335,4.0475037 33.56762,3.7324285 32.767814,0" />
		<path id="path4592" d="M 33.56762,3.7324285 43.771207,9.5492003 46.77654,5.7682987 45.079981,0" />
		<path id="path4594" d="m 46.77654,5.7682987 3.223461,0.096946" />
		<path id="path4596" d="M 33.56762,3.7324285 32.355793,14.638876 46.606884,17.401842 43.771207,9.5492003" />
		<path id="path4598" d="m 46.606884,17.401842 3.393117,2.423655" />
		<path id="path4600" d="m 32.355793,14.638876 -5.138148,5.162385 -10.979157,-3.44159 3.877848,-2.908386 2.253999,-9.4037813" />
		<path id="path4602" d="M 16.238488,16.359671 8.7978673,12.869608 6.7862337,6.3742124" />
		<path id="path4604" d="M 0,19.801261 6.6165779,24.64857" />
		<path id="path4608" d="M 6.6165779,24.64857 8.7978673,12.869608" />
		<path id="path4610" d="m 6.6165779,24.64857 -0.3150752,5.162385 7.6345133,3.659719 0.896752,-8.749394 v -2.787203" />
		<path id="path4612" d="m 14.832768,21.934077 1.40572,-5.574406" />
		<path id="path4614" d="M 6.3015027,29.810955 0,31.022783" />
		<path id="path4616" d="m 46.606884,17.401842 -4.120214,5.428987 -7.998061,2.714494 -7.270964,-5.744062" />
		<path id="path4618" d="m 42.510907,22.830829 4.70189,8.773631 2.787204,-0.581677" />
		<path id="path4620" d="m 47.212797,31.60446 -1.211827,6.689287 3.999031,2.569075" />
		<path id="path4622" d="m 44.983035,49.854581 -4.241396,-7.58604 5.259331,-3.974794" />
		<path id="path4624" d="m 46.00097,38.293747 -15.753757,-6.059137 -4.84731,6.95589 6.665051,7.561803 8.652448,-4.483762" />
		<path id="path4626" d="m 30.247213,32.23461 4.241396,-6.689287" />
		<path id="path4628" d="M 13.936016,33.470674 5.0896753,44.183229 0,40.887058" />
		<path id="path4630" d="M 5.0896753,44.183229 3.7566651,50.000001" />
		<path id="path4632" d="m 4.8473098,46.364518 9.6946192,3.611246" />
		<path id="path4634" d="M 12.28793,49.975764 18.128939,39.796413 11.832182,35.834196" />
		<path id="path4636" d="M 18.128939,39.796413 25.399903,39.1905" />
		<path id="path4638" d="m 32.064954,46.77654 0.727097,3.199224" />
		<path id="path4640" d="M 31.992245,29.083859 21.522056,29.810955" />
		<path id="path4642" d="M 21.522056,29.810955 14.832768,24.72128" />
	</g>
</svg>
