<?xml version="1.0" encoding="UTF-8" standalone="no"?>
<svg xmlns:dc="http://purl.org/dc/elements/1.1/" xmlns:cc="http://creativecommons.org/ns#" xmlns:rdf="http://www.w3.org/1999/02/22-rdf-syntax-ns#" xmlns:svg="http://www.w3.org/2000/svg" xmlns="http://www.w3.org/2000/svg" version="1.1" x="0px" y="0px" xml:space="preserve" width="50.00" height="50.00" viewBox="0.0 0.0 50.0 50.0">
	<metadata id="metadata2">
		<rdf:RDF>
			<ns:item rdf:ID="biblio1">
				<ns:link>rdf:resource=&quot;http://pubs.usgs.gov/tm/2006/11A02/</ns:link>
				<ns:title>U.S. Geological Survey, 2006, FGDC Digital Cartographic Standard for Geologic Map Symbolization (PostScript Implementation): U.S. Geological Survey Techniques and Methods 11-A2</ns:title>
			</ns:item>
			<ns:item rdf:ID="biblio2">
				<ns:link>https://davenquinn.com/projects/geologic-patterns/</ns:link>
				<ns:title>FGDC Geologic Patterns for the Web</ns:title>
			</ns:item>
			<rdf:Description>
				<dc:description>
					Converted from 'FGDC Geologic Patterns for the Web' to QGIS compatible svg symbols, with customisable fill colour/stroke colour/stroke width (when appropriate).
					SVG scaled to 50x50 pixels so that base outline-width is 0.387 px and width is 90 in the QGIS xml definition file. 
					Some of the original FGDC symbols have been omitted from this set because they can be generated from other symbols using the 'texture width' and/or 'stroke width' fields in QGIS symbology form.
				</dc:description>
				<dc:date>01 MARCH 2019</dc:date>
				<dc:creator>GeoProc.com</dc:creator>
				<dc:publisher rdf:resource="https://github.com/BC-Consulting/QGIS-FGDC-Fill" />
			</rdf:Description>
			<cc:Work rdf:about="">
				<dc:format>image/svg+xml</dc:format>
				<dc:type rdf:resource="http://purl.org/dc/dcmitype/StillImage" />
				<dc:title>FGDC fill symbol: Surficial - 102</dc:title>
			</cc:Work>
		</rdf:RDF>
	</metadata>
	<g id="g365" style="fill:none;">
		<path style="fill:none;stroke:none;stroke-width:0;" id="rect1500" width="50.00" height="50.00" x="0.0" y="0.0" />
        <g id="g363" stroke="param(outline) #000" stroke-width="param(outline-width) 0.387">
			<ellipse id="circle5" cy="20.273977" cx="9.4378309" rx="0.73660713" ry="0.73661929" />
			<ellipse id="circle7" cy="18.064119" cx="10.910218" rx="0.31580687" ry="0.31581211" />
			<ellipse id="circle9" cy="28.300732" cx="15.886243" rx="0.31580687" ry="0.31581211" />
			<ellipse id="circle11" cy="21.245388" cx="22.55291" rx="0.31580687" ry="0.31581211" />
			<ellipse id="circle13" cy="7.1900973" cx="1.2235451" rx="0.31580687" ry="0.31581211" />
			<ellipse id="circle15" cy="28.052711" cx="28.368881" rx="0.31580687" ry="0.31581211" />
			<ellipse id="circle17" cy="37.891666" cx="32.750496" rx="0.31580687" ry="0.31581211" />
			<ellipse id="circle19" cy="22.430925" cx="33.578045" rx="0.31580687" ry="0.31581211" />
			<ellipse id="circle21" cy="48.473022" cx="35.974701" rx="0.31580687" ry="0.31581211" />
			<ellipse id="circle23" cy="44.504704" cx="38.538361" rx="0.31580687" ry="0.31581211" />
			<ellipse id="circle25" cy="36.320045" cx="38.868221" rx="0.31580687" ry="0.31581211" />
			<ellipse id="circle27" cy="15.248268" cx="39.646164" rx="0.31580687" ry="0.31581211" />
			<ellipse id="circle29" cy="6.7238207" cx="39.942955" rx="0.31580687" ry="0.31581211" />
			<ellipse id="circle31" cy="19.591097" cx="41.567459" rx="0.31580687" ry="0.31581211" />
			<ellipse id="circle33" cy="26.99036" cx="41.691467" rx="0.31580687" ry="0.31581211" />
			<ellipse id="circle35" cy="23.394072" cx="45.866402" rx="0.31580687" ry="0.31581211" />
			<ellipse id="circle37" cy="41.995567" cx="4.3650794" rx="0.31580687" ry="0.31581211" />
			<ellipse id="circle39" cy="14.134658" cx="5.1917992" rx="0.31580687" ry="0.31581211" />
			<ellipse id="circle41" cy="37.283188" cx="5.4811506" rx="0.31580687" ry="0.31581211" />
			<ellipse id="ellipse43" ry="0.58863407" rx="0.42080027" cy="31.427437" cx="8.1481476" />
			<ellipse id="ellipse45" ry="0.58946079" rx="0.42080027" cy="6.2839971" cx="10.67791" />
			<ellipse id="ellipse47" ry="0.73744607" rx="0.63161373" cy="46.893963" cx="10.925926" />
			<ellipse id="ellipse49" ry="0.81846595" rx="0.58449078" cy="14.74396" cx="13.65906" />
			<ellipse id="ellipse51" ry="0.81846595" rx="0.58449078" cy="4.6495476" cx="13.902116" />
			<ellipse id="ellipse53" ry="0.58863407" rx="0.42080027" cy="36.772266" cx="14.526291" />
			<ellipse id="ellipse55" ry="0.58863407" rx="0.42080027" cy="1.5426847" cx="14.699075" />
			<ellipse id="ellipse57" ry="0.58863407" rx="0.42080027" cy="22.624382" cx="16.104496" />
			<ellipse id="ellipse59" ry="0.81846595" rx="0.58449078" cy="33.585209" cx="16.382275" />
			<ellipse id="ellipse61" ry="0.81846595" rx="0.58449078" cy="31.353031" cx="19.85367" />
			<ellipse id="ellipse63" ry="0.58946079" rx="0.42080027" cy="14.687741" cx="20.568785" />
			<ellipse id="ellipse65" ry="0.58946079" rx="0.42080027" cy="27.916302" cx="21.23016" />
			<ellipse id="ellipse67" ry="0.58863407" rx="0.42080027" cy="32.450108" cx="23.573908" />
			<ellipse id="ellipse69" ry="0.81846595" rx="0.58449078" cy="19.696091" cx="25.475363" />
			<ellipse id="ellipse71" ry="0.58946079" rx="0.42080027" cy="36.418427" cx="26.674107" />
			<ellipse id="ellipse73" ry="0.66304004" rx="0.5687831" cy="5.9623981" cx="26.715443" />
			<ellipse id="ellipse75" ry="0.59028751" rx="0.42080027" cy="47.869507" cx="26.798943" />
			<ellipse id="ellipse77" ry="0.81846595" rx="0.58449078" cy="40.252815" cx="27.347885" />
			<ellipse id="ellipse79" ry="0.58946079" rx="0.42080027" cy="13.861009" cx="30.324074" />
			<ellipse id="ellipse81" ry="0.58863407" rx="0.42080027" cy="4.0228844" cx="30.778769" />
			<ellipse id="ellipse83" ry="0.58946079" rx="0.42080027" cy="23.728897" cx="31.510418" />
			<ellipse id="ellipse85" ry="0.58946079" rx="0.42080027" cy="20.090443" cx="34.983467" />
			<ellipse id="ellipse87" ry="0.58863407" rx="0.42080027" cy="15.183784" cx="35.615082" />
			<ellipse id="ellipse89" ry="0.73661929" rx="0.63161373" cy="4.123744" cx="35.615082" />
			<ellipse id="ellipse91" ry="0.58946079" rx="0.42080027" cy="29.185337" cx="37.214783" />
			<ellipse id="ellipse93" ry="0.73744607" rx="0.63161373" cy="21.844772" cx="38.454861" />
			<ellipse id="ellipse95" ry="0.58946079" rx="0.42080027" cy="33.979561" cx="39.694939" />
			<ellipse id="ellipse97" ry="0.58863407" rx="0.42080027" cy="39.11771" cx="3.3730161" />
			<ellipse id="ellipse99" ry="0.58946079" rx="0.42080027" cy="24.60854" cx="40.410053" />
			<ellipse id="ellipse101" ry="0.73661929" rx="0.63161373" cy="5.8598828" cx="43.799603" />
			<ellipse id="ellipse103" ry="0.81846595" rx="0.58531749" cy="21.349556" cx="43.911213" />
			<ellipse id="ellipse105" ry="0.81763923" rx="0.58449078" cy="33.998577" cx="44.241898" />
			<ellipse id="ellipse107" ry="0.81846595" rx="0.58531749" cy="46.358238" cx="45.400131" />
			<ellipse id="ellipse109" ry="0.58863407" rx="0.42080027" cy="31.334015" cx="46.640213" />
			<ellipse id="ellipse111" ry="0.58946079" rx="0.42080027" cy="39.106136" cx="48.044811" />
			<ellipse id="ellipse113" ry="0.58863407" rx="0.42080027" cy="28.699217" cx="5.4199734" />
			<ellipse id="ellipse115" ry="0.65476394" rx="1.0292861" cy="18.629322" cx="-40.190475" transform="rotate(-89.856763)" />
			<ellipse id="ellipse117" ry="0.65475094" rx="1.0292656" cy="33.087696" cx="-46.263435" transform="rotate(-89.260864)" />
			<ellipse id="ellipse119" ry="0.52579635" rx="0.73662311" cy="44.900673" cx="-25.137186" transform="rotate(-89.1692)" />
			<ellipse id="ellipse121" ry="0.52660358" rx="0.73659575" cy="20.710306" cx="-47.878632" transform="matrix(0.03370052,-0.99943198,0.99943194,0.03370163,0,0)" />
			<ellipse id="ellipse123" ry="0.42574704" rx="0.7109679" cy="43.632004" cx="-36.449509" transform="matrix(0.07300113,-0.99733186,0.99733168,0.07300353,0,0)" />
			<ellipse id="ellipse125" ry="0.42658308" rx="0.7101568" cy="32.703476" cx="-34.947655" transform="matrix(0.07329953,-0.99730997,0.99730979,0.07330194,0,0)" />
			<ellipse id="ellipse127" ry="0.56628138" rx="0.75395191" cy="52.350807" cx="-44.788868" transform="matrix(0.07560164,-0.9971381,0.99713791,0.07560412,0,0)" />
			<ellipse id="ellipse129" ry="0.58449382" rx="0.81929678" cy="44.669647" cx="-41.941406" transform="matrix(0.07999828,-0.996795,0.99679479,0.0800009,0,0)" />
			<ellipse id="ellipse131" ry="0.52578539" rx="1.0515879" cy="10.819158" cx="-39.888073" transform="matrix(0.08219995,-0.99661586,0.99661564,0.08220265,0,0)" />
			<ellipse id="ellipse133" ry="0.42079362" rx="0.58945107" cy="12.425883" cx="-46.844414" transform="matrix(0.14979999,-0.98871632,0.98871559,0.14980484,0,0)" />
			<ellipse id="ellipse135" ry="0.52581596" rx="1.052475" cy="26.303249" cx="-30.534777" transform="matrix(0.1848893,-0.98275935,0.98275824,0.1848952,0,0)" />
			<ellipse id="ellipse137" ry="0.58446896" rx="0.81843442" cy="43.658451" cx="-37.257328" transform="matrix(0.18920414,-0.98193777,0.98193661,0.18921018,0,0)" />
			<ellipse id="ellipse139" ry="0.42080581" rx="0.58946788" cy="43.798443" cx="-33.253143" transform="matrix(0.19049457,-0.98168825,0.98168707,0.19050064,0,0)" />
			<ellipse id="ellipse141" ry="0.58944923" rx="0.92593718" cy="48.877693" cx="2.0533795" transform="matrix(0.19649762,-0.9805043,0.98050305,0.19650386,0,0)" />
			<ellipse id="ellipse143" ry="0.4207997" rx="0.58945924" cy="41.235233" cx="4.5200758" transform="matrix(0.19799725,-0.98020258,0.98020131,0.19800353,0,0)" />
			<ellipse style="fill:none;stroke:#000000;stroke-width:0.09999999;stroke-miterlimit:4;stroke-dasharray:none;stroke-opacity:1" id="ellipse145" ry="0.42080852" rx="0.58947164" cy="33.154331" cx="-14.015895" transform="matrix(0.19859308,-0.98008203,0.98008075,0.19859938,0,0)" />
			<ellipse id="ellipse147" ry="0.46215373" rx="0.64818245" cy="25.577831" cx="-3.6714106" transform="matrix(0.20688905,-0.97836441,0.97836303,0.2068956,0,0)" />
			<ellipse style="fill:none;stroke:#000000;stroke-width:0.09999999;stroke-miterlimit:4;stroke-dasharray:none;stroke-opacity:1" id="ellipse149" ry="0.46296394" rx="0.64898604" cy="37.719646" cx="-20.275827" transform="matrix(0.20719644,-0.97829936,0.97829797,0.207203,0,0)" />
			<ellipse id="ellipse151" ry="0.46295705" rx="0.64814967" cy="34.62038" cx="-9.595252" transform="matrix(0.20759951,-0.9782139,0.97821251,0.20760609,0,0)" />
			<ellipse id="ellipse153" ry="0.46711227" rx="0.81849211" cy="49.001072" cx="-38.485691" transform="matrix(0.22538906,-0.97426884,0.9742672,0.22539613,0,0)" />
			<ellipse id="ellipse155" ry="0.46712282" rx="0.81851053" cy="30.715946" cx="-34.851974" transform="matrix(0.22548398,-0.97424688,0.97424524,0.22549106,0,0)" />
			<ellipse id="ellipse157" ry="0.46712282" rx="0.81851053" cy="43.581966" cx="-28.478069" transform="matrix(0.22548398,-0.97424688,0.97424524,0.22549106,0,0)" />
			<ellipse id="ellipse159" ry="0.46712282" rx="0.81851053" cy="51.568336" cx="-31.084494" transform="matrix(0.22548398,-0.97424688,0.97424524,0.22549106,0,0)" />
			<ellipse id="ellipse161" ry="0.46790484" rx="0.81843227" cy="19.043127" cx="-31.995527" transform="matrix(0.22680558,-0.97394005,0.9739384,0.22681269,0,0)" />
			<ellipse id="ellipse163" ry="0.52578133" rx="0.73660064" cy="13.503054" cx="-42.488621" transform="matrix(0.24100212,-0.97052459,0.97052273,0.24100963,0,0)" />
			<ellipse style="fill:none;stroke:#000000;stroke-width:0.09999999;stroke-miterlimit:4;stroke-dasharray:none;stroke-opacity:1" id="ellipse165" ry="0.5266332" rx="0.7366358" cy="17.358679" cx="-41.612011" transform="matrix(0.24159059,-0.97037827,0.9703764,0.24159811,0,0)" />
			<ellipse style="fill:none;stroke:#000000;stroke-width:0.09999999;stroke-miterlimit:4;stroke-dasharray:none;stroke-opacity:1" id="ellipse167" ry="0.5266332" rx="0.7366358" cy="19.354458" cx="-24.02009" transform="matrix(0.24159059,-0.97037827,0.9703764,0.24159811,0,0)" />
			<ellipse style="fill:none;stroke:#000000;stroke-width:0.09999999;stroke-miterlimit:4;stroke-dasharray:none;stroke-opacity:1" id="ellipse169" ry="0.5266332" rx="0.7366358" cy="12.83888" cx="-12.66919" transform="matrix(0.24159059,-0.97037827,0.9703764,0.24159811,0,0)" />
			<ellipse style="fill:none;stroke:#000000;stroke-width:0.09999999;stroke-miterlimit:4;stroke-dasharray:none;stroke-opacity:1" id="ellipse171" ry="0.5257808" rx="0.73659992" cy="39.263134" cx="-36.182507" transform="matrix(0.24180236,-0.97032552,0.97032365,0.24180989,0,0)" />
			<ellipse style="fill:none;stroke:#000000;stroke-width:0.09999999;stroke-miterlimit:4;stroke-dasharray:none;stroke-opacity:1" id="ellipse173" ry="0.47369879" rx="0.66302264" cy="39.883545" cx="-3.384944" transform="matrix(0.24180236,-0.97032552,0.97032365,0.24180989,0,0)" />
			<ellipse style="fill:none;stroke:#000000;stroke-width:0.09999999;stroke-miterlimit:4;stroke-dasharray:none;stroke-opacity:1" id="ellipse175" ry="0.65475082" rx="1.0292634" cy="41.952274" cx="-31.827742" transform="matrix(0.25280063,-0.96751839,0.96751635,0.25280846,0,0)" />
			<ellipse id="ellipse177" ry="0.58449799" rx="0.8176474" cy="33.851547" cx="-38.786076" transform="matrix(0.26989283,-0.96289037,0.96288805,0.26990111,0,0)" />
			<ellipse id="ellipse179" ry="0.58446699" rx="0.81843048" cy="27.283506" cx="-42.017784" transform="matrix(0.28190755,-0.95944157,0.95943905,0.28191613,0,0)" />
			<ellipse id="ellipse181" ry="0.51422632" rx="0.85650444" cy="8.6173582" cx="-22.801374" transform="matrix(0.29209217,-0.95639017,0.95638748,0.292101,0,0)" />
			<ellipse id="ellipse183" ry="0.42081869" rx="0.58948481" cy="51.438263" cx="-13.936257" transform="matrix(0.30088276,-0.95366114,0.95365828,0.30089181,0,0)" />
			<ellipse id="ellipse185" ry="0.52580273" rx="0.73662978" cy="16.012657" cx="-44.814533" transform="matrix(0.30769054,-0.95148649,0.95148351,0.30769975,0,0)" />
			<ellipse style="fill:none;stroke:#000000;stroke-width:0.09999999;stroke-miterlimit:4;stroke-dasharray:none;stroke-opacity:1" id="ellipse187" ry="0.65560901" rx="1.0293111" cy="38.89753" cx="-33.303841" transform="matrix(0.33568526,-0.94197421,0.9419707,0.33569511,0,0)" />
			<ellipse id="ellipse189" ry="0.46297869" rx="0.64817828" cy="46.2822" cx="12.137421" transform="matrix(0.34508394,-0.93857183,0.93856813,0.34509398,0,0)" />
			<ellipse style="fill:none;stroke:#000000;stroke-width:0.09999999;stroke-miterlimit:4;stroke-dasharray:none;stroke-opacity:1" id="ellipse191" ry="0.58945644" rx="0.92594606" cy="52.263935" cx="-3.1127362" transform="matrix(0.34529249,-0.93849512,0.93849142,0.34530255,0,0)" />
			<ellipse id="ellipse193" ry="0.58943313" rx="0.92590946" cy="39.421539" cx="-17.945507" transform="matrix(0.34600616,-0.93823224,0.93822852,0.34601624,0,0)" />
			<ellipse style="fill:none;stroke:#000000;stroke-width:0.09999999;stroke-miterlimit:4;stroke-dasharray:none;stroke-opacity:1" id="ellipse195" ry="0.42661107" rx="0.71020049" cy="16.914585" cx="-1.8651996" transform="matrix(0.35687572,-0.93415187,0.93414794,0.35688602,0,0)" />
			<ellipse id="ellipse197" ry="0.42577493" rx="0.71018481" cy="14.047603" cx="-34.260422" transform="matrix(0.35708356,-0.93407244,0.93406851,0.35709386,0,0)" />
			<ellipse id="ellipse199" ry="0.42577493" rx="0.71018481" cy="25.679108" cx="-17.687263" transform="matrix(0.35708356,-0.93407244,0.93406851,0.35709386,0,0)" />
			<ellipse style="fill:none;stroke:#000000;stroke-width:0.09999999;stroke-miterlimit:4;stroke-dasharray:none;stroke-opacity:1" id="ellipse201" ry="0.58448577" rx="0.81845516" cy="31.538706" cx="4.24226" transform="matrix(0.37279875,-0.92791222,0.92790796,0.37280937,0,0)" />
			<ellipse id="ellipse203" ry="0.63161075" rx="0.73661238" cy="20.741562" cx="-30.220823" transform="matrix(0.37429734,-0.92730874,0.92730444,0.37430799,0,0)" />
			<ellipse id="ellipse205" ry="0.65477121" rx="1.0292927" cy="16.043055" cx="-30.028885" transform="matrix(0.37779018,-0.92589124,0.92588687,0.37780089,0,0)" />
			<ellipse id="ellipse207" ry="0.33648235" rx="0.6737994" cy="45.336369" cx="-16.69323" transform="matrix(0.37878712,-0.92548383,0.92547944,0.37879785,0,0)" />
			<ellipse id="ellipse209" ry="0.42082557" rx="0.84166104" cy="15.309957" cx="-5.5546198" transform="matrix(0.37887276,-0.92544877,0.92544438,0.3788835,0,0)" />
			<ellipse style="fill:none;stroke:#000000;stroke-width:0.10000001;stroke-miterlimit:4;stroke-dasharray:none;stroke-opacity:1" id="ellipse211" ry="0.42080256" rx="0.84161502" cy="12.861153" cx="-25.88649" transform="matrix(0.37899347,-0.92539935,0.92539495,0.3790042,0,0)" />
			<ellipse id="ellipse213" ry="0.58450311" rx="0.81930572" cy="24.885521" cx="-23.444693" transform="matrix(0.39568715,-0.91838536,0.91838061,0.39569819,0,0)" />
			<ellipse id="ellipse215" ry="0.58450311" rx="0.818479" cy="5.6109462" cx="-3.8567653" transform="matrix(0.39568715,-0.91838536,0.91838061,0.39569819,0,0)" />
			<ellipse id="ellipse217" ry="0.58451146" rx="0.81849068" cy="28.762196" cx="-1.7872117" transform="matrix(0.39618147,-0.91817223,0.91816747,0.39619251,0,0)" />
			<ellipse style="fill:none;stroke:#000000;stroke-width:0.09999999;stroke-miterlimit:4;stroke-dasharray:none;stroke-opacity:1" id="ellipse219" ry="0.42081031" rx="0.5886448" cy="34.694366" cx="5.8516698" transform="matrix(0.41398562,-0.91028342,0.91027826,0.41399697,0,0)" />
			<ellipse id="ellipse221" ry="0.42577037" rx="0.71017611" cy="55.566299" cx="-3.3685431" transform="matrix(0.42008583,-0.90748438,0.90747908,0.42009727,0,0)" />
			<ellipse style="fill:none;stroke:#000000;stroke-width:0.10000001;stroke-miterlimit:4;stroke-dasharray:none;stroke-opacity:1" id="ellipse223" ry="0.4257718" rx="0.7101776" cy="32.306076" cx="-28.567963" transform="matrix(0.4596835,-0.88808281,0.8880766,0.4596955,0,0)" />
			<ellipse id="ellipse225" ry="0.52662224" rx="1.0524278" cy="41.448914" cx="10.58646" transform="matrix(0.46099405,-0.88740322,0.88739699,0.46100606,0,0)" />
			<ellipse style="fill:none;stroke:#000000;stroke-width:0.10000001;stroke-miterlimit:4;stroke-dasharray:none;stroke-opacity:1" id="ellipse227" ry="0.47286674" rx="0.94656909" cy="36.810547" cx="-8.8741951" transform="matrix(0.46131209,-0.88723793,0.88723169,0.46132411,0,0)" />
			<ellipse id="ellipse229" ry="0.52662778" rx="1.0524387" cy="36.063988" cx="-13.618896" transform="matrix(0.46158915,-0.88709382,0.88708757,0.46160117,0,0)" />
			<ellipse id="ellipse231" ry="0.52662778" rx="1.0524387" cy="44.089447" cx="7.0205822" transform="matrix(0.46158915,-0.88709382,0.88708757,0.46160117,0,0)" />
			<ellipse id="ellipse233" ry="0.4737187" rx="0.94744635" cy="18.874685" cx="2.6841674" transform="matrix(0.46178747,-0.8869906,0.88698435,0.46179948,0,0)" />
			<ellipse id="ellipse235" ry="0.47373229" rx="0.66306603" cy="30.208422" cx="14.744092" transform="matrix(0.467174,-0.8841654,0.88415902,0.46718607,0,0)" />
			<ellipse id="ellipse237" ry="0.42081094" rx="0.58947122" cy="29.527325" cx="-2.7132797" transform="matrix(0.48088354,-0.87678448,0.87677778,0.48089576,0,0)" />
			<ellipse id="ellipse239" ry="0.65475678" rx="1.0292667" cy="21.32885" cx="-10.630527" transform="matrix(0.48679958,-0.87351369,0.87350684,0.48681187,0,0)" />
			<ellipse id="ellipse241" ry="0.65473145" rx="1.0284003" cy="32.892128" cx="-10.086413" transform="matrix(0.4869184,-0.87344746,0.87344061,0.48693069,0,0)" />
			<ellipse id="ellipse243" ry="0.56628138" rx="0.75394547" cy="22.658188" cx="-14.606232" transform="matrix(0.51341552,-0.85814014,0.85813266,0.51342803,0,0)" />
			<ellipse id="ellipse245" ry="0.56632996" rx="0.75401014" cy="32.165077" cx="-31.524523" transform="matrix(0.51337146,-0.8581665,0.85815902,0.51338397,0,0)" />
			<ellipse id="ellipse247" ry="0.56631047" rx="0.75481087" cy="55.642849" cx="-9.5713835" transform="matrix(0.51348916,-0.85809608,0.8580886,0.51350166,0,0)" />
			<ellipse id="ellipse249" ry="0.56631047" rx="0.75398415" cy="11.539673" cx="-6.8701906" transform="matrix(0.51348916,-0.85809608,0.8580886,0.51350166,0,0)" />
			<ellipse id="ellipse251" ry="0.56631047" rx="0.75398415" cy="19.640978" cx="-1.2515126" transform="matrix(0.51348916,-0.85809608,0.8580886,0.51350166,0,0)" />
			<ellipse id="ellipse253" ry="0.45800075" rx="0.61094797" cy="29.924671" cx="-9.5244274" transform="matrix(0.51379815,-0.8579111,0.85790361,0.51381065,0,0)" />
			<ellipse style="fill:none;stroke:#000000;stroke-width:0.09999999;stroke-miterlimit:4;stroke-dasharray:none;stroke-opacity:1" id="ellipse255" ry="0.56631017" rx="0.7539838" cy="45.309097" cx="-11.528376" transform="matrix(0.51398942,-0.85779653,0.85778903,0.51400192,0,0)" />
			<ellipse id="ellipse257" ry="0.56629068" rx="0.75395787" cy="18.890242" cx="-17.768314" transform="matrix(0.51410709,-0.85772601,0.85771851,0.51411959,0,0)" />
			<ellipse id="ellipse259" ry="0.65478903" rx="1.0293162" cy="47.361145" cx="8.3212986" transform="matrix(0.5240744,-0.85167249,0.85166475,0.52408697,0,0)" />
			<ellipse id="ellipse261" ry="0.65478903" rx="1.0293162" cy="21.592812" cx="7.9957986" transform="matrix(0.5240744,-0.85167249,0.85166475,0.52408697,0,0)" />
			<ellipse style="fill:none;stroke:#000000;stroke-width:0.09999999;stroke-miterlimit:4;stroke-dasharray:none;stroke-opacity:1" id="ellipse263" ry="0.46708795" rx="0.81844306" cy="43.867844" cx="16.210451" transform="matrix(0.53740613,-0.84332357,0.84331552,0.53741878,0,0)" />
			<ellipse id="ellipse265" ry="0.58451819" rx="0.81849605" cy="35.660164" cx="9.3330078" transform="matrix(0.55377046,-0.83266937,0.83266092,0.55378316,0,0)" />
			<ellipse id="ellipse267" ry="0.58451819" rx="0.81849605" cy="23.562277" cx="12.83958" transform="matrix(0.55377046,-0.83266937,0.83266092,0.55378316,0,0)" />
			<ellipse id="ellipse269" ry="0.58450192" rx="0.81847322" cy="33.106571" cx="1.6795917" transform="matrix(0.55388591,-0.83259258,0.83258413,0.55389861,0,0)" />
			<ellipse style="fill:none;stroke:#000000;stroke-width:0.09999999;stroke-miterlimit:4;stroke-dasharray:none;stroke-opacity:1" id="ellipse271" ry="0.58450174" rx="0.81847298" cy="3.0274856" cx="0.71747297" transform="matrix(0.55418606,-0.83239283,0.83238437,0.55419876,0,0)" />
			<ellipse id="ellipse273" ry="0.58450162" rx="0.81847286" cy="42.138458" cx="6.6297302" transform="matrix(0.55448614,-0.83219296,0.83218449,0.55449884,0,0)" />
			<ellipse id="ellipse275" ry="0.58450162" rx="0.81847286" cy="17.307716" cx="8.5603971" transform="matrix(0.55448614,-0.83219296,0.83218449,0.55449884,0,0)" />
			<ellipse id="ellipse277" ry="0.58450162" rx="0.81847286" cy="46.542381" cx="14.630464" transform="matrix(0.55448614,-0.83219296,0.83218449,0.55449884,0,0)" />
			<ellipse id="ellipse279" ry="0.5258044" rx="0.73662686" cy="12.48992" cx="-14.246575" transform="matrix(0.55628511,-0.8309915,0.83098299,0.55629782,0,0)" />
			<ellipse id="ellipse281" ry="0.65393609" rx="1.0292714" cy="32.841015" cx="-24.569973" transform="matrix(0.61719674,-0.78680886,0.78679895,0.61720938,0,0)" />
			<ellipse id="ellipse283" ry="0.467949" rx="0.8184998" cy="25.343786" cx="-15.604063" transform="matrix(0.64216281,-0.76656828,0.76655783,0.64217529,0,0)" />
			<ellipse id="ellipse285" ry="0.65475851" rx="1.0292561" cy="17.709272" cx="-5.5039487" transform="matrix(0.79430757,-0.60751584,0.60750315,0.79431727,0,0)" />
			<ellipse id="ellipse287" ry="0.58945769" rx="0.42080054" cy="12.8528" cx="-3.5423524" transform="matrix(0.90579943,-0.42370674,0.42369524,0.9058048,0,0)" />
			<ellipse id="ellipse289" ry="1.0284506" rx="0.65476048" cy="21.114552" cx="11.329873" transform="matrix(0.95070205,-0.3101058,0.31009653,0.95070508,0,0)" />
			<ellipse style="fill:none;stroke:#000000;stroke-width:0.09999999;stroke-miterlimit:4;stroke-dasharray:none;stroke-opacity:1" id="ellipse291" ry="0.73662037" rx="0.5257951" cy="51.209919" cx="37.321602" transform="matrix(0.97989727,-0.19950274,0.19949641,0.97989856,0,0)" />
			<ellipse id="ellipse293" ry="0.81850427" rx="0.58451855" cy="7.3669615" cx="37.672398" transform="matrix(0.98985294,-0.14209559,0.14209099,0.9898536,0,0)" />
			<ellipse id="ellipse295" ry="0.92590606" rx="0.58942902" cy="13.870564" cx="19.549509" transform="matrix(0.99003698,-0.14080759,0.14080303,0.99003763,0,0)" />
			<ellipse id="ellipse297" ry="0.66224051" rx="0.47372985" cy="12.887649" cx="27.790705" transform="matrix(0.9968589,-0.07919804,0.07919544,0.99685911,0,0)" />
			<path id="path299" d="M 2.3875662,10.48463 C 2.7414022,10.929412 3.2581019,11.10716 3.54084,10.881462 3.8235781,10.656591 4.0054564,9.9629613 3.6507937,9.5190056 3.2969577,9.0742231 2.541336,9.0469409 2.2585979,9.2718123 1.9750331,9.4975105 2.0329035,10.040674 2.3875662,10.48463 Z" />
			<path id="path301" d="M 8.26744e-4,43.026504 C 0.2397487,42.966979 0.42328045,42.628019 0.42328045,42.217132 c 0,-0.410886 -0.18353175,-0.749847 -0.422453706,-0.809372" />
			<path id="path303" d="M 8.26744e-4,31.823442 C 0.2397487,31.764744 0.42328045,31.42413 0.42328045,31.01407 c 0,-0.41006 -0.18353175,-0.750674 -0.422453706,-0.809372" />
			<path id="path305" d="M 8.26744e-4,16.48754 C 0.2397487,16.42884 0.42328045,16.088228 0.42328045,15.678168 c 0,-0.410059 -0.18353175,-0.74902 -0.422453706,-0.809372" />
			<path id="path307" d="M 8.26744e-4,2.9415158 C 0.2397487,2.881991 0.42245373,2.5430304 0.42245373,2.132144 0.42245373,1.7220843 0.23892198,1.3822969 2.442e-8,1.3227721" />
			<path id="path309" d="M 6.8741733,2.9878129 C 6.5972223,2.4909462 5.775463,2.2545005 5.4596561,2.4305947 5.1430225,2.6066889 5.1116072,3.1515061 5.3885582,3.6483728 5.6646826,4.1444127 6.1450067,4.4040069 6.4608135,4.2279128 6.7766204,4.0518186 7.1511244,3.4846796 6.8741733,2.9878129 Z" />
			<path id="path311" d="M 7.5892858,7.5059101 C 7.2809194,7.695232 6.9419643,8.138361 7.2379299,8.6228267 7.5338956,9.1081191 8.024967,9.3486985 8.3325067,9.1593766 8.6416998,8.9708814 8.711971,8.2392225 8.4160053,7.7547568 8.1200397,7.2694644 7.8976522,7.3165882 7.5892858,7.5059101 Z" />
			<path id="path313" d="m 8.6615411,49.999999 c 0.00165,-0.02315 0.00248,-0.04712 0.00248,-0.07027 0,-0.387738 -0.20916,-0.701897 -0.4670965,-0.701897 -0.2579365,0 -0.4679233,0.314159 -0.4679233,0.701897 0,0.02315 0.00165,0.04712 0.00248,0.07027" />
			<path id="path315" d="M 8.6615411,-1.07675e-6 C 8.6383929,0.35384075 8.4383268,0.63162313 8.1969247,0.63162313 c -0.2430556,0 -0.4414683,-0.27778238 -0.4654432,-0.63162420675" />
			<path id="path317" d="m 11.227679,2.8762039 c 0,-0.4522231 -0.256283,-1.3062385 -0.578704,-1.3062385 -0.322421,0 -0.585318,0.3662428 -0.585318,0.8184659 0,0.4522231 0.262071,0.8176392 0.585318,0.8176392 0.323247,0 0.578704,0.1215298 0.578704,-0.3298666 z" />
			<path id="path319" d="m 15.10086,45.107392 c 0.250496,0.408406 0.700231,0.601035 1.004464,0.428248 0.304233,-0.172788 0.347222,-0.643199 0.0959,-1.052432 -0.250496,-0.409233 -0.701059,-0.600208 -1.004465,-0.429074 -0.305059,0.173614 -0.347222,0.644025 -0.0959,1.053258 z" />
			<path id="path321" d="m 18.37963,20.908083 c 0,0.451396 0.313326,0.817639 0.701058,0.817639 0.387731,0 0.701885,-0.366243 0.701885,-0.817639 0,-0.452223 -0.644015,-1.001174 -1.031746,-1.001174 -0.387732,0 -0.371197,0.548951 -0.371197,1.001174 z" />
			<path id="path323" d="m 19.742064,44.378213 c 0.260416,-0.06366 0.338128,-0.340614 0.171957,-0.61757 -0.165344,-0.277782 -0.510912,-0.449743 -0.772156,-0.386084 -0.260416,0.06366 -0.337301,0.338961 -0.171957,0.615916 0.16617,0.277783 0.511739,0.451397 0.772156,0.387738 z" />
			<path id="path325" d="m 22.457011,18.22864 c 0,-0.451396 -0.479498,-1.351709 -0.867229,-1.351709 -0.387732,0 -0.536541,0.900313 -0.536541,1.351709 0,0.452223 0.314153,0.819293 0.701885,0.819293 0.387731,0 0.701885,-0.367896 0.701885,-0.819293 z" />
			<path id="path327" d="m 22.938988,38.205823 c 0.165344,0.276955 0.510913,0.449742 0.772156,0.385257 0.25959,-0.06366 0.337302,-0.33896 0.171958,-0.615916 -0.166171,-0.276956 -0.511739,-0.451396 -0.772983,-0.387738 -0.260417,0.06366 -0.337301,0.341441 -0.171131,0.618397 z" />
			<path id="path329" d="m 23.377976,49.999999 c 0.0017,-0.02315 0.0025,-0.04712 0.0025,-0.07027 0,-0.387738 -0.20916,-0.701897 -0.467096,-0.701897 -0.257937,0 -0.467097,0.314159 -0.467097,0.701897 0,0.02315 8.27e-4,0.04712 0.0017,0.07027" />
			<path id="path331" d="M 23.377976,-1.07675e-6 C 23.354828,0.35384075 23.154762,0.63162313 22.91336,0.63162313 c -0.243056,0 -0.441468,-0.27778238 -0.465443,-0.63162420675" />
			<path id="path333" d="m 28.146495,32.599744 c -0.114914,-0.517535 -0.460483,-0.825906 -0.77133,-0.689495 -0.311673,0.137238 -0.470403,0.667174 -0.356316,1.184709 0.114914,0.515881 0.460483,0.825079 0.77133,0.688668 0.311673,-0.136411 0.47123,-0.667173 0.356316,-1.183882 z" />
			<path id="path335" d="m 30.616733,49.999999 c 0.0017,-0.02315 0.0025,-0.04712 0.0025,-0.07027 0,-0.387738 -0.261243,-0.701897 -0.584491,-0.701897 -0.32242,0 -0.583664,0.314159 -0.583664,0.701897 0,0.02315 8.27e-4,0.04712 0.0025,0.07027" />
			<path id="path337" d="M 30.616733,-1.07675e-6 C 30.586971,0.35384075 30.338128,0.63162313 30.034722,0.63162313 c -0.302579,0 -0.551422,-0.27778238 -0.581183,-0.63162420675" />
			<path id="path339" d="m 36.801422,26.136344 c 0.427414,-0.11905 0.248016,-0.648986 0,-1.157427 -0.247189,-0.508441 -0.46875,-0.804411 -0.896164,-0.683708 -0.428241,0.11905 -0.572917,0.628317 -0.326554,1.136758 0.248016,0.508441 0.795304,0.823426 1.222718,0.704377 z" />
			<path id="path341" d="M 37.236277,6.9271968 C 37.020503,6.5154837 36.532738,6.3187212 36.326058,6.4261965 c -0.205853,0.1074753 -0.199239,0.5291093 0.01571,0.9416491 0.214947,0.4125399 0.555556,0.6597332 0.761409,0.5522579 0.921792,-0.4795053 0.377811,-0.520842 0.133102,-0.9929067 z" />
			<path id="path343" d="m 40.933367,28.562806 c -0.310847,0.136411 -0.470404,0.668 -0.35549,1.184709 0.114914,0.516708 0.460483,0.82508 0.77133,0.688669 0.311673,-0.136411 0.470403,-0.667174 0.356316,-1.184709 -0.115741,-0.516709 -0.46131,-0.825907 -0.772156,-0.688669 z" />
			<path id="path345" d="m 43.625166,49.999999 c 0.0017,-0.02315 0.0025,-0.04712 0.0025,-0.07027 0,-0.387738 -0.261244,-0.701897 -0.584491,-0.701897 -0.322421,0 -0.583664,0.314159 -0.583664,0.701897 0,0.02315 8.27e-4,0.04712 0.0025,0.07027" />
			<path id="path347" d="M 43.625166,-1.07675e-6 C 43.595404,0.35384075 43.346561,0.63162313 43.043155,0.63162313 c -0.302579,0 -0.552249,-0.27778238 -0.581184,-0.63162420675" />
			<path id="path349" d="m 46.124339,0.95156889 c -0.412533,-0.18601498 -0.876323,-0.0504307 -1.034226,0.30258441 -0.159557,0.3538418 0.04547,0.790357 0.458002,0.9763719 0.411707,0.186015 1.429398,0.1190496 1.588129,-0.2347922 0.15873,-0.3530151 -0.600199,-0.8581491 -1.011905,-1.04416411 z" />
			<path id="path351" d="m 47.395834,35.934786 c 0.143849,0.461318 0.459656,0.712644 0.704365,0.560526 0.244709,-0.149639 0.325727,-0.647333 0.181878,-1.106996 -0.144676,-0.461317 -0.459656,-0.711818 -0.704365,-0.561352 -0.244709,0.152119 -0.326554,0.648159 -0.181878,1.107822 z" />
			<path id="path353" d="m 50,41.406934 c -0.02398,-0.0066 -0.0496,-0.0083 -0.0744,-0.0083 -0.27447,0 -0.497685,0.366243 -0.497685,0.81764 0,0.451396 0.223215,0.819292 0.497685,0.819292 0.0248,0 0.05043,-0.0041 0.0744,-0.0099" />
			<path id="path355" d="m 50,30.204698 c -0.02398,-0.0058 -0.0496,-0.0099 -0.0744,-0.0099 -0.27447,0 -0.497685,0.36707 -0.497685,0.819293 0,0.452223 0.223215,0.817639 0.497685,0.817639 0.0248,0 0.05043,-0.0025 0.0744,-0.0091" />
			<path id="path357" d="m 50,14.868796 c -0.02398,-0.0058 -0.0496,-0.0091 -0.0744,-0.0091 -0.27447,0 -0.497685,0.366243 -0.497685,0.81764 0,0.452223 0.223215,0.818465 0.497685,0.818465 0.0248,0 0.05043,-0.0033 0.0744,-0.0091" />
			<path id="path359" d="m 50,1.3227721 c -0.02398,-0.00661 -0.0496,-0.00909 -0.0744,-0.00909 -0.27447,0 -0.497685,0.3654161 -0.497685,0.8176391 0,0.4522231 0.223215,0.818466 0.497685,0.818466 0.0248,0 0.05043,-0.00331 0.0744,-0.00909" />
			<path id="path361" d="M 4.8189485,22.517732 C 5.1661707,22.463995 5.3645834,22.124207 5.2612434,21.760445 5.1587302,21.397509 4.7933201,21.146182 4.4460979,21.2024 4.098049,21.256138 3.900463,21.595925 4.003803,21.959688 4.1071429,22.32345 4.4708995,22.57395 4.8189485,22.517732 Z" />
		</g>
	</g>
</svg>