<?xml version="1.0" encoding="UTF-8" standalone="no"?>
<svg xmlns:dc="http://purl.org/dc/elements/1.1/" xmlns:cc="http://creativecommons.org/ns#" xmlns:rdf="http://www.w3.org/1999/02/22-rdf-syntax-ns#" xmlns:svg="http://www.w3.org/2000/svg" xmlns="http://www.w3.org/2000/svg" version="1.1" x="0px" y="0px" xml:space="preserve" width="50.00" height="50.00" viewBox="0 0 50.00 50.00">
	<metadata id="metadata2">
		<rdf:RDF>
			<ns:item rdf:ID="biblio1">
				<ns:link>rdf:resource=&quot;http://pubs.usgs.gov/tm/2006/11A02/</ns:link>
				<ns:title>U.S. Geological Survey, 2006, FGDC Digital Cartographic Standard for Geologic Map Symbolization (PostScript Implementation): U.S. Geological Survey Techniques and Methods 11-A2</ns:title>
			</ns:item>
			<ns:item rdf:ID="biblio2">
				<ns:link>https://davenquinn.com/projects/geologic-patterns/</ns:link>
				<ns:title>FGDC Geologic Patterns for the Web</ns:title>
			</ns:item>
			<rdf:Description>
				<dc:description>
					Converted from 'FGDC Geologic Patterns for the Web' to QGIS compatible svg symbols, with customisable fill colour/stroke colour/stroke width (when appropriate).
					SVG scaled to 50x50 pixels so that base outline-width is 0.387 px and width is 90 in the QGIS xml definition file. 
					Some of the original FGDC symbols have been omitted from this set because they can be generated from other symbols using the 'texture width' and/or 'stroke width' fields in QGIS symbology form.
				</dc:description>
				<dc:date>01 MARCH 2019</dc:date>
				<dc:creator>GeoProc.com</dc:creator>
				<dc:publisher rdf:resource="https://github.com/BC-Consulting/QGIS-FGDC-Fill" />
			</rdf:Description>
			<cc:Work rdf:about="">
				<dc:format>image/svg+xml</dc:format>
				<dc:type rdf:resource="http://purl.org/dc/dcmitype/StillImage" />
				<dc:title>FGDC fill symbol: Surficial - 104</dc:title>
			</cc:Work>
		</rdf:RDF>
	</metadata>
	<g>
		<path style="fill:none;stroke:none;stroke-width:0;" id="rect1500" width="50.00" height="50.00" x="0.0" y="0.0" />
        <g fill="param(outline) #000000" style="stroke:none;stroke-width:0">
			<circle cx="2.7985075" cy="16.483582" r="0.77313435" id="circle5" />
			<circle cx="2.7985075" cy="28.983583" r="0.77313435" id="circle7" />
			<circle cx="2.7985075" cy="3.983582" r="0.77313435" id="circle9" />
			<circle cx="2.7985075" cy="41.483582" r="0.77313435" id="circle11" />
			<circle cx="2.8925371" cy="20.774626" r="0.77313435" id="circle13" />
			<circle cx="2.8925371" cy="33.274628" r="0.77313435" id="circle15" />
			<circle cx="2.8925371" cy="45.774628" r="0.77313435" id="circle17" />
			<circle cx="2.8925371" cy="8.2746267" r="0.77313435" id="circle19" />
			<circle cx="15.298508" cy="16.483582" r="0.77313435" id="circle21" />
			<circle cx="15.298508" cy="28.983583" r="0.77313435" id="circle23" />
			<circle cx="15.298508" cy="3.983582" r="0.77313435" id="circle25" />
			<circle cx="15.298508" cy="41.483582" r="0.77313435" id="circle27" />
			<circle cx="15.392537" cy="20.774626" r="0.77313435" id="circle29" />
			<circle cx="15.392537" cy="33.274628" r="0.77313435" id="circle31" />
			<circle cx="15.392537" cy="45.774628" r="0.77313435" id="circle33" />
			<circle cx="15.392537" cy="8.2746267" r="0.77313435" id="circle35" />
			<circle cx="16.791044" cy="24.973135" r="0.77313435" id="circle37" />
			<circle cx="16.791044" cy="37.473133" r="0.77313435" id="circle39" />
			<circle cx="16.791044" cy="12.473135" r="0.77313435" id="circle41" />
			<circle cx="19.02985" cy="18.722387" r="0.77313435" id="circle43" />
			<circle cx="19.02985" cy="31.222389" r="0.77313435" id="circle45" />
			<circle cx="19.02985" cy="43.722389" r="0.77313435" id="circle47" />
			<circle cx="19.02985" cy="6.2223883" r="0.77313435" id="circle49" />
			<circle cx="20.895523" cy="22.826864" r="0.77313435" id="circle51" />
			<circle cx="20.895523" cy="35.326866" r="0.77313435" id="circle53" />
			<circle cx="20.895523" cy="47.826862" r="0.77313435" id="circle55" />
			<circle cx="20.895523" cy="10.326866" r="0.77313435" id="circle57" />
			<circle cx="20.989552" cy="2.5850747" r="0.77313435" id="circle59" />
			<circle cx="20.989552" cy="15.085075" r="0.77313435" id="circle61" />
			<circle cx="20.989552" cy="27.585075" r="0.77313435" id="circle63" />
			<circle cx="20.989552" cy="40.085075" r="0.77313435" id="circle65" />
			<circle cx="23.013432" cy="18.750746" r="0.77313435" id="circle67" />
			<circle cx="23.013432" cy="31.250746" r="0.77313435" id="circle69" />
			<circle cx="23.013432" cy="43.750744" r="0.77313435" id="circle71" />
			<circle cx="23.013432" cy="6.2507467" r="0.77313435" id="circle73" />
			<circle cx="25" cy="25.065672" r="0.77313435" id="circle75" />
			<circle cx="25" cy="37.379105" r="0.77313435" id="circle77" />
			<circle cx="25" cy="12.379104" r="0.77313435" id="circle79" />
			<circle cx="27.798508" cy="16.483582" r="0.77313435" id="circle81" />
			<circle cx="27.798508" cy="28.983583" r="0.77313435" id="circle83" />
			<circle cx="27.798508" cy="3.983582" r="0.77313435" id="circle85" />
			<circle cx="27.798508" cy="41.483582" r="0.77313435" id="circle87" />
			<circle cx="27.892536" cy="20.774626" r="0.77313435" id="circle89" />
			<circle cx="27.892536" cy="33.274628" r="0.77313435" id="circle91" />
			<circle cx="27.892536" cy="45.774628" r="0.77313435" id="circle93" />
			<circle cx="27.892536" cy="8.2746267" r="0.77313435" id="circle95" />
			<circle cx="29.291044" cy="24.973135" r="0.77313435" id="circle97" />
			<circle cx="29.291044" cy="37.473133" r="0.77313435" id="circle99" />
			<circle cx="29.291044" cy="12.473135" r="0.77313435" id="circle101" />
			<circle cx="4.2910447" cy="24.973135" r="0.77313435" id="circle103" />
			<circle cx="4.2910447" cy="37.473133" r="0.77313435" id="circle105" />
			<circle cx="4.2910447" cy="12.473135" r="0.77313435" id="circle107" />
			<circle cx="31.52985" cy="18.722387" r="0.77313435" id="circle109" />
			<circle cx="31.52985" cy="31.222389" r="0.77313435" id="circle111" />
			<circle cx="31.52985" cy="43.722389" r="0.77313435" id="circle113" />
			<circle cx="31.52985" cy="6.2223883" r="0.77313435" id="circle115" />
			<circle cx="33.395523" cy="22.826864" r="0.77313435" id="circle117" />
			<circle cx="33.395523" cy="35.326866" r="0.77313435" id="circle119" />
			<circle cx="33.395523" cy="47.826862" r="0.77313435" id="circle121" />
			<circle cx="33.395523" cy="10.326866" r="0.77313435" id="circle123" />
			<circle cx="33.489552" cy="2.5850747" r="0.77313435" id="circle125" />
			<circle cx="33.489552" cy="15.085075" r="0.77313435" id="circle127" />
			<circle cx="33.489552" cy="27.585075" r="0.77313435" id="circle129" />
			<circle cx="33.489552" cy="40.085075" r="0.77313435" id="circle131" />
			<circle cx="35.513432" cy="18.750746" r="0.77313435" id="circle133" />
			<circle cx="35.513432" cy="31.250746" r="0.77313435" id="circle135" />
			<circle cx="35.513432" cy="43.750744" r="0.77313435" id="circle137" />
			<circle cx="35.513432" cy="6.2507467" r="0.77313435" id="circle139" />
			<circle cx="37.5" cy="24.879105" r="0.77313435" id="circle141" />
			<circle cx="37.5" cy="37.379105" r="0.77313435" id="circle143" />
			<circle cx="37.5" cy="12.379104" r="0.77313435" id="circle145" />
			<circle cx="40.298508" cy="16.483582" r="0.77313435" id="circle147" />
			<circle cx="40.298508" cy="28.983583" r="0.77313435" id="circle149" />
			<circle cx="40.298508" cy="3.983582" r="0.77313435" id="circle151" />
			<circle cx="40.298508" cy="41.483582" r="0.77313435" id="circle153" />
			<circle cx="40.392536" cy="20.774626" r="0.77313435" id="circle155" />
			<circle cx="40.392536" cy="33.274628" r="0.77313435" id="circle157" />
			<circle cx="40.392536" cy="45.774628" r="0.77313435" id="circle159" />
			<circle cx="40.392536" cy="8.2746267" r="0.77313435" id="circle161" />
			<circle cx="41.791046" cy="24.973135" r="0.77313435" id="circle163" />
			<circle cx="41.791046" cy="37.565674" r="0.77313435" id="circle165" />
			<circle cx="41.791046" cy="12.473135" r="0.77313435" id="circle167" />
			<circle cx="44.02985" cy="18.722387" r="0.77313435" id="circle169" />
			<circle cx="44.02985" cy="31.222389" r="0.77313435" id="circle171" />
			<circle cx="44.02985" cy="43.722389" r="0.77313435" id="circle173" />
			<circle cx="44.02985" cy="6.2223883" r="0.77313435" id="circle175" />
			<circle cx="45.895523" cy="22.826864" r="0.77313435" id="circle177" />
			<circle cx="45.895523" cy="35.326866" r="0.77313435" id="circle179" />
			<circle cx="45.895523" cy="47.826862" r="0.77313435" id="circle181" />
			<circle cx="45.895523" cy="10.326866" r="0.77313435" id="circle183" />
			<circle cx="45.989552" cy="2.5850747" r="0.77313435" id="circle185" />
			<circle cx="45.989552" cy="15.085075" r="0.77313435" id="circle187" />
			<circle cx="45.989552" cy="27.585075" r="0.77313435" id="circle189" />
			<circle cx="45.989552" cy="40.085075" r="0.77313435" id="circle191" />
			<circle cx="48.013432" cy="18.750746" r="0.77313435" id="circle193" />
			<circle cx="48.013432" cy="31.250746" r="0.77313435" id="circle195" />
			<circle cx="48.013432" cy="43.750744" r="0.77313435" id="circle197" />
			<circle cx="48.013432" cy="6.2507467" r="0.77313435" id="circle199" />
			<circle cx="6.5298505" cy="18.722387" r="0.77313435" id="circle201" />
			<circle cx="6.5298505" cy="31.222389" r="0.77313435" id="circle203" />
			<circle cx="6.5298505" cy="43.722389" r="0.77313435" id="circle205" />
			<circle cx="6.5298505" cy="6.2223883" r="0.77313435" id="circle207" />
			<circle cx="8.3955221" cy="22.826864" r="0.77313435" id="circle209" />
			<circle cx="8.3955221" cy="35.326866" r="0.77313435" id="circle211" />
			<circle cx="8.3955221" cy="47.826862" r="0.77313435" id="circle213" />
			<circle cx="8.3955221" cy="10.326866" r="0.77313435" id="circle215" />
			<circle cx="8.4895525" cy="2.5850747" r="0.77313435" id="circle217" />
			<circle cx="8.4895525" cy="15.085075" r="0.77313435" id="circle219" />
			<circle cx="8.4895525" cy="27.585075" r="0.77313435" id="circle221" />
			<circle cx="8.4895525" cy="40.085075" r="0.77313435" id="circle223" />
			<circle cx="10.513433" cy="18.750746" r="0.77313435" id="circle225" />
			<circle cx="10.513433" cy="31.250746" r="0.77313435" id="circle227" />
			<circle cx="10.513433" cy="43.750744" r="0.77313435" id="circle229" />
			<circle cx="10.513433" cy="6.2507467" r="0.77313435" id="circle231" />
			<circle cx="12.5" cy="24.879105" r="0.77313435" id="circle233" />
			<circle cx="12.5" cy="37.379105" r="0.77313435" id="circle235" />
			<circle cx="12.5" cy="12.473135" r="0.77313435" id="circle237" />
			<path d="M0.7761194 0.05970149C0.7761194 0.50746268 0.44776119 0.83582089 0.0 0.83582089C0.0 0.83582089 0.0 0.0 0.0 0.0C0.0 0.0 0.7761194 0.05970149 0.7761194 0.05970149" id="path239" />
			<path d="M0.0 38.253731C0.44776119 38.253731 0.7761194 37.895522 0.7761194 37.477612C0.7761194 37.059701 0.43283582 36.731343 0.0 36.731343M49.970149 36.716413C49.552238 36.716413 49.194029 37.044771 49.194029 37.462681C49.194029 37.880592 49.537313 38.238801 49.970149 38.238801" id="path241" />
			<path d="M0.0 49.22388C0.44776119 49.22388 0.7761194 49.567164 0.7761194 50.0C0.7761194 50.0 0.0 50.0 0.0 50.0C0.0 50.0 0.0 49.22388 0.0 49.22388M50.0 49.22388C49.552238 49.22388 49.22388 49.567164 49.22388 50.0C49.22388 50.0 50.0 50.0 50.0 50.0C50.0 50.0 50.0 49.22388 50.0 49.22388" id="path243" />
			<path d="M0.0 13.253731C0.44776119 13.253731 0.7761194 12.895522 0.7761194 12.477612C0.7761194 12.059701 0.44776119 11.701492 0.0 11.701492M49.970149 11.701492C49.552238 11.701492 49.194029 12.044776 49.194029 12.477612C49.194029 12.910448 49.537313 13.253731 49.970149 13.253731" id="path245" />
			<path d="M16.014925 0.05970149C16.014925 0.50746268 16.358209 0.83582089 16.791045 0.83582089C17.22388 0.83582089 17.567164 0.49253731 17.567164 0.05970149" id="path247" />
			<path d="M17.567164 49.970149C17.567164 49.552238 17.22388 49.194029 16.791045 49.194029C16.358209 49.194029 16.014925 49.552238 16.014925 49.970149" id="path249" />
			<path d="M24.22388 0.05970149C24.22388 0.50746268 24.567164 0.83582089 25.0 0.83582089C25.432836 0.83582089 25.776119 0.49253731 25.776119 0.05970149" id="path251" />
			<path d="M28.507462 0.05970149C28.507462 0.50746268 28.865671 0.83582089 29.283582 0.83582089C29.701492 0.83582089 30.059701 0.49253731 30.059701 0.05970149" id="path253" />
			<path d="M3.522388 0.05970149C3.522388 0.50746268 3.8656716 0.83582089 4.2985074 0.83582089C4.7313432 0.83582089 5.0447761 0.49253731 5.0447761 0.05970149M11.731343 0.05970149C11.731343 0.50746268 12.074627 0.83582089 12.477612 0.83582089C12.880597 0.83582089 13.283582 0.49253731 13.283582 0.05970149" id="path255" />
			<path d="M30.059701 49.970149C30.059701 49.552238 29.716418 49.194029 29.283582 49.194029C28.850746 49.194029 28.537313 49.552238 28.537313 49.970149M38.268656 49.940299C38.268656 49.492538 37.925373 49.16418 37.492537 49.16418C37.059701 49.16418 36.746268 49.507463 36.746268 49.940299" id="path257" />
			<path d="M36.716418 0.05970149C36.716418 0.50746268 37.074627 0.83582089 37.492537 0.83582089C37.910447 0.83582089 38.268656 0.49253731 38.268656 0.05970149M25.776119 49.970149C25.776119 49.552238 25.432836 49.194029 25.0 49.194029C24.567164 49.194029 24.22388 49.552238 24.22388 49.970149" id="path259" />
			<path d="M41.014925 0.05970149C41.014925 0.50746268 41.358209 0.83582089 41.791044 0.83582089C42.22388 0.83582089 42.567164 0.49253731 42.567164 0.05970149" id="path261" />
			<path d="M42.567164 49.970149C42.567164 49.552238 42.22388 49.194029 41.791044 49.194029C41.358209 49.194029 41.014925 49.552238 41.014925 49.970149" id="path263" />
			<path d="M5.0746268 49.970149C5.0746268 49.552238 4.7164179 49.194029 4.2835821 49.194029C3.8507462 49.194029 3.5373134 49.552238 3.5373134 49.970149M13.283582 49.940299C13.283582 49.492538 12.925373 49.16418 12.492537 49.16418C12.059701 49.16418 11.746269 49.507463 11.746269 49.940299" id="path265" />
			<path d="M50.0 0.83582089C49.552238 0.83582089 49.22388 0.49253731 49.22388 0.05970149C49.22388 0.05970149 50.0 0.05970149 50.0 0.05970149C50.0 0.05970149 50.0 0.83582089 50.0 0.83582089M0.0 25.746268C0.44776119 25.746268 0.7761194 25.402985 0.7761194 24.970149C0.7761194 24.537313 0.44776119 24.179104 0.0 24.179104M49.970149 24.179104C49.552238 24.179104 49.194029 24.552239 49.194029 24.970149C49.194029 25.388059 49.537313 25.746268 49.970149 25.746268" id="path267" />
		</g>
	</g>
</svg>
