<?xml version="1.0" encoding="UTF-8" standalone="no"?>
<svg xmlns:dc="http://purl.org/dc/elements/1.1/" xmlns:cc="http://creativecommons.org/ns#" xmlns:rdf="http://www.w3.org/1999/02/22-rdf-syntax-ns#" xmlns:svg="http://www.w3.org/2000/svg" xmlns="http://www.w3.org/2000/svg" version="1.1" x="0px" y="0px" xml:space="preserve" width="50.00" height="50.00" viewBox="0 0 50.00 50.00">
	<metadata id="metadata2">
		<rdf:RDF>
			<ns:item rdf:ID="biblio1">
				<ns:link>rdf:resource=&quot;http://pubs.usgs.gov/tm/2006/11A02/</ns:link>
				<ns:title>U.S. Geological Survey, 2006, FGDC Digital Cartographic Standard for Geologic Map Symbolization (PostScript Implementation): U.S. Geological Survey Techniques and Methods 11-A2</ns:title>
			</ns:item>
			<ns:item rdf:ID="biblio2">
				<ns:link>https://davenquinn.com/projects/geologic-patterns/</ns:link>
				<ns:title>FGDC Geologic Patterns for the Web</ns:title>
			</ns:item>
			<rdf:Description>
				<dc:description>
					Converted from 'FGDC Geologic Patterns for the Web' to QGIS compatible svg symbols, with customisable fill colour/stroke colour/stroke width (when appropriate).
					SVG scaled to 50x50 pixels so that base outline-width is 0.387 px and width is 90 in the QGIS xml definition file. 
					Some of the original FGDC symbols have been omitted from this set because they can be generated from other symbols using the 'texture width' and/or 'stroke width' fields in QGIS symbology form.
				</dc:description>
				<dc:date>01 MARCH 2019</dc:date>
				<dc:creator>GeoProc.com</dc:creator>
				<dc:publisher rdf:resource="https://github.com/BC-Consulting/QGIS-FGDC-Fill" />
			</rdf:Description>
			<cc:Work rdf:about="">
				<dc:format>image/svg+xml</dc:format>
				<dc:type rdf:resource="http://purl.org/dc/dcmitype/StillImage" />
				<dc:title>FGDC fill symbol: Surficial - 132</dc:title>
			</cc:Work>
		</rdf:RDF>
	</metadata>
	<path style="fill:none;stroke:none;stroke-width:0;" id="rect1500" width="50.00" height="50.00" x="0.0" y="0.0" />
	<g fill="param(outline) #000" style="stroke:none;stroke-width:0;">
		<path id="path5" d="m 8.8173974,4.3884301 c 0.7017393,0 0.8155686,1.1883587 0,1.1745843 -0.7392654,-0.012522 -0.7267567,-1.1745843 0,-1.1745843 z" />
		<path id="path7" d="m 6.9410893,4.6238479 c 0.7017392,0 0.8155686,1.1883586 0,1.173332 -0.7392654,-0.012522 -0.7267567,-1.173332 0,-1.173332 z" />
		<path id="path9" d="m 5.1435861,5.6406521 c 0.7017392,0 0.8155686,1.1883587 0,1.1745843 -0.7405163,-0.012522 -0.7267567,-1.1745843 0,-1.1745843 z" />
		<path id="path11" d="m 3.5799959,7.3624574 c 0.7017393,0 0.8155686,1.1883587 0,1.173332 -0.7405163,-0.01127 -0.7267567,-1.173332 0,-1.173332 z" />
		<path id="path13" d="m 2.0401724,9.8844325 c 0,-0.7024966 1.1870776,-0.8164488 1.173318,0 -0.012509,0.7400635 -1.173318,0.7275405 -1.173318,0 z" />
		<path id="path15" d="m 0.78930027,11.762765 c 0,-0.702496 1.18707763,-0.816448 1.17331803,0 -0.012509,0.740064 -1.17331803,0.727541 -1.17331803,0 z" />
		<path id="path17" d="m 5.8816006,3.3365636 c 0,-0.7024965 1.1870776,-0.8164487 1.173318,0 -0.01376,0.7400633 -1.173318,0.727541 -1.173318,0 z" />
		<path id="path19" d="m 6.7159323,1.6660995 c 0,-0.70249654 1.1870776,-0.81644874 1.1720671,0 -0.012509,0.7400632 -1.1720671,0.727541 -1.1720671,0 z" />
		<path id="path21" d="m 21.108467,0.57040525 c 0,-0.70249654 1.187077,-0.81644874 1.172067,0 -0.01251,0.74006325 -1.172067,0.72754095 -1.172067,0 z" />
		<path id="path23" d="m 19.537371,2.1882761 c 0,-0.7012443 1.187078,-0.8164488 1.172067,0 -0.01251,0.7400632 -1.172067,0.727541 -1.172067,0 z" />
		<path id="path25" d="m 2.9007724,0.57040525 c 0,-0.70249654 1.1870776,-0.81644874 1.173318,0 -0.01376,0.74006325 -1.173318,0.72754095 -1.173318,0 z" />
		<path id="path27" d="m 0.70424097,1.6660995 c 0,-0.70249654 1.18707763,-0.81644874 1.17331803,0 -0.01376,0.7400632 -1.17331803,0.727541 -1.17331803,0 z" />
		<path id="path29" d="m 5.2561645,8.1363306 c 0,-0.7012443 1.1870777,-0.8164488 1.1720672,0 -0.012509,0.7400632 -1.1720672,0.727541 -1.1720672,0 z" />
		<path id="path31" d="m 37.144647,15.092424 c 0,-0.632372 1.068245,-0.735055 1.055736,0 -0.01126,0.66493 -1.055736,0.65366 -1.055736,0 z" />
		<path id="path33" d="m 35.589813,16.145542 c 0,-0.701244 1.187078,-0.816448 1.172067,0 -0.01251,0.740064 -1.172067,0.727541 -1.172067,0 z" />
		<path id="path35" d="m 34.130045,17.841051 c 0,-0.701244 1.187078,-0.816449 1.172067,0 -0.01126,0.740063 -1.172067,0.727541 -1.172067,0 z" />
		<path id="path37" d="m 32.991752,19.510263 c 0,-0.701244 1.187077,-0.816449 1.173318,0 -0.01376,0.740063 -1.173318,0.727541 -1.173318,0 z" />
		<path id="path39" d="m 6.0980015,9.7016081 c 0,-0.7012443 1.1870776,-0.8164488 1.1720671,0 -0.012509,0.7400629 -1.1720671,0.7275409 -1.1720671,0 z" />
		<path id="path41" d="m 4.6307285,13.249153 c 0,-0.701244 1.1870776,-0.816449 1.173318,0 -0.01376,0.740063 -1.173318,0.727541 -1.173318,0 z" />
		<path id="path43" d="m 6.0204474,15.049848 c 0,-0.701244 1.1870776,-0.816449 1.1720672,0 -0.012509,0.740063 -1.1720672,0.727541 -1.1720672,0 z" />
		<path id="path45" d="m 3.9014701,15.336607 c 0,-0.701244 1.1870776,-0.816449 1.173318,0 -0.01376,0.740063 -1.173318,0.727541 -1.173318,0 z" />
		<path id="path47" d="m 2.0251619,15.649663 c 0,-0.701245 1.1870776,-0.816449 1.1720672,0 -0.012509,0.740063 -1.1720672,0.727541 -1.1720672,0 z" />
		<path id="path49" d="m 3.4924349,17.318874 c 0,-0.701244 1.1870776,-0.816448 1.173318,0 -0.01376,0.740064 -1.173318,0.727541 -1.173318,0 z" />
		<path id="path51" d="m 5.3599869,19.406329 c 0,-0.701245 1.1870777,-0.816449 1.1720672,0 -0.011258,0.740063 -1.1720672,0.727541 -1.1720672,0 z" />
		<path id="path53" d="m 22.255516,2.0843416 c 0,-0.7024965 1.187078,-0.8164487 1.173318,0 -0.01376,0.7400633 -1.173318,0.727541 -1.173318,0 z" />
		<path id="path55" d="m 4.2654738,2.5276282 c 0,-0.7024965 1.1870777,-0.8164487 1.1720672,0 -0.011258,0.7400632 -1.1720672,0.727541 -1.1720672,0 z" />
		<path id="path57" d="m 5.0109936,0.726933 c 0,-0.70249654 1.1870776,-0.81644874 1.173318,0 -0.012509,0.7400632 -1.173318,0.727541 -1.173318,0 z" />
		<path id="path59" d="m 1.0607395,4.1705435 c 0,-0.7024965 1.1870776,-0.8164487 1.1720672,0 -0.012509,0.7400632 -1.1720672,0.727541 -1.1720672,0 z" />
		<path id="path61" d="m 2.1289843,2.3973971 c 0,-0.7024965 1.1870776,-0.8164487 1.173318,0 -0.01376,0.7400633 -1.173318,0.727541 -1.173318,0 z" />
		<path id="path63" d="m 7.2362951,6.8841086 c 0,-0.7012443 1.1870776,-0.8164488 1.173318,0 -0.012509,0.7400632 -1.173318,0.727541 -1.173318,0 z" />
		<path id="path65" d="m 4.0052924,9.8055425 c 0,-0.7024965 1.1870777,-0.8164487 1.1720672,0 -0.012509,0.7400635 -1.1720672,0.7275405 -1.1720672,0 z" />
		<path id="path67" d="m 5.4650602,11.476007 c 0,-0.701245 1.1870776,-0.816449 1.1720671,0 -0.012509,0.740063 -1.1720671,0.727541 -1.1720671,0 z" />
		<path id="path69" d="m 3.1709608,11.683875 c 0,-0.702496 1.1870776,-0.816448 1.1720671,0 -0.011258,0.740064 -1.1720671,0.727541 -1.1720671,0 z" />
		<path id="path71" d="m 2.4417023,13.667395 c 0,-0.701244 1.1870776,-0.816449 1.1720672,0 -0.012509,0.740063 -1.1720672,0.727541 -1.1720672,0 z" />
		<path id="path73" d="m 5.7777782,17.21494 c 0,-0.701244 1.1870776,-0.816449 1.1720672,0 -0.012509,0.740063 -1.1720672,0.727541 -1.1720672,0 z" />
		<path id="path75" d="m 1.7199491,18.154107 c 0,-0.701245 1.1870776,-0.816449 1.173318,0 -0.013759,0.740063 -1.173318,0.727541 -1.173318,0 z" />
		<path id="path77" d="m 3.4924349,19.719384 c 0,-0.701244 1.1870776,-0.816449 1.173318,0 -0.01376,0.740063 -1.173318,0.727541 -1.173318,0 z" />
		<path id="path79" d="m 1.8237715,20.449429 c 0,-0.701244 1.1870776,-0.816448 1.173318,0 -0.012509,0.740064 -1.173318,0.727541 -1.173318,0 z" />
		<path id="path81" d="m 2.4417023,22.640818 c 0,-0.701244 1.1870776,-0.816449 1.1720672,0 -0.012509,0.740063 -1.1720672,0.727541 -1.1720672,0 z" />
		<path id="path83" d="m 3.1709608,24.624338 c 0,-0.701245 1.1870776,-0.816449 1.1720671,0 -0.011258,0.740063 -1.1720671,0.727541 -1.1720671,0 z" />
		<path id="path85" d="m 4.0052924,26.606605 c 0,-0.701244 1.1870777,-0.816449 1.1720672,0 -0.012509,0.740063 -1.1720672,0.727541 -1.1720672,0 z" />
		<path id="path87" d="m 4.9434465,28.588872 c 0,-0.701244 1.1870776,-0.816448 1.1720672,0 -0.012509,0.740064 -1.1720672,0.727541 -1.1720672,0 z" />
		<path id="path89" d="m 6.4032143,30.15415 c 0,-0.701244 1.1870776,-0.816449 1.173318,0 -0.01376,0.740063 -1.173318,0.727541 -1.173318,0 z" />
		<path id="path91" d="m 7.6540864,18.050172 c 0,-0.701244 1.1870776,-0.816449 1.173318,0 -0.01376,0.740063 -1.173318,0.727541 -1.173318,0 z" />
		<path id="path93" d="m 3.7526163,4.213119 c 0,-0.7024965 1.1870776,-0.8164487 1.1720671,0 -0.012509,0.7400633 -1.1720671,0.727541 -1.1720671,0 z" />
		<path id="path95" d="m 2.4316953,5.5016555 c 0,-0.7024966 1.1870777,-0.8164488 1.1733181,0 -0.01376,0.7400632 -1.1733181,0.727541 -1.1733181,0 z" />
		<path id="path97" d="m 0.44030696,7.8495717 c 0,-0.7024965 1.18707764,-0.8164487 1.17331804,0 -0.01376,0.7400632 -1.17331804,0.727541 -1.17331804,0 z" />
		<path id="path99" d="m 0.08631015,9.8844325 c 0,-0.7024966 1.18707765,-0.8164488 1.17206715,0 -0.012509,0.7400635 -1.17206715,0.7275405 -1.17206715,0 z" />
		<path id="path101" d="m 27.850667,38.502714 c 0,-0.702496 1.187078,-0.816449 1.173318,0 -0.01376,0.740063 -1.173318,0.727541 -1.173318,0 z" />
		<path id="path103" d="m 28.214671,36.624381 c 0,-0.702496 1.187078,-0.816449 1.173318,0 -0.01376,0.740063 -1.173318,0.727541 -1.173318,0 z" />
		<path id="path105" d="m 29.64817,38.711835 c 0,-0.702496 1.187078,-0.816449 1.173319,0 -0.01376,0.740063 -1.173319,0.727541 -1.173319,0 z" />
		<path id="path107" d="m 32.046092,38.919704 c 0,-0.702497 1.187078,-0.816449 1.172067,0 -0.01251,0.741315 -1.172067,0.727541 -1.172067,0 z" />
		<path id="path109" d="m 33.9224,39.572112 c 0,-0.702497 1.187078,-0.816449 1.173318,0 -0.01376,0.740063 -1.173318,0.727541 -1.173318,0 z" />
		<path id="path111" d="m 36.43165,39.781233 c 0,-0.702497 1.187078,-0.816449 1.172067,0 -0.01251,0.740063 -1.172067,0.727541 -1.172067,0 z" />
		<path id="path113" d="m 30.386185,35.685215 c 0,-0.702497 1.187078,-0.816449 1.172067,0 -0.01251,0.740063 -1.172067,0.727541 -1.172067,0 z" />
		<path id="path115" d="m 28.509877,34.746048 c 0,-0.702496 1.187078,-0.816449 1.173318,0 -0.01376,0.740063 -1.173318,0.727541 -1.173318,0 z" />
		<path id="path117" d="m 30.79522,33.910816 c 0,-0.702497 1.187078,-0.816449 1.172067,0 -0.01251,0.741315 -1.172067,0.727541 -1.172067,0 z" />
		<path id="path119" d="m 32.35881,32.345539 c 0,-0.702497 1.187078,-0.816449 1.172067,0 -0.01251,0.741315 -1.172067,0.72754 -1.172067,0 z" />
		<path id="path121" d="m 32.879173,30.363271 c 0,-0.701244 1.187078,-0.816449 1.172067,0 -0.01126,0.740063 -1.172067,0.727541 -1.172067,0 z" />
		<path id="path123" d="m 33.191891,28.171883 c 0,-0.701245 1.187078,-0.816449 1.172067,0 -0.01126,0.740063 -1.172067,0.727541 -1.172067,0 z" />
		<path id="path125" d="m 33.609682,26.189615 c 0,-0.701244 1.187078,-0.816449 1.172068,0 -0.01251,0.740063 -1.172068,0.727541 -1.172068,0 z" />
		<path id="path127" d="m 33.9224,24.102161 c 0,-0.701244 1.187078,-0.816449 1.173318,0 -0.01376,0.740063 -1.173318,0.727541 -1.173318,0 z" />
		<path id="path129" d="m 34.235118,22.014707 c 0,-0.701244 1.187078,-0.816449 1.172068,0 -0.01251,0.740063 -1.172068,0.727541 -1.172068,0 z" />
		<path id="path131" d="m 32.575211,21.597717 c 0,-0.701244 1.187078,-0.816449 1.172067,0 -0.01251,0.740063 -1.172067,0.727541 -1.172067,0 z" />
		<path id="path133" d="m 31.949775,23.789106 c 0,-0.701245 1.187078,-0.816449 1.172067,0 -0.01251,0.740063 -1.172067,0.727541 -1.172067,0 z" />
		<path id="path135" d="m 31.628301,25.771373 c 0,-0.701244 1.187078,-0.816449 1.172067,0 -0.01126,0.740063 -1.172067,0.727541 -1.172067,0 z" />
		<path id="path137" d="m 31.420656,27.858827 c 0,-0.701244 1.187078,-0.816449 1.173318,0 -0.01376,0.740063 -1.173318,0.727541 -1.173318,0 z" />
		<path id="path139" d="m 30.802725,29.528039 c 0,-0.701244 1.187078,-0.816449 1.172068,0 -0.01251,0.740063 -1.172068,0.727541 -1.172068,0 z" />
		<path id="path141" d="m 30.490007,31.719428 c 0,-0.701245 1.187078,-0.816449 1.173318,0 -0.01376,0.741315 -1.173318,0.72754 -1.173318,0 z" />
		<path id="path143" d="m 35.199541,19.875912 c 0,-0.701244 1.187077,-0.816449 1.172067,0 -0.01251,0.740063 -1.172067,0.727541 -1.172067,0 z" />
		<path id="path145" d="m 37.198434,19.432625 c 0,-0.701244 1.187078,-0.816449 1.172068,0 -0.01251,0.740063 -1.172068,0.727541 -1.172068,0 z" />
		<path id="path147" d="m 39.246112,18.989339 c 0,-0.701245 1.187078,-0.816449 1.173318,0 -0.01376,0.740063 -1.173318,0.727541 -1.173318,0 z" />
		<path id="path149" d="m 38.300453,17.267533 c 0,-0.701244 1.187077,-0.816448 1.172067,0 -0.01251,0.740064 -1.172067,0.727541 -1.172067,0 z" />
		<path id="path151" d="m 36.405382,17.893644 c 0,-0.701244 1.187077,-0.816448 1.172067,0 -0.01126,0.740064 -1.172067,0.727541 -1.172067,0 z" />
		<path id="path153" d="m 38.925889,15.545728 c 0,-0.701244 1.187077,-0.816449 1.173318,0 -0.01376,0.740063 -1.173318,0.727541 -1.173318,0 z" />
		<path id="path155" d="m 38.699481,13.797626 c 0,-0.701244 1.187078,-0.816449 1.172067,0 -0.01251,0.740063 -1.172067,0.727541 -1.172067,0 z" />
		<path id="path157" d="m 23.081092,41.946325 c 0,-0.702497 1.187078,-0.816449 1.172067,0 -0.01251,0.740063 -1.172067,0.727541 -1.172067,0 z" />
		<path id="path159" d="m 24.9574,41.111092 c 0,-0.702496 1.187078,-0.816448 1.172067,0 -0.01251,0.740064 -1.172067,0.727541 -1.172067,0 z" />
		<path id="path161" d="m 27.09389,40.641509 c 0,-0.702496 1.187077,-0.816448 1.172067,0 -0.01126,0.741316 -1.172067,0.727541 -1.172067,0 z" />
		<path id="path163" d="m 29.022734,40.590168 c 0,-0.702496 1.187078,-0.816449 1.172068,0 -0.01251,0.740063 -1.172068,0.727541 -1.172068,0 z" />
		<path id="path165" d="m 31.428161,40.590168 c 0,-0.702496 1.187078,-0.816449 1.172068,0 -0.01251,0.740063 -1.172068,0.727541 -1.172068,0 z" />
		<path id="path167" d="m 33.427055,41.26762 c 0,-0.702496 1.187078,-0.816448 1.172067,0 -0.01251,0.740063 -1.172067,0.727541 -1.172067,0 z" />
		<path id="path169" d="m 38.074045,42.208039 c 0,-0.702497 1.187078,-0.816449 1.172067,0 -0.01251,0.738811 -1.172067,0.726289 -1.172067,0 z" />
		<path id="path171" d="m 38.620676,40.407344 c 0,-0.702497 1.187078,-0.816449 1.172067,0 -0.01251,0.740063 -1.172067,0.727541 -1.172067,0 z" />
		<path id="path173" d="m 35.806214,41.503038 c 0,-0.702497 1.187077,-0.816449 1.172067,0 -0.01251,0.740063 -1.172067,0.727541 -1.172067,0 z" />
		<path id="path175" d="m 33.695993,43.303733 c 0,-0.702496 1.187077,-0.816449 1.172067,0 -0.01251,0.738811 -1.172067,0.726289 -1.172067,0 z" />
		<path id="path177" d="m 31.663325,44.2429 c 0,-0.702497 1.187078,-0.816449 1.172068,0 -0.01251,0.738811 -1.172068,0.726288 -1.172068,0 z" />
		<path id="path179" d="m 32.332542,45.702991 c 0,-0.702497 1.187078,-0.816449 1.172067,0 -0.01251,0.740063 -1.172067,0.727541 -1.172067,0 z" />
		<path id="path181" d="m 27.198963,43.198547 c 0,-0.702497 1.187078,-0.816449 1.173318,0 -0.01376,0.740063 -1.173318,0.727541 -1.173318,0 z" />
		<path id="path183" d="m 25.173801,43.198547 c 0,-0.702497 1.187078,-0.816449 1.172067,0 -0.01251,0.740063 -1.172067,0.727541 -1.172067,0 z" />
		<path id="path185" d="m 25.486519,45.22339 c 0,-0.702497 1.187078,-0.816449 1.173318,0 -0.01376,0.740063 -1.173318,0.727541 -1.173318,0 z" />
		<path id="path187" d="m 23.19367,43.824658 c 0,-0.702497 1.187078,-0.816449 1.172068,0 -0.01251,0.740063 -1.172068,0.727541 -1.172068,0 z" />
		<path id="path189" d="m 26.667342,47.571306 c 0,-0.701245 1.187078,-0.816449 1.173318,0 -0.01376,0.740063 -1.173318,0.727541 -1.173318,0 z" />
		<path id="path191" d="m 29.152825,42.859194 c 0,-0.701244 1.187078,-0.816448 1.172067,0 -0.01251,0.740064 -1.172067,0.727541 -1.172067,0 z" />
		<path id="path193" d="m 0.06129271,27.41554 c 0,-0.701244 1.18707759,-0.816448 1.17331799,0 -0.01376,0.740064 -1.17331799,0.727541 -1.17331799,0 z" />
		<path id="path195" d="m 0.78930027,29.293873 c 0,-0.701244 1.18707763,-0.816448 1.17331803,0 -0.012509,0.740064 -1.17331803,0.727541 -1.17331803,0 z" />
		<path id="path197" d="m 1.8838134,30.936789 c 0,-0.701245 1.1870776,-0.816449 1.173318,0 -0.012509,0.741315 -1.173318,0.727541 -1.173318,0 z" />
		<path id="path199" d="m 3.2910445,32.580956 c 0,-0.702496 1.1870776,-0.816449 1.173318,0 -0.012509,0.740063 -1.173318,0.727541 -1.173318,0 z" />
		<path id="path201" d="m 4.6982756,33.833178 c 0,-0.702496 1.1870776,-0.816449 1.173318,0 -0.012509,0.740063 -1.173318,0.727541 -1.173318,0 z" />
		<path id="path203" d="m 6.2618657,34.928872 c 0,-0.702496 1.1870776,-0.816448 1.173318,0 -0.012509,0.740064 -1.173318,0.727541 -1.173318,0 z" />
		<path id="path205" d="m 4.0728395,36.024567 c 0,-0.702497 1.1870777,-0.816449 1.1720672,0 -0.011258,0.740063 -1.1720672,0.727541 -1.1720672,0 z" />
		<path id="path207" d="m 2.5092494,34.459289 c 0,-0.702496 1.1870776,-0.816449 1.173318,0 -0.012509,0.740063 -1.173318,0.727541 -1.173318,0 z" />
		<path id="path209" d="m 1.3371823,32.580956 c 0,-0.702496 1.1870776,-0.816449 1.1720671,0 -0.012509,0.740063 -1.1720671,0.727541 -1.1720671,0 z" />
		<path id="path211" d="m 0.00750521,30.936789 c 0,-0.701245 1.18707759,-0.816449 1.17331799,0 -0.012509,0.741315 -1.17331799,0.727541 -1.17331799,0 z" />
		<path id="path213" d="m 21.204784,43.198547 c 0,-0.702497 1.187077,-0.816449 1.172067,0 -0.01251,0.740063 -1.172067,0.727541 -1.172067,0 z" />
		<path id="path215" d="m 24.331964,32.032483 c 0,-0.701244 1.187078,-0.816449 1.172067,0 -0.01251,0.741315 -1.172067,0.727541 -1.172067,0 z" />
		<path id="path217" d="m 22.255516,32.55466 c 0,-0.702497 1.187078,-0.816449 1.173318,0 -0.01376,0.740063 -1.173318,0.727541 -1.173318,0 z" />
		<path id="path219" d="m 20.379208,33.59776 c 0,-0.702496 1.187078,-0.816448 1.172067,0 -0.01251,0.741316 -1.172067,0.727541 -1.172067,0 z" />
		<path id="path221" d="m 18.606722,34.642114 c 0,-0.702497 1.187078,-0.816449 1.172068,0 -0.01251,0.740063 -1.172068,0.727541 -1.172068,0 z" />
		<path id="path223" d="m 17.55599,32.971649 c 0,-0.702496 1.187078,-0.816448 1.172067,0 -0.01126,0.741316 -1.172067,0.727541 -1.172067,0 z" />
		<path id="path225" d="m 20.691926,31.093316 c 0,-0.701244 1.187078,-0.816448 1.172067,0 -0.01251,0.741316 -1.172067,0.727541 -1.172067,0 z" />
		<path id="path227" d="m 22.672057,30.780261 c 0,-0.701244 1.187077,-0.816449 1.172067,0 -0.01251,0.741315 -1.172067,0.727541 -1.172067,0 z" />
		<path id="path229" d="m 24.548365,29.73716 c 0,-0.701244 1.187078,-0.816449 1.172067,0 -0.01251,0.740063 -1.172067,0.727541 -1.172067,0 z" />
		<path id="path231" d="m 26.529746,29.424105 c 0,-0.701245 1.187078,-0.816449 1.172068,0 -0.01251,0.740063 -1.172068,0.727541 -1.172068,0 z" />
		<path id="path233" d="m 18.91944,31.824614 c 0,-0.702496 1.187078,-0.816449 1.172068,0 -0.01251,0.740063 -1.172068,0.727541 -1.172068,0 z" />
		<path id="path235" d="m 17.252028,35.894336 c 0,-0.702497 1.187078,-0.816449 1.173318,0 -0.01376,0.740063 -1.173318,0.727541 -1.173318,0 z" />
		<path id="path237" d="m 15.897333,34.329058 c 0,-0.702496 1.187078,-0.816449 1.172068,0 -0.01251,0.740063 -1.172068,0.727541 -1.172068,0 z" />
		<path id="path239" d="m 16.001156,36.937437 c 0,-0.702497 1.187078,-0.816449 1.173318,0 -0.01376,0.740063 -1.173318,0.727541 -1.173318,0 z" />
		<path id="path241" d="m 14.533883,35.58128 c 0,-0.702496 1.187078,-0.816449 1.172067,0 -0.01251,0.740063 -1.172067,0.727541 -1.172067,0 z" />
		<path id="path243" d="m 23.915424,38.919704 c 0,-0.702497 1.187077,-0.816449 1.173318,0 -0.01376,0.741315 -1.173318,0.727541 -1.173318,0 z" />
		<path id="path245" d="m 25.791732,38.502714 c 0,-0.702496 1.187077,-0.816449 1.172067,0 -0.01251,0.740063 -1.172067,0.727541 -1.172067,0 z" />
		<path id="path247" d="m 26.208272,31.615493 c 0,-0.701244 1.187078,-0.816449 1.172067,0 -0.01251,0.740063 -1.172067,0.727541 -1.172067,0 z" />
		<path id="path249" d="m 28.918912,32.763781 c 0,-0.702497 1.187078,-0.816449 1.173318,0 -0.01376,0.740063 -1.173318,0.727541 -1.173318,0 z" />
		<path id="path251" d="m 39.871548,11.789062 c 0,-0.701244 1.187078,-0.816449 1.172067,0 -0.01251,0.740063 -1.172067,0.727541 -1.172067,0 z" />
		<path id="path253" d="m 27.980758,30.780261 c 0,-0.701244 1.187078,-0.816449 1.172067,0 -0.01251,0.741315 -1.172067,0.727541 -1.172067,0 z" />
		<path id="path255" d="m 26.633569,33.702947 c 0,-0.702496 1.187077,-0.816449 1.172067,0 -0.01251,0.740063 -1.172067,0.727541 -1.172067,0 z" />
		<path id="path257" d="m 24.548365,34.223872 c 0,-0.702497 1.187078,-0.816449 1.172067,0 -0.01251,0.741315 -1.172067,0.72754 -1.172067,0 z" />
		<path id="path259" d="m 22.672057,34.746048 c 0,-0.702496 1.187077,-0.816449 1.172067,0 -0.01251,0.740063 -1.172067,0.727541 -1.172067,0 z" />
		<path id="path261" d="m 21.100961,35.685215 c 0,-0.702497 1.187078,-0.816449 1.172068,0 -0.01251,0.740063 -1.172068,0.727541 -1.172068,0 z" />
		<path id="path263" d="m 19.441054,36.833502 c 0,-0.702496 1.187078,-0.816449 1.172067,0 -0.01251,0.740063 -1.172067,0.727541 -1.172067,0 z" />
		<path id="path265" d="m 17.877464,37.980537 c 0,-0.702496 1.187078,-0.816448 1.172067,0 -0.01251,0.741316 -1.172067,0.727541 -1.172067,0 z" />
		<path id="path267" d="m 16.514013,39.441881 c 0,-0.702497 1.187078,-0.816449 1.172068,0 -0.01251,0.740063 -1.172068,0.727541 -1.172068,0 z" />
		<path id="path269" d="m 14.959179,40.694103 c 0,-0.702497 1.187078,-0.816449 1.172068,0 -0.01251,0.740063 -1.172068,0.727541 -1.172068,0 z" />
		<path id="path271" d="m 14.750284,38.293593 c 0,-0.702497 1.187077,-0.816449 1.173318,0 -0.01376,0.741315 -1.173318,0.727541 -1.173318,0 z" />
		<path id="path273" d="m 13.08162,37.250492 c 0,-0.702496 1.187078,-0.816449 1.173318,0 -0.01251,0.740063 -1.173318,0.727541 -1.173318,0 z" />
		<path id="path275" d="m 13.074115,39.128825 c 0,-0.702496 1.187078,-0.816449 1.172067,0 -0.01251,0.740063 -1.172067,0.727541 -1.172067,0 z" />
		<path id="path277" d="m 2.2678311,36.884843 c 0,-0.702496 1.1870776,-0.816448 1.1720672,0 -0.012509,0.741316 -1.1720672,0.727541 -1.1720672,0 z" />
		<path id="path279" d="m 0.86059998,35.398456 c 0,-0.702497 1.18707762,-0.816449 1.17206712,0 -0.012509,0.740063 -1.17206712,0.727541 -1.17206712,0 z" />
		<path id="path281" d="m 0.06129271,33.754288 c 0,-0.702496 1.18707759,-0.816448 1.17331799,0 -0.01376,0.741316 -1.17331799,0.727541 -1.17331799,0 z" />
		<path id="path283" d="m 38.204136,12.206052 c 0,-0.701244 1.187077,-0.816449 1.172067,0 -0.01251,0.740063 -1.172067,0.727541 -1.172067,0 z" />
		<path id="path285" d="m 36.631789,13.145219 c 0,-0.701245 1.187078,-0.816449 1.172068,0 -0.01126,0.740063 -1.172068,0.727541 -1.172068,0 z" />
		<path id="path287" d="m 34.973133,13.980451 c 0,-0.701245 1.187078,-0.816449 1.172067,0 -0.01251,0.740063 -1.172067,0.727541 -1.172067,0 z" />
		<path id="path289" d="m 33.9224,15.336607 c 0,-0.701244 1.187078,-0.816449 1.173318,0 -0.01376,0.740063 -1.173318,0.727541 -1.173318,0 z" />
		<path id="path291" d="m 32.158671,16.588829 c 0,-0.701244 1.187077,-0.816449 1.172067,0 -0.01251,0.740063 -1.172067,0.727541 -1.172067,0 z" />
		<path id="path293" d="m 31.315583,18.571097 c 0,-0.701245 1.187078,-0.816449 1.172067,0 -0.01126,0.740063 -1.172067,0.72754 -1.172067,0 z" />
		<path id="path295" d="m 31.002865,20.449429 c 0,-0.701244 1.187078,-0.816448 1.173318,0 -0.01251,0.740064 -1.173318,0.727541 -1.173318,0 z" />
		<path id="path297" d="m 30.586325,22.640818 c 0,-0.701244 1.187077,-0.816449 1.172067,0 -0.01251,0.740063 -1.172067,0.727541 -1.172067,0 z" />
		<path id="path299" d="m 29.751993,24.832207 c 0,-0.701245 1.187078,-0.816449 1.173318,0 -0.01251,0.740063 -1.173318,0.72754 -1.173318,0 z" />
		<path id="path301" d="m 29.439275,26.919661 c 0,-0.701245 1.187077,-0.816449 1.172067,0 -0.01126,0.740063 -1.172067,0.727541 -1.172067,0 z" />
		<path id="path303" d="m 28.918912,28.797994 c 0,-0.701245 1.187078,-0.816449 1.173318,0 -0.01376,0.740063 -1.173318,0.727541 -1.173318,0 z" />
		<path id="path305" d="m 27.155182,27.545772 c 0,-0.701245 1.187078,-0.816449 1.172068,0 -0.01251,0.740063 -1.172068,0.727541 -1.172068,0 z" />
		<path id="path307" d="m 28.08458,25.667439 c 0,-0.701245 1.187078,-0.816449 1.172068,0 -0.01251,0.740063 -1.172068,0.727541 -1.172068,0 z" />
		<path id="path309" d="m 27.66804,23.579985 c 0,-0.701245 1.187078,-0.816449 1.173318,0 -0.01376,0.740063 -1.173318,0.72754 -1.173318,0 z" />
		<path id="path311" d="m 28.813839,22.014707 c 0,-0.701244 1.187077,-0.816449 1.172067,0 -0.01126,0.740063 -1.172067,0.727541 -1.172067,0 z" />
		<path id="path313" d="m 29.031491,19.928505 c 0,-0.701244 1.187077,-0.816449 1.172067,0 -0.01251,0.740063 -1.172067,0.727541 -1.172067,0 z" />
		<path id="path315" d="m 29.751993,17.63193 c 0,-0.701244 1.187078,-0.816449 1.173318,0 -0.01251,0.740063 -1.173318,0.727541 -1.173318,0 z" />
		<path id="path317" d="m 27.66804,16.79795 c 0,-0.701244 1.187078,-0.816449 1.173318,0 -0.01376,0.740063 -1.173318,0.727541 -1.173318,0 z" />
		<path id="path319" d="m 25.590341,16.484895 c 0,-0.701245 1.187078,-0.816449 1.173318,0 -0.01251,0.740063 -1.173318,0.727541 -1.173318,0 z" />
		<path id="path321" d="m 23.715284,17.005819 c 0,-0.701244 1.187078,-0.816449 1.172067,0 -0.01251,0.740063 -1.172067,0.727541 -1.172067,0 z" />
		<path id="path323" d="m 21.942798,17.841051 c 0,-0.701244 1.187078,-0.816449 1.172068,0 -0.01251,0.740063 -1.172068,0.727541 -1.172068,0 z" />
		<path id="path325" d="m 20.483031,17.084709 c 0,-0.701244 1.187077,-0.816449 1.173318,0 -0.01376,0.740063 -1.173318,0.727541 -1.173318,0 z" />
		<path id="path327" d="m 19.232159,44.346834 c 0,-0.701244 1.187077,-0.816449 1.173318,0 -0.01376,0.740063 -1.173318,0.727541 -1.173318,0 z" />
		<path id="path329" d="m 16.826731,2.1619794 c 0,-0.7024965 1.187078,-0.8164487 1.172068,0 -0.01251,0.7400632 -1.172068,0.727541 -1.172068,0 z" />
		<path id="path331" d="m 14.637705,5.10971 c 0,-0.7024965 1.187078,-0.8164487 1.173318,0 -0.01376,0.7400632 -1.173318,0.727541 -1.173318,0 z" />
		<path id="path333" d="m 8.3658326,35.711511 c 0,-0.702496 1.1870776,-0.816449 1.1720671,0 -0.012509,0.740063 -1.1720671,0.727541 -1.1720671,0 z" />
		<path id="path335" d="m 9.2251817,37.276789 c 0,-0.702497 1.1870773,-0.816449 1.1733183,0 -0.01376,0.740063 -1.1733183,0.727541 -1.1733183,0 z" />
		<path id="path337" d="m 11.180295,37.510954 c 0,-0.702496 1.187077,-0.816448 1.172067,0 -0.01251,0.741316 -1.172067,0.727541 -1.172067,0 z" />
		<path id="path339" d="m 11.257849,39.076232 c 0,-0.702497 1.187078,-0.816449 1.172067,0 -0.01251,0.741315 -1.172067,0.727541 -1.172067,0 z" />
		<path id="path341" d="m 9.3815407,39.232759 c 0,-0.702496 1.1870773,-0.816448 1.1720673,0 -0.01251,0.741316 -1.1720673,0.727541 -1.1720673,0 z" />
		<path id="path343" d="m 7.5840375,39.93776 c 0,-0.702496 1.1870776,-0.816448 1.1720672,0 -0.012509,0.740064 -1.1720672,0.727541 -1.1720672,0 z" />
		<path id="path345" d="m 5.7077294,40.954565 c 0,-0.702497 1.1870776,-0.816449 1.173318,0 -0.01376,0.740063 -1.173318,0.727541 -1.173318,0 z" />
		<path id="path347" d="m 3.7526163,42.129149 c 0,-0.702497 1.1870776,-0.816449 1.1720671,0 -0.012509,0.740063 -1.1720671,0.727541 -1.1720671,0 z" />
		<path id="path349" d="m 2.1890262,43.381371 c 0,-0.702497 1.1870776,-0.816449 1.173318,0 -0.01376,0.740063 -1.173318,0.727541 -1.173318,0 z" />
		<path id="path351" d="m 0.15635899,44.320537 c 0,-0.702496 1.18707761,-0.816448 1.17206711,0 -0.012509,0.740064 -1.17206711,0.727541 -1.17206711,0 z" />
		<path id="path353" d="m 28.092086,12.415173 c 0,-0.701244 1.187077,-0.816449 1.173318,0 -0.01251,0.740063 -1.173318,0.727541 -1.173318,0 z" />
		<path id="path355" d="m 25.895554,12.206052 c 0,-0.701244 1.187078,-0.816449 1.173318,0 -0.01376,0.740063 -1.173318,0.727541 -1.173318,0 z" />
		<path id="path357" d="m 23.915424,12.519108 c 0,-0.701245 1.187077,-0.816449 1.173318,0 -0.01376,0.740063 -1.173318,0.727541 -1.173318,0 z" />
		<path id="path359" d="m 12.821439,41.033455 c 0,-0.702497 1.187078,-0.816449 1.172067,0 -0.01251,0.740063 -1.172067,0.727541 -1.172067,0 z" />
		<path id="path361" d="m 10.945131,40.954565 c 0,-0.702497 1.187077,-0.816449 1.173318,0 -0.01376,0.740063 -1.173318,0.727541 -1.173318,0 z" />
		<path id="path363" d="m 9.2251817,41.503038 c 0,-0.702497 1.1870773,-0.816449 1.1733183,0 -0.01376,0.740063 -1.1733183,0.727541 -1.1733183,0 z" />
		<path id="path365" d="m 7.3488736,42.285677 c 0,-0.702497 1.1870776,-0.816449 1.1720671,0 -0.012509,0.740063 -1.1720671,0.727541 -1.1720671,0 z" />
		<path id="path367" d="m 5.3950113,43.381371 c 0,-0.702497 1.1870777,-0.816449 1.1720672,0 -0.012509,0.740063 -1.1720672,0.727541 -1.1720672,0 z" />
		<path id="path369" d="m 3.5187032,44.633593 c 0,-0.702497 1.1870776,-0.816449 1.1720672,0 -0.012509,0.740063 -1.1720672,0.727541 -1.1720672,0 z" />
		<path id="path371" d="m 1.9551131,45.572759 c 0,-0.702496 1.1870776,-0.816448 1.173318,0 -0.01376,0.740064 -1.173318,0.727541 -1.173318,0 z" />
		<path id="path373" d="m 0.46907702,46.589564 c 0,-0.701245 1.18707758,-0.816449 1.17331798,0 -0.01376,0.741315 -1.17331798,0.727541 -1.17331798,0 z" />
		<path id="path375" d="m -2.04e-8,48.192408 c 0,-0.701244 1.1870776204,-0.816449 1.1720671204,0 -0.012509,0.740063 -1.1720671204,0.726289 -1.1720671204,0 z" />
		<path id="path377" d="m 1.3709558,49.407063 c 0,-0.701244 1.1870776,-0.816448 1.1720672,0 -0.012509,0.741316 -1.1720672,0.727541 -1.1720672,0 z" />
		<path id="path379" d="m 2.1114721,47.841786 c 0,-0.701245 1.1870776,-0.816449 1.1720671,0 -0.012509,0.741315 -1.1720671,0.727541 -1.1720671,0 z" />
		<path id="path381" d="m 3.8314212,46.511926 c 0,-0.701244 1.1870776,-0.816449 1.1720672,0 -0.012509,0.740063 -1.1720672,0.727541 -1.1720672,0 z" />
		<path id="path383" d="m 5.6289244,45.572759 c 0,-0.702496 1.1870777,-0.816448 1.1720672,0 -0.012509,0.740064 -1.1720672,0.727541 -1.1720672,0 z" />
		<path id="path385" d="m 4.1091148,49.01637 c 0,-0.701244 1.1870777,-0.816449 1.1720672,0 -0.011258,0.740063 -1.1720672,0.727541 -1.1720672,0 z" />
		<path id="path387" d="m 7.4276785,44.633593 c 0,-0.702497 1.1870776,-0.816449 1.1720672,0 -0.012509,0.740063 -1.1720672,0.727541 -1.1720672,0 z" />
		<path id="path389" d="m 9.3039867,43.616789 c 0,-0.702497 1.1870773,-0.816449 1.1720673,0 -0.01251,0.738811 -1.1720673,0.726288 -1.1720673,0 z" />
		<path id="path391" d="m 11.493013,42.598732 c 0,-0.702496 1.187077,-0.816449 1.172067,0 -0.01251,0.740063 -1.172067,0.727541 -1.172067,0 z" />
		<path id="path393" d="m 13.682039,42.83415 c 0,-0.702497 1.187078,-0.816449 1.172067,0 -0.01251,0.738811 -1.172067,0.726289 -1.172067,0 z" />
		<path id="path395" d="m 15.558347,42.598732 c 0,-0.702496 1.187078,-0.816449 1.172067,0 -0.01251,0.740063 -1.172067,0.727541 -1.172067,0 z" />
		<path id="path397" d="m 17.278296,41.4254 c 0,-0.702496 1.187078,-0.816449 1.172067,0 -0.01251,0.738811 -1.172067,0.726289 -1.172067,0 z" />
		<path id="path399" d="m 18.763081,40.094288 c 0,-0.702496 1.187078,-0.816449 1.172068,0 -0.01251,0.740063 -1.172068,0.727541 -1.172068,0 z" />
		<path id="path401" d="m 20.249118,38.842066 c 0,-0.702496 1.187077,-0.816449 1.172067,0 -0.01251,0.740063 -1.172067,0.727541 -1.172067,0 z" />
		<path id="path403" d="m 21.656349,37.667482 c 0,-0.702497 1.187077,-0.816449 1.172067,0 -0.01251,0.741315 -1.172067,0.727541 -1.172067,0 z" />
		<path id="path405" d="m 23.297493,36.650678 c 0,-0.702497 1.187077,-0.816449 1.172067,0 -0.01251,0.740063 -1.172067,0.727541 -1.172067,0 z" />
		<path id="path407" d="m 25.017442,36.258732 c 0,-0.702496 1.187078,-0.816448 1.172067,0 -0.01251,0.741316 -1.172067,0.727541 -1.172067,0 z" />
		<path id="path409" d="m 26.659837,35.554983 c 0,-0.702496 1.187078,-0.816448 1.172067,0 -0.01251,0.740064 -1.172067,0.727541 -1.172067,0 z" />
		<path id="path411" d="m 7.4276785,37.9029 c 0,-0.702497 1.1870776,-0.816449 1.1720672,0 -0.012509,0.740063 -1.1720672,0.727541 -1.1720672,0 z" />
		<path id="path413" d="m 5.6289244,38.919704 c 0,-0.702497 1.1870777,-0.816449 1.1720672,0 -0.012509,0.741315 -1.1720672,0.727541 -1.1720672,0 z" />
		<path id="path415" d="m 3.8314212,39.93776 c 0,-0.702496 1.1870776,-0.816448 1.1720672,0 -0.012509,0.740064 -1.1720672,0.727541 -1.1720672,0 z" />
		<path id="path417" d="m 2.1114721,41.111092 c 0,-0.702496 1.1870776,-0.816448 1.1720671,0 -0.012509,0.740064 -1.1720671,0.727541 -1.1720671,0 z" />
		<path id="path419" d="m 0.15635899,42.051511 c 0,-0.702496 1.18707761,-0.816449 1.17206711,0 -0.012509,0.738811 -1.17206711,0.726289 -1.17206711,0 z" />
		<path id="path421" d="m 17.55599,10.640775 c 0,-0.7012447 1.187078,-0.8164492 1.172067,0 -0.01126,0.740063 -1.172067,0.727541 -1.172067,0 z" />
		<path id="path423" d="m 16.123741,9.6490147 c 0,-0.7024965 1.187078,-0.8164487 1.173318,0 -0.01376,0.7400633 -1.173318,0.7275413 -1.173318,0 z" />
		<path id="path425" d="m 14.194897,9.4674426 c 0,-0.7012444 1.187077,-0.8164488 1.172067,0 -0.01251,0.7400634 -1.172067,0.7275414 -1.172067,0 z" />
		<path id="path427" d="m 12.302327,8.7624416 c 0,-0.7012443 1.187078,-0.8164488 1.172067,0 -0.01126,0.7400632 -1.172067,0.727541 -1.172067,0 z" />
		<path id="path429" d="m 30.273607,13.249153 c 0,-0.701244 1.187077,-0.816449 1.172067,0 -0.01251,0.740063 -1.172067,0.727541 -1.172067,0 z" />
		<path id="path431" d="m 5.9416425,36.650678 c 0,-0.702497 1.1870776,-0.816449 1.173318,0 -0.01376,0.740063 -1.173318,0.727541 -1.173318,0 z" />
		<path id="path433" d="m 3.9877802,37.746372 c 0,-0.702497 1.1870777,-0.816449 1.1720672,0 -0.012509,0.740063 -1.1720672,0.727541 -1.1720672,0 z" />
		<path id="path435" d="m 2.2678311,38.529011 c 0,-0.702497 1.1870776,-0.816449 1.1720672,0 -0.012509,0.740063 -1.1720672,0.727541 -1.1720672,0 z" />
		<path id="path437" d="m 0.15635899,39.545815 c 0,-0.702497 1.18707761,-0.816449 1.17206711,0 -0.012509,0.741315 -1.17206711,0.727541 -1.17206711,0 z" />
		<path id="path439" d="m 25.166296,10.223785 c 0,-0.7024969 1.187077,-0.8164491 1.173318,0 -0.01376,0.740063 -1.173318,0.727541 -1.173318,0 z" />
		<path id="path441" d="m 23.39381,10.53684 c 0,-0.7024964 1.187078,-0.8164486 1.173318,0 -0.01376,0.740063 -1.173318,0.727541 -1.173318,0 z" />
		<path id="path443" d="m 21.308606,10.744709 c 0,-0.702497 1.187078,-0.8164487 1.172067,0 -0.01126,0.740063 -1.172067,0.727541 -1.172067,0 z" />
		<path id="path445" d="m 19.441054,10.640775 c 0,-0.7012447 1.187078,-0.8164492 1.172067,0 -0.01251,0.740063 -1.172067,0.727541 -1.172067,0 z" />
		<path id="path447" d="m 23.141134,8.7887382 c 0,-0.7024965 1.187077,-0.8164487 1.172067,0 -0.01251,0.7400632 -1.172067,0.727541 -1.172067,0 z" />
		<path id="path449" d="m 21.030913,8.3967928 c 0,-0.7024966 1.187077,-0.8164488 1.172067,0 -0.01251,0.7400632 -1.172067,0.7275409 -1.172067,0 z" />
		<path id="path451" d="m 13.708307,6.988043 c 0,-0.7024965 1.187078,-0.8164487 1.172067,0 -0.01251,0.7400632 -1.172067,0.727541 -1.172067,0 z" />
		<path id="path453" d="m 15.479542,7.5102196 c 0,-0.7012443 1.187078,-0.8164488 1.173318,0 -0.01376,0.7400632 -1.173318,0.727541 -1.173318,0 z" />
		<path id="path455" d="m 17.382119,8.2928583 c 0,-0.7012443 1.187077,-0.8164487 1.172067,0 -0.01251,0.7400632 -1.172067,0.727541 -1.172067,0 z" />
		<path id="path457" d="m 19.232159,8.7098483 c 0,-0.7024966 1.187077,-0.8164488 1.173318,0 -0.01376,0.7400632 -1.173318,0.7275409 -1.173318,0 z" />
		<path id="path459" d="m 42.452097,44.477065 c 0,-0.702496 1.187078,-0.816449 1.172067,0 -0.01251,0.740063 -1.172067,0.727541 -1.172067,0 z" />
		<path id="path461" d="m 40.340625,47.685258 c 0,-0.701244 1.187078,-0.816449 1.172067,0 -0.01251,0.741315 -1.172067,0.727541 -1.172067,0 z" />
		<path id="path463" d="m 41.591497,46.19887 c 0,-0.702496 1.187078,-0.816448 1.172067,0 -0.01251,0.740064 -1.172067,0.727541 -1.172067,0 z" />
		<path id="path465" d="m 48.341203,38.137065 c 0,-0.702496 1.187078,-0.816448 1.173318,0 -0.01376,0.741316 -1.173318,0.727541 -1.173318,0 z" />
		<path id="path467" d="m 48.541343,46.26649 c 0,-0.702496 1.187077,-0.816448 1.172067,0 -0.01251,0.740064 -1.172067,0.727541 -1.172067,0 z" />
		<path id="path469" d="m 47.499366,47.685258 c 0,-0.701244 1.187078,-0.816449 1.173318,0 -0.01376,0.741315 -1.173318,0.727541 -1.173318,0 z" />
		<path id="path471" d="m 46.83015,49.250535 c 0,-0.701244 1.187077,-0.816448 1.172067,0 -0.01251,0.741316 -1.172067,0.727541 -1.172067,0 z" />
		<path id="path473" d="m 48.697702,49.39955 c 0,-0.702497 1.187077,-0.816449 1.173318,0 -0.01376,0.740063 -1.173318,0.726289 -1.173318,0 z" />
		<path id="path475" d="m 48.341203,44.477065 c 0,-0.702496 1.187078,-0.816449 1.173318,0 -0.01376,0.740063 -1.173318,0.727541 -1.173318,0 z" />
		<path id="path477" d="m 46.464895,46.042343 c 0,-0.702497 1.187078,-0.816449 1.172067,0 -0.01251,0.740063 -1.172067,0.727541 -1.172067,0 z" />
		<path id="path479" d="m 45.136469,47.451092 c 0,-0.701244 1.187077,-0.816448 1.172067,0 -0.01251,0.740064 -1.172067,0.727541 -1.172067,0 z" />
		<path id="path481" d="m 43.155087,47.685258 c 0,-0.701244 1.187078,-0.816449 1.172068,0 -0.01251,0.741315 -1.172068,0.727541 -1.172068,0 z" />
		<path id="path483" d="m 44.414716,49.021379 c 0,-0.701244 1.187077,-0.816449 1.172067,0 -0.01251,0.740063 -1.172067,0.727541 -1.172067,0 z" />
		<path id="path485" d="m 48.263649,40.250816 c 0,-0.702497 1.187078,-0.816449 1.172067,0 -0.01251,0.740063 -1.172067,0.727541 -1.172067,0 z" />
		<path id="path487" d="m 46.638766,41.26762 c 0,-0.702496 1.187078,-0.816448 1.172067,0 -0.01126,0.740063 -1.172067,0.727541 -1.172067,0 z" />
		<path id="path489" d="m 41.218737,42.990678 c 0,-0.702497 1.187078,-0.816449 1.172068,0 -0.01251,0.738811 -1.172068,0.726288 -1.172068,0 z" />
		<path id="path491" d="m 28.524887,47.335888 c 0,-0.701244 1.187078,-0.816449 1.173318,0 -0.01251,0.740063 -1.173318,0.727541 -1.173318,0 z" />
		<path id="path493" d="m 27.519186,45.103176 c 0,-0.702496 1.187078,-0.816449 1.172067,0 -0.01251,0.740063 -1.172067,0.727541 -1.172067,0 z" />
		<path id="path495" d="m 45.813191,44.033779 c 0,-0.701245 1.187077,-0.816449 1.172067,0 -0.01251,0.740063 -1.172067,0.727541 -1.172067,0 z" />
		<path id="path497" d="m 47.775809,42.791574 c 0,-0.702496 1.187078,-0.816448 1.173318,0 -0.01376,0.740064 -1.173318,0.727541 -1.173318,0 z" />
		<path id="path499" d="m 44.242095,45.729287 c 0,-0.702496 1.187078,-0.816449 1.172067,0 -0.01251,0.740063 -1.172067,0.727541 -1.172067,0 z" />
		<path id="path501" d="m 42.139379,49.094008 c 0,-0.701245 1.187078,-0.816449 1.172067,0 -0.01251,0.741315 -1.172067,0.727541 -1.172067,0 z" />
		<path id="path503" d="m 46.594986,39.155122 c 0,-0.702497 1.187077,-0.816449 1.172067,0 -0.01251,0.740063 -1.172067,0.727541 -1.172067,0 z" />
		<path id="path505" d="m 44.98011,42.155446 c 0,-0.701245 1.187077,-0.816449 1.172067,0 -0.01251,0.740063 -1.172067,0.727541 -1.172067,0 z" />
		<path id="path507" d="m 43.624164,43.094612 c 0,-0.701244 1.187078,-0.816449 1.172068,0 -0.01251,0.740063 -1.172068,0.727541 -1.172068,0 z" />
		<path id="path509" d="m 44.718678,39.702343 c 0,-0.702497 1.187077,-0.816449 1.173318,0 -0.01376,0.741315 -1.173318,0.727541 -1.173318,0 z" />
		<path id="path511" d="m 0.07880492,37.276789 c 0,-0.702497 1.18707758,-0.816449 1.17206718,0 -0.012509,0.740063 -1.17206718,0.727541 -1.17206718,0 z" />
		<path id="path513" d="m 0.20013952,5.8923488 c 0,-0.7024966 1.18707758,-0.8164488 1.17331798,0 -0.012509,0.7400632 -1.17331798,0.7275409 -1.17331798,0 z" />
		<path id="path515" d="m 0.24266917,14.110682 c 0,-0.701245 1.18707763,-0.816449 1.17331803,0 -0.01376,0.740063 -1.17331803,0.727541 -1.17331803,0 z" />
		<path id="path517" d="m 0.00750521,16.30207 c 0,-0.701244 1.18707759,-0.816449 1.17331799,0 -0.012509,0.740063 -1.17331799,0.727541 -1.17331799,0 z" />
		<path id="path519" d="m 0.00750521,18.336931 c 0,-0.701244 1.18707759,-0.816449 1.17206719,0 -0.011258,0.740063 -1.17206719,0.727541 -1.17206719,0 z" />
		<path id="path521" d="m 0.00750521,20.215264 c 0,-0.701244 1.18707759,-0.816449 1.17331799,0 -0.012509,0.740063 -1.17331799,0.727541 -1.17331799,0 z" />
		<path id="path523" d="m 0.32022324,22.171235 c 0,-0.701245 1.18707766,-0.816449 1.17206716,0 -0.011258,0.740063 -1.17206716,0.727541 -1.17206716,0 z" />
		<path id="path525" d="m 0.78930027,24.128458 c 0,-0.701245 1.18707763,-0.816449 1.17331803,0 -0.012509,0.740063 -1.17331803,0.727541 -1.17331803,0 z" />
		<path id="path527" d="m 1.4147363,26.084429 c 0,-0.701245 1.1870776,-0.816449 1.1733181,0 -0.012509,0.740063 -1.1733181,0.72754 -1.1733181,0 z" />
		<path id="path529" d="m 2.1189773,27.806234 c 0,-0.701245 1.1870776,-0.816449 1.173318,0 -0.01376,0.740063 -1.173318,0.727541 -1.173318,0 z" />
		<path id="path531" d="m 2.9783264,29.528039 c 0,-0.701244 1.1870777,-0.816449 1.1733181,0 -0.012509,0.740063 -1.1733181,0.727541 -1.1733181,0 z" />
		<path id="path533" d="m 4.3442788,31.172206 c 0,-0.701244 1.1870776,-0.816448 1.1720671,0 -0.012509,0.740064 -1.1720671,0.727541 -1.1720671,0 z" />
		<path id="path535" d="m 5.7515099,32.345539 c 0,-0.702497 1.1870776,-0.816449 1.173318,0 -0.01376,0.741315 -1.173318,0.72754 -1.173318,0 z" />
		<path id="path537" d="m 7.8617311,33.833178 c 0,-0.702496 1.1870777,-0.816449 1.1720672,0 -0.011258,0.740063 -1.1720672,0.727541 -1.1720672,0 z" />
		<path id="path539" d="m 6.5745837,49.250535 c 0,-0.701244 1.1870777,-0.816448 1.1720672,0 -0.011258,0.741316 -1.1720672,0.727541 -1.1720672,0 z" />
		<path id="path541" d="m 5.5163459,47.841786 c 0,-0.701245 1.1870777,-0.816449 1.1720672,0 -0.011258,0.741315 -1.1720672,0.727541 -1.1720672,0 z" />
		<path id="path543" d="m 8.9199689,49.407063 c 0,-0.701244 1.1870781,-0.816448 1.1733181,0 -0.01251,0.741316 -1.1733181,0.727541 -1.1733181,0 z" />
		<path id="path545" d="m 29.440526,7.602884 c 0.04878,-0.6999921 1.240865,-0.7312976 1.169565,0.082647 -0.06505,0.7363065 -1.220851,0.6423898 -1.169565,-0.082647 z" />
		<path id="path547" d="m 31.107938,9.2720959 c 0.04878,-0.6999921 1.240865,-0.7312976 1.169566,0.082647 -0.06505,0.7375581 -1.220852,0.6423899 -1.169566,-0.082647 z" />
		<path id="path549" d="m 48.281161,13.954154 c 0,-0.701244 1.187078,-0.816449 1.173318,0 -0.01376,0.740063 -1.173318,0.727541 -1.173318,0 z" />
		<path id="path551" d="m 47.853363,16.066653 c 0,-0.701245 1.187078,-0.816449 1.172067,0 -0.01126,0.740063 -1.172067,0.72754 -1.172067,0 z" />
		<path id="path553" d="m 47.853363,17.867348 c 0,-0.701245 1.187078,-0.816449 1.172067,0 -0.01126,0.740063 -1.172067,0.727541 -1.172067,0 z" />
		<path id="path555" d="m 47.853363,20.136374 c 0,-0.701244 1.187078,-0.816449 1.172067,0 -0.01126,0.740063 -1.172067,0.727541 -1.172067,0 z" />
		<path id="path557" d="m 48.244886,22.48429 c 0,-0.701244 1.187078,-0.816448 1.173318,0 -0.01376,0.740063 -1.173318,0.727541 -1.173318,0 z" />
		<path id="path559" d="m 48.827792,24.754569 c 0,-0.701245 1.187078,-0.816449 1.172068,0 -0.01126,0.740063 -1.172068,0.727541 -1.172068,0 z" />
		<path id="path561" d="m 48.713963,28.667762 c 0,-0.701244 1.187078,-0.816448 1.173318,0 -0.01376,0.740064 -1.173318,0.727541 -1.173318,0 z" />
		<path id="path563" d="m 47.775809,26.397484 c 0,-0.701244 1.187078,-0.816449 1.173318,0 -0.01376,0.740063 -1.173318,0.727541 -1.173318,0 z" />
		<path id="path565" d="m 46.994014,23.89304 c 0,-0.701244 1.187078,-0.816449 1.173318,0 -0.01376,0.740063 -1.173318,0.727541 -1.173318,0 z" />
		<path id="path567" d="m 46.368578,21.310958 c 0,-0.701244 1.187077,-0.816449 1.172067,0 -0.01251,0.740063 -1.172067,0.727541 -1.172067,0 z" />
		<path id="path569" d="m 46.05586,18.806514 c 0,-0.701244 1.187077,-0.816449 1.173318,0 -0.01376,0.740063 -1.173318,0.727541 -1.173318,0 z" />
		<path id="path571" d="m 46.212219,16.379708 c 0,-0.701244 1.187077,-0.816449 1.173318,0 -0.01376,0.740063 -1.173318,0.727541 -1.173318,0 z" />
		<path id="path573" d="m 46.482407,14.188319 c 0,-0.701244 1.187078,-0.816448 1.173318,0 -0.01251,0.740064 -1.173318,0.727541 -1.173318,0 z" />
		<path id="path575" d="m 42.373292,12.102118 c 0,-0.701245 1.187078,-0.816449 1.172068,0 -0.01251,0.740063 -1.172068,0.727541 -1.172068,0 z" />
		<path id="path577" d="m 40.888507,13.328043 c 0,-0.701244 1.187078,-0.816449 1.172067,0 -0.01251,0.740063 -1.172067,0.727541 -1.172067,0 z" />
		<path id="path579" d="m 41.044866,15.440542 c 0,-0.701245 1.187078,-0.816449 1.172067,0 -0.01251,0.740063 -1.172067,0.72754 -1.172067,0 z" />
		<path id="path581" d="m 40.340625,17.63193 c 0,-0.701244 1.187078,-0.816449 1.172067,0 -0.01251,0.740063 -1.172067,0.727541 -1.172067,0 z" />
		<path id="path583" d="m 40.575789,20.449429 c 0,-0.701244 1.187078,-0.816448 1.172067,0 -0.01251,0.740064 -1.172067,0.727541 -1.172067,0 z" />
		<path id="path585" d="m 36.224005,21.806838 c 0,-0.701244 1.187078,-0.816449 1.172067,0 -0.01251,0.740063 -1.172067,0.727541 -1.172067,0 z" />
		<path id="path587" d="m 38.307958,21.284662 c 0,-0.701245 1.187078,-0.816449 1.172067,0 -0.01251,0.740063 -1.172067,0.727541 -1.172067,0 z" />
		<path id="path589" d="m 40.888507,22.719708 c 0,-0.701244 1.187078,-0.816449 1.172067,0 -0.01251,0.740063 -1.172067,0.727541 -1.172067,0 z" />
		<path id="path591" d="m 39.446252,23.789106 c 0,-0.701245 1.187077,-0.816449 1.172067,0 -0.01126,0.740063 -1.172067,0.727541 -1.172067,0 z" />
		<path id="path593" d="m 37.369804,23.998227 c 0,-0.701245 1.187078,-0.816449 1.172067,0 -0.01251,0.740063 -1.172067,0.727541 -1.172067,0 z" />
		<path id="path595" d="m 35.702391,24.206095 c 0,-0.701244 1.187078,-0.816448 1.172068,0 -0.01251,0.740064 -1.172068,0.727541 -1.172068,0 z" />
		<path id="path597" d="m 35.589813,26.397484 c 0,-0.701244 1.187078,-0.816449 1.172067,0 -0.01251,0.740063 -1.172067,0.727541 -1.172067,0 z" />
		<path id="path599" d="m 37.882662,26.189615 c 0,-0.701244 1.187077,-0.816449 1.172067,0 -0.01126,0.740063 -1.172067,0.727541 -1.172067,0 z" />
		<path id="path601" d="m 39.864043,25.563504 c 0,-0.701244 1.187078,-0.816449 1.172067,0 -0.01251,0.740063 -1.172067,0.727541 -1.172067,0 z" />
		<path id="path603" d="m 39.55883,27.545772 c 0,-0.701245 1.187078,-0.816449 1.172067,0 -0.01251,0.740063 -1.172067,0.727541 -1.172067,0 z" />
		<path id="path605" d="m 38.413031,29.214984 c 0,-0.701245 1.187078,-0.816449 1.172067,0 -0.01251,0.740063 -1.172067,0.72754 -1.172067,0 z" />
		<path id="path607" d="m 37.257225,27.754893 c 0,-0.701245 1.187078,-0.816449 1.173319,0 -0.01251,0.740063 -1.173319,0.727541 -1.173319,0 z" />
		<path id="path609" d="m 35.173273,28.275817 c 0,-0.701244 1.187077,-0.816449 1.173318,0 -0.01376,0.740063 -1.173318,0.727541 -1.173318,0 z" />
		<path id="path611" d="m 36.527967,30.050216 c 0,-0.701245 1.187078,-0.816449 1.172067,0 -0.01251,0.740063 -1.172067,0.727541 -1.172067,0 z" />
		<path id="path613" d="m 34.755481,30.467206 c 0,-0.701245 1.187078,-0.816449 1.173318,0 -0.01251,0.740063 -1.173318,0.72754 -1.173318,0 z" />
		<path id="path615" d="m 41.278779,24.754569 c 0,-0.701245 1.187078,-0.816449 1.172067,0 -0.01251,0.740063 -1.172067,0.727541 -1.172067,0 z" />
		<path id="path617" d="m 41.747856,26.867067 c 0,-0.701244 1.187078,-0.816448 1.173318,0 -0.01376,0.740063 -1.173318,0.727541 -1.173318,0 z" />
		<path id="path619" d="m 45.110201,12.623042 c 0,-0.701244 1.187077,-0.816449 1.172067,0 -0.01251,0.740063 -1.172067,0.727541 -1.172067,0 z" />
		<path id="path621" d="m 44.40596,14.344847 c 0,-0.701244 1.187077,-0.816448 1.172067,0 -0.01251,0.740063 -1.172067,0.727541 -1.172067,0 z" />
		<path id="path623" d="m 44.40596,16.458598 c 0,-0.701244 1.187077,-0.816449 1.172067,0 -0.01251,0.740063 -1.172067,0.727541 -1.172067,0 z" />
		<path id="path625" d="m 44.40596,18.493459 c 0,-0.701245 1.187077,-0.816449 1.172067,0 -0.01251,0.740063 -1.172067,0.727541 -1.172067,0 z" />
		<path id="path627" d="m 44.718678,20.762485 c 0,-0.701244 1.187077,-0.816449 1.173318,0 -0.01376,0.740063 -1.173318,0.727541 -1.173318,0 z" />
		<path id="path629" d="m 45.031396,22.876236 c 0,-0.701245 1.187077,-0.816449 1.172067,0 -0.01251,0.740063 -1.172067,0.727541 -1.172067,0 z" />
		<path id="path631" d="m 45.735637,25.145262 c 0,-0.701244 1.187077,-0.816449 1.173318,0 -0.01376,0.740063 -1.173318,0.727541 -1.173318,0 z" />
		<path id="path633" d="m 46.361073,27.33665 c 0,-0.701244 1.187077,-0.816448 1.172067,0 -0.01251,0.740064 -1.172067,0.727541 -1.172067,0 z" />
		<path id="path635" d="m 47.455586,29.684567 c 0,-0.701245 1.187077,-0.816449 1.172067,0 -0.01251,0.740063 -1.172067,0.727541 -1.172067,0 z" />
		<path id="path637" d="m 48.550099,31.719428 c 0,-0.701245 1.187077,-0.816449 1.172067,0 -0.01251,0.741315 -1.172067,0.72754 -1.172067,0 z" />
		<path id="path639" d="m 42.608456,13.797626 c 0,-0.701244 1.187078,-0.816449 1.172067,0 -0.01251,0.740063 -1.172067,0.727541 -1.172067,0 z" />
		<path id="path641" d="m 42.68601,15.832487 c 0,-0.701244 1.187078,-0.816449 1.172068,0 -0.01251,0.740063 -1.172068,0.727541 -1.172068,0 z" />
		<path id="path643" d="m 42.373292,17.63193 c 0,-0.701244 1.187078,-0.816449 1.172068,0 -0.01251,0.740063 -1.172068,0.727541 -1.172068,0 z" />
		<path id="path645" d="m 42.452097,19.979846 c 0,-0.701244 1.187078,-0.816448 1.172067,0 -0.01251,0.740063 -1.172067,0.727541 -1.172067,0 z" />
		<path id="path647" d="m 42.842369,22.48429 c 0,-0.701244 1.187078,-0.816448 1.172068,0 -0.01251,0.740063 -1.172068,0.727541 -1.172068,0 z" />
		<path id="path649" d="m 43.54661,24.754569 c 0,-0.701245 1.187078,-0.816449 1.172068,0 -0.01251,0.740063 -1.172068,0.727541 -1.172068,0 z" />
		<path id="path651" d="m 44.172046,26.945957 c 0,-0.701244 1.187078,-0.816449 1.172068,0 -0.01251,0.740063 -1.172068,0.727541 -1.172068,0 z" />
		<path id="path653" d="m 44.953842,29.058456 c 0,-0.701245 1.187077,-0.816449 1.172067,0 -0.01251,0.740063 -1.172067,0.727541 -1.172067,0 z" />
		<path id="path655" d="m 45.813191,31.093316 c 0,-0.701244 1.187077,-0.816448 1.172067,0 -0.01251,0.741316 -1.172067,0.727541 -1.172067,0 z" />
		<path id="path657" d="m 47.064063,33.050539 c 0,-0.702496 1.187077,-0.816448 1.172067,0 -0.01251,0.740064 -1.172067,0.727541 -1.172067,0 z" />
		<path id="path659" d="m 47.220422,36.181094 c 0,-0.702496 1.187077,-0.816448 1.173318,0 -0.01376,0.740064 -1.173318,0.727541 -1.173318,0 z" />
		<path id="path661" d="m 25.382697,7.9272095 c 0,-0.7024965 1.187077,-0.8164487 1.172067,0 -0.01251,0.7400632 -1.172067,0.727541 -1.172067,0 z" />
		<path id="path663" d="m 15.79226,3.5444325 c 0,-0.7024965 1.187078,-0.8164487 1.172067,0 -0.01251,0.7400632 -1.172067,0.727541 -1.172067,0 z" />
		<path id="path665" d="m 21.108467,5.9712387 c 0,-0.7024965 1.187077,-0.8164487 1.172067,0 -0.01251,0.7400632 -1.172067,0.727541 -1.172067,0 z" />
		<path id="path667" d="m 17.452168,4.0666091 c 0,-0.7012443 1.187077,-0.8164488 1.172067,0 -0.01251,0.7400632 -1.172067,0.727541 -1.172067,0 z" />
		<path id="path669" d="m 23.289988,4.7966545 c 0,-0.7024965 1.187077,-0.8164487 1.172067,0 -0.01251,0.7400632 -1.172067,0.727541 -1.172067,0 z" />
		<path id="path671" d="m 18.137645,0.64929524 c 0,-0.70249655 1.187078,-0.81644875 1.172068,0 -0.01251,0.74006316 -1.172068,0.72754096 -1.172068,0 z" />
		<path id="path673" d="m 26.946287,10.118598 c 0,-0.7024965 1.187077,-0.8164487 1.172067,0 -0.01251,0.740063 -1.172067,0.727541 -1.172067,0 z" />
		<path id="path675" d="m 25.278874,5.8410076 c 0,-0.7024965 1.187078,-0.8164487 1.172067,0 -0.01251,0.7400633 -1.172067,0.727541 -1.172067,0 z" />
		<path id="path677" d="m 27.459144,6.1540631 c 0,-0.7024965 1.187078,-0.8164487 1.172067,0 -0.01251,0.7400633 -1.172067,0.727541 -1.172067,0 z" />
		<path id="path679" d="m 23.732796,0.726933 c 0,-0.70249654 1.187078,-0.81644874 1.172067,0 -0.01251,0.7400632 -1.172067,0.727541 -1.172067,0 z" />
		<path id="path681" d="m 25.408965,1.431934 c 0,-0.70249656 1.187078,-0.81644876 1.172067,0 -0.01251,0.7400632 -1.172067,0.727541 -1.172067,0 z" />
		<path id="path683" d="m 26.89375,2.605266 c 0,-0.7024965 1.187078,-0.8164487 1.172067,0 -0.01251,0.7400632 -1.172067,0.727541 -1.172067,0 z" />
		<path id="path685" d="m 28.397298,4.1705435 c 0,-0.7024965 1.187078,-0.8164487 1.173318,0 -0.01376,0.7400632 -1.173318,0.727541 -1.173318,0 z" />
		<path id="path687" d="m 29.439275,5.4227655 c 0,-0.7024965 1.187077,-0.8164487 1.172067,0 -0.01126,0.7400632 -1.172067,0.727541 -1.172067,0 z" />
		<path id="path689" d="m 31.002865,6.5710531 c 0,-0.7012443 1.187078,-0.8164488 1.173318,0 -0.01251,0.7400632 -1.173318,0.727541 -1.173318,0 z" />
		<path id="path691" d="m 32.410096,7.614154 c 0,-0.7024965 1.187078,-0.8164487 1.172067,0 -0.01126,0.7400632 -1.172067,0.727541 -1.172067,0 z" />
		<path id="path693" d="m 33.817327,8.7098483 c 0,-0.7024966 1.187078,-0.8164488 1.172067,0 -0.01126,0.7400632 -1.172067,0.7275409 -1.172067,0 z" />
		<path id="path695" d="m 35.616081,9.571377 c 0,-0.7024966 1.187078,-0.8164488 1.172067,0 -0.01251,0.740063 -1.172067,0.727541 -1.172067,0 z" />
		<path id="path697" d="m 37.162159,10.744709 c 0,-0.702497 1.187078,-0.8164487 1.172067,0 -0.01251,0.740063 -1.172067,0.727541 -1.172067,0 z" />
		<path id="path699" d="m 37.99524,9.0754971 c 0,-0.7012443 1.187078,-0.8164488 1.172067,0 -0.01251,0.7400632 -1.172067,0.727541 -1.172067,0 z" />
		<path id="path701" d="m 39.14229,7.614154 c 0,-0.7024965 1.187077,-0.8164487 1.172067,0 -0.01251,0.7400632 -1.172067,0.727541 -1.172067,0 z" />
		<path id="path703" d="m 35.180778,11.762765 c 0,-0.702496 1.187077,-0.816448 1.172067,0 -0.01251,0.740064 -1.172067,0.727541 -1.172067,0 z" />
		<path id="path705" d="m 33.30447,13.014987 c 0,-0.701244 1.187077,-0.816448 1.172067,0 -0.01251,0.740064 -1.172067,0.727541 -1.172067,0 z" />
		<path id="path707" d="m 32.053598,14.344847 c 0,-0.701244 1.187077,-0.816448 1.172067,0 -0.01251,0.740063 -1.172067,0.727541 -1.172067,0 z" />
		<path id="path709" d="m 15.28941,1.1188785 c 0,-0.70249656 1.187077,-0.81644876 1.172067,0 -0.01251,0.7400632 -1.172067,0.727541 -1.172067,0 z" />
		<path id="path711" d="m 14.116092,2.7617938 c 0,-0.7024966 1.187077,-0.8164488 1.172067,0 -0.01126,0.7400632 -1.172067,0.7275409 -1.172067,0 z" />
		<path id="path713" d="m 12.944024,4.6401267 c 0,-0.7024965 1.187078,-0.8164487 1.172068,0 -0.01251,0.7400633 -1.172068,0.727541 -1.172068,0 z" />
		<path id="path715" d="m 11.650623,6.2842942 c 0,-0.7024965 1.187077,-0.8164487 1.172067,0 -0.01126,0.7400632 -1.172067,0.727541 -1.172067,0 z" />
		<path id="path717" d="m 10.676193,7.9272095 c 0,-0.7024965 1.187078,-0.8164487 1.172068,0 -0.01126,0.7400632 -1.172068,0.727541 -1.172068,0 z" />
		<path id="path719" d="m 9.8531195,9.6490147 c 0,-0.7024965 1.1870775,-0.8164487 1.1720675,0 -0.01251,0.7400633 -1.1720675,0.7275413 -1.1720675,0 z" />
		<path id="path721" d="m 11.570567,10.510543 c 0,-0.7024961 1.187078,-0.8164483 1.172067,0 -0.01251,0.740064 -1.172067,0.727541 -1.172067,0 z" />
		<path id="path723" d="m 11.10149,12.519108 c 0,-0.701245 1.187077,-0.816449 1.172067,0 -0.01251,0.740063 -1.172067,0.727541 -1.172067,0 z" />
		<path id="path725" d="m 15.323183,11.37082 c 0,-0.702497 1.187078,-0.816449 1.172067,0 -0.01251,0.740063 -1.172067,0.727541 -1.172067,0 z" />
		<path id="path727" d="m 13.306777,11.345776 c 0,-0.701245 1.187078,-0.816449 1.172068,0 -0.01251,0.740063 -1.172068,0.726288 -1.172068,0 z" />
		<path id="path729" d="m 22.039116,12.728229 c 0,-0.701245 1.187077,-0.816449 1.172067,0 -0.01251,0.740063 -1.172067,0.727541 -1.172067,0 z" />
		<path id="path731" d="m 20.06649,13.249153 c 0,-0.701244 1.187078,-0.816449 1.172067,0 -0.01251,0.740063 -1.172067,0.727541 -1.172067,0 z" />
		<path id="path733" d="m 18.320273,12.388876 c 0,-0.701244 1.187077,-0.816448 1.173318,0 -0.01376,0.740064 -1.173318,0.727541 -1.173318,0 z" />
		<path id="path735" d="m 16.305118,13.145219 c 0,-0.701245 1.187077,-0.816449 1.172067,0 -0.01126,0.740063 -1.172067,0.727541 -1.172067,0 z" />
		<path id="path737" d="m 14.437566,13.562209 c 0,-0.701245 1.187077,-0.816449 1.172067,0 -0.01251,0.740063 -1.172067,0.72754 -1.172067,0 z" />
		<path id="path739" d="m 12.352362,13.458274 c 0,-0.701244 1.187078,-0.816449 1.172067,0 -0.01251,0.740063 -1.172067,0.727541 -1.172067,0 z" />
		<path id="path741" d="m 9.4253213,11.606238 c 0,-0.702497 1.1870777,-0.816449 1.1720667,0 -0.01126,0.740063 -1.1720667,0.727541 -1.1720667,0 z" />
		<path id="path743" d="m 9.5816803,13.797626 c 0,-0.701244 1.1870777,-0.816449 1.1720667,0 -0.01126,0.740063 -1.1720667,0.727541 -1.1720667,0 z" />
		<path id="path745" d="m 10.911357,15.127486 c 0,-0.701244 1.187078,-0.816449 1.172067,0 -0.01251,0.740063 -1.172067,0.727541 -1.172067,0 z" />
		<path id="path747" d="m 12.631306,16.22318 c 0,-0.701244 1.187078,-0.816448 1.172068,0 -0.01251,0.740063 -1.172068,0.727541 -1.172068,0 z" />
		<path id="path749" d="m 14.42881,15.232673 c 0,-0.701245 1.187077,-0.816449 1.172067,0 -0.01126,0.740063 -1.172067,0.727541 -1.172067,0 z" />
		<path id="path751" d="m 16.410191,15.440542 c 0,-0.701245 1.187078,-0.816449 1.173318,0 -0.01376,0.740063 -1.173318,0.72754 -1.173318,0 z" />
		<path id="path753" d="m 18.599217,14.293506 c 0,-0.701244 1.187078,-0.816449 1.172067,0 -0.01251,0.740063 -1.172067,0.727541 -1.172067,0 z" />
		<path id="path755" d="m 30.282363,15.858784 c 0,-0.701245 1.187077,-0.816449 1.172067,0 -0.01251,0.740063 -1.172067,0.727541 -1.172067,0 z" />
		<path id="path757" d="m 28.760051,14.919617 c 0,-0.701244 1.187078,-0.816449 1.172067,0 -0.01251,0.740063 -1.172067,0.727541 -1.172067,0 z" />
		<path id="path759" d="m 26.937531,14.501375 c 0,-0.701244 1.187077,-0.816449 1.172067,0 -0.01126,0.740063 -1.172067,0.727541 -1.172067,0 z" />
		<path id="path761" d="m 24.548365,14.501375 c 0,-0.701244 1.187078,-0.816449 1.172067,0 -0.01251,0.740063 -1.172067,0.727541 -1.172067,0 z" />
		<path id="path763" d="m 22.672057,14.814431 c 0,-0.701245 1.187077,-0.816449 1.172067,0 -0.01251,0.740063 -1.172067,0.72754 -1.172067,0 z" />
		<path id="path765" d="m 21.074693,15.049848 c 0,-0.701244 1.187078,-0.816449 1.172067,0 -0.01251,0.740063 -1.172067,0.727541 -1.172067,0 z" />
		<path id="path767" d="m 19.335981,15.962718 c 0,-0.701244 1.187078,-0.816449 1.173318,0 -0.01251,0.740063 -1.173318,0.727541 -1.173318,0 z" />
		<path id="path769" d="m 17.868708,16.79795 c 0,-0.701244 1.187078,-0.816449 1.172067,0 -0.01126,0.740063 -1.172067,0.727541 -1.172067,0 z" />
		<path id="path771" d="m 16.210052,18.050172 c 0,-0.701244 1.187077,-0.816449 1.172067,0 -0.01251,0.740063 -1.172067,0.727541 -1.172067,0 z" />
		<path id="path773" d="m 14.507615,17.71082 c 0,-0.701244 1.187077,-0.816449 1.173318,0 -0.01376,0.740063 -1.173318,0.727541 -1.173318,0 z" />
		<path id="path775" d="m 32.984246,10.53684 c 0,-0.7024964 1.187078,-0.8164486 1.172068,0 -0.01251,0.740063 -1.172068,0.727541 -1.172068,0 z" />
		<path id="path777" d="m 27.259005,8.0323961 c 0,-0.7024965 1.187077,-0.8164487 1.173318,0 -0.01376,0.7400633 -1.173318,0.727541 -1.173318,0 z" />
		<path id="path779" d="m 31.324339,11.789062 c 0,-0.701244 1.187078,-0.816449 1.172067,0 -0.01251,0.740063 -1.172067,0.727541 -1.172067,0 z" />
		<path id="path781" d="m 29.335452,10.327719 c 0,-0.7012442 1.187078,-0.8164487 1.172068,0 -0.01251,0.740063 -1.172068,0.727541 -1.172068,0 z" />
		<path id="path783" d="m 23.081092,6.6749875 c 0,-0.7024965 1.187078,-0.8164487 1.172067,0 -0.01251,0.7400632 -1.172067,0.727541 -1.172067,0 z" />
		<path id="path785" d="m 18.91944,6.5447564 c 0,-0.7024965 1.187078,-0.8164487 1.172068,0 -0.01251,0.7400632 -1.172068,0.727541 -1.172068,0 z" />
		<path id="path787" d="m 16.886773,5.9712387 c 0,-0.7024965 1.187078,-0.8164487 1.172067,0 -0.01251,0.7400632 -1.172067,0.727541 -1.172067,0 z" />
		<path id="path789" d="m 21.343631,3.936378 c 0,-0.7024966 1.187077,-0.8164488 1.172067,0 -0.01251,0.7400632 -1.172067,0.727541 -1.172067,0 z" />
		<path id="path791" d="m 13.170432,0.726933 c 0,-0.70249654 1.187078,-0.81644874 1.172067,0 -0.01251,0.7400632 -1.172067,0.727541 -1.172067,0 z" />
		<path id="path793" d="m 12.039644,2.2922105 c 0,-0.7024965 1.187078,-0.8164487 1.172067,0 -0.01251,0.7400632 -1.172067,0.727541 -1.172067,0 z" />
		<path id="path795" d="m 19.310963,4.3270713 c 0,-0.7024966 1.187078,-0.8164488 1.172068,0 -0.01251,0.7400632 -1.172068,0.7275409 -1.172068,0 z" />
		<path id="path797" d="m 26.208272,4.2757301 c 0,-0.7024965 1.187078,-0.8164487 1.172067,0 -0.01251,0.7400633 -1.172067,0.727541 -1.172067,0 z" />
		<path id="path799" d="m 24.349476,3.0498048 c 0,-0.7012443 1.187078,-0.8164487 1.172067,0 -0.01126,0.7400632 -1.172067,0.727541 -1.172067,0 z" />
		<path id="path801" d="m 10.319695,1.1188785 c 0,-0.70249656 1.187077,-0.81644876 1.172067,0 -0.01251,0.7400632 -1.172067,0.727541 -1.172067,0 z" />
		<path id="path803" d="m 9.5378997,2.8406837 c 0,-0.7024965 1.1870773,-0.8164487 1.1720673,0 -0.01251,0.7400632 -1.1720673,0.727541 -1.1720673,0 z" />
		<path id="path805" d="m 8.3308082,1.0399885 c 0,-0.70249654 1.1870776,-0.81644874 1.1720671,0 -0.011258,0.7400632 -1.1720671,0.727541 -1.1720671,0 z" />
		<path id="path807" d="m 7.8179506,2.9972115 c 0,-0.7024966 1.1870776,-0.8164488 1.1720672,0 -0.012509,0.7400632 -1.1720672,0.727541 -1.1720672,0 z" />
		<path id="path809" d="m 10.632413,4.4059612 c 0,-0.7024965 1.187077,-0.8164487 1.172067,0 -0.01251,0.7400632 -1.172067,0.727541 -1.172067,0 z" />
		<path id="path811" d="m 9.3815407,6.6749875 c 0,-0.7024965 1.1870773,-0.8164487 1.1720673,0 -0.01251,0.7400632 -1.1720673,0.727541 -1.1720673,0 z" />
		<path id="path813" d="m 8.293282,8.7098483 c 0,-0.7024966 1.1870776,-0.8164488 1.1720672,0 -0.012509,0.7400632 -1.1720672,0.7275409 -1.1720672,0 z" />
		<path id="path815" d="m 7.6615916,11.37082 c 0,-0.702497 1.1870776,-0.816449 1.1720671,0 -0.012509,0.740063 -1.1720671,0.727541 -1.1720671,0 z" />
		<path id="path817" d="m 7.4276785,13.797626 c 0,-0.701244 1.1870776,-0.816449 1.1720672,0 -0.012509,0.740063 -1.1720672,0.727541 -1.1720672,0 z" />
		<path id="path819" d="m 9.3214989,15.858784 c 0,-0.701245 1.1870771,-0.816449 1.1720671,0 -0.01251,0.740063 -1.1720671,0.727541 -1.1720671,0 z" />
		<path id="path821" d="m 7.4689573,16.22318 c 0,-0.701244 1.1870776,-0.816448 1.1720671,0 -0.012509,0.740063 -1.1720671,0.727541 -1.1720671,0 z" />
		<path id="path823" d="m 10.684949,17.318874 c 0,-0.701244 1.187078,-0.816448 1.172068,0 -0.01251,0.740064 -1.172068,0.727541 -1.172068,0 z" />
		<path id="path825" d="m 9.2251817,18.780218 c 0,-0.701245 1.1870773,-0.816449 1.1733183,0 -0.01376,0.740063 -1.1733183,0.727541 -1.1733183,0 z" />
		<path id="path827" d="m 7.3413683,19.823319 c 0,-0.701245 1.1870777,-0.816449 1.1720672,0 -0.012509,0.740063 -1.1720672,0.72754 -1.1720672,0 z" />
		<path id="path829" d="m 9.0613175,20.605957 c 0,-0.701244 1.1870775,-0.816448 1.1720675,0 -0.01251,0.740063 -1.1720675,0.727541 -1.1720675,0 z" />
		<path id="path831" d="m 8.3308082,22.48429 c 0,-0.701244 1.1870776,-0.816448 1.1720671,0 -0.011258,0.740063 -1.1720671,0.727541 -1.1720671,0 z" />
		<path id="path833" d="m 6.298141,21.858179 c 0,-0.701244 1.1870776,-0.816448 1.1720672,0 -0.011258,0.740063 -1.1720672,0.727541 -1.1720672,0 z" />
		<path id="path835" d="m 4.1091148,21.467486 c 0,-0.701244 1.1870777,-0.816449 1.1720672,0 -0.011258,0.740063 -1.1720672,0.727541 -1.1720672,0 z" />
		<path id="path837" d="m 4.7345509,23.502347 c 0,-0.701245 1.1870776,-0.816449 1.173318,0 -0.012509,0.740063 -1.173318,0.727541 -1.173318,0 z" />
		<path id="path839" d="m 6.689664,23.815402 c 0,-0.701244 1.1870776,-0.816449 1.1720671,0 -0.012509,0.740063 -1.1720671,0.727541 -1.1720671,0 z" />
		<path id="path841" d="m 7.5490131,25.614845 c 0,-0.701244 1.1870776,-0.816448 1.1720672,0 -0.011258,0.740063 -1.1720672,0.727541 -1.1720672,0 z" />
		<path id="path843" d="m 5.3599869,25.537207 c 0,-0.701244 1.1870777,-0.816448 1.1720672,0 -0.011258,0.740064 -1.1720672,0.727541 -1.1720672,0 z" />
		<path id="path845" d="m 6.689664,27.728596 c 0,-0.701244 1.1870776,-0.816449 1.1720671,0 -0.012509,0.740063 -1.1720671,0.727541 -1.1720671,0 z" />
		<path id="path847" d="m 9.7380393,33.441233 c 0,-0.702497 1.1870777,-0.816449 1.1733177,0 -0.01251,0.741315 -1.1733177,0.727541 -1.1733177,0 z" />
		<path id="path849" d="m 10.085782,35.398456 c 0,-0.702497 1.187077,-0.816449 1.172067,0 -0.01251,0.740063 -1.172067,0.727541 -1.172067,0 z" />
		<path id="path851" d="m 11.883285,35.398456 c 0,-0.702497 1.187078,-0.816449 1.172067,0 -0.01251,0.740063 -1.172067,0.727541 -1.172067,0 z" />
		<path id="path853" d="m 13.603234,33.910816 c 0,-0.702497 1.187078,-0.816449 1.172067,0 -0.01251,0.741315 -1.172067,0.727541 -1.172067,0 z" />
		<path id="path855" d="m 15.166824,32.502066 c 0,-0.702496 1.187078,-0.816448 1.172067,0 -0.01251,0.741316 -1.172067,0.727541 -1.172067,0 z" />
		<path id="path857" d="m 16.574055,31.249844 c 0,-0.701244 1.187078,-0.816448 1.172067,0 -0.01251,0.741316 -1.172067,0.727541 -1.172067,0 z" />
		<path id="path859" d="m 18.060091,29.997622 c 0,-0.701244 1.187078,-0.816448 1.172068,0 -0.01251,0.740063 -1.172068,0.727541 -1.172068,0 z" />
		<path id="path861" d="m 19.623681,28.511235 c 0,-0.701245 1.187078,-0.816449 1.172068,0 -0.01251,0.740063 -1.172068,0.727541 -1.172068,0 z" />
		<path id="path863" d="m 20.952108,27.023595 c 0,-0.701244 1.187077,-0.816449 1.173318,0 -0.01376,0.740063 -1.173318,0.727541 -1.173318,0 z" />
		<path id="path865" d="m 22.438144,25.771373 c 0,-0.701244 1.187077,-0.816449 1.172067,0 -0.01251,0.740063 -1.172067,0.727541 -1.172067,0 z" />
		<path id="path867" d="m 24.314452,25.067624 c 0,-0.701244 1.187077,-0.816449 1.172067,0 -0.01251,0.740063 -1.172067,0.727541 -1.172067,0 z" />
		<path id="path869" d="m 26.424673,25.224152 c 0,-0.701244 1.187078,-0.816449 1.172067,0 -0.01251,0.740063 -1.172067,0.727541 -1.172067,0 z" />
		<path id="path871" d="m 25.017442,27.41554 c 0,-0.701244 1.187078,-0.816448 1.172067,0 -0.01251,0.740064 -1.172067,0.727541 -1.172067,0 z" />
		<path id="path873" d="m 23.219939,28.198179 c 0,-0.701244 1.187077,-0.816449 1.173318,0 -0.01376,0.740063 -1.173318,0.727541 -1.173318,0 z" />
		<path id="path875" d="m 21.577544,29.214984 c 0,-0.701245 1.187077,-0.816449 1.172067,0 -0.01251,0.740063 -1.172067,0.72754 -1.172067,0 z" />
		<path id="path877" d="m 11.093985,19.61545 c 0,-0.701245 1.187077,-0.816449 1.172067,0 -0.01251,0.740063 -1.172067,0.727541 -1.172067,0 z" />
		<path id="path879" d="m 14.741528,19.432625 c 0,-0.701244 1.187077,-0.816449 1.173318,0 -0.01251,0.740063 -1.173318,0.727541 -1.173318,0 z" />
		<path id="path881" d="m 13.021579,20.528319 c 0,-0.701244 1.187077,-0.816448 1.172067,0 -0.01126,0.740064 -1.172067,0.727541 -1.172067,0 z" />
		<path id="path883" d="m 12.396142,22.876236 c 0,-0.701245 1.187078,-0.816449 1.172068,0 -0.01126,0.740063 -1.172068,0.727541 -1.172068,0 z" />
		<path id="path885" d="m 11.927065,24.675679 c 0,-0.701245 1.187078,-0.816449 1.172068,0 -0.01126,0.740063 -1.172068,0.727541 -1.172068,0 z" />
		<path id="path887" d="m 10.519834,26.397484 c 0,-0.701244 1.187078,-0.816449 1.172067,0 -0.01126,0.740063 -1.172067,0.727541 -1.172067,0 z" />
		<path id="path889" d="m 10.050757,28.901928 c 0,-0.701244 1.187078,-0.816449 1.172067,0 -0.01126,0.740063 -1.172067,0.727541 -1.172067,0 z" />
		<path id="path891" d="m 11.693152,27.962762 c 0,-0.701245 1.187078,-0.816449 1.172068,0 -0.01251,0.740063 -1.172068,0.72754 -1.172068,0 z" />
		<path id="path893" d="m 12.944024,26.397484 c 0,-0.701244 1.187078,-0.816449 1.172068,0 -0.01251,0.740063 -1.172068,0.727541 -1.172068,0 z" />
		<path id="path895" d="m 13.803374,24.754569 c 0,-0.701245 1.187077,-0.816449 1.172067,0 -0.01126,0.740063 -1.172067,0.727541 -1.172067,0 z" />
		<path id="path897" d="m 15.914846,23.89304 c 0,-0.701244 1.187077,-0.816449 1.172067,0 -0.01251,0.740063 -1.172067,0.727541 -1.172067,0 z" />
		<path id="path899" d="m 17.747373,22.953873 c 0,-0.701244 1.187078,-0.816448 1.172067,0 -0.01251,0.740064 -1.172067,0.727541 -1.172067,0 z" />
		<path id="path901" d="m 18.763081,20.997903 c 0,-0.701245 1.187078,-0.816449 1.172068,0 -0.01251,0.740063 -1.172068,0.727541 -1.172068,0 z" />
		<path id="path903" d="m 20.249118,19.432625 c 0,-0.701244 1.187077,-0.816449 1.172067,0 -0.01251,0.740063 -1.172067,0.727541 -1.172067,0 z" />
		<path id="path905" d="m 27.362827,19.04068 c 0,-0.701245 1.187078,-0.816449 1.172067,0 -0.01251,0.740063 -1.172067,0.727541 -1.172067,0 z" />
		<path id="path907" d="m 25.382697,18.780218 c 0,-0.701245 1.187077,-0.816449 1.172067,0 -0.01251,0.740063 -1.172067,0.727541 -1.172067,0 z" />
		<path id="path909" d="m 26.972555,21.310958 c 0,-0.701244 1.187078,-0.816449 1.173318,0 -0.01376,0.740063 -1.173318,0.727541 -1.173318,0 z" />
		<path id="path911" d="m 23.81035,19.406329 c 0,-0.701245 1.187078,-0.816449 1.172068,0 -0.01126,0.740063 -1.172068,0.727541 -1.172068,0 z" />
		<path id="path913" d="m 24.861083,21.075541 c 0,-0.701245 1.187078,-0.816449 1.172067,0 -0.01251,0.740063 -1.172067,0.72754 -1.172067,0 z" />
		<path id="path915" d="m 25.878042,22.876236 c 0,-0.701245 1.187078,-0.816449 1.172067,0 -0.01251,0.740063 -1.172067,0.727541 -1.172067,0 z" />
		<path id="path917" d="m 23.76657,23.110401 c 0,-0.701244 1.187078,-0.816448 1.172067,0 -0.01251,0.740063 -1.172067,0.727541 -1.172067,0 z" />
		<path id="path919" d="m 21.890262,23.815402 c 0,-0.701244 1.187077,-0.816449 1.172067,0 -0.01251,0.740063 -1.172067,0.727541 -1.172067,0 z" />
		<path id="path921" d="m 20.249118,24.988734 c 0,-0.701244 1.187077,-0.816448 1.172067,0 -0.01251,0.740063 -1.172067,0.727541 -1.172067,0 z" />
		<path id="path923" d="m 18.841886,26.240956 c 0,-0.701244 1.187078,-0.816448 1.172068,0 -0.01251,0.740063 -1.172068,0.727541 -1.172068,0 z" />
		<path id="path925" d="m 17.512209,27.649706 c 0,-0.701244 1.187078,-0.816449 1.172068,0 -0.01251,0.740063 -1.172068,0.727541 -1.172068,0 z" />
		<path id="path927" d="m 16.261337,29.137346 c 0,-0.701245 1.187078,-0.816449 1.172067,0 -0.01251,0.740063 -1.172067,0.727541 -1.172067,0 z" />
		<path id="path929" d="m 14.541388,30.310678 c 0,-0.701245 1.187078,-0.816449 1.172067,0 -0.01251,0.740063 -1.172067,0.727541 -1.172067,0 z" />
		<path id="path931" d="m 13.290516,31.954845 c 0,-0.701244 1.187078,-0.816449 1.172067,0 -0.01251,0.740063 -1.172067,0.727541 -1.172067,0 z" />
		<path id="path933" d="m 11.570567,33.050539 c 0,-0.702496 1.187078,-0.816448 1.172067,0 -0.01251,0.740064 -1.172067,0.727541 -1.172067,0 z" />
		<path id="path935" d="m 10.163336,31.249844 c 0,-0.701244 1.187077,-0.816448 1.172067,0 -0.01251,0.741316 -1.172067,0.727541 -1.172067,0 z" />
		<path id="path937" d="m 11.883285,30.389568 c 0,-0.701245 1.187078,-0.816449 1.172067,0 -0.01251,0.740063 -1.172067,0.727541 -1.172067,0 z" />
		<path id="path939" d="m 13.290516,29.058456 c 0,-0.701245 1.187078,-0.816449 1.172067,0 -0.01251,0.740063 -1.172067,0.727541 -1.172067,0 z" />
		<path id="path941" d="m 14.620193,27.493178 c 0,-0.701244 1.187078,-0.816448 1.172067,0 -0.01251,0.740063 -1.172067,0.727541 -1.172067,0 z" />
		<path id="path943" d="m 15.79226,26.163318 c 0,-0.701244 1.187078,-0.816448 1.172067,0 -0.01251,0.740064 -1.172067,0.727541 -1.172067,0 z" />
		<path id="path945" d="m 17.512209,24.911096 c 0,-0.701244 1.187078,-0.816448 1.172068,0 -0.01251,0.740064 -1.172068,0.727541 -1.172068,0 z" />
		<path id="path947" d="m 19.623681,23.502347 c 0,-0.701245 1.187078,-0.816449 1.172068,0 -0.01251,0.740063 -1.172068,0.727541 -1.172068,0 z" />
		<path id="path949" d="m 22.750862,21.388596 c 0,-0.701244 1.187077,-0.816449 1.172067,0 -0.01251,0.740063 -1.172067,0.727541 -1.172067,0 z" />
		<path id="path951" d="m 20.718195,21.545124 c 0,-0.701245 1.187077,-0.816449 1.173318,0 -0.01376,0.740063 -1.173318,0.727541 -1.173318,0 z" />
		<path id="path953" d="m 22.08915,19.745681 c 0,-0.701245 1.187078,-0.816449 1.172068,0 -0.01251,0.740063 -1.172068,0.727541 -1.172068,0 z" />
		<path id="path955" d="m 15.9924,21.545124 c 0,-0.701245 1.187077,-0.816449 1.173318,0 -0.01251,0.740063 -1.173318,0.727541 -1.173318,0 z" />
		<path id="path957" d="m 17.322077,19.902208 c 0,-0.701244 1.187077,-0.816448 1.172067,0 -0.01251,0.740064 -1.172067,0.727541 -1.172067,0 z" />
		<path id="path959" d="m 18.841886,18.414569 c 0,-0.701245 1.187078,-0.816449 1.172068,0 -0.01251,0.740063 -1.172068,0.727541 -1.172068,0 z" />
		<path id="path961" d="m 14.272451,22.327763 c 0,-0.701245 1.187077,-0.816449 1.172067,0 -0.01126,0.740063 -1.172067,0.72754 -1.172067,0 z" />
		<path id="path963" d="m 10.676193,21.493783 c 0,-0.701245 1.187078,-0.816449 1.172068,0 -0.01126,0.740063 -1.172068,0.727541 -1.172068,0 z" />
		<path id="path965" d="m 9.955691,23.266929 c 0,-0.701244 1.187078,-0.816449 1.172067,0 -0.01251,0.740063 -1.172067,0.727541 -1.172067,0 z" />
		<path id="path967" d="m 9.2176765,24.832207 c 0,-0.701245 1.1870775,-0.816449 1.1720675,0 -0.01251,0.740063 -1.1720675,0.72754 -1.1720675,0 z" />
		<path id="path969" d="m 8.6960628,27.128782 c 0,-0.701245 1.1870776,-0.816449 1.1720672,0 -0.012509,0.740063 -1.1720672,0.727541 -1.1720672,0 z" />
		<path id="path971" d="m 8.0706268,29.214984 c 0,-0.701245 1.1870776,-0.816449 1.1720671,0 -0.012509,0.740063 -1.1720671,0.72754 -1.1720671,0 z" />
		<path id="path973" d="m 7.9668044,31.198503 c 0,-0.701244 1.1870776,-0.816449 1.1720671,0 -0.012509,0.740063 -1.1720671,0.727541 -1.1720671,0 z" />
		<path id="path975" d="m 12.631306,18.493459 c 0,-0.701245 1.187078,-0.816449 1.172068,0 -0.01251,0.740063 -1.172068,0.727541 -1.172068,0 z" />
		<path id="path977" d="m 8.4508919,47.764148 c 0,-0.701244 1.1870776,-0.816449 1.173318,0 -0.012509,0.740063 -1.173318,0.727541 -1.173318,0 z" />
		<path id="path979" d="m 11.265354,46.511926 c 0,-0.701244 1.187078,-0.816449 1.173318,0 -0.01251,0.740063 -1.173318,0.727541 -1.173318,0 z" />
		<path id="path981" d="m 14.471339,45.259704 c 0,-0.702497 1.187078,-0.816449 1.173318,0 -0.01376,0.740063 -1.173318,0.727541 -1.173318,0 z" />
		<path id="path983" d="m 12.672585,44.869011 c 0,-0.702497 1.187078,-0.816449 1.173318,0 -0.01251,0.738811 -1.173318,0.726288 -1.173318,0 z" />
		<path id="path985" d="m 10.796277,44.477065 c 0,-0.702496 1.187078,-0.816449 1.173318,0 -0.01251,0.740063 -1.173318,0.727541 -1.173318,0 z" />
		<path id="path987" d="m 9.1551329,45.808177 c 0,-0.702496 1.1870781,-0.816449 1.1733181,0 -0.01376,0.740063 -1.1733181,0.726289 -1.1733181,0 z" />
		<path id="path989" d="m 7.1224657,46.746091 c 0,-0.701244 1.1870776,-0.816448 1.173318,0 -0.013759,0.741316 -1.173318,0.727541 -1.173318,0 z" />
		<path id="path991" d="m 16.268843,44.790121 c 0,-0.702497 1.187077,-0.816449 1.173318,0 -0.01251,0.740063 -1.173318,0.727541 -1.173318,0 z" />
		<path id="path993" d="m 17.442161,43.460261 c 0,-0.702497 1.187077,-0.816449 1.173318,0 -0.01376,0.738811 -1.173318,0.726289 -1.173318,0 z" />
		<path id="path995" d="m 19.042026,42.364567 c 0,-0.702497 1.187078,-0.816449 1.172067,0 -0.01251,0.738811 -1.172067,0.726288 -1.172067,0 z" />
		<path id="path997" d="m 20.761975,41.033455 c 0,-0.702497 1.187078,-0.816449 1.173318,0 -0.01376,0.740063 -1.173318,0.727541 -1.173318,0 z" />
		<path id="path999" d="m 22.125426,40.094288 c 0,-0.702496 1.187077,-0.816449 1.172067,0 -0.01251,0.740063 -1.172067,0.727541 -1.172067,0 z" />
		<path id="path1001" d="m 8.9199689,49.407063 c 0,-0.701244 1.1870781,-0.816448 1.1733181,0 -0.01251,0.741316 -1.1733181,0.727541 -1.1733181,0 z" />
		<path id="path1003" d="m 26.070676,49.449639 c 0,-0.702497 1.187078,-0.816449 1.172067,0 -0.01251,0.740063 -1.172067,0.727541 -1.172067,0 z" />
		<path id="path1005" d="m 23.341273,46.668454 c 0,-0.701245 1.187078,-0.816449 1.172068,0 -0.01126,0.740063 -1.172068,0.727541 -1.172068,0 z" />
		<path id="path1007" d="m 29.15908,49.372001 c 0,-0.702497 1.187077,-0.816449 1.172067,0 -0.01251,0.740063 -1.172067,0.726289 -1.172067,0 z" />
		<path id="path1009" d="m 24.62717,48.233731 c 0,-0.701244 1.187078,-0.816449 1.172067,0 -0.01251,0.740063 -1.172067,0.727541 -1.172067,0 z" />
		<path id="path1011" d="m 22.20298,45.259704 c 0,-0.702497 1.187077,-0.816449 1.173318,0 -0.01376,0.740063 -1.173318,0.727541 -1.173318,0 z" />
		<path id="path1013" d="m 20.326672,46.121233 c 0,-0.702497 1.187077,-0.816449 1.172067,0 -0.01251,0.740063 -1.172067,0.726288 -1.172067,0 z" />
		<path id="path1015" d="m 17.981286,46.19887 c 0,-0.702496 1.187078,-0.816448 1.173318,0 -0.01376,0.740064 -1.173318,0.727541 -1.173318,0 z" />
		<path id="path1017" d="m 15.836041,47.138037 c 0,-0.701244 1.187077,-0.816449 1.172067,0 -0.01126,0.740063 -1.172067,0.727541 -1.172067,0 z" />
		<path id="path1019" d="m 14.463834,48.859842 c 0,-0.701244 1.187078,-0.816449 1.173318,0 -0.01376,0.740063 -1.173318,0.727541 -1.173318,0 z" />
		<path id="path1021" d="m 13.52568,47.059147 c 0,-0.701244 1.187078,-0.816449 1.172067,0 -0.01251,0.741315 -1.172067,0.727541 -1.172067,0 z" />
		<path id="path1023" d="m 10.632413,48.077203 c 0,-0.701244 1.187077,-0.816448 1.172067,0 -0.01251,0.740064 -1.172067,0.727541 -1.172067,0 z" />
		<path id="path1025" d="m 12.049651,49.434612 c 0,-0.701244 1.187078,-0.816449 1.173318,0 -0.01376,0.740063 -1.173318,0.727541 -1.173318,0 z" />
		<path id="path1027" d="m 39.089753,49.250535 c 0,-0.701244 1.187078,-0.816448 1.172067,0 -0.01251,0.741316 -1.172067,0.727541 -1.172067,0 z" />
		<path id="path1029" d="m 38.664457,46.355398 c 0,-0.702496 1.187077,-0.816449 1.172067,0 -0.01126,0.740063 -1.172067,0.727541 -1.172067,0 z" />
		<path id="path1031" d="m 37.682522,47.998314 c 0,-0.701245 1.187078,-0.816449 1.172067,0 -0.01251,0.741315 -1.172067,0.72754 -1.172067,0 z" />
		<path id="path1033" d="m 37.057086,44.790121 c 0,-0.702497 1.187078,-0.816449 1.172067,0 -0.01251,0.740063 -1.172067,0.727541 -1.172067,0 z" />
		<path id="path1035" d="m 35.885019,43.303733 c 0,-0.702496 1.187077,-0.816449 1.172067,0 -0.01251,0.738811 -1.172067,0.726289 -1.172067,0 z" />
		<path id="path1037" d="m 35.693635,49.094008 c 0,-0.701245 1.187078,-0.816449 1.172068,0 -0.01126,0.741315 -1.172068,0.727541 -1.172068,0 z" />
		<path id="path1039" d="m 42.478366,34.223872 c 0,-0.702497 1.187077,-0.816449 1.172067,0 -0.01251,0.741315 -1.172067,0.72754 -1.172067,0 z" />
		<path id="path1041" d="m 40.080444,33.076836 c 0,-0.702496 1.187077,-0.816449 1.172067,0 -0.01251,0.740063 -1.172067,0.727541 -1.172067,0 z" />
		<path id="path1043" d="m 38.413031,33.806882 c 0,-0.702497 1.187078,-0.816449 1.172067,0 -0.01251,0.740063 -1.172067,0.727541 -1.172067,0 z" />
		<path id="path1045" d="m 34.86806,35.268225 c 0,-0.702497 1.187077,-0.816449 1.172067,0 -0.01251,0.740063 -1.172067,0.727541 -1.172067,0 z" />
		<path id="path1047" d="m 36.224005,34.223872 c 0,-0.702497 1.187078,-0.816449 1.172067,0 -0.01251,0.741315 -1.172067,0.72754 -1.172067,0 z" />
		<path id="path1049" d="m 33.617188,37.041371 c 0,-0.702497 1.187077,-0.816449 1.172067,0 -0.01251,0.741315 -1.172067,0.727541 -1.172067,0 z" />
		<path id="path1051" d="m 40.027907,39.389287 c 0,-0.702496 1.187078,-0.816448 1.172067,0 -0.01251,0.741316 -1.172067,0.727541 -1.172067,0 z" />
		<path id="path1053" d="m 41.870442,36.41526 c 0,-0.702497 1.187077,-0.816449 1.172067,0 -0.01251,0.741315 -1.172067,0.727541 -1.172067,0 z" />
		<path id="path1055" d="m 39.637635,37.354427 c 0,-0.702497 1.187078,-0.816449 1.172067,0 -0.01251,0.741315 -1.172067,0.72754 -1.172067,0 z" />
		<path id="path1057" d="m 37.761327,38.293593 c 0,-0.702497 1.187078,-0.816449 1.172067,0 -0.01251,0.741315 -1.172067,0.727541 -1.172067,0 z" />
		<path id="path1059" d="m 36.275291,36.807205 c 0,-0.702496 1.187078,-0.816448 1.172067,0 -0.01251,0.740064 -1.172067,0.727541 -1.172067,0 z" />
		<path id="path1061" d="m 34.834286,38.059427 c 0,-0.702496 1.187078,-0.816448 1.172067,0 -0.01251,0.740064 -1.172067,0.727541 -1.172067,0 z" />
		<path id="path1063" d="m 38.005247,35.789149 c 0,-0.702497 1.187078,-0.816449 1.172067,0 -0.01251,0.741315 -1.172067,0.727541 -1.172067,0 z" />
		<path id="path1065" d="m 40.184266,35.241928 c 0,-0.702497 1.187078,-0.816449 1.172067,0 -0.01251,0.740063 -1.172067,0.727541 -1.172067,0 z" />
		<path id="path1067" d="m 37.891418,31.406372 c 0,-0.701244 1.187077,-0.816449 1.172067,0 -0.01251,0.741315 -1.172067,0.727541 -1.172067,0 z" />
		<path id="path1069" d="m 36.527967,32.032483 c 0,-0.701244 1.187078,-0.816449 1.172067,0 -0.01251,0.741315 -1.172067,0.727541 -1.172067,0 z" />
		<path id="path1071" d="m 34.442763,32.450725 c 0,-0.702496 1.187078,-0.816449 1.172067,0 -0.01126,0.740063 -1.172067,0.727541 -1.172067,0 z" />
		<path id="path1073" d="m 33.095574,33.910816 c 0,-0.702497 1.187078,-0.816449 1.173318,0 -0.01251,0.741315 -1.173318,0.727541 -1.173318,0 z" />
		<path id="path1075" d="m 32.366316,35.476094 c 0,-0.702497 1.187077,-0.816449 1.172067,0 -0.01251,0.741315 -1.172067,0.72754 -1.172067,0 z" />
		<path id="path1077" d="m 31.428161,37.354427 c 0,-0.702497 1.187078,-0.816449 1.172068,0 -0.01251,0.741315 -1.172068,0.72754 -1.172068,0 z" />
		<path id="path1079" d="m 44.554813,32.867715 c 0,-0.702496 1.187078,-0.816449 1.172067,0 -0.01251,0.740063 -1.172067,0.727541 -1.172067,0 z" />
		<path id="path1081" d="m 42.165648,32.032483 c 0,-0.701244 1.187077,-0.816449 1.172067,0 -0.01251,0.741315 -1.172067,0.727541 -1.172067,0 z" />
		<path id="path1083" d="m 40.176761,30.676327 c 0,-0.701245 1.187078,-0.816449 1.173318,0 -0.01376,0.740063 -1.173318,0.727541 -1.173318,0 z" />
		<path id="path1085" d="m 41.32256,28.901928 c 0,-0.701244 1.187077,-0.816449 1.172067,0 -0.01126,0.740063 -1.172067,0.727541 -1.172067,0 z" />
		<path id="path1087" d="m 43.407764,28.381004 c 0,-0.701245 1.187077,-0.816449 1.173318,0 -0.01376,0.740063 -1.173318,0.727541 -1.173318,0 z" />
		<path id="path1089" d="m 43.198868,30.15415 c 0,-0.701244 1.187078,-0.816449 1.172067,0 -0.01126,0.740063 -1.172067,0.727541 -1.172067,0 z" />
		<path id="path1091" d="m 46.144672,34.719751 c 0,-0.702496 1.187077,-0.816448 1.173318,0 -0.01376,0.740064 -1.173318,0.727541 -1.173318,0 z" />
		<path id="path1093" d="m 48.550099,35.00651 c 0,-0.702496 1.187077,-0.816448 1.172067,0 -0.01251,0.741316 -1.172067,0.727541 -1.172067,0 z" />
		<path id="path1095" d="m 43.780523,36.181094 c 0,-0.702496 1.187078,-0.816448 1.172068,0 -0.01251,0.740064 -1.172068,0.727541 -1.172068,0 z" />
		<path id="path1097" d="m 44.458496,34.642114 c 0,-0.702497 1.187078,-0.816449 1.172067,0 -0.01251,0.740063 -1.172067,0.727541 -1.172067,0 z" />
		<path id="path1099" d="m 45.709368,37.120261 c 0,-0.702497 1.187078,-0.816449 1.172067,0 -0.01251,0.740063 -1.172067,0.727541 -1.172067,0 z" />
		<path id="path1101" d="m 41.904215,38.606648 c 0,-0.702496 1.187078,-0.816448 1.172067,0 -0.01251,0.741316 -1.172067,0.727541 -1.172067,0 z" />
		<path id="path1103" d="m 40.106712,45.103176 c 0,-0.702496 1.187078,-0.816449 1.172067,0 -0.01251,0.740063 -1.172067,0.727541 -1.172067,0 z" />
		<path id="path1105" d="m 38.777035,43.616789 c 0,-0.702497 1.187078,-0.816449 1.172067,0 -0.01251,0.738811 -1.172067,0.726288 -1.172067,0 z" />
		<path id="path1107" d="m 43.980663,38.059427 c 0,-0.702496 1.187078,-0.816448 1.173318,0 -0.01251,0.740064 -1.173318,0.727541 -1.173318,0 z" />
		<path id="path1109" d="m 33.817327,47.372202 c 0,-0.701244 1.187078,-0.816448 1.172067,0 -0.01126,0.741316 -1.172067,0.727541 -1.172067,0 z" />
		<path id="path1111" d="m 42.921174,40.484982 c 0,-0.702497 1.187078,-0.816449 1.172068,0 -0.01251,0.741315 -1.172068,0.72754 -1.172068,0 z" />
		<path id="path1113" d="m 40.70588,41.216279 c 0,-0.702496 1.187077,-0.816449 1.172067,0 -0.01251,0.740063 -1.172067,0.727541 -1.172067,0 z" />
		<path id="path1115" d="m 19.78004,49.329425 c 0,-0.701244 1.187078,-0.816448 1.172068,0 -0.01251,0.740064 -1.172068,0.727541 -1.172068,0 z" />
		<path id="path1117" d="m 16.732916,49.449639 c 0,-0.702497 1.187078,-0.816449 1.172067,0 -0.01251,0.740063 -1.172067,0.727541 -1.172067,0 z" />
		<path id="path1119" d="m 18.685527,48.077203 c 0,-0.701244 1.187078,-0.816448 1.172068,0 -0.01251,0.740064 -1.172068,0.727541 -1.172068,0 z" />
		<path id="path1121" d="m 20.952108,47.841786 c 0,-0.701245 1.187077,-0.816449 1.173318,0 -0.01376,0.741315 -1.173318,0.727541 -1.173318,0 z" />
		<path id="path1123" d="m 22.672057,49.01637 c 0,-0.701244 1.187077,-0.816449 1.172067,0 -0.01251,0.740063 -1.172067,0.727541 -1.172067,0 z" />
		<path id="path1125" d="m 36.006353,46.589564 c 0,-0.701245 1.187078,-0.816449 1.173318,0 -0.01251,0.741315 -1.173318,0.727541 -1.173318,0 z" />
		<path id="path1127" d="m 32.411347,49.239266 c 0.04878,-0.699993 1.240865,-0.731298 1.169565,0.08265 -0.06504,0.736307 -1.220851,0.64239 -1.169565,-0.08265 z" />
		<path id="path1129" d="m 31.004116,47.578819 c 0.04878,-0.699992 1.240865,-0.731298 1.169565,0.08265 -0.06505,0.737559 -1.220851,0.643642 -1.169565,-0.08265 z" />
		<path id="path1131" d="m 31.194248,42.521094 c 0,-0.702496 1.187078,-0.816448 1.172068,0 -0.01251,0.738811 -1.172068,0.726289 -1.172068,0 z" />
		<path id="path1133" d="m 29.984655,45.379917 c 0,-0.702496 1.187078,-0.816448 1.172067,0 -0.01251,0.740063 -1.172067,0.727541 -1.172067,0 z" />
		<path id="path1135" d="m 34.670422,45.103176 c 0,-0.702496 1.187078,-0.816449 1.172067,0 -0.01251,0.740063 -1.172067,0.727541 -1.172067,0 z" />
		<path id="path1137" d="m 48.713963,4.1705435 c 0,-0.7024965 1.187078,-0.8164487 1.173318,0 -0.01376,0.7400632 -1.173318,0.727541 -1.173318,0 z" />
		<path id="path1139" d="m 43.702969,2.5276282 c 0,-0.7024965 1.187078,-0.8164487 1.172068,0 -0.01251,0.7400632 -1.172068,0.727541 -1.172068,0 z" />
		<path id="path1141" d="m 46.517432,4.2494335 c 0,-0.7024966 1.187077,-0.8164488 1.172067,0 -0.01251,0.7400632 -1.172067,0.727541 -1.172067,0 z" />
		<path id="path1143" d="m 46.282268,2.684156 c 0,-0.7024966 1.187077,-0.8164488 1.172067,0 -0.01251,0.7400632 -1.172067,0.727541 -1.172067,0 z" />
		<path id="path1145" d="m 43.00123,6.1352798 c 0.04878,-0.6999921 1.240865,-0.7312976 1.169566,0.082647 -0.0638,0.7375587 -1.220852,0.6436421 -1.169566,-0.082647 z" />
		<path id="path1147" d="m 44.095743,4.2569468 c 0.04878,-0.6999921 1.240865,-0.7312976 1.169566,0.082647 -0.06379,0.7375587 -1.220852,0.6436421 -1.169566,-0.082647 z" />
		<path id="path1149" d="m 37.102117,2.1244128 c 0.04878,-0.6999921 1.240865,-0.7312977 1.169566,0.082647 -0.06505,0.7363065 -1.220851,0.6423899 -1.169566,-0.082647 z" />
		<path id="path1151" d="m 41.750358,4.4134746 c 0.04878,-0.6999921 1.240865,-0.7312977 1.169565,0.082647 -0.06379,0.7375588 -1.220851,0.6436421 -1.169565,-0.082647 z" />
		<path id="path1153" d="m 48.791517,11.762765 c 0,-0.702496 1.187078,-0.816448 1.173318,0 -0.01251,0.740064 -1.173318,0.727541 -1.173318,0 z" />
		<path id="path1155" d="m 46.717571,11.44971 c 0,-0.702497 1.187078,-0.816449 1.172067,0 -0.01251,0.740063 -1.172067,0.727541 -1.172067,0 z" />
		<path id="path1157" d="m 47.812084,9.8055425 c 0,-0.7024965 1.187078,-0.8164487 1.172067,0 -0.01251,0.7400635 -1.172067,0.7275405 -1.172067,0 z" />
		<path id="path1159" d="m 48.281161,7.693044 c 0,-0.7024966 1.187078,-0.8164488 1.173318,0 -0.01376,0.7400632 -1.173318,0.727541 -1.173318,0 z" />
		<path id="path1161" d="m 43.390251,9.1017937 c 0,-0.7024965 1.187078,-0.8164487 1.172068,0 -0.01251,0.7400632 -1.172068,0.727541 -1.172068,0 z" />
		<path id="path1163" d="m 45.735637,9.6490147 c 0,-0.7024965 1.187077,-0.8164487 1.173318,0 -0.01376,0.7400633 -1.173318,0.7275413 -1.173318,0 z" />
		<path id="path1165" d="m 46.282268,7.614154 c 0,-0.7024965 1.187077,-0.8164487 1.172067,0 -0.01251,0.7400632 -1.172067,0.727541 -1.172067,0 z" />
		<path id="path1167" d="m 45.31034,6.1277665 c 0,-0.7024966 1.187078,-0.8164488 1.172067,0 -0.01251,0.7400632 -1.172067,0.727541 -1.172067,0 z" />
		<path id="path1169" d="m 44.172046,10.901237 c 0,-0.702497 1.187078,-0.816449 1.172068,0 -0.01251,0.740063 -1.172068,0.727541 -1.172068,0 z" />
		<path id="path1171" d="m 48.557604,1.9015172 c 0,-0.7024965 1.187078,-0.8164487 1.173318,0 -0.01376,0.7400632 -1.173318,0.727541 -1.173318,0 z" />
		<path id="path1173" d="m 46.404853,0.96235074 c 0,-0.70249655 1.187078,-0.81644875 1.172067,0 -0.01251,0.74006316 -1.172067,0.72754096 -1.172067,0 z" />
		<path id="path1175" d="m 43.936882,0.726933 c 0,-0.70249654 1.187078,-0.81644874 1.172068,0 -0.01251,0.7400632 -1.172068,0.727541 -1.172068,0 z" />
		<path id="path1177" d="m 41.32256,0.88346075 c 0,-0.70249654 1.187077,-0.81644874 1.172067,0 -0.01126,0.74006325 -1.172067,0.72754095 -1.172067,0 z" />
		<path id="path1179" d="m 47.343007,5.9349243 c 0,-0.7024965 1.187078,-0.8164487 1.172067,0 -0.01251,0.7400632 -1.172067,0.727541 -1.172067,0 z" />
		<path id="path1181" d="m 44.093242,7.614154 c 0,-0.7024965 1.187077,-0.8164487 1.172067,0 -0.01251,0.7400632 -1.172067,0.727541 -1.172067,0 z" />
		<path id="path1183" d="m 39.75897,5.0320722 c 0,-0.7024965 1.187077,-0.8164487 1.173318,0 -0.01251,0.7400632 -1.173318,0.727541 -1.173318,0 z" />
		<path id="path1185" d="m 41.834166,8.1626272 c 0,-0.7024965 1.187078,-0.8164487 1.173319,0 -0.01376,0.7400632 -1.173319,0.727541 -1.173319,0 z" />
		<path id="path1187" d="m 40.809702,6.7801741 c 0,-0.7024965 1.187078,-0.8164487 1.172067,0 -0.01251,0.7400633 -1.172067,0.727541 -1.172067,0 z" />
		<path id="path1189" d="m 39.976621,10.014664 c 0,-0.7012447 1.187078,-0.8164492 1.172068,0 -0.01251,0.740063 -1.172068,0.727541 -1.172068,0 z" />
		<path id="path1191" d="m 36.536723,7.9272095 c 0,-0.7024965 1.187078,-0.8164487 1.172067,0 -0.01251,0.7400632 -1.172067,0.727541 -1.172067,0 z" />
		<path id="path1193" d="m 34.86806,6.8841086 c 0,-0.7012443 1.187077,-0.8164488 1.172067,0 -0.01251,0.7400632 -1.172067,0.727541 -1.172067,0 z" />
		<path id="path1195" d="m 32.991752,5.6318866 c 0,-0.7012443 1.187077,-0.8164488 1.173318,0 -0.01376,0.7400632 -1.173318,0.727541 -1.173318,0 z" />
		<path id="path1197" d="m 30.899043,3.9626746 c 0,-0.7024965 1.187077,-0.8164487 1.173318,0 -0.01376,0.7400633 -1.173318,0.727541 -1.173318,0 z" />
		<path id="path1199" d="m 28.918912,2.0843416 c 0,-0.7024965 1.187078,-0.8164487 1.173318,0 -0.01376,0.7400633 -1.173318,0.727541 -1.173318,0 z" />
		<path id="path1201" d="m 27.519186,0.726933 c 0,-0.70249654 1.187078,-0.81644874 1.172067,0 -0.01251,0.7400632 -1.172067,0.727541 -1.172067,0 z" />
		<path id="path1203" d="m 42.053069,10.431654 c 0,-0.702497 1.187078,-0.8164492 1.172067,0 -0.01251,0.740063 -1.172067,0.72754 -1.172067,0 z" />
		<path id="path1205" d="m 37.682522,6.0488765 c 0,-0.7024965 1.187078,-0.8164487 1.172067,0 -0.01251,0.7400632 -1.172067,0.727541 -1.172067,0 z" />
		<path id="path1207" d="m 35.597318,5.10971 c 0,-0.7024965 1.187078,-0.8164487 1.173318,0 -0.01251,0.7400632 -1.173318,0.727541 -1.173318,0 z" />
		<path id="path1209" d="m 33.713505,3.857488 c 0,-0.7024965 1.187077,-0.8164487 1.172067,0 -0.01251,0.7400632 -1.172067,0.727541 -1.172067,0 z" />
		<path id="path1211" d="m 32.252486,2.2508872 c 0,-0.7012443 1.187078,-0.8164488 1.172067,0 -0.01251,0.7400632 -1.172067,0.727541 -1.172067,0 z" />
		<path id="path1213" d="m 30.610091,0.68560967 c 0,-0.70124432 1.187078,-0.81644874 1.172067,0 -0.01251,0.74006323 -1.172067,0.72754103 -1.172067,0 z" />
		<path id="path1215" d="m 35.068199,2.6478415 c 0,-0.7024965 1.187078,-0.8164487 1.172067,0 -0.01126,0.7400633 -1.172067,0.727541 -1.172067,0 z" />
		<path id="path1217" d="m 37.412334,4.213119 c 0,-0.7024965 1.187077,-0.8164487 1.172067,0 -0.01251,0.7400633 -1.172067,0.727541 -1.172067,0 z" />
		<path id="path1219" d="m 33.82108,0.80582299 c 0,-0.70249655 1.187077,-0.81644875 1.172067,0 -0.01251,0.74006321 -1.172067,0.72754101 -1.172067,0 z" />
		<path id="path1221" d="m 41.435138,2.4487383 c 0,-0.7024966 1.187078,-0.8164488 1.172067,0 -0.01251,0.7400632 -1.172067,0.7275409 -1.172067,0 z" />
		<path id="path1223" d="m 39.332422,2.9972115 c 0,-0.7024966 1.187078,-0.8164488 1.173318,0 -0.01376,0.7400632 -1.173318,0.727541 -1.173318,0 z" />
		<path id="path1225" d="m 37.882662,0.726933 c 0,-0.70249654 1.187077,-0.81644874 1.172067,0 -0.01126,0.7400632 -1.172067,0.727541 -1.172067,0 z" />
	</g>
</svg>
