<?xml version="1.0" encoding="UTF-8" standalone="no"?>
<svg xmlns:dc="http://purl.org/dc/elements/1.1/" xmlns:cc="http://creativecommons.org/ns#" xmlns:rdf="http://www.w3.org/1999/02/22-rdf-syntax-ns#" xmlns:svg="http://www.w3.org/2000/svg" xmlns="http://www.w3.org/2000/svg" version="1.1" x="0px" y="0px" xml:space="preserve" width="50.00" height="50.00" viewBox="0 0 50.00 50.00">
	<metadata id="metadata2">
		<rdf:RDF>
			<ns:item rdf:ID="biblio1">
				<ns:link>rdf:resource=&quot;http://pubs.usgs.gov/tm/2006/11A02/</ns:link>
				<ns:title>U.S. Geological Survey, 2006, FGDC Digital Cartographic Standard for Geologic Map Symbolization (PostScript Implementation): U.S. Geological Survey Techniques and Methods 11-A2</ns:title>
			</ns:item>
			<ns:item rdf:ID="biblio2">
				<ns:link>https://davenquinn.com/projects/geologic-patterns/</ns:link>
				<ns:title>FGDC Geologic Patterns for the Web</ns:title>
			</ns:item>
			<rdf:Description>
				<dc:description>
					Converted from 'FGDC Geologic Patterns for the Web' to QGIS compatible svg symbols, with customisable fill colour/stroke colour/stroke width (when appropriate).
					SVG scaled to 50x50 pixels so that base outline-width is 0.387 px and width is 90 in the QGIS xml definition file. 
					Some of the original FGDC symbols have been omitted from this set because they can be generated from other symbols using the 'texture width' and/or 'stroke width' fields in QGIS symbology form.
				</dc:description>
				<dc:date>01 MARCH 2019</dc:date>
				<dc:creator>GeoProc.com</dc:creator>
				<dc:publisher rdf:resource="https://github.com/BC-Consulting/QGIS-FGDC-Fill" />
			</rdf:Description>
			<cc:Work rdf:about="">
				<dc:format>image/svg+xml</dc:format>
				<dc:type rdf:resource="http://purl.org/dc/dcmitype/StillImage" />
				<dc:title>FGDC fill symbol: Igneous - 313</dc:title>
			</cc:Work>
		</rdf:RDF>
	</metadata>
	<path style="fill:none;stroke:none;stroke-width:0;" id="rect1500" width="50.00" height="50.00" x="0.0" y="0.0" />
	<path id="path3" style="fill:none;" stroke="param(outline) #000" stroke-width="param(outline-width) 1.932" d="M 11.166924,43.75966 5.1777434,47.662287 M 0,40.76507 2.2411128,41.731066 m 15.9196292,1.622875 -4.173107,-4.559505 m 2.047914,-5.119784 5.467542,-2.704791 M 17.774343,26.468315 21.73493,21.445131 M 8.6553323,26.275116 12.982998,30.042504 M 3.6707883,32.843895 0.77279753,27.086553 M 20.672334,38.987635 27.279753,41.692427 M 8.7712519,33.616692 7.496136,39.799073 M 11.205564,18.547141 5.1584235,22.295209 M 2.2604328,16.267388 0,15.340031 m 18.160742,2.550232 -4.134467,-4.559506 M 21.445131,5.5061824 15.996909,8.2109737 M 8.5973725,0.77279753 12.944359,4.4822257 M 0.8114374,1.6615147 3.7094281,7.4188563 m 16.9049459,6.1051007 6.626739,2.704791 M 8.7712519,8.114374 7.496136,14.238794 M 36.128284,43.7983 30.177743,47.700927 m 13.021639,-4.308346 -4.173107,-4.559505 m 2.028594,-5.158424 5.448222,-2.704791 m -3.728748,-4.501546 3.979907,-5.023184 m -13.137558,4.791345 4.327667,3.767388 m -12.171561,-2.955951 2.89799,5.795982 m 5.100464,0.734158 -1.275116,6.14374 m 3.670788,-21.464451 -5.931221,3.941267 M 43.218702,17.909583 39.026275,13.330757 M 41.016229,8.1916538 46.464451,5.4868624 M 33.616692,0.77279753 37.944359,4.5208655 m -12.171561,-2.9752704 2.89799,5.7959814 m 5.081144,0.7727975 -1.275116,6.18238 M 45.653014,38.987635 50,40.76507 M 45.653014,13.562597 50,15.301391 M 17.774343,1.0046368 18.547141,0 m 25,0 -0.772798,1.0239567 M 21.75425,45.904173 18.508501,50 M 46.75425,45.923493 43.508501,49.98068" />
</svg>
