<?xml version="1.0" encoding="UTF-8" standalone="no"?>
<svg xmlns:dc="http://purl.org/dc/elements/1.1/" xmlns:cc="http://creativecommons.org/ns#" xmlns:rdf="http://www.w3.org/1999/02/22-rdf-syntax-ns#" xmlns:svg="http://www.w3.org/2000/svg" xmlns="http://www.w3.org/2000/svg" version="1.1" x="0px" y="0px" xml:space="preserve" width="50.00" height="50.00" viewBox="0 0 50.00 50.00">
	<metadata id="metadata2">
		<rdf:RDF>
			<ns:item rdf:ID="biblio1">
				<ns:link>rdf:resource=&quot;http://pubs.usgs.gov/tm/2006/11A02/</ns:link>
				<ns:title>U.S. Geological Survey, 2006, FGDC Digital Cartographic Standard for Geologic Map Symbolization (PostScript Implementation): U.S. Geological Survey Techniques and Methods 11-A2</ns:title>
			</ns:item>
			<ns:item rdf:ID="biblio2">
				<ns:link>https://davenquinn.com/projects/geologic-patterns/</ns:link>
				<ns:title>FGDC Geologic Patterns for the Web</ns:title>
			</ns:item>
			<rdf:Description>
				<dc:description>
					Converted from 'FGDC Geologic Patterns for the Web' to QGIS compatible svg symbols, with customisable fill colour/stroke colour/stroke width (when appropriate).
					SVG scaled to 50x50 pixels so that base outline-width is 0.387 px and width is 90 in the QGIS xml definition file. 
					Some of the original FGDC symbols have been omitted from this set because they can be generated from other symbols using the 'texture width' and/or 'stroke width' fields in QGIS symbology form.
				</dc:description>
				<dc:date>01 MARCH 2019</dc:date>
				<dc:creator>GeoProc.com</dc:creator>
				<dc:publisher rdf:resource="https://github.com/BC-Consulting/QGIS-FGDC-Fill" />
			</rdf:Description>
			<cc:Work rdf:about="">
				<dc:format>image/svg+xml</dc:format>
				<dc:type rdf:resource="http://purl.org/dc/dcmitype/StillImage" />
				<dc:title>FGDC fill symbol: Misc. and Metamorphic - 401</dc:title>
			</cc:Work>
		</rdf:RDF>
	</metadata>
	<path style="fill:none;stroke:none;stroke-width:0;" id="rect1500" width="50.00" height="50.00" x="0.0" y="0.0" />
	<g style="fill:none;" stroke="param(outline) #000000" stroke-width="param(outline-width) 0.15">
		<polyline id="polyline5" points="4.52000001316e-09,16.699626149 0.10653210468,16.5635831815 0.86206897292,18.0292007184 4.52000001316e-09,17.9976443599" />
		<polygon id="polygon7" points="21.6484441476,1.98103931555 22.4137931829,3.32463893311 23.2765630204,1.68791580817" />
		<polygon id="polygon9" points="4.03139895268,0.14305674894 2.63316513808,1.16197650067 4.07134849024,1.70965463288" />
		<polygon id="polygon11" points="21.7199327937,23.3804578591 20.399495447,22.3832769321 19.9334175088,23.8587120027" />
		<polygon id="polygon13" points="24.1729745737,22.5038923466 24.6187273086,20.6729223041 23.0880292379,21.2514555423" />
		<polygon id="polygon15" points="1.97925428644,22.2304039067 1.34566863812,23.8874633515 3.13218392304,23.4092092079" />
		<polygon id="polygon17" points="13.1938604355,0.49648796358 13.0375666307,2.13811985539 14.7112419937,1.55397659786" />
		<polygon id="polygon19" points="16.1732548946,3.415100494 14.617325537,4.26642091974 16.2881974237,5.06023864786" />
		<polygon id="polygon21" points="6.74376229228,1.34009461281 8.02004488696,2.67948671591 8.50084107584,1.10166879341" />
		<polygon id="polygon23" points="5.25231289004,6.11983103937 6.82646484372,5.14789519911 5.38407627708,4.35057120894" />
		<polygon id="polygon25" points="13.8975329918,8.67940233587 15.028735687,10.2929841313 15.6987665274,8.34911245076" />
		<polygon id="polygon27" points="17.2063359185,11.2614137095 18.9676199166,11.464075656 18.060695327,9.85119511298" />
		<polygon id="polygon29" points="21.5145781533,11.3406552318 22.9464536837,10.5243974266 21.5061677243,9.48934886942" />
		<polygon id="polygon31" points="22.8111859513,13.7866236379 24.2318475764,14.8483197866 24.2584806015,12.9977146766" />
		<polygon id="polygon33" points="20.9370620314,18.0874046684 21.6239137298,16.3693362639 19.9901879043,16.5874257634" />
		<polygon id="polygon35" points="3.12867957764,10.0412345161 2.20913934468,11.6253637103 4.17017103052,11.8132993562" />
		<polygon id="polygon37" points="11.498458131,13.415661113 13.0719092156,12.4437252727 11.629520649,11.647102535" />
		<polygon id="polygon39" points="18.0438744691,21.3720709569 19.6173255537,20.4001351166 18.1749369871,19.6028111264" />
		<polygon id="polygon41" points="13.3683768364,24.7829626791 13.8232408694,23.1981322325 12.0703673003,23.4646081483" />
		<polygon id="polygon43" points="7.77964679252,22.6160927322 7.25679845884,21.0522998579 5.96299413716,22.2654665272" />
		<polygon id="polygon45" points="15.168909503,17.0046709474 14.381132657,15.3504165122 13.118867444,16.8630179606" />
		<polygon id="polygon47" points="17.4565461801,15.3160551441 18.5653210646,13.8350100542 16.9308943701,13.6218293215" />
		<polygon id="polygon49" points="15.1766190628,19.4688719161 13.6872722678,20.4323927275 15.4121110737,21.1013875266" />
		<polygon id="polygon51" points="3.84286517016,20.2774159449 5.47518925748,19.4064604516 4.08536587184,18.5200774054" />
		<polygon id="polygon53" points="11.2903000142,18.0979234546 10.2270816199,16.8384741262 9.47364735888,18.4443421451" />
		<polygon id="polygon55" points="11.6105971838,20.494804192 9.96285397672,20.4730653672 10.6812447837,22.0950621916" />
		<polygon id="polygon57" points="19.006167716,4.18437438777 19.0734511476,5.95643922784 20.5291562268,4.81480030436" />
		<polygon id="polygon59" points="11.2384357023,3.29939384635 10.1885338205,4.72854625793 12.0374264535,4.74116880131" />
		<polygon id="polygon61" points="10.7828708003,8.53915185387 11.839781373,7.27409250623 10.1303616868,6.80705840117" />
		<polygon id="polygon63" points="7.2196523976,12.6646197819 8.67675921492,13.4338936757 8.77418001704,11.662530088" />
		<polygon id="polygon65" points="7.75441550564,9.74390349425 6.91687695504,7.86665079268 5.82632466656,9.33928085368" />
		<polygon id="polygon67" points="6.81174659304,17.1919053409 7.62755820216,15.616892428 5.79828990336,15.8917833727" />
		<polygon id="polygon69" points="1.75777965716,14.1183160278 2.51541913264,15.5825310599 3.60597142112,14.1849350068" />
		<polygon id="polygon71" points="22.7936642243,6.25026398763 22.3233810716,7.96061861562 24.0552285683,7.31196013637" />
		<polygon id="polygon73" points="2.3626296732,4.34846745171 1.35057472168,3.02380164922 0.63989347456,4.48380916684" />
		<polygon id="polygon75" points="0.89360808152,7.52093335455 2.69484161712,8.18852564887 2.29114102704,6.37999568348" />
		<polygon id="polygon77" points="24.368517047,18.5200774054 26.2174096801,18.5888001416 25.4618728118,17.1231826047" />
		<polygon id="polygon79" points="16.6337258802,26.5964014114 17.9436501907,25.5683653783 16.5734511393,25.0010521786" />
		<polygon id="polygon81" points="46.6498459693,1.98103931555 47.4158958738,3.32463893311 48.2779648422,1.68791580817" />
		<polygon id="polygon83" points="29.1316233147,0.07433401276 27.5784974334,1.20545415009 29.1764789358,1.81484249438" />
		<polygon id="polygon85" points="46.989066604,23.7689516942 46.5699468942,25.0964225064 48.1777405637,24.6658535266" />
		<polygon id="polygon87" points="48.1125597393,20.8110690289 49.1975050751,22.0635058331 49.64325781,20.2325357906" />
		<polygon id="polygon89" points="26.9827587154,22.0452732705 26.348472198,23.7016314629 28.135688352,23.2233773193" />
		<polygon id="polygon91" points="37.6009252774,0.57362572868 37.4446314726,2.21455636808 39.1190077047,1.63111436296" />
		<polygon id="polygon93" points="41.6379311782,4.61283961028 40.0827026897,5.46416003602 41.7535745764,6.25797776414" />
		<polygon id="polygon95" points="31.7465658522,1.33869210799 33.023549316,2.67808421109 33.5036446358,1.10026628859" />
		<polygon id="polygon97" points="30.2502103664,6.23694019184 31.8243623201,5.26500435158 30.3812728844,4.46768036141" />
		<polygon id="polygon99" points="39.4953744007,8.59384954185 40.5137371739,10.0454420305 41.1164845827,8.29651852001" />
		<polygon id="polygon101" points="42.2624055285,11.3420577366 44.0236895266,11.5447196831 43.116064068,9.93183914013" />
		<polygon id="polygon103" points="46.1438184936,11.7536929013 47.575694024,10.9367338437 46.1354080646,9.90308779132" />
		<polygon id="polygon105" points="49.634146512,14.0944734459 49.660779537,12.2445695883 48.2134848868,13.0327772971" />
		<polygon id="polygon107" points="46.1900758528,17.3566996572 46.8776284203,15.6386312527 45.2446034639,15.8567207522" />
		<polygon id="polygon109" points="28.2162882962,9.94586418833 27.2967480633,11.5306946349 29.2577797491,11.7186302808" />
		<polygon id="polygon111" points="36.965937891,13.5061226739 38.5393889756,12.5341868336 37.0970004089,11.7375640959" />
		<polygon id="polygon113" points="45.96369514,20.7542675837 44.6649847348,20.0375876206 44.5472387293,21.6294305913" />
		<polygon id="polygon115" points="39.5633587014,23.8622182648 40.0182227344,22.2773878182 38.2653491653,22.543863734" />
		<polygon id="polygon117" points="32.7074573609,23.9000858949 32.1853098963,22.3362930206 30.8915055746,23.5494596899" />
		<polygon id="polygon119" points="38.7075975548,14.9962840451 37.5714887761,16.357414973 39.4168770637,16.4850429116" />
		<polygon id="polygon121" points="42.0766752223,15.6954326979 43.1854501069,14.2136863556 41.5517242814,14.0012068754" />
		<polygon id="polygon123" points="42.0570508881,17.9541667105 40.2873564611,19.3629828022 42.3373985201,20.3419311666" />
		<polygon id="polygon125" points="29.273899738,20.2100957135 30.9055229562,19.3391402203 29.5156995706,18.452757174" />
		<polygon id="polygon127" points="37.0808804201,18.5298949391 36.0176620257,17.2704456108 35.2635268956,18.8756123773" />
		<polygon id="polygon129" points="35.5620971237,22.7374093991 36.4914495238,21.1378526519 34.8437063167,21.1161138272" />
		<polygon id="polygon131" points="44.0881694819,4.14019548594 44.1554529136,5.91226032601 45.6111579928,4.77062140253" />
		<polygon id="polygon133" points="36.3400618025,3.18018093665 35.2901599207,4.60933334823 37.1390525537,4.62195589161" />
		<polygon id="polygon135" points="35.4310346058,7.48096196718 36.0835437192,9.21235416747 37.141155161,7.94799607224" />
		<polygon id="polygon137" points="32.2385759464,12.6730348108 33.6963836328,13.4423087046 33.7931035658,11.6709451169" />
		<polygon id="polygon139" points="31.9182787768,7.86665079268 30.8291282265,9.33928085368 32.7565181965,9.74390349425" />
		<polygon id="polygon141" points="31.42066173,16.1105741246 32.4341184197,17.4106960928 33.2492291597,15.8363844323" />
		<polygon id="polygon143" points="26.8460892448,14.1302373188 27.6030278512,15.5944523509 28.6935801397,14.1961550453" />
		<polygon id="polygon145" points="47.7614243302,6.34843932503 47.2911411775,8.05809270061 49.0229886742,7.41013547377" />
		<polygon id="polygon147" points="26.3085226605,2.94596263171 25.5971405443,4.40597014933 27.3198767429,4.27132968661" />
		<polygon id="polygon149" points="25.9777124547,7.45150936596 27.5981217677,8.05248268133 27.2350715842,6.42487583772" />
		<polygon id="polygon151" points="42.652088737,25.8467625851 44.1077938162,24.7044224092 42.5848053053,24.0739964926" />
		<polyline id="polyline153" points="4.52000001316e-09,42.9685414276 0.86206897292,43.0007990385 0.10653210468,41.5351815016 4.52000001316e-09,41.6712244691" />
		<polyline id="polyline155" points="50.0000001717,16.7010286539 49.0145782452,17.9611792346 50.0000001717,17.9976443599" />
		<polyline id="polyline157" points="50.0000001717,41.672626974 49.0145782452,42.9320763023 50.0000001717,42.9685414276" />
		<polygon id="polygon159" points="21.6617606601,27.9385985241 22.6198486924,26.1195497726 20.810905597,26.4449308908" />
		<polygon id="polygon161" points="4.84090274008,26.5360937041 4.80095320252,24.9694958202 3.40271938792,25.9877143195" />
		<polygon id="polygon163" points="22.7782451045,48.3836125377 21.5895711448,47.4860094529 21.170451435,48.8141815174" />
		<polygon id="polygon165" points="24.5142978157,46.7223455784 24.9158957985,45.0751036673 23.5379871872,45.5947317031" />
		<polygon id="polygon167" points="2.85534063644,48.5084354666 1.70241099984,47.3303314178 1.06812448244,48.9866896103" />
		<polygon id="polygon169" points="14.1855901837,28.2892247291 12.8195963468,27.3369239563 12.6787216617,28.8144627842" />
		<polygon id="polygon171" points="15.939865491,29.5662053677 14.3839361334,30.416824541 16.0548080201,31.2113435216" />
		<polygon id="polygon173" points="9.16316235644,26.0683583466 9.59489770972,24.6490234688 8.01373706524,24.8629054538" />
		<polygon id="polygon175" points="5.05677041672,29.8929889908 4.92570789876,31.6622488212 6.49985985244,30.6896117285" />
		<polygon id="polygon177" points="15.7232969452,33.5521240662 14.1021867632,33.849455088 15.1205495364,35.3017488291" />
		<polygon id="polygon179" points="18.3487525189,34.24285769 17.4943931104,35.6530762865 19.2556771084,35.855738233" />
		<polygon id="polygon181" points="21.538407702,34.8305072096 21.546818131,36.6811123196 22.9786936614,35.8648545143" />
		<polygon id="polygon183" points="24.6537707626,39.7035102067 24.6804037876,37.8529050967 23.2331091374,38.6411128055" />
		<polygon id="polygon185" points="22.4264088264,40.9398182055 20.9566863656,41.1361688803 21.8082422978,42.4860797696" />
		<polygon id="polygon187" points="3.56602188356,34.4055482491 2.6464816506,35.9903786957 4.60751333644,36.1783143416" />
		<polygon id="polygon189" points="13.6150827526,37.6502431502 12.172694186,36.85291916 12.041631668,38.6221789905" />
		<polygon id="polygon191" points="21.0092515466,44.7146599285 19.7105411414,43.9972787131 19.5927951359,45.5898229362" />
		<polygon id="polygon193" points="14.5388282,48.6900598408 14.9481357428,47.2644136913 13.3704794437,47.5042420155" />
		<polygon id="polygon195" points="7.06055511644,48.2749184141 6.53770678276,46.7111255398 5.24390246108,47.9235909567" />
		<polygon id="polygon197" points="14.7988506287,42.0218506741 14.0902719888,40.5330918077 12.9534623411,41.8949239879" />
		<polygon id="polygon199" points="17.6801234166,40.3521686859 18.7888983012,38.871123596 17.1544716066,38.6579428634" />
		<polygon id="polygon201" points="15.2172694695,44.6319121442 16.7696944817,45.2342879643 16.5566302814,43.7651641654" />
		<polygon id="polygon203" points="5.14788339712,43.8254718727 3.75806001148,42.9390888264 3.5155593098,44.6964273659" />
		<polygon id="polygon205" points="9.92921226088,42.1782299616 9.17577799988,43.7833967281 10.9924306552,43.4376792899" />
		<polygon id="polygon207" points="9.75189238364,48.0778664869 10.6805439146,46.4783097397 9.03280070756,46.456570915" />
		<polygon id="polygon209" points="19.0047659778,29.0732249235 19.0797589694,31.0423416908 20.6966639369,29.7737760811" />
		<polygon id="polygon211" points="10.0140174196,29.2646668314 9.21432579928,27.8228918765 8.16442391744,29.252044288" />
		<polygon id="polygon213" points="12.5567704418,32.2842597089 10.8466498866,31.8172256038 11.4991590001,33.5486178041" />
		<polygon id="polygon215" points="9.04611722008,38.9251200316 9.14283715312,37.1537564439 7.58830953368,38.1558461378" />
		<polygon id="polygon217" points="7.94154755,32.559851906 6.96103170708,33.8852189609 8.69568268008,34.2498702141" />
		<polygon id="polygon219" points="5.43523971992,40.5155604975 6.4486964096,41.8156824656 7.26380714964,40.2413708051" />
		<polygon id="polygon221" points="1.37931035396,38.5296136723 2.13624896036,39.9938287044 3.22750211792,38.5962326513" />
		<polygon id="polygon223" points="22.7284833998,31.1615546005 22.2049341971,33.0612473792 24.1302215598,32.3403599017" />
		<polygon id="polygon225" points="2.62125036372,28.5227417816 1.6091954122,27.1980759791 0.89851416508,28.6580834968" />
		<polygon id="polygon227" points="2.50490609644,33.1979915991 2.141855913,31.5703847555 0.8837959144,32.5970182837" />
		<polygon id="polygon229" points="25.6539109398,41.9299866084 24.6705916205,43.1873321796 26.3344548164,43.2490423916" />
		<polygon id="polygon231" points="47.3030559519,28.9512070041 48.1658257894,27.3137826268 46.5377069165,27.6069061342" />
		<polygon id="polygon233" points="29.1379311364,27.2373461141 29.0930755153,25.4968376325 27.539248765,26.6279577698" />
		<polygon id="polygon235" points="47.3100646427,48.2538808418 45.990328165,47.2566999148 45.5242502268,48.7321349854" />
		<polygon id="polygon237" points="49.2290441837,46.7090217826 49.6747969186,44.8780517401 48.144799717,45.4565849783" />
		<polygon id="polygon239" points="28.3557612432,48.3471474123 27.2028316066,47.1683421111 26.5692459582,48.8247003035" />
		<polygon id="polygon241" points="38.7314271035,25.8145049742 38.5751332986,27.456136866 40.2495095308,26.8719936085" />
		<polygon id="polygon243" points="41.171152371,29.6826132678 39.6152230134,30.5339336935 41.2860949001,31.3277514216" />
		<polygon id="polygon245" points="32.0213065316,26.7829345524 33.2982899953,28.1216254031 33.7783853151,26.544508733" />
		<polygon id="polygon247" points="30.1759182439,29.9638154842 30.044855726,31.7330753146 31.6183068106,30.7611394744" />
		<polygon id="polygon249" points="38.7643679502,35.0913731061 39.7820298544,36.5436668472 40.3854781323,34.7940420843" />
		<polygon id="polygon251" points="43.9536026186,35.3262926635 43.04597716,33.7134121205 42.1923186205,35.1243319694" />
		<polygon id="polygon253" points="46.6288198969,36.1180066343 48.0613962964,35.3017488291 46.621110337,34.2674015244" />
		<polygon id="polygon255" points="48.7447436494,37.4433736892 47.2974489992,38.2322826505 48.7174097553,39.2939787992" />
		<polygon id="polygon257" points="45.8417439201,42.4313820816 46.4606113177,40.8851205175 44.9901879879,41.0807699399" />
		<polygon id="polygon259" points="26.952621345,36.4861641496 28.9129521618,36.6740997955 27.872161578,34.901333703" />
		<polygon id="polygon261" points="36.511073858,37.3893772537 36.3800113401,39.1586370841 37.9534624247,38.1867012438" />
		<polygon id="polygon263" points="44.8647324226,44.9453719714 43.4216429868,44.1487492337 43.2905804689,45.9180090641" />
		<polygon id="polygon265" points="39.4463135651,49.2237129248 39.9018784671,47.6388824782 38.149004898,47.905358394" />
		<polygon id="polygon267" points="32.9927110764,48.8590616716 32.4698627428,47.2952687973 31.1760584211,48.5084354666" />
		<polygon id="polygon269" points="40.0777966062,41.6943657987 39.3685170972,40.2056069322 38.2324083185,41.56673786" />
		<polygon id="polygon271" points="42.626156581,40.5681544282 43.7349314656,39.0871093383 42.100504771,38.8746298581" />
		<polygon id="polygon273" points="40.8865995245,43.8647420076 39.3979535986,44.828262819 41.1220915354,45.4965563657" />
		<polygon id="polygon275" points="30.8795908002,44.5765132038 29.4897674146,43.6901301575 29.2472667129,45.4467674446" />
		<polygon id="polygon277" points="36.011354204,43.4797544345 34.9481358096,42.2196038538 34.1940006796,43.8254718727" />
		<polygon id="polygon279" points="35.5782171126,47.7798342126 36.5075695126,46.1802774654 34.8598263056,46.1585386407" />
		<polygon id="polygon281" points="44.0384077772,28.9974896632 44.106392078,30.7702557557 45.5613962881,29.6279155798" />
		<polygon id="polygon283" points="37.0808804201,29.8670426516 36.2811887998,28.4252676966 35.231286918,29.8544201082" />
		<polygon id="polygon285" points="36.4970564764,33.6657269566 37.5539670491,32.4006676089 35.844547363,31.9336335039" />
		<polygon id="polygon287" points="33.0894310095,36.9202393914 31.53490339,37.9216278329 32.9927110764,38.6909017266" />
		<polygon id="polygon289" points="32.9394450264,33.0275872635 31.9582283144,34.3529543184 33.6935801564,34.7176055716" />
		<polygon id="polygon291" points="32.1166247264,42.6648991341 32.9317354665,41.0898862212 31.1024671677,41.364777166" />
		<polygon id="polygon293" points="27.3668349713,39.4945369885 28.1237735777,40.9587520206 29.2150267352,39.5611559674" />
		<polygon id="polygon295" points="48.0172415444,30.892273675 47.5462575226,32.6019270506 49.2788058884,31.9532685714" />
		<polygon id="polygon297" points="26.6379311281,29.02273475 25.5137371238,27.5508059414 24.7231568015,29.1728027657" />
		<polygon id="polygon299" points="27.2932437179,31.3473864891 25.8957107724,32.4876229078 27.696944308,33.1552152021" />
		<polyline id="polyline301" points="18.8379591368,1.25729999212e-06 17.5252313499,1.03014104759 17.4859826814,1.25729999212e-06" />
		<polyline id="polyline303" points="43.8393609585,1.25729999212e-06 42.5266331717,1.03014104759 42.4873845032,1.25729999212e-06" />
		<polyline id="polyline305" points="18.8281469696,49.9999993427 18.98023556,49.8800851806 17.4579479182,49.249659264 17.4859826814,49.9999993427" />
		<polyline id="polyline307" points="43.8295487914,49.9999993427 43.9816373818,49.8800851806 42.45934974,49.249659264 42.4880853723,49.9999993427" />
	</g>
</svg>
