<?xml version="1.0" encoding="UTF-8" standalone="no"?>
<svg xmlns:dc="http://purl.org/dc/elements/1.1/" xmlns:cc="http://creativecommons.org/ns#" xmlns:rdf="http://www.w3.org/1999/02/22-rdf-syntax-ns#" xmlns:svg="http://www.w3.org/2000/svg" xmlns="http://www.w3.org/2000/svg" version="1.1" x="0px" y="0px" xml:space="preserve" width="50.00" height="50.00" viewBox="0 0 50.00 50.00">
	<metadata id="metadata2">
		<rdf:RDF>
			<ns:item rdf:ID="biblio1">
				<ns:link>rdf:resource=&quot;http://pubs.usgs.gov/tm/2006/11A02/</ns:link>
				<ns:title>U.S. Geological Survey, 2006, FGDC Digital Cartographic Standard for Geologic Map Symbolization (PostScript Implementation): U.S. Geological Survey Techniques and Methods 11-A2</ns:title>
			</ns:item>
			<ns:item rdf:ID="biblio2">
				<ns:link>https://davenquinn.com/projects/geologic-patterns/</ns:link>
				<ns:title>FGDC Geologic Patterns for the Web</ns:title>
			</ns:item>
			<rdf:Description>
				<dc:description>
					Converted from 'FGDC Geologic Patterns for the Web' to QGIS compatible svg symbols, with customisable fill colour/stroke colour/stroke width (when appropriate).
					SVG scaled to 50x50 pixels so that base outline-width is 0.387 px and width is 90 in the QGIS xml definition file. 
					Some of the original FGDC symbols have been omitted from this set because they can be generated from other symbols using the 'texture width' and/or 'stroke width' fields in QGIS symbology form.
				</dc:description>
				<dc:date>01 MARCH 2019</dc:date>
				<dc:creator>GeoProc.com</dc:creator>
				<dc:publisher rdf:resource="https://github.com/BC-Consulting/QGIS-FGDC-Fill" />
			</rdf:Description>
			<cc:Work rdf:about="">
				<dc:format>image/svg+xml</dc:format>
				<dc:type rdf:resource="http://purl.org/dc/dcmitype/StillImage" />
				<dc:title>FGDC fill symbol: Misc. and Metamorphic - 402</dc:title>
			</cc:Work>
		</rdf:RDF>
	</metadata>
	<path style="fill:none;stroke:none;stroke-width:0;" id="rect1500" width="50.00" height="50.00" x="0.0" y="0.0" />
	<g fill="param(outline) #000;" style="stroke:none;stroke-width:0;">
		<path id="path5" d="M0.0 16.690042C0.0 16.690042 0.10513036 16.563815 0.10513036 16.563815C0.10513036 16.563815 0.86206897 18.036466 0.86206897 18.036466C0.86206897 18.036466 0.0 17.99439 0.0 17.99439" />
		<path id="path7" d="M23.268853 1.6830295C23.268853 1.6830295 21.656854 1.9845722 21.656854 1.9845722C21.656854 1.9845722 22.413793 3.3169705 22.413793 3.3169705C22.413793 3.3169705 23.268853 1.6830295 23.268853 1.6830295M4.0650407 1.7110799C4.0650407 1.7110799 4.0370057 0.14025245 4.0370057 0.14025245C4.0370057 0.14025245 2.6352675 1.1640954 2.6352675 1.1640954C2.6352675 1.1640954 4.0650407 1.7110799 4.0650407 1.7110799M19.932717 23.856942C19.932717 23.856942 21.719933 23.380084 21.719933 23.380084C21.719933 23.380084 20.388281 22.384292 20.388281 22.384292C20.388281 22.384292 19.932717 23.856942 19.932717 23.856942M23.086627 21.248247C23.086627 21.248247 24.172974 22.510519 24.172974 22.510519C24.172974 22.510519 24.614522 20.673212 24.614522 20.673212C24.614522 20.673212 23.086627 21.248247 23.086627 21.248247M3.1328848 23.408135C3.1328848 23.408135 1.9764508 22.230014 1.9764508 22.230014C1.9764508 22.230014 1.3456686 23.884993 1.3456686 23.884993C1.3456686 23.884993 3.1328848 23.408135 3.1328848 23.408135M14.718251 1.5568022C14.718251 1.5568022 13.176339 0.50490884 13.176339 0.50490884C13.176339 0.50490884 13.022147 2.1388499 13.022147 2.1388499C13.022147 2.1388499 14.718251 1.5568022 14.718251 1.5568022M16.288197 5.0631136C16.288197 5.0631136 16.176058 3.4151473 16.176058 3.4151473C16.176058 3.4151473 14.620129 4.256662 14.620129 4.256662C14.620129 4.256662 16.288197 5.0631136 16.288197 5.0631136M8.5015419 1.1009818C8.5015419 1.1009818 6.7493692 1.3394109 6.7493692 1.3394109C6.7493692 1.3394109 8.0109336 2.6858345 8.0109336 2.6858345C8.0109336 2.6858345 8.5015419 1.1009818 8.5015419 1.1009818M5.3826745 4.3478261C5.3826745 4.3478261 5.2425007 6.1220196 5.2425007 6.1220196C5.2425007 6.1220196 6.8264648 5.1402525 6.8264648 5.1402525C6.8264648 5.1402525 5.3826745 4.3478261 5.3826745 4.3478261M15.699467 8.345021C15.699467 8.345021 13.898234 8.6816269 13.898234 8.6816269C13.898234 8.6816269 15.019624 10.29453 15.019624 10.29453C15.019624 10.29453 15.699467 8.345021 15.699467 8.345021M18.061396 9.8527349C18.061396 9.8527349 17.206336 11.255259 17.206336 11.255259C17.206336 11.255259 18.958509 11.465638 18.958509 11.465638C18.958509 11.465638 18.061396 9.8527349 18.061396 9.8527349M21.502663 9.4880785C21.502663 9.4880785 21.516683 11.339411 21.516683 11.339411C21.516683 11.339411 22.946456 10.518934 22.946456 10.518934C22.946456 10.518934 21.502663 9.4880785 21.502663 9.4880785M24.25007 13.001403C24.25007 13.001403 22.813288 13.786816 22.813288 13.786816C22.813288 13.786816 24.229044 14.83871 24.229044 14.83871C24.229044 14.83871 24.25007 13.001403 24.25007 13.001403M19.988786 16.584853C19.988786 16.584853 20.934959 18.085554 20.934959 18.085554C20.934959 18.085554 21.621811 16.360449 21.621811 16.360449C21.621811 16.360449 19.988786 16.584853 19.988786 16.584853M4.170171 11.816269C4.170171 11.816269 3.1188674 10.042076 3.1188674 10.042076C3.1188674 10.042076 2.2077376 11.626928 2.2077376 11.626928C2.2077376 11.626928 4.170171 11.816269 4.170171 11.816269M11.634427 11.640954C11.634427 11.640954 11.494253 13.415147 11.494253 13.415147C11.494253 13.415147 13.071208 12.447405 13.071208 12.447405C13.071208 12.447405 11.634427 11.640954 11.634427 11.640954M18.173535 19.600281C18.173535 19.600281 18.033361 21.374474 18.033361 21.374474C18.033361 21.374474 19.617325 20.392707 19.617325 20.392707C19.617325 20.392707 18.173535 19.600281 18.173535 19.600281M12.068966 23.464236C12.068966 23.464236 13.365573 24.782609 13.365573 24.782609C13.365573 24.782609 13.821138 23.197756 13.821138 23.197756C13.821138 23.197756 12.068966 23.464236 12.068966 23.464236M5.9573872 22.265077C5.9573872 22.265077 7.7796468 22.615708 7.7796468 22.615708C7.7796468 22.615708 7.253995 21.051893 7.253995 21.051893C7.253995 21.051893 5.9573872 22.265077 5.9573872 22.265077M13.120269 16.865358C13.120269 16.865358 15.166807 17.00561 15.166807 17.00561C15.166807 17.00561 14.381833 15.350631 14.381833 15.350631C14.381833 15.350631 13.120269 16.865358 13.120269 16.865358M16.932997 13.625526C16.932997 13.625526 17.458649 15.308555 17.458649 15.308555C17.458649 15.308555 18.580039 13.835905 18.580039 13.835905C18.580039 13.835905 16.932997 13.625526 16.932997 13.625526M15.41912 21.107994C15.41912 21.107994 15.173816 19.467041 15.173816 19.467041C15.173816 19.467041 13.687973 20.434783 13.687973 20.434783C13.687973 20.434783 15.41912 21.107994 15.41912 21.107994M4.0860667 18.513324C4.0860667 18.513324 3.8407625 20.280505 3.8407625 20.280505C3.8407625 20.280505 5.4737875 19.403927 5.4737875 19.403927C5.4737875 19.403927 4.0860667 18.513324 4.0860667 18.513324M9.4757499 18.443194C9.4757499 18.443194 11.29801 18.092563 11.29801 18.092563C11.29801 18.092563 10.22568 16.830291 10.22568 16.830291C10.22568 16.830291 9.4757499 18.443194 9.4757499 18.443194M10.681245 22.089758C10.681245 22.089758 11.613401 20.497892 11.613401 20.497892C11.613401 20.497892 9.9593496 20.469842 9.9593496 20.469842C9.9593496 20.469842 10.681245 22.089758 10.681245 22.089758M20.535464 4.8176678C20.535464 4.8176678 19.007569 4.1865318 19.007569 4.1865318C19.007569 4.1865318 19.077659 5.9537127 19.077659 5.9537127C19.077659 5.9537127 20.535464 4.8176678 20.535464 4.8176678M12.033922 4.740533C12.033922 4.740533 11.234931 3.2959327 11.234931 3.2959327C11.234931 3.2959327 10.183628 4.7265077 10.183628 4.7265077C10.183628 4.7265077 12.033922 4.740533 12.033922 4.740533M10.127558 6.802244C10.127558 6.802244 10.779366 8.5413745 10.779366 8.5413745C10.779366 8.5413745 11.83067 7.2791024 11.83067 7.2791024C11.83067 7.2791024 10.127558 6.802244 10.127558 6.802244M8.7748809 11.661992C8.7748809 11.661992 7.2189515 12.664797 7.2189515 12.664797C7.2189515 12.664797 8.6767592 13.436185 8.6767592 13.436185C8.6767592 13.436185 8.7748809 11.661992 8.7748809 11.661992M5.8172133 9.3408135C5.8172133 9.3408135 7.751612 9.7475456 7.751612 9.7475456C7.751612 9.7475456 6.9105691 7.8681627 6.9105691 7.8681627C6.9105691 7.8681627 5.8172133 9.3408135 5.8172133 9.3408135M5.7961873 15.890603C5.7961873 15.890603 6.8124474 17.194951 6.8124474 17.194951C6.8124474 17.194951 7.6254556 15.617111 7.6254556 15.617111C7.6254556 15.617111 5.7961873 15.890603 5.7961873 15.890603M3.6024671 14.186536C3.6024671 14.186536 1.7591814 14.11641 1.7591814 14.11641C1.7591814 14.11641 2.5301374 15.58906 2.5301374 15.58906C2.5301374 15.58906 3.6024671 14.186536 3.6024671 14.186536M24.053827 7.3141655C24.053827 7.3141655 22.792262 6.2482468 22.792262 6.2482468C22.792262 6.2482468 22.32268 7.9663394 22.32268 7.9663394C22.32268 7.9663394 24.053827 7.3141655 24.053827 7.3141655M0.63078217 4.4880785C0.63078217 4.4880785 2.3619288 4.3478261 2.3619288 4.3478261C2.3619288 4.3478261 1.3526773 3.0154278 1.3526773 3.0154278C1.3526773 3.0154278 0.63078217 4.4880785 0.63078217 4.4880785M2.2918419 6.3814867C2.2918419 6.3814867 0.89010373 7.5245442 0.89010373 7.5245442C0.89010373 7.5245442 2.6913373 8.1907433 2.6913373 8.1907433C2.6913373 8.1907433 2.2918419 6.3814867 2.2918419 6.3814867M25.462574 17.124825C25.462574 17.124825 24.369218 18.527349 24.369218 18.527349C24.369218 18.527349 26.219512 18.597479 26.219512 18.597479C26.219512 18.597479 25.462574 17.124825 25.462574 17.124825M16.575554 25.0C16.575554 25.0 16.631624 26.598878 16.631624 26.598878C16.631624 26.598878 17.942249 25.568022 17.942249 25.568022C17.942249 25.568022 16.575554 25.0 16.575554 25.0M48.275862 1.6830295C48.275862 1.6830295 46.649846 1.9845722 46.649846 1.9845722C46.649846 1.9845722 47.420802 3.3169705 47.420802 3.3169705C47.420802 3.3169705 48.275862 1.6830295 48.275862 1.6830295M29.17718 1.8232819C29.17718 1.8232819 29.12812 0.07012623 29.12812 0.07012623C29.12812 0.07012623 27.586208 1.2061711 27.586208 1.2061711C27.586208 1.2061711 29.17718 1.8232819 29.17718 1.8232819M48.17774 24.663394C48.17774 24.663394 46.986263 23.772791 46.986263 23.772791C46.986263 23.772791 46.565742 25.105189 46.565742 25.105189C46.565742 25.105189 48.17774 24.663394 48.17774 24.663394M49.642557 20.231417C49.642557 20.231417 48.114662 20.813464 48.114662 20.813464C48.114662 20.813464 49.194001 22.061711 49.194001 22.061711C49.194001 22.061711 49.642557 20.231417 49.642557 20.231417M28.132885 23.225806C28.132885 23.225806 26.983459 22.047686 26.983459 22.047686C26.983459 22.047686 26.352677 23.702665 26.352677 23.702665C26.352677 23.702665 28.132885 23.225806 28.132885 23.225806M39.108495 1.6339411C39.108495 1.6339411 37.608635 0.58204769 37.608635 0.58204769C37.608635 0.58204769 37.447435 2.2159888 37.447435 2.2159888C37.447435 2.2159888 39.108495 1.6339411 39.108495 1.6339411M41.750771 6.2552595C41.750771 6.2552595 41.638632 4.6143058 41.638632 4.6143058C41.638632 4.6143058 40.09672 5.4558205 40.09672 5.4558205C40.09672 5.4558205 41.750771 6.2552595 41.750771 6.2552595M33.501542 1.1009818C33.501542 1.1009818 31.749369 1.3394109 31.749369 1.3394109C31.749369 1.3394109 33.024951 2.6858345 33.024951 2.6858345C33.024951 2.6858345 33.501542 1.1009818 33.501542 1.1009818M30.382675 4.4670407C30.382675 4.4670407 30.242501 6.2342216 30.242501 6.2342216C30.242501 6.2342216 31.826465 5.2524544 31.826465 5.2524544C31.826465 5.2524544 30.382675 4.4670407 30.382675 4.4670407M41.11298 8.2959327C41.11298 8.2959327 39.500981 8.5974755 39.500981 8.5974755C39.500981 8.5974755 40.510233 10.049088 40.510233 10.049088C40.510233 10.049088 41.11298 8.2959327 41.11298 8.2959327M43.117466 9.9298738C43.117466 9.9298738 42.262405 11.332398 42.262405 11.332398C42.262405 11.332398 44.014578 11.542777 44.014578 11.542777C44.014578 11.542777 43.117466 9.9298738 43.117466 9.9298738M46.138211 9.9018238C46.138211 9.9018238 46.138211 11.753156 46.138211 11.753156C46.138211 11.753156 47.574993 10.939691 47.574993 10.939691C47.574993 10.939691 46.138211 9.9018238 46.138211 9.9018238M48.219793 13.036467C48.219793 13.036467 49.635548 14.088359 49.635548 14.088359C49.635548 14.088359 49.663588 12.237028 49.663588 12.237028C49.663588 12.237028 48.219793 13.036467 48.219793 13.036467M45.241099 15.848527C45.241099 15.848527 46.187272 17.356241 46.187272 17.356241C46.187272 17.356241 46.874124 15.638149 46.874124 15.638149C46.874124 15.638149 45.241099 15.848527 45.241099 15.848527M29.254275 11.71108C29.254275 11.71108 28.216989 9.943899 28.216989 9.943899C28.216989 9.943899 27.305859 11.528752 27.305859 11.528752C27.305859 11.528752 29.254275 11.71108 29.254275 11.71108M37.097 11.73913C37.097 11.73913 36.956826 13.506311 36.956826 13.506311C36.956826 13.506311 38.540791 12.524544 38.540791 12.524544C38.540791 12.524544 37.097 11.73913 37.097 11.73913M44.547239 21.626928C44.547239 21.626928 45.962994 20.757363 45.962994 20.757363C45.962994 20.757363 44.666386 20.035063 44.666386 20.035063C44.666386 20.035063 44.547239 21.626928 44.547239 21.626928M38.267452 22.545582C38.267452 22.545582 39.564059 23.863955 39.564059 23.863955C39.564059 23.863955 40.019624 22.279102 40.019624 22.279102C40.019624 22.279102 38.267452 22.545582 38.267452 22.545582M30.894309 23.548387C30.894309 23.548387 32.716569 23.899018 32.716569 23.899018C32.716569 23.899018 32.183908 22.335203 32.183908 22.335203C32.183908 22.335203 30.894309 23.548387 30.894309 23.548387M39.416877 16.479663C39.416877 16.479663 38.716008 15.007013 38.716008 15.007013C38.716008 15.007013 37.573591 16.360449 37.573591 16.360449C37.573591 16.360449 39.416877 16.479663 39.416877 16.479663M41.547519 14.004208C41.547519 14.004208 42.073171 15.687237 42.073171 15.687237C42.073171 15.687237 43.194561 14.214586 43.194561 14.214586C43.194561 14.214586 41.547519 14.004208 41.547519 14.004208M42.094197 20.035063C42.094197 20.035063 41.869919 18.099579 41.869919 18.099579C41.869919 18.099579 40.433137 19.249649 40.433137 19.249649C40.433137 19.249649 42.094197 20.035063 42.094197 20.035063M29.506588 18.443198C29.506588 18.443198 29.275301 20.210379 29.275301 20.210379C29.275301 20.210379 30.901318 19.340813 30.901318 19.340813C30.901318 19.340813 29.506588 18.443198 29.506588 18.443198M35.253715 18.87798C35.253715 18.87798 37.075974 18.527349 37.075974 18.527349C37.075974 18.527349 36.024671 17.265077 36.024671 17.265077C36.024671 17.265077 35.253715 18.87798 35.253715 18.87798M34.833193 21.107994C34.833193 21.107994 35.562097 22.734923 35.562097 22.734923C35.562097 22.734923 36.487244 21.136045 36.487244 21.136045C36.487244 21.136045 34.833193 21.107994 34.833193 21.107994M45.61256 4.7685835C45.61256 4.7685835 44.084665 4.1374474 44.084665 4.1374474C44.084665 4.1374474 44.154755 5.911641 44.154755 5.911641C44.154755 5.911641 45.61256 4.7685835 45.61256 4.7685835M37.146061 4.628331C37.146061 4.628331 36.340062 3.1837307 36.340062 3.1837307C36.340062 3.1837307 35.288758 4.6072931 35.288758 4.6072931C35.288758 4.6072931 37.146061 4.628331 37.146061 4.628331M37.146061 7.9453015C37.146061 7.9453015 35.428932 7.4824684 35.428932 7.4824684C35.428932 7.4824684 36.08074 9.2145863 36.08074 9.2145863C36.08074 9.2145863 37.146061 7.9453015 37.146061 7.9453015M33.795907 11.669004C33.795907 11.669004 32.239978 12.671809 32.239978 12.671809C32.239978 12.671809 33.697785 13.443198 33.697785 13.443198C33.697785 13.443198 33.795907 11.669004 33.795907 11.669004M32.758621 9.7475456C32.758621 9.7475456 31.917578 7.8681627 31.917578 7.8681627C31.917578 7.8681627 30.831231 9.3408135 30.831231 9.3408135C30.831231 9.3408135 32.758621 9.7475456 32.758621 9.7475456M33.249229 15.834502C33.249229 15.834502 31.426969 16.115007 31.426969 16.115007C31.426969 16.115007 32.436221 17.412342 32.436221 17.412342C32.436221 17.412342 33.249229 15.834502 33.249229 15.834502M28.69358 14.200561C28.69358 14.200561 26.843286 14.130431 26.843286 14.130431C26.843286 14.130431 27.600224 15.603082 27.600224 15.603082C27.600224 15.603082 28.69358 14.200561 28.69358 14.200561M49.018783 7.4123422C49.018783 7.4123422 47.757219 6.3464236 47.757219 6.3464236C47.757219 6.3464236 47.287637 8.0575035 47.287637 8.0575035C47.287637 8.0575035 49.018783 7.4123422 49.018783 7.4123422M27.319877 4.2776999C27.319877 4.2776999 26.310625 2.9453015 26.310625 2.9453015C26.310625 2.9453015 25.595739 4.4039271 25.595739 4.4039271C25.595739 4.4039271 27.319877 4.2776999 27.319877 4.2776999M27.235767 6.4235624C27.235767 6.4235624 25.974203 7.454418 25.974203 7.454418C25.974203 7.454418 27.600219 8.0504909 27.600219 8.0504909C27.600219 8.0504909 27.235767 6.4235624 27.235767 6.4235624M42.5848 24.074334C42.5848 24.074334 42.65489 25.848527 42.65489 25.848527C42.65489 25.848527 44.105689 24.70547 44.105689 24.70547C44.105689 24.70547 42.5848 24.074334 42.5848 24.074334M0.0 42.966339C0.0 42.966339 0.86206897 43.001403 0.86206897 43.001403C0.86206897 43.001403 0.10513036 41.528752 0.10513036 41.528752C0.10513036 41.528752 0.0 41.669004 0.0 41.669004M50.0 16.704067C50.0 16.704067 49.018783 17.966339 49.018783 17.966339C49.018783 17.966339 50.0 17.99439 50.0 17.99439M50.0 41.669004C50.0 41.669004 49.018783 42.931276 49.018783 42.931276C49.018783 42.931276 50.0 42.966339 50.0 42.966339" />
		<path id="path9" d="M20.815812 26.437588C20.815812 26.437588 21.656854 27.938289 21.656854 27.938289C21.656854 27.938289 22.617045 26.115007 22.617045 26.115007C22.617045 26.115007 20.815812 26.437588 20.815812 26.437588M3.399215 25.98878C3.399215 25.98878 4.8430053 26.535764 4.8430053 26.535764C4.8430053 26.535764 4.8079619 24.97195 4.8079619 24.97195C4.8079619 24.97195 3.399215 25.98878 3.399215 25.98878M21.166246 48.807854C21.166246 48.807854 22.778245 48.387097 22.778245 48.387097C22.778245 48.387097 21.586768 47.489481 21.586768 47.489481C21.586768 47.489481 21.166246 48.807854 21.166246 48.807854M23.535184 45.596073C23.535184 45.596073 24.5164 46.718093 24.5164 46.718093C24.5164 46.718093 24.915896 45.077139 24.915896 45.077139C24.915896 45.077139 23.535184 45.596073 23.535184 45.596073M1.065321 48.990182C1.065321 48.990182 2.8525371 48.499299 2.8525371 48.499299C2.8525371 48.499299 1.7031119 47.328191 1.7031119 47.328191C1.7031119 47.328191 1.065321 48.990182 1.065321 48.990182M12.68573 28.821879C12.68573 28.821879 14.18559 28.28892 14.18559 28.28892C14.18559 28.28892 12.818895 27.335203 12.818895 27.335203C12.818895 27.335203 12.68573 28.821879 12.68573 28.821879M16.049902 31.206171C16.049902 31.206171 15.937763 29.565217 15.937763 29.565217C15.937763 29.565217 14.381833 30.420757 14.381833 30.420757C14.381833 30.420757 16.049902 31.206171 16.049902 31.206171M8.0109336 24.86676C8.0109336 24.86676 9.1603588 26.058906 9.1603588 26.058906C9.1603588 26.058906 9.5948977 24.656381 9.5948977 24.656381C9.5948977 24.656381 8.0109336 24.86676 8.0109336 24.86676M6.4970563 30.69425C6.4970563 30.69425 5.0462574 29.894811 5.0462574 29.894811C5.0462574 29.894811 4.9271096 31.661992 4.9271096 31.661992C4.9271096 31.661992 6.4970563 30.69425 6.4970563 30.69425M15.117746 35.301543C15.117746 35.301543 15.720493 33.548387 15.720493 33.548387C15.720493 33.548387 14.108495 33.84993 14.108495 33.84993C14.108495 33.84993 15.117746 35.301543 15.117746 35.301543M19.252874 35.85554C19.252874 35.85554 18.341744 34.242637 18.341744 34.242637C18.341744 34.242637 17.500701 35.645161 17.500701 35.645161C17.500701 35.645161 19.252874 35.85554 19.252874 35.85554M22.988506 35.86254C22.988506 35.86254 21.537707 34.831684 21.537707 34.831684C21.537707 34.831684 21.537707 36.683016 21.537707 36.683016C21.537707 36.683016 22.988506 35.86254 22.988506 35.86254M23.23381 38.639538C23.23381 38.639538 24.649565 39.705457 24.649565 39.705457C24.649565 39.705457 24.677605 37.854124 24.677605 37.854124C24.677605 37.854124 23.23381 38.639538 23.23381 38.639538M21.797028 42.496481C21.797028 42.496481 22.42781 40.939678 22.42781 40.939678C22.42781 40.939678 20.955985 41.136032 20.955985 41.136032C20.955985 41.136032 21.797028 42.496481 21.797028 42.496481M4.6047098 36.185133C4.6047098 36.185133 3.5744323 34.396914 3.5744323 34.396914C3.5744323 34.396914 2.6492851 35.981767 2.6492851 35.981767C2.6492851 35.981767 4.6047098 36.185133 4.6047098 36.185133M12.040931 38.625526C12.040931 38.625526 13.617886 37.643759 13.617886 37.643759C13.617886 37.643759 12.174096 36.851332 12.174096 36.851332C12.174096 36.851332 12.040931 38.625526 12.040931 38.625526M19.589291 45.582048C19.589291 45.582048 21.012055 44.712482 21.012055 44.712482C21.012055 44.712482 19.708438 43.997195 19.708438 43.997195C19.708438 43.997195 19.589291 45.582048 19.589291 45.582048M13.372582 47.503506C13.372582 47.503506 14.536025 48.695652 14.536025 48.695652C14.536025 48.695652 14.956546 47.265077 14.956546 47.265077C14.956546 47.265077 13.372582 47.503506 13.372582 47.503506M5.2425007 47.924264C5.2425007 47.924264 7.0647603 48.274895 7.0647603 48.274895C7.0647603 48.274895 6.5391085 46.71108 6.5391085 46.71108C6.5391085 46.71108 5.2425007 47.924264 5.2425007 47.924264M12.952061 41.893408C12.952061 41.893408 14.795346 42.019635 14.795346 42.019635C14.795346 42.019635 14.094477 40.532959 14.094477 40.532959C14.094477 40.532959 12.952061 41.893408 12.952061 41.893408M17.157275 38.660589C17.157275 38.660589 17.682927 40.343619 17.682927 40.343619C17.682927 40.343619 18.7903 38.870968 18.7903 38.870968C18.7903 38.870968 17.157275 38.660589 17.157275 38.660589M16.554528 43.758766C16.554528 43.758766 15.222876 44.635344 15.222876 44.635344C15.222876 44.635344 16.764788 45.231417 16.764788 45.231417C16.764788 45.231417 16.554528 43.758766 16.554528 43.758766M3.5043454 44.698457C3.5043454 44.698457 5.144379 43.828892 5.144379 43.828892C5.144379 43.828892 3.7566583 42.938289 3.7566583 42.938289C3.7566583 42.938289 3.5043454 44.698457 3.5043454 44.698457M10.989627 43.436185C10.989627 43.436185 9.9383235 42.173913 9.9383235 42.173913C9.9383235 42.173913 9.1673675 43.786816 9.1673675 43.786816C9.1673675 43.786816 10.989627 43.436185 10.989627 43.436185M9.0412111 46.458626C9.0412111 46.458626 9.7420802 48.071529 9.7420802 48.071529C9.7420802 48.071529 10.681245 46.479663 10.681245 46.479663C10.681245 46.479663 9.0412111 46.458626 9.0412111 46.458626M20.696664 29.775596C20.696664 29.775596 19.000561 29.074334 19.000561 29.074334C19.000561 29.074334 19.084661 31.037868 19.084661 31.037868C19.084661 31.037868 20.696664 29.775596 20.696664 29.775596M8.1651248 29.242637C8.1651248 29.242637 10.015419 29.263675 10.015419 29.263675C10.015419 29.263675 9.2094197 27.826087 9.2094197 27.826087C9.2094197 27.826087 8.1651248 29.242637 8.1651248 29.242637M11.494253 33.548387C11.494253 33.548387 12.559574 32.286115 12.559574 32.286115C12.559574 32.286115 10.842445 31.816269 10.842445 31.816269C10.842445 31.816269 11.494253 33.548387 11.494253 33.548387M7.5904121 38.148668C7.5904121 38.148668 9.0482198 38.920056 9.0482198 38.920056C9.0482198 38.920056 9.1463418 37.152875 9.1463418 37.152875C9.1463418 37.152875 7.5904121 38.148668 7.5904121 38.148668M8.6907766 34.249649C8.6907766 34.249649 7.9408466 32.56662 7.9408466 32.56662C7.9408466 32.56662 6.9596299 33.884993 6.9596299 33.884993C6.9596299 33.884993 8.6907766 34.249649 8.6907766 34.249649M7.2610036 40.238429C7.2610036 40.238429 5.438744 40.518934 5.438744 40.518934C5.438744 40.518934 6.4479955 41.816269 6.4479955 41.816269C6.4479955 41.816269 7.2610036 40.238429 7.2610036 40.238429M3.2239978 38.597475C3.2239978 38.597475 1.3807121 38.527349 1.3807121 38.527349C1.3807121 38.527349 2.1376507 40.0 2.1376507 40.0C2.1376507 40.0 3.2239978 38.597475 3.2239978 38.597475M24.130922 32.342216C24.130922 32.342216 22.729184 31.164095 22.729184 31.164095C22.729184 31.164095 22.203532 33.057504 22.203532 33.057504C22.203532 33.057504 24.130922 32.342216 24.130922 32.342216M0.89711242 28.660589C0.89711242 28.660589 2.6212504 28.520337 2.6212504 28.520337C2.6212504 28.520337 1.6049902 27.187938 1.6049902 27.187938C1.6049902 27.187938 0.89711242 28.660589 0.89711242 28.660589M0.88309502 32.59467C0.88309502 32.59467 2.4950939 33.197756 2.4950939 33.197756C2.4950939 33.197756 2.1446594 31.570827 2.1446594 31.570827C2.1446594 31.570827 0.88309502 32.59467 0.88309502 32.59467M26.331651 43.246844C26.331651 43.246844 25.651808 41.928471 25.651808 41.928471C25.651808 41.928471 24.670592 43.190743 24.670592 43.190743C24.670592 43.190743 26.331651 43.246844 26.331651 43.246844M46.537707 27.608696C46.537707 27.608696 47.308663 28.941094 47.308663 28.941094C47.308663 28.941094 48.163723 27.314165 48.163723 27.314165C48.163723 27.314165 46.537707 27.608696 46.537707 27.608696M27.544155 26.626928C27.544155 26.626928 29.135128 27.237027 29.135128 27.237027C29.135128 27.237027 29.093078 25.497896 29.093078 25.497896C29.093078 25.497896 27.544155 26.626928 27.544155 26.626928M45.521447 48.737728C45.521447 48.737728 47.308663 48.246844 47.308663 48.246844C47.308663 48.246844 45.991029 47.265077 45.991029 47.265077C45.991029 47.265077 45.521447 48.737728 45.521447 48.737728M48.149706 45.45582C48.149706 45.45582 49.229044 46.718093 49.229044 46.718093C49.229044 46.718093 49.6776 44.880785 49.6776 44.880785C49.6776 44.880785 48.149706 45.45582 48.149706 45.45582M26.562938 48.828892C26.562938 48.828892 28.357163 48.338008 28.357163 48.338008C28.357163 48.338008 27.200729 47.1669 27.200729 47.1669C27.200729 47.1669 26.562938 48.828892 26.562938 48.828892M40.250911 26.87237C40.250911 26.87237 38.730025 25.820477 38.730025 25.820477C38.730025 25.820477 38.575834 27.454418 38.575834 27.454418C38.575834 27.454418 40.250911 26.87237 40.250911 26.87237M41.281189 31.325386C41.281189 31.325386 41.16905 29.684432 41.16905 29.684432C41.16905 29.684432 39.61312 30.525947 39.61312 30.525947C39.61312 30.525947 41.281189 31.325386 41.281189 31.325386M33.78189 26.542777C33.78189 26.542777 32.029717 26.781206 32.029717 26.781206C32.029717 26.781206 33.291281 28.113604 33.291281 28.113604C33.291281 28.113604 33.78189 26.542777 33.78189 26.542777M31.609195 30.764376C31.609195 30.764376 30.172414 29.964937 30.172414 29.964937C30.172414 29.964937 30.046257 31.732118 30.046257 31.732118C30.046257 31.732118 31.609195 30.764376 31.609195 30.764376M40.384076 34.796634C40.384076 34.796634 38.772077 35.091164 38.772077 35.091164C38.772077 35.091164 39.781329 36.542777 39.781329 36.542777C39.781329 36.542777 40.384076 34.796634 40.384076 34.796634M42.192318 35.13324C42.192318 35.13324 43.944491 35.329593 43.944491 35.329593C43.944491 35.329593 43.047379 33.71669 43.047379 33.71669C43.047379 33.71669 42.192318 35.13324 42.192318 35.13324M46.621811 34.270687C46.621811 34.270687 46.621811 36.12202 46.621811 36.12202C46.621811 36.12202 48.058593 35.308555 48.058593 35.308555C48.058593 35.308555 46.621811 34.270687 46.621811 34.270687M48.710401 39.291725C48.710401 39.291725 48.745441 37.447405 48.745441 37.447405C48.745441 37.447405 47.294642 38.232819 47.294642 38.232819C47.294642 38.232819 48.710401 39.291725 48.710401 39.291725M44.995795 41.079944C44.995795 41.079944 45.836838 42.43338 45.836838 42.43338C45.836838 42.43338 46.46762 40.890603 46.46762 40.890603C46.46762 40.890603 44.995795 41.079944 44.995795 41.079944M27.873563 34.901823C27.873563 34.901823 26.948416 36.486676 26.948416 36.486676C26.948416 36.486676 28.910849 36.676017 28.910849 36.676017C28.910849 36.676017 27.873563 34.901823 27.873563 34.901823M37.952061 38.183731C37.952061 38.183731 36.50827 37.391304 36.50827 37.391304C36.50827 37.391304 36.368096 39.158485 36.368096 39.158485C36.368096 39.158485 37.952061 38.183731 37.952061 38.183731M43.292683 45.918654C43.292683 45.918654 44.86263 44.936886 44.86263 44.936886C44.86263 44.936886 43.425848 44.151473 43.425848 44.151473C43.425848 44.151473 43.292683 45.918654 43.292683 45.918654M38.148304 47.896213C38.148304 47.896213 39.444912 49.228612 39.444912 49.228612C39.444912 49.228612 39.900477 47.636746 39.900477 47.636746C39.900477 47.636746 38.148304 47.896213 38.148304 47.896213M31.174657 48.506311C31.174657 48.506311 32.996916 48.856942 32.996916 48.856942C32.996916 48.856942 32.471264 47.293128 32.471264 47.293128C32.471264 47.293128 31.174657 48.506311 31.174657 48.506311M38.232408 41.563815C38.232408 41.563815 40.075694 41.704067 40.075694 41.704067C40.075694 41.704067 39.374825 40.203366 39.374825 40.203366C39.374825 40.203366 38.232408 41.563815 38.232408 41.563815M42.101205 38.87798C42.101205 38.87798 42.626857 40.56101 42.626857 40.56101C42.626857 40.56101 43.73423 39.088359 43.73423 39.088359C43.73423 39.088359 42.101205 38.87798 42.101205 38.87798M41.119989 45.497896C41.119989 45.497896 40.888702 43.863955 40.888702 43.863955C40.888702 43.863955 39.395851 44.831697 39.395851 44.831697C39.395851 44.831697 41.119989 45.497896 41.119989 45.497896M29.247267 45.441796C29.247267 45.441796 30.880292 44.579244 30.880292 44.579244C30.880292 44.579244 29.492571 43.688641 29.492571 43.688641C29.492571 43.688641 29.247267 45.441796 29.247267 45.441796M34.202411 43.828893C34.202411 43.828893 36.010653 43.478262 36.010653 43.478262C36.010653 43.478262 34.945332 42.21599 34.945332 42.21599C34.945332 42.21599 34.202411 43.828893 34.202411 43.828893M34.861228 46.157084C34.861228 46.157084 35.576114 47.784012 35.576114 47.784012C35.576114 47.784012 36.50827 46.171109 36.50827 46.171109C36.50827 46.171109 34.861228 46.157084 34.861228 46.157084M45.55649 29.628332C45.55649 29.628332 44.035604 28.997196 44.035604 28.997196C44.035604 28.997196 44.105694 30.771389 44.105694 30.771389C44.105694 30.771389 45.55649 29.628332 45.55649 29.628332M35.232689 29.852736C35.232689 29.852736 37.082983 29.866766 37.082983 29.866766C37.082983 29.866766 36.291001 28.415153 36.291001 28.415153C36.291001 28.415153 35.232689 29.852736 35.232689 29.852736M35.842445 31.935485C35.842445 31.935485 36.494253 33.667603 36.494253 33.667603C36.494253 33.667603 37.545556 32.405331 37.545556 32.405331C37.545556 32.405331 35.842445 31.935485 35.842445 31.935485M32.989907 38.688641C32.989907 38.688641 33.088027 36.92146 33.088027 36.92146C33.088027 36.92146 31.546115 37.924265 31.546115 37.924265C31.546115 37.924265 32.989907 38.688641 32.989907 38.688641M33.690777 34.712483C33.690777 34.712483 32.940847 33.029454 32.940847 33.029454C32.940847 33.029454 31.95963 34.361852 31.95963 34.361852C31.95963 34.361852 33.690777 34.712483 33.690777 34.712483M31.10457 41.374475C31.10457 41.374475 32.113821 42.664798 32.113821 42.664798C32.113821 42.664798 32.940847 41.09397 32.940847 41.09397C32.940847 41.09397 31.10457 41.374475 31.10457 41.374475M29.212223 39.558206C29.212223 39.558206 27.368937 39.502106 27.368937 39.502106C27.368937 39.502106 28.125876 40.974757 28.125876 40.974757C28.125876 40.974757 29.212223 39.558206 29.212223 39.558206M49.271096 31.956523C49.271096 31.956523 48.009532 30.890604 48.009532 30.890604C48.009532 30.890604 47.546958 32.601684 47.546958 32.601684C47.546958 32.601684 49.271096 31.956523 49.271096 31.956523M24.719652 29.172512C24.719652 29.172512 26.640034 29.032259 26.640034 29.032259C26.640034 29.032259 25.518643 27.559608 25.518643 27.559608C25.518643 27.559608 24.719652 29.172512 24.719652 29.172512M27.698346 33.155681C27.698346 33.155681 27.291842 31.346425 27.291842 31.346425C27.291842 31.346425 25.890104 32.489482 25.890104 32.489482C25.890104 32.489482 27.698346 33.155681 27.698346 33.155681M18.839361 0.0C18.839361 0.0 17.521727 1.0308555 17.521727 1.0308555C17.521727 1.0308555 17.486687 0.0 17.486687 0.0M43.839365 0.0C43.839365 0.0 42.52874 1.0308555 42.52874 1.0308555C42.52874 1.0308555 42.48669 0.0 42.48669 0.0M18.82535 50.0C18.82535 50.0 18.979542 49.880785 18.979542 49.880785C18.979542 49.880785 17.458656 49.249649 17.458656 49.249649C17.458656 49.249649 17.493696 50.0 17.493696 50.0M43.825347 50.0C43.825347 50.0 43.979539 49.880785 43.979539 49.880785C43.979539 49.880785 42.458653 49.249649 42.458653 49.249649C42.458653 49.249649 42.486683 50.0 42.486683 50.0M0.0 16.690042C0.0 16.690042 0.0 17.99439 0.0 17.99439M50.0 17.99439C50.0 17.99439 50.0 16.704067 50.0 16.704067M17.486683 50.0C17.486683 50.0 18.818335 50.0 18.818335 50.0M0.0 42.966339C0.0 42.966339 0.0 41.669004 0.0 41.669004M42.486683 50.0C42.486683 50.0 43.818335 50.0 43.818335 50.0M50.0 42.966339C50.0 42.966339 50.0 41.669004 50.0 41.669004M43.839361 0.0C43.839361 0.0 42.486683 0.0 42.486683 0.0M18.839361 0.0C18.839361 0.0 17.486683 0.0 17.486683 0.0" />
	</g>
</svg>
