<?xml version="1.0" encoding="UTF-8" standalone="no"?>
<svg xmlns:dc="http://purl.org/dc/elements/1.1/" xmlns:cc="http://creativecommons.org/ns#" xmlns:rdf="http://www.w3.org/1999/02/22-rdf-syntax-ns#" xmlns:svg="http://www.w3.org/2000/svg" xmlns="http://www.w3.org/2000/svg" version="1.1" x="0px" y="0px" xml:space="preserve" width="50.00" height="50.00" viewBox="0 0 50.00 50.00">
	<metadata id="metadata2">
		<rdf:RDF>
			<ns:item rdf:ID="biblio1">
				<ns:link>rdf:resource=&quot;http://pubs.usgs.gov/tm/2006/11A02/</ns:link>
				<ns:title>U.S. Geological Survey, 2006, FGDC Digital Cartographic Standard for Geologic Map Symbolization (PostScript Implementation): U.S. Geological Survey Techniques and Methods 11-A2</ns:title>
			</ns:item>
			<ns:item rdf:ID="biblio2">
				<ns:link>https://davenquinn.com/projects/geologic-patterns/</ns:link>
				<ns:title>FGDC Geologic Patterns for the Web</ns:title>
			</ns:item>
			<rdf:Description>
				<dc:description>
					Converted from 'FGDC Geologic Patterns for the Web' to QGIS compatible svg symbols, with customisable fill colour/stroke colour/stroke width (when appropriate).
					SVG scaled to 50x50 pixels so that base outline-width is 0.387 px and width is 90 in the QGIS xml definition file. 
					Some of the original FGDC symbols have been omitted from this set because they can be generated from other symbols using the 'texture width' and/or 'stroke width' fields in QGIS symbology form.
				</dc:description>
				<dc:date>01 MARCH 2019</dc:date>
				<dc:creator>GeoProc.com</dc:creator>
				<dc:publisher rdf:resource="https://github.com/BC-Consulting/QGIS-FGDC-Fill" />
			</rdf:Description>
			<cc:Work rdf:about="">
				<dc:format>image/svg+xml</dc:format>
				<dc:type rdf:resource="http://purl.org/dc/dcmitype/StillImage" />
				<dc:title>FGDC fill symbol: Misc. and Metamorphic - 403</dc:title>
			</cc:Work>
		</rdf:RDF>
	</metadata>
	<path style="fill:none;stroke:none;stroke-width:0;" id="rect1500" width="50.00" height="50.00" x="0.0" y="0.0" />
	<g fill="param(outline) #000" style="stroke:none;stroke-width:0;">
		<polygon id="polygon5" points="0.3198134247,2.24270918148 1.1822705664,2.17459086364 0.6754182435,1.51245772328" />
		<polygon id="polygon7" points="0.4421969013,41.3051008194 1.2526987935,41.6058605109 1.0714327008,40.7919043401" />
		<polygon id="polygon9" points="0.4421969013,16.301637255 1.2526987935,16.6023969465 1.0714327008,15.7884407757" />
		<polygon id="polygon11" points="0.44854698735,39.334865067 1.3115814096,39.267324023 0.80530636725,38.6046136088" />
		<polygon id="polygon13" points="0.44854698735,14.3319787764 1.3115814096,14.2644377325 0.80530636725,13.6011500444" />
		<polygon id="polygon15" points="0.5345617893,49.5018126416 1.4281920807,49.2628212552 0.85148881125,48.6728473499" />
		<polygon id="polygon17" points="0.5345617893,24.4971945294 1.4281920807,24.258203143 0.85148881125,23.6699610593" />
		<polygon id="polygon19" points="0.6754182435,26.5153440138 0.3198134247,27.2461727459 1.1822705664,27.178631702" />
		<polygon id="polygon21" points="1.14590189175,28.1946337308 0.4468151457,28.7649803242 1.34795008425,29.0986446268" />
		<polygon id="polygon23" points="1.14590189175,3.19117016632 0.4468151457,3.76151675976 1.34795008425,4.0951810624" />
		<polygon id="polygon25" points="5.80455593025,22.7607546983 4.98019930485,22.7509410424 5.33926780695,23.5614335699" />
		<polygon id="polygon27" points="5.8097514552,10.2494978971 4.98481754925,10.2385296934 5.3444633319,11.0495994948" />
		<polygon id="polygon29" points="5.818987944,5.82469360688 5.7531779613,6.70907719104 6.5405886315,6.22301258408" />
		<polygon id="polygon31" points="5.9240530041,28.64086644 5.068523229,28.4076477925 5.3952640203,29.2735586125" />
		<polygon id="polygon33" points="6.02276797815,27.3749048212 5.622712557,26.6533124712 5.09796453705,27.3679775346" />
		<polygon id="polygon35" points="6.02276797815,2.37144125672 5.622712557,1.6504261806 5.09796453705,2.36509124404" />
		<polygon id="polygon37" points="6.0244998198,19.3144296347 6.81248777055,18.8283650278 6.09088708305,18.4300460506" />
		<polygon id="polygon39" points="6.0244998198,44.318470473 6.81248777055,43.8312513183 6.09088708305,43.433509615" />
		<polygon id="polygon41" points="6.03893183355,36.737132607 6.6883724523,37.3969566518 6.91639826955,36.6043596146" />
		<polygon id="polygon43" points="6.03893183355,11.7342463164 6.6883724523,12.3934930874 6.91639826955,11.6008960502" />
		<polygon id="polygon45" points="6.34373596395,39.4127970408 7.09766436225,39.1501374254 6.41416419105,38.6744637483" />
		<polygon id="polygon47" points="6.48112873485,45.954464649 7.40477761485,46.0179647758 7.0497500766,45.2732814706" />
		<polygon id="polygon49" points="6.5405886315,31.2264761485 5.818987944,30.8281571713 5.7531779613,31.7119634816" />
		<polygon id="polygon51" points="6.5636798535,33.4362805612 7.5900846714,33.5072852484 7.19580205575,32.6794745045" />
		<polygon id="polygon53" points="6.5636798535,8.4333942706 7.5900846714,8.50382168396 7.19580205575,7.67658821392" />
		<polygon id="polygon55" points="6.69010429395,48.7600157058 7.2748894911,49.3528759805 7.4792468058,48.6405200126" />
		<polygon id="polygon57" points="7.09766436225,14.1472511348 6.41416419105,13.6710001838 6.34373596395,14.4099107502" />
		<polygon id="polygon59" points="7.1975338974,40.2146304601 8.03285885325,40.6112176157 7.97513079825,39.7891796106" />
		<polygon id="polygon61" points="7.36090429305,25.7804743646 6.6017803698,25.2516914905 6.523270215,26.0725749479" />
		<polygon id="polygon63" points="7.36090429305,0.77701080016 6.6017803698,0.24822792608 6.523270215,1.06911138344" />
		<polygon id="polygon65" points="7.3614815736,23.5291062326 6.5729163423,23.6486019258 7.1571242589,24.2414622005" />
		<polygon id="polygon67" points="7.40477761485,21.0145012113 7.0497500766,20.27039518 6.48112873485,20.9515783584" />
		<polygon id="polygon69" points="7.5658388883,42.6576535203 7.8671793354,41.7830835921 7.05610016265,41.9314429792" />
		<polygon id="polygon71" points="7.5658388883,17.6547672297 7.8671793354,16.7796200276 7.05610016265,16.9274021409" />
		<polygon id="polygon73" points="7.61375317395,47.3231810184 8.39077279425,47.6245179838 8.28455317305,46.8902256084" />
		<polygon id="polygon75" points="7.7113135869,35.5560302485 7.59297107415,34.7397649822 6.8488564452,35.221788672" />
		<polygon id="polygon77" points="7.7113135869,10.5525666841 7.59297107415,9.73630141776 6.8488564452,10.2177478337" />
		<polygon id="polygon79" points="7.8544791633,29.1788856962 6.95334422475,29.3445632997 7.5196564443,30.1504376362" />
		<polygon id="polygon81" points="7.8544791633,4.17542213172 6.95334422475,4.3405224614 7.5196564443,5.14755134564" />
		<polygon id="polygon83" points="8.03285885325,15.6083313251 7.97513079825,14.78629332 7.1975338974,15.2111668957" />
		<polygon id="polygon85" points="8.1500468049,27.5336551382 8.09289603045,26.711617133 7.3141445685,27.1370679826" />
		<polygon id="polygon87" points="8.1500468049,2.5307688476 8.09289603045,1.7081535686 7.3141445685,2.13360441816" />
		<polygon id="polygon89" points="8.28455317305,21.8873393179 7.61375317395,22.3202947279 8.39077279425,22.6210544194" />
		<polygon id="polygon91" points="8.2920578202,12.5031751246 8.3232309699,13.3003903529 8.97844439415,12.7871938736" />
		<polygon id="polygon93" points="8.47159207125,6.81240921556 8.73483200205,7.65926999752 9.28902133005,6.91862760948" />
		<polygon id="polygon95" points="8.5806980952,31.5306994833 8.84336074545,32.3775602652 9.39870463455,31.6369178772" />
		<polygon id="polygon97" points="8.5830072174,19.332325125 8.84566986765,20.1803404547 9.40101375675,19.4396980667" />
		<polygon id="polygon99" points="8.5830072174,44.3357886894 8.84566986765,45.1832267453 9.40101375675,44.4425843572" />
		<polygon id="polygon101" points="8.75330497965,17.8291039415 9.6348123795,17.9307041444 9.18049258665,17.1248298079" />
		<polygon id="polygon103" points="8.97844439415,37.790657438 8.2920578202,37.5060614152 8.3232309699,38.3032766434" />
		<polygon id="polygon105" points="9.028667802,35.6911123364 9.81550119165,35.2050477295 9.0933232236,34.8073060262" />
		<polygon id="polygon107" points="9.03617244915,4.9264554496 8.6095621227,5.63188413096 9.490492242,5.73290705996" />
		<polygon id="polygon109" points="9.0933232236,9.80384246172 9.028667802,10.687648772 9.81550119165,10.2021614389" />
		<polygon id="polygon111" points="9.45643268955,24.7771723612 8.63438518635,24.7148267821 8.94265300005,25.5472557171" />
		<polygon id="polygon113" points="9.50954250015,14.5392200994 9.54648845535,15.5246266125 10.356413067,14.8902026184" />
		<polygon id="polygon115" points="9.5239745139,30.3345880039 9.0702320016,29.5281363936 8.6430443946,30.2341423488" />
		<polygon id="polygon117" points="9.6348123795,42.9341677088 9.18049258665,42.1277160984 8.75330497965,42.8325675059" />
		<polygon id="polygon119" points="9.80280101955,47.8023183388 10.5122788155,47.3653220117 9.8622609162,47.0062576583" />
		<polygon id="polygon121" points="9.80280101955,22.7994320483 10.5122788155,22.3618584472 9.8622609162,22.0033713678" />
		<polygon id="polygon123" points="9.97367606235,36.934560274 10.8678836343,36.6955688876 10.2074746851,36.1973815292" />
		<polygon id="polygon125" points="10.0025400899,8.29542581328 10.4759101408,9.04588185728 10.8199693486,8.18632104996" />
		<polygon id="polygon127" points="10.2721301067,2.40780951116 9.5101197807,2.09261797268 9.5436020526,2.97873337848" />
		<polygon id="polygon129" points="10.356413067,39.893088909 9.50954250015,39.5426836638 9.54648845535,40.528090177" />
		<polygon id="polygon131" points="10.4129865609,38.2276537652 10.8378650457,38.9752234398 11.3175851828,38.0654398049" />
		<polygon id="polygon133" points="10.4938058379,27.2496363892 9.73121823135,26.9338675768 9.7652777838,27.8199829826" />
		<polygon id="polygon135" points="10.5907889703,25.8399335742 10.9741032555,26.5130349183 11.4053318264,25.6938832826" />
		<polygon id="polygon137" points="10.592520812,49.4146442857 11.3972498986,49.1993211284 10.8026509322,48.7507793237" />
		<polygon id="polygon139" points="10.7610867325,4.74576872516 10.7645504158,5.6711387548 11.4821101395,5.26300612164" />
		<polygon id="polygon141" points="10.7749414658,28.8752396353 11.6414395713,28.5508117147 11.0104719302,28.0197197451" />
		<polygon id="polygon143" points="10.8199693486,33.1892073405 10.0025400899,33.2983121038 10.4759101408,34.048190874" />
		<polygon id="polygon145" points="10.8678836343,11.6926825971 10.2074746851,11.1939179648 9.97367606235,11.9316739834" />
		<polygon id="polygon147" points="10.9117569561,21.2465653111 11.2211793309,20.4735955858 10.4857239102,20.5711548715" />
		<polygon id="polygon149" points="10.9117569561,46.2500288755 11.2211793309,45.4764818763 10.4857239102,45.5746184359" />
		<polygon id="polygon151" points="11.3175851828,13.0625535143 10.4129865609,13.2247674746 10.8378650457,13.9723371492" />
		<polygon id="polygon153" points="11.3972498986,24.1964348379 10.8026509322,23.7473157592 10.592520812,24.4117579951" />
		<polygon id="polygon155" points="11.4134137541,31.8984229448 12.1240461111,32.4289376406 12.1379008443,31.5035676109" />
		<polygon id="polygon157" points="11.4976967144,42.9387858998 10.777250588,42.4221257772 10.7812915518,43.346918533" />
		<polygon id="polygon159" points="11.4976967144,17.9353223354 10.777250588,17.4192394867 10.7812915518,18.3434549686" />
		<polygon id="polygon161" points="1.3173542151,25.5842012454 2.0366457804,25.8584063384 2.0170182417,25.0744684094" />
		<polygon id="polygon163" points="1.3242815817,17.9982451883 2.30508123615,18.0923408308 1.7837968995,17.2056481511" />
		<polygon id="polygon165" points="1.56731669325,36.7105780085 0.99003614325,36.1206041032 0.67253184075,36.9495693948" />
		<polygon id="polygon167" points="1.56731669325,11.7071144441 0.99003614325,11.1177178126 0.67253184075,11.9461058304" />
		<polygon id="polygon169" points="1.6152309789,19.3017296094 0.68985025725,19.2682477243 1.0691235786,20.000808278" />
		<polygon id="polygon171" points="1.6152309789,44.3051931738 0.68985025725,44.2711340149 1.0691235786,45.0042718425" />
		<polygon id="polygon173" points="1.7018230614,38.0002078564 2.42169190725,38.2744129494 2.401487088,37.4904750204" />
		<polygon id="polygon175" points="11.5525383666,35.6310758529 12.0951820836,36.2568407388 12.3185896564,35.3412843652" />
		<polygon id="polygon177" points="11.5525383666,10.6281895624 12.0951820836,11.2539544483 12.3185896564,10.3383980746" />
		<polygon id="polygon179" points="11.6246984354,44.3277068551 12.3359080729,44.8587988247 12.3497628062,43.9328515212" />
		<polygon id="polygon181" points="11.6466350962,0.84455184412 10.8320922402,0.99117940964 11.2148292448,1.66312620596" />
		<polygon id="polygon183" points="11.7008994679,30.3109197748 10.979876061,29.7931051045 10.9839170249,30.719052408" />
		<polygon id="polygon185" points="11.7776777811,47.8046274344 12.2660571264,48.3686240151 12.4669507578,47.5442769145" />
		<polygon id="polygon187" points="11.9531710683,22.8894867736 12.4415504136,23.4534833543 12.6418667645,22.6291362537" />
		<polygon id="polygon189" points="12.0362994675,3.65703018748 11.4053318264,3.12593821788 11.169801362,3.98145810804" />
		<polygon id="polygon191" points="12.0738227033,41.1763687442 11.3718495545,40.5863948388 11.1103414653,41.5371649192" />
		<polygon id="polygon193" points="12.0738227033,16.1729051798 11.3718495545,15.5835085483 11.1103414653,16.5337013548" />
		<polygon id="polygon195" points="12.1379008443,6.50010404648 11.4134137541,6.8949593804 12.1240461111,7.42547407612" />
		<polygon id="polygon197" points="12.3497628062,18.9299652306 11.6246984354,19.3242432907 12.3359080729,19.8553352603" />
		<polygon id="polygon199" points="12.3711221865,39.5923292175 13.3288306189,39.517860887 12.7659820827,38.7812594161" />
		<polygon id="polygon201" points="12.5010103103,27.0094904551 13.3628901714,26.9419494112 12.8566151291,26.2798162708" />
		<polygon id="polygon203" points="12.7394271774,8.5632808936 12.1933197771,9.2617822884 13.1181232182,9.29584144732" />
		<polygon id="polygon205" points="12.7659820827,13.7783731255 12.3711221865,14.588865653 13.3288306189,14.5143973225" />
		<polygon id="polygon207" points="13.1181232182,34.2998822856 12.7394271774,33.566744458 12.1933197771,34.264668579" />
		<polygon id="polygon209" points="13.1764285538,46.6321841841 12.8358330292,45.9723601392 12.3439900006,46.6004341207" />
		<polygon id="polygon211" points="13.1839332009,11.8537420096 14.0781407729,11.6135960755 13.5008602229,11.0247767179" />
		<polygon id="polygon213" points="13.2936165054,49.4204170245 14.1878240774,49.1814256382 13.6111208079,48.5914517328" />
		<polygon id="polygon215" points="13.3819404296,21.699148033 13.041344905,21.0393239882 12.5495018764,21.6685525174" />
		<polygon id="polygon217" points="13.485273648,18.2464729567 14.466650583,18.3399913253 13.9459435269,17.4538759195" />
		<polygon id="polygon219" points="13.5349197753,24.220103067 14.4291273473,23.9811116806 13.8518467973,23.3911377753" />
		<polygon id="polygon221" points="13.6272846633,3.21310657376 12.9980488638,3.72688032696 13.8091280365,4.02706274456" />
		<polygon id="polygon223" points="13.6705807045,2.13591351368 13.1637283817,1.47320309944 12.8081235629,2.20403183152" />
		<polygon id="polygon225" points="13.7796867285,38.3205948598 14.5792202902,38.6248181946 14.5567063488,37.7542891836" />
		<polygon id="polygon227" points="13.8091280365,29.0311035829 13.6272846633,28.2171474121 12.9980488638,28.7297666175" />
		<polygon id="polygon229" points="13.8581968833,41.5845013774 13.6561486908,40.6799132074 12.9570619448,41.2508370747" />
		<polygon id="polygon231" points="13.8581968833,16.5810378129 13.6561486908,15.6770269168 12.9570619448,16.2473735103" />
		<polygon id="polygon233" points="13.9459435269,42.4573394839 13.485273648,43.2499365212 14.466650583,43.3434548897" />
		<polygon id="polygon235" points="14.0781407729,36.6176369138 13.5008602229,36.0282402824 13.1839332009,36.8566283002" />
		<polygon id="polygon237" points="14.3569672785,32.1033551722 13.4327411179,32.0698732872 13.8114371588,32.8024338409" />
		<polygon id="polygon239" points="14.3569672785,7.0998916078 13.4327411179,7.06640972276 13.8114371588,7.79897027648" />
		<polygon id="polygon241" points="14.5792202902,13.6213546302 14.5567063488,12.751402893 13.7796867285,13.3171312954" />
		<polygon id="polygon243" points="14.598847829,25.9109382615 14.5763338875,25.0409865243 13.7987369866,25.6067149267" />
		<polygon id="polygon245" points="14.598847829,0.90747469704 14.5763338875,0.03752295988 13.7987369866,0.60325136228" />
		<polygon id="polygon247" points="14.6178980871,19.784330573 13.693094646,19.750848688 14.0723679673,20.4834092417" />
		<polygon id="polygon249" points="14.6178980871,44.7877941375 13.693094646,44.7537349786 14.0723679673,45.4868728062" />
		<polygon id="polygon251" points="14.634639223,47.7313136516 15.4509139208,47.2948945983 14.755290858,46.8521255324" />
		<polygon id="polygon253" points="14.634639223,22.728427361 15.4509139208,22.2920083078 14.755290858,21.8486619679" />
		<polygon id="polygon255" points="14.6392574675,30.8645254258 14.1185504114,29.9766781983 13.658457813,30.7698525094" />
		<polygon id="polygon257" points="14.6392574675,5.86048458744 14.1185504114,4.97379190776 13.658457813,5.766388945" />
		<polygon id="polygon259" points="14.6473393952,35.1103748132 15.4641913734,34.6751103076 14.7685683106,34.2311866939" />
		<polygon id="polygon261" points="14.7685683106,9.22830040336 14.6473393952,10.1069112487 15.4641913734,9.6716467432" />
		<polygon id="polygon263" points="15.0987727853,14.9848755347 15.0329628026,15.8698363928 15.8203734728,15.3837717858" />
		<polygon id="polygon265" points="15.2015287232,27.2369363638 15.136296021,28.1224744958 15.9237066912,27.6364098888" />
		<polygon id="polygon267" points="15.2015287232,2.23462734716 15.136296021,3.11901093132 15.9237066912,2.63294632436" />
		<polygon id="polygon269" points="15.4566867263,36.780428148 16.3659035925,36.9559194075 16.1043955033,36.1737133001" />
		<polygon id="polygon271" points="15.4566867263,11.7769645836 16.3659035925,11.953033117 16.1043955033,11.1702497357" />
		<polygon id="polygon273" points="15.5629063474,20.6866096475 16.0697586704,21.3360427625 16.4778960192,20.5486411902" />
		<polygon id="polygon275" points="15.5629063474,45.689495938 16.0697586704,46.3400836008 16.4778960192,45.5521047546" />
		<polygon id="polygon277" points="15.5992750221,49.2616667075 16.5084918884,49.437157967 16.2469837992,48.6549518596" />
		<polygon id="polygon279" points="15.7170402543,24.4175307339 16.62567984,24.5918674457 16.3647490314,23.810815886" />
		<polygon id="polygon281" points="15.8203734728,40.3872353502 15.0987727853,39.9877618253 15.0329628026,40.8727226833" />
		<polygon id="polygon283" points="16.3901493756,29.8768098171 15.9704664157,28.9375852143 15.4255135765,29.6736094113" />
		<polygon id="polygon285" points="16.3901493756,4.87334625264 15.9704664157,3.93412164988 15.4255135765,4.67072312076" />
		<polygon id="polygon287" points="16.5084918884,44.352529632 16.5569834546,43.4664142262 15.7782319926,43.9680652279" />
		<polygon id="polygon289" points="16.5235011827,26.3433163976 16.764227172,25.5536057298 15.8850288944,25.6731014229" />
		<polygon id="polygon291" points="16.5569834546,18.4629506617 15.7782319926,18.9646016634 16.5084918884,19.3490660675" />
		<polygon id="polygon293" points="16.6360708899,32.9230840818 15.7216584987,33.0604752653 16.2285108216,33.7099083803" />
		<polygon id="polygon295" points="16.6360708899,7.9196205174 15.7216584987,8.05701170084 16.2285108216,8.70702208972" />
		<polygon id="polygon297" points="16.764227172,0.55014216532 15.8850288944,0.66963785848 16.5235011827,1.33927555928" />
		<polygon id="polygon299" points="16.8583239016,42.3643983892 16.481936983,41.5204239767 15.990671235,42.1831343909" />
		<polygon id="polygon301" points="16.8583239016,17.3615120987 16.481936983,16.5169604122 15.990671235,17.1796708265" />
		<polygon id="polygon303" points="16.9010426624,38.2772993188 16.0224216653,38.396795012 16.6608939536,39.0664327128" />
		<polygon id="polygon305" points="16.9010426624,13.2744130283 16.0224216653,13.3939087214 16.6608939536,14.0635464222" />
		<polygon id="polygon307" points="16.9085473095,30.8408571967 16.1309504087,31.3413536506 16.8600557433,31.7258180547" />
		<polygon id="polygon309" points="16.9085473095,5.83681635836 16.1309504087,6.3378900862 16.8600557433,6.72235449028" />
		<polygon id="polygon311" points="17.1094409409,21.9167802858 18.0186578071,21.7441753956 17.48640514,21.1137923187" />
		<polygon id="polygon313" points="17.1094409409,46.9196665763 18.0186578071,46.7470616862 17.48640514,46.1166786092" />
		<polygon id="polygon315" points="1.75897383585,47.3560856296 2.57524853355,46.9196665763 1.88020275135,46.4768975104" />
		<polygon id="polygon317" points="1.8045789993,32.0964278857 0.87919827765,32.0641005484 1.258471599,32.7955065544" />
		<polygon id="polygon319" points="1.8045789993,7.09354159512 0.87919827765,7.06063698396 1.258471599,7.79319753768" />
		<polygon id="polygon321" points="1.88020275135,21.4734339459 1.75897383585,22.3526220652 2.57524853355,21.9167802858" />
		<polygon id="polygon323" points="2.0366457804,0.85494277396 2.0170182417,0.0715821188 1.3173542151,0.58131495484" />
		<polygon id="polygon325" points="2.043573147,9.2617822884 1.9223442315,10.1409704076 2.7386189292,9.70512862824" />
		<polygon id="polygon327" points="2.0862919077,30.9118618839 1.56500757105,30.0251692042 1.10549225325,30.8171889676" />
		<polygon id="polygon329" points="2.0862919077,5.90839831948 1.56500757105,5.0217056398 1.10549225325,5.81372540316" />
		<polygon id="polygon331" points="2.30508123615,43.0952271213 1.7837968995,42.2091117155 1.3242815817,43.0017087528" />
		<polygon id="polygon333" points="17.4344498905,35.563534809 17.7935183927,36.3740273365 18.2593837965,35.5739257388" />
		<polygon id="polygon335" points="17.4344498905,10.5606485184 17.7935183927,11.3711410459 18.2593837965,10.5704621744" />
		<polygon id="polygon337" points="17.4425318182,48.0863370878 17.8016003204,48.8974068892 18.2674657242,48.0978825654" />
		<polygon id="polygon339" points="17.4425318182,23.0834507972 17.8016003204,23.8939433248 18.2674657242,23.0949962748" />
		<polygon id="polygon341" points="17.6284161553,39.9334980806 18.553796877,39.9392708194 18.1537414558,39.2188330171" />
		<polygon id="polygon343" points="17.6445800108,34.4430462079 18.553796877,34.2704413178 18.0221214905,33.6400582408" />
		<polygon id="polygon345" points="17.6445800108,9.43958264344 18.553796877,9.26697775332 18.0221214905,8.63659467636" />
		<polygon id="polygon347" points="17.9349521274,40.9731683384 18.2616929187,41.8390791584 18.7910591831,41.2069642598" />
		<polygon id="polygon349" points="18.0544492012,29.6106865584 18.5838154656,28.9779943859 17.7282856905,28.7447757384" />
		<polygon id="polygon351" points="18.553796877,14.9363845288 18.1537414558,14.2159467266 17.6284161553,14.9294572422" />
		<polygon id="polygon353" points="18.5613015242,5.86972096952 18.496068822,6.75468182756 19.2834794922,6.2686172206" />
		<polygon id="polygon355" points="18.5826609045,27.3148683376 18.1831827639,26.5932759876 17.6572801828,27.3079410511" />
		<polygon id="polygon357" points="18.5826609045,2.3114047732 18.1831827639,1.59038969708 17.6572801828,2.30505476052" />
		<polygon id="polygon359" points="18.5838154656,3.97453082148 17.7282856905,3.74131217396 18.0544492012,4.60722299396" />
		<polygon id="polygon361" points="18.7910591831,16.2035006954 17.9349521274,15.9702820479 18.2616929187,16.8361928679" />
		<polygon id="polygon363" points="18.9907982534,44.0996836725 18.2686202853,43.7019419692 18.2028103026,44.5857482795" />
		<polygon id="polygon365" points="18.9907982534,19.096797382 18.2686202853,18.6984784048 18.2028103026,19.5828619889" />
		<polygon id="polygon367" points="19.0877813857,48.9603297421 19.7372220045,49.620153787 19.9652478218,48.8275567497" />
		<polygon id="polygon369" points="19.0877813857,23.9574434516 19.7372220045,24.6166902225 19.9652478218,23.8240931853" />
		<polygon id="polygon371" points="19.1305001465,20.7876325765 20.0535717459,20.8511327033 19.6985442076,20.107026672" />
		<polygon id="polygon373" points="19.1305001465,45.7910961409 20.0535717459,45.8540189938 19.6985442076,45.1099129625" />
		<polygon id="polygon375" points="19.1466640019,11.2741590341 19.7961046206,11.9339830789 20.0235531573,11.1413860417" />
		<polygon id="polygon377" points="19.2834794922,31.2715035112 18.5613015242,30.873184534 18.496068822,31.758145392" />
		<polygon id="polygon379" points="19.3793080635,37.9130395006 19.3019524698,38.7339229579 20.1390092673,38.4423996485" />
		<polygon id="polygon381" points="19.5732743283,0.81568815012 18.8141504051,0.28690527604 18.7362175308,1.1077887334" />
		<polygon id="polygon383" points="19.7227899907,33.2475120024 19.3683397331,32.5028286972 18.7991411107,33.1834346017" />
		<polygon id="polygon385" points="19.7227899907,8.24404843796 19.3683397331,7.49936513276 18.7991411107,8.18054831116" />
		<polygon id="polygon387" points="19.7620450681,29.3018450326 20.2712065133,30.0274782998 20.5737015215,29.1529083716" />
		<polygon id="polygon389" points="19.7926409373,25.9068973443 19.033517014,25.3781144702 18.9550068593,26.1989979276" />
		<polygon id="polygon391" points="19.7961046206,36.9368693695 20.0235531573,36.1442723322 19.1466640019,36.2776225985" />
		<polygon id="polygon393" points="20.1390092673,13.4389360841 19.3793080635,12.91015321 19.3019524698,13.7310366674" />
		<polygon id="polygon395" points="20.2071283722,42.404230287 19.3960491994,42.5520124002 19.9052106445,43.2782229413" />
		<polygon id="polygon397" points="20.2071283722,17.3996121748 19.3960491994,17.5485488358 19.9052106445,18.2747593768" />
		<polygon id="polygon399" points="20.5737015215,4.14886753324 19.7620450681,4.29780419428 20.2712065133,5.02401473532" />
		<polygon id="polygon401" points="20.5765879242,47.7561364284 20.4576681309,46.9398711621 19.7129762214,47.421317578" />
		<polygon id="polygon403" points="20.5765879242,22.7532501379 20.4576681309,21.9369848716 19.7129762214,22.4184312875" />
		<polygon id="polygon405" points="20.6579844817,40.6700995514 20.6008337073,39.8480615463 19.8220822454,40.272935122" />
		<polygon id="polygon407" points="20.6579844817,15.666635987 20.6008337073,14.844020708 19.8220822454,15.2700488314" />
		<polygon id="polygon409" points="20.7907590082,7.0017550482 21.0534216585,7.84919310404 21.6087655476,7.108550716" />
		<polygon id="polygon411" points="20.8912058239,28.1334426995 20.8340550495,27.3102501466 20.0558808681,27.7357009962" />
		<polygon id="polygon413" points="20.8912058239,3.12997913504 20.8340550495,2.30678658216 20.0558808681,2.7328147056" />
		<polygon id="polygon415" points="20.9962708841,25.2695869808 21.9216516057,25.2742051718 21.5198643429,24.5537673696" />
		<polygon id="polygon417" points="21.0632354278,35.0214746356 20.9495111595,34.0539636128 20.2325287164,34.625464754" />
		<polygon id="polygon419" points="21.0632354278,10.0180110712 20.9495111595,9.0510773222 20.2325287164,9.62200118952" />
		<polygon id="polygon421" points="21.0649672695,19.4402753406 21.3282072003,20.2882906703 21.8829738088,19.5476482822" />
		<polygon id="polygon423" points="21.0649672695,44.443738905 21.3282072003,45.2917542347 21.8829738088,44.5511118467" />
		<polygon id="polygon425" points="21.1111497135,42.5687533428 21.9932343939,42.6703535456 21.538914601,41.8627473875" />
		<polygon id="polygon427" points="21.1111497135,17.5652897783 21.9932343939,17.6668899812 21.538914601,16.859861097" />
		<polygon id="polygon429" points="21.146363827,30.675756867 22.0272939463,30.7762025221 21.573551434,29.9703281856" />
		<polygon id="polygon431" points="21.3074251005,12.039624199 21.341484653,12.9257396048 22.0694354265,12.3542384636" />
		<polygon id="polygon433" points="21.573551434,4.9668646212 21.146363827,5.67229330256 22.0272939463,5.77331623156" />
		<polygon id="polygon435" points="21.6087655476,32.1114370066 20.7907590082,32.0052186126 21.0534216585,32.8520793946" />
		<polygon id="polygon437" points="21.6607207971,47.9662641208 22.4487087478,47.4801995138 21.7265307798,47.0818805366" />
		<polygon id="polygon439" points="22.0347985935,14.5011200233 22.0688581459,15.3883899768 22.7968089195,14.8168888356" />
		<polygon id="polygon441" points="22.0601989377,27.0735678558 22.0936812096,27.9596832616 22.8222092637,27.3893366682" />
		<polygon id="polygon443" points="22.0694354265,37.357702028 21.3074251005,37.0430877634 21.341484653,37.9292031692" />
		<polygon id="polygon445" points="22.289379316,35.8192671378 22.998857112,35.3822708106 22.3488392127,35.0237837312" />
		<polygon id="polygon447" points="22.4487087478,22.4767359494 21.7265307798,22.078994246 21.6607207971,22.9628005563" />
		<polygon id="polygon449" points="22.5110550473,45.5474865636 22.9370880931,46.2228970032 23.2470877485,45.449350004" />
		<polygon id="polygon451" points="22.6386340488,7.93001144724 23.1114268192,8.67989021736 23.4560633076,7.82090668392" />
		<polygon id="polygon453" points="22.7783359419,49.3730805663 23.6725435138,49.13408918 23.0115572841,48.6359018216" />
		<polygon id="polygon455" points="22.7968089195,39.8197751262 22.0347985935,39.5051608616 22.0688581459,40.3912762674" />
		<polygon id="polygon457" points="22.8222092637,2.38587310372 22.0601989377,2.07068156524 22.0936812096,2.95679697104" />
		<polygon id="polygon459" points="22.998857112,10.3793845201 22.3488392127,10.0208974406 22.289379316,10.8163808472" />
		<polygon id="polygon461" points="23.0842946334,29.9553190648 23.0883355972,30.8812663683 23.8047407598,30.4731337351" />
		<polygon id="polygon463" points="23.0842946334,4.9524327742 23.0883355972,5.87780280384 23.8047407598,5.46967017068" />
		<polygon id="polygon465" points="2.42169190725,13.270949385 2.401487088,12.4875887298 1.7018230614,12.996744292" />
		<polygon id="polygon467" points="2.5296433701,14.949661828 2.46441066795,15.8334681383 3.25182133815,15.3479808052" />
		<polygon id="polygon469" points="2.62374009975,48.9695661242 3.53237968545,49.1456346576 3.2708715963,48.3628512763" />
		<polygon id="polygon471" points="2.6935910463,2.1757454114 2.6277810636,3.06070626944 3.4151917338,2.57464166248" />
		<polygon id="polygon473" points="2.7189913905,20.2611587979 3.22642099395,20.9117464607 3.63398106225,20.1237676145" />
		<polygon id="polygon475" points="2.7386189292,34.7080149188 2.043573147,34.264668579 1.9223442315,35.1444339721" />
		<polygon id="polygon477" points="23.1114268192,33.6827765079 23.4560633076,32.8237929745 22.6386340488,32.9328977378" />
		<polygon id="polygon479" points="23.1287452357,24.4579399055 24.0229528077,24.2189485192 23.3625438585,23.7207611608" />
		<polygon id="polygon481" points="23.2470877485,20.4464637134 22.5110550473,20.544600273 22.9370880931,21.2200107126" />
		<polygon id="polygon483" points="23.2857655454,38.8095458362 23.6690798306,39.4814926325 24.1003084014,38.6629182707" />
		<polygon id="polygon485" points="23.2857655454,13.8066595456 23.6690798306,14.478606342 24.1003084014,13.6600319801" />
		<polygon id="polygon487" points="23.3273297449,42.1404161238 23.3313707088,43.0657861534 24.0477758713,42.6576535203" />
		<polygon id="polygon489" points="23.512059521,36.8895329113 23.3013521202,37.5539751472 24.1066584875,37.3380747161" />
		<polygon id="polygon491" points="23.512059521,11.8866466208 23.3013521202,12.5505115828 24.1066584875,12.3351884255" />
		<polygon id="polygon493" points="23.5276460958,26.6002032742 23.9588746667,25.7816289124 23.1449090912,25.9282564779" />
		<polygon id="polygon495" points="24.0477758713,17.6547672297 23.3273297449,17.1369525594 23.3313707088,18.0628998629" />
		<polygon id="polygon497" points="24.089340071,47.7359318426 24.6325610685,48.3616967286 24.8559686414,47.4461403549" />
		<polygon id="polygon499" points="24.1245541845,31.5214631012 24.8351865416,32.051400523 24.8484639942,31.1271850412" />
		<polygon id="polygon501" points="24.1563046147,0.84455184412 23.3423390393,0.99117940964 23.7250760439,1.66312620596" />
		<polygon id="polygon503" points="24.3768257848,19.6504030329 24.3901032375,18.7256102771 23.6656161472,19.1193110633" />
		<polygon id="polygon505" points="24.3768257848,44.6532893234 24.3901032375,43.7290738416 23.6656161472,44.1221973538" />
		<polygon id="polygon507" points="24.52922785,28.708407484 23.8976829284,28.1784700621 23.6621524639,29.0334126784" />
		<polygon id="polygon509" points="24.52922785,3.70609846728 23.8976829284,3.17500649768 23.6621524639,4.02994911396" />
		<polygon id="polygon511" points="24.6325610685,23.358810438 24.8559686414,22.4432540643 24.089340071,22.7330455521" />
		<polygon id="polygon513" points="24.6573841321,40.9824047205 24.0258392104,40.4524672987 23.790308746,41.3068326411" />
		<polygon id="polygon515" points="24.8392275054,35.1219202908 24.0737534961,35.4105572308 24.6169744937,36.0368993906" />
		<polygon id="polygon517" points="24.8392275054,10.1184567263 24.0737534961,10.4076709402 24.6169744937,11.0340131" />
		<polygon id="polygon519" points="24.8484639942,6.12372147672 24.1245541845,6.51799953676 24.8351865416,7.04909150636" />
		<polygon id="polygon521" points="24.8548140803,16.1550096895 24.2232691585,15.6239177199 23.9877386941,16.4800148839" />
		<polygon id="polygon523" points="25.071871567,8.2833030618 24.5246096056,8.98238173048 25.4499903273,9.0164408894" />
		<polygon id="polygon525" points="25.4499903273,34.0199044538 25.071871567,33.2873439001 24.5246096056,33.985268021" />
		<polygon id="polygon527" points="25.4499903273,21.5040294616 25.071871567,20.770891634 24.5246096056,21.4699703026" />
		<polygon id="polygon529" points="25.4499903273,46.5080702999 25.071871567,45.7755097462 24.5246096056,46.4734338671" />
		<polygon id="polygon531" points="25.4546085717,41.3051008194 26.2656877445,41.6058605109 26.0844216518,40.7919043401" />
		<polygon id="polygon533" points="25.4615359383,39.334865067 26.3245703605,39.267324023 25.8177180376,38.6046136088" />
		<polygon id="polygon535" points="25.4615359383,14.3319787764 26.3245703605,14.2644377325 25.8177180376,13.6011500444" />
		<polygon id="polygon537" points="25.5025228574,15.8317363167 26.3130247496,16.1324960082 26.1323359374,15.3185398374" />
		<polygon id="polygon539" points="25.5475507403,49.5018126416 26.4411810317,49.2628212552 25.8644777622,48.6728473499" />
		<polygon id="polygon541" points="25.5908467815,24.3009214102 26.4850543534,24.0607754761 25.908351084,23.4725333924" />
		<polygon id="polygon543" points="25.6855207917,36.9495693948 26.5803056442,36.7105780085 26.0030250942,36.1206041032" />
		<polygon id="polygon545" points="25.6855207917,11.9461058304 26.5803056442,11.7071144441 26.0030250942,11.1177178126" />
		<polygon id="polygon547" points="25.8927645092,32.0641005484 26.2708832694,32.7955065544 26.8169906697,32.0964278857" />
		<polygon id="polygon549" points="26.1179039237,30.8171889676 27.0992808586,30.9118618839 26.577996522,30.0251692042" />
		<polygon id="polygon551" points="26.1588908427,3.19117016632 25.4598040967,3.76151675976 26.3609390352,4.0951810624" />
		<polygon id="polygon553" points="26.1952595174,27.178631702 25.6884071945,26.5153440138 25.3322250951,27.2461727459" />
		<polygon id="polygon555" points="26.1952595174,2.17459086364 25.6884071945,1.51245772328 25.3322250951,2.24270918148" />
		<polygon id="polygon557" points="26.3297658855,25.5842012454 27.0496347314,25.8584063384 27.0300071927,25.0744684094" />
		<polygon id="polygon559" points="26.3366932521,17.9982451883 27.3180701871,18.0923408308 26.7967858505,17.2056481511" />
		<polygon id="polygon561" points="26.3609390352,29.0986446268 26.1588908427,28.1946337308 25.4598040967,28.7649803242" />
		<polygon id="polygon563" points="26.6276426493,44.3051931738 25.7022619277,44.2711340149 26.0821125295,45.0042718425" />
		<polygon id="polygon565" points="26.6715159711,18.9513243642 25.7472898106,18.9172652053 26.1254085708,19.6504030329" />
		<polygon id="polygon567" points="26.7148120124,38.0002078564 27.4346808582,38.2744129494 27.4144760389,37.4904750204" />
		<polygon id="polygon569" points="26.7719627868,47.3560856296 27.5882374845,46.9196665763 26.8926144218,46.4768975104" />
		<polygon id="polygon571" points="26.8169906697,7.09354159512 25.8927645092,7.06063698396 26.2708832694,7.79319753768" />
		<polygon id="polygon573" points="26.8926144218,21.4734339459 26.7719627868,22.3526220652 27.5882374845,21.9167802858" />
		<polygon id="polygon575" points="27.0496347314,0.85494277396 27.0300071927,0.0715821188 26.3297658855,0.58131495484" />
		<polygon id="polygon577" points="27.0565620979,9.2617822884 26.9353331824,10.1409704076 27.7516078802,9.70512862824" />
		<polygon id="polygon579" points="27.0992808586,5.90839831948 26.577996522,5.0217056398 26.1179039237,5.81372540316" />
		<polygon id="polygon581" points="27.3180701871,43.0952271213 26.7967858505,42.2091117155 26.3366932521,43.0017087528" />
		<polygon id="polygon583" points="27.4346808582,13.270949385 27.4144760389,12.4875887298 26.7148120124,12.996744292" />
		<polygon id="polygon585" points="27.5426323211,14.949661828 27.4773996189,15.8334681383 28.2648102891,15.3479808052" />
		<polygon id="polygon587" points="27.6367290507,48.9695661242 28.5453686364,49.1456346576 28.2838605472,48.3628512763" />
		<polygon id="polygon589" points="27.7060027167,2.1757454114 27.6407700146,3.06070626944 28.4281806848,2.57464166248" />
		<polygon id="polygon591" points="27.732557622,20.2611587979 28.2394099449,20.9117464607 28.6469700132,20.1237676145" />
		<polygon id="polygon593" points="27.7516078802,34.7080149188 27.0565620979,34.264668579 26.9353331824,35.1444339721" />
		<polygon id="polygon595" points="27.7718126994,24.109266482 28.6804522851,24.2853350154 28.418944196,23.503128908" />
		<polygon id="polygon597" points="27.9138237147,32.951370502 28.4206760376,33.600803617 28.8288133865,32.8139793185" />
		<polygon id="polygon599" points="27.9282557284,4.67072312076 28.8928915275,4.87334625264 28.4732085677,3.93412164988" />
		<polygon id="polygon601" points="27.9963748333,36.1373450457 28.905014419,36.3134135791 28.6440836105,35.5306301978" />
		<polygon id="polygon603" points="28.2648102891,40.3508670958 27.5426323211,39.9531253925 27.4773996189,40.8369317028" />
		<polygon id="polygon605" points="28.3866164852,25.6731014229 29.025666054,26.3433163976 29.2658147628,25.5547602775" />
		<polygon id="polygon607" points="28.4281806848,27.577527953 27.7060027167,27.1797862497 27.6407700146,28.06359256" />
		<polygon id="polygon609" points="28.4732085677,28.9375852143 27.9282557284,29.6736094113 28.8928915275,29.8768098171" />
		<polygon id="polygon611" points="28.6469700132,45.1272311789 27.732557622,45.2646223624 28.2394099449,45.9152100251" />
		<polygon id="polygon613" points="28.8097631283,44.0852518255 29.5388684629,44.4697162296 29.5873600292,43.5836008238" />
		<polygon id="polygon615" points="28.8288133865,7.8099384802 27.9138237147,7.94732966364 28.4206760376,8.5979173264" />
		<polygon id="polygon617" points="2.90083476375,32.951370502 3.40768708665,33.600803617 3.8158244355,32.8139793185" />
		<polygon id="polygon619" points="2.9152667775,4.67072312076 3.87990257655,4.87334625264 3.4602196167,3.93412164988" />
		<polygon id="polygon621" points="2.98396316295,36.1373450457 3.8920254681,36.3134135791 3.6310946595,35.5306301978" />
		<polygon id="polygon623" points="3.1796612694,23.9349297702 4.0883008551,24.1104210298 3.8273700465,23.3282149224" />
		<polygon id="polygon625" points="3.25182133815,40.3508670958 2.5296433701,39.9531253925 2.46441066795,40.8369317028" />
		<polygon id="polygon627" points="3.37420481475,25.6731014229 4.01267710305,26.3433163976 4.2534030924,25.5547602775" />
		<polygon id="polygon629" points="3.4151917338,27.577527953 2.6935910463,27.1797862497 2.6277810636,28.06359256" />
		<polygon id="polygon631" points="3.4602196167,28.9375852143 2.9152667775,29.6736094113 3.87990257655,29.8768098171" />
		<polygon id="polygon633" points="28.905014419,11.3105272885 28.6440836105,10.5277439072 27.9963748333,11.1344587551" />
		<polygon id="polygon635" points="28.9864109766,16.2837417647 28.4951452285,16.9452976312 29.3633751758,17.1282934512" />
		<polygon id="polygon637" points="29.0222023707,37.4373658234 29.597751079,38.0394624803 29.8136540048,37.3305701556" />
		<polygon id="polygon639" points="29.0222023707,12.4344795329 29.597751079,13.0365761897 29.8136540048,12.3271065912" />
		<polygon id="polygon641" points="29.0978261227,39.6315838413 30.0232068444,39.6385111279 29.6225741427,38.9169187779" />
		<polygon id="polygon643" points="29.2658147628,0.55129671308 28.3866164852,0.67021513236 29.025666054,1.33985283316" />
		<polygon id="polygon645" points="29.3547159675,31.7211998637 29.4032075337,30.8362390056 28.6250333523,31.3367354596" />
		<polygon id="polygon647" points="29.3633751758,42.1311797417 28.9864109766,41.2866280553 28.4951452285,41.9487611956" />
		<polygon id="polygon649" points="29.4032075337,5.83219816732 28.6250333523,6.33327189516 29.3547159675,6.71773629924" />
		<polygon id="polygon651" points="29.5319410963,48.2352737488 29.8921641595,49.047498098 30.3568750023,48.2468192264" />
		<polygon id="polygon653" points="29.5388684629,19.4662526652 29.5873600292,18.5801372594 28.8097631283,19.0806337133" />
		<polygon id="polygon655" points="29.6035238846,21.8959984261 30.5127407508,21.7228162621 29.9810653643,21.0935877329" />
		<polygon id="polygon657" points="29.6225741427,13.9134552134 29.0978261227,14.6286975508 30.0232068444,14.6350475634" />
		<polygon id="polygon659" points="29.6641383423,23.0136006578 30.0232068444,23.8240931853 30.4884949677,23.0239915876" />
		<polygon id="polygon661" points="29.753039547,34.2277230506 30.6616791327,34.0539636128 30.1300037461,33.4235805358" />
		<polygon id="polygon663" points="29.753039547,9.22368221232 30.6616791327,9.0510773222 30.1300037461,8.42069424524" />
		<polygon id="polygon665" points="30.0815121799,3.40476150192 30.4076756907,4.27009504804 30.9370419551,3.63798014944" />
		<polygon id="polygon667" points="30.3568750023,36.0530630592 30.8227404062,35.2523841876 29.9978065002,35.2419932578" />
		<polygon id="polygon669" points="30.4400034015,15.9114001121 30.7661669123,16.7773109321 31.2955331766,16.1451960335" />
		<polygon id="polygon671" points="30.5127407508,46.7257025526 29.9810653643,46.0964740234 29.6035238846,46.8994619905" />
		<polygon id="polygon673" points="30.7661669123,41.7807744966 31.2955331766,41.1480823241 30.4400034015,40.9148636766" />
		<polygon id="polygon675" points="30.8227404062,10.2494978971 29.9978065002,10.2385296934 30.3568750023,11.0495994948" />
		<polygon id="polygon677" points="30.8313996144,5.82469360688 30.7655896317,6.70907719104 31.5535775824,6.22301258408" />
		<polygon id="polygon679" points="30.9370419551,28.64086644 30.0815121799,28.4076477925 30.4076756907,29.2735586125" />
		<polygon id="polygon681" points="31.0357569291,27.3749048212 30.635701508,26.6533124712 30.1103762074,27.3679775346" />
		<polygon id="polygon683" points="31.0357569291,2.37144125672 30.635701508,1.6504261806 30.1103762074,2.36509124404" />
		<polygon id="polygon685" points="31.0380660513,19.3144296347 31.8254767215,18.8283650278 31.1032987534,18.4300460506" />
		<polygon id="polygon687" points="31.0380660513,44.318470473 31.8254767215,43.8312513183 31.1032987534,43.433509615" />
		<polygon id="polygon689" points="31.0519207845,36.737132607 31.7013614033,37.3969566518 31.9293872205,36.6043596146" />
		<polygon id="polygon691" points="31.0519207845,11.7342463164 31.7013614033,12.3934930874 31.9293872205,11.6008960502" />
		<polygon id="polygon693" points="31.3567249149,39.4127970408 32.1106533132,39.1501374254 31.4265758615,38.6744637483" />
		<polygon id="polygon695" points="31.4946949663,45.954464649 32.4177665658,46.0179647758 32.0627390275,45.2732814706" />
		<polygon id="polygon697" points="31.5535775824,31.2264761485 30.8313996144,30.8281571713 30.7655896317,31.7119634816" />
		<polygon id="polygon699" points="31.5766688044,33.4362805612 32.6030736223,33.5072852484 32.2087910067,32.6794745045" />
		<polygon id="polygon701" points="31.5766688044,8.4333942706 32.6030736223,8.50382168396 32.2087910067,7.67658821392" />
		<polygon id="polygon703" points="31.7030932449,48.7600157058 32.2873011615,49.3528759805 32.4922357567,48.6405200126" />
		<polygon id="polygon705" points="32.1106533132,14.1472511348 31.4265758615,13.6710001838 31.3567249149,14.4099107502" />
		<polygon id="polygon707" points="32.2099455678,40.2146304601 33.0458478042,40.6112176157 32.9886970297,39.7891796106" />
		<polygon id="polygon709" points="32.373893244,25.7804743646 31.6147693207,25.2516914905 31.5356818854,26.0725749479" />
		<polygon id="polygon711" points="32.373893244,0.77701080016 31.6147693207,0.24822792608 31.5356818854,1.06911138344" />
		<polygon id="polygon713" points="32.4177665658,21.0145012113 32.0627390275,20.27039518 31.4946949663,20.9515783584" />
		<polygon id="polygon715" points="32.4922357567,23.6359019004 31.7030932449,23.7565521413 32.2873011615,24.3494124161" />
		<polygon id="polygon717" points="32.5788278393,42.6576535203 32.8795910058,41.7830835921 32.0690891136,41.9314429792" />
		<polygon id="polygon719" points="32.5788278393,17.6547672297 32.8795910058,16.7796200276 32.0690891136,16.9274021409" />
		<polygon id="polygon721" points="32.6273194055,47.3231810184 33.4037617452,47.6245179838 33.297542124,46.8902256084" />
		<polygon id="polygon723" points="32.7243025379,35.5560302485 32.6059600251,34.7397649822 31.8612681156,35.221788672" />
		<polygon id="polygon725" points="32.7243025379,10.5525666841 32.6059600251,9.73630141776 31.8612681156,10.2177478337" />
		<polygon id="polygon727" points="32.8680453948,29.1788856962 31.9663331757,29.3445632997 32.5320681147,30.1504376362" />
		<polygon id="polygon729" points="32.8680453948,4.17542213172 31.9663331757,4.3405224614 32.5320681147,5.14755134564" />
		<polygon id="polygon731" points="33.0458478042,15.6083313251 32.9886970297,14.78629332 32.2099455678,15.2111668957" />
		<polygon id="polygon733" points="33.1624584753,27.5336551382 33.1053077008,26.711617133 32.3265562389,27.1370679826" />
		<polygon id="polygon735" points="33.1624584753,2.5307688476 33.1053077008,1.7081535686 32.3265562389,2.13360441816" />
		<polygon id="polygon737" points="33.297542124,21.8873393179 32.6273194055,22.3202947279 33.4037617452,22.6210544194" />
		<polygon id="polygon739" points="33.3050467711,12.5031751246 33.3356426403,13.3003903529 33.9908560646,12.7871938736" />
		<polygon id="polygon741" points="33.4840037416,31.81587278 33.7472436725,32.662733562 34.302010281,31.9220911739" />
		<polygon id="polygon743" points="33.4840037416,6.81240921556 33.7472436725,7.65926999752 34.302010281,6.91862760948" />
		<polygon id="polygon745" points="33.5503910049,25.3509825979 34.4642261155,25.2055095801 33.9510237066,24.5595401084" />
		<polygon id="polygon747" points="33.5959961683,19.332325125 33.8586588186,20.1803404547 34.4140027077,19.4396980667" />
		<polygon id="polygon749" points="33.5959961683,44.3357886894 33.8586588186,45.1832267453 34.4140027077,44.4425843572" />
		<polygon id="polygon751" points="33.7662939306,17.8291039415 34.6478013305,17.9307041444 34.1929042571,17.1248298079" />
		<polygon id="polygon753" points="33.9908560646,37.790657438 33.3050467711,37.5060614152 33.3356426403,38.3032766434" />
		<polygon id="polygon755" points="34.0410794724,35.6911123364 34.8284901426,35.2050477295 34.1063121746,34.8073060262" />
		<polygon id="polygon757" points="34.0491614001,4.9264554496 33.6225510737,5.63188413096 34.5034811929,5.73290705996" />
		<polygon id="polygon759" points="34.1063121746,9.80384246172 34.0410794724,10.687648772 34.8284901426,10.2021614389" />
		<polygon id="polygon761" points="34.5034811929,30.7369478983 34.0491614001,29.9293417402 33.6225510737,30.6353476954" />
		<polygon id="polygon763" points="34.5225314511,14.5392200994 34.5594774063,15.5246266125 35.3688247374,14.8902026184" />
		<polygon id="polygon765" points="3.63398106225,45.1272311789 2.7189913905,45.2646223624 3.22642099395,45.9152100251" />
		<polygon id="polygon767" points="3.79677417735,44.0852518255 4.525879512,44.4697162296 4.5743710782,43.5836008238" />
		<polygon id="polygon769" points="3.8158244355,7.8099384802 2.90083476375,7.94732966364 3.40768708665,8.5979173264" />
		<polygon id="polygon771" points="3.8920254681,11.3105272885 3.6310946595,10.5277439072 2.98396316295,11.1344587551" />
		<polygon id="polygon773" points="3.97342202565,16.2837417647 3.4821562776,16.9452976312 4.3503862248,17.1282934512" />
		<polygon id="polygon775" points="4.00921341975,37.4373658234 4.58418484755,38.0394624803 4.80008777325,37.3305701556" />
		<polygon id="polygon777" points="4.00921341975,12.4344795329 4.58418484755,13.0365761897 4.80008777325,12.3271065912" />
		<polygon id="polygon779" points="34.6478013305,42.9341677088 34.1929042571,42.1277160984 33.7662939306,42.8325675059" />
		<polygon id="polygon781" points="34.8163672511,47.8023183388 35.5252677664,47.3653220117 34.8752498671,47.0062576583" />
		<polygon id="polygon783" points="34.8163672511,22.7994320483 35.5252677664,22.3618584472 34.8752498671,22.0033713678" />
		<polygon id="polygon785" points="34.9866650133,36.934560274 35.8808725853,36.6955688876 35.220463636,36.1973815292" />
		<polygon id="polygon787" points="35.0155290408,33.2983121038 35.4888990918,34.048190874 35.832381019,33.1892073405" />
		<polygon id="polygon789" points="35.0155290408,8.29542581328 35.4888990918,9.04588185728 35.832381019,8.18632104996" />
		<polygon id="polygon791" points="35.2845417771,27.4106958017 34.5225314511,27.0960815371 34.556013723,27.9821969429" />
		<polygon id="polygon793" points="35.2845417771,2.40780951116 34.5225314511,2.09261797268 34.556013723,2.97873337848" />
		<polygon id="polygon795" points="35.3688247374,39.893088909 34.5225314511,39.5426836638 34.5594774063,40.528090177" />
		<polygon id="polygon797" points="35.4253982313,38.2276537652 35.8514312772,38.9752234398 36.3311514143,38.0654398049" />
		<polygon id="polygon799" points="35.6055097629,49.4146442857 36.4102388496,49.1993211284 35.8150626026,48.7507793237" />
		<polygon id="polygon801" points="35.6055097629,24.4117579951 36.4102388496,24.1964348379 35.8150626026,23.7473157592" />
		<polygon id="polygon803" points="35.773498403,4.74576872516 35.7781166473,5.6711387548 36.4945218099,5.26300612164" />
		<polygon id="polygon805" points="35.8450811912,25.9934884263 36.2278181958,26.6665897704 36.6596240472,25.8468608608" />
		<polygon id="polygon807" points="35.8808725853,11.6926825971 35.220463636,11.1939179648 34.9866650133,11.9316739834" />
		<polygon id="polygon809" points="35.9247459071,21.2465653111 36.2347455624,20.4735955858 35.4987128612,20.5711548715" />
		<polygon id="polygon811" points="35.9247459071,46.2500288755 36.2347455624,45.4764818763 35.4987128612,45.5746184359" />
		<polygon id="polygon813" points="36.1822130323,28.9849216725 37.0492884185,28.659916478 36.4177434967,28.1288245084" />
		<polygon id="polygon815" points="36.3311514143,13.0625535143 35.4253982313,13.2247674746 35.8514312772,13.9723371492" />
		<polygon id="polygon817" points="36.4269799855,31.8984229448 37.1370350621,32.4289376406 37.1508897953,31.5035676109" />
		<polygon id="polygon819" points="36.4945218099,30.2664696861 35.773498403,29.7492322896 35.7781166473,30.6746023192" />
		<polygon id="polygon821" points="36.5101083847,42.9387858998 35.7902395389,42.4221257772 35.7942805027,43.346918533" />
		<polygon id="polygon823" points="36.5101083847,17.9353223354 35.7902395389,17.4192394867 35.7942805027,18.3434549686" />
		<polygon id="polygon825" points="36.5655273175,35.6310758529 37.1081710346,36.2568407388 37.3310013269,35.3412843652" />
		<polygon id="polygon827" points="36.5655273175,10.6281895624 37.1081710346,11.2539544483 37.3310013269,10.3383980746" />
		<polygon id="polygon829" points="36.6376873863,44.3277068551 37.3483197434,44.8587988247 37.3621744766,43.9328515212" />
		<polygon id="polygon831" points="36.6596240472,0.84455184412 35.8450811912,0.99117940964 36.2278181958,1.66312620596" />
		<polygon id="polygon833" points="36.790666732,47.8046274344 37.2790460773,48.3686240151 37.4799397087,47.5442769145" />
		<polygon id="polygon835" points="37.0492884185,3.65703018748 36.4177434967,3.12593821788 36.1822130323,3.98145810804" />
		<polygon id="polygon837" points="37.0862343737,41.1763687442 36.3848385054,40.5863948388 36.1227531357,41.5371649192" />
		<polygon id="polygon839" points="37.0862343737,16.1729051798 36.3848385054,15.5835085483 36.1227531357,16.5337013548" />
		<polygon id="polygon841" points="37.1508897953,6.50010404648 36.4269799855,6.8949593804 37.1370350621,7.42547407612" />
		<polygon id="polygon843" points="37.2790460773,23.3651604507 37.4799397087,22.5413906239 36.790666732,22.8017411438" />
		<polygon id="polygon845" points="37.3569789516,21.5975478301 38.1888402242,21.6292978935 37.8488219802,20.9694738487" />
		<polygon id="polygon847" points="37.3621744766,18.9299652306 36.6376873863,19.3242432907 37.3483197434,19.8553352603" />
		<polygon id="polygon849" points="37.3835338569,39.5923292175 38.3418195699,39.517860887 37.7789710337,38.7812594161" />
		<polygon id="polygon851" points="37.7524161284,8.5632808936 37.206308728,9.2617822884 38.1311121692,9.29584144732" />
		<polygon id="polygon853" points="37.7789710337,13.7783731255 37.3835338569,14.588865653 38.3418195699,14.5143973225" />
		<polygon id="polygon855" points="37.8205352332,27.2069181221 38.682992375,27.1387998042 38.1761400521,26.4772439378" />
		<polygon id="polygon857" points="38.1311121692,34.2998822856 37.7524161284,33.566744458 37.206308728,34.264668579" />
		<polygon id="polygon859" points="38.1888402242,46.6321841841 37.8488219802,45.9723601392 37.3569789516,46.6004341207" />
		<polygon id="polygon861" points="38.1963448713,11.8537420096 39.0905524433,11.6135960755 38.5138491738,11.0247767179" />
		<polygon id="polygon863" points="38.3066054563,49.4204170245 39.2008130283,49.1814256382 38.6235324783,48.5914517328" />
		<polygon id="polygon865" points="38.6408508948,3.21310657376 38.0110378147,3.72688032696 38.8215397069,4.02706274456" />
		<polygon id="polygon867" points="38.682992375,2.13591351368 38.1761400521,1.47320309944 37.8205352332,2.20403183152" />
		<polygon id="polygon869" points="38.7920983989,38.3205948598 39.5922092412,38.6248181946 39.5696952998,37.7542891836" />
		<polygon id="polygon871" points="38.8215397069,29.0311035829 38.6408508948,28.2171474121 38.0110378147,28.7297666175" />
		<polygon id="polygon873" points="38.8711858342,41.5845013774 38.6691376417,40.6799132074 37.9694736152,41.2508370747" />
		<polygon id="polygon875" points="38.8711858342,16.5810378129 38.6691376417,15.6770269168 37.9694736152,16.2473735103" />
		<polygon id="polygon877" points="38.9583551973,42.4573394839 38.4982625989,43.2499365212 39.4802168145,43.3434548897" />
		<polygon id="polygon879" points="39.0905524433,36.6176369138 38.5138491738,36.0282402824 38.1963448713,36.8566283002" />
		<polygon id="polygon881" points="39.2008130283,24.1785393476 38.6235324783,23.5885654422 38.3066054563,24.4175307339" />
		<polygon id="polygon883" points="39.3699562294,32.1033551722 38.4457300689,32.0698732872 38.8244261097,32.8024338409" />
		<polygon id="polygon885" points="39.3699562294,7.0998916078 38.4457300689,7.06640972276 38.8244261097,7.79897027648" />
		<polygon id="polygon887" points="39.4802168145,18.3399913253 38.9583551973,17.4538759195 38.4982625989,18.2464729567" />
		<polygon id="polygon889" points="39.5922092412,13.6213546302 39.5696952998,12.751402893 38.7920983989,13.3171312954" />
		<polygon id="polygon891" points="39.6118367799,25.9109382615 39.5887455579,25.0409865243 38.8117259376,25.6067149267" />
		<polygon id="polygon893" points="39.6118367799,0.90747469704 39.5887455579,0.03752295988 38.8117259376,0.60325136228" />
		<polygon id="polygon895" points="39.630887038,19.784330573 38.706083597,19.750848688 39.0853569183,20.4834092417" />
		<polygon id="polygon897" points="39.630887038,44.7877941375 38.706083597,44.7537349786 39.0853569183,45.4868728062" />
		<polygon id="polygon899" points="39.647628174,47.7313136516 40.4639028717,47.2948945983 39.7688570895,46.8521255324" />
		<polygon id="polygon901" points="39.647628174,22.728427361 40.4639028717,22.2920083078 39.7688570895,21.8486619679" />
		<polygon id="polygon903" points="39.6522464184,30.8645254258 39.1309620817,29.9766781983 38.671446764,30.7698525094" />
		<polygon id="polygon905" points="39.6522464184,5.86048458744 39.1309620817,4.97379190776 38.671446764,5.766388945" />
		<polygon id="polygon907" points="39.6603283461,35.1103748132 40.4766030438,34.6751103076 39.7809799811,34.2311866939" />
		<polygon id="polygon909" points="39.7809799811,9.22830040336 39.6603283461,10.1069112487 40.4766030438,9.6716467432" />
		<polygon id="polygon911" points="40.1111844557,14.9848755347 40.0459517535,15.8698363928 40.8333624237,15.3837717858" />
		<polygon id="polygon913" points="40.2145176741,27.2369363638 40.1487076914,28.1224744958 40.9361183616,27.6364098888" />
		<polygon id="polygon915" points="40.2145176741,2.23462734716 40.1487076914,3.11901093132 40.9361183616,2.63294632436" />
		<polygon id="polygon917" points="4.0848371718,39.6315838413 5.010795174,39.6385111279 4.6101624723,38.9169187779" />
		<polygon id="polygon919" points="4.2534030924,0.55129671308 3.37420481475,0.67021513236 4.01267710305,1.33985283316" />
		<polygon id="polygon921" points="4.34172701655,31.7211998637 4.3896413022,30.8362390056 3.61204440135,31.3367354596" />
		<polygon id="polygon923" points="4.3503862248,42.1311797417 3.97342202565,41.2866280553 3.4821562776,41.9487611956" />
		<polygon id="polygon925" points="4.3896413022,5.83219816732 3.61204440135,6.33327189516 4.34172701655,6.71773629924" />
		<polygon id="polygon927" points="4.51952942595,48.2352737488 4.8791752086,49.047498098 5.34388605135,48.2468192264" />
		<polygon id="polygon929" points="4.525879512,19.4662526652 4.5743710782,18.5801372594 3.79677417735,19.0806337133" />
		<polygon id="polygon931" points="4.6101624723,13.9134552134 4.0848371718,14.6286975508 5.010795174,14.6350475634" />
		<polygon id="polygon933" points="4.6124715945,21.6108251294 5.52168846075,21.4382202392 4.9900130742,20.8084144362" />
		<polygon id="polygon935" points="40.4696756772,36.780428148 41.3788925435,36.9559194075 41.1173844543,36.1737133001" />
		<polygon id="polygon937" points="40.4696756772,11.7769645836 41.3788925435,11.953033117 41.1173844543,11.1702497357" />
		<polygon id="polygon939" points="40.5753180179,20.6866096475 41.0821703408,21.3360427625 41.4908849702,20.5486411902" />
		<polygon id="polygon941" points="40.5753180179,45.689495938 41.0821703408,46.3400836008 41.4908849702,45.5521047546" />
		<polygon id="polygon943" points="40.6128412536,49.2616667075 41.5214808393,49.437157967 41.2599727501,48.6549518596" />
		<polygon id="polygon945" points="40.6128412536,24.258203143 41.5214808393,24.4342716764 41.2599727501,23.6514882952" />
		<polygon id="polygon947" points="40.8333624237,40.3872353502 40.1111844557,39.9877618253 40.0459517535,40.8727226833" />
		<polygon id="polygon949" points="41.4031383265,29.8768098171 40.9834553667,28.9375852143 40.4385025275,29.6736094113" />
		<polygon id="polygon951" points="41.4031383265,4.87334625264 40.9834553667,3.93412164988 40.4385025275,4.67072312076" />
		<polygon id="polygon953" points="41.5214808393,19.3490660675 41.5699724055,18.4629506617 40.7912209436,18.9646016634" />
		<polygon id="polygon955" points="41.5214808393,44.352529632 41.5699724055,43.4664142262 40.7912209436,43.9680652279" />
		<polygon id="polygon957" points="41.5364901336,26.3433163976 41.7766388424,25.5536057298 40.8974405647,25.6731014229" />
		<polygon id="polygon959" points="41.6490598409,32.9230840818 40.7340701691,33.0604752653 41.240922492,33.7099083803" />
		<polygon id="polygon961" points="41.6490598409,7.9196205174 40.7340701691,8.05701170084 41.240922492,8.70702208972" />
		<polygon id="polygon963" points="41.7766388424,0.55014216532 40.8974405647,0.66963785848 41.5364901336,1.33927555928" />
		<polygon id="polygon965" points="41.8713128526,42.3643983892 41.4943486535,41.5204239767 41.0030829054,42.1831343909" />
		<polygon id="polygon967" points="41.8713128526,17.3615120987 41.4943486535,16.5169604122 41.0030829054,17.1796708265" />
		<polygon id="polygon969" points="41.9140316133,38.2772993188 41.0354106162,38.396795012 41.6738829045,39.0664327128" />
		<polygon id="polygon971" points="41.9140316133,13.2744130283 41.0354106162,13.3939087214 41.6738829045,14.0635464222" />
		<polygon id="polygon973" points="41.9215362604,30.8408571967 41.1433620791,31.3413536506 41.8730446942,31.7258180547" />
		<polygon id="polygon975" points="41.9215362604,5.83681635836 41.1433620791,6.3378900862 41.8730446942,6.72235449028" />
		<polygon id="polygon977" points="42.1224298918,21.9167802858 43.0310694775,21.7441753956 42.499394091,21.1137923187" />
		<polygon id="polygon979" points="42.1224298918,46.9196665763 43.0310694775,46.7470616862 42.499394091,46.1166786092" />
		<polygon id="polygon981" points="42.4474388415,35.563534809 42.8065073436,36.3740273365 43.2717954669,35.5739257388" />
		<polygon id="polygon983" points="42.4474388415,10.5606485184 42.8065073436,11.3711410459 43.2717954669,10.5704621744" />
		<polygon id="polygon985" points="42.4555207692,48.0863370878 42.8145892713,48.8974068892 43.2804546751,48.0978825654" />
		<polygon id="polygon987" points="42.4555207692,23.0834507972 42.8145892713,23.8939433248 43.2804546751,23.0949962748" />
		<polygon id="polygon989" points="42.6408278257,39.9334980806 43.5667858279,39.9392708194 43.1667304068,39.2188330171" />
		<polygon id="polygon991" points="42.6575689617,34.4430462079 43.5667858279,34.2704413178 43.0351104414,33.6400582408" />
		<polygon id="polygon993" points="42.6575689617,9.43958264344 43.5667858279,9.26697775332 43.0351104414,8.63659467636" />
		<polygon id="polygon995" points="42.9479410784,40.9731683384 43.2746818696,41.8390791584 43.804048134,41.2069642598" />
		<polygon id="polygon997" points="43.0674381522,29.6106865584 43.5968044166,28.9779943859 42.7412746414,28.7447757384" />
		<polygon id="polygon999" points="43.5667858279,14.9363845288 43.1667304068,14.2159467266 42.6408278257,14.9294572422" />
		<polygon id="polygon1001" points="43.5742904751,5.86972096952 43.509057773,6.75468182756 44.2964684432,6.2686172206" />
		<polygon id="polygon1003" points="43.596227136,27.3148683376 43.1961717148,26.5932759876 42.6702691338,27.3079410511" />
		<polygon id="polygon1005" points="43.596227136,2.3114047732 43.1961717148,1.59038969708 42.6702691338,2.30505476052" />
		<polygon id="polygon1007" points="43.5968044166,3.97453082148 42.7412746414,3.74131217396 43.0674381522,4.60722299396" />
		<polygon id="polygon1009" points="43.804048134,16.2035006954 42.9479410784,15.9702820479 43.2746818696,16.8361928679" />
		<polygon id="polygon1011" points="44.0037872043,44.0996836725 43.2816092362,43.7019419692 43.2157992536,44.5857482795" />
		<polygon id="polygon1013" points="44.0037872043,19.096797382 43.2816092362,18.6984784048 43.2157992536,19.5828619889" />
		<polygon id="polygon1015" points="44.1013476172,48.9603297421 44.750788236,49.620153787 44.9782367727,48.8275567497" />
		<polygon id="polygon1017" points="44.1434890974,20.7876325765 45.0659834163,20.8511327033 44.7115331586,20.107026672" />
		<polygon id="polygon1019" points="44.1434890974,45.7910961409 45.0659834163,45.8540189938 44.7115331586,45.1099129625" />
		<polygon id="polygon1021" points="44.1590756723,36.2776225985 44.808516291,36.9368693695 45.0365421083,36.1442723322" />
		<polygon id="polygon1023" points="44.1590756723,11.2741590341 44.808516291,11.9339830789 45.0365421083,11.1413860417" />
		<polygon id="polygon1025" points="44.2964684432,31.2715035112 43.5742904751,30.873184534 43.509057773,31.758145392" />
		<polygon id="polygon1027" points="44.5862632792,25.8185744407 43.827139356,25.2897915666 43.7486292012,26.110675024" />
		<polygon id="polygon1029" points="44.5862632792,0.81568815012 43.827139356,0.28690527604 43.7486292012,1.1077887334" />
		<polygon id="polygon1031" points="44.7265424529,22.4184312875 45.5895768752,22.7532501379 45.4712343624,21.9369848716" />
		<polygon id="polygon1033" points="44.7357789417,33.2475120024 44.381328684,32.5028286972 43.8127073423,33.1834346017" />
		<polygon id="polygon1035" points="44.7357789417,8.24404843796 44.381328684,7.49936513276 43.8127073423,8.18054831116" />
		<polygon id="polygon1037" points="44.750788236,24.6166902225 44.9782367727,23.8240931853 44.1013476172,23.9574434516" />
		<polygon id="polygon1039" points="45.1519982183,38.4423996485 44.392874295,37.9130395006 44.3149414208,38.7339229579" />
		<polygon id="polygon1041" points="45.1519982183,13.4389360841 44.392874295,12.91015321 44.3149414208,13.7310366674" />
		<polygon id="polygon1043" points="45.2201173231,42.404230287 44.4090381504,42.5520124002 44.9187768761,43.2782229413" />
		<polygon id="polygon1045" points="45.2201173231,17.3996121748 44.4090381504,17.5485488358 44.9187768761,18.2747593768" />
		<polygon id="polygon1047" points="45.2841954642,30.0274782998 45.5866904724,29.1529083716 44.7750340191,29.3018450326" />
		<polygon id="polygon1049" points="45.5866904724,4.14886753324 44.7750340191,4.29780419428 45.2841954642,5.02401473532" />
		<polygon id="polygon1051" points="45.5895768752,47.7561364284 45.4712343624,46.9398711621 44.7265424529,47.421317578" />
		<polygon id="polygon1053" points="45.6709734327,40.6700995514 45.6138226583,39.8480615463 44.8344939158,40.272935122" />
		<polygon id="polygon1055" points="45.6709734327,15.666635987 45.6138226583,14.844020708 44.8344939158,15.2700488314" />
		<polygon id="polygon1057" points="45.8037479592,7.0017550482 46.0664106095,7.84919310404 46.6217544985,7.108550716" />
		<polygon id="polygon1059" points="45.9047720555,28.1334426995 45.8470440004,27.3102501466 45.0682925385,27.7357009962" />
		<polygon id="polygon1061" points="45.9047720555,3.12997913504 45.8470440004,2.30678658216 45.0682925385,2.7328147056" />
		<polygon id="polygon1063" points="46.0756470983,35.0214746356 45.9625001105,34.0539636128 45.2455176674,34.625464754" />
		<polygon id="polygon1065" points="46.0756470983,10.0180110712 45.9625001105,9.0510773222 45.2455176674,9.62200118952" />
		<polygon id="polygon1067" points="46.0779562205,19.4402753406 46.3411961513,20.2882906703 46.8959627598,19.5476482822" />
		<polygon id="polygon1069" points="46.0779562205,44.443738905 46.3411961513,45.2917542347 46.8959627598,44.5511118467" />
		<polygon id="polygon1071" points="46.1241386645,42.5687533428 47.0056460643,42.6703535456 46.551903552,41.8627473875" />
		<polygon id="polygon1073" points="46.1241386645,17.5652897783 47.0056460643,17.6668899812 46.551903552,16.859861097" />
		<polygon id="polygon1075" points="46.159352778,30.675756867 47.0402828973,30.7762025221 46.586540385,29.9703281856" />
		<polygon id="polygon1077" points="4.7394733155,34.2277230506 5.64869018175,34.0539636128 5.1170147952,33.4235805358" />
		<polygon id="polygon1079" points="4.7394733155,9.22368221232 5.64869018175,9.0510773222 5.1170147952,8.42069424524" />
		<polygon id="polygon1081" points="5.068523229,3.40476150192 5.3952640203,4.27009504804 5.9240530041,3.63798014944" />
		<polygon id="polygon1083" points="46.3204140515,12.039624199 46.3544736039,12.9257396048 47.083001658,12.3542384636" />
		<polygon id="polygon1085" points="46.586540385,4.9668646212 46.159352778,5.67229330256 47.0402828973,5.77331623156" />
		<polygon id="polygon1087" points="46.6217544985,32.1114370066 45.8037479592,32.0052186126 46.0664106095,32.8520793946" />
		<polygon id="polygon1089" points="46.6742870286,47.9662641208 47.4611204183,47.4801995138 46.7395197308,47.0818805366" />
		<polygon id="polygon1091" points="46.7395197308,22.078994246 46.6742870286,22.9628005563 47.4611204183,22.4767359494" />
		<polygon id="polygon1093" points="47.0477875444,14.5011200233 47.0818470969,15.3883899768 47.8097978705,14.8168888356" />
		<polygon id="polygon1095" points="47.0731878887,27.0735678558 47.1072474411,27.9596832616 47.8346209341,27.3893366682" />
		<polygon id="polygon1097" points="47.083001658,37.357702028 46.3204140515,37.0430877634 46.3544736039,37.9292031692" />
		<polygon id="polygon1099" points="47.0980109523,24.6934676486 46.2828908157,24.816426985 46.7701155999,25.5582239208" />
		<polygon id="polygon1101" points="47.302368267,35.8192671378 48.0118460629,35.3822708106 47.3618281637,35.0237837312" />
		<polygon id="polygon1103" points="47.5240439982,45.5474865636 47.9500770441,46.2228970032 48.2600766995,45.449350004" />
		<polygon id="polygon1105" points="47.6510457192,7.93001144724 48.1244157702,8.67989021736 48.468474978,7.82090668392" />
		<polygon id="polygon1107" points="47.7913248929,49.3730805663 48.6849551842,49.13408918 48.0239689545,48.6359018216" />
		<polygon id="polygon1109" points="47.8097978705,39.8197751262 47.0477875444,39.5051608616 47.0818470969,40.3912762674" />
		<polygon id="polygon1111" points="47.8346209341,2.38587310372 47.0731878887,2.07068156524 47.1072474411,2.95679697104" />
		<polygon id="polygon1113" points="48.0118460629,10.3793845201 47.3618281637,10.0208974406 47.302368267,10.8163808472" />
		<polygon id="polygon1115" points="48.0972835843,4.9524327742 48.1013245482,5.87780280384 48.8177297108,5.46967017068" />
		<polygon id="polygon1117" points="48.1244157702,33.6827765079 48.468474978,32.8237929745 47.6510457192,32.9328977378" />
		<polygon id="polygon1119" points="48.2600766995,20.4464637134 47.5240439982,20.544600273 47.9500770441,21.2200107126" />
		<polygon id="polygon1121" points="48.2981772158,38.8095458362 48.6814915009,39.4814926325 49.1132973524,38.6629182707" />
		<polygon id="polygon1123" points="48.3143410711,12.5505115828 49.1196474384,12.3351884255 48.5244711914,11.8866466208" />
		<polygon id="polygon1125" points="48.3403186959,42.1404161238 48.3443596598,43.0657861534 49.0607648223,42.6576535203" />
		<polygon id="polygon1127" points="48.3553279902,25.9934884263 48.7380649949,26.6665897704 49.1692935657,25.8468608608" />
		<polygon id="polygon1129" points="48.6849551842,24.1312028894 48.0239689545,23.6324382571 47.7913248929,24.3701942758" />
		<polygon id="polygon1131" points="48.8177297108,30.4731337351 48.0972835843,29.9553190648 48.1013245482,30.8812663683" />
		<polygon id="polygon1133" points="49.0388281614,15.4490037342 48.803297697,16.3039463505 49.6697958025,15.9789411561" />
		<polygon id="polygon1135" points="49.0607648223,17.6547672297 48.3403186959,17.1369525594 48.3443596598,18.0628998629" />
		<polygon id="polygon1137" points="49.1029063025,47.7359318426 49.6449727389,48.3616967286 49.8689575923,47.4461403549" />
		<polygon id="polygon1139" points="49.1132973524,13.6600319801 48.2981772158,13.8066595456 48.6814915009,14.478606342" />
		<polygon id="polygon1141" points="49.1196474384,37.3380747161 48.5244711914,36.8895329113 48.3143410711,37.5539751472" />
		<polygon id="polygon1143" points="49.1375431355,31.5214631012 49.8481754925,32.051400523 49.8614529452,31.1271850412" />
		<polygon id="polygon1145" points="49.1375431355,6.51799953676 49.8481754925,7.04909150636 49.8614529452,6.12372147672" />
		<polygon id="polygon1147" points="49.1692935657,0.84455184412 48.3553279902,0.99117940964 48.7380649949,1.66312620596" />
		<polygon id="polygon1149" points="49.3898147358,44.6532893234 49.4025149079,43.7290738416 48.6786050982,44.1221973538" />
		<polygon id="polygon1151" points="49.4025149079,18.7256102771 48.6786050982,19.1193110633 49.3898147358,19.6504030329" />
		<polygon id="polygon1153" points="49.542216801,28.708407484 48.9118264404,28.1784700621 48.6751414149,29.0334126784" />
		<polygon id="polygon1155" points="49.542216801,3.70609846728 48.9118264404,3.17500649768 48.6751414149,4.02994911396" />
		<polygon id="polygon1157" points="49.6449727389,23.358810438 49.8689575923,22.4432540643 49.1029063025,22.7330455521" />
		<polygon id="polygon1159" points="49.6697958025,40.9824047205 49.0388281614,40.4524672987 48.803297697,41.3068326411" />
		<polygon id="polygon1161" points="49.8522164563,35.1219202908 49.0867424471,35.4105572308 49.6299634446,36.0368993906" />
		<polygon id="polygon1163" points="49.8522164563,10.1184567263 49.0867424471,10.4076709402 49.6299634446,11.0340131" />
		<polygon id="polygon1165" points="5.3444633319,36.0530630592 5.8097514552,35.2523841876 4.98481754925,35.2419932578" />
		<polygon id="polygon1167" points="5.42701445055,15.9114001121 5.7531779613,16.7773109321 6.28254422565,16.1451960335" />
		<polygon id="polygon1169" points="5.49975179985,46.7257025526 4.9680764133,46.0964740234 4.5905349336,46.8994619905" />
		<polygon id="polygon1171" points="5.7531779613,41.7807744966 6.28254422565,41.1480823241 5.42701445055,40.9148636766" />
		<polygon id="polygon1173" points="0.43122857085,34.0199044538 0.0,34.0037407852 0.0,33.3548849441 0.0531098106,33.2873439001" />
		<polygon id="polygon1175" points="0.0531098106,20.770891634 0.0,20.8384326779 0.0,21.4878657929 0.43122857085,21.5040294616" />
		<polygon id="polygon1177" points="0.0531098106,45.7755097462 0.0,45.8430507901 0.0,46.4919066312 0.43122857085,46.5080702999" />
		<polygon id="polygon1179" points="0.43122857085,9.0164408894 0.0,9.00085449464 0.0,8.35142137964 0.0531098106,8.2833030618" />
		<polygon id="polygon1181" points="9.4258368204,1.57679998836e-07 8.76831427395,0.51550573252 8.7492640158,1.57679998836e-07" />
		<polygon id="polygon1183" points="8.73483200205,49.6322765384 8.7492640158,50.0 9.4304550648,50.0 9.49684232805,49.9480453508" />
		<polygon id="polygon1185" points="21.9355063389,1.57679998836e-07 21.278561073,0.51550573252 21.2589335343,1.57679998836e-07" />
		<polygon id="polygon1187" points="21.2450788011,49.6322765384 21.2589335343,50.0 21.9407018638,50.0 22.0070891271,49.9480453508" />
		<polygon id="polygon1189" points="34.4382484908,1.57679998836e-07 33.7818805054,0.51550573252 33.7622529667,1.57679998836e-07" />
		<polygon id="polygon1191" points="33.747820953,49.6322765384 33.7616756862,50.0 34.4434440157,50.0 34.509831279,49.9480453508" />
		<polygon id="polygon1193" points="46.9484952899,1.57679998836e-07 46.2915500239,0.51550573252 46.2719224853,1.57679998836e-07" />
		<polygon id="polygon1195" points="46.2580677521,49.6322765384 46.2719224853,50.0 46.9536908148,50.0 47.020078078,49.9480453508" />
		<polygon id="polygon1197" points="50.0000002772,33.3952941157 49.5375985566,33.985268021 50.0000002772,34.0025862374" />
		<polygon id="polygon1199" points="50.0000002772,20.8794191234 49.5375985566,21.4699703026 50.0000002772,21.4867112452" />
		<polygon id="polygon1201" points="50.0000002772,45.8834599617 49.5375985566,46.4734338671 50.0000002772,46.4907520835" />
		<polygon id="polygon1203" points="50.0000002772,8.39183055124 49.5375985566,8.98238173048 50.0000002772,8.99969994688" />
	</g>
</svg>
