<?xml version="1.0" encoding="UTF-8" standalone="no"?>
<svg xmlns:dc="http://purl.org/dc/elements/1.1/" xmlns:cc="http://creativecommons.org/ns#" xmlns:rdf="http://www.w3.org/1999/02/22-rdf-syntax-ns#" xmlns:svg="http://www.w3.org/2000/svg" xmlns="http://www.w3.org/2000/svg" version="1.1" x="0px" y="0px" xml:space="preserve" width="50.00" height="50.00" viewBox="0 0 50.00 50.00">
	<metadata id="metadata2">
		<rdf:RDF>
			<ns:item rdf:ID="biblio1">
				<ns:link>rdf:resource=&quot;http://pubs.usgs.gov/tm/2006/11A02/</ns:link>
				<ns:title>U.S. Geological Survey, 2006, FGDC Digital Cartographic Standard for Geologic Map Symbolization (PostScript Implementation): U.S. Geological Survey Techniques and Methods 11-A2</ns:title>
			</ns:item>
			<ns:item rdf:ID="biblio2">
				<ns:link>https://davenquinn.com/projects/geologic-patterns/</ns:link>
				<ns:title>FGDC Geologic Patterns for the Web</ns:title>
			</ns:item>
			<rdf:Description>
				<dc:description>
					Converted from 'FGDC Geologic Patterns for the Web' to QGIS compatible svg symbols, with customisable fill colour/stroke colour/stroke width (when appropriate).
					SVG scaled to 50x50 pixels so that base outline-width is 0.387 px and width is 90 in the QGIS xml definition file. 
					Some of the original FGDC symbols have been omitted from this set because they can be generated from other symbols using the 'texture width' and/or 'stroke width' fields in QGIS symbology form.
				</dc:description>
				<dc:date>01 MARCH 2019</dc:date>
				<dc:creator>GeoProc.com</dc:creator>
				<dc:publisher rdf:resource="https://github.com/BC-Consulting/QGIS-FGDC-Fill" />
			</rdf:Description>
			<cc:Work rdf:about="">
				<dc:format>image/svg+xml</dc:format>
				<dc:type rdf:resource="http://purl.org/dc/dcmitype/StillImage" />
				<dc:title>FGDC fill symbol: Glacial and Periglacial - 522</dc:title>
			</cc:Work>
		</rdf:RDF>
	</metadata>
	<path style="fill:none;stroke:none;stroke-width:0;" id="rect1500" width="50.00" height="50.00" x="0.0" y="0.0" />
	<g id="g959" style="fill:none;stroke-width:0.5;" stroke="param(outline) #000">
		<path d="M21.1 16.65C27.6 17.74 30.31 16.42 33.11 15.22" id="path16" />
		<path d="M3.139 10.59C6.587 10.37 9.564 9.336 12.45 8.156" id="path823" />
		<path d="M14.3 4.313C17.68 4.607 20.43 3.706 22.9 2.22" id="path825" />
		<path d="M27.68 0.5765C31.39 1.294 34.63 0.7473 37.77 5e-05" id="path827" />
		<path d="M43.03 3.138C45.83 3.309 48.05 2.771 50.0 1.9" id="path829" />
		<path d="M39.99 10.25C44.83 10.25 46.49 9.646 48.94 9.181" id="path831" />
		<path d="M27.68 11.32C28.82 11.54 32.6 9.802 36.79 7.75" id="path833" />
		<path d="M25.01 5.338C26.81 5.73 28.61 5.829 30.42 5.7" id="path835" />
		<path d="M8.404 1.388C10.58 1.505 12.7 1.018 14.8 0.3203" id="path837" />
		<path d="M2.369 4.846C4.439 5.216 5.852 4.953 7.229 4.676" id="path839" />
		<path d="M16.87 10.95C18.96 11.14 21.12 10.56 23.29 9.885" id="path841" />
		<path d="M37.77 15.14C40.01 15.57 41.27 15.24 42.63 14.92" id="path843" />
		<path d="M46.74 15.95C48.07 16.19 49.13 16.31 49.98 16.33" id="path845" />
		<path d="M44.89 23.42C46.29 23.89 48.2 24.04 50.0 24.23" id="path847" />
		<path d="M32.06 22.84C35.64 22.48 39.08 21.16 42.53 19.86" id="path849" />
		<path d="M25.47 21.07C26.49 21.33 28.05 20.67 29.36 20.39" id="path851" />
		<path d="M7.553 22.14C14.0 22.14 16.64 20.86 17.88 20.0" id="path853" />
		<path d="M10.67 14.2C12.43 14.64 15.03 14.87 17.62 15.09" id="path855" />
		<path d="M0.0 16.35C4.449 16.35 6.636 15.46 8.647 14.5" id="path857" />
		<path d="M0.972 20.39C1.819 20.62 3.507 19.96 4.86 19.66" id="path859" />
		<path d="M0.0 24.23C1.887 24.23 1.979 24.23 2.714 24.23" id="path861" />
		<path d="M0.6277 28.42C3.155 28.69 4.303 28.42 5.528 28.2" id="path863" />
		<path d="M10.08 27.86C12.94 27.52 15.48 27.05 17.98 26.58" id="path865" />
		<path d="M19.24 24.13C24.3 25.19 25.03 24.85 27.18 24.98" id="path867" />
		<path d="M25.17 29.1C27.8 29.46 28.75 29.1 30.03 28.89" id="path869" />
		<path d="M34.59 28.54C39.49 28.54 41.78 27.99 43.9 27.33" id="path871" />
		<path d="M41.31 31.68C43.46 33.2 47.39 33.58 49.92 33.6" id="path873" />
		<path d="M46.74 38.37C46.74 38.37 49.98 38.79 49.98 38.79" id="path875" />
		<path d="M33.07 38.37C37.89 38.09 40.99 37.36 43.7 36.57" id="path877" />
		<path d="M27.84 34.27C31.29 34.27 33.74 33.56 36.45 33.03" id="path879" />
		<path d="M14.34 32.3C16.51 33.8 20.51 34.37 22.94 34.27" id="path881" />
		<path d="M3.321 33.54C6.041 33.54 9.029 32.86 11.95 32.3" id="path883" />
		<path d="M2.025 38.71C1.248 38.71 0.4992 38.92 0.0 38.71" id="path885" />
		<path d="M6.034 38.96C10.76 39.18 13.81 38.66 15.86 37.9" id="path887" />
		<path d="M21.1 39.07C23.31 39.52 24.99 39.48 26.49 39.41" id="path889" />
		<path d="M30.17 42.74C31.18 42.96 32.68 42.36 34.02 42.04" id="path891" />
		<path d="M38.48 43.87C40.86 43.87 43.46 43.15 46.07 42.44" id="path893" />
		<path d="M49.11 44.05C49.11 44.05 50.0 44.05 50.0 44.05" id="path895" />
		<path d="M48.09 49.3C48.09 49.3 50.0 49.6 50.0 49.6" id="path897" />
		<path d="M36.45 48.32C39.83 48.53 42.85 48.1 45.4 47.76" id="path899" />
		<path d="M24.3 46.91C32.36 46.91 33.64 46.07 35.09 45.84" id="path901" />
		<path d="M11.95 47.61C15.17 47.82 18.13 47.61 20.86 47.08" id="path903" />
		<path d="M13.97 43.15C16.89 42.93 19.17 42.34 21.55 41.74" id="path905" />
		<path d="M0.0 44.09C4.133 44.3 7.569 44.09 10.13 43.87" id="path907" />
		<path d="M0.0 49.62C2.513 49.85 4.836 49.98 6.925 50.0" id="path909" />
		<path d="M0.0 1.857C0.0 1.857 1.519 1.003 1.519 1.003" id="path911" />
	</g>
</svg>
