<?xml version="1.0" encoding="UTF-8" standalone="no"?>
<svg xmlns:dc="http://purl.org/dc/elements/1.1/" xmlns:cc="http://creativecommons.org/ns#" xmlns:rdf="http://www.w3.org/1999/02/22-rdf-syntax-ns#" xmlns:svg="http://www.w3.org/2000/svg" xmlns="http://www.w3.org/2000/svg" version="1.1" x="0px" y="0px" xml:space="preserve" width="50.00" height="50.00" viewBox="0 0 50.00 50.00">
	<metadata id="metadata2">
		<rdf:RDF>
			<ns:item rdf:ID="biblio1">
				<ns:link>rdf:resource=&quot;http://pubs.usgs.gov/tm/2006/11A02/</ns:link>
				<ns:title>U.S. Geological Survey, 2006, FGDC Digital Cartographic Standard for Geologic Map Symbolization (PostScript Implementation): U.S. Geological Survey Techniques and Methods 11-A2</ns:title>
			</ns:item>
			<ns:item rdf:ID="biblio2">
				<ns:link>https://davenquinn.com/projects/geologic-patterns/</ns:link>
				<ns:title>FGDC Geologic Patterns for the Web</ns:title>
			</ns:item>
			<rdf:Description>
				<dc:description>
					Converted from 'FGDC Geologic Patterns for the Web' to QGIS compatible svg symbols, with customisable fill colour/stroke colour/stroke width (when appropriate).
					SVG scaled to 50x50 pixels so that base outline-width is 0.387 px and width is 90 in the QGIS xml definition file. 
					Some of the original FGDC symbols have been omitted from this set because they can be generated from other symbols using the 'texture width' and/or 'stroke width' fields in QGIS symbology form.
				</dc:description>
				<dc:date>01 MARCH 2019</dc:date>
				<dc:creator>GeoProc.com</dc:creator>
				<dc:publisher rdf:resource="https://github.com/BC-Consulting/QGIS-FGDC-Fill" />
			</rdf:Description>
			<cc:Work rdf:about="">
				<dc:format>image/svg+xml</dc:format>
				<dc:type rdf:resource="http://purl.org/dc/dcmitype/StillImage" />
				<dc:title>FGDC fill symbol: Glacial and Periglacial - 524</dc:title>
			</cc:Work>
		</rdf:RDF>
	</metadata>
	<path style="fill:none;stroke:none;stroke-width:0;" id="rect1500" width="50.00" height="50.00" x="0.0" y="0.0" />
	<g fill="param(outline) #000" style="stroke:none;stroke-width:0;">
		<path d="m 4.557359,27.305424 c -0.3541129,0.656585 -1.1600885,1.056806 -0.9572114,1.409997 0.2028772,0.353191 0.5514571,0.840096 0.9018812,0.991332 0.3559573,0.149392 2.5184434,1.429362 0.7884545,2.943563 -0.4075986,0.360568 -0.2757286,0.226854 -0.6796386,0.526558 -0.4029877,0.303394 -0.2637402,0.492439 0,0.894504 0.2508301,0.380856 0.299705,0.393767 0.8530064,0.596644 0.5560678,0.201955 0.355035,-0.756179 0.4020656,-1.515124 0.054408,-0.755257 1.4146072,-1.208041 1.8673921,-1.764109 0.4527851,-0.554223 -0.049797,-1.059572 -0.906492,-1.111214 -0.8603836,-0.05072 -0.6058651,-0.452785 -0.452785,-0.805054 0.1484693,-0.35319 0.3006271,-0.201954 0.452785,-0.655661 0.1503135,-0.455552 -0.1521579,-0.201955 -0.7607894,0.05072 -0.6012542,0.25083 -0.447252,-0.201955 -0.447252,-0.85854 0,-0.655662 0.029509,-1.587052 0.5597566,-1.510512 0.7063814,0.100516 1.2449281,0.0018 1.4597934,-0.35319 C 7.9887497,25.580047 7.1975287,25.739582 7.1182222,25.601257 7.0398379,25.464776 7.2537811,25.328295 7.3921064,25.232389 7.5276652,25.134639 7.2943565,24.864443 6.8849134,24.83309 6.3297678,24.798047 5.856695,24.991703 5.4721506,25.439877 5.2794173,25.661198 5.1604575,25.743271 5.0248986,26.271673 4.8828847,26.799154 4.557359,27.305424 4.557359,27.305424 Z" id="path5" />
		<path d="m 14.916082,33.662858 0.05256,-0.129104 c 0.04979,-0.454629 0.09959,-1.030985 -0.402066,-0.677794 -0.507192,0.352268 -0.459239,1.666359 0.349502,0.806898 z" id="path7" />
		<path d="m 4.2797861,32.418852 0.1023608,-0.09221 c 0.2582073,-0.379934 0.5680561,-0.867761 -0.041498,-0.787532 -0.6095537,0.08115 -1.168388,1.267981 -0.060863,0.879749 z" id="path9" />
		<path d="m 5.638141,44.016048 c 0.25083,0.45463 1.4607156,0.04887 1.1563999,-0.554223 -0.3015493,-0.604943 -1.4367393,0.05441 -1.1563999,0.554223 z" id="path11" />
		<path d="m 17.049982,35.941537 0.143858,0.04426 c 0.321837,0.15308 0.435263,0.297861 0.770934,0.242531 0.33198,-0.05164 0.688859,-0.681483 -0.469384,-1.362966 -1.161011,-0.681483 -2.307268,-0.727591 -2.520288,-0.05164 -0.212099,0.670416 0.302471,0.885282 0.840096,0.842862 0.542235,-0.04057 0.624308,0.03873 1.234784,0.28495 z" id="path13" />
		<path d="m 17.532276,37.329401 c -0.857617,0.200111 -0.705459,0.9526 -0.705459,1.864626 0,0.453707 1.46256,-0.05164 2.218739,-1.059572 0.756178,-1.007931 -0.655662,-1.007931 -1.51328,-0.805054 z" id="path15" />
		<path d="m 13.485799,42.782187 c 0.503504,-0.402988 0.604021,-0.654741 1.110292,-0.654741 0.505348,0 0.654739,0.100517 1.307635,-0.101438 0.658428,-0.201033 0.709148,-1.563999 -0.346736,-1.563999 -1.061416,0 -2.55533,1.468093 -3.129841,2.169864 -0.452785,0.553301 0.555146,0.553301 1.05865,0.150314 z" id="path17" />
		<path d="m 6.5346045,46.523518 c 0.5533014,-0.05072 1.8157506,-0.754334 1.7622649,-1.310402 -0.048875,-0.555145 -0.201955,-0.605865 -1.0568056,0 -0.8576172,0.604943 -1.1112136,1.347289 -0.7054593,1.310402 z" id="path19" />
		<path d="m 3.4544449,45.141095 c 0.3043158,-0.605866 0.3043158,-1.311325 0,-1.612874 -0.2960163,-0.304315 -1.1075249,0.452785 -1.5593877,1.663592 -0.1890447,0.499817 1.2624493,0.554225 1.5593877,-0.05072 z" id="path21" />
		<path d="m 8.0929547,27.454816 c -0.55699,0.556991 -0.2748063,0.52287 -0.074696,0.723903 0.3670232,0.367023 0.2037993,0.08023 1.0005533,0.210254 C 9.568425,28.478427 9.9133162,27.96662 9.7067504,27.75821 9.1525269,27.196608 8.6481005,26.900593 8.0929547,27.454816 Z" id="path23" />
		<path d="m 16.7346,43.419405 c 0.251752,0.25083 0.756178,0.05072 1.209886,-0.303393 0.452785,-0.353191 1.160088,-0.756179 1.916267,-0.857618 0.757101,-0.09959 0.605865,-0.452785 0.605865,-1.009774 0,-0.551457 -0.0498,-0.653818 0.201955,-1.107526 0.251752,-0.452785 0.605865,-1.009774 1.007009,-1.009774 0.40391,0 0.556989,-0.249908 0.607708,-0.555147 0.04795,-0.301549 -0.100515,-0.352268 -0.656584,-0.352268 -0.555145,0 -0.344891,-0.09221 -0.605864,-0.402988 -0.251753,-0.303393 -0.302473,-0.303393 -0.808743,0.05072 -0.503504,0.352269 -0.503504,1.108448 -0.503504,1.612874 0,0.505348 -0.502582,0.959056 -1.360199,1.562154 -0.856696,0.606788 -1.865548,2.120067 -1.613796,2.37274 z" id="path25" />
		<path d="m 14.891184,44.465145 c 0.346736,-0.304316 -0.07561,-0.785688 -0.50627,-0.355035 -0.304316,0.304316 0.147546,0.655662 0.50627,0.355035 z" id="path27" />
		<path d="m 20.951679,28.110478 c -0.302472,0.301549 0.154002,0.65474 0.506271,0.353191 0.350424,-0.303394 -0.07285,-0.783844 -0.506271,-0.353191 z" id="path29" />
		<path d="m 10.315382,41.990043 c 0.455551,-0.503504 0.507193,-0.503504 1.009775,-0.453706 0.505349,0.05072 0.908336,-0.09775 0.908336,-0.70546 0,-0.453707 0.755256,-1.161933 1.514202,-1.613796 0.754334,-0.454629 1.059572,-0.65474 0.90557,-1.21173 -0.151236,-0.553301 -0.90557,-1.109369 -1.258761,-0.85485 -0.355035,0.249907 -1.613795,2.620803 -2.724087,3.225747 -1.1093692,0.604942 -2.2205828,0.80782 -2.4695685,0.40391 -0.2526742,-0.402988 -0.3033936,-1.209886 -0.7063814,-1.209886 -0.4048322,0 -0.4546292,0.506271 -0.6547399,0.85854 -0.2037993,0.351346 -0.2535965,0.805974 -0.9101808,0.755256 -0.6556621,-0.0498 -1.1600885,-0.0498 -1.5123571,0.556067 -0.3559572,0.604021 -0.4564737,1.916268 0.5053486,1.210809 0.9526005,-0.706382 2.3183328,-2.071192 2.974917,-1.414607 0.6556622,0.657506 0.8585394,1.766875 1.1582442,1.766875 0.3033936,0 0.8068979,-0.808742 1.2596829,-1.313169 z" id="path31" />
		<path d="m 23.345629,25.978423 c 0,0 -0.54408,-0.26835 -0.877905,-0.08391 -0.233309,0.128182 -0.976576,0.698082 -0.518258,1.19882 0.309848,0.337514 0.685171,1.421062 1.349133,0.296017 0.286794,-0.491517 0.602176,-1.41092 0.04703,-1.41092 z" id="path33" />
		<path d="m 19.22999,34.578572 c 0.707303,0.706381 1.41184,0.504425 1.5142,0.151235 0.100517,-0.351347 1.410919,-0.04887 1.966987,-0.401143 0.554223,-0.355958 0.451863,-0.658429 0.906492,-1.363889 0.453707,-0.707303 0.402988,-1.057727 0.402988,-1.865548 0,-0.403909 0.392844,-0.754333 0.947989,-1.04205 h 0.0083 c 0,0 0.864994,-0.286795 1.095536,-0.69716 0.22962,-0.414054 -0.01291,-0.834563 0.280339,-1.174843 0.465696,-0.540391 1.290115,-1.41184 1.894135,-1.109369 0,0 0.18259,0.08023 0.45924,-0.172445 0.274806,-0.250831 0.646441,-0.639986 0.197345,-0.835486 -0.516415,-0.224086 -2.307267,-0.60402 -2.760974,-0.401143 -0.453707,0.201032 -0.89727,1.409074 -0.85024,1.964219 0.03504,0.346736 -0.301549,0.871451 -0.301549,0.871451 l -0.02859,0.01199 c -0.211176,0.139248 -0.433419,0.367946 -0.685171,0.770011 -0.708225,1.111214 -1.305791,0.669495 -3.281077,0.05072 -0.444486,-0.139247 -0.798599,0.367024 -0.647363,0.920325 0.150313,0.554224 0.497049,0.491516 1.905201,0.491516 1.414607,0 1.213575,0.958134 -0.04703,2.3211 -1.260604,1.361121 -2.399483,-1.482848 -3.530062,-0.405755 -0.724825,0.688861 -0.154003,1.212653 0.553302,1.916268 z" id="path35" />
		<path d="m 50.000923,30.113429 -0.0876,0.04334 c -0.561601,0.283105 -0.950756,0.637218 -0.950756,1.041128 0,0.805976 0.04887,1.159167 -0.40391,1.86647 -0.452785,0.703615 -0.353191,1.007008 -0.90557,1.361121 -0.555146,0.352269 -1.868315,0.05072 -1.968831,0.402066 -0.101438,0.354113 -0.80782,0.554223 -1.514201,-0.152158 -0.702693,-0.705459 -1.278126,-1.226485 -0.554224,-1.915345 1.131501,-1.078937 2.268536,1.765954 3.530063,0.403911 1.263371,-1.362967 1.460716,-2.320178 0.05072,-2.320178 -1.413685,0 -1.757653,0.0627 -1.906123,-0.490594 -0.15308,-0.555146 0.202878,-1.060494 0.647363,-0.922169 1.973441,0.622464 2.571007,1.059572 3.277388,-0.04887 0.25544,-0.401143 0.47584,-0.631685 0.689782,-0.771855 l 0.0959,-0.04426" id="path37" />
		<path d="m 28.684065,29.387682 c 0.202878,0.355035 0.554224,0.836407 0.90557,0.987644 0.353191,0.153079 2.514755,1.432128 0.789377,2.946329 -0.405754,0.360568 -0.280339,0.223165 -0.681483,0.526559 -0.40391,0.302471 -0.265585,0.49336 0,0.893581 0.249908,0.381778 0.297861,0.393766 0.85485,0.596644 0.553302,0.201032 0.350425,-0.756179 0.402988,-1.512358 0.05256,-0.756178 1.411841,-1.209886 1.86647,-1.765953 0.452786,-0.553302 -0.05256,-1.059572 -0.909258,-1.109369 -0.857617,-0.0498 -0.605865,-0.453708 -0.454629,-0.806898 0.152157,-0.352269 0.305238,-0.201033 0.454629,-0.655662 0.151236,-0.452785 -0.149391,-0.201955 -0.754334,0.04887 -0.604021,0.254518 -0.455552,-0.200111 -0.455552,-0.856695 0,-0.655662 -0.277572,-0.968278 0.252674,-0.890816 0.707304,0.101439 1.978975,-0.568978 2.082258,-0.97381 0.100517,-0.402987 0.343047,-0.748801 1.252305,-0.445407 0,0 0.260974,-0.123572 0.448175,-0.05164 0.483217,0.189045 0.767244,0.631685 1.120435,-0.07285 l 0.336592,-0.04887 c 0.240685,-0.478606 0.300627,-0.542235 -0.247142,-0.42512 -0.545002,0.120804 -0.748801,-0.135559 -0.955367,-0.356879 -0.202877,-0.221321 -0.850239,-0.103283 -1.256916,0.06824 -0.411287,0.171524 -1.455183,0.02213 -1.455183,0.02213 -0.556989,0 -1.647916,0.781077 -2.033382,1.225562 -0.194578,0.222243 -0.309849,0.303394 -0.449096,0.829953 -0.136482,0.529324 -0.15308,0.414053 -0.15308,0.414053 -0.353191,0.656584 -1.160089,1.061417 -0.960901,1.412762 z" id="path39" />
		<path d="m 32.53781,46.290117 c 0.193655,0 1.304869,-0.894504 1.304869,-1.088159 0,-0.194578 -1.202509,-0.410365 -1.398009,-0.410365 -0.196421,0 -0.99502,0.388233 -0.99502,0.58281 0,0.197344 0.892659,0.915714 1.08816,0.915714 z" id="path41" />
		<path d="m 31.821284,42.985986 c 0.693471,1.1564 1.633161,0.670417 0.928624,-0.442641 -0.28956,-0.460162 -1.165622,0.04795 -0.928624,0.442641 z" id="path43" />
		<path d="m 33.006271,28.684067 c 0.249908,0.453707 1.465327,0.05072 1.159167,-0.555145 -0.302472,-0.604943 -1.438583,0.05256 -1.159167,0.555145 z" id="path45" />
		<path d="m 41.864627,35.786612 c 0.302471,-1.311324 0,-2.422537 -0.704538,-2.422537 -0.708225,0 -0.758945,0.55699 -0.55699,1.060494 0.2038,0.502583 0.152158,0.603098 0.101439,1.260605 v 0.150313 c -0.04979,0.352269 -0.153081,0.504427 0,0.805976 0.15308,0.303394 0.859462,0.45463 1.160089,-0.854851 z" id="path47" />
		<path d="m 41.920879,39.834935 c 0,0.452784 1.46256,-0.05164 2.219661,-1.060495 0.7571,-1.009775 -0.657508,-1.009775 -1.517891,-0.805975 -0.855773,0.199188 -0.70177,0.950756 -0.70177,1.86647 z" id="path49" />
		<path d="m 38.897086,43.101257 c 0.507194,-0.403911 0.604022,-0.656584 1.108448,-0.656584 0.507193,0 0.657506,0.101438 1.313169,-0.09867 0.653817,-0.201032 0.706381,-1.565842 -0.352269,-1.565842 -1.060495,0 -2.551642,1.468093 -3.12892,2.170786 -0.451863,0.553301 0.556991,0.553301 1.059572,0.150314 z" id="path51" />
		<path d="m 33.718186,48.458136 c 0.556068,-0.05072 1.812984,-0.756178 1.765953,-1.310401 -0.05533,-0.555147 -0.201955,-0.606788 -1.061416,0 -0.855773,0.60402 -1.106603,1.347288 -0.704537,1.310401 z" id="path53" />
		<path d="m 29.28163,45.464776 c 0.611399,-0.291405 1.042974,-0.849318 0.988566,-1.27536 -0.05348,-0.423275 -1.152712,-0.320914 -2.253781,0.355958 -0.453707,0.281261 0.655662,1.210807 1.265215,0.919402 z" id="path55" />
		<path d="m 42.391185,44.507564 c 0.250829,0.252675 0.754334,0.05072 1.208963,-0.304315 0.45463,-0.352269 1.157322,-0.755257 1.918112,-0.856696 0.755256,-0.09959 0.606787,-0.452784 0.606787,-1.008852 0,-0.554223 -0.05533,-0.656584 0.198266,-1.108447 0.252675,-0.455552 0.604021,-1.010697 1.009776,-1.010697 0.402987,0 0.555145,-0.251752 0.60402,-0.555146 0.05164,-0.30155 -0.09959,-0.352269 -0.657506,-0.352269 -0.554224,0 -0.343969,-0.09221 -0.602177,-0.402987 -0.254518,-0.302472 -0.303394,-0.302472 -0.810587,0.0498 -0.502581,0.353191 -0.502581,1.108448 -0.502581,1.613796 0,0.504427 -0.504427,0.957212 -1.363888,1.562155 -0.854851,0.608631 -1.863704,2.120066 -1.609185,2.373662 z" id="path57" />
		<path d="m 41.669127,43.80856 c 0.355035,-0.304315 -0.07193,-0.784766 -0.503505,-0.355035 -0.304315,0.304317 0.151236,0.656585 0.503505,0.355035 z" id="path59" />
		<path d="m 46.551089,28.463669 c 0.352269,-0.302471 -0.07561,-0.783844 -0.506271,-0.353191 -0.302471,0.301549 0.148469,0.65474 0.506271,0.353191 z" id="path61" />
		<path d="m 35.407599,41.990043 c 0.453707,-0.503504 0.507193,-0.503504 1.010698,-0.453706 0.504425,0.05072 0.907413,-0.09775 0.907413,-0.70546 0,-0.453707 0.757101,-1.161933 1.514202,-1.613796 0.755256,-0.454629 1.056806,-0.65474 0.906493,-1.21173 -0.151237,-0.553301 -0.906493,-1.109369 -1.261528,-0.85485 -0.352269,0.249907 -1.611951,2.620803 -2.723164,3.225747 -1.102915,0.603098 -2.216895,0.806898 -2.470492,0.402988 -0.25083,-0.402988 -0.303393,-1.209886 -0.705459,-1.209886 -0.40391,0 -0.454629,0.506271 -0.657506,0.858539 -0.199188,0.351347 -0.252674,0.805975 -0.906492,0.755257 -0.656585,-0.05072 -1.161011,-0.05072 -1.512357,0.556067 -0.355035,0.604021 -0.453708,1.916268 0.502581,1.209886 0.959979,-0.706381 2.3211,-2.07027 2.97584,-1.413685 0.658429,0.657507 0.858539,1.766876 1.160088,1.766876 0.300627,9.22e-4 0.812431,-0.80782 1.259683,-1.312247 z" id="path63" />
		<path d="m 44.049244,47.008486 c 0.600333,0.05072 0.758023,0.152159 1.362044,-0.152157 0.607709,-0.300627 0.551457,-0.351346 1.10568,-0.300627 0.555147,0.05164 0.758023,0.20011 1.210808,-0.40391 0.453708,-0.605865 0.504427,-0.40391 0.908337,-0.05164 0.402065,0.354113 0.756179,0.303394 0.805975,0.05164 0.0498,-0.251752 -0.452784,-0.908337 -0.655662,-1.109369 -0.201032,-0.202878 -0.505348,-0.40391 0.354113,-0.857618 0,0 0.573589,0.08484 0.67595,-0.479527 0.102361,-0.563445 -0.325526,-1.552933 -0.888049,-1.057728 -0.5616,0.49336 -0.99963,1.133345 -0.99963,1.133345 -1.132424,1.247695 -1.157322,1.814829 -1.460716,1.864626 -0.304316,0.05164 -0.473995,0.405754 -0.809664,0.202878 -1.629473,-0.984878 -1.7429,-0.06732 -2.022317,0.496126 -0.280339,0.561601 0.413131,0.663961 0.413131,0.663961 z" id="path65" />
		<path d="m 26.387877,42.167124 c 0.0839,0.232773 0.662264,1.187942 0.621207,1.466867 -0.04106,0.281935 1.306679,0.187623 1.430742,-0.09331 0.124063,-0.276919 -0.186541,-0.65116 -0.145485,-0.884936 0.04195,-0.231768 0.829171,-0.486615 0.994291,-1.045469 0.356123,-1.201988 0.732774,-3.182559 1.46555,-2.963832 0.731883,0.219728 1.561945,0.384274 2.144774,0 0.588183,-0.384275 0.537309,-0.657182 1.126386,-0.548822 0.581044,0.109364 1.851128,-0.108355 2.391114,-0.439458 0.537309,-0.329092 0.780081,-0.492634 0.828277,-0.933095 0.05176,-0.437452 0.761336,-0.87691 0.782758,-1.810006 0.01161,-0.580927 0.07408,-0.804669 1.217425,-0.507684 1.146913,0.295982 -1.230813,-2.475212 -1.495004,-1.880238 -0.264192,0.593971 -0.264192,1.18794 -0.791684,0.593971 -0.527492,-0.593971 -0.353446,-0.989282 -0.794361,-0.89196 -0.439128,0.102339 -1.360231,1.149815 -1.360231,1.149815 -0.292753,0.330095 -0.778294,0.821727 -1.023743,0.876909 -0.244556,0.05618 -0.781865,0.548821 -0.585506,0.877913 0.195466,0.330096 0.683685,0.768551 1.368263,0.05518 0.67833,-0.71136 1.314712,-0.71136 1.659232,-0.329092 0.34095,0.384275 0.290969,1.318375 -0.345412,1.59429 -0.636382,0.270899 -1.559268,0.931089 -2.09747,0.382267 -0.537309,-0.54882 -0.732775,-0.824736 -1.025529,-0.493636 -0.292752,0.329091 -0.58729,0.383271 -1.171012,0.438454 -0.586398,0.05618 -1.905573,0.274913 -2.24563,0.769553 -0.342736,0.492635 -1.367372,0.713367 -1.367372,1.042458 0,0.330096 0.536416,0.656178 0.730991,0.82273 0.196358,0.165549 0.341842,0.492635 0.148161,0.877913 -0.196359,0.384276 -0.489112,1.47991 -1.270084,1.318373 -0.781865,-0.164545 -0.487328,-0.05518 -0.879153,0.164548 8.93e-4,-0.002 -0.394502,0.154511 -0.311495,0.390294 z" id="path67" />
		<path d="m 7.2777574,37.629106 c 0.1816672,0.998709 1.8646256,0.115272 1.8646256,0.115272 0.6040207,0.100515 1.915345,-0.09959 2.47049,-0.404832 0.556991,-0.30155 0.80782,-0.451864 0.856696,-0.856696 0.05256,-0.40391 0.857617,-0.805054 0.80782,-1.663592 -0.05072,-0.856696 -0.452786,-1.865548 -1.362044,-1.865548 -0.906492,0 -1.663593,0.149391 -1.9669863,0.450941 -0.3015492,0.303393 -0.8059757,0.7571 -1.0595721,0.807819 -0.2499078,0.05072 -0.8068979,0.505349 -0.6049428,0.806898 0.2037993,0.302471 0.7063813,0.708226 1.4136849,0.05072 0.7054593,-0.655661 1.3611213,-0.655661 1.7143123,-0.301549 0.352268,0.352269 0.302471,1.208963 -0.354113,1.461638 -0.655662,0.252674 -1.5086685,0.71007 -2.1689414,0.353191 -0.753412,-0.404832 -1.7917743,0.04334 -1.6110292,1.045738 z" id="path69" />
		<path d="m 3.7679823,40.91295 c 0.3716341,-1.103836 0.7617116,-2.926042 1.5151236,-2.722243 0,0 0.4278864,-0.530246 0.1549245,-0.894504 -0.2748064,-0.362412 1.1379564,-0.186278 0.7036148,-0.821652 -0.3393581,-0.50166 -1.9697529,0.253596 -2.3164884,0.707303 -0.3541128,0.451864 -1.413685,0.65474 -1.413685,0.958134 0,0.301549 0.5551458,0.605865 0.7571007,0.756178 0.2019551,0.150314 0.3513464,0.453708 0.1475471,0.805976 -0.2010329,0.353191 -0.50166,1.362044 -1.3085578,1.209886 -0.8068978,-0.150314 -0.5044264,-0.04795 -0.9101807,0.155846 0,0 -0.40852089,0.142937 -0.32368134,0.359647 0.0848395,0.213942 0.68609374,1.091847 0.64182954,1.34821 -0.04242,0.255441 1.3500554,0.171524 1.4773147,-0.08576 0.1281815,-0.257284 -0.190889,-0.599409 -0.1466249,-0.81243 0.038732,-0.213944 0.8557728,-0.449096 1.0217632,-0.964589 z" id="path71" />
		<path d="m 21.729067,37.669682 c 0.201033,0.352268 1.512358,-0.100517 2.167097,-0.45463 0.350425,-0.188122 0.73128,-0.289561 1.080783,-0.287717 l 0.07193,0.0249 c 0.124493,0.08576 0.404832,0.146625 0.89727,-0.497971 0.655663,-0.857617 1.008854,-1.412763 1.613797,-1.412763 0.604942,0 0.906491,-0.401143 0.704537,-1.00793 -0.199189,-0.603099 -1.200664,-1.531723 -1.049429,-1.783475 0.152158,-0.252674 1.421063,-1.139801 0.900037,-1.766876 -0.67595,-0.817041 -2.33401,-0.448174 -1.687569,0.52287 0.201033,0.299705 -0.211177,1.617485 -0.263741,1.769642 -0.05072,0.152158 0.89266,0.554224 1.143491,0.704537 0.252674,0.150314 0.402987,0.353191 0.152157,0.554224 -0.25083,0.203799 -0.655662,0.304315 -0.958133,0.254518 -0.303394,-0.05164 -0.657507,-0.254518 -0.85854,0.249908 -0.201032,0.502582 -0.01383,1.328845 -0.593877,1.25415 l -0.0249,0.0083 c -0.146624,-0.09313 -0.318147,-0.236997 -0.471227,-0.35319 -0.604943,-0.452785 -0.656585,0.202876 -0.85854,0.808742 -0.20011,0.606787 -0.465695,0.611398 -0.805053,0.504426 -0.808742,-0.25083 -1.362044,0.556068 -1.160089,0.908337 z" id="path73" />
		<path d="m 42.375508,50.000003 c 0.03689,-0.08115 0.06455,-0.174291 0.09221,-0.285873 0.151236,-0.653817 0.504427,-1.00793 1.056805,-0.958133 0.556991,0.05164 0.50996,0.555145 1.211731,0.354113 0.706381,-0.201033 1.765031,-0.856696 2.169863,-0.556991 0.405755,0.305239 0.805976,0.606788 1.111214,0.102361 0.281261,-0.469383 1.214497,-0.938767 1.789008,-0.921247 l 0.194577,0.01752 v 0.989487 l -0.174289,-0.01568 c -0.477684,-0.03135 -0.556069,0.07654 -0.853007,0.484138 -0.40391,0.555146 -1.916268,0.504426 -2.776651,0.555146 -0.307082,0.01844 -0.533014,0.09959 -0.68425,0.235153" id="path75" />
		<path d="m 50.000923,38.770752 -0.105127,0.08299 c -0.152159,0.180745 -0.367023,0.287716 -0.54408,0.45094 -0.655662,0.603098 -0.661195,0.827186 -0.213021,1.002398 0.214865,0.08852 0.479528,0.0065 0.724825,-0.142014 l 0.137403,-0.071" id="path77" />
		<path d="m 23.291222,40.703618 c 0.283919,0.08576 0.6312,0.0065 0.957767,-0.142936 l -0.0012,-0.02029 c 0.40943,-0.198267 0.781082,-0.499816 0.927306,-0.693472 0,0 0.405773,0.30155 0.803015,0.249908 0.394805,-0.04979 0.659226,-0.906492 0.394805,-1.410918 -0.263205,-0.502582 -0.792047,-0.149391 -0.792047,-0.149391 -0.387495,-0.291406 -0.809108,0.147546 -1.333079,0.64183 l -0.02558,-0.0092 c -0.19984,0.181668 -0.417957,0.36979 -0.64704,0.53117 -0.867598,0.603098 -0.872472,0.825341 -0.28392,1.00332 z" id="path79" />
		<path d="m 40.210255,31.755813 c 1.059573,-0.201956 2.673368,-0.304317 3.280155,-0.758023 0.602177,-0.453708 1.192365,-2.420695 1.213575,-2.924198 0.0092,-0.388234 0.206565,-0.652896 0.120804,-0.92678 -0.08668,-0.27204 -2.132055,-0.475839 -2.358908,-0.414054 h -0.08484 c 0,-0.553301 -0.468461,-0.638141 -0.468461,-0.638141 -0.725748,0.163224 -1.440429,-0.892659 -1.774254,-0.888049 -0.758023,0.01291 -1.209886,0.706382 -1.008853,1.210808 0,0 -0.139247,0.277573 0.453708,0.611398 0.537623,0.304315 1.010697,0.811509 1.550166,0.461084 l 0.373478,-0.116193 c 0.98211,0.138326 0.152157,1.066949 0.806897,0.814276 0.65474,-0.252674 1.829584,-0.417743 1.676504,0.188122 -0.146625,0.604943 -1.30948,1.918112 -1.96422,1.968831 -0.657507,0.04887 -1.24585,-0.190889 -1.487458,-0.308927 -0.376246,-0.190889 -0.869606,-0.190889 -1.235707,-0.196422 -0.434342,-0.0092 -1.212653,-0.550534 -0.604943,-0.700848 0.604943,-0.151236 0.957211,0.05164 0.957211,-0.303394 0,-0.35319 -0.100515,-0.35319 -0.40391,-0.503504 -0.303393,-0.151236 -0.303393,-0.150313 -0.454628,-0.353191 -0.149392,-0.201955 -0.402066,-0.251752 -0.754335,-0.251752 -0.354113,0 -0.354113,0.04887 -0.707303,-0.251752 -0.352269,-0.303393 -0.798599,-0.303393 -1.052195,0.251752 -0.251753,0.554223 -0.05533,0.900037 0.547768,0.850239 0.605865,-0.05164 0.907414,0 0.907414,0.403911 0,0.402988 -0.252674,1.16101 -1.059572,0.908336 -0.806897,-0.252675 -1.104758,-0.808742 -1.610107,-0.707303 -0.502582,0.101438 -0.557913,0.504426 -0.157691,1.310402 0.284029,0.565289 0.45924,1.313169 1.316858,0.706381 0.85485,-0.605865 1.159166,-1.209886 1.863703,-1.00793 0.706382,0.201954 0.858539,0.402065 1.061417,0.907413 0.20011,0.505349 9.22e-4,0.857618 1.057727,0.657508 z" id="path81" />
		<path d="m 47.570085,26.567689 c 0.30985,0.334748 0.68425,1.418297 1.347289,0.294172 0.289562,-0.489671 0.603099,-1.41184 0.0498,-1.41184 0,0 -0.543158,-0.268351 -0.878828,-0.08484 -0.231464,0.130949 -0.975655,0.699927 -0.518259,1.202508 z" id="path83" />
		<path d="M 11.140723,2.0280473e-6 11.10937,0.08299723 C 10.968278,0.34120454 10.845629,0.59756751 10.742346,0.80321119 10.391922,1.5086704 9.5638143,0.78845648 9.0787534,0.60033401 8.890631,0.52840484 8.6250463,0.65289765 8.6250463,0.65289765 7.7185542,0.34950405 7.6687571,1.3076376 7.5673184,1.7097033 7.4658799,2.1136133 6.8083734,2.1643326 6.1066028,2.0638162 5.572667,1.9863539 5.8520842,2.2971249 5.8520842,2.9555535 c 0,0.6547399 -0.147547,1.1102915 0.4546293,0.8576171 C 6.9135007,3.5595742 7.2150499,3.3087442 7.062892,3.7615292 6.9135007,4.2161585 6.7594984,4.065845 6.6073406,4.4190357 6.4588713,4.7713042 6.2052749,5.1761364 7.062892,5.2250113 7.9223535,5.2757306 8.4249356,5.780157 7.9703063,6.3343806 7.5165992,6.8886041 6.1517891,7.3432334 6.1056807,8.099412 6.0503505,8.8565127 6.2513834,9.813724 5.7017707,9.6117691 5.1457028,9.409814 5.0940614,9.398748 4.8459979,9.0178923 c -0.2665068,-0.4029879 -0.40391,-0.5920325 0,-0.8954261 C 5.2499079,7.8209169 5.1217264,7.9555536 5.5302473,7.5959077 7.2519367,6.0826285 5.0903726,4.8026579 4.7417928,4.6514223 4.3849134,4.5011087 4.0372557,4.0151257 3.8343785,3.6628571 3.6315014,3.3115107 4.4411657,2.9076007 4.7906678,2.2500943 c 0,0 0.02121,0.1152711 0.1576908,-0.4112874 C 5.0839175,1.3122484 5.2047215,1.2283311 5.3928441,1.0051662 5.7783107,0.56160292 6.2513834,0.40298986 6.8065291,0.40298986 c 0.5173367,0 0.6436739,-0.11066028 0.9922538,-0.29232756 l 0.095905,-0.10789377" id="path85" />
		<path d="m 13.60107,7.5332002 c -0.504427,0.3522686 -0.452785,1.6635929 0.355035,0.8059757 l 0.04703,-0.1291036 c 0.0544,-0.4537072 0.100515,-1.030985 -0.402067,-0.6768721 z" id="path87" />
		<path d="M 4.3821469,7.2445613 C 4.6403542,6.8646277 4.950203,6.3777226 4.3406493,6.4570291 3.7310956,6.5372577 3.1722613,7.7250114 4.2797861,7.3358561 Z" id="path89" />
		<path d="m 4.5379934,20.864075 c 0.2489856,0.454629 1.4634821,0.05164 1.1582443,-0.555146 -0.3061601,-0.604021 -1.4395058,0.05164 -1.1582443,0.555146 z" id="path91" />
		<path d="M 17.45758,9.4301018 C 16.362966,8.6462582 15.223165,8.4987111 14.945592,9.1506846 c -0.262818,0.6519734 -0.12357,1.3897084 0.423276,1.3980084 0.538547,0.0065 0.963667,-0.384545 1.547399,-0.0876 l 0.14017,0.05809 c 0.307083,0.18259 -0.410365,-0.5809662 -0.07285,-0.6049426 0.337513,-0.02121 1.566764,0.3006276 0.473994,-0.4841386 z" id="path93" />
		<path d="m 19.515862,13.94043 c -0.810587,-0.122648 -0.545002,-1.318701 -0.426043,-1.532644 0.609554,-1.102915 -0.634452,-0.776467 -1.515124,-0.807821 -2.499999,-0.08945 -1.347288,2.023239 -0.06455,1.23294 0.673184,-0.415898 0.948912,1.161011 0.247141,1.599041 -0.705459,0.441719 1.616563,1.599963 2.233494,1.074327 0.614164,-0.528402 0.334747,-1.443194 -0.474918,-1.565843 z" id="path95" />
		<path d="m 12.746219,17.867947 c -0.45094,0.553302 0.554224,0.553302 1.057728,0.149392 0.503504,-0.402988 0.603099,-0.653817 1.111213,-0.653817 0.501661,0 0.656585,0.100515 1.310403,-0.101439 0.655662,-0.201034 0.706381,-1.562155 -0.354113,-1.562155 -1.056805,0 -2.549797,1.464405 -3.125231,2.168019 z" id="path97" />
		<path d="m 2.8199927,20.378092 c 0.300627,-0.60771 0.2997049,-1.311325 0,-1.614718 -0.3006271,-0.30155 -1.1112136,0.453707 -1.5630764,1.665437 -0.1872003,0.50166 1.260605,0.555145 1.5630764,-0.05072 z" id="path99" />
		<path d="M 9.7067505,2.6761364 C 9.1516047,2.1154576 8.6481005,1.8185192 8.0929547,2.3736649 7.5359647,2.9288106 7.8181484,2.8946903 8.0182591,3.0975675 8.3852823,3.4627465 8.2220584,3.1768741 9.0188124,3.3068999 9.5684251,3.394506 9.9133163,2.8854687 9.7067505,2.6761364 Z" id="path101" />
		<path d="m 23.892476,19.155296 c 0.367945,0.368867 0.204721,0.08023 1.002398,0.211177 0.54869,0.08853 0.893581,-0.421432 0.686093,-0.630765 -0.549612,-0.562523 -1.05865,-0.858538 -1.61564,-0.303393 -0.553301,0.554224 -0.273885,0.521025 -0.07285,0.722981 z" id="path103" />
		<path d="m 16.578754,18.724643 c 0.35319,-0.303394 -0.07469,-0.783844 -0.507193,-0.352269 -0.30155,0.301549 0.154002,0.65474 0.507193,0.352269 z" id="path105" />
		<path d="m 23.34194,3.0265605 c -0.301549,0.3043158 0.154003,0.6556622 0.506271,0.3550351 0.354113,-0.3043157 -0.07469,-0.785688 -0.506271,-0.3550351 z" id="path107" />
		<path d="m 14.654187,12.9242 c -0.151236,-0.554224 -0.90557,-1.107525 -1.258761,-0.857617 -0.355035,0.251751 -1.613795,2.623571 -2.724087,3.226669 -1.1093691,0.604943 -2.2205827,0.806898 -2.4704905,0.40391 -0.2526742,-0.40391 -0.3033936,-1.210808 -0.7063814,-1.210808 -0.4048322,0 -0.4546292,0.506271 -0.6547399,0.858539 -0.2037993,0.353191 -0.2535965,0.807821 -0.9101808,0.755257 -0.6556621,-0.05072 -1.1600885,-0.04979 -1.5123571,0.556068 -0.3559572,0.604943 -0.4564737,1.915344 0.5053486,1.211729 0.9526005,-0.708225 2.3192549,-2.070268 2.974917,-1.413684 0.6556622,0.655662 0.8585394,1.765031 1.1582442,1.765031 0.3043158,0 0.8078201,-0.806898 1.2606049,-1.311324 0.455551,-0.504427 0.507193,-0.504427 1.009775,-0.453707 0.505349,0.0498 0.908336,-0.09959 0.908336,-0.704537 0,-0.456474 0.755257,-1.162856 1.514202,-1.613796 0.754334,-0.454629 1.059572,-0.656585 0.90557,-1.21173 z" id="path109" />
		<path d="m 20.912026,16.068796 c -1.129657,1.245851 -1.159167,1.815751 -1.464404,1.864626 -0.299705,0.05072 -0.55238,-0.09959 -0.805054,0.201032 -0.25083,0.303394 -0.09959,0.202878 -0.907415,0.05256 -0.805053,-0.15308 0.195501,1.446883 -0.510881,2.002951 -0.707304,0.553301 -1.061417,0.604021 -1.314091,0.150313 -0.248063,-0.454628 -0.40391,-1.059572 -1.207119,-0.354113 -0.811508,0.706382 -1.109369,0.807821 -1.564921,0.354113 -0.454629,-0.454628 -1.209886,-1.46256 -2.06658,-1.313168 -0.857618,0.152158 -0.657507,0.252674 -0.657507,0.606787 0,0.352268 0.605865,0.856695 1.312247,0.856695 0.705459,0 1.362965,1.161011 0.657506,1.765954 -0.706381,0.60402 -1.334378,0.486905 -2.045371,0.615087 -0.214865,0.04057 -0.606787,-0.358724 -0.6851714,-0.473996 -0.079307,-0.118959 -0.5182589,0.06824 -0.5994098,0.246219 -0.075618,0.174291 0.078385,0.873295 0.7192918,0.971967 0.6409074,0.09682 1.0752484,0.465696 1.3703424,-0.177979 0.291406,-0.642752 1.531724,-0.439874 1.693103,-0.42512 0.964588,0.09959 0.954445,0.25083 1.111214,0.40391 0.147546,0.152159 0.552379,0.251752 0.857616,-0.555146 0.301549,-0.805975 0.349502,-1.310402 1.258761,-1.260604 0.906492,0.05164 1.361122,0.201954 1.765032,-0.25083 0.402988,-0.453707 0.454629,-0.556068 1.057728,-0.505349 0.604942,0.05164 -1.099226,-1.397085 -0.495205,-1.699558 0.60402,-0.302471 0.555145,-0.35319 1.108447,-0.302471 0.555145,0.05072 0.755256,0.201956 1.209885,-0.40391 0.45463,-0.604942 0.505349,-0.40391 0.907415,-0.05164 0.40391,0.353191 0.757101,0.303395 0.807819,0.05164 0.05164,-0.25083 -0.453706,-0.907414 -0.655662,-1.107525 -0.201032,-0.203799 -0.507192,-0.404832 0.352269,-0.859461 0,0 0.793066,-0.177057 0.517337,-0.433419 -0.282184,-0.256364 0.534858,-0.601254 0.192733,-0.770934 -0.319992,0.01475 -1.154555,-0.04426 -1.919955,0.801365 z" id="path111" />
		<path d="m 18.55404,26.214499 c 0.587421,0.03043 1.109369,-0.02029 1.208963,-0.246219 0.126337,-0.276651 0.20841,-0.627075 0.450941,-0.875138 l 0.142936,-0.155847 c 0.157691,-0.157691 -0.223165,-0.562523 0.114348,-0.583733 0.857618,-0.04979 2.443749,0.04703 2.774807,-0.554224 0.07746,-0.142013 0.07377,-0.59111 0.560678,-0.822574 0.486906,-0.234231 1.51789,-1.674659 0.373479,-2.155109 -2.936186,-1.231095 -1.590741,1.917189 -1.893213,2.421616 -0.303393,0.50627 -0.708226,0.202877 -1.110291,-0.100517 -0.404833,-0.302471 -0.841941,0.663961 -1.548322,0.864995 -0.707304,0.201954 -0.656584,-0.302471 -1.209885,-0.354113 -0.554224,-0.04979 -0.909259,0.303393 -1.061417,0.959978 -0.02859,0.130026 -0.06455,0.238841 -0.109738,0.326447 l -0.173368,0.157691 c -0.178901,0.353191 -0.492438,-0.22132 -1.093692,-0.22132 -0.757101,0 -1.208042,0.704537 -1.006086,1.209885 0,0 0.448174,0.40391 0.958133,-0.04979 0.502582,-0.455552 0.03965,-0.312616 0.746034,-0.111583 l 0.205644,0.03412 c 1.362966,0.254519 0.308927,1.85817 0.963667,1.606418 0.656585,-0.251751 1.209885,0.201033 1.056806,0.807821 -0.14847,0.605864 -1.309481,1.917189 -1.963298,1.967908 -0.657506,0.04887 -1.31778,-0.201955 -1.416451,-0.453707 -0.101439,-0.253597 -0.145704,-0.204722 0.205643,-0.504427 0.351346,-0.304315 0.351346,-0.406676 0.100516,-0.606786 -0.249907,-0.202878 -0.708225,0.100515 -0.808742,0.555145 -0.09959,0.456474 -0.449096,0.758023 -0.808742,0.507193 -0.350424,-0.253596 -1.825894,-2.097934 -1.220952,-2.251014 0.604944,-0.150314 0.958134,0.05164 0.958134,-0.300627 0,-0.353191 -0.09959,-0.353191 -0.40391,-0.504427 -0.302471,-0.149391 -0.302471,-0.149391 -0.454629,-0.353191 -0.149391,-0.201032 -0.40391,-0.252674 -0.756179,-0.252674 -0.352269,0 -0.352269,0.05072 -0.707304,-0.250829 -0.350424,-0.302473 -1.107525,-0.302473 -1.362043,0.250829 -0.251752,0.556068 0.253596,1.209885 0.857617,1.160089 0.605865,-0.05072 1.528034,1.23755 1.528034,1.643304 0,0.403911 -0.251752,1.160089 -1.05865,0.907415 -0.806898,-0.253597 -1.110291,-0.808742 -1.6128734,-0.707303 -0.5053486,0.101438 -0.5542235,0.503503 -0.1530801,1.311324 0.2840285,0.566211 0.4564735,1.313168 1.3131685,0.707303 0.85854,-0.606787 1.160089,-1.208963 1.86647,-1.00793 0.705459,0.20011 0.855773,0.400221 1.059572,0.906491 0.202878,0.504427 0,0.856696 1.056806,0.655663 1.05865,-0.202878 2.67429,-0.302472 3.281077,-0.756179 0.603098,-0.454629 1.193287,-2.420694 1.20712,-2.926042 0.0166,-0.385467 0.210253,-0.651051 0.129102,-0.924935 -0.08852,-0.273885 -0.223164,-0.359647 -0.45094,-0.298783 -0.644596,0.165068 -1.399852,-0.563445 -0.73589,-0.632608" id="path113" />
		<path d="m 14.485429,3.4664351 c 0,-0.3522685 -0.101437,-0.3522685 -0.404831,-0.5035042 C 13.776282,2.8098508 13.776282,2.810773 13.627813,2.6106624 13.476577,2.406863 13.223903,2.357988 12.86979,2.357988 c -0.351346,0 -0.354113,0.049797 -0.703615,-0.2526743 -0.355035,-0.3024713 -1.111213,-0.3033936 -1.365732,0.2526743 -0.249908,0.5551457 0.253596,1.2089635 0.859461,1.157322 0.603098,-0.048875 0.906493,0 0.906493,0.4048323 0,0.40391 -0.251753,1.1610107 -1.05865,0.9092585 C 10.699004,4.5767266 10.3993,4.0225031 9.8948729,4.1220972 9.3895244,4.2226136 9.3397272,4.6265236 9.7436372,5.4334215 10.023055,5.9996332 10.1955,6.7447458 11.054039,6.1407251 c 0.857618,-0.6067872 1.160089,-1.2108079 1.865548,-1.009775 0,0 0.846551,-0.4380302 0.507193,-0.8465511 -0.339358,-0.4103652 -0.348579,-0.4158982 0.09867,-0.5154924 0.610476,-0.1337145 0.959977,0.050719 0.959977,-0.3024715 z" id="path117" />
		<path d="m 18.616747,1.1388807 c 0.347658,0.026743 0.450941,-0.31722613 0.366101,-0.47030618 -0.280339,-0.50165991 -2.936186,-0.22962008 -2.936186,-0.22962008 -0.756179,0 -1.214497,0.70545926 -1.013463,1.21080786 0,0 0.457396,0.40391 0.959977,-0.050719 0.506271,-0.4555515 0.04334,-0.9507562 0.749724,-0.75064554 l 0.202876,0.0350424 C 18.311509,1.1379589 17.253782,2.7434551 17.911288,2.4898586 18.567872,2.2399508 19.120252,2.6908914 18.97086,3.2958342 18.819624,3.9035437 17.657692,5.2148678 17.003873,5.2655871 16.347289,5.3163061 15.690705,5.0617874 15.59111,4.8109574 15.490595,4.557361 15.434342,4.6080803 15.791222,4.3056089 16.146256,4.0040597 16.146256,3.9035433 15.892659,3.7015882 15.642752,3.498711 15.188122,3.8011825 15.089451,4.2567339 c 0,0 -1.650683,2.603283 -0.0793,2.4677242 l 0.177978,-0.046109 C 16.244928,6.4754725 17.860568,6.3758782 18.464589,5.9203267 19.071376,5.4693861 19.658797,3.5014775 19.678163,2.9970511 19.688307,2.6097401 19.885652,2.3423112 19.79989,2.068427 19.712283,1.7973093 19.580413,1.7106254 19.349871,1.7714886 18.708963,1.9365568 17.953707,1.2080434 18.616747,1.1388807" id="path121" />
		<path d="m 22.456659,0.33106068 c 0,0 -0.54408,-0.26742899 -0.87975,-0.0811509 -0.230542,0.12725931 -0.977499,0.6980819 -0.517337,1.20066402 0.308004,0.3347473 0.682405,1.4182959 1.346367,0.2941719 0.288639,-0.4905939 0.604943,-1.41368505 0.05072,-1.41368502 z" id="path123" />
		<path d="M 28.349318,0.91202712 C 27.829215,0.6897844 27.634637,0.30985079 27.18093,0.51180579 26.728145,0.71283863 25.354114,1.9218021 25.40391,2.4760257 25.436192,2.8227612 25.115272,3.3465532 25.115272,3.3465532 L 24.922539,3.476579 c -0.21671,0.136481 -0.440798,0.3679454 -0.69716,0.7681668 -0.703615,1.1093692 -1.302103,0.6722611 -3.276467,0.051642 -0.444485,-0.1401697 -0.799521,0.3651789 -0.648285,0.9203246 0.149392,0.5551457 0.496127,0.4915161 1.907968,0.4915161 1.411841,0 1.209886,0.9581335 -0.05072,2.3201771 -1.261527,1.3620435 -2.398562,-1.4828477 -3.529141,-0.40391 -0.724824,0.6897823 -0.150313,1.2098856 0.553302,1.9171892 0.708225,0.7054592 1.41184,0.5044272 1.514201,0.1503135 0.101438,-0.3531907 1.411841,-0.049797 1.966986,-0.40391 0.554224,-0.3531907 0.452785,-0.6565843 0.906493,-1.3611213 0.454628,-0.7073036 0.40391,-1.0586499 0.40391,-1.8664699 0,-0.4029879 0.392843,-0.758023 0.956289,-1.0411289 l 0.154924,-0.1161933 c 0,0 0.867761,-0.2867944 1.095537,-0.699004 0.230542,-0.4122096 -0.01107,-0.8327186 0.283105,-1.1757654 0.463852,-0.5385467 0.62062,-1.4099964 1.227408,-1.1066028 0,0 0.181666,0.081151 0.457396,-0.1724455 0.275728,-0.25083 0.649207,-0.643674 0.201032,-0.83732948 z" id="path125" />
		<path d="M 36.034675,2.0280473e-6 35.963672,0.10697363 C 35.823498,0.36333659 35.704537,0.61969956 35.601255,0.82626541 35.254519,1.5326468 34.419956,0.81058854 33.935817,0.62246607 33.749539,0.55145905 33.483032,0.67502971 33.483032,0.67502971 32.575618,0.37255829 32.523977,1.3306918 32.42346,1.7336797 c -0.101438,0.40391 -0.756179,0.453707 -1.463482,0.3531906 -0.531169,-0.075618 -0.251752,0.234231 -0.251752,0.8917374 0,0.6556622 -0.148469,1.1093693 0.45463,0.856695 0.605864,-0.2499078 0.906491,-0.5035042 0.755256,-0.05072 -0.149392,0.4537071 -0.302471,0.3043158 -0.451863,0.6556622 -0.151236,0.3531907 -0.404832,0.7580228 0.451863,0.80782 0.857617,0.048875 1.362966,0.5551457 0.908336,1.1112136 -0.453706,0.5533013 -1.815751,1.0070084 -1.86647,1.763187 -0.05072,0.7552564 0.152158,1.7152342 -0.402065,1.5142014 -0.557912,-0.2028772 -0.605865,-0.2157876 -0.856695,-0.5966433 -0.262819,-0.4020656 -0.40391,-0.5901881 0,-0.8935817 C 30.104206,7.8439712 29.97879,7.9804522 30.387311,7.6198841 32.110845,6.1038384 29.948359,4.8266343 29.597935,4.6763208 29.243822,4.524163 28.891553,4.0372577 28.691443,3.6868335 28.489488,3.3327206 29.296386,2.9297328 29.650498,2.2740706 c 0,0 0.0166,0.1152712 0.153081,-0.4122095 0.137403,-0.5274806 0.258207,-0.6095537 0.450018,-0.8317964 0.386389,-0.44448538 0.858539,-0.60586496 1.412762,-0.60586496 0.515493,0 0.725748,-0.12910365 1.076172,-0.30984876 L 32.829214,2.0280473e-6" id="path127" />
		<path d="m 39.656031,7.7738864 c -0.502581,0.3513463 -0.452784,1.6645149 0.350425,0.8068977 l 0.05256,-0.1300258 c 0.0498,-0.4518627 0.09867,-1.0300627 -0.402987,-0.6768719 z" id="path129" />
		<path d="m 29.375692,7.3358561 0.101439,-0.092217 c 0.256363,-0.3799336 0.564367,-0.8668389 -0.04611,-0.7875324 -0.608631,0.081151 -1.16931,1.2689046 -0.05533,0.8797493 z" id="path131" />
		<path d="m 32.191996,18.304133 c -0.305237,-0.604942 -1.440427,0.05164 -1.161933,0.554224 0.253596,0.455552 1.461638,0.05072 1.161933,-0.554224 z" id="path133" />
		<path d="M 42.497234,10.695318 C 41.862782,9.5084862 41.095537,9.1884935 40.563446,9.6514224 c -0.533014,0.4620066 -0.694393,0.8059756 -0.213943,1.0540386 0.484139,0.249908 0.512726,0.358724 0.904647,0.885283 l 0.09867,0.115271 c 0.194577,0.296938 0.134636,-0.439874 0.445407,-0.310772 0.31446,0.129104 1.329767,0.48875 0.699003,-0.699925 z" id="path135" />
		<path d="m 42.623572,12.883624 c -0.856696,0.201956 -0.702693,0.952601 -0.702693,1.864626 0,0.452785 1.46256,-0.05072 2.219661,-1.057728 0.758022,-1.008852 -0.657508,-1.00793 -1.516968,-0.806898 z" id="path137" />
		<path d="m 38.897086,18.017339 c 0.507194,-0.402988 0.604022,-0.653817 1.108448,-0.653817 0.507193,0 0.657506,0.100515 1.313169,-0.101439 0.653817,-0.201034 0.706381,-1.562155 -0.352269,-1.562155 -1.060495,0 -2.551642,1.464405 -3.12892,2.168942 -0.451863,0.552379 0.556991,0.552379 1.059572,0.148469 z" id="path139" />
		<path d="m 32.905755,20.789379 c -0.05164,-0.554223 -0.308004,-0.967356 -1.1647,-0.360568 -0.856694,0.604943 -0.334747,1.166544 0.06639,1.128734 0.555145,-0.04979 1.149944,-0.21302 1.098303,-0.768166 z" id="path141" />
		<path d="m 28.551274,18.444303 c -0.300628,-0.302471 -1.10937,0.452785 -1.561233,1.664515 -0.189045,0.502582 1.260605,0.555146 1.561233,-0.05072 0.303393,-0.605865 0.301549,-1.310402 0,-1.613795 z" id="path143" />
		<path d="m 46.233863,13.616748 c -0.505349,0.354113 -0.505349,1.110292 -0.505349,1.614719 0,0.504427 -0.50627,0.957211 -1.365732,1.563076 -0.854851,0.604021 -1.863704,2.119145 -1.610107,2.369974 0.25083,0.251752 0.755256,0.04887 1.209886,-0.303393 0.455551,-0.353191 1.160088,-0.756179 1.911656,-0.856696 0.758023,-0.102361 0.607709,-0.454629 0.607709,-1.009774 0,-0.554223 -0.05164,-0.655662 0.2038,-1.110292 0.249908,-0.453707 0.603098,-1.007008 1.00793,-1.007008 0.402988,0 0.555146,-0.252674 0.605865,-0.556068 0.0498,-0.303394 -0.09959,-0.353191 -0.656584,-0.353191 -0.555146,0 -0.346736,-0.09129 -0.606787,-0.40391 -0.249908,-0.300627 -0.303394,-0.300627 -0.802287,0.05256 z" id="path145" />
		<path d="m 40.606627,19.349643 c 0.355035,-0.303394 -0.07193,-0.783844 -0.503505,-0.352269 -0.304315,0.301549 0.151236,0.65474 0.503505,0.352269 z" id="path147" />
		<path d="m 46.04574,3.0265605 c -0.303393,0.3043158 0.147547,0.6556622 0.506271,0.3550351 0.351347,-0.3043157 -0.07654,-0.785688 -0.506271,-0.3550351 z" id="path149" />
		<path d="m 38.484877,12.066583 c -0.352269,0.251751 -1.611951,2.623571 -2.723164,3.226669 -1.102915,0.604943 -2.216895,0.806898 -2.470492,0.40391 -0.25083,-0.40391 -0.303393,-1.210808 -0.705459,-1.210808 -0.40391,0 -0.454629,0.506271 -0.657506,0.858539 -0.199188,0.353191 -0.252674,0.807821 -0.906492,0.755257 -0.656585,-0.05072 -1.161011,-0.04979 -1.512357,0.556068 -0.355035,0.604943 -0.453708,1.915344 0.502581,1.211729 0.959979,-0.708225 2.3211,-2.070268 2.97584,-1.413684 0.658429,0.655662 0.858539,1.765031 1.160088,1.765031 0.300627,0 0.812431,-0.806898 1.259683,-1.311324 0.453707,-0.504427 0.507193,-0.504427 1.010698,-0.453707 0.504425,0.0498 0.907413,-0.09959 0.907413,-0.704537 0,-0.456474 0.757101,-1.162856 1.514202,-1.613796 0.755256,-0.454629 1.056806,-0.656585 0.906493,-1.212652 -0.150314,-0.554224 -0.905571,-1.106603 -1.261528,-0.856695 z" id="path151" />
		<path d="m 42.807083,22.084104 c 0.40391,-0.453707 0.451863,-0.555146 1.059572,-0.505349 0.601254,0.05164 0.756179,0.152159 1.3602,-0.151235 0.605864,-0.304316 0.554223,-0.35319 1.113057,-0.304316 0.552379,0.05164 0.754335,0.2038 1.208041,-0.402065 0.451863,-0.604021 0.502583,-0.40391 0.905571,-0.04979 0.404832,0.35319 0.755256,0.301549 0.80782,0.04979 0.04979,-0.249909 -0.45463,-0.906493 -0.656585,-1.109369 -0.200111,-0.201034 -0.505348,-0.401144 0.355036,-0.855774 0,0 -0.445408,-1.248616 -1.209886,-0.40391 -1.13519,1.248617 -1.161933,1.812985 -1.466249,1.863704 -0.303393,0.04979 -0.55238,-0.09959 -0.805054,0.202877 -0.252674,0.301549 -0.102361,0.201955 -0.909258,0.05164 -0.804131,-0.154001 -1.664515,-0.101438 -2.36813,0.452786 -0.706382,0.555145 -1.059572,0.605864 -1.312246,0.151236 -0.250831,-0.453708 -0.402066,-1.058651 -1.208042,-0.354114 -0.806898,0.707304 -1.112136,0.808742 -1.566765,0.354114 -0.45094,-0.453708 -1.209885,-2.419772 -2.067503,-2.268536 -0.856695,0.149391 -0.65474,0.252674 -0.65474,0.605864 0,1.175766 0.608632,0.853929 1.311324,0.853929 0.708226,0 1.363889,2.120067 0.656585,2.725009 l -0.03688,0.01937 c -0.648285,0.818886 0.490594,0.737735 0.490594,0.737735 0.958134,0.151236 0.958134,0.252675 1.109369,0.40391 0.151236,0.151236 0.556068,0.252674 0.857618,-0.554223 0.303393,-0.80782 0.354112,-1.312247 1.25876,-1.260606 0.910181,0.04887 1.362966,0.199189 1.767798,-0.252674 z" id="path153" />
		<path d="m 34.624678,8.2128388 c -0.30155,0.2997048 -1.423829,-0.17429 -1.675581,-0.1235707 -0.251753,0.050719 -0.809664,0.5062708 -0.605866,0.8059757 0.202878,0.3043158 0.706382,0.7082258 1.412764,0.050719 0,0 0.484138,-0.2480634 0.275728,0.7109923 -0.07469,0.342125 0.93969,-9.223e-4 1.641461,-0.5468462 1.115824,-0.867761 1.222796,2.7572851 0.06178,1.9236451 -0.566212,-0.408521 -1.61103,0.859461 -2.167097,0.355956 -0.555147,-0.506269 -0.757101,-0.756179 -1.059572,-0.455551 -0.301551,0.303393 -0.604944,0.353191 -1.209886,0.40391 -0.606788,0.05256 -1.966065,0.251753 -2.319256,0.707304 -0.354113,0.452785 -1.41184,0.655662 -1.41184,0.958134 0,0.303393 0.553302,0.60402 0.7571,0.756178 0.201034,0.150313 0.352269,0.453707 0.14847,0.808742 -0.201955,0.352267 -0.502582,1.360199 -1.310403,1.20804 -0.80782,-0.151236 -0.502581,-0.05164 -0.906491,0.152159 0,0 -0.41221,0.145702 -0.326448,0.362412 0.0876,0.213943 0.685171,1.090925 0.642751,1.348211 -0.04242,0.256364 1.348211,0.170601 1.477315,-0.08484 0.129104,-0.257286 -0.190889,-0.600332 -0.148469,-0.814276 0.04334,-0.213943 0.855773,-0.448173 1.027296,-0.963666 0.366101,-1.102914 0.758023,-2.924197 1.513279,-2.722242 0.756179,0.201955 1.613796,0.352269 2.219661,0 0.60402,-0.353191 0.553302,-0.604943 1.160089,-0.504427 0.601254,0.101439 1.913501,-0.100516 2.468646,-0.404832 0.556068,-0.300627 0.809664,-0.452785 0.85854,-0.856695 0.05164,-0.403909 0.857616,-0.806897 0.806898,-1.6645151 -0.05164,-0.8576126 -0.453705,-1.8655432 -1.362964,-1.8655432 -0.904647,-0.00184 -1.665437,0.1503135 -1.967908,0.4546293 z" id="path155" />
		<path d="m 8.0394689,8.5217654 c -0.2526743,0.049797 -0.8068977,0.5053485 -0.6067871,0.80782 0.201955,0.2997048 0.7073036,0.7045366 1.4146072,0.049797 0,0 3.672077,-1.4708595 2.217816,-2.1172999 C 10.236076,6.893215 9.4015125,7.4133183 9.0962745,7.7148675 8.7965697,8.0191832 8.2902989,8.4719682 8.0394689,8.5217654 Z" id="path157" />
		<path d="m 50.000923,10.747882 c -0.05994,0.03781 -0.137403,0.05072 -0.239764,0.03873 l -0.01937,0.01568 c -0.136481,-0.0959 -0.314459,-0.238842 -0.466617,-0.349502 -0.604943,-0.4537081 -0.65474,0.20011 -0.855772,0.805052 -0.202878,0.604944 -0.468463,0.611399 -0.809665,0.505349 -0.805054,-0.251752 -1.359277,0.554223 -1.1564,0.90557 0.202878,0.354113 1.510513,-0.09867 2.167097,-0.452784 0.350424,-0.187201 0.727592,-0.290484 1.085393,-0.287718 l 0.05441,0.01937 c 0.05441,0.03412 0.13187,0.06455 0.239764,0.04519" id="path159" />
		<path d="m 27.559942,9.960349 c 0.604942,0 0.906491,-0.4039101 0.704537,-1.0116194 C 28.06529,8.3465532 27.063815,7.4170069 27.21505,7.1652548 27.367208,6.9135027 28.636113,6.025454 28.115087,5.3983791 c -0.67595,-0.8142752 -2.33401,-0.4500185 -1.687569,0.5219476 0.201033,0.3033936 -0.211177,1.6184065 -0.263741,1.7696423 -0.05072,0.1521578 0.89266,0.5542235 1.143491,0.7063813 0.252674,0.1512358 0.402987,0.3531908 0.152157,0.5523793 -0.25083,0.2037993 -0.655662,0.3043158 -0.958133,0.2545186 -0.303394,-0.051642 -0.657507,-0.2545186 -0.85854,0.2517521 -0.201032,0.5044264 -0.01383,1.3288457 -0.593877,1.2513837 l -0.0249,0.01107 c -0.146624,-0.09406 -0.318147,-0.238841 -0.471227,-0.352268 -0.604943,-0.4527848 -0.656585,0.201033 -0.85854,0.80782 -0.20011,0.605866 -0.465695,0.611398 -0.805053,0.504427 -0.808742,-0.251752 -1.362966,0.555145 -1.160089,0.906491 0.201033,0.354113 1.512358,-0.09959 2.167097,-0.451862 0.350425,-0.189044 0.73128,-0.289561 1.080783,-0.288639 l 0.07193,0.0249 c 0.124493,0.08576 0.404832,0.143858 0.89727,-0.497972 0.655663,-0.855772 1.007932,-1.409996 1.613797,-1.409996 z" id="path161" />
		<path d="m 50.000923,22.689969 -0.240686,-0.01568 c -0.556068,-0.101439 -1.614717,0.403909 -1.91719,0.907414 -0.301549,0.504426 -0.707303,0.201032 -1.111213,-0.100517 0,0 -2.46588,-0.822575 -3.556806,-0.43803 -2.135743,0.75249 0.970122,3.365916 0.957211,2.456658 -0.03873,-2.382884 3.092956,-1.040207 3.708042,-0.902803 0.61232,0.137403 0.9609,-0.460162 0.9609,-0.460162 0.331981,-0.455552 0.393766,-0.536703 1.03283,-0.469385 l 0.167834,0.01291" id="path163" />
		<path d="m 28.742162,22.141279 c -0.350424,-0.591111 -2.714866,-0.602176 -3.106787,0.248985 -0.151236,0.32737 0.05902,0.569901 0.01107,1.072483 -0.04795,0.500737 0.68886,1.283659 1.022685,0.9609 0.333825,-0.324604 0.742346,-2.285135 2.19384,-1.611029 0.539469,0.25083 1.405386,1.729989 1.992808,1.431205 0.585576,-0.298782 1.11859,-0.04518 1.499446,0.194579 0.385467,0.238841 1.691258,-0.406677 2.199373,-0.410365 0,0 0.637219,0.230542 0.611398,-0.06639 -0.03504,-0.295094 -0.746957,-1.647916 -0.247142,-1.597197 0.504427,0.04887 1.023608,0.362413 0.768168,-0.195499 -0.22501,-0.486905 -0.154925,-0.571745 -0.65474,-0.618776 0,0 -0.179823,-0.171523 -0.826264,0.172446 -0.640907,0.344891 -2.575618,1.837882 -2.939874,1.397086 -0.36518,-0.438952 -0.670417,-0.975655 -1.154556,-0.666729 -0.483217,0.306161 -1.022686,0.279418 -1.369421,-0.311692 z" id="path165" />
		<path d="m 26.346367,14.452234 c 0.302471,-0.0498 0.503505,-0.906492 0.302471,-1.410919 -0.20011,-0.505349 -0.604942,-0.152157 -0.604942,-0.152157 -0.290484,-0.289561 -0.604943,0.150313 -1.002398,0.644595 l -0.01383,-0.01106 c -0.162302,0.181667 -0.319992,0.368868 -0.496127,0.530246 -0.656584,0.605866 -0.661194,0.826264 -0.215787,1.002398 0.215787,0.08853 0.48045,0.0083 0.726669,-0.14017 l -9.22e-4,-0.02213 c 0.309848,-0.199188 0.588344,-0.500737 0.699004,-0.691626 0,0 0.303394,0.300627 0.605865,0.25083 z" id="path167" />
		<path d="m 45.512719,-3e-6 c -2.445783,0.563798 -1.635907,1.609648 -0.980258,1.945781 0.217934,0.111729 0.378073,0.08106 0.448174,0.298783 0.08392,0.272962 -0.366101,0.628919 -0.126337,0.92678 C 45.213944,3.605683 44.15806,4.237368 44.151605,3.474735 44.143305,2.848582 43.750461,2.41424 43.091111,2.666915 42.436371,2.916822 43.492255,1.314093 42.1256,1.058652 l -0.202877,-0.03228 c -0.706381,-0.202877 -0.245297,0.294172 -0.746957,0.748801 -0.50627,0.453707 -0.957211,0.0498 -0.957211,0.0498 -0.204722,-0.504426 0.249907,-1.209886 1.00793,-1.209886 0.597566,0 0.911103,-0.06271 1.090926,-0.413131 l 0.03965,-0.145703 c 0.0092,-0.02029 0.01568,-0.03689 0.0249,-0.05625" id="path171" />
		<path d="m 35.95629,2.3653654 c -0.249908,0.5560679 0.257285,1.2126522 0.858539,1.1637772 0.606787,-0.052564 0.908337,0 0.908337,0.4011436 0,0.40391 -0.251752,1.1600885 -1.057728,0.9083364 -0.809665,-0.2526744 -1.110292,-0.8068979 -1.609185,-0.7063815 -0.511804,0.099595 -0.558834,0.5035043 -0.159535,1.3104022 0.285872,0.5652895 0.461084,1.3113241 1.317779,0.7073035 0.854851,-0.6067871 1.1564,-1.2108078 1.862781,-1.009775 0.706382,0.2028772 0.85854,0.4020656 1.057728,0.9083364 0.202878,0.5035043 0.167835,1.2587607 1.060494,0.65474 0.36979,-0.2499079 1.538178,-0.2923276 2.424383,0.1143489 0.888048,0.409443 1.504979,-0.8170417 1.16101,-1.7060126 C 43.439691,4.2263024 42.75913,4.0898213 42.212284,4.6348232 41.667282,5.1807472 41.121358,5.1807472 40.598488,4.8377003 40.372557,4.688309 40.448174,4.6348232 40.801366,4.3323518 41.152711,4.0289582 41.152711,3.9284418 40.902804,3.7255646 40.65013,3.5282204 40.1955,3.826081 40.094061,4.2816325 39.992624,4.7371839 39.641277,5.0396554 39.286242,4.7879033 38.933974,4.535229 38.076356,3.9293639 38.680377,3.7772061 c 0.605865,-0.1503135 0.959978,0.049797 0.959978,-0.3006271 0,-0.3531907 -0.09959,-0.3531907 -0.40391,-0.5044264 C 38.934896,2.8209168 38.934896,2.821839 38.78366,2.6180397 38.634269,2.4151625 38.37975,2.3653654 38.026559,2.3653654 c -0.352269,0 -0.352269,0.050719 -0.703615,-0.2508299 C 36.966065,1.812064 36.214497,1.8111419 35.95629,2.3653654 Z" id="path175" />
		<path d="m 48.440613,0.89542808 c 0,0 -0.546846,-0.27111768 -0.878827,-0.0839174 -0.233309,0.12910366 -0.979343,0.69900412 -0.520103,1.20066402 0.308926,0.3347473 0.683327,1.4201402 1.348211,0.2941719 0.289561,-0.4905939 0.605865,-1.41091854 0.05072,-1.41091854 z" id="path177" />
		<path d="m 6.2375509,11.36389 c -0.6012542,0.05072 -1.9651422,0.251753 -2.3146442,0.706381 -0.3568793,0.452785 -1.4146071,0.655662 -1.4146071,0.95629 0,0.303394 0.5551456,0.60402 0.7580228,0.757101 0.2028772,0.151235 0.3513464,0.452784 0.1484692,0.806897 -0.201955,0.352269 -0.5071929,1.360199 -1.3104021,1.209886 -0.8068978,-0.150314 -0.5053485,-0.05164 -0.906492,0.149391 0,0 -0.41036521,0.14847 -0.3246035,0.361491 0.0866839,0.214865 0.6860937,1.094614 0.6409075,1.350055 -0.044264,0.257285 1.3509774,0.172446 1.4782367,-0.08484 0.1272594,-0.257285 -0.1936554,-0.600332 -0.1484692,-0.81612 0.041498,-0.212098 0.8576172,-0.445407 1.0226855,-0.959977 0.371634,-1.105681 0.7617115,-2.926964 1.5151236,-2.72501 0.7561785,0.2038 1.6156399,0.354113 2.2205828,0 0.6049428,-0.349502 0.5551457,-0.603098 1.1582442,-0.501659 0.6040206,0.09959 1.9181109,-0.101439 2.4714119,-0.40391 0.556991,-0.302471 0.687939,-0.487828 0.857618,-0.85854 0.462929,-1.006086 0.902803,-1.9955731 -0.280339,-1.9033562 -1.182221,0.092216 -1.090004,1.4551832 -1.090004,1.4551832 L 10.67872,11.05957 C 10.020288,11.311326 9.0630765,11.918114 8.5079308,11.412765 7.952785,10.908338 7.7526745,10.654742 7.4492809,10.959058 c -0.3024715,0.303393 -0.6040207,0.35319 -1.21173,0.404832 z" id="path179" />
		<path d="m 50.000923,3.4867229 c -0.05809,-0.051642 -0.07239,-0.1067412 -0.156769,-0.1115825 -0.09138,-0.00524 -0.220428,0.103941 -0.290721,0.1678449 -0.186049,0.1691386 -0.298545,0.3015391 -0.552141,0.7017605 -0.705459,1.1093692 -1.303947,0.6722611 -3.277389,0.051642 -0.447251,-0.1401697 -0.79952,0.3651789 -0.650129,0.9203246 0.152158,0.5551457 0.495205,0.4915161 1.910735,0.4915161 1.410918,0 1.209885,0.9581335 -0.05348,2.3201771 -1.26245,1.3620435 -2.395796,-1.4828477 -3.527296,-0.40391 -0.725747,0.6897823 -0.153081,1.2098856 0.553301,1.9171892 0.704537,0.7054592 1.409996,0.5044272 1.512357,0.1503135 0.100516,-0.3531907 -1.139801,3.9644047 1.96883,-0.40391 0.379934,-0.5348579 0.452785,-0.6565843 0.907415,-1.3611213 0.451863,-0.7073036 0.402988,-1.0586499 0.402988,-1.8664699 0,-0.4029879 0.391921,-0.758023 0.951678,-1.0411289 0,0 0.169679,-0.1410918 0.300627,-0.1493913" id="path181" />
		<path d="m 50.000923,13.750463 c -0.280339,0.108816 -0.615087,0.21671 -0.722059,0.312616 -0.653817,0.606787 -0.658428,0.826263 -0.215787,1.005164 0.152158,0.06086 0.598487,0.02213 0.938768,-0.05533" id="path183" />
		<path d="m 50.000923,35.886207 -0.154925,-0.02029 c -0.134636,-0.09314 -0.31077,-0.236075 -0.462928,-0.34858 -0.606787,-0.454629 -0.657507,0.199189 -0.857617,0.805976 -0.204722,0.604943 -0.468462,0.611398 -0.809664,0.503505 -0.805976,-0.251753 -1.359278,0.556067 -1.155478,0.907413 0.20011,0.354113 1.510513,-0.100515 2.165252,-0.454629 0.349503,-0.188122 0.728514,-0.289561 1.085393,-0.287716 l 0.189967,0.0415" id="path185" />
		<path d="m 0,30.124495 0.18166728,-0.08391 c 0,0 0.85946142,-0.286794 1.09092592,-0.700848 0.2305422,-0.41221 -0.013833,-0.834563 0.2794172,-1.174844 0.4647731,-0.539469 1.2606049,-1.412763 1.8655478,-1.109369 0,0 0.1844337,0.08207 0.4527849,-0.170601 C 4.1516047,26.632246 4.5260052,26.24309 4.0704538,26.048512 3.553117,25.824426 2.7231649,25.445414 2.27038,25.645524 1.8157507,25.848402 0.44448544,27.055521 0.49336039,27.610667 0.52379202,27.957403 0.20011066,28.481194 0.20011066,28.481194 L 0,28.576173" id="path187" />
		<path d="m 4.3793804,49.079678 c 0.40391,0.205643 0.9636666,-0.40391 1.5169679,-0.05072 0.5551458,0.354113 1.5621542,-0.402988 1.7816304,-0.957211 0.2194762,-0.554224 1.0918481,-0.152158 1.3961638,0.201032 0.3006271,0.354113 1.1102915,-0.35319 1.1102915,-0.857617 0,-0.504426 -0.6565843,-0.656584 -1.05865,-0.706382 -0.4075987,-0.04795 -0.8594615,0.152159 -1.2624494,0.706382 -0.40391,0.555146 -0.6077093,0.252675 -1.0614164,-0.09867 -0.4546293,-0.355035 -0.8013648,0.149391 -1.2126522,0.553301 0,0 -0.043342,-0.330136 -0.420509,-0.426041 -0.3771671,-0.09314 -1.7170786,1.16101 -0.7893766,1.635927 z" id="path189" />
		<path d="m 0,48.739398 0.15769089,0.01475 c 0.10604943,0.01568 0.22408706,0.02951 0.35780156,0.0498 1.10936925,0.151235 0.93139065,-0.658429 1.46255995,-0.604944 0,0 1.4441166,-0.545001 1.0503504,-0.726668 C 2.8282922,47.378275 2.6337146,47.290672 2.4824788,47.187388 1.877536,46.785323 1.675581,46.937481 1.675581,46.937481 c -0.5044264,0 -0.3541128,0.149391 -0.70638143,0.554223 -0.30708226,0.350424 -0.38823312,0.345814 -0.7783106,0.274806 L 0,47.749911" id="path191" />
		<path d="m 0,40.106052 0.15676872,-0.07746 c 0.31169311,-0.198266 0.59295464,-0.500738 0.70177058,-0.696238 0,0 0.3024714,0.305239 0.605865,0.254519 0.3024714,-0.05256 0.5044264,-0.909259 0.3024714,-1.412762 C 1.5639985,37.669682 1.1610107,38.02195 1.1610107,38.02195 0.87052749,37.732389 0.55514571,38.172263 0.15676872,38.666547 L 0,38.790117" id="path193" />
		<path d="m 0,11.994654 c 0.15400221,-0.02029 0.37532277,-0.14847 0.67871635,-0.546847 0.65473995,-0.856694 1.00793065,-1.410918 1.61471785,-1.410918 0.6030985,0 0.9064921,-0.4029879 0.7045371,-1.0088528 C 2.7960163,8.4230932 1.7963851,7.4963134 1.9494651,7.242717 2.0997787,6.9900428 3.3696053,6.1029162 2.8485799,5.4767634 2.1689414,4.6597218 0.51180377,5.026745 1.1600885,5.9977889 1.3620436,6.298416 0.94706752,7.6161955 0.8972704,7.7683533 0.84562893,7.9186668 1.7871634,8.3216547 2.041682,8.4728904 2.2934342,8.6222818 2.445592,8.8260811 2.1938399,9.0280362 1.9402435,9.229069 1.5391,9.3305075 1.233862,9.2797882 0.93139065,9.2281467 0.57912211,9.0280362 0.37532277,9.5306182 0.20656584,9.960349 0.31445961,10.614167 0,10.761714" id="path195" />
		<path d="m 0,23.677613 0.15769089,0.01199 c 0.10604943,0.01291 0.22408706,0.02951 0.35780156,0.04703 0.28402803,0.03965 0.3116931,-0.142936 0.45186278,-0.33567 0,0 0.21117667,-0.651973 -0.0184434,-0.791221 -0.21025451,-0.130948 -0.21117669,-0.07193 -0.21117669,-0.07193 -0.30616009,0.352268 -0.15676871,0.23423 -0.54684619,0.164146 L 0,22.689047" id="path197" />
		<path d="m 2.5451863,24.287166 c 0.4961269,-0.106972 1.28827,0.377167 1.610107,0.05902 0.3199926,-0.314459 0.7866101,-0.678716 1.4210624,-0.515492 0.639063,0.165068 1.9725193,-1.063261 2.0094061,-1.658982 0.036887,-0.593877 -0.011066,-1.497602 0.3863889,-1.255994 0.398377,0.243453 0.9470674,-0.675949 0.7921431,-1.158244 -0.1576909,-0.478606 -0.8262634,-0.421432 -1.2283291,-0.343047 -0.3983769,0.07562 -0.3734784,1.623017 -0.5846551,2.274991 -0.2111767,0.653817 -0.497049,0.426042 -1.036518,0.231465 -0.5440796,-0.1955 -0.7257468,0.390999 -0.9811877,0.900036 -0.2618959,0.509038 -1.5077462,0.485061 -2.221505,0.349502 -0.3089266,-0.05717 -0.5634452,0.156769 -0.5791221,0.569901 -0.01291,0.413131 0.4122095,0.546846 0.4122095,0.546846 z" id="path199" />
		<path d="m 0,4.8718206 c 0.04979713,-0.00738 0.09682774,-0.00184 0.12818149,0.031354 0.12264847,0.1235707 0.0350424,0.1770565 0.24898562,0.088528 0,0 0.86038369,-0.2877167 1.09092589,-0.7017706 C 1.697713,3.8786446 1.457027,3.4581356 1.7493545,3.1178553 2.2150498,2.5783865 2.3708964,1.7060146 2.9758392,2.0094082 c 0,0 0.1844338,0.081151 0.4573958,-0.1724456 C 3.7117301,1.5852104 4.0787533,1.195133 3.6324235,0.99963321 3.1160089,0.77739045 2.9223534,0.39745684 2.4658798,0.59941185 2.0130949,0.80136685 0.64090743,2.008486 0.69070455,2.5636317 c 0.0313537,0.3458134 -0.2941719,0.8705275 -0.2941719,0.8705275 0,0 -0.10789377,0.130948 -0.19549982,0.1512357 C 0.14662486,3.5973832 0.07008484,3.5282204 0,3.465513" id="path201" />
		<path d="m 0,15.018446 c 0.15769089,-0.03689 0.29693841,-0.08023 0.37440059,-0.129104 l 0.18812248,-0.104206 c 0.31445961,-0.199188 0.27296201,-0.500737 0.38270011,-0.692548 l 0.60586502,0.25083 C 1.8544817,14.292698 2.0545924,13.436004 1.8544817,12.931577 1.6506824,12.428074 1.2486168,12.781264 1.2486168,12.781264 0.95905572,12.489859 0.96182222,12.929733 0.56252307,13.424937 L 0.43341941,13.533753 C 0.36794542,13.608449 0.19365549,13.684067 0,13.758763" id="path203" />
		<path d="m 0,37.029696 0.15676872,0.03412 c 0.13002582,0.08576 0.40391001,0.146625 0.89450388,-0.497972 0.6565843,-0.857616 1.0106972,-1.408152 1.6147179,-1.408152 0.6077093,0 0.9092585,-0.405754 0.7100701,-1.009774 C 3.1731834,33.542055 2.1726301,32.614352 2.3238657,32.359834 2.4723349,32.108082 3.7430838,31.221877 3.220214,30.593881 2.5451863,29.776839 0.88712653,30.144784 1.5344891,31.11675 c 0.2037993,0.300627 -0.2139432,1.617485 -0.2618959,1.769642 -0.050719,0.152158 0.8908151,0.553302 1.1425673,0.704537 0.25083,0.152158 0.40391,0.354113 0.1503136,0.556991 -0.25083,0.20011 -0.65474,0.300627 -0.9572115,0.249907 C 1.3076355,34.347105 0.95167837,34.14792 0.7515677,34.647735 0.55053486,35.156772 0.73773519,35.98027 0.15676872,35.904652 L 0,35.884363" id="path205" />
		<path d="m 7.9149762,50.000003 0.061785,-0.07193 c 0.40391,-0.203798 0.7082259,-0.376245 1.412763,-0.526558 0.7063818,-0.151236 2.1182228,-0.756178 2.8236818,-1.362966 0.705459,-0.60402 0.04887,-1.765031 -0.656585,-1.765031 -0.706381,0 -1.30948,-0.503504 -1.30948,-0.855772 0,-0.353191 -0.202876,-0.455552 0.655662,-0.605866 0.856696,-0.152157 1.613796,0.85854 2.066582,1.310403 0.453706,0.454629 0.757099,0.352268 1.560309,-0.352269 0.805976,-0.706381 0.960901,-0.09959 1.214497,0.352269 0,0 0.598487,0.539469 0.439874,0.942457 -0.156769,0.403909 -0.806898,0.439874 -1.232939,0.403909 -0.421432,-0.03412 -1.348212,0.687016 -0.873295,0.808742 0.474917,0.123571 0.53578,0.207488 0.554224,0.365179 0.111582,0.855773 -0.699926,0.708226 -0.855773,0.55699 -0.148469,-0.152154 -0.148469,-0.253593 -1.106603,-0.404829 -0.675949,-0.10605 -1.150867,0.51457 -1.495758,1.136112 l -0.02674,0.06916" id="path207" />
		<path d="m 17.668757,45.106052 c 0.561601,0.43803 0.243453,1.50498 0.931391,1.20712 0.55699,-0.23792 0.451863,-0.553302 1.055883,-0.502583 0.604944,0.05072 0.759867,0.149392 1.363889,-0.150313 0.604942,-0.302471 0.554223,-0.354113 1.109369,-0.302471 0.554223,0.05164 0.755255,0.202876 1.208963,-0.402066 0.452785,-0.60771 0.505349,-0.405754 0.907415,-0.05164 0.40391,0.353191 0.7654,0.302472 0.805975,0.05164 0.05256,-0.253597 -0.450018,-0.908337 -0.652896,-1.111214 -0.201032,-0.204722 -0.505348,-0.40391 0.352269,-0.858539 0,0 0.792143,-0.177056 0.512726,-0.43342 -0.283106,-0.256362 0.537624,-0.598487 0.194577,-0.771855 -0.315381,0.01476 -1.149944,-0.04334 -1.916266,0.801365 -1.133346,1.249538 -1.161011,1.816672 -1.46256,1.864625 -0.304317,0.05164 -0.554224,-0.09775 -0.805054,0.203799 -0.253596,0.304317 -0.102361,0.202878 -0.910181,0.05072 0,0 -0.656584,0.121727 -0.741424,-0.228698 -0.08945,-0.352268 -0.634452,-0.562523 -0.777389,-0.282184 -0.139247,0.282184 -0.420508,0.282184 -0.614163,0.229621 -0.193656,-0.05164 -1.125047,0.246219 -0.562524,0.686093 z" id="path209" />
		<path d="m 18.721874,49.649372 c 0,0 1.559388,-0.416821 2.063814,-0.999632 0.596644,-0.690705 1.042051,-0.377167 1.042051,-0.377167 0.857617,-0.04979 1.854275,1.491954 2.519158,1.31582 0.632608,-0.167835 -0.583525,-1.94105 -0.315174,-1.813792 0.210254,0.09682 1.245851,-1.202508 -0.251753,-1.005164 -0.26835,0.03596 -0.135558,1.031907 -0.135558,1.031907 -0.303394,0.504427 -0.70546,-0.43803 -1.110292,-0.740501 -0.403909,-0.303394 -1.425672,-0.06178 -2.132976,0.137403 -0.706381,0.202878 -0.48045,1.251383 -0.924013,0.917558 -1.503136,-1.111213 -2.258393,1.283659 -0.755257,1.533568 z" id="path211" />
		<path d="m 25.198106,48.376063 c 0.901065,0.696238 0.879924,-1.482848 1.463855,-1.430284 0.551715,0.05164 1.560506,1.711546 1.999462,1.512357 0.441976,-0.20011 1.048055,-0.40391 1.651116,-0.05072 0.608095,0.354113 1.669239,-0.419586 1.949123,-0.958133 0.389624,-0.75249 -0.955433,-0.757101 -0.955433,-0.757101 -0.495334,-0.350424 -0.882945,0.152157 -1.320893,0.557912 -0.441975,0.40391 -1.413516,-0.246219 -2.071949,-0.649207 -0.662461,-0.402987 -1.215181,-1.294725 -1.215181,-1.294725 -2.941808,-0.08945 -0.92523,1.537255 -1.311833,1.940243 0,0 -0.9655,0.538547 -0.188267,1.129658 z" id="path213" />
		<path d="m 32.830137,50.000003 0.07469,-0.09867 c 0.40391,-0.202877 0.704537,-0.375323 1.410918,-0.527481 0.702693,-0.150314 2.120066,-0.751568 2.823681,-1.361121 0.708227,-0.604943 0.05256,-1.76411 -0.656584,-1.76411 -0.700848,0 -1.308557,-0.504426 -1.308557,-0.859461 0,-0.351346 -0.201034,-0.453707 0.652895,-0.604943 0.85854,-0.150313 1.615641,0.857617 2.067503,1.313169 0.453707,0.454629 0.758945,0.353191 1.563076,-0.353191 0.808743,-0.707303 0.959978,-0.102361 1.210809,0.353191 0.251751,0.454629 0.52748,0.28495 1.313168,-0.152158 0.267429,-0.150313 0.550534,0.201955 0.48045,0.835485 -0.07008,0.631685 -1.548322,2.180008 -1.479159,1.617485 0.07377,-0.562524 0.378089,-0.883439 -0.163224,-1.040208 -0.87145,-0.252674 -0.957211,0.453708 -1.259683,1.260606 -0.300627,0.805976 -0.705459,0.704537 -0.856695,0.554223 -0.152158,-0.151235 -0.152158,-0.251752 -1.109369,-0.401143 -0.675028,-0.108816 -1.149945,0.510881 -1.494836,1.132423 l -0.0627,0.09591" id="path215" />
	</g>
</svg>
