<?xml version="1.0" encoding="UTF-8" standalone="no"?>
<svg xmlns:dc="http://purl.org/dc/elements/1.1/" xmlns:cc="http://creativecommons.org/ns#" xmlns:rdf="http://www.w3.org/1999/02/22-rdf-syntax-ns#" xmlns:svg="http://www.w3.org/2000/svg" xmlns="http://www.w3.org/2000/svg" version="1.1" x="0px" y="0px" xml:space="preserve" width="50.00" height="50.00" viewBox="0 0 50.00 50.00">
	<metadata id="metadata2">
		<rdf:RDF>
			<ns:item rdf:ID="biblio1">
				<ns:link>rdf:resource=&quot;http://pubs.usgs.gov/tm/2006/11A02/</ns:link>
				<ns:title>U.S. Geological Survey, 2006, FGDC Digital Cartographic Standard for Geologic Map Symbolization (PostScript Implementation): U.S. Geological Survey Techniques and Methods 11-A2</ns:title>
			</ns:item>
			<ns:item rdf:ID="biblio2">
				<ns:link>https://davenquinn.com/projects/geologic-patterns/</ns:link>
				<ns:title>FGDC Geologic Patterns for the Web</ns:title>
			</ns:item>
			<rdf:Description>
				<dc:description>
					Converted from 'FGDC Geologic Patterns for the Web' to QGIS compatible svg symbols, with customisable fill colour/stroke colour/stroke width (when appropriate).
					SVG scaled to 50x50 pixels so that base outline-width is 0.387 px and width is 90 in the QGIS xml definition file. 
					Some of the original FGDC symbols have been omitted from this set because they can be generated from other symbols using the 'texture width' and/or 'stroke width' fields in QGIS symbology form.
				</dc:description>
				<dc:date>01 MARCH 2019</dc:date>
				<dc:creator>GeoProc.com</dc:creator>
				<dc:publisher rdf:resource="https://github.com/BC-Consulting/QGIS-FGDC-Fill" />
			</rdf:Description>
			<cc:Work rdf:about="">
				<dc:format>image/svg+xml</dc:format>
				<dc:type rdf:resource="http://purl.org/dc/dcmitype/StillImage" />
				<dc:title>FGDC fill symbol: Glacial and Periglacial - 591</dc:title>
			</cc:Work>
		</rdf:RDF>
	</metadata>
	<path style="fill:none;stroke:none;stroke-width:0;" id="rect1500" width="50.00" height="50.00" x="0.0" y="0.0" />
	<g fill="param(outline) #000" stroke="param(outline) #000">
		<g style="stroke:none;">
			<ellipse cx="49.234085" cy="49.300159" id="ellipse2686" rx="0.56" ry="0.56" />
			<ellipse cx="1.8597901" cy="15.349125" id="ellipse2688" rx="0.56" ry="0.56" />
			<ellipse cx="1.2851672" cy="32.314816" id="ellipse2690" rx="0.56" ry="0.56" />
			<ellipse ry="0.56" rx="0.56" id="circle5" cy="31.520494" cx="9.6836729" />
			<ellipse ry="0.56" rx="0.56" id="circle7" cy="39.350933" cx="10.343436" />
			<ellipse ry="0.56" rx="0.56" id="circle9" cy="20.527493" cx="10.68469" />
			<ellipse ry="0.56" rx="0.56" id="circle11" cy="2.2028961" cx="11.017197" />
			<ellipse ry="0.56" rx="0.56" id="circle13" cy="16.731714" cx="13.457614" />
			<ellipse ry="0.56" rx="0.56" id="circle15" cy="40.973053" cx="13.695618" />
			<ellipse ry="0.56" rx="0.56" id="circle17" cy="33.65551" cx="13.748993" />
			<ellipse ry="0.56" rx="0.56" id="circle19" cy="45.791111" cx="14.575883" />
			<ellipse ry="0.56" rx="0.56" id="circle21" cy="5.7141232" cx="14.997641" />
			<ellipse ry="0.56" rx="0.56" id="circle23" cy="10.54623" cx="15.242644" />
			<ellipse ry="0.56" rx="0.56" id="circle25" cy="24.049259" cx="15.30652" />
			<ellipse ry="0.56" rx="0.56" id="circle27" cy="30.422688" cx="15.448273" />
			<ellipse ry="0.56" rx="0.56" id="circle29" cy="14.822408" cx="16.89905" />
			<ellipse ry="0.56" rx="0.56" id="circle31" cy="38.189892" cx="16.907797" />
			<ellipse ry="0.56" rx="0.56" id="circle33" cy="21.265217" cx="17.247303" />
			<ellipse ry="0.56" rx="0.56" id="circle35" cy="3.029125" cx="2.6236632" />
			<ellipse ry="0.56" rx="0.56" id="circle37" cy="11.911625" cx="1.0472902" />
			<ellipse ry="0.56" rx="0.56" id="circle39" cy="28.939817" cx="1.8476672" />
			<ellipse ry="0.56" rx="0.56" id="circle41" cy="2.9371083" cx="17.577185" />
			<ellipse ry="0.56" rx="0.56" id="circle43" cy="25.580917" cx="17.781063" />
			<ellipse ry="0.56" rx="0.56" id="circle45" cy="47.039097" cx="19.965101" />
			<ellipse ry="0.56" rx="0.56" id="circle47" cy="30.144283" cx="20.403484" />
			<ellipse ry="0.56" rx="0.56" id="circle49" cy="35.261822" cx="21.286373" />
			<ellipse ry="0.56" rx="0.56" id="circle51" cy="18.344173" cx="21.625877" />
			<ellipse ry="0.56" rx="0.56" id="circle53" cy="40.680599" cx="24.488052" />
			<ellipse ry="0.56" rx="0.56" id="circle55" cy="5.4357181" cx="25.15744" />
			<ellipse ry="0.56" rx="0.56" id="circle57" cy="29.958096" cx="25.305317" />
			<ellipse ry="0.56" rx="0.56" id="circle59" cy="26.174612" cx="25.874077" />
			<ellipse ry="0.56" rx="0.56" id="circle61" cy="36.279709" cx="26.528589" />
			<ellipse ry="0.56" rx="0.56" id="circle63" cy="19.365574" cx="26.872469" />
			<ellipse ry="0.56" rx="0.56" id="circle65" cy="44.191822" cx="26.976595" />
			<ellipse ry="0.56" rx="0.56" id="circle67" cy="1.0313166" cx="27.211102" />
			<ellipse ry="0.56" rx="0.56" id="circle69" cy="8.9320135" cx="27.642485" />
			<ellipse ry="0.56" rx="0.56" id="circle71" cy="46.972347" cx="31.486423" />
			<ellipse ry="0.56" rx="0.56" id="circle73" cy="11.695852" cx="32.166309" />
			<ellipse ry="0.56" rx="0.56" id="circle75" cy="38.044983" cx="32.61694" />
			<ellipse ry="0.56" rx="0.56" id="circle77" cy="25.802237" cx="32.658066" />
			<ellipse ry="0.56" rx="0.56" id="circle79" cy="31.453749" cx="33.533085" />
			<ellipse ry="0.56" rx="0.56" id="circle81" cy="14.539615" cx="33.876965" />
			<ellipse ry="0.56" rx="0.56" id="circle83" cy="2.7895634" cx="33.912842" />
			<ellipse ry="0.56" rx="0.56" id="circle85" cy="22.067936" cx="34.842983" />
			<ellipse ry="0.56" rx="0.56" id="circle87" cy="25.288462" cx="3.5646937" />
			<ellipse ry="0.56" rx="0.56" id="circle89" cy="21.163776" cx="2.341572" />
			<ellipse ry="0.56" rx="0.56" id="circle91" cy="41.170658" cx="35.718872" />
			<ellipse ry="0.56" rx="0.56" id="circle93" cy="10.835172" cx="35.864124" />
			<ellipse ry="0.56" rx="0.56" id="circle95" cy="46.096737" cx="36.450382" />
			<ellipse ry="0.56" rx="0.56" id="circle97" cy="25.651178" cx="36.460011" />
			<ellipse ry="0.56" rx="0.56" id="circle99" cy="7.3195558" cx="37.418152" />
			<ellipse ry="0.56" rx="0.56" id="circle101" cy="17.753994" cx="37.526649" />
			<ellipse ry="0.56" rx="0.56" id="circle103" cy="49.151276" cx="37.855659" />
			<ellipse ry="0.56" rx="0.56" id="circle105" cy="29.165918" cx="38.050785" />
			<ellipse ry="0.56" rx="0.56" id="circle107" cy="35.70182" cx="41.258591" />
			<ellipse ry="0.56" rx="0.56" id="circle109" cy="18.78154" cx="41.614723" />
			<ellipse ry="0.56" rx="0.56" id="circle111" cy="1.0761061" cx="41.940228" />
			<ellipse ry="0.56" rx="0.56" id="circle113" cy="32.191475" cx="43.158249" />
			<ellipse ry="0.56" rx="0.56" id="circle115" cy="15.258898" cx="43.502129" />
			<ellipse ry="0.56" rx="0.56" id="circle117" cy="43.470783" cx="44.03764" />
			<ellipse ry="0.56" rx="0.56" id="circle119" cy="26.533817" cx="44.381519" />
			<ellipse ry="0.56" rx="0.56" id="circle121" cy="8.2057047" cx="44.704403" />
			<ellipse ry="0.56" rx="0.56" id="circle123" cy="39.794445" cx="47.386322" />
			<ellipse ry="0.56" rx="0.56" id="circle125" cy="32.330238" cx="47.665455" />
			<ellipse ry="0.56" rx="0.56" id="circle127" cy="22.883827" cx="47.733704" />
			<ellipse ry="0.56" rx="0.56" id="circle129" cy="15.416101" cx="48.02771" />
			<ellipse ry="0.56" rx="0.56" id="circle131" cy="4.5486913" cx="48.056583" />
			<ellipse ry="0.56" rx="0.56" id="circle133" cy="44.925159" cx="48.109085" />
			<ellipse ry="0.56" rx="0.56" id="circle135" cy="27.994339" cx="48.466091" />
			<ellipse ry="0.56" rx="0.56" id="circle137" cy="9.673254" cx="48.792473" />
			<ellipse ry="0.56" rx="0.56" id="circle139" cy="45.913185" cx="5.5264773" />
			<ellipse ry="0.56" rx="0.56" id="circle141" cy="28.362322" cx="5.876483" />
			<ellipse ry="0.56" rx="0.56" id="circle143" cy="34.824455" cx="5.967485" />
			<ellipse ry="0.56" rx="0.56" id="circle145" cy="10.031579" cx="6.2028642" />
			<ellipse ry="0.56" rx="0.56" id="circle147" cy="17.898901" cx="6.3148661" />
			<ellipse ry="0.56" rx="0.56" id="circle149" cy="42.289543" cx="7.1295047" />
			<ellipse ry="0.56" rx="0.56" id="circle151" cy="7.0341253" cx="7.8085165" />
			<ellipse ry="0.56" rx="0.56" id="circle153" cy="24.948582" cx="7.8785176" />
			<path id="path2362" d="M48.93376 20.178465C48.8895 19.92852 49.00707 19.629591 49.152476 19.416914C49.378995 19.085592 49.670624 18.823295 50.0 18.561634C50.0 18.561634 50.0 19.061524 50.0 19.061524C49.871114 19.176081 49.2384 19.74757 49.308702 20.1316C49.308702 20.1316 48.93376 20.178465 48.93376 20.178465" />
			<path id="path2364" d="M0.00781128 19.061524C0.00781128 19.061524 0.00781128 18.561634 0.00781128 18.561634C0.26037599 18.363761 0.52789036 18.184172 0.80065615 18.01488C1.0571089 17.855713 1.3292194 17.711562 1.593501 17.577477C1.663802 17.539727 1.7840653 17.561017 1.8278394 17.636067C1.8695344 17.707537 1.8616894 17.85607 1.7848784 17.905538C1.4867479 18.051339 1.2090397 18.206628 0.92563772 18.389806C0.60723312 18.595609 0.28641435 18.806379 0.00781188 19.061531C0.00781188 19.061531 0.00781128 19.061524 0.00781128 19.061524" />
			<path id="path2379" d="M0.00390564 24.712619C0.00390564 24.712619 0.0 24.333797 0.0 24.333797C0.11586732 24.315577 0.32026246 24.322087 0.32026246 24.322087C0.75145465 24.393907 1.3048482 24.748893 1.2849554 25.49369C1.2650624 26.238488 0.60234455 26.514009 0.39056398 26.548145C0.26587124 26.568245 0.13279175 26.576785 0.00390564 26.555945C0.00390564 26.555945 0.00390564 26.169328 0.00390564 26.169328C0.06639588 26.170628 0.12887356 26.184648 0.19137635 26.184948C0.35871392 26.185878 0.88578524 26.034067 0.91001406 25.489789C0.93424286 24.945512 0.48989224 24.761791 0.33588502 24.716522C0.21734547 24.681682 0.09243348 24.702202 0.00390564 24.712622C0.00390564 24.712622 0.00390564 24.712619 0.00390564 24.712619" />
			<path id="path2383" d="M49.996094 24.712619C49.751255 24.796569 49.434091 24.96206 49.42587 25.450737C49.41767 25.939414 49.872612 26.154351 49.996094 26.169328C49.996094 26.169328 49.996094 26.555962 49.996094 26.555962C49.421584 26.456582 49.043976 26.005468 49.039213 25.439021C49.034413 24.872575 49.451908 24.409301 49.992189 24.333797C49.992189 24.333797 49.996094 24.712619 49.996094 24.712619" />
			<path id="ellipse2385" d="M49.999667 37.127402C49.623868 37.127402 49.319221 36.837702 49.319221 36.48034C49.319221 36.122978 49.623868 35.833279 49.999667 35.833279" />
			<path d="M0.00747808 35.833279C0.38327836 35.833279 0.68792377 36.122978 0.68792477 36.48034C0.68792477 36.837702 0.38327836 37.127402 0.00747808 37.127402" id="path2388" />
			<path id="path2390" d="M30.791386 2.0877137C30.791386 2.0877137 30.487598 1.8502221 30.487598 1.8502221C30.923596 1.253381 31.357585 0.65453136 31.735888 0.0C31.735888 0.0 32.177761 0.01104656 32.177761 0.01104656C31.734236 0.74046537 31.278877 1.4462184 30.791386 2.0877137C30.791386 2.0877137 30.791386 2.0877137 30.791386 2.0877137" />
			<path id="path2392" d="M32.708009 47.724503C32.708009 47.724503 33.06703 47.59195 33.06703 47.59195C33.12745 47.738537 33.09846 48.101509 32.9897 48.387269C32.72276 49.088694 32.364881 49.69309 32.177761 50.0C32.177761 50.0 31.735888 49.98895 31.735888 49.98895C32.074194 49.422377 32.407855 48.864297 32.625157 48.271282C32.719157 48.014782 32.730935 47.797257 32.708007 47.724501C32.708007 47.724501 32.708009 47.724503 32.708009 47.724503" />
		</g>
		<g style="stroke-dasharray:none;stroke-miterlimit:4;stroke-width:0.387;fill:none">
			<ellipse ry="0.934" rx="0.934" id="circle155" cy="6.9903703" cx="1.7524056" />
			<ellipse ry="0.934" rx="0.934" id="circle157" cy="15.170402" cx="9.4283619" />
			<ellipse ry="0.934" rx="0.934" id="circle159" cy="48.221699" cx="9.6383982" />
			<ellipse ry="0.934" rx="0.934" id="circle161" cy="35.374519" cx="10.366524" />
			<ellipse ry="0.934" rx="0.934" id="circle163" cy="24.539843" cx="12.202593" />
			<ellipse ry="0.934" rx="0.934" id="circle165" cy="6.6407523" cx="12.228848" />
			<ellipse ry="0.934" rx="0.934" id="circle167" cy="42.347572" cx="2.6275573" />
			<ellipse ry="0.934" rx="0.934" id="circle169" cy="12.315473" cx="19.36396" />
			<ellipse ry="0.934" rx="0.934" id="circle171" cy="40.49231" cx="20.596174" />
			<ellipse ry="0.934" rx="0.934" id="circle173" cy="5.7271743" cx="21.554464" />
			<ellipse ry="0.934" rx="0.934" id="circle175" cy="21.035746" cx="21.571968" />
			<ellipse ry="0.934" rx="0.934" id="circle177" cy="46.849579" cx="25.310616" />
			<ellipse ry="0.934" rx="0.934" id="circle179" cy="32.538036" cx="27.698904" />
			<ellipse ry="0.934" rx="0.934" id="circle181" cy="15.609622" cx="28.045465" />
			<ellipse ry="0.934" rx="0.934" id="circle183" cy="4.5922298" cx="30.561525" />
			<ellipse ry="0.934" rx="0.934" id="circle185" cy="22.929663" cx="30.862579" />
			<ellipse ry="0.934" rx="0.934" id="circle187" cy="42.676987" cx="32.382717" />
			<ellipse ry="0.934" rx="0.934" id="circle189" cy="37.955376" cx="36.986889" />
			<ellipse ry="0.934" rx="0.934" id="circle191" cy="21.02696" cx="37.963558" />
			<ellipse ry="0.934" rx="0.934" id="circle193" cy="2.6895292" cx="38.29174" />
			<ellipse ry="0.934" rx="0.934" id="circle195" cy="46.300552" cx="40.097179" />
			<ellipse ry="0.934" rx="0.934" id="circle197" cy="10.402233" cx="40.140938" />
			<ellipse ry="0.934" rx="0.934" id="circle199" cy="29.372139" cx="41.703083" />
			<ellipse ry="0.934" rx="0.934" id="circle201" cy="36.491016" cx="45.201939" />
			<ellipse ry="0.934" rx="0.934" id="circle203" cy="19.562601" cx="45.5485" />
			<ellipse ry="0.934" rx="0.934" id="circle205" cy="1.2251701" cx="45.876682" />
			<line id="line213" y2="0.40295315" x2="15.683947" y1="3.0382726" x1="13.933642" />
			<line id="line215" y2="18.107906" x2="16.615108" y1="20.743225" x1="14.864805" />
			<line id="line217" y2="38.303238" x2="13.258901" y1="35.667915" x1="15.009204" />
			<line id="line219" y2="32.812988" x2="22.922327" y1="32.520466" x1="18.546568" />
			<line id="line221" y2="15.885454" x2="23.268011" y1="15.592052" x1="18.892254" />
			<line id="line223" y2="31.312613" x2="6.5858688" y1="31.605133" x1="4.106564" />
			<line id="line225" y2="32.28241" x2="36.083736" y1="35.356949" x1="37.105038" />
			<line id="line227" y2="13.194794" x2="40.224075" y1="15.24419" x1="37.598621" />
			<line id="line231" y2="14.6776" x2="4.4522491" y1="14.384198" x1="6.9324288" />
			<path id="path240" d="M9.1745676 44.599014C8.4446911 44.452315 11.653873 43.427176 12.237599 42.695435" />
			<path id="path242" d="M11.881412 29.053266C10.366524 29.06205 9.1631907 27.890211 8.7256148 27.30517" />
			<path id="path244" d="M12.620915 11.263103C11.745764 11.116403 9.99546 10.823883 9.5578841 10.237964" />
			<path id="path248" d="M20.460525 2.4699206C19.731523 2.3240996 22.93983 1.2989604 23.523556 0.56722002" />
			<path id="path250" d="M21.206154 26.133332C21.206154 26.133332 17.559397 28.476131 16.684245 28.476131" />
			<path id="path252" d="M21.426692 44.013095C20.551541 44.013095 17.197084 42.987956 17.197084 42.987956" />
			<path id="path254" d="M22.101434 8.7481298C21.226283 8.7481298 17.871826 7.7229906 17.871826 7.7229906" />
			<path id="path256" d="M25.436638 12.078295C25.874214 12.664214 28.062093 10.907335 28.937245 11.054034" />
			<path id="path258" d="M28.390275 23.88189C28.224871 24.792833 23.508678 22.382394 23.508678 22.382394" />
			<path id="path260" d="M28.644944 29.35457C28.791094 30.086311 31.41655 28.036911 32.291701 28.036911" />
			<path id="path262" d="M30.32436 36.693056C30.32436 36.693056 32.51224 34.057737 32.220814 33.179297" />
			<path id="path264" d="M30.689298 41.140597C29.814147 41.140597 27.480117 39.968758 27.334842 39.237018" />
			<path id="path268" d="M31.290528 7.4304701C31.436678 8.1622104 33.769833 9.3331707 34.644984 9.3331707" />
			<path id="path270" d="M31.312407 19.033781C31.312407 19.033781 34.494458 17.781126 34.660737 16.870184" />
			<path id="path274" d="M40.242455 41.963695C39.513454 41.816996 42.72176 40.791856 43.305486 40.060116" />
			<path id="path276" d="M40.589015 25.035282C39.860014 24.889461 43.06832 23.864322 43.652046 23.132581" />
			<path id="path278" d="M40.917197 6.6978513C40.188196 6.5520303 43.396502 5.5268911 43.980228 4.7951507" />
			<path id="path280" d="M5.2530126 39.200124C5.2530126 39.200124 2.7737077 37.150724 2.919858 36.272284" />
			<path id="path282" d="M44.910515 32.630272C44.764364 31.458434 46.660818 29.409034 46.077092 29.701554" />
			<path id="path284" d="M45.238697 14.292842C45.092546 13.121003 46.989 11.071603 46.405274 11.364123" />
			<path id="path286" d="M45.730532 45.998369C46.314258 45.70497 44.417804 47.755249 44.563955 48.926209" />
			<path id="path302" d="M5.5829448 22.546662C5.5829448 22.546662 8.225028 21.156092 8.3711783 20.277652" />
			<path id="path304" d="M5.5846951 48.93675C4.7095434 48.93675 2.3763888 47.764911 2.2302384 47.033171" />
			<path id="path306" d="M5.9111267 4.2092314C5.9111267 4.2092314 7.8075806 2.0131319 7.9528558 1.1346921" />
		</g>
	</g>
</svg>
