<?xml version="1.0" encoding="utf-8"?>
<svg xmlns="http://www.w3.org/2000/svg" version="1.1" x="0px" y="0px" xml:space="preserve" width="54.125" height="54.125" viewBox="1.888 -55.518 54.125 54.125">
	<metadata id="metadata2">
	<rdf:RDF
		xmlns:dc="http://purl.org/dc/elements/1.1/"
		xmlns:cc="http://creativecommons.org/ns#"
		xmlns:rdf="http://www.w3.org/1999/02/22-rdf-syntax-ns#"
		xmlns="http://my.netscape.com/rdf/simple/0.9/">
		<item rdf:ID="biblio1">
			<link>rdf:resource="http://pubs.usgs.gov/tm/2006/11A02/</link>
			<title>U.S. Geological Survey, 2006, FGDC Digital Cartographic Standard for Geologic Map Symbolization (PostScript Implementation): U.S. Geological Survey Techniques and Methods 11-A2</title>
		</item>
		<item rdf:ID="biblio2">
			<link>https://davenquinn.com/projects/geologic-patterns/</link>
			<title>FGDC Geologic Patterns for the Web</title>
		</item>
		<rdf:Description>
			<dc:description>Converted from 'FGDC Geologic Patterns for the Web' to QGIS compatible svg symbols, with customisable fill colour/stroke colour/stroke width (when appropriate)</dc:description>
			<dc:date>01 MARCH 2019</dc:date>
			<dc:creator>GeoProc.com</dc:creator>
			<dc:publisher rdf:resource="https://github.com/BC-Consulting/QGIS-FGDC-Fill" />
		</rdf:Description>
		<cc:Work rdf:about="">
			<dc:format>image/svg+xml</dc:format>
			<dc:type rdf:resource="http://purl.org/dc/dcmitype/StillImage" />
			<dc:title>FGDC fill symbol: Lithology - Sedimentary - 601 Gravel Or Conglomerate 1st Option</dc:title>
		</cc:Work>
	</rdf:RDF>
	</metadata>
	<g>
		<rect x="1.888" y="-55.518" style="fill:none;stroke:none;" width="54.125" height="54.125"/>
        <g fill="param(outline) #000" stroke="param(outline) #000" stroke-width="param(outline-width) 0.3">
			<circle cx="10.212" cy="-48.9" r="0.5"/>
			<circle cx="10.31" cy="-6.24" r="0.5"/>
			<circle cx="10.915" cy="-35.39" r="0.5"/>
			<circle cx="11.15" cy="-54.713" r="0.5"/>
			<circle cx="11.275" cy="-46.088" r="0.5"/>
			<circle cx="11.3" cy="-14.242" r="0.5"/>
			<circle cx="11.3" cy="-23.647" r="0.5"/>
			<circle cx="11.3" cy="-42.595" r="0.5"/>
			<circle cx="11.355" cy="-39.075" r="0.5"/>
			<circle cx="11.795" cy="-8.88" r="0.5"/>
			<circle cx="12.207" cy="-21.42" r="0.5"/>
			<circle cx="12.537" cy="-11.355" r="0.5"/>
			<circle cx="12.712" cy="-51.025" r="0.5"/>
			<circle cx="12.867" cy="-27.112" r="0.5"/>
			<circle cx="13.527" cy="-18.945" r="0.5"/>
			<circle cx="13.527" cy="-30.577" r="0.5"/>
			<circle cx="13.692" cy="-15.975" r="0.5"/>
			<circle cx="13.995" cy="-33.245" r="0.5"/>
			<circle cx="14.187" cy="-24.308" r="0.5"/>
			<circle cx="14.27" cy="-2.857" r="0.5"/>
			<circle cx="14.27" cy="-43.64" r="0.5"/>
			<circle cx="14.4" cy="-54.9" r="0.5"/>
			<circle cx="14.567" cy="-40.233" r="0.5"/>
			<circle cx="14.733" cy="-37.067" r="0.5"/>
			<circle cx="14.765" cy="-21.585" r="0.5"/>
			<circle cx="15.095" cy="-12.922" r="0.5"/>
			<circle cx="15.177" cy="-8.962" r="0.5"/>
			<circle cx="15.507" cy="-28.02" r="0.5"/>
			<circle cx="15.837" cy="-45.838" r="0.5"/>
			<circle cx="15.9" cy="-52.4" r="0.5"/>
			<circle cx="16.415" cy="-15.397" r="0.5"/>
			<circle cx="16.415" cy="-25.298" r="0.5"/>
			<circle cx="16.497" cy="-18.532" r="0.5"/>
			<circle cx="16.525" cy="-49.9" r="0.5"/>
			<circle cx="16.733" cy="-34.567" r="0.5"/>
			<circle cx="16.745" cy="-5.827" r="0.5"/>
			<circle cx="17.075" cy="-11.107" r="0.5"/>
			<circle cx="17.13" cy="-42.375" r="0.5"/>
			<circle cx="17.487" cy="-22.823" r="0.5"/>
			<circle cx="17.817" cy="-31.733" r="0.5"/>
			<circle cx="18.12" cy="-37.535" r="0.5"/>
			<circle cx="18.212" cy="-53.9" r="0.5"/>
			<circle cx="18.56" cy="-27.525" r="0.5"/>
			<circle cx="18.725" cy="-2.692" r="0.5"/>
			<circle cx="18.807" cy="-8.137" r="0.5"/>
			<circle cx="18.972" cy="-19.935" r="0.5"/>
			<circle cx="19.302" cy="-13.335" r="0.5"/>
			<circle cx="19.467" cy="-16.388" r="0.5"/>
			<circle cx="19.66" cy="-34.455" r="0.5"/>
			<circle cx="19.837" cy="-47.213" r="0.5"/>
			<circle cx="19.962" cy="-24.142" r="0.5"/>
			<circle cx="19.962" cy="-49.525" r="0.5"/>
			<circle cx="2.4" cy="-47.525" r="0.5"/>
			<circle cx="2.4" cy="-51.275" r="0.5"/>
			<circle cx="2.72" cy="-43.255" r="0.5"/>
			<circle cx="2.72" cy="-8.467" r="0.5"/>
			<circle cx="2.802" cy="-15.645" r="0.5"/>
			<circle cx="2.94" cy="-33.135" r="0.5"/>
			<circle cx="20.21" cy="-5.167" r="0.5"/>
			<circle cx="20.212" cy="-44.4" r="0.5"/>
			<circle cx="20.485" cy="-41.66" r="0.5"/>
			<circle cx="20.837" cy="-51.713" r="0.5"/>
			<circle cx="21.53" cy="-26.37" r="0.5"/>
			<circle cx="21.53" cy="-37.315" r="0.5"/>
			<circle cx="21.86" cy="-31.815" r="0.5"/>
			<circle cx="21.9" cy="-2.733" r="0.5"/>
			<circle cx="22.107" cy="-14.077" r="0.5"/>
			<circle cx="22.19" cy="-7.065" r="0.5"/>
			<circle cx="22.602" cy="-22.08" r="0.5"/>
			<circle cx="22.685" cy="-16.718" r="0.5"/>
			<circle cx="22.837" cy="-48.525" r="0.5"/>
			<circle cx="22.96" cy="-34.345" r="0.5"/>
			<circle cx="23.015" cy="-11.437" r="0.5"/>
			<circle cx="23.097" cy="-28.597" r="0.5"/>
			<circle cx="23.427" cy="-24.555" r="0.5"/>
			<circle cx="23.455" cy="-40.45" r="0.5"/>
			<circle cx="23.84" cy="-4.177" r="0.5"/>
			<circle cx="24.337" cy="-46.213" r="0.5"/>
			<circle cx="24.417" cy="-8.55" r="0.5"/>
			<circle cx="24.5" cy="-37.315" r="0.5"/>
			<circle cx="24.587" cy="-54.713" r="0.5"/>
			<circle cx="24.665" cy="-20.43" r="0.5"/>
			<circle cx="24.712" cy="-51.713" r="0.5"/>
			<circle cx="24.747" cy="-31.237" r="0.5"/>
			<circle cx="24.83" cy="-43.2" r="0.5"/>
			<circle cx="25.242" cy="-12.592" r="0.5"/>
			<circle cx="25.572" cy="-15.397" r="0.5"/>
			<circle cx="25.902" cy="-26.618" r="0.5"/>
			<circle cx="26.067" cy="-6.075" r="0.5"/>
			<circle cx="26.205" cy="-34.18" r="0.5"/>
			<circle cx="26.212" cy="-48.65" r="0.5"/>
			<circle cx="26.232" cy="-18.038" r="0.5"/>
			<circle cx="26.397" cy="-22.987" r="0.5"/>
			<circle cx="26.865" cy="-40.065" r="0.5"/>
			<circle cx="27.105" cy="-29.17" r="0.5"/>
			<circle cx="27.47" cy="-10.2" r="0.5"/>
			<circle cx="27.8" cy="-2.857" r="0.5"/>
			<circle cx="27.9" cy="-54.15" r="0.5"/>
			<circle cx="28.02" cy="-37.37" r="0.5"/>
			<circle cx="28.295" cy="-13.17" r="0.5"/>
			<circle cx="28.46" cy="-24.968" r="0.5"/>
			<circle cx="28.542" cy="-31.073" r="0.5"/>
			<circle cx="28.625" cy="-21.09" r="0.5"/>
			<circle cx="28.625" cy="-7.642" r="0.5"/>
			<circle cx="28.845" cy="-42.65" r="0.5"/>
			<circle cx="29.15" cy="-16.65" r="0.5"/>
			<circle cx="29.65" cy="-49.275" r="0.5"/>
			<circle cx="3.05" cy="-11.932" r="0.5"/>
			<circle cx="3.05" cy="-38.91" r="0.5"/>
			<circle cx="3.132" cy="-5.167" r="0.5"/>
			<circle cx="3.4" cy="-54.9" r="0.5"/>
			<circle cx="3.462" cy="-27.608" r="0.5"/>
			<circle cx="3.545" cy="-18.945" r="0.5"/>
			<circle cx="3.71" cy="-2.692" r="0.5"/>
			<circle cx="30.15" cy="-51.4" r="0.5"/>
			<circle cx="30.55" cy="-39.13" r="0.5"/>
			<circle cx="30.605" cy="-27.772" r="0.5"/>
			<circle cx="31.15" cy="-19.4" r="0.5"/>
			<circle cx="31.275" cy="-45.4" r="0.5"/>
			<circle cx="31.347" cy="-10.777" r="0.5"/>
			<circle cx="31.4" cy="-54.4" r="0.5"/>
			<circle cx="32.007" cy="-30.743" r="0.5"/>
			<circle cx="32.15" cy="-36.9" r="0.5"/>
			<circle cx="32.172" cy="-7.807" r="0.5"/>
			<circle cx="32.42" cy="-42.045" r="0.5"/>
			<circle cx="32.9" cy="-16.9" r="0.5"/>
			<circle cx="32.915" cy="-22.327" r="0.5"/>
			<circle cx="32.997" cy="-13.912" r="0.5"/>
			<circle cx="33.41" cy="-3.105" r="0.5"/>
			<circle cx="33.41" cy="-33.685" r="0.5"/>
			<circle cx="33.463" cy="-51.775" r="0.5"/>
			<circle cx="33.575" cy="-28.02" r="0.5"/>
			<circle cx="33.775" cy="-48.15" r="0.5"/>
			<circle cx="34.152" cy="-19.522" r="0.5"/>
			<circle cx="34.482" cy="-10.035" r="0.5"/>
			<circle cx="34.9" cy="-38.4" r="0.5"/>
			<circle cx="34.963" cy="-44.338" r="0.5"/>
			<circle cx="34.977" cy="-24.472" r="0.5"/>
			<circle cx="34.977" cy="-6.487" r="0.5"/>
			<circle cx="35.06" cy="-30.495" r="0.5"/>
			<circle cx="35.637" cy="-15.81" r="0.5"/>
			<circle cx="36.233" cy="-54.67" r="0.5"/>
			<circle cx="36.627" cy="-20.677" r="0.5"/>
			<circle cx="36.71" cy="-12.097" r="0.5"/>
			<circle cx="36.765" cy="-34.62" r="0.5"/>
			<circle cx="36.9" cy="-4.4" r="0.5"/>
			<circle cx="37.15" cy="-47.713" r="0.5"/>
			<circle cx="37.535" cy="-27.442" r="0.5"/>
			<circle cx="38.085" cy="-42.485" r="0.5"/>
			<circle cx="38.195" cy="-37.975" r="0.5"/>
			<circle cx="38.277" cy="-9.045" r="0.5"/>
			<circle cx="38.442" cy="-13.995" r="0.5"/>
			<circle cx="38.69" cy="-23.647" r="0.5"/>
			<circle cx="38.838" cy="-50.463" r="0.5"/>
			<circle cx="39.15" cy="-53.4" r="0.5"/>
			<circle cx="39.233" cy="-2.733" r="0.5"/>
			<circle cx="39.9" cy="-4.733" r="0.5"/>
			<circle cx="39.9" cy="-45.15" r="0.5"/>
			<circle cx="4.37" cy="-24.638" r="0.5"/>
			<circle cx="4.452" cy="-30.33" r="0.5"/>
			<circle cx="4.535" cy="-35.94" r="0.5"/>
			<circle cx="4.9" cy="-45.463" r="0.5"/>
			<circle cx="40.065" cy="-33.465" r="0.5"/>
			<circle cx="40.175" cy="-11.437" r="0.5"/>
			<circle cx="40.175" cy="-20.347" r="0.5"/>
			<circle cx="41.165" cy="-26.452" r="0.5"/>
			<circle cx="41.165" cy="-39.625" r="0.5"/>
			<circle cx="41.247" cy="-16.635" r="0.5"/>
			<circle cx="41.525" cy="-48.525" r="0.5"/>
			<circle cx="41.825" cy="-29.175" r="0.5"/>
			<circle cx="41.9" cy="-2.4" r="0.5"/>
			<circle cx="42.072" cy="-22.905" r="0.5"/>
			<circle cx="42.213" cy="-51.9" r="0.5"/>
			<circle cx="42.43" cy="-36.215" r="0.5"/>
			<circle cx="42.732" cy="-13.747" r="0.5"/>
			<circle cx="42.815" cy="-7.477" r="0.5"/>
			<circle cx="43.145" cy="-42.65" r="0.5"/>
			<circle cx="43.475" cy="-10.942" r="0.5"/>
			<circle cx="43.722" cy="-19.77" r="0.5"/>
			<circle cx="44.052" cy="-32.145" r="0.5"/>
			<circle cx="44.217" cy="-4.59" r="0.5"/>
			<circle cx="44.795" cy="-16.882" r="0.5"/>
			<circle cx="44.9" cy="-49.775" r="0.5"/>
			<circle cx="45.088" cy="-45.588" r="0.5"/>
			<circle cx="45.213" cy="-53.838" r="0.5"/>
			<circle cx="45.235" cy="-39.515" r="0.5"/>
			<circle cx="45.29" cy="-28.597" r="0.5"/>
			<circle cx="45.372" cy="-25.628" r="0.5"/>
			<circle cx="46.032" cy="-14.242" r="0.5"/>
			<circle cx="46.197" cy="-9.375" r="0.5"/>
			<circle cx="46.567" cy="-3.067" r="0.5"/>
			<circle cx="46.72" cy="-42.375" r="0.5"/>
			<circle cx="47.187" cy="-19.11" r="0.5"/>
			<circle cx="47.588" cy="-51.025" r="0.5"/>
			<circle cx="47.682" cy="-6.075" r="0.5"/>
			<circle cx="47.847" cy="-31.32" r="0.5"/>
			<circle cx="48.4" cy="-48.15" r="0.5"/>
			<circle cx="48.672" cy="-24.472" r="0.5"/>
			<circle cx="48.81" cy="-36.985" r="0.5"/>
			<circle cx="49.025" cy="-54.275" r="0.5"/>
			<circle cx="49.085" cy="-16.14" r="0.5"/>
			<circle cx="49.167" cy="-11.685" r="0.5"/>
			<circle cx="49.25" cy="-27.69" r="0.5"/>
			<circle cx="49.332" cy="-3.27" r="0.5"/>
			<circle cx="49.58" cy="-40.34" r="0.5"/>
			<circle cx="49.745" cy="-33.74" r="0.5"/>
			<circle cx="49.992" cy="-21.173" r="0.5"/>
			<circle cx="5.25" cy="-41.825" r="0.5"/>
			<circle cx="5.525" cy="-17.048" r="0.5"/>
			<circle cx="5.713" cy="-50.025" r="0.5"/>
			<circle cx="5.855" cy="-10.86" r="0.5"/>
			<circle cx="5.855" cy="-13.665" r="0.5"/>
			<circle cx="50.15" cy="-43.9" r="0.5"/>
			<circle cx="50.65" cy="-46.4" r="0.5"/>
			<circle cx="50.817" cy="-8.22" r="0.5"/>
			<circle cx="51.233" cy="-18.9" r="0.5"/>
			<circle cx="51.525" cy="-50.65" r="0.5"/>
			<circle cx="51.642" cy="-13.252" r="0.5"/>
			<circle cx="51.807" cy="-23.812" r="0.5"/>
			<circle cx="51.9" cy="-5.15" r="0.5"/>
			<circle cx="52.4" cy="-32.9" r="0.5"/>
			<circle cx="52.65" cy="-38.65" r="0.5"/>
			<circle cx="53.787" cy="-10.2" r="0.5"/>
			<circle cx="53.9" cy="-26.65" r="0.5"/>
			<circle cx="53.9" cy="-49.15" r="0.5"/>
			<circle cx="54.117" cy="-20.677" r="0.5"/>
			<circle cx="54.338" cy="-53.588" r="0.5"/>
			<circle cx="54.4" cy="-35.15" r="0.5"/>
			<circle cx="54.4" cy="-45.15" r="0.5"/>
			<circle cx="54.447" cy="-2.445" r="0.5"/>
			<circle cx="54.447" cy="-5.91" r="0.5"/>
			<circle cx="54.65" cy="-30.15" r="0.5"/>
			<circle cx="54.9" cy="-23.9" r="0.5"/>
			<circle cx="6.075" cy="-38.415" r="0.5"/>
			<circle cx="6.13" cy="-32.64" r="0.5"/>
			<circle cx="6.35" cy="-26.452" r="0.5"/>
			<circle cx="6.4" cy="-52.4" r="0.5"/>
			<circle cx="6.432" cy="-20.347" r="0.5"/>
			<circle cx="6.432" cy="-3.765" r="0.5"/>
			<circle cx="7.175" cy="-6.322" r="0.5"/>
			<circle cx="7.422" cy="-29.093" r="0.5"/>
			<circle cx="7.567" cy="-55.067" r="0.5"/>
			<circle cx="7.67" cy="-35.28" r="0.5"/>
			<circle cx="7.9" cy="-46.463" r="0.5"/>
			<circle cx="7.945" cy="-40.505" r="0.5"/>
			<circle cx="7.945" cy="-43.585" r="0.5"/>
			<circle cx="8" cy="-23.317" r="0.5"/>
			<circle cx="8.33" cy="-15.315" r="0.5"/>
			<circle cx="8.577" cy="-17.955" r="0.5"/>
			<circle cx="8.66" cy="-9.622" r="0.5"/>
			<circle cx="9.072" cy="-20.925" r="0.5"/>
			<circle cx="9.155" cy="-12.427" r="0.5"/>
			<circle cx="9.375" cy="-32.42" r="0.5"/>
			<circle cx="9.65" cy="-2.94" r="0.5"/>
			<circle cx="9.65" cy="-52.15" r="0.5"/>
			<circle cx="9.732" cy="-26.288" r="0.5"/>
			<path style="fill:none;" d="M11.525-29.212c0.062,1.688-1.75,1.625-1.812,0.312    S11.275-30.212,11.525-29.212z"/>
			<path style="fill:none;" d="M12.025-17.587c0,1.125-1.875,1.625-1.938,0.125    S11.9-18.9,12.025-17.587z"/>
			<path style="fill:none;" d="M14.025-49.275c1.188,0.062,1.25,1.5,0.125,1.562    S12.837-49.213,14.025-49.275z"/>
			<path style="fill:none;" d="M14.212-6.025c1.125,0,1.5,1.688,0.125,1.812    S12.587-5.9,14.212-6.025z"/>
			<path style="fill:none;" d="M18.837-40.713c1.062-0.062,1.312,1.5,0.062,1.562    S17.962-40.65,18.837-40.713z"/>
			<path style="fill:none;" d="M21.087-30.15c0,1.312-1.812,1.375-1.812,0.062    S21.025-31.587,21.087-30.15z"/>
			<path style="fill:none;" d="M21.337-11.275c1.188-0.062,1.25,1.562,0.125,1.625    S19.66-11.113,21.337-11.275z"/>
			<path style="fill:none;" d="M21.65-21.025c1.062,0.062,1.375,1.688,0.062,1.75    S20.587-20.962,21.65-21.025z"/>
			<path style="fill:none;" d="M22.15-54.65c1.312,0,1.562,1.562,0.188,1.625    S21.087-54.588,22.15-54.65z"/>
			<path style="fill:none;" d="M28.275-46.025c1-0.062,1.438,1.375,0.188,1.5    S27.087-45.9,28.275-46.025z"/>
			<path style="fill:none;" d="M3.963-23.275c1.125,0,1.375,2,0.062,2S2.338-23.087,3.963-23.275z"/>
			<path style="fill:none;" d="M30.025-35.088c0,1.312-1.812,1.25-1.938,0.062    S29.9-36.338,30.025-35.088z"/>
			<path style="fill:none;" d="M30.712-15.212c0.875,0,1.625,1.812,0.062,1.75    C29.212-13.525,29.275-15.275,30.712-15.212z"/>
			<path style="fill:none;" d="M31.025-25.837c1.188,0,1.563,1.5,0.188,1.625    C29.837-24.087,29.962-25.775,31.025-25.837z"/>
			<path style="fill:none;" d="M31.712-5.338c0,1.188-1.875,1.312-1.875,0.125    S31.65-6.525,31.712-5.338z"/>
			<path style="fill:none;" d="M35.65-52.838c1.312-0.062,1.375,1.625,0.125,1.625    S34.525-52.713,35.65-52.838z"/>
			<path style="fill:none;" d="M35.963-41.963c0.812-0.062,1.562,1.438,0.125,1.562    S34.838-41.838,35.963-41.963z"/>
			<path style="fill:none;" d="M38.088-31.587c1.188,0,1.312,1.5,0.125,1.625    S36.713-31.525,38.088-31.587z"/>
			<path style="fill:none;" d="M38.525-18.4c1.312-0.062,1.25,1.438,0.188,1.5    S37.15-18.275,38.525-18.4z"/>
			<path style="fill:none;" d="M4.588-48.213c1,0.062,1.5,1.188,0.188,1.438    S3.275-48.088,4.588-48.213z"/>
			<path style="fill:none;" d="M40.525-7.588c0,1.25-1.75,1.25-1.875,0.125    S40.338-9.025,40.525-7.588z"/>
			<path style="fill:none;" d="M43.713-47.963c1.312-0.062,1.625,1.562,0.312,1.625    S42.713-47.9,43.713-47.963z"/>
			<path style="fill:none;" d="M46.9-22.4c0,1.125-1.938,1.125-1.938,0.062S46.838-23.775,46.9-22.4    z"/>
			<path style="fill:none;" d="M47.275-35.4c0,1.25-1.75,1.375-1.875,0.125    S47.15-36.713,47.275-35.4z"/>
			<path style="fill:none;" d="M49.15-10.337c1.188-0.062,1.438,1.625,0.25,1.75    S47.713-10.212,49.15-10.337z"/>
			<path style="fill:none;" d="M51.213-52.963c-1.116,0.154-1.188-1.375-0.312-1.5    S53.025-53.213,51.213-52.963z"/>
			<path style="fill:none;" d="M51.9-30.15c1.188-0.062,1.312,1.438,0.188,1.5    S50.65-29.9,51.9-30.15z"/>
			<path style="fill:none;" d="M52.9-42.65c1.125-0.062,1.625,1.5,0.188,1.5    S51.838-42.525,52.9-42.65z"/>
			<path style="fill:none;" d="M54.775-15.525c0,1.312-1.875,1.188-1.938,0.125    S54.588-16.775,54.775-15.525z"/>
			<path style="fill:none;" d="M6.025-8.087C6.088-6.963,3.9-6.65,3.838-7.963    S5.9-9.587,6.025-8.087z"/>
			<path style="fill:none;" d="M9.025-39.775c1.25,0,1.625,1.375,0.125,1.562    S7.65-39.713,9.025-39.775z"/>
		</g>
	</g>
</svg>
