<?xml version="1.0" encoding="utf-8"?>
<svg xmlns="http://www.w3.org/2000/svg" version="1.1" x="0px" y="0px" xml:space="preserve" width="85.039" height="85.039" viewBox="2.048 -87.025 85.039 85.039">
	<metadata id="metadata2">
	<rdf:RDF
		xmlns:dc="http://purl.org/dc/elements/1.1/"
		xmlns:cc="http://creativecommons.org/ns#"
		xmlns:rdf="http://www.w3.org/1999/02/22-rdf-syntax-ns#"
		xmlns="http://my.netscape.com/rdf/simple/0.9/">
		<item rdf:ID="biblio1">
			<link>rdf:resource="http://pubs.usgs.gov/tm/2006/11A02/</link>
			<title>U.S. Geological Survey, 2006, FGDC Digital Cartographic Standard for Geologic Map Symbolization (PostScript Implementation): U.S. Geological Survey Techniques and Methods 11-A2</title>
		</item>
		<item rdf:ID="biblio2">
			<link>https://davenquinn.com/projects/geologic-patterns/</link>
			<title>FGDC Geologic Patterns for the Web</title>
		</item>
		<rdf:Description>
			<dc:description>Converted from 'FGDC Geologic Patterns for the Web' to QGIS compatible svg symbols, with customisable fill colour/stroke colour/stroke width (when appropriate)</dc:description>
			<dc:date>01 MARCH 2019</dc:date>
			<dc:creator>GeoProc.com</dc:creator>
			<dc:publisher rdf:resource="https://github.com/BC-Consulting/QGIS-FGDC-Fill" />
		</rdf:Description>
		<cc:Work rdf:about="">
			<dc:format>image/svg+xml</dc:format>
			<dc:type rdf:resource="http://purl.org/dc/dcmitype/StillImage" />
			<dc:title>FGDC fill symbol: Lithology - Sedimentary - 603 Crossbedded Gravel Or Conglomerate</dc:title>
		</cc:Work>
	</rdf:RDF>
	</metadata>
	<g>
		<rect x="2.048" y="-87.025" style="fill:none;stroke:none;" width="85.039" height="85.039"/>
        <g fill="param(outline) #000" stroke="param(outline) #000" stroke-width="param(outline-width) 0.3" style="stroke-linecap:round;">
			<circle cx="10.087" cy="-82.963" r="0.3"/>
			<circle cx="10.15" cy="-70.775" r="0.3"/>
			<circle cx="10.212" cy="-15.15" r="0.3"/>
			<circle cx="10.4" cy="-85.588" r="0.3"/>
			<circle cx="10.525" cy="-51.275" r="0.3"/>
			<circle cx="10.587" cy="-8.962" r="0.3"/>
			<circle cx="10.65" cy="-77.4" r="0.3"/>
			<circle cx="10.712" cy="-13.587" r="0.3"/>
			<circle cx="11.15" cy="-72.025" r="0.3"/>
			<circle cx="11.212" cy="-11.712" r="0.3"/>
			<circle cx="11.212" cy="-29.837" r="0.3"/>
			<circle cx="11.4" cy="-55.275" r="0.3"/>
			<circle cx="11.65" cy="-34.963" r="0.3"/>
			<circle cx="11.837" cy="-49.088" r="0.3"/>
			<circle cx="11.962" cy="-47.65" r="0.3"/>
			<circle cx="12.025" cy="-64.463" r="0.3"/>
			<circle cx="12.15" cy="-6.65" r="0.3"/>
			<circle cx="12.212" cy="-3.838" r="0.3"/>
			<circle cx="12.337" cy="-41.963" r="0.3"/>
			<circle cx="12.4" cy="-20.15" r="0.3"/>
			<circle cx="12.462" cy="-50.65" r="0.3"/>
			<circle cx="12.462" cy="-8.4" r="0.3"/>
			<circle cx="12.525" cy="-17.587" r="0.3"/>
			<circle cx="12.65" cy="-77.963" r="0.3"/>
			<circle cx="12.712" cy="-13.712" r="0.3"/>
			<circle cx="12.837" cy="-83.838" r="0.3"/>
			<circle cx="12.9" cy="-22.962" r="0.3"/>
			<circle cx="12.962" cy="-60.713" r="0.3"/>
			<circle cx="13.025" cy="-71.4" r="0.3"/>
			<circle cx="13.212" cy="-15.462" r="0.3"/>
			<circle cx="13.212" cy="-29.212" r="0.3"/>
			<circle cx="13.275" cy="-68.463" r="0.3"/>
			<circle cx="13.4" cy="-55.213" r="0.3"/>
			<circle cx="13.587" cy="-73.338" r="0.3"/>
			<circle cx="13.712" cy="-52.525" r="0.3"/>
			<circle cx="13.775" cy="-35.275" r="0.3"/>
			<circle cx="13.837" cy="-31.65" r="0.3"/>
			<circle cx="14.087" cy="-76.15" r="0.3"/>
			<circle cx="14.337" cy="-7.713" r="0.3"/>
			<circle cx="14.462" cy="-49.963" r="0.3"/>
			<circle cx="14.462" cy="-78.463" r="0.3"/>
			<circle cx="14.587" cy="-13.962" r="0.3"/>
			<circle cx="14.837" cy="-48.65" r="0.3"/>
			<circle cx="14.837" cy="-58.15" r="0.3"/>
			<circle cx="14.9" cy="-64.9" r="0.3"/>
			<circle cx="14.9" cy="-81.525" r="0.3"/>
			<circle cx="14.962" cy="-47.213" r="0.3"/>
			<circle cx="14.962" cy="-84.588" r="0.3"/>
			<circle cx="15.025" cy="-70.775" r="0.3"/>
			<circle cx="15.087" cy="-28.587" r="0.3"/>
			<circle cx="15.087" cy="-44.713" r="0.3"/>
			<circle cx="15.15" cy="-4.463" r="0.3"/>
			<circle cx="15.275" cy="-20.712" r="0.3"/>
			<circle cx="15.337" cy="-55.275" r="0.3"/>
			<circle cx="15.4" cy="-38.275" r="0.3"/>
			<circle cx="15.4" cy="-41.963" r="0.3"/>
			<circle cx="15.65" cy="-35.525" r="0.3"/>
			<circle cx="15.712" cy="-26.15" r="0.3"/>
			<circle cx="15.712" cy="-68.9" r="0.3"/>
			<circle cx="15.9" cy="-23.587" r="0.3"/>
			<circle cx="16.212" cy="-15.712" r="0.3"/>
			<circle cx="16.212" cy="-7.088" r="0.3"/>
			<circle cx="16.337" cy="-49.4" r="0.3"/>
			<circle cx="16.337" cy="-79.025" r="0.3"/>
			<circle cx="16.4" cy="-2.463" r="0.3"/>
			<circle cx="16.65" cy="-14.087" r="0.3"/>
			<circle cx="16.65" cy="-74.65" r="0.3"/>
			<circle cx="16.775" cy="-9.525" r="0.3"/>
			<circle cx="16.837" cy="-28.087" r="0.3"/>
			<circle cx="16.837" cy="-61.025" r="0.3"/>
			<circle cx="16.962" cy="-70.275" r="0.3"/>
			<circle cx="17.275" cy="-55.338" r="0.3"/>
			<circle cx="17.4" cy="-85.4" r="0.3"/>
			<circle cx="17.587" cy="-65.338" r="0.3"/>
			<circle cx="17.65" cy="-35.838" r="0.3"/>
			<circle cx="17.775" cy="-5.088" r="0.3"/>
			<circle cx="17.9" cy="-46.963" r="0.3"/>
			<circle cx="18.15" cy="-6.525" r="0.3"/>
			<circle cx="18.15" cy="-77.963" r="0.3"/>
			<circle cx="18.212" cy="-48.838" r="0.3"/>
			<circle cx="18.212" cy="-79.775" r="0.3"/>
			<circle cx="18.275" cy="-21.462" r="0.3"/>
			<circle cx="18.337" cy="-18.712" r="0.3"/>
			<circle cx="18.4" cy="-12.087" r="0.3"/>
			<circle cx="18.4" cy="-42.025" r="0.3"/>
			<circle cx="18.65" cy="-14.337" r="0.3"/>
			<circle cx="18.775" cy="-24.15" r="0.3"/>
			<circle cx="18.9" cy="-27.587" r="0.3"/>
			<circle cx="18.9" cy="-69.838" r="0.3"/>
			<circle cx="19.004" cy="-33.858" r="0.3"/>
			<circle cx="19.025" cy="-16.025" r="0.3"/>
			<circle cx="19.15" cy="-71.275" r="0.3"/>
			<circle cx="19.337" cy="-55.525" r="0.3"/>
			<circle cx="19.462" cy="-73.65" r="0.3"/>
			<circle cx="19.462" cy="-86.338" r="0.3"/>
			<circle cx="19.587" cy="-36.025" r="0.3"/>
			<circle cx="19.712" cy="-29.525" r="0.3"/>
			<circle cx="19.837" cy="-65.838" r="0.3"/>
			<circle cx="2.4" cy="-34.275" r="0.3"/>
			<circle cx="2.775" cy="-58.65" r="0.3"/>
			<circle cx="2.775" cy="-76.588" r="0.3"/>
			<circle cx="2.838" cy="-13.15" r="0.3"/>
			<circle cx="20.025" cy="-51.025" r="0.3"/>
			<circle cx="20.087" cy="-48.338" r="0.3"/>
			<circle cx="20.087" cy="-6.025" r="0.3"/>
			<circle cx="20.087" cy="-80.463" r="0.3"/>
			<circle cx="20.462" cy="-53.963" r="0.3"/>
			<circle cx="20.462" cy="-61.713" r="0.3"/>
			<circle cx="20.587" cy="-83.4" r="0.3"/>
			<circle cx="20.65" cy="-14.462" r="0.3"/>
			<circle cx="20.712" cy="-58.838" r="0.3"/>
			<circle cx="20.775" cy="-27.087" r="0.3"/>
			<circle cx="20.837" cy="-69.338" r="0.3"/>
			<circle cx="20.837" cy="-76.588" r="0.3"/>
			<circle cx="20.9" cy="-46.65" r="0.3"/>
			<circle cx="21.087" cy="-22.15" r="0.3"/>
			<circle cx="21.15" cy="-11.087" r="0.3"/>
			<circle cx="21.15" cy="-44.525" r="0.3"/>
			<circle cx="21.275" cy="-38.588" r="0.3"/>
			<circle cx="21.337" cy="-42.15" r="0.3"/>
			<circle cx="21.337" cy="-55.838" r="0.3"/>
			<circle cx="21.525" cy="-36.275" r="0.3"/>
			<circle cx="21.587" cy="-2.4" r="0.3"/>
			<circle cx="21.775" cy="-24.712" r="0.3"/>
			<circle cx="21.9" cy="-66.338" r="0.3"/>
			<circle cx="21.962" cy="-81.338" r="0.3"/>
			<circle cx="22.15" cy="-16.462" r="0.3"/>
			<circle cx="22.15" cy="-47.775" r="0.3"/>
			<circle cx="22.15" cy="-5.588" r="0.3"/>
			<circle cx="22.275" cy="-72.65" r="0.3"/>
			<circle cx="22.4" cy="-79.463" r="0.3"/>
			<circle cx="22.525" cy="-7.775" r="0.3"/>
			<circle cx="22.587" cy="-28.65" r="0.3"/>
			<circle cx="22.65" cy="-14.775" r="0.3"/>
			<circle cx="22.712" cy="-26.587" r="0.3"/>
			<circle cx="22.712" cy="-68.838" r="0.3"/>
			<circle cx="22.837" cy="-32.858" r="0.3"/>
			<circle cx="23.212" cy="-56.338" r="0.3"/>
			<circle cx="23.337" cy="-62.275" r="0.3"/>
			<circle cx="23.462" cy="-36.588" r="0.3"/>
			<circle cx="23.525" cy="-75.65" r="0.3"/>
			<circle cx="23.775" cy="-82.088" r="0.3"/>
			<circle cx="23.837" cy="-22.775" r="0.3"/>
			<circle cx="23.871" cy="-52.775" r="0.3"/>
			<circle cx="23.9" cy="-3.4" r="0.3"/>
			<circle cx="23.9" cy="-5.213" r="0.3"/>
			<circle cx="23.962" cy="-66.9" r="0.3"/>
			<circle cx="24.025" cy="-10.212" r="0.3"/>
			<circle cx="24.212" cy="-47.4" r="0.3"/>
			<circle cx="24.337" cy="-42.275" r="0.3"/>
			<circle cx="24.525" cy="-15.025" r="0.3"/>
			<circle cx="24.525" cy="-19.775" r="0.3"/>
			<circle cx="24.65" cy="-26.212" r="0.3"/>
			<circle cx="24.65" cy="-68.463" r="0.3"/>
			<circle cx="24.9" cy="-78.775" r="0.3"/>
			<circle cx="24.962" cy="-69.963" r="0.3"/>
			<circle cx="25.087" cy="-17.025" r="0.3"/>
			<circle cx="25.087" cy="-56.775" r="0.3"/>
			<circle cx="25.275" cy="-72.088" r="0.3"/>
			<circle cx="25.462" cy="-36.838" r="0.3"/>
			<circle cx="25.525" cy="-83.088" r="0.3"/>
			<circle cx="25.837" cy="-32.025" r="0.3"/>
			<circle cx="25.837" cy="-4.838" r="0.3"/>
			<circle cx="25.837" cy="-49.463" r="0.3"/>
			<circle cx="25.9" cy="-12.775" r="0.3"/>
			<circle cx="26.025" cy="-46.963" r="0.3"/>
			<circle cx="26.087" cy="-62.9" r="0.3"/>
			<circle cx="26.15" cy="-85.588" r="0.3"/>
			<circle cx="26.337" cy="-23.337" r="0.3"/>
			<circle cx="26.337" cy="-74.963" r="0.3"/>
			<circle cx="26.462" cy="-15.275" r="0.3"/>
			<circle cx="26.525" cy="-68.025" r="0.3"/>
			<circle cx="26.65" cy="-25.9" r="0.3"/>
			<circle cx="26.65" cy="-59.713" r="0.3"/>
			<circle cx="26.837" cy="-42.525" r="0.3"/>
			<circle cx="26.837" cy="-9.15" r="0.3"/>
			<circle cx="27.025" cy="-44.525" r="0.3"/>
			<circle cx="27.087" cy="-57.338" r="0.3"/>
			<circle cx="27.212" cy="-39.213" r="0.3"/>
			<circle cx="27.212" cy="-51.838" r="0.3"/>
			<circle cx="27.275" cy="-83.963" r="0.3"/>
			<circle cx="27.462" cy="-37.15" r="0.3"/>
			<circle cx="27.462" cy="-55.463" r="0.3"/>
			<circle cx="27.9" cy="-46.713" r="0.3"/>
			<circle cx="27.962" cy="-17.4" r="0.3"/>
			<circle cx="27.962" cy="-4.4" r="0.3"/>
			<circle cx="28.15" cy="-71.588" r="0.3"/>
			<circle cx="28.275" cy="-6.338" r="0.3"/>
			<circle cx="28.462" cy="-15.587" r="0.3"/>
			<circle cx="28.462" cy="-35.338" r="0.3"/>
			<circle cx="28.462" cy="-81.65" r="0.3"/>
			<circle cx="28.525" cy="-25.587" r="0.3"/>
			<circle cx="28.525" cy="-67.65" r="0.3"/>
			<circle cx="28.65" cy="-63.588" r="0.3"/>
			<circle cx="28.712" cy="-11.837" r="0.3"/>
			<circle cx="28.775" cy="-2.65" r="0.3"/>
			<circle cx="28.775" cy="-23.9" r="0.3"/>
			<circle cx="28.804" cy="-27.684" r="0.3"/>
			<circle cx="28.962" cy="-58.088" r="0.3"/>
			<circle cx="28.962" cy="-85.025" r="0.3"/>
			<circle cx="29.337" cy="-31.192" r="0.3"/>
			<circle cx="29.337" cy="-42.692" r="0.3"/>
			<circle cx="29.4" cy="-37.463" r="0.3"/>
			<circle cx="29.712" cy="-74.338" r="0.3"/>
			<circle cx="29.775" cy="-8.4" r="0.3"/>
			<circle cx="29.9" cy="-4.025" r="0.3"/>
			<circle cx="29.9" cy="-46.4" r="0.3"/>
			<circle cx="3.025" cy="-5.65" r="0.3"/>
			<circle cx="3.15" cy="-49.213" r="0.3"/>
			<circle cx="3.213" cy="-51.525" r="0.3"/>
			<circle cx="3.275" cy="-45.525" r="0.3"/>
			<circle cx="3.275" cy="-60.963" r="0.3"/>
			<circle cx="3.275" cy="-72.713" r="0.3"/>
			<circle cx="3.338" cy="-2.775" r="0.3"/>
			<circle cx="3.338" cy="-38.025" r="0.3"/>
			<circle cx="3.338" cy="-63.963" r="0.3"/>
			<circle cx="3.338" cy="-70.025" r="0.3"/>
			<circle cx="3.4" cy="-29.712" r="0.3"/>
			<circle cx="3.4" cy="-42.088" r="0.3"/>
			<circle cx="3.463" cy="-18.65" r="0.3"/>
			<circle cx="3.463" cy="-54.525" r="0.3"/>
			<circle cx="3.713" cy="-78.9" r="0.3"/>
			<circle cx="3.838" cy="-84.692" r="0.3"/>
			<circle cx="3.963" cy="-27.025" r="0.3"/>
			<circle cx="30.337" cy="-15.9" r="0.3"/>
			<circle cx="30.4" cy="-77.588" r="0.3"/>
			<circle cx="30.462" cy="-25.275" r="0.3"/>
			<circle cx="30.587" cy="-50.963" r="0.3"/>
			<circle cx="30.587" cy="-67.192" r="0.3"/>
			<circle cx="30.65" cy="-86.088" r="0.3"/>
			<circle cx="30.712" cy="-58.838" r="0.3"/>
			<circle cx="30.756" cy="-20.834" r="0.3"/>
			<circle cx="30.9" cy="-17.962" r="0.3"/>
			<circle cx="30.9" cy="-64.338" r="0.3"/>
			<circle cx="30.9" cy="-69.088" r="0.3"/>
			<circle cx="31.087" cy="-71.213" r="0.3"/>
			<circle cx="31.337" cy="-37.775" r="0.3"/>
			<circle cx="31.462" cy="-80.838" r="0.3"/>
			<circle cx="31.587" cy="-27.275" r="0.3"/>
			<circle cx="31.587" cy="-42.942" r="0.3"/>
			<circle cx="31.65" cy="-10.9" r="0.3"/>
			<circle cx="31.65" cy="-56.775" r="0.3"/>
			<circle cx="31.837" cy="-3.713" r="0.3"/>
			<circle cx="31.837" cy="-46.088" r="0.3"/>
			<circle cx="31.837" cy="-48.463" r="0.3"/>
			<circle cx="32.213" cy="-61.713" r="0.3"/>
			<circle cx="32.213" cy="-84.525" r="0.3"/>
			<circle cx="32.4" cy="-16.275" r="0.3"/>
			<circle cx="32.504" cy="-25.108" r="0.3"/>
			<circle cx="32.588" cy="-59.65" r="0.3"/>
			<circle cx="32.588" cy="-66.858" r="0.3"/>
			<circle cx="32.65" cy="-7.775" r="0.3"/>
			<circle cx="32.838" cy="-30.692" r="0.3"/>
			<circle cx="32.9" cy="-65.025" r="0.3"/>
			<circle cx="32.9" cy="-74.025" r="0.3"/>
			<circle cx="33.088" cy="-77.213" r="0.3"/>
			<circle cx="33.15" cy="-40.15" r="0.3"/>
			<circle cx="33.275" cy="-38.088" r="0.3"/>
			<circle cx="33.338" cy="-54.088" r="0.3"/>
			<circle cx="33.775" cy="-45.775" r="0.3"/>
			<circle cx="33.838" cy="-18.65" r="0.3"/>
			<circle cx="33.838" cy="-3.338" r="0.3"/>
			<circle cx="34.088" cy="-50.338" r="0.3"/>
			<circle cx="34.088" cy="-80.275" r="0.3"/>
			<circle cx="34.088" cy="-83.588" r="0.3"/>
			<circle cx="34.15" cy="-5.338" r="0.3"/>
			<circle cx="34.15" cy="-70.9" r="0.3"/>
			<circle cx="34.171" cy="-43.192" r="0.3"/>
			<circle cx="34.275" cy="-33.963" r="0.3"/>
			<circle cx="34.338" cy="-60.713" r="0.3"/>
			<circle cx="34.4" cy="-16.525" r="0.3"/>
			<circle cx="34.504" cy="-24.942" r="0.3"/>
			<circle cx="34.525" cy="-10.275" r="0.3"/>
			<circle cx="34.754" cy="-66.608" r="0.3"/>
			<circle cx="35.338" cy="-38.463" r="0.3"/>
			<circle cx="35.525" cy="-56.15" r="0.3"/>
			<circle cx="35.65" cy="-7.275" r="0.3"/>
			<circle cx="35.713" cy="-13.15" r="0.3"/>
			<circle cx="35.775" cy="-82.963" r="0.3"/>
			<circle cx="35.838" cy="-3.088" r="0.3"/>
			<circle cx="35.838" cy="-45.463" r="0.3"/>
			<circle cx="36.088" cy="-61.65" r="0.3"/>
			<circle cx="36.15" cy="-59.088" r="0.3"/>
			<circle cx="36.213" cy="-16.962" r="0.3"/>
			<circle cx="36.213" cy="-36.775" r="0.3"/>
			<circle cx="36.213" cy="-43.4" r="0.3"/>
			<circle cx="36.275" cy="-15.212" r="0.3"/>
			<circle cx="36.338" cy="-73.838" r="0.3"/>
			<circle cx="36.656" cy="-21.98" r="0.3"/>
			<circle cx="36.671" cy="-30.192" r="0.3"/>
			<circle cx="36.713" cy="-86.025" r="0.3"/>
			<circle cx="36.754" cy="-24.775" r="0.3"/>
			<circle cx="36.775" cy="-19.337" r="0.3"/>
			<circle cx="36.775" cy="-79.775" r="0.3"/>
			<circle cx="36.838" cy="-26.525" r="0.3"/>
			<circle cx="36.838" cy="-68.65" r="0.3"/>
			<circle cx="36.921" cy="-66.442" r="0.3"/>
			<circle cx="37.15" cy="-38.963" r="0.3"/>
			<circle cx="37.275" cy="-50.088" r="0.3"/>
			<circle cx="37.338" cy="-70.65" r="0.3"/>
			<circle cx="37.4" cy="-9.65" r="0.3"/>
			<circle cx="37.588" cy="-63.838" r="0.3"/>
			<circle cx="37.588" cy="-82.088" r="0.3"/>
			<circle cx="37.65" cy="-47.775" r="0.3"/>
			<circle cx="37.775" cy="-45.338" r="0.3"/>
			<circle cx="37.838" cy="-2.9" r="0.3"/>
			<circle cx="38.275" cy="-17.275" r="0.3"/>
			<circle cx="38.275" cy="-77.088" r="0.3"/>
			<circle cx="38.588" cy="-6.838" r="0.3"/>
			<circle cx="39.025" cy="-41.025" r="0.3"/>
			<circle cx="39.025" cy="-84.213" r="0.3"/>
			<circle cx="39.088" cy="-39.275" r="0.3"/>
			<circle cx="39.15" cy="-43.713" r="0.3"/>
			<circle cx="39.171" cy="-66.442" r="0.3"/>
			<circle cx="39.213" cy="-55.9" r="0.3"/>
			<circle cx="39.254" cy="-24.442" r="0.3"/>
			<circle cx="39.275" cy="-62.838" r="0.3"/>
			<circle cx="39.338" cy="-36.025" r="0.3"/>
			<circle cx="39.338" cy="-79.463" r="0.3"/>
			<circle cx="39.525" cy="-20.025" r="0.3"/>
			<circle cx="39.525" cy="-58.838" r="0.3"/>
			<circle cx="39.525" cy="-81.338" r="0.3"/>
			<circle cx="39.713" cy="-45.088" r="0.3"/>
			<circle cx="39.775" cy="-2.838" r="0.3"/>
			<circle cx="39.838" cy="-14.15" r="0.3"/>
			<circle cx="39.963" cy="-30.087" r="0.3"/>
			<circle cx="39.963" cy="-74.025" r="0.3"/>
			<circle cx="4.025" cy="-21.712" r="0.3"/>
			<circle cx="4.025" cy="-23.962" r="0.3"/>
			<circle cx="4.025" cy="-33.025" r="0.3"/>
			<circle cx="4.025" cy="-34.338" r="0.3"/>
			<circle cx="4.025" cy="-75.338" r="0.3"/>
			<circle cx="4.025" cy="-8.837" r="0.3"/>
			<circle cx="4.213" cy="-82.025" r="0.3"/>
			<circle cx="4.713" cy="-76.65" r="0.3"/>
			<circle cx="4.875" cy="-13.275" r="0.3"/>
			<circle cx="4.963" cy="-11.337" r="0.3"/>
			<circle cx="40.15" cy="-32.963" r="0.3"/>
			<circle cx="40.213" cy="-17.775" r="0.3"/>
			<circle cx="40.213" cy="-4.838" r="0.3"/>
			<circle cx="40.213" cy="-49.9" r="0.3"/>
			<circle cx="40.338" cy="-70.588" r="0.3"/>
			<circle cx="40.338" cy="-9.212" r="0.3"/>
			<circle cx="40.463" cy="-53.338" r="0.3"/>
			<circle cx="40.463" cy="-64.775" r="0.3"/>
			<circle cx="40.775" cy="-77.088" r="0.3"/>
			<circle cx="41.025" cy="-62.025" r="0.3"/>
			<circle cx="41.088" cy="-39.713" r="0.3"/>
			<circle cx="41.4" cy="-82.338" r="0.3"/>
			<circle cx="41.463" cy="-80.713" r="0.3"/>
			<circle cx="41.588" cy="-11.9" r="0.3"/>
			<circle cx="41.588" cy="-24.192" r="0.3"/>
			<circle cx="41.588" cy="-6.463" r="0.3"/>
			<circle cx="41.713" cy="-44.963" r="0.3"/>
			<circle cx="41.775" cy="-2.775" r="0.3"/>
			<circle cx="41.838" cy="-66.358" r="0.3"/>
			<circle cx="41.963" cy="-79.275" r="0.3"/>
			<circle cx="42.15" cy="-35.525" r="0.3"/>
			<circle cx="42.213" cy="-18.087" r="0.3"/>
			<circle cx="42.4" cy="-20.712" r="0.3"/>
			<circle cx="42.463" cy="-55.9" r="0.3"/>
			<circle cx="42.525" cy="-58.775" r="0.3"/>
			<circle cx="42.588" cy="-26.15" r="0.3"/>
			<circle cx="42.775" cy="-68.463" r="0.3"/>
			<circle cx="42.9" cy="-61.213" r="0.3"/>
			<circle cx="42.9" cy="-63.15" r="0.3"/>
			<circle cx="42.963" cy="-29.9" r="0.3"/>
			<circle cx="43.025" cy="-14.337" r="0.3"/>
			<circle cx="43.025" cy="-40.213" r="0.3"/>
			<circle cx="43.025" cy="-49.838" r="0.3"/>
			<circle cx="43.088" cy="-70.713" r="0.3"/>
			<circle cx="43.213" cy="-74.4" r="0.3"/>
			<circle cx="43.338" cy="-8.775" r="0.3"/>
			<circle cx="43.338" cy="-80.088" r="0.3"/>
			<circle cx="43.4" cy="-38.588" r="0.3"/>
			<circle cx="43.463" cy="-86.15" r="0.3"/>
			<circle cx="43.588" cy="-47.4" r="0.3"/>
			<circle cx="43.65" cy="-2.588" r="0.3"/>
			<circle cx="43.775" cy="-44.838" r="0.3"/>
			<circle cx="44.088" cy="-18.462" r="0.3"/>
			<circle cx="44.088" cy="-24.025" r="0.3"/>
			<circle cx="44.237" cy="-66.213" r="0.3"/>
			<circle cx="44.463" cy="-6.275" r="0.3"/>
			<circle cx="44.775" cy="-60.525" r="0.3"/>
			<circle cx="44.838" cy="-21.525" r="0.3"/>
			<circle cx="44.838" cy="-42.4" r="0.3"/>
			<circle cx="44.9" cy="-40.65" r="0.3"/>
			<circle cx="45.088" cy="-35.15" r="0.3"/>
			<circle cx="45.213" cy="-58.9" r="0.3"/>
			<circle cx="45.213" cy="-79.525" r="0.3"/>
			<circle cx="45.463" cy="-61.838" r="0.3"/>
			<circle cx="45.525" cy="-84.088" r="0.3"/>
			<circle cx="45.588" cy="-77.463" r="0.3"/>
			<circle cx="45.838" cy="-29.9" r="0.3"/>
			<circle cx="45.838" cy="-56.15" r="0.3"/>
			<circle cx="45.9" cy="-2.65" r="0.3"/>
			<circle cx="45.963" cy="-70.775" r="0.3"/>
			<circle cx="46.022" cy="-49.951" r="0.3"/>
			<circle cx="46.025" cy="-14.15" r="0.3"/>
			<circle cx="46.025" cy="-18.837" r="0.3"/>
			<circle cx="46.025" cy="-32.4" r="0.3"/>
			<circle cx="46.15" cy="-4.713" r="0.3"/>
			<circle cx="46.213" cy="-53.775" r="0.3"/>
			<circle cx="46.338" cy="-23.942" r="0.3"/>
			<circle cx="46.338" cy="-8.712" r="0.3"/>
			<circle cx="46.4" cy="-74.838" r="0.3"/>
			<circle cx="46.463" cy="-37.775" r="0.3"/>
			<circle cx="46.525" cy="-44.838" r="0.3"/>
			<circle cx="46.525" cy="-66.213" r="0.3"/>
			<circle cx="46.713" cy="-59.963" r="0.3"/>
			<circle cx="46.838" cy="-41.15" r="0.3"/>
			<circle cx="47.088" cy="-22.4" r="0.3"/>
			<circle cx="47.213" cy="-79.025" r="0.3"/>
			<circle cx="47.338" cy="-11.4" r="0.3"/>
			<circle cx="47.463" cy="-6.275" r="0.3"/>
			<circle cx="47.838" cy="-2.65" r="0.3"/>
			<circle cx="47.9" cy="-19.4" r="0.3"/>
			<circle cx="48.025" cy="-34.838" r="0.3"/>
			<circle cx="48.025" cy="-82.213" r="0.3"/>
			<circle cx="48.275" cy="-26.525" r="0.3"/>
			<circle cx="48.275" cy="-56.525" r="0.3"/>
			<circle cx="48.4" cy="-66.275" r="0.3"/>
			<circle cx="48.525" cy="-17.025" r="0.3"/>
			<circle cx="48.525" cy="-53.963" r="0.3"/>
			<circle cx="48.65" cy="-59.275" r="0.3"/>
			<circle cx="48.65" cy="-63.963" r="0.3"/>
			<circle cx="48.713" cy="-24.025" r="0.3"/>
			<circle cx="48.713" cy="-44.963" r="0.3"/>
			<circle cx="48.713" cy="-68.65" r="0.3"/>
			<circle cx="48.775" cy="-41.588" r="0.3"/>
			<circle cx="48.775" cy="-50.088" r="0.3"/>
			<circle cx="48.838" cy="-14.212" r="0.3"/>
			<circle cx="48.9" cy="-29.962" r="0.3"/>
			<circle cx="48.963" cy="-71.15" r="0.3"/>
			<circle cx="49.025" cy="-75.275" r="0.3"/>
			<circle cx="49.088" cy="-39.65" r="0.3"/>
			<circle cx="49.088" cy="-78.588" r="0.3"/>
			<circle cx="49.338" cy="-8.65" r="0.3"/>
			<circle cx="49.525" cy="-47.463" r="0.3"/>
			<circle cx="49.838" cy="-19.837" r="0.3"/>
			<circle cx="49.838" cy="-37.088" r="0.3"/>
			<circle cx="49.9" cy="-2.775" r="0.3"/>
			<circle cx="5.15" cy="-53.588" r="0.3"/>
			<circle cx="5.588" cy="-70.15" r="0.3"/>
			<circle cx="5.65" cy="-32.213" r="0.3"/>
			<circle cx="5.713" cy="-34.463" r="0.3"/>
			<circle cx="5.713" cy="-74.463" r="0.3"/>
			<circle cx="5.9" cy="-63.9" r="0.3"/>
			<circle cx="5.963" cy="-72.775" r="0.3"/>
			<circle cx="50.338" cy="-16.212" r="0.3"/>
			<circle cx="50.338" cy="-80.525" r="0.3"/>
			<circle cx="50.525" cy="-6.4" r="0.3"/>
			<circle cx="50.588" cy="-66.4" r="0.3"/>
			<circle cx="50.65" cy="-42.025" r="0.3"/>
			<circle cx="50.65" cy="-58.9" r="0.3"/>
			<circle cx="50.775" cy="-24.15" r="0.3"/>
			<circle cx="50.775" cy="-45.213" r="0.3"/>
			<circle cx="50.775" cy="-56.838" r="0.3"/>
			<circle cx="50.838" cy="-84.213" r="0.3"/>
			<circle cx="50.9" cy="-34.838" r="0.3"/>
			<circle cx="51.088" cy="-78.15" r="0.3"/>
			<circle cx="51.275" cy="-71.588" r="0.3"/>
			<circle cx="51.4" cy="-14.525" r="0.3"/>
			<circle cx="51.4" cy="-50.338" r="0.3"/>
			<circle cx="51.463" cy="-75.713" r="0.3"/>
			<circle cx="51.525" cy="-62.838" r="0.3"/>
			<circle cx="51.713" cy="-39.275" r="0.3"/>
			<circle cx="51.838" cy="-20.275" r="0.3"/>
			<circle cx="51.838" cy="-3.025" r="0.3"/>
			<circle cx="51.963" cy="-32.088" r="0.3"/>
			<circle cx="52.15" cy="-5.088" r="0.3"/>
			<circle cx="52.213" cy="-15.587" r="0.3"/>
			<circle cx="52.275" cy="-30.087" r="0.3"/>
			<circle cx="52.275" cy="-8.962" r="0.3"/>
			<circle cx="52.463" cy="-66.65" r="0.3"/>
			<circle cx="52.525" cy="-11.65" r="0.3"/>
			<circle cx="52.525" cy="-58.588" r="0.3"/>
			<circle cx="52.65" cy="-42.588" r="0.3"/>
			<circle cx="52.713" cy="-24.4" r="0.3"/>
			<circle cx="52.713" cy="-45.338" r="0.3"/>
			<circle cx="52.838" cy="-54.525" r="0.3"/>
			<circle cx="52.963" cy="-77.838" r="0.3"/>
			<circle cx="52.963" cy="-79.025" r="0.3"/>
			<circle cx="53.025" cy="-36.838" r="0.3"/>
			<circle cx="53.15" cy="-57.15" r="0.3"/>
			<circle cx="53.4" cy="-6.775" r="0.3"/>
			<circle cx="53.713" cy="-20.775" r="0.3"/>
			<circle cx="53.713" cy="-34.65" r="0.3"/>
			<circle cx="53.713" cy="-76.213" r="0.3"/>
			<circle cx="53.775" cy="-72.15" r="0.3"/>
			<circle cx="53.838" cy="-3.338" r="0.3"/>
			<circle cx="54.15" cy="-15.087" r="0.3"/>
			<circle cx="54.213" cy="-26.962" r="0.3"/>
			<circle cx="54.275" cy="-50.838" r="0.3"/>
			<circle cx="54.4" cy="-58.213" r="0.3"/>
			<circle cx="54.4" cy="-61.713" r="0.3"/>
			<circle cx="54.463" cy="-39.025" r="0.3"/>
			<circle cx="54.463" cy="-66.838" r="0.3"/>
			<circle cx="54.525" cy="-43.275" r="0.3"/>
			<circle cx="54.588" cy="-45.588" r="0.3"/>
			<circle cx="54.65" cy="-24.65" r="0.3"/>
			<circle cx="54.65" cy="-69.275" r="0.3"/>
			<circle cx="54.9" cy="-77.463" r="0.3"/>
			<circle cx="54.963" cy="-54.963" r="0.3"/>
			<circle cx="55.213" cy="-41.65" r="0.3"/>
			<circle cx="55.338" cy="-9.275" r="0.3"/>
			<circle cx="55.525" cy="-36.838" r="0.3"/>
			<circle cx="55.588" cy="-30.275" r="0.3"/>
			<circle cx="55.588" cy="-48.025" r="0.3"/>
			<circle cx="55.65" cy="-21.4" r="0.3"/>
			<circle cx="55.838" cy="-3.525" r="0.3"/>
			<circle cx="55.9" cy="-81.775" r="0.3"/>
			<circle cx="56.025" cy="-14.587" r="0.3"/>
			<circle cx="56.025" cy="-19.025" r="0.3"/>
			<circle cx="56.15" cy="-34.713" r="0.3"/>
			<circle cx="56.213" cy="-72.65" r="0.3"/>
			<circle cx="56.338" cy="-57.838" r="0.3"/>
			<circle cx="56.463" cy="-67.15" r="0.3"/>
			<circle cx="56.463" cy="-7.088" r="0.3"/>
			<circle cx="56.525" cy="-43.963" r="0.3"/>
			<circle cx="56.588" cy="-24.9" r="0.3"/>
			<circle cx="56.65" cy="-45.9" r="0.3"/>
			<circle cx="56.713" cy="-12.212" r="0.3"/>
			<circle cx="56.713" cy="-39.15" r="0.3"/>
			<circle cx="56.775" cy="-86.338" r="0.3"/>
			<circle cx="56.9" cy="-77.15" r="0.3"/>
			<circle cx="56.963" cy="-40.65" r="0.3"/>
			<circle cx="57.15" cy="-51.525" r="0.3"/>
			<circle cx="57.15" cy="-60.838" r="0.3"/>
			<circle cx="57.588" cy="-21.9" r="0.3"/>
			<circle cx="57.65" cy="-36.963" r="0.3"/>
			<circle cx="57.838" cy="-3.838" r="0.3"/>
			<circle cx="57.963" cy="-14.212" r="0.3"/>
			<circle cx="58.025" cy="-32.588" r="0.3"/>
			<circle cx="58.025" cy="-5.775" r="0.3"/>
			<circle cx="58.088" cy="-9.837" r="0.3"/>
			<circle cx="58.15" cy="-34.963" r="0.3"/>
			<circle cx="58.4" cy="-44.65" r="0.3"/>
			<circle cx="58.4" cy="-57.525" r="0.3"/>
			<circle cx="58.463" cy="-67.463" r="0.3"/>
			<circle cx="58.588" cy="-12.65" r="0.3"/>
			<circle cx="58.588" cy="-30.65" r="0.3"/>
			<circle cx="58.588" cy="-46.15" r="0.3"/>
			<circle cx="58.65" cy="-25.087" r="0.3"/>
			<circle cx="58.713" cy="-39.713" r="0.3"/>
			<circle cx="58.713" cy="-63.588" r="0.3"/>
			<circle cx="58.713" cy="-73.338" r="0.3"/>
			<circle cx="58.9" cy="-77.025" r="0.3"/>
			<circle cx="59.171" cy="-43.025" r="0.3"/>
			<circle cx="59.275" cy="-55.838" r="0.3"/>
			<circle cx="59.4" cy="-7.713" r="0.3"/>
			<circle cx="59.463" cy="-22.525" r="0.3"/>
			<circle cx="59.65" cy="-4.15" r="0.3"/>
			<circle cx="59.713" cy="-37.463" r="0.3"/>
			<circle cx="59.713" cy="-85.088" r="0.3"/>
			<circle cx="59.775" cy="-52.213" r="0.3"/>
			<circle cx="59.9" cy="-13.9" r="0.3"/>
			<circle cx="59.963" cy="-59.963" r="0.3"/>
			<circle cx="6.088" cy="-48.713" r="0.3"/>
			<circle cx="6.088" cy="-50.65" r="0.3"/>
			<circle cx="6.213" cy="-29.962" r="0.3"/>
			<circle cx="6.275" cy="-5.775" r="0.3"/>
			<circle cx="6.338" cy="-3.025" r="0.3"/>
			<circle cx="6.338" cy="-60.775" r="0.3"/>
			<circle cx="6.4" cy="-19.087" r="0.3"/>
			<circle cx="6.463" cy="-42.025" r="0.3"/>
			<circle cx="6.504" cy="-55.442" r="0.3"/>
			<circle cx="6.588" cy="-16.775" r="0.3"/>
			<circle cx="6.713" cy="-13.275" r="0.3"/>
			<circle cx="6.713" cy="-76.775" r="0.3"/>
			<circle cx="6.838" cy="-10.525" r="0.3"/>
			<circle cx="6.9" cy="-27.4" r="0.3"/>
			<circle cx="60.025" cy="-35.213" r="0.3"/>
			<circle cx="60.088" cy="-27.525" r="0.3"/>
			<circle cx="60.338" cy="-57.15" r="0.3"/>
			<circle cx="60.4" cy="-67.713" r="0.3"/>
			<circle cx="60.525" cy="-10.4" r="0.3"/>
			<circle cx="60.525" cy="-38.9" r="0.3"/>
			<circle cx="60.588" cy="-25.462" r="0.3"/>
			<circle cx="60.588" cy="-46.525" r="0.3"/>
			<circle cx="60.65" cy="-70.15" r="0.3"/>
			<circle cx="60.9" cy="-76.838" r="0.3"/>
			<circle cx="61.15" cy="-74.15" r="0.3"/>
			<circle cx="61.338" cy="-31.025" r="0.3"/>
			<circle cx="61.4" cy="-23.212" r="0.3"/>
			<circle cx="61.4" cy="-49.088" r="0.3"/>
			<circle cx="61.525" cy="-4.525" r="0.3"/>
			<circle cx="61.525" cy="-79.775" r="0.3"/>
			<circle cx="61.838" cy="-65.525" r="0.3"/>
			<circle cx="61.9" cy="-13.712" r="0.3"/>
			<circle cx="61.963" cy="-35.525" r="0.3"/>
			<circle cx="61.991" cy="-17.376" r="0.3"/>
			<circle cx="62.15" cy="-52.9" r="0.3"/>
			<circle cx="62.213" cy="-56.9" r="0.3"/>
			<circle cx="62.338" cy="-8.462" r="0.3"/>
			<circle cx="62.4" cy="-68.088" r="0.3"/>
			<circle cx="62.463" cy="-21.087" r="0.3"/>
			<circle cx="62.463" cy="-46.9" r="0.3"/>
			<circle cx="62.588" cy="-25.837" r="0.3"/>
			<circle cx="62.588" cy="-38.025" r="0.3"/>
			<circle cx="62.588" cy="-84.088" r="0.3"/>
			<circle cx="62.775" cy="-11.025" r="0.3"/>
			<circle cx="62.838" cy="-76.588" r="0.3"/>
			<circle cx="62.9" cy="-59.088" r="0.3"/>
			<circle cx="63.275" cy="-23.9" r="0.3"/>
			<circle cx="63.338" cy="-33.4" r="0.3"/>
			<circle cx="63.525" cy="-74.963" r="0.3"/>
			<circle cx="63.588" cy="-5.108" r="0.3"/>
			<circle cx="63.838" cy="-36.025" r="0.3"/>
			<circle cx="63.9" cy="-13.525" r="0.3"/>
			<circle cx="63.9" cy="-7.088" r="0.3"/>
			<circle cx="64.213" cy="-56.65" r="0.3"/>
			<circle cx="64.338" cy="-31.587" r="0.3"/>
			<circle cx="64.4" cy="-68.525" r="0.3"/>
			<circle cx="64.463" cy="-47.275" r="0.3"/>
			<circle cx="64.525" cy="-26.275" r="0.3"/>
			<circle cx="64.525" cy="-53.65" r="0.3"/>
			<circle cx="64.65" cy="-62.213" r="0.3"/>
			<circle cx="64.671" cy="-37.358" r="0.3"/>
			<circle cx="64.713" cy="-64.588" r="0.3"/>
			<circle cx="64.775" cy="-11.65" r="0.3"/>
			<circle cx="64.775" cy="-76.463" r="0.3"/>
			<circle cx="65.025" cy="-24.65" r="0.3"/>
			<circle cx="65.088" cy="-45.025" r="0.3"/>
			<circle cx="65.088" cy="-9.212" r="0.3"/>
			<circle cx="65.275" cy="-41.025" r="0.3"/>
			<circle cx="65.463" cy="-20.337" r="0.3"/>
			<circle cx="65.65" cy="-83.4" r="0.3"/>
			<circle cx="65.713" cy="-58.338" r="0.3"/>
			<circle cx="65.754" cy="-5.692" r="0.3"/>
			<circle cx="65.775" cy="-3.65" r="0.3"/>
			<circle cx="65.838" cy="-28.712" r="0.3"/>
			<circle cx="65.9" cy="-13.462" r="0.3"/>
			<circle cx="66.15" cy="-56.463" r="0.3"/>
			<circle cx="66.275" cy="-26.525" r="0.3"/>
			<circle cx="66.338" cy="-68.9" r="0.3"/>
			<circle cx="66.4" cy="-71.338" r="0.3"/>
			<circle cx="66.463" cy="-47.588" r="0.3"/>
			<circle cx="66.754" cy="-36.692" r="0.3"/>
			<circle cx="66.775" cy="-76.275" r="0.3"/>
			<circle cx="66.963" cy="-25.4" r="0.3"/>
			<circle cx="66.963" cy="-54.525" r="0.3"/>
			<circle cx="67.213" cy="-50.463" r="0.3"/>
			<circle cx="67.275" cy="-32.15" r="0.3"/>
			<circle cx="67.463" cy="-63.9" r="0.3"/>
			<circle cx="67.588" cy="-35.15" r="0.3"/>
			<circle cx="67.838" cy="-13.275" r="0.3"/>
			<circle cx="67.838" cy="-78.65" r="0.3"/>
			<circle cx="67.881" cy="-16.473" r="0.3"/>
			<circle cx="68.088" cy="-10.212" r="0.3"/>
			<circle cx="68.088" cy="-22.587" r="0.3"/>
			<circle cx="68.088" cy="-44.088" r="0.3"/>
			<circle cx="68.171" cy="-6.154" r="0.3"/>
			<circle cx="68.213" cy="-69.338" r="0.3"/>
			<circle cx="68.275" cy="-56.213" r="0.3"/>
			<circle cx="68.338" cy="-19.65" r="0.3"/>
			<circle cx="68.338" cy="-27.025" r="0.3"/>
			<circle cx="68.338" cy="-48.025" r="0.3"/>
			<circle cx="68.588" cy="-82.838" r="0.3"/>
			<circle cx="68.775" cy="-57.65" r="0.3"/>
			<circle cx="68.838" cy="-76.213" r="0.3"/>
			<circle cx="69.338" cy="-36.192" r="0.3"/>
			<circle cx="69.65" cy="-8.525" r="0.3"/>
			<circle cx="69.9" cy="-13.275" r="0.3"/>
			<circle cx="7.025" cy="-22.087" r="0.3"/>
			<circle cx="7.025" cy="-52.65" r="0.3"/>
			<circle cx="7.025" cy="-67.65" r="0.3"/>
			<circle cx="7.088" cy="-82.463" r="0.3"/>
			<circle cx="7.463" cy="-31.275" r="0.3"/>
			<circle cx="7.463" cy="-73.525" r="0.3"/>
			<circle cx="7.775" cy="-34.713" r="0.3"/>
			<circle cx="7.9" cy="-70.4" r="0.3"/>
			<circle cx="70.025" cy="-32.713" r="0.3"/>
			<circle cx="70.088" cy="-69.775" r="0.3"/>
			<circle cx="70.213" cy="-27.462" r="0.3"/>
			<circle cx="70.213" cy="-48.65" r="0.3"/>
			<circle cx="70.213" cy="-56.025" r="0.3"/>
			<circle cx="70.4" cy="-61.025" r="0.3"/>
			<circle cx="70.4" cy="-63.213" r="0.3"/>
			<circle cx="70.671" cy="-6.858" r="0.3"/>
			<circle cx="70.775" cy="-11.275" r="0.3"/>
			<circle cx="70.838" cy="-76.15" r="0.3"/>
			<circle cx="70.963" cy="-21.9" r="0.3"/>
			<circle cx="71.025" cy="-24.65" r="0.3"/>
			<circle cx="71.025" cy="-43.525" r="0.3"/>
			<circle cx="71.088" cy="-39.713" r="0.3"/>
			<circle cx="71.088" cy="-67.088" r="0.3"/>
			<circle cx="71.213" cy="-19.212" r="0.3"/>
			<circle cx="71.338" cy="-86.588" r="0.3"/>
			<circle cx="71.4" cy="-82.463" r="0.3"/>
			<circle cx="71.504" cy="-35.775" r="0.3"/>
			<circle cx="71.65" cy="-57.025" r="0.3"/>
			<circle cx="71.713" cy="-30.212" r="0.3"/>
			<circle cx="71.838" cy="-13.275" r="0.3"/>
			<circle cx="72.025" cy="-70.275" r="0.3"/>
			<circle cx="72.15" cy="-55.838" r="0.3"/>
			<circle cx="72.15" cy="-73.15" r="0.3"/>
			<circle cx="72.213" cy="-28.025" r="0.3"/>
			<circle cx="72.213" cy="-49.088" r="0.3"/>
			<circle cx="72.65" cy="-33.275" r="0.3"/>
			<circle cx="72.671" cy="-5.525" r="0.3"/>
			<circle cx="72.775" cy="-76.213" r="0.3"/>
			<circle cx="72.838" cy="-52.775" r="0.3"/>
			<circle cx="73.088" cy="-7.608" r="0.3"/>
			<circle cx="73.525" cy="-62.588" r="0.3"/>
			<circle cx="73.713" cy="-35.4" r="0.3"/>
			<circle cx="73.838" cy="-13.275" r="0.3"/>
			<circle cx="73.838" cy="-16.212" r="0.3"/>
			<circle cx="73.838" cy="-43.025" r="0.3"/>
			<circle cx="73.9" cy="-21.462" r="0.3"/>
			<circle cx="73.9" cy="-66.088" r="0.3"/>
			<circle cx="73.963" cy="-70.775" r="0.3"/>
			<circle cx="74.088" cy="-28.587" r="0.3"/>
			<circle cx="74.15" cy="-49.588" r="0.3"/>
			<circle cx="74.15" cy="-55.775" r="0.3"/>
			<circle cx="74.338" cy="-18.962" r="0.3"/>
			<circle cx="74.338" cy="-82.213" r="0.3"/>
			<circle cx="74.463" cy="-26.587" r="0.3"/>
			<circle cx="74.775" cy="-76.15" r="0.3"/>
			<circle cx="74.838" cy="-78.025" r="0.3"/>
			<circle cx="75.171" cy="-8.108" r="0.3"/>
			<circle cx="75.254" cy="-4.442" r="0.3"/>
			<circle cx="75.338" cy="-10.462" r="0.3"/>
			<circle cx="75.4" cy="-33.9" r="0.3"/>
			<circle cx="75.713" cy="-35.088" r="0.3"/>
			<circle cx="75.9" cy="-71.4" r="0.3"/>
			<circle cx="75.963" cy="-13.275" r="0.3"/>
			<circle cx="75.963" cy="-47.525" r="0.3"/>
			<circle cx="76.025" cy="-29.15" r="0.3"/>
			<circle cx="76.088" cy="-50.213" r="0.3"/>
			<circle cx="76.15" cy="-55.65" r="0.3"/>
			<circle cx="76.338" cy="-59.963" r="0.3"/>
			<circle cx="76.65" cy="-62.025" r="0.3"/>
			<circle cx="76.9" cy="-65.4" r="0.3"/>
			<circle cx="76.9" cy="-76.15" r="0.3"/>
			<circle cx="76.963" cy="-21.275" r="0.3"/>
			<circle cx="76.963" cy="-23.712" r="0.3"/>
			<circle cx="76.963" cy="-38.9" r="0.3"/>
			<circle cx="76.963" cy="-42.713" r="0.3"/>
			<circle cx="77.15" cy="-8.587" r="0.3"/>
			<circle cx="77.213" cy="-18.837" r="0.3"/>
			<circle cx="77.275" cy="-82.025" r="0.3"/>
			<circle cx="77.4" cy="-26.025" r="0.3"/>
			<circle cx="77.463" cy="-31.962" r="0.3"/>
			<circle cx="77.65" cy="-85.4" r="0.3"/>
			<circle cx="77.713" cy="-34.775" r="0.3"/>
			<circle cx="77.775" cy="-71.963" r="0.3"/>
			<circle cx="77.9" cy="-29.775" r="0.3"/>
			<circle cx="77.963" cy="-13.212" r="0.3"/>
			<circle cx="77.963" cy="-50.9" r="0.3"/>
			<circle cx="78.121" cy="-3.692" r="0.3"/>
			<circle cx="78.213" cy="-55.588" r="0.3"/>
			<circle cx="78.963" cy="-9.212" r="0.3"/>
			<circle cx="79.088" cy="-76.275" r="0.3"/>
			<circle cx="79.275" cy="-68.275" r="0.3"/>
			<circle cx="79.525" cy="-61.65" r="0.3"/>
			<circle cx="79.713" cy="-72.65" r="0.3"/>
			<circle cx="79.775" cy="-15.962" r="0.3"/>
			<circle cx="79.775" cy="-64.713" r="0.3"/>
			<circle cx="79.838" cy="-30.462" r="0.3"/>
			<circle cx="79.838" cy="-34.65" r="0.3"/>
			<circle cx="79.838" cy="-51.588" r="0.3"/>
			<circle cx="79.9" cy="-13.212" r="0.3"/>
			<circle cx="79.963" cy="-21.275" r="0.3"/>
			<circle cx="79.963" cy="-42.338" r="0.3"/>
			<circle cx="8.65" cy="-9.712" r="0.3"/>
			<circle cx="8.712" cy="-13.4" r="0.3"/>
			<circle cx="8.712" cy="-77.15" r="0.3"/>
			<circle cx="8.775" cy="-51.9" r="0.3"/>
			<circle cx="8.837" cy="-58.213" r="0.3"/>
			<circle cx="8.9" cy="-75.525" r="0.3"/>
			<circle cx="80.15" cy="-7.025" r="0.3"/>
			<circle cx="80.213" cy="-18.837" r="0.3"/>
			<circle cx="80.213" cy="-55.463" r="0.3"/>
			<circle cx="80.275" cy="-33.088" r="0.3"/>
			<circle cx="80.463" cy="-25.9" r="0.3"/>
			<circle cx="80.525" cy="-81.9" r="0.3"/>
			<circle cx="80.838" cy="-9.962" r="0.3"/>
			<circle cx="80.921" cy="-3.108" r="0.3"/>
			<circle cx="81.213" cy="-76.275" r="0.3"/>
			<circle cx="81.525" cy="-73.463" r="0.3"/>
			<circle cx="81.65" cy="-31.275" r="0.3"/>
			<circle cx="81.713" cy="-52.4" r="0.3"/>
			<circle cx="81.9" cy="-46.213" r="0.3"/>
			<circle cx="81.963" cy="-13.15" r="0.3"/>
			<circle cx="81.963" cy="-34.463" r="0.3"/>
			<circle cx="82.213" cy="-55.4" r="0.3"/>
			<circle cx="82.213" cy="-61.4" r="0.3"/>
			<circle cx="82.275" cy="-59.025" r="0.3"/>
			<circle cx="82.338" cy="-70.838" r="0.3"/>
			<circle cx="82.338" cy="-78.4" r="0.3"/>
			<circle cx="82.588" cy="-50.4" r="0.3"/>
			<circle cx="82.65" cy="-10.837" r="0.3"/>
			<circle cx="82.775" cy="-64.4" r="0.3"/>
			<circle cx="82.9" cy="-38.213" r="0.3"/>
			<circle cx="82.9" cy="-42.15" r="0.3"/>
			<circle cx="82.963" cy="-21.337" r="0.3"/>
			<circle cx="82.963" cy="-23.462" r="0.3"/>
			<circle cx="83.025" cy="-6.338" r="0.3"/>
			<circle cx="83.213" cy="-19.025" r="0.3"/>
			<circle cx="83.275" cy="-81.838" r="0.3"/>
			<circle cx="83.338" cy="-2.858" r="0.3"/>
			<circle cx="83.338" cy="-26.025" r="0.3"/>
			<circle cx="83.338" cy="-74.275" r="0.3"/>
			<circle cx="83.4" cy="-84.775" r="0.3"/>
			<circle cx="83.463" cy="-31.962" r="0.3"/>
			<circle cx="83.463" cy="-76.525" r="0.3"/>
			<circle cx="83.525" cy="-53.275" r="0.3"/>
			<circle cx="83.963" cy="-34.4" r="0.3"/>
			<circle cx="84.088" cy="-13.275" r="0.3"/>
			<circle cx="84.213" cy="-55.4" r="0.3"/>
			<circle cx="84.463" cy="-11.712" r="0.3"/>
			<circle cx="84.775" cy="-29.837" r="0.3"/>
			<circle cx="84.963" cy="-72.963" r="0.3"/>
			<circle cx="85.15" cy="-54.15" r="0.3"/>
			<circle cx="85.213" cy="-33.025" r="0.3"/>
			<circle cx="85.213" cy="-61.088" r="0.3"/>
			<circle cx="85.213" cy="-67.525" r="0.3"/>
			<circle cx="85.213" cy="-75.15" r="0.3"/>
			<circle cx="85.4" cy="-49.588" r="0.3"/>
			<circle cx="85.463" cy="-52.088" r="0.3"/>
			<circle cx="85.463" cy="-70.088" r="0.3"/>
			<circle cx="85.65" cy="-63.963" r="0.3"/>
			<circle cx="85.65" cy="-9.337" r="0.3"/>
			<circle cx="85.713" cy="-16.087" r="0.3"/>
			<circle cx="85.713" cy="-76.525" r="0.3"/>
			<circle cx="85.838" cy="-13.15" r="0.3"/>
			<circle cx="85.838" cy="-2.713" r="0.3"/>
			<circle cx="85.9" cy="-42.088" r="0.3"/>
			<circle cx="85.963" cy="-34.338" r="0.3"/>
			<circle cx="86.025" cy="-21.462" r="0.3"/>
			<circle cx="86.088" cy="-5.775" r="0.3"/>
			<circle cx="86.171" cy="-81.858" r="0.3"/>
			<circle cx="86.213" cy="-19.15" r="0.3"/>
			<circle cx="86.213" cy="-55.275" r="0.3"/>
			<circle cx="86.275" cy="-26.337" r="0.3"/>
			<circle cx="9.025" cy="-48.15" r="0.3"/>
			<circle cx="9.025" cy="-49.713" r="0.3"/>
			<circle cx="9.025" cy="-64.088" r="0.3"/>
			<circle cx="9.087" cy="-79.838" r="0.3"/>
			<circle cx="9.15" cy="-44.963" r="0.3"/>
			<circle cx="9.209" cy="-55.358" r="0.3"/>
			<circle cx="9.275" cy="-30.525" r="0.3"/>
			<circle cx="9.275" cy="-72.713" r="0.3"/>
			<circle cx="9.337" cy="-3.338" r="0.3"/>
			<circle cx="9.337" cy="-38.025" r="0.3"/>
			<circle cx="9.337" cy="-6.275" r="0.3"/>
			<circle cx="9.4" cy="-41.9" r="0.3"/>
			<circle cx="9.462" cy="-19.525" r="0.3"/>
			<circle cx="9.712" cy="-34.9" r="0.3"/>
			<circle cx="9.712" cy="-60.713" r="0.3"/>
			<circle cx="9.775" cy="-27.962" r="0.3"/>
			<circle cx="9.962" cy="-22.462" r="0.3"/>
			<circle cx="9.962" cy="-24.775" r="0.3"/>
			<path style="fill:none;" d="M10.337-54.025c0.675-0.779,2,0.75,1.25,1    C10.564-52.684,9.718-53.311,10.337-54.025z"/>
			<path style="fill:none;" d="M10.337-75.15c0.675-0.779,2,0.75,1.25,1    C10.564-73.809,9.718-74.436,10.337-75.15z"/>
			<path style="fill:none;" d="M10.837-33.275c0.675-0.779,2,0.75,1.25,1    C11.064-31.934,10.218-32.561,10.837-33.275z"/>
			<path style="fill:none;" d="M11.254-58.692c0.675-0.779,2,0.75,1.25,1    C11.481-57.35,10.634-57.977,11.254-58.692z"/>
			<path style="fill:none;" d="M11.462-45.4c0.675-0.779,2,0.75,1.25,1    C11.689-44.059,10.843-44.686,11.462-45.4z"/>
			<path style="fill:none;" d="M11.462-81.275c0.675-0.779,2,0.75,1.25,1    C11.689-79.934,10.843-80.561,11.462-81.275z"/>
			<path style="fill:none;" d="M11.837-38.713c0.675-0.779,2,0.75,1.25,1    C12.064-37.371,11.218-37.998,11.837-38.713z"/>
			<path style="fill:none;" d="M11.968-25.516    c0.221-1.007,2.115-0.296,1.576,0.281C12.808-24.446,11.765-24.592,11.968-25.516z"/>
			<path style="fill:none;" d="M12.688-86.07    c0.03-1.03,2.023-0.686,1.601-0.018C13.712-85.175,12.66-85.124,12.688-86.07z"/>
			<path style="fill:none;" d="M13.421-11.025c0.675-0.779,2,0.75,1.25,1    C13.647-9.684,12.801-10.311,13.421-11.025z"/>
			<path style="fill:none;" d="M14.921-18.525c0.675-0.779,2,0.75,1.25,1    C15.147-17.184,14.301-17.811,14.921-18.525z"/>
			<path style="fill:none;" d="M15.754-72.775c0.675-0.779,2,0.75,1.25,1    C15.981-71.434,15.134-72.061,15.754-72.775z"/>
			<path style="fill:none;" d="M16.337-52.4c0.675-0.779,2,0.75,1.25,1    C16.564-51.059,15.718-51.686,16.337-52.4z"/>
			<path style="fill:none;" d="M16.837-30.837c0.675-0.779,2,0.75,1.25,1    C17.064-29.496,16.218-30.123,16.837-30.837z"/>
			<path style="fill:none;" d="M16.837-83.025c0.675-0.779,2,0.75,1.25,1    C17.064-81.684,16.218-82.311,16.837-83.025z"/>
			<path style="fill:none;" d="M17.087-59.025c0.675-0.779,2,0.75,1.25,1    C17.314-57.684,16.468-58.311,17.087-59.025z"/>
			<path style="fill:none;" d="M17.462-45.15c0.675-0.779,2,0.75,1.25,1    C17.689-43.809,16.843-44.436,17.462-45.15z"/>
			<path style="fill:none;" d="M17.837-38.963c0.675-0.779,2,0.75,1.25,1    C18.064-37.621,17.218-38.248,17.837-38.963z"/>
			<path style="fill:none;" d="M18.875-3.778    c0.03-1.03,2.023-0.686,1.601-0.018C19.9-2.884,18.848-2.833,18.875-3.778z"/>
			<path style="fill:none;" d="M18.921-9.025c0.676-0.779,2,0.75,1.25,1    C19.147-7.684,18.301-8.311,18.921-9.025z"/>
			<path style="fill:none;" d="M2.525-67.775c0.675-0.779,2,0.75,1.25,1    C2.751-66.434,1.905-67.061,2.525-67.775z"/>
			<path style="fill:none;" d="M2.921-16.858c0.675-0.779,2,0.75,1.25,1    C3.147-15.517,2.301-16.144,2.921-16.858z"/>
			<path style="fill:none;" d="M20.754-19.692c0.675-0.779,2,0.75,1.25,1    C20.981-18.351,20.134-18.977,20.754-19.692z"/>
			<path style="fill:none;" d="M21.337-71.192c0.675-0.779,2,0.75,1.25,1    C21.564-69.851,20.718-70.477,21.337-71.192z"/>
			<path style="fill:none;" d="M22.212-50.4c0.675-0.779,2,0.75,1.25,1    C22.439-49.059,21.593-49.686,22.212-50.4z"/>
			<path style="fill:none;" d="M22.837-85.025c0.675-0.779,2,0.75,1.25,1    C23.064-83.684,22.218-84.311,22.837-85.025z"/>
			<path style="fill:none;" d="M23.124-59.346    c0.198-1.011,2.108-0.344,1.582,0.246C23.988-58.296,22.942-58.418,23.124-59.346z"/>
			<path style="fill:none;" d="M23.462-45.025c0.675-0.779,2,0.75,1.25,1    C23.689-43.684,22.843-44.311,23.462-45.025z"/>
			<path style="fill:none;" d="M23.587-39.525c0.675-0.779,2,0.75,1.25,1    C23.814-38.184,22.968-38.811,23.587-39.525z"/>
			<path style="fill:none;" d="M24.587-7.525c0.675-0.779,2,0.75,1.25,1    C24.814-6.184,23.968-6.811,24.587-7.525z"/>
			<path style="fill:none;" d="M25.337-28.525c0.675-0.779,2,0.75,1.25,1    C25.564-27.184,24.718-27.811,25.337-28.525z"/>
			<path style="fill:none;" d="M27.046-20.879c0.676-0.779,2,0.75,1.25,1    C27.272-19.538,26.426-20.165,27.046-20.879z"/>
			<path style="fill:none;" d="M27.087-78.692c0.675-0.779,2,0.75,1.25,1    C27.314-77.35,26.468-77.977,27.087-78.692z"/>
			<path style="fill:none;" d="M27.254-70.025c0.675-0.779,2,0.75,1.25,1    C27.481-68.684,26.634-69.311,27.254-70.025z"/>
			<path style="fill:none;" d="M28.212-49.025c0.675-0.779,2,0.75,1.25,1    C28.439-47.684,27.593-48.311,28.212-49.025z"/>
			<path style="fill:none;" d="M28.781-60.722    c-0.018-1.031,1.989-0.78,1.598-0.092C29.846-59.877,28.798-59.777,28.781-60.722z"/>
			<path style="fill:none;" d="M29.361-55.091    c0.652-0.799,2.022,0.69,1.279,0.962C29.628-53.757,28.763-54.358,29.361-55.091z"/>
			<path style="fill:none;" d="M29.587-40.213c0.675-0.779,2,0.75,1.25,1    C29.814-38.871,28.968-39.498,29.587-40.213z"/>
			<path style="fill:none;" d="M30.587-6.192c0.675-0.779,2,0.75,1.25,1    C30.814-4.851,29.968-5.477,30.587-6.192z"/>
			<path style="fill:none;" d="M30.671-35.192c0.675-0.779,2,0.75,1.25,1    C30.897-33.85,30.051-34.477,30.671-35.192z"/>
			<path style="fill:none;" d="M31.587-14.525c0.675-0.779,2,0.75,1.25,1    C31.814-13.184,30.968-13.811,31.587-14.525z"/>
			<path style="fill:none;" d="M33.01-21.961    c0.752-0.705,1.912,0.953,1.14,1.124C33.097-20.604,32.32-21.314,33.01-21.961z"/>
			<path style="fill:none;" d="M33.254-69.358c0.675-0.779,2,0.75,1.25,1    C33.481-68.017,32.634-68.644,33.254-69.358z"/>
			<path style="fill:none;" d="M33.338-27.4c0.675-0.779,2,0.75,1.25,1    C33.564-26.059,32.718-26.686,33.338-27.4z"/>
			<path style="fill:none;" d="M33.959-63.04    c-0.196-1.012,1.824-1.111,1.558-0.367C35.154-62.39,34.139-62.111,33.959-63.04z"/>
			<path style="fill:none;" d="M34.213-48.15c0.675-0.779,2,0.75,1.25,1    C34.439-46.809,33.593-47.436,34.213-48.15z"/>
			<path style="fill:none;" d="M35.088-77.442c0.675-0.779,2,0.75,1.25,1    C35.314-76.1,34.468-76.727,35.088-77.442z"/>
			<path style="fill:none;" d="M35.588-41.213c0.675-0.779,2,0.75,1.25,1    C35.814-39.871,34.968-40.498,35.588-41.213z"/>
			<path style="fill:none;" d="M36.423-54.091    c0.652-0.799,2.022,0.69,1.279,0.962C36.69-52.757,35.825-53.358,36.423-54.091z"/>
			<path style="fill:none;" d="M36.588-33.858c0.675-0.779,2,0.75,1.25,1    C36.814-32.517,35.968-33.144,36.588-33.858z"/>
			<path style="fill:none;" d="M36.588-5.525c0.675-0.779,2,0.75,1.25,1    C36.814-4.184,35.968-4.811,36.588-5.525z"/>
			<path style="fill:none;" d="M37.921-12.858c0.675-0.779,2,0.75,1.25,1    C38.147-11.517,37.301-12.144,37.921-12.858z"/>
			<path style="fill:none;" d="M39.213-26.9c0.675-0.779,2,0.75,1.25,1    C39.439-25.559,38.593-26.186,39.213-26.9z"/>
			<path style="fill:none;" d="M39.338-68.942c0.675-0.779,2,0.75,1.25,1    C39.564-67.601,38.718-68.227,39.338-68.942z"/>
			<path style="fill:none;" d="M39.963-47.775c0.675-0.779,2,0.75,1.25,1    C40.189-46.434,39.343-47.061,39.963-47.775z"/>
			<path style="fill:none;" d="M41.213-42.4c0.675-0.779,2,0.75,1.25,1    C41.439-41.059,40.593-41.686,41.213-42.4z"/>
			<path style="fill:none;" d="M42.421-5.358c0.675-0.779,2,0.75,1.25,1    C42.647-4.017,41.801-4.644,42.421-5.358z"/>
			<path style="fill:none;" d="M42.504-33.108c0.675-0.779,2,0.75,1.25,1    C42.731-31.767,41.884-32.394,42.504-33.108z"/>
			<path style="fill:none;" d="M42.504-77.692c0.675-0.779,2,0.75,1.25,1    C42.731-76.35,41.884-76.977,42.504-77.692z"/>
			<path style="fill:none;" d="M42.827-53.536    c0.14-1.021,2.085-0.466,1.593,0.154C43.75-52.537,42.699-52.599,42.827-53.536z"/>
			<path style="fill:none;" d="M43.921-12.025c0.675-0.779,2,0.75,1.25,1    C44.147-10.684,43.301-11.311,43.921-12.025z"/>
			<path style="fill:none;" d="M44.588-26.65c0.675-0.779,2,0.75,1.25,1    C44.814-25.309,43.968-25.936,44.588-26.65z"/>
			<path style="fill:none;" d="M45.088-69.025c0.675-0.779,2,0.75,1.25,1    C45.314-67.684,44.468-68.311,45.088-69.025z"/>
			<path style="fill:none;" d="M46.088-47.65c0.675-0.779,2,0.75,1.25,1    C46.314-46.309,45.468-46.936,46.088-47.65z"/>
			<path style="fill:none;" d="M47.463-43.775c0.675-0.779,2,0.75,1.25,1    C47.689-42.434,46.843-43.061,47.463-43.775z"/>
			<path style="fill:none;" d="M48.025-86.15c0.675-0.779,2,0.75,1.25,1    C48.251-84.809,47.405-85.436,48.025-86.15z"/>
			<path style="fill:none;" d="M48.421-32.858c0.675-0.779,2,0.75,1.25,1    C48.647-31.517,47.801-32.144,48.421-32.858z"/>
			<path style="fill:none;" d="M48.588-5.358c0.675-0.779,2,0.75,1.25,1    C48.814-4.017,47.968-4.644,48.588-5.358z"/>
			<path style="fill:none;" d="M49.254-11.858c0.675-0.779,2,0.75,1.25,1    C49.481-10.517,48.634-11.144,49.254-11.858z"/>
			<path style="fill:none;" d="M49.793-54.107    c-0.064-1.029,1.952-0.868,1.592-0.164C50.895-53.309,49.853-53.163,49.793-54.107z"/>
			<path style="fill:none;" d="M5.254-59.025c0.675-0.779,2,0.75,1.25,1    C5.481-57.684,4.634-58.311,5.254-59.025z"/>
			<path style="fill:none;" d="M5.463-45.775c0.675-0.779,2,0.75,1.25,1    C5.689-44.434,4.843-45.061,5.463-45.775z"/>
			<path style="fill:none;" d="M5.713-79.775c0.675-0.779,2,0.75,1.25,1    C5.939-78.434,5.093-79.061,5.713-79.775z"/>
			<path style="fill:none;" d="M5.838-38.525c0.675-0.779,2,0.75,1.25,1    C6.064-37.184,5.218-37.811,5.838-38.525z"/>
			<path style="fill:none;" d="M50.588-27.025c0.675-0.779,2,0.75,1.25,1    C50.814-25.684,49.968-26.311,50.588-27.025z"/>
			<path style="fill:none;" d="M51.171-69.483c0.675-0.779,2,0.75,1.25,1    C51.397-68.142,50.551-68.769,51.171-69.483z"/>
			<path style="fill:none;" d="M52.088-48.025c0.675-0.779,2,0.75,1.25,1    C52.314-46.684,51.468-47.311,52.088-48.025z"/>
			<path style="fill:none;" d="M52.588-83.65c0.675-0.779,2,0.75,1.25,1    C52.814-82.309,51.968-82.936,52.588-83.65z"/>
			<path style="fill:none;" d="M54.254-12.358c0.675-0.779,2,0.75,1.25,1    C54.481-11.017,53.634-11.644,54.254-12.358z"/>
			<path style="fill:none;" d="M54.338-32.942c0.675-0.779,2,0.75,1.25,1    C54.564-31.6,53.718-32.227,54.338-32.942z"/>
			<path style="fill:none;" d="M54.588-5.858c0.675-0.779,2,0.75,1.25,1    C54.814-4.517,53.968-5.144,54.588-5.858z"/>
			<path style="fill:none;" d="M55.317-64.838c0.675-0.779,2,0.75,1.25,1    C55.543-63.496,54.697-64.123,55.317-64.838z"/>
			<path style="fill:none;" d="M56.226-55.214    c-0.007-1.031,1.997-0.758,1.599-0.075C57.282-54.356,56.233-54.268,56.226-55.214z"/>
			<path style="fill:none;" d="M56.713-27.65c0.675-0.779,2,0.75,1.25,1    C56.939-26.309,56.093-26.936,56.713-27.65z"/>
			<path style="fill:none;" d="M57.088-70.192c0.675-0.779,2,0.75,1.25,1    C57.314-68.851,56.468-69.477,57.088-70.192z"/>
			<path style="fill:none;" d="M57.9-48.838c0.675-0.779,2,0.75,1.25,1    C58.126-47.496,57.28-48.123,57.9-48.838z"/>
			<path style="fill:none;" d="M57.963-81.275c0.675-0.779,2,0.75,1.25,1    C58.189-79.934,57.343-80.561,57.963-81.275z"/>
			<path style="fill:none;" d="M58.588-18.525c0.675-0.779,2,0.75,1.25,1    C58.814-17.184,57.968-17.811,58.588-18.525z"/>
			<path style="fill:none;" d="M6.183-85.17c0.251-1,2.123-0.234,1.567,0.328    C6.991-84.076,5.953-84.253,6.183-85.17z"/>
			<path style="fill:none;" d="M6.266-24.403    c0.243-1.002,2.121-0.251,1.569,0.315C7.082-23.316,6.043-23.484,6.266-24.403z"/>
			<path style="fill:none;" d="M60.254-7.025c0.675-0.779,2,0.75,1.25,1    C60.481-5.684,59.634-6.311,60.254-7.025z"/>
			<path style="fill:none;" d="M60.338-33.525c0.675-0.779,2,0.75,1.25,1    C60.564-32.184,59.718-32.811,60.338-33.525z"/>
			<path style="fill:none;" d="M60.942-63.213c0.675-0.779,2,0.75,1.25,1    C61.168-61.871,60.322-62.498,60.942-63.213z"/>
			<path style="fill:none;" d="M61.65-42.4c0.675-0.779,2,0.75,1.25,1    C61.876-41.059,61.03-41.686,61.65-42.4z"/>
			<path style="fill:none;" d="M62.338-28.712c0.675-0.779,2,0.75,1.25,1    C62.564-27.371,61.718-27.998,62.338-28.712z"/>
			<path style="fill:none;" d="M62.858-71.275c0.675-0.779,2,0.75,1.25,1    C63.085-69.934,62.239-70.561,62.858-71.275z"/>
			<path style="fill:none;" d="M63.713-50.15c0.675-0.779,2,0.75,1.25,1    C63.939-48.809,63.093-49.436,63.713-50.15z"/>
			<path style="fill:none;" d="M63.713-79.775c0.675-0.779,2,0.75,1.25,1    C63.939-78.434,63.093-79.061,63.713-79.775z"/>
			<path style="fill:none;" d="M64.254-17.525c0.675-0.779,2,0.75,1.25,1    C64.481-16.184,63.634-16.811,64.254-17.525z"/>
			<path style="fill:none;" d="M65.004-34.775c0.675-0.779,2,0.75,1.25,1    C65.231-33.434,64.384-34.061,65.004-34.775z"/>
			<path style="fill:none;" d="M66.088-8.358c0.675-0.779,2,0.75,1.25,1    C66.314-7.017,65.468-7.644,66.088-8.358z"/>
			<path style="fill:none;" d="M66.838-62.025c0.675-0.779,2,0.75,1.25,1    C67.064-60.684,66.218-61.311,66.838-62.025z"/>
			<path style="fill:none;" d="M67.338-3.296c0.675-0.779,2,0.75,1.25,1    C67.564-1.955,66.718-2.581,67.338-3.296z"/>
			<path style="fill:none;" d="M67.463-40.775c0.675-0.779,2,0.75,1.25,1    C67.689-39.434,66.843-40.061,67.463-40.775z"/>
			<path style="fill:none;" d="M68.088-30.025c0.675-0.779,2,0.75,1.25,1    C68.314-28.684,67.468-29.311,68.088-30.025z"/>
			<path style="fill:none;" d="M68.713-72.65c0.675-0.779,2,0.75,1.25,1    C68.939-71.309,68.093-71.936,68.713-72.65z"/>
			<path style="fill:none;" d="M69.213-52.15c0.675-0.779,2,0.75,1.25,1    C69.439-50.809,68.593-51.436,69.213-52.15z"/>
			<path style="fill:none;" d="M70.088-16.692c0.675-0.779,2,0.75,1.25,1    C70.314-15.351,69.468-15.977,70.088-16.692z"/>
			<path style="fill:none;" d="M70.838-78.9c0.675-0.779,2,0.75,1.25,1    C71.064-77.559,70.218-78.186,70.838-78.9z"/>
			<path style="fill:none;" d="M71.754-10.025c0.675-0.779,2,0.75,1.25,1    C71.981-8.684,71.134-9.311,71.754-10.025z"/>
			<path style="fill:none;" d="M72.796-61.004c0.675-0.779,2,0.75,1.25,1    C73.022-59.663,72.176-60.29,72.796-61.004z"/>
			<path style="fill:none;" d="M73.254-24.525c0.675-0.779,2,0.75,1.25,1    C73.481-23.184,72.634-23.811,73.254-24.525z"/>
			<path style="fill:none;" d="M73.463-39.713c0.675-0.779,2,0.75,1.25,1    C73.689-38.371,72.843-38.998,73.463-39.713z"/>
			<path style="fill:none;" d="M73.921-86.358c0.675-0.779,2,0.75,1.25,1    C74.147-85.017,73.301-85.644,73.921-86.358z"/>
			<path style="fill:none;" d="M74.035-31.221    c0.277-0.993,2.128-0.179,1.558,0.368C74.814-30.106,73.781-30.309,74.035-31.221z"/>
			<path style="fill:none;" d="M74.317-74.858c0.676-0.779,2,0.75,1.25,1    C74.543-73.517,73.697-74.144,74.317-74.858z"/>
			<path style="fill:none;" d="M75.338-54.275c0.675-0.779,2,0.75,1.25,1    C75.564-52.934,74.718-53.561,75.338-54.275z"/>
			<path style="fill:none;" d="M75.65-69.588c0.675-0.779,2,0.75,1.25,1    C75.876-68.246,75.03-68.873,75.65-69.588z"/>
			<path style="fill:none;" d="M76.275-16.504c0.675-0.779,2,0.75,1.25,1    C76.502-15.163,75.655-15.79,76.275-16.504z"/>
			<path style="fill:none;" d="M77.421-12.025c0.675-0.779,2,0.75,1.25,1    C77.647-10.684,76.801-11.311,77.421-12.025z"/>
			<path style="fill:none;" d="M77.838-78.775c0.675-0.779,2,0.75,1.25,1    C78.064-77.434,77.218-78.061,77.838-78.775z"/>
			<path style="fill:none;" d="M78.338-47.4c0.675-0.779,2,0.75,1.25,1    C78.564-46.059,77.718-46.686,78.338-47.4z"/>
			<path style="fill:none;" d="M78.754-59.942c0.675-0.779,2,0.75,1.25,1    C78.981-58.6,78.134-59.227,78.754-59.942z"/>
			<path style="fill:none;" d="M79.254-24.025c0.675-0.779,2,0.75,1.25,1    C79.481-22.684,78.634-23.311,79.254-24.025z"/>
			<path style="fill:none;" d="M79.338-38.963c0.675-0.779,2,0.75,1.25,1    C79.564-37.621,78.718-38.248,79.338-38.963z"/>
			<path style="fill:none;" d="M79.921-85.525c0.675-0.779,2,0.75,1.25,1    C80.147-84.184,79.301-84.811,79.921-85.525z"/>
			<path style="fill:none;" d="M8.921-17.692c0.675-0.779,2,0.75,1.25,1    C9.147-16.351,8.301-16.977,8.921-17.692z"/>
			<path style="fill:none;" d="M81.754-68.317c0.675-0.779,2,0.75,1.25,1    C81.981-66.976,81.134-67.602,81.754-68.317z"/>
			<path style="fill:none;" d="M82.067-16.421c0.675-0.779,2,0.75,1.25,1    C82.293-15.08,81.447-15.706,82.067-16.421z"/>
			<path style="fill:none;" d="M84.463-46.213c0.675-0.779,2,0.75,1.25,1    C84.689-44.871,83.843-45.498,84.463-46.213z"/>
			<path style="fill:none;" d="M84.608-59.046c0.675-0.779,2,0.75,1.25,1    C84.835-57.705,83.989-58.331,84.608-59.046z"/>
			<path style="fill:none;" d="M84.963-79.15c0.675-0.779,2,0.75,1.25,1    C85.189-77.809,84.343-78.436,84.963-79.15z"/>
			<path style="fill:none;" d="M85.088-24.192c0.675-0.779,2,0.75,1.25,1    C85.314-22.85,84.468-23.477,85.088-24.192z"/>
			<path style="fill:none;" d="M85.254-85.358c0.675-0.779,2,0.75,1.25,1    C85.481-84.017,84.634-84.644,85.254-85.358z"/>
			<path style="fill:none;" d="M85.463-38.588c0.675-0.779,2,0.75,1.25,1    C85.689-37.246,84.843-37.873,85.463-38.588z"/>
			<path style="fill:none;" d="M9.656-68.192    c0.329-0.977,2.135-0.066,1.536,0.45C10.375-67.038,9.354-67.296,9.656-68.192z"/>
		</g>
	</g>
</svg>
