<?xml version="1.0" encoding="utf-8"?>
<svg xmlns="http://www.w3.org/2000/svg" version="1.1" x="0px" y="0px" xml:space="preserve" width="85.039" height="85.039" viewBox="1.715 -87.121 85.039 85.039">
	<metadata id="metadata2">
	<rdf:RDF
		xmlns:dc="http://purl.org/dc/elements/1.1/"
		xmlns:cc="http://creativecommons.org/ns#"
		xmlns:rdf="http://www.w3.org/1999/02/22-rdf-syntax-ns#"
		xmlns="http://my.netscape.com/rdf/simple/0.9/">
		<item rdf:ID="biblio1">
			<link>rdf:resource="http://pubs.usgs.gov/tm/2006/11A02/</link>
			<title>U.S. Geological Survey, 2006, FGDC Digital Cartographic Standard for Geologic Map Symbolization (PostScript Implementation): U.S. Geological Survey Techniques and Methods 11-A2</title>
		</item>
		<item rdf:ID="biblio2">
			<link>https://davenquinn.com/projects/geologic-patterns/</link>
			<title>FGDC Geologic Patterns for the Web</title>
		</item>
		<rdf:Description>
			<dc:description>Converted from 'FGDC Geologic Patterns for the Web' to QGIS compatible svg symbols, with customisable fill colour/stroke colour/stroke width (when appropriate)</dc:description>
			<dc:date>01 MARCH 2019</dc:date>
			<dc:creator>GeoProc.com</dc:creator>
			<dc:publisher rdf:resource="https://github.com/BC-Consulting/QGIS-FGDC-Fill" />
		</rdf:Description>
		<cc:Work rdf:about="">
			<dc:format>image/svg+xml</dc:format>
			<dc:type rdf:resource="http://purl.org/dc/dcmitype/StillImage" />
			<dc:title>FGDC fill symbol: Lithology - Sedimentary - 609 Crossbedded Sand Or Sandstone 1st Option</dc:title>
		</cc:Work>
	</rdf:RDF>
	</metadata>
	<g>
		<rect x="1.715" y="-87.121" style="fill:none;" width="85.039" height="85.039"/>
        <g fill="param(outline) #000" stroke="param(outline) #000" stroke-width="param(outline-width) 0.3">
			<circle cx="10.025" cy="-61.608" r="0.5"/>
			<circle cx="10.067" cy="-85.4" r="0.5"/>
			<circle cx="10.15" cy="-11.421" r="0.5"/>
			<circle cx="10.192" cy="-51.088" r="0.5"/>
			<circle cx="10.254" cy="-8.775" r="0.5"/>
			<circle cx="10.317" cy="-77.213" r="0.5"/>
			<circle cx="10.379" cy="-13.4" r="0.5"/>
			<circle cx="10.817" cy="-71.838" r="0.5"/>
			<circle cx="10.837" cy="-22.733" r="0.5"/>
			<circle cx="10.879" cy="-29.65" r="0.5"/>
			<circle cx="10.962" cy="-55.483" r="0.5"/>
			<circle cx="11.025" cy="-67.921" r="0.5"/>
			<circle cx="11.15" cy="-34.796" r="0.5"/>
			<circle cx="11.212" cy="-74.046" r="0.5"/>
			<circle cx="11.275" cy="-81.358" r="0.5"/>
			<circle cx="11.337" cy="-32.671" r="0.5"/>
			<circle cx="11.462" cy="-65.108" r="0.5"/>
			<circle cx="11.504" cy="-48.9" r="0.5"/>
			<circle cx="11.629" cy="-47.463" r="0.5"/>
			<circle cx="11.817" cy="-44.713" r="0.5"/>
			<circle cx="11.817" cy="-6.463" r="0.5"/>
			<circle cx="11.837" cy="-19.608" r="0.5"/>
			<circle cx="11.879" cy="-3.65" r="0.5"/>
			<circle cx="12.004" cy="-41.775" r="0.5"/>
			<circle cx="12.046" cy="-79.608" r="0.5"/>
			<circle cx="12.129" cy="-50.463" r="0.5"/>
			<circle cx="12.129" cy="-8.212" r="0.5"/>
			<circle cx="12.317" cy="-77.775" r="0.5"/>
			<circle cx="12.337" cy="-25.608" r="0.5"/>
			<circle cx="12.379" cy="-13.525" r="0.5"/>
			<circle cx="12.504" cy="-83.65" r="0.5"/>
			<circle cx="12.65" cy="-53.296" r="0.5"/>
			<circle cx="12.692" cy="-71.213" r="0.5"/>
			<circle cx="12.712" cy="-37.671" r="0.5"/>
			<circle cx="12.879" cy="-29.025" r="0.5"/>
			<circle cx="12.9" cy="-58.921" r="0.5"/>
			<circle cx="12.962" cy="-55.733" r="0.5"/>
			<circle cx="13.025" cy="-61.796" r="0.5"/>
			<circle cx="13.067" cy="-85.9" r="0.5"/>
			<circle cx="13.442" cy="-35.088" r="0.5"/>
			<circle cx="13.525" cy="-68.171" r="0.5"/>
			<circle cx="13.712" cy="-10.171" r="0.5"/>
			<circle cx="13.754" cy="-75.963" r="0.5"/>
			<circle cx="13.962" cy="-16.171" r="0.5"/>
			<circle cx="13.962" cy="-65.358" r="0.5"/>
			<circle cx="14.004" cy="-7.525" r="0.5"/>
			<circle cx="14.087" cy="-72.858" r="0.5"/>
			<circle cx="14.087" cy="-82.046" r="0.5"/>
			<circle cx="14.129" cy="-49.775" r="0.5"/>
			<circle cx="14.129" cy="-78.275" r="0.5"/>
			<circle cx="14.212" cy="-80.275" r="0.5"/>
			<circle cx="14.254" cy="-13.775" r="0.5"/>
			<circle cx="14.504" cy="-48.463" r="0.5"/>
			<circle cx="14.629" cy="-47.025" r="0.5"/>
			<circle cx="14.692" cy="-70.588" r="0.5"/>
			<circle cx="14.712" cy="-22.858" r="0.5"/>
			<circle cx="14.754" cy="-28.4" r="0.5"/>
			<circle cx="14.754" cy="-44.525" r="0.5"/>
			<circle cx="14.817" cy="-4.275" r="0.5"/>
			<circle cx="14.962" cy="-31.358" r="0.5"/>
			<circle cx="14.962" cy="-55.983" r="0.5"/>
			<circle cx="15.025" cy="-19.796" r="0.5"/>
			<circle cx="15.067" cy="-41.775" r="0.5"/>
			<circle cx="15.317" cy="-35.338" r="0.5"/>
			<circle cx="15.4" cy="-84.296" r="0.5"/>
			<circle cx="15.462" cy="-86.608" r="0.5"/>
			<circle cx="15.712" cy="-25.733" r="0.5"/>
			<circle cx="15.712" cy="-51.983" r="0.5"/>
			<circle cx="15.879" cy="-6.9" r="0.5"/>
			<circle cx="15.9" cy="-68.546" r="0.5"/>
			<circle cx="16.004" cy="-49.213" r="0.5"/>
			<circle cx="16.004" cy="-78.838" r="0.5"/>
			<circle cx="16.025" cy="-62.171" r="0.5"/>
			<circle cx="16.087" cy="-37.858" r="0.5"/>
			<circle cx="16.087" cy="-59.233" r="0.5"/>
			<circle cx="16.296" cy="-80.942" r="0.5"/>
			<circle cx="16.317" cy="-13.9" r="0.5"/>
			<circle cx="16.317" cy="-74.463" r="0.5"/>
			<circle cx="16.504" cy="-27.9" r="0.5"/>
			<circle cx="16.587" cy="-65.671" r="0.5"/>
			<circle cx="16.629" cy="-70.088" r="0.5"/>
			<circle cx="16.9" cy="-82.983" r="0.5"/>
			<circle cx="17.15" cy="-56.296" r="0.5"/>
			<circle cx="17.212" cy="-8.921" r="0.5"/>
			<circle cx="17.317" cy="-35.65" r="0.5"/>
			<circle cx="17.337" cy="-16.608" r="0.5"/>
			<circle cx="17.442" cy="-4.9" r="0.5"/>
			<circle cx="17.525" cy="-71.733" r="0.5"/>
			<circle cx="17.567" cy="-46.775" r="0.5"/>
			<circle cx="17.775" cy="-85.358" r="0.5"/>
			<circle cx="17.817" cy="-44.338" r="0.5"/>
			<circle cx="17.817" cy="-6.338" r="0.5"/>
			<circle cx="17.817" cy="-77.775" r="0.5"/>
			<circle cx="17.837" cy="-2.733" r="0.5"/>
			<circle cx="17.837" cy="-2.733" r="0.5"/>
			<circle cx="17.879" cy="-48.65" r="0.5"/>
			<circle cx="17.879" cy="-79.588" r="0.5"/>
			<circle cx="18.067" cy="-11.9" r="0.5"/>
			<circle cx="18.067" cy="-41.838" r="0.5"/>
			<circle cx="18.087" cy="-20.171" r="0.5"/>
			<circle cx="18.317" cy="-14.15" r="0.5"/>
			<circle cx="18.337" cy="-23.108" r="0.5"/>
			<circle cx="18.462" cy="-81.692" r="0.5"/>
			<circle cx="18.567" cy="-27.4" r="0.5"/>
			<circle cx="18.567" cy="-69.65" r="0.5"/>
			<circle cx="18.587" cy="-62.483" r="0.5"/>
			<circle cx="18.671" cy="-33.671" r="0.5"/>
			<circle cx="18.775" cy="-30.108" r="0.5"/>
			<circle cx="18.837" cy="-25.858" r="0.5"/>
			<circle cx="18.9" cy="-66.108" r="0.5"/>
			<circle cx="18.962" cy="-50.733" r="0.5"/>
			<circle cx="19.129" cy="-73.463" r="0.5"/>
			<circle cx="19.212" cy="-56.733" r="0.5"/>
			<circle cx="19.254" cy="-35.838" r="0.5"/>
			<circle cx="19.275" cy="-38.108" r="0.5"/>
			<circle cx="19.275" cy="-59.671" r="0.5"/>
			<circle cx="19.275" cy="-84.296" r="0.5"/>
			<circle cx="19.712" cy="-54.108" r="0.5"/>
			<circle cx="19.754" cy="-48.15" r="0.5"/>
			<circle cx="19.754" cy="-5.838" r="0.5"/>
			<circle cx="19.754" cy="-80.275" r="0.5"/>
			<circle cx="19.9" cy="-3.921" r="0.5"/>
			<circle cx="19.9" cy="-3.921" r="0.5"/>
			<circle cx="2.4" cy="-73.796" r="0.5"/>
			<circle cx="2.442" cy="-76.4" r="0.5"/>
			<circle cx="2.463" cy="-15.358" r="0.5"/>
			<circle cx="2.463" cy="-67.983" r="0.5"/>
			<circle cx="2.504" cy="-12.962" r="0.5"/>
			<circle cx="2.775" cy="-34.046" r="0.5"/>
			<circle cx="2.775" cy="-55.046" r="0.5"/>
			<circle cx="2.817" cy="-49.025" r="0.5"/>
			<circle cx="2.879" cy="-5.525" r="0.5"/>
			<circle cx="2.879" cy="-51.338" r="0.5"/>
			<circle cx="2.942" cy="-45.338" r="0.5"/>
			<circle cx="2.963" cy="-29.671" r="0.5"/>
			<circle cx="2.963" cy="-71.046" r="0.5"/>
			<circle cx="20.317" cy="-14.275" r="0.5"/>
			<circle cx="20.4" cy="-86.546" r="0.5"/>
			<circle cx="20.442" cy="-26.9" r="0.5"/>
			<circle cx="20.504" cy="-69.15" r="0.5"/>
			<circle cx="20.504" cy="-76.4" r="0.5"/>
			<circle cx="20.567" cy="-46.463" r="0.5"/>
			<circle cx="20.587" cy="-17.046" r="0.5"/>
			<circle cx="20.629" cy="-82.608" r="0.5"/>
			<circle cx="20.817" cy="-10.9" r="0.5"/>
			<circle cx="20.817" cy="-44.338" r="0.5"/>
			<circle cx="21.004" cy="-41.963" r="0.5"/>
			<circle cx="21.087" cy="-62.921" r="0.5"/>
			<circle cx="21.192" cy="-36.088" r="0.5"/>
			<circle cx="21.212" cy="-57.025" r="0.5"/>
			<circle cx="21.275" cy="-66.608" r="0.5"/>
			<circle cx="21.337" cy="-70.608" r="0.5"/>
			<circle cx="21.4" cy="-7.671" r="0.5"/>
			<circle cx="21.462" cy="-20.483" r="0.5"/>
			<circle cx="21.462" cy="-23.483" r="0.5"/>
			<circle cx="21.587" cy="-85.166" r="0.5"/>
			<circle cx="21.629" cy="-81.15" r="0.5"/>
			<circle cx="21.817" cy="-47.588" r="0.5"/>
			<circle cx="21.817" cy="-5.4" r="0.5"/>
			<circle cx="21.942" cy="-72.463" r="0.5"/>
			<circle cx="22.067" cy="-79.275" r="0.5"/>
			<circle cx="22.15" cy="-60.171" r="0.5"/>
			<circle cx="22.317" cy="-14.587" r="0.5"/>
			<circle cx="22.379" cy="-26.4" r="0.5"/>
			<circle cx="22.379" cy="-68.65" r="0.5"/>
			<circle cx="22.462" cy="-49.671" r="0.5"/>
			<circle cx="22.504" cy="-32.671" r="0.5"/>
			<circle cx="22.546" cy="-83.442" r="0.5"/>
			<circle cx="22.587" cy="-2.858" r="0.5"/>
			<circle cx="22.587" cy="-38.483" r="0.5"/>
			<circle cx="22.837" cy="-29.046" r="0.5"/>
			<circle cx="23.129" cy="-36.4" r="0.5"/>
			<circle cx="23.15" cy="-57.546" r="0.5"/>
			<circle cx="23.192" cy="-75.463" r="0.5"/>
			<circle cx="23.275" cy="-67.233" r="0.5"/>
			<circle cx="23.4" cy="-63.421" r="0.5"/>
			<circle cx="23.442" cy="-81.9" r="0.5"/>
			<circle cx="23.538" cy="-52.588" r="0.5"/>
			<circle cx="23.567" cy="-5.025" r="0.5"/>
			<circle cx="23.692" cy="-10.025" r="0.5"/>
			<circle cx="23.775" cy="-86.541" r="0.5"/>
			<circle cx="23.817" cy="-44.275" r="0.5"/>
			<circle cx="23.879" cy="-47.213" r="0.5"/>
			<circle cx="23.9" cy="-17.546" r="0.5"/>
			<circle cx="24.004" cy="-42.088" r="0.5"/>
			<circle cx="24.192" cy="-14.837" r="0.5"/>
			<circle cx="24.212" cy="-23.733" r="0.5"/>
			<circle cx="24.317" cy="-26.025" r="0.5"/>
			<circle cx="24.317" cy="-68.275" r="0.5"/>
			<circle cx="24.4" cy="-20.796" r="0.5"/>
			<circle cx="24.462" cy="-84.525" r="0.5"/>
			<circle cx="24.567" cy="-78.588" r="0.5"/>
			<circle cx="24.9" cy="-60.671" r="0.5"/>
			<circle cx="24.942" cy="-71.9" r="0.5"/>
			<circle cx="25.129" cy="-36.65" r="0.5"/>
			<circle cx="25.15" cy="-69.733" r="0.5"/>
			<circle cx="25.192" cy="-82.9" r="0.5"/>
			<circle cx="25.212" cy="-58.108" r="0.5"/>
			<circle cx="25.504" cy="-31.837" r="0.5"/>
			<circle cx="25.504" cy="-4.65" r="0.5"/>
			<circle cx="25.567" cy="-12.587" r="0.5"/>
			<circle cx="25.587" cy="-63.983" r="0.5"/>
			<circle cx="25.692" cy="-46.775" r="0.5"/>
			<circle cx="25.712" cy="-2.858" r="0.5"/>
			<circle cx="25.775" cy="-6.608" r="0.5"/>
			<circle cx="25.962" cy="-48.671" r="0.5"/>
			<circle cx="26.004" cy="-74.775" r="0.5"/>
			<circle cx="26.087" cy="-85.666" r="0.5"/>
			<circle cx="26.129" cy="-15.087" r="0.5"/>
			<circle cx="26.15" cy="-38.921" r="0.5"/>
			<circle cx="26.192" cy="-67.838" r="0.5"/>
			<circle cx="26.317" cy="-25.712" r="0.5"/>
			<circle cx="26.379" cy="-55.525" r="0.5"/>
			<circle cx="26.504" cy="-42.338" r="0.5"/>
			<circle cx="26.504" cy="-8.962" r="0.5"/>
			<circle cx="26.692" cy="-44.338" r="0.5"/>
			<circle cx="26.837" cy="-18.046" r="0.5"/>
			<circle cx="26.879" cy="-51.65" r="0.5"/>
			<circle cx="26.942" cy="-83.775" r="0.5"/>
			<circle cx="27.087" cy="-21.296" r="0.5"/>
			<circle cx="27.129" cy="-36.963" r="0.5"/>
			<circle cx="27.212" cy="-24.108" r="0.5"/>
			<circle cx="27.337" cy="-28.171" r="0.5"/>
			<circle cx="27.337" cy="-58.608" r="0.5"/>
			<circle cx="27.442" cy="-77.9" r="0.5"/>
			<circle cx="27.567" cy="-46.525" r="0.5"/>
			<circle cx="27.629" cy="-4.213" r="0.5"/>
			<circle cx="27.65" cy="-86.666" r="0.5"/>
			<circle cx="27.712" cy="-61.358" r="0.5"/>
			<circle cx="27.817" cy="-71.4" r="0.5"/>
			<circle cx="27.837" cy="-64.671" r="0.5"/>
			<circle cx="28.129" cy="-15.4" r="0.5"/>
			<circle cx="28.129" cy="-35.15" r="0.5"/>
			<circle cx="28.129" cy="-81.463" r="0.5"/>
			<circle cx="28.192" cy="-25.4" r="0.5"/>
			<circle cx="28.192" cy="-67.463" r="0.5"/>
			<circle cx="28.379" cy="-11.65" r="0.5"/>
			<circle cx="28.629" cy="-84.838" r="0.5"/>
			<circle cx="29.004" cy="-31.004" r="0.5"/>
			<circle cx="29.004" cy="-42.504" r="0.5"/>
			<circle cx="29.067" cy="-37.275" r="0.5"/>
			<circle cx="29.275" cy="-59.233" r="0.5"/>
			<circle cx="29.337" cy="-47.921" r="0.5"/>
			<circle cx="29.379" cy="-74.15" r="0.5"/>
			<circle cx="29.442" cy="-8.212" r="0.5"/>
			<circle cx="29.462" cy="-68.921" r="0.5"/>
			<circle cx="29.567" cy="-3.838" r="0.5"/>
			<circle cx="29.567" cy="-46.213" r="0.5"/>
			<circle cx="29.629" cy="-54.463" r="0.5"/>
			<circle cx="29.712" cy="-18.608" r="0.5"/>
			<circle cx="29.962" cy="-21.671" r="0.5"/>
			<circle cx="3.004" cy="-2.588" r="0.5"/>
			<circle cx="3.004" cy="-37.838" r="0.5"/>
			<circle cx="3.067" cy="-41.9" r="0.5"/>
			<circle cx="3.088" cy="-78.108" r="0.5"/>
			<circle cx="3.15" cy="-19.108" r="0.5"/>
			<circle cx="3.213" cy="-22.483" r="0.5"/>
			<circle cx="3.338" cy="-80.233" r="0.5"/>
			<circle cx="3.338" cy="-82.296" r="0.5"/>
			<circle cx="3.4" cy="-58.546" r="0.5"/>
			<circle cx="3.4" cy="-65.046" r="0.5"/>
			<circle cx="3.504" cy="-84.504" r="0.5"/>
			<circle cx="3.692" cy="-32.838" r="0.5"/>
			<circle cx="3.692" cy="-75.15" r="0.5"/>
			<circle cx="3.692" cy="-8.65" r="0.5"/>
			<circle cx="3.775" cy="-61.546" r="0.5"/>
			<circle cx="3.838" cy="-54.108" r="0.5"/>
			<circle cx="30.004" cy="-15.712" r="0.5"/>
			<circle cx="30.025" cy="-39.546" r="0.5"/>
			<circle cx="30.067" cy="-77.4" r="0.5"/>
			<circle cx="30.087" cy="-5.733" r="0.5"/>
			<circle cx="30.087" cy="-65.483" r="0.5"/>
			<circle cx="30.087" cy="-85.791" r="0.5"/>
			<circle cx="30.129" cy="-25.087" r="0.5"/>
			<circle cx="30.212" cy="-62.108" r="0.5"/>
			<circle cx="30.254" cy="-50.775" r="0.5"/>
			<circle cx="30.254" cy="-67.004" r="0.5"/>
			<circle cx="30.754" cy="-71.025" r="0.5"/>
			<circle cx="30.942" cy="-34.525" r="0.5"/>
			<circle cx="31.004" cy="-37.588" r="0.5"/>
			<circle cx="31.129" cy="-80.65" r="0.5"/>
			<circle cx="31.15" cy="-59.796" r="0.5"/>
			<circle cx="31.15" cy="-86.791" r="0.5"/>
			<circle cx="31.254" cy="-42.754" r="0.5"/>
			<circle cx="31.317" cy="-10.712" r="0.5"/>
			<circle cx="31.317" cy="-56.588" r="0.5"/>
			<circle cx="31.462" cy="-27.546" r="0.5"/>
			<circle cx="31.504" cy="-3.525" r="0.5"/>
			<circle cx="31.504" cy="-45.9" r="0.5"/>
			<circle cx="31.879" cy="-84.338" r="0.5"/>
			<circle cx="32.004" cy="-13.9" r="0.5"/>
			<circle cx="32.067" cy="-16.087" r="0.5"/>
			<circle cx="32.171" cy="-24.921" r="0.5"/>
			<circle cx="32.254" cy="-66.671" r="0.5"/>
			<circle cx="32.317" cy="-7.588" r="0.5"/>
			<circle cx="32.504" cy="-30.504" r="0.5"/>
			<circle cx="32.525" cy="-19.108" r="0.5"/>
			<circle cx="32.567" cy="-73.838" r="0.5"/>
			<circle cx="32.588" cy="-22.108" r="0.5"/>
			<circle cx="32.588" cy="-62.921" r="0.5"/>
			<circle cx="32.65" cy="-47.358" r="0.5"/>
			<circle cx="32.754" cy="-77.025" r="0.5"/>
			<circle cx="32.942" cy="-37.9" r="0.5"/>
			<circle cx="33.004" cy="-53.9" r="0.5"/>
			<circle cx="33.088" cy="-60.421" r="0.5"/>
			<circle cx="33.213" cy="-68.546" r="0.5"/>
			<circle cx="33.442" cy="-45.588" r="0.5"/>
			<circle cx="33.504" cy="-3.15" r="0.5"/>
			<circle cx="33.754" cy="-50.15" r="0.5"/>
			<circle cx="33.754" cy="-80.088" r="0.5"/>
			<circle cx="33.754" cy="-83.4" r="0.5"/>
			<circle cx="33.817" cy="-70.713" r="0.5"/>
			<circle cx="33.838" cy="-43.004" r="0.5"/>
			<circle cx="33.942" cy="-33.775" r="0.5"/>
			<circle cx="34.067" cy="-16.337" r="0.5"/>
			<circle cx="34.171" cy="-24.754" r="0.5"/>
			<circle cx="34.192" cy="-10.087" r="0.5"/>
			<circle cx="34.338" cy="-40.296" r="0.5"/>
			<circle cx="34.421" cy="-66.421" r="0.5"/>
			<circle cx="34.65" cy="-5.108" r="0.5"/>
			<circle cx="34.775" cy="-22.483" r="0.5"/>
			<circle cx="34.838" cy="-61.046" r="0.5"/>
			<circle cx="34.838" cy="-63.796" r="0.5"/>
			<circle cx="35.004" cy="-38.275" r="0.5"/>
			<circle cx="35.192" cy="-55.963" r="0.5"/>
			<circle cx="35.317" cy="-7.088" r="0.5"/>
			<circle cx="35.338" cy="-19.796" r="0.5"/>
			<circle cx="35.379" cy="-12.962" r="0.5"/>
			<circle cx="35.442" cy="-76.838" r="0.5"/>
			<circle cx="35.442" cy="-82.775" r="0.5"/>
			<circle cx="35.504" cy="-2.9" r="0.5"/>
			<circle cx="35.504" cy="-45.275" r="0.5"/>
			<circle cx="35.525" cy="-27.108" r="0.5"/>
			<circle cx="35.817" cy="-58.9" r="0.5"/>
			<circle cx="35.879" cy="-16.775" r="0.5"/>
			<circle cx="35.879" cy="-36.588" r="0.5"/>
			<circle cx="35.942" cy="-15.025" r="0.5"/>
			<circle cx="36.004" cy="-73.65" r="0.5"/>
			<circle cx="36.275" cy="-43.233" r="0.5"/>
			<circle cx="36.296" cy="-85.838" r="0.5"/>
			<circle cx="36.338" cy="-30.004" r="0.5"/>
			<circle cx="36.4" cy="-46.921" r="0.5"/>
			<circle cx="36.421" cy="-24.587" r="0.5"/>
			<circle cx="36.442" cy="-79.588" r="0.5"/>
			<circle cx="36.588" cy="-66.254" r="0.5"/>
			<circle cx="36.692" cy="-53.4" r="0.5"/>
			<circle cx="36.817" cy="-38.775" r="0.5"/>
			<circle cx="36.879" cy="-33.213" r="0.5"/>
			<circle cx="36.9" cy="-61.858" r="0.5"/>
			<circle cx="36.942" cy="-49.9" r="0.5"/>
			<circle cx="37.004" cy="-70.463" r="0.5"/>
			<circle cx="37.067" cy="-9.462" r="0.5"/>
			<circle cx="37.088" cy="-22.858" r="0.5"/>
			<circle cx="37.15" cy="-68.296" r="0.5"/>
			<circle cx="37.254" cy="-81.9" r="0.5"/>
			<circle cx="37.275" cy="-64.733" r="0.5"/>
			<circle cx="37.442" cy="-45.15" r="0.5"/>
			<circle cx="37.504" cy="-2.713" r="0.5"/>
			<circle cx="37.942" cy="-17.087" r="0.5"/>
			<circle cx="37.942" cy="-76.9" r="0.5"/>
			<circle cx="38.088" cy="-20.421" r="0.5"/>
			<circle cx="38.15" cy="-41.171" r="0.5"/>
			<circle cx="38.254" cy="-12.275" r="0.5"/>
			<circle cx="38.254" cy="-6.65" r="0.5"/>
			<circle cx="38.65" cy="-4.671" r="0.5"/>
			<circle cx="38.754" cy="-39.088" r="0.5"/>
			<circle cx="38.817" cy="-43.525" r="0.5"/>
			<circle cx="38.838" cy="-66.254" r="0.5"/>
			<circle cx="38.879" cy="-55.713" r="0.5"/>
			<circle cx="38.921" cy="-24.254" r="0.5"/>
			<circle cx="38.942" cy="-62.65" r="0.5"/>
			<circle cx="39.004" cy="-35.838" r="0.5"/>
			<circle cx="39.004" cy="-79.275" r="0.5"/>
			<circle cx="39.192" cy="-58.65" r="0.5"/>
			<circle cx="39.192" cy="-81.15" r="0.5"/>
			<circle cx="39.296" cy="-84.525" r="0.5"/>
			<circle cx="39.379" cy="-44.9" r="0.5"/>
			<circle cx="39.4" cy="-26.858" r="0.5"/>
			<circle cx="39.442" cy="-2.65" r="0.5"/>
			<circle cx="39.504" cy="-13.962" r="0.5"/>
			<circle cx="39.629" cy="-29.9" r="0.5"/>
			<circle cx="39.629" cy="-73.838" r="0.5"/>
			<circle cx="39.817" cy="-32.775" r="0.5"/>
			<circle cx="39.879" cy="-17.587" r="0.5"/>
			<circle cx="39.879" cy="-49.713" r="0.5"/>
			<circle cx="4.379" cy="-76.463" r="0.5"/>
			<circle cx="4.4" cy="-25.858" r="0.5"/>
			<circle cx="4.542" cy="-13.087" r="0.5"/>
			<circle cx="4.629" cy="-11.15" r="0.5"/>
			<circle cx="4.963" cy="-34.296" r="0.5"/>
			<circle cx="4.963" cy="-55.046" r="0.5"/>
			<circle cx="40.004" cy="-70.4" r="0.5"/>
			<circle cx="40.004" cy="-9.025" r="0.5"/>
			<circle cx="40.129" cy="-53.15" r="0.5"/>
			<circle cx="40.338" cy="-46.733" r="0.5"/>
			<circle cx="40.442" cy="-76.9" r="0.5"/>
			<circle cx="40.588" cy="-21.046" r="0.5"/>
			<circle cx="40.692" cy="-61.838" r="0.5"/>
			<circle cx="40.713" cy="-63.671" r="0.5"/>
			<circle cx="40.754" cy="-39.525" r="0.5"/>
			<circle cx="40.9" cy="-68.171" r="0.5"/>
			<circle cx="41.129" cy="-80.525" r="0.5"/>
			<circle cx="41.254" cy="-11.712" r="0.5"/>
			<circle cx="41.254" cy="-24.004" r="0.5"/>
			<circle cx="41.254" cy="-6.275" r="0.5"/>
			<circle cx="41.379" cy="-44.775" r="0.5"/>
			<circle cx="41.442" cy="-2.588" r="0.5"/>
			<circle cx="41.504" cy="-66.171" r="0.5"/>
			<circle cx="41.629" cy="-79.088" r="0.5"/>
			<circle cx="41.817" cy="-35.338" r="0.5"/>
			<circle cx="41.879" cy="-17.9" r="0.5"/>
			<circle cx="42.129" cy="-55.713" r="0.5"/>
			<circle cx="42.192" cy="-58.588" r="0.5"/>
			<circle cx="42.213" cy="-42.108" r="0.5"/>
			<circle cx="42.296" cy="-83.192" r="0.5"/>
			<circle cx="42.4" cy="-4.483" r="0.5"/>
			<circle cx="42.4" cy="-64.733" r="0.5"/>
			<circle cx="42.567" cy="-61.025" r="0.5"/>
			<circle cx="42.629" cy="-29.712" r="0.5"/>
			<circle cx="42.692" cy="-14.15" r="0.5"/>
			<circle cx="42.692" cy="-40.025" r="0.5"/>
			<circle cx="42.692" cy="-49.65" r="0.5"/>
			<circle cx="42.713" cy="-21.608" r="0.5"/>
			<circle cx="42.754" cy="-70.525" r="0.5"/>
			<circle cx="42.817" cy="-32.4" r="0.5"/>
			<circle cx="42.879" cy="-74.213" r="0.5"/>
			<circle cx="42.879" cy="-77.025" r="0.5"/>
			<circle cx="43.004" cy="-79.9" r="0.5"/>
			<circle cx="43.004" cy="-8.587" r="0.5"/>
			<circle cx="43.067" cy="-38.4" r="0.5"/>
			<circle cx="43.213" cy="-26.796" r="0.5"/>
			<circle cx="43.317" cy="-2.4" r="0.5"/>
			<circle cx="43.379" cy="-53.338" r="0.5"/>
			<circle cx="43.442" cy="-44.65" r="0.5"/>
			<circle cx="43.754" cy="-18.275" r="0.5"/>
			<circle cx="43.754" cy="-23.837" r="0.5"/>
			<circle cx="43.904" cy="-66.025" r="0.5"/>
			<circle cx="44.025" cy="-46.608" r="0.5"/>
			<circle cx="44.129" cy="-11.4" r="0.5"/>
			<circle cx="44.129" cy="-6.088" r="0.5"/>
			<circle cx="44.442" cy="-60.338" r="0.5"/>
			<circle cx="44.567" cy="-40.463" r="0.5"/>
			<circle cx="44.754" cy="-34.963" r="0.5"/>
			<circle cx="44.775" cy="-22.233" r="0.5"/>
			<circle cx="44.879" cy="-58.713" r="0.5"/>
			<circle cx="44.879" cy="-79.338" r="0.5"/>
			<circle cx="45.15" cy="-68.233" r="0.5"/>
			<circle cx="45.254" cy="-77.275" r="0.5"/>
			<circle cx="45.463" cy="-82.108" r="0.5"/>
			<circle cx="45.504" cy="-29.712" r="0.5"/>
			<circle cx="45.504" cy="-55.963" r="0.5"/>
			<circle cx="45.567" cy="-2.463" r="0.5"/>
			<circle cx="45.629" cy="-70.588" r="0.5"/>
			<circle cx="45.689" cy="-49.764" r="0.5"/>
			<circle cx="45.692" cy="-13.962" r="0.5"/>
			<circle cx="45.692" cy="-18.65" r="0.5"/>
			<circle cx="45.692" cy="-32.213" r="0.5"/>
			<circle cx="45.879" cy="-53.588" r="0.5"/>
			<circle cx="45.963" cy="-43.046" r="0.5"/>
			<circle cx="46.004" cy="-23.754" r="0.5"/>
			<circle cx="46.004" cy="-8.525" r="0.5"/>
			<circle cx="46.067" cy="-74.65" r="0.5"/>
			<circle cx="46.129" cy="-37.588" r="0.5"/>
			<circle cx="46.15" cy="-4.358" r="0.5"/>
			<circle cx="46.192" cy="-44.65" r="0.5"/>
			<circle cx="46.192" cy="-66.025" r="0.5"/>
			<circle cx="46.379" cy="-59.775" r="0.5"/>
			<circle cx="46.504" cy="-40.963" r="0.5"/>
			<circle cx="46.879" cy="-78.838" r="0.5"/>
			<circle cx="46.9" cy="-26.858" r="0.5"/>
			<circle cx="47.004" cy="-11.212" r="0.5"/>
			<circle cx="47.129" cy="-6.088" r="0.5"/>
			<circle cx="47.296" cy="-85.942" r="0.5"/>
			<circle cx="47.504" cy="-2.463" r="0.5"/>
			<circle cx="47.567" cy="-19.212" r="0.5"/>
			<circle cx="47.692" cy="-34.65" r="0.5"/>
			<circle cx="47.838" cy="-46.796" r="0.5"/>
			<circle cx="47.942" cy="-56.338" r="0.5"/>
			<circle cx="48.067" cy="-66.088" r="0.5"/>
			<circle cx="48.192" cy="-16.837" r="0.5"/>
			<circle cx="48.192" cy="-53.775" r="0.5"/>
			<circle cx="48.317" cy="-59.088" r="0.5"/>
			<circle cx="48.379" cy="-23.837" r="0.5"/>
			<circle cx="48.379" cy="-44.775" r="0.5"/>
			<circle cx="48.442" cy="-41.4" r="0.5"/>
			<circle cx="48.442" cy="-49.9" r="0.5"/>
			<circle cx="48.463" cy="-64.108" r="0.5"/>
			<circle cx="48.504" cy="-14.025" r="0.5"/>
			<circle cx="48.567" cy="-29.775" r="0.5"/>
			<circle cx="48.567" cy="-81.108" r="0.5"/>
			<circle cx="48.629" cy="-70.963" r="0.5"/>
			<circle cx="48.692" cy="-75.088" r="0.5"/>
			<circle cx="48.754" cy="-32.025" r="0.5"/>
			<circle cx="48.754" cy="-39.463" r="0.5"/>
			<circle cx="48.754" cy="-78.4" r="0.5"/>
			<circle cx="49.004" cy="-8.462" r="0.5"/>
			<circle cx="49.088" cy="-68.421" r="0.5"/>
			<circle cx="49.504" cy="-19.65" r="0.5"/>
			<circle cx="49.504" cy="-36.9" r="0.5"/>
			<circle cx="49.567" cy="-11.275" r="0.5"/>
			<circle cx="49.567" cy="-2.588" r="0.5"/>
			<circle cx="49.629" cy="-85.025" r="0.5"/>
			<circle cx="5.213" cy="-53.296" r="0.5"/>
			<circle cx="5.213" cy="-70.858" r="0.5"/>
			<circle cx="5.317" cy="-32.025" r="0.5"/>
			<circle cx="5.338" cy="-67.858" r="0.5"/>
			<circle cx="5.338" cy="-78.358" r="0.5"/>
			<circle cx="5.379" cy="-74.275" r="0.5"/>
			<circle cx="5.588" cy="-29.358" r="0.5"/>
			<circle cx="5.754" cy="-48.525" r="0.5"/>
			<circle cx="5.754" cy="-50.463" r="0.5"/>
			<circle cx="5.775" cy="-19.233" r="0.5"/>
			<circle cx="5.817" cy="-45.025" r="0.5"/>
			<circle cx="5.942" cy="-5.588" r="0.5"/>
			<circle cx="5.963" cy="-80.483" r="0.5"/>
			<circle cx="50.004" cy="-16.025" r="0.5"/>
			<circle cx="50.025" cy="-4.483" r="0.5"/>
			<circle cx="50.192" cy="-6.213" r="0.5"/>
			<circle cx="50.254" cy="-66.213" r="0.5"/>
			<circle cx="50.317" cy="-41.838" r="0.5"/>
			<circle cx="50.317" cy="-58.713" r="0.5"/>
			<circle cx="50.379" cy="-54.025" r="0.5"/>
			<circle cx="50.442" cy="-23.962" r="0.5"/>
			<circle cx="50.442" cy="-45.025" r="0.5"/>
			<circle cx="50.442" cy="-56.65" r="0.5"/>
			<circle cx="50.567" cy="-34.65" r="0.5"/>
			<circle cx="50.754" cy="-77.963" r="0.5"/>
			<circle cx="50.942" cy="-71.4" r="0.5"/>
			<circle cx="50.963" cy="-27.046" r="0.5"/>
			<circle cx="51.067" cy="-14.337" r="0.5"/>
			<circle cx="51.067" cy="-50.15" r="0.5"/>
			<circle cx="51.129" cy="-75.525" r="0.5"/>
			<circle cx="51.379" cy="-39.088" r="0.5"/>
			<circle cx="51.504" cy="-2.838" r="0.5"/>
			<circle cx="51.504" cy="-20.087" r="0.5"/>
			<circle cx="51.629" cy="-31.9" r="0.5"/>
			<circle cx="51.65" cy="-47.233" r="0.5"/>
			<circle cx="51.879" cy="-15.4" r="0.5"/>
			<circle cx="51.879" cy="-80.192" r="0.5"/>
			<circle cx="51.942" cy="-29.9" r="0.5"/>
			<circle cx="51.942" cy="-8.775" r="0.5"/>
			<circle cx="52.129" cy="-66.463" r="0.5"/>
			<circle cx="52.129" cy="-84.025" r="0.5"/>
			<circle cx="52.192" cy="-11.462" r="0.5"/>
			<circle cx="52.192" cy="-58.4" r="0.5"/>
			<circle cx="52.317" cy="-42.4" r="0.5"/>
			<circle cx="52.379" cy="-24.212" r="0.5"/>
			<circle cx="52.379" cy="-45.15" r="0.5"/>
			<circle cx="52.504" cy="-54.338" r="0.5"/>
			<circle cx="52.629" cy="-77.65" r="0.5"/>
			<circle cx="52.692" cy="-36.65" r="0.5"/>
			<circle cx="52.817" cy="-56.963" r="0.5"/>
			<circle cx="52.9" cy="-62.796" r="0.5"/>
			<circle cx="53.067" cy="-6.588" r="0.5"/>
			<circle cx="53.379" cy="-20.587" r="0.5"/>
			<circle cx="53.379" cy="-34.463" r="0.5"/>
			<circle cx="53.379" cy="-76.025" r="0.5"/>
			<circle cx="53.442" cy="-71.963" r="0.5"/>
			<circle cx="53.463" cy="-68.858" r="0.5"/>
			<circle cx="53.504" cy="-3.15" r="0.5"/>
			<circle cx="53.817" cy="-14.9" r="0.5"/>
			<circle cx="53.942" cy="-50.65" r="0.5"/>
			<circle cx="53.963" cy="-4.921" r="0.5"/>
			<circle cx="54.067" cy="-58.025" r="0.5"/>
			<circle cx="54.129" cy="-38.838" r="0.5"/>
			<circle cx="54.129" cy="-66.65" r="0.5"/>
			<circle cx="54.192" cy="-43.088" r="0.5"/>
			<circle cx="54.254" cy="-45.4" r="0.5"/>
			<circle cx="54.317" cy="-24.462" r="0.5"/>
			<circle cx="54.379" cy="-83.358" r="0.5"/>
			<circle cx="54.442" cy="-11.712" r="0.5"/>
			<circle cx="54.567" cy="-77.275" r="0.5"/>
			<circle cx="54.629" cy="-54.775" r="0.5"/>
			<circle cx="54.692" cy="-32.15" r="0.5"/>
			<circle cx="54.879" cy="-41.463" r="0.5"/>
			<circle cx="54.963" cy="-27.421" r="0.5"/>
			<circle cx="55.004" cy="-9.087" r="0.5"/>
			<circle cx="55.046" cy="-18.775" r="0.5"/>
			<circle cx="55.192" cy="-36.65" r="0.5"/>
			<circle cx="55.254" cy="-30.087" r="0.5"/>
			<circle cx="55.296" cy="-79.525" r="0.5"/>
			<circle cx="55.317" cy="-21.212" r="0.5"/>
			<circle cx="55.504" cy="-3.338" r="0.5"/>
			<circle cx="55.692" cy="-14.4" r="0.5"/>
			<circle cx="55.775" cy="-47.858" r="0.5"/>
			<circle cx="55.817" cy="-34.525" r="0.5"/>
			<circle cx="55.879" cy="-72.463" r="0.5"/>
			<circle cx="56.004" cy="-57.65" r="0.5"/>
			<circle cx="56.129" cy="-6.9" r="0.5"/>
			<circle cx="56.129" cy="-66.963" r="0.5"/>
			<circle cx="56.192" cy="-43.775" r="0.5"/>
			<circle cx="56.254" cy="-24.712" r="0.5"/>
			<circle cx="56.317" cy="-45.713" r="0.5"/>
			<circle cx="56.358" cy="-86.717" r="0.5"/>
			<circle cx="56.379" cy="-12.025" r="0.5"/>
			<circle cx="56.379" cy="-38.963" r="0.5"/>
			<circle cx="56.567" cy="-76.963" r="0.5"/>
			<circle cx="56.629" cy="-40.463" r="0.5"/>
			<circle cx="56.692" cy="-55.15" r="0.5"/>
			<circle cx="56.796" cy="-82.692" r="0.5"/>
			<circle cx="56.817" cy="-51.338" r="0.5"/>
			<circle cx="57.15" cy="-5.233" r="0.5"/>
			<circle cx="57.254" cy="-21.712" r="0.5"/>
			<circle cx="57.317" cy="-36.775" r="0.5"/>
			<circle cx="57.463" cy="-61.733" r="0.5"/>
			<circle cx="57.463" cy="-65.483" r="0.5"/>
			<circle cx="57.463" cy="-69.546" r="0.5"/>
			<circle cx="57.504" cy="-3.65" r="0.5"/>
			<circle cx="57.629" cy="-14.025" r="0.5"/>
			<circle cx="57.692" cy="-32.4" r="0.5"/>
			<circle cx="57.754" cy="-9.65" r="0.5"/>
			<circle cx="57.817" cy="-34.775" r="0.5"/>
			<circle cx="58.067" cy="-44.463" r="0.5"/>
			<circle cx="58.067" cy="-57.338" r="0.5"/>
			<circle cx="58.129" cy="-67.275" r="0.5"/>
			<circle cx="58.254" cy="-12.462" r="0.5"/>
			<circle cx="58.254" cy="-30.462" r="0.5"/>
			<circle cx="58.254" cy="-45.963" r="0.5"/>
			<circle cx="58.317" cy="-24.9" r="0.5"/>
			<circle cx="58.379" cy="-39.525" r="0.5"/>
			<circle cx="58.379" cy="-73.15" r="0.5"/>
			<circle cx="58.463" cy="-27.921" r="0.5"/>
			<circle cx="58.567" cy="-76.838" r="0.5"/>
			<circle cx="58.942" cy="-55.65" r="0.5"/>
			<circle cx="59.046" cy="-17.608" r="0.5"/>
			<circle cx="59.046" cy="-82.108" r="0.5"/>
			<circle cx="59.067" cy="-7.525" r="0.5"/>
			<circle cx="59.129" cy="-22.337" r="0.5"/>
			<circle cx="59.213" cy="-78.858" r="0.5"/>
			<circle cx="59.296" cy="-85.467" r="0.5"/>
			<circle cx="59.317" cy="-3.963" r="0.5"/>
			<circle cx="59.379" cy="-37.275" r="0.5"/>
			<circle cx="59.4" cy="-48.608" r="0.5"/>
			<circle cx="59.442" cy="-52.025" r="0.5"/>
			<circle cx="59.567" cy="-13.712" r="0.5"/>
			<circle cx="59.692" cy="-35.025" r="0.5"/>
			<circle cx="6.004" cy="-2.838" r="0.5"/>
			<circle cx="6.088" cy="-64.983" r="0.5"/>
			<circle cx="6.129" cy="-41.838" r="0.5"/>
			<circle cx="6.15" cy="-82.421" r="0.5"/>
			<circle cx="6.213" cy="-15.546" r="0.5"/>
			<circle cx="6.275" cy="-37.671" r="0.5"/>
			<circle cx="6.379" cy="-13.087" r="0.5"/>
			<circle cx="6.379" cy="-76.588" r="0.5"/>
			<circle cx="6.504" cy="-10.337" r="0.5"/>
			<circle cx="6.65" cy="-58.608" r="0.5"/>
			<circle cx="6.671" cy="-84.838" r="0.5"/>
			<circle cx="6.692" cy="-52.463" r="0.5"/>
			<circle cx="6.713" cy="-61.483" r="0.5"/>
			<circle cx="6.838" cy="-22.608" r="0.5"/>
			<circle cx="6.963" cy="-34.546" r="0.5"/>
			<circle cx="60.004" cy="-56.963" r="0.5"/>
			<circle cx="60.067" cy="-67.525" r="0.5"/>
			<circle cx="60.192" cy="-10.212" r="0.5"/>
			<circle cx="60.192" cy="-38.713" r="0.5"/>
			<circle cx="60.254" cy="-25.275" r="0.5"/>
			<circle cx="60.254" cy="-46.338" r="0.5"/>
			<circle cx="60.275" cy="-5.733" r="0.5"/>
			<circle cx="60.567" cy="-76.65" r="0.5"/>
			<circle cx="60.629" cy="-32.775" r="0.5"/>
			<circle cx="60.817" cy="-73.963" r="0.5"/>
			<circle cx="61.004" cy="-30.837" r="0.5"/>
			<circle cx="61.067" cy="-23.025" r="0.5"/>
			<circle cx="61.171" cy="-20.921" r="0.5"/>
			<circle cx="61.192" cy="-4.338" r="0.5"/>
			<circle cx="61.338" cy="-70.171" r="0.5"/>
			<circle cx="61.4" cy="-42.546" r="0.5"/>
			<circle cx="61.463" cy="-81.692" r="0.5"/>
			<circle cx="61.567" cy="-13.525" r="0.5"/>
			<circle cx="61.629" cy="-35.338" r="0.5"/>
			<circle cx="61.817" cy="-52.713" r="0.5"/>
			<circle cx="61.838" cy="-28.421" r="0.5"/>
			<circle cx="61.879" cy="-56.713" r="0.5"/>
			<circle cx="61.963" cy="-60.796" r="0.5"/>
			<circle cx="61.963" cy="-64.483" r="0.5"/>
			<circle cx="62.004" cy="-8.275" r="0.5"/>
			<circle cx="62.067" cy="-67.9" r="0.5"/>
			<circle cx="62.129" cy="-46.713" r="0.5"/>
			<circle cx="62.171" cy="-84.467" r="0.5"/>
			<circle cx="62.254" cy="-25.65" r="0.5"/>
			<circle cx="62.254" cy="-37.838" r="0.5"/>
			<circle cx="62.442" cy="-10.837" r="0.5"/>
			<circle cx="62.504" cy="-76.4" r="0.5"/>
			<circle cx="62.942" cy="-23.712" r="0.5"/>
			<circle cx="63.004" cy="-33.213" r="0.5"/>
			<circle cx="63.025" cy="-49.671" r="0.5"/>
			<circle cx="63.192" cy="-74.775" r="0.5"/>
			<circle cx="63.213" cy="-78.442" r="0.5"/>
			<circle cx="63.254" cy="-4.921" r="0.5"/>
			<circle cx="63.421" cy="-16.733" r="0.5"/>
			<circle cx="63.463" cy="-6.358" r="0.5"/>
			<circle cx="63.504" cy="-35.838" r="0.5"/>
			<circle cx="63.567" cy="-13.337" r="0.5"/>
			<circle cx="63.879" cy="-56.463" r="0.5"/>
			<circle cx="63.879" cy="-81.275" r="0.5"/>
			<circle cx="64.004" cy="-31.4" r="0.5"/>
			<circle cx="64.067" cy="-68.338" r="0.5"/>
			<circle cx="64.129" cy="-47.088" r="0.5"/>
			<circle cx="64.192" cy="-26.087" r="0.5"/>
			<circle cx="64.192" cy="-53.463" r="0.5"/>
			<circle cx="64.338" cy="-37.171" r="0.5"/>
			<circle cx="64.442" cy="-11.462" r="0.5"/>
			<circle cx="64.442" cy="-76.275" r="0.5"/>
			<circle cx="64.692" cy="-24.462" r="0.5"/>
			<circle cx="64.754" cy="-44.838" r="0.5"/>
			<circle cx="64.754" cy="-9.025" r="0.5"/>
			<circle cx="65.025" cy="-28.983" r="0.5"/>
			<circle cx="65.025" cy="-41.171" r="0.5"/>
			<circle cx="65.108" cy="-20.296" r="0.5"/>
			<circle cx="65.233" cy="-83.779" r="0.5"/>
			<circle cx="65.254" cy="-34.088" r="0.5"/>
			<circle cx="65.338" cy="-71.046" r="0.5"/>
			<circle cx="65.421" cy="-5.504" r="0.5"/>
			<circle cx="65.442" cy="-3.463" r="0.5"/>
			<circle cx="65.567" cy="-13.275" r="0.5"/>
			<circle cx="65.817" cy="-56.275" r="0.5"/>
			<circle cx="65.9" cy="-63.733" r="0.5"/>
			<circle cx="65.942" cy="-26.337" r="0.5"/>
			<circle cx="66.004" cy="-68.713" r="0.5"/>
			<circle cx="66.129" cy="-47.4" r="0.5"/>
			<circle cx="66.15" cy="-50.733" r="0.5"/>
			<circle cx="66.421" cy="-36.504" r="0.5"/>
			<circle cx="66.442" cy="-76.088" r="0.5"/>
			<circle cx="66.525" cy="-60.108" r="0.5"/>
			<circle cx="66.588" cy="-7.233" r="0.5"/>
			<circle cx="66.629" cy="-25.212" r="0.5"/>
			<circle cx="66.629" cy="-54.338" r="0.5"/>
			<circle cx="66.713" cy="-80.942" r="0.5"/>
			<circle cx="66.942" cy="-31.962" r="0.5"/>
			<circle cx="66.942" cy="-77.921" r="0.5"/>
			<circle cx="67.254" cy="-34.963" r="0.5"/>
			<circle cx="67.504" cy="-13.087" r="0.5"/>
			<circle cx="67.733" cy="-16.046" r="0.5"/>
			<circle cx="67.754" cy="-10.025" r="0.5"/>
			<circle cx="67.754" cy="-43.9" r="0.5"/>
			<circle cx="67.838" cy="-5.966" r="0.5"/>
			<circle cx="67.879" cy="-69.15" r="0.5"/>
			<circle cx="67.942" cy="-2.4" r="0.5"/>
			<circle cx="67.942" cy="-56.025" r="0.5"/>
			<circle cx="68.004" cy="-26.837" r="0.5"/>
			<circle cx="68.004" cy="-47.838" r="0.5"/>
			<circle cx="68.15" cy="-29.608" r="0.5"/>
			<circle cx="68.171" cy="-83.217" r="0.5"/>
			<circle cx="68.504" cy="-76.025" r="0.5"/>
			<circle cx="68.588" cy="-40.171" r="0.5"/>
			<circle cx="68.713" cy="-67.358" r="0.5"/>
			<circle cx="68.733" cy="-23.608" r="0.5"/>
			<circle cx="68.775" cy="-72.046" r="0.5"/>
			<circle cx="69.004" cy="-36.004" r="0.5"/>
			<circle cx="69.275" cy="-52.108" r="0.5"/>
			<circle cx="69.296" cy="-19.796" r="0.5"/>
			<circle cx="69.338" cy="-63.171" r="0.5"/>
			<circle cx="69.4" cy="-8.108" r="0.5"/>
			<circle cx="69.567" cy="-13.087" r="0.5"/>
			<circle cx="69.692" cy="-32.525" r="0.5"/>
			<circle cx="69.754" cy="-69.588" r="0.5"/>
			<circle cx="69.879" cy="-27.275" r="0.5"/>
			<circle cx="69.879" cy="-48.463" r="0.5"/>
			<circle cx="69.879" cy="-55.838" r="0.5"/>
			<circle cx="69.879" cy="-80.525" r="0.5"/>
			<circle cx="7.129" cy="-31.087" r="0.5"/>
			<circle cx="7.129" cy="-73.338" r="0.5"/>
			<circle cx="7.15" cy="-55.171" r="0.5"/>
			<circle cx="7.338" cy="-70.921" r="0.5"/>
			<circle cx="7.546" cy="-78.692" r="0.5"/>
			<circle cx="70.192" cy="-77.671" r="0.5"/>
			<circle cx="70.338" cy="-6.671" r="0.5"/>
			<circle cx="70.442" cy="-11.087" r="0.5"/>
			<circle cx="70.504" cy="-75.963" r="0.5"/>
			<circle cx="70.692" cy="-43.338" r="0.5"/>
			<circle cx="70.921" cy="-86.4" r="0.5"/>
			<circle cx="70.983" cy="-82.842" r="0.5"/>
			<circle cx="71.15" cy="-30.483" r="0.5"/>
			<circle cx="71.171" cy="-35.588" r="0.5"/>
			<circle cx="71.504" cy="-13.087" r="0.5"/>
			<circle cx="71.588" cy="-59.421" r="0.5"/>
			<circle cx="71.692" cy="-70.088" r="0.5"/>
			<circle cx="71.817" cy="-55.65" r="0.5"/>
			<circle cx="71.838" cy="-66.733" r="0.5"/>
			<circle cx="71.879" cy="-27.837" r="0.5"/>
			<circle cx="71.879" cy="-48.9" r="0.5"/>
			<circle cx="71.983" cy="-15.671" r="0.5"/>
			<circle cx="72.025" cy="-73.046" r="0.5"/>
			<circle cx="72.025" cy="-9.108" r="0.5"/>
			<circle cx="72.15" cy="-53.421" r="0.5"/>
			<circle cx="72.317" cy="-33.088" r="0.5"/>
			<circle cx="72.338" cy="-5.338" r="0.5"/>
			<circle cx="72.442" cy="-76.025" r="0.5"/>
			<circle cx="72.588" cy="-39.296" r="0.5"/>
			<circle cx="72.629" cy="-80.275" r="0.5"/>
			<circle cx="72.754" cy="-7.421" r="0.5"/>
			<circle cx="72.796" cy="-19.421" r="0.5"/>
			<circle cx="72.963" cy="-62.671" r="0.5"/>
			<circle cx="73.379" cy="-35.213" r="0.5"/>
			<circle cx="73.379" cy="-77.483" r="0.5"/>
			<circle cx="73.504" cy="-13.087" r="0.5"/>
			<circle cx="73.504" cy="-42.838" r="0.5"/>
			<circle cx="73.588" cy="-31.171" r="0.5"/>
			<circle cx="73.629" cy="-70.588" r="0.5"/>
			<circle cx="73.733" cy="-23.233" r="0.5"/>
			<circle cx="73.754" cy="-28.4" r="0.5"/>
			<circle cx="73.817" cy="-49.4" r="0.5"/>
			<circle cx="73.817" cy="-55.588" r="0.5"/>
			<circle cx="73.921" cy="-82.592" r="0.5"/>
			<circle cx="73.983" cy="-85.713" r="0.5"/>
			<circle cx="74.442" cy="-75.963" r="0.5"/>
			<circle cx="74.65" cy="-10.233" r="0.5"/>
			<circle cx="74.65" cy="-66.296" r="0.5"/>
			<circle cx="74.838" cy="-7.921" r="0.5"/>
			<circle cx="74.921" cy="-4.254" r="0.5"/>
			<circle cx="75.067" cy="-33.713" r="0.5"/>
			<circle cx="75.15" cy="-74.233" r="0.5"/>
			<circle cx="75.379" cy="-34.9" r="0.5"/>
			<circle cx="75.379" cy="-80.192" r="0.5"/>
			<circle cx="75.567" cy="-71.213" r="0.5"/>
			<circle cx="75.629" cy="-13.087" r="0.5"/>
			<circle cx="75.629" cy="-47.338" r="0.5"/>
			<circle cx="75.692" cy="-28.962" r="0.5"/>
			<circle cx="75.754" cy="-50.025" r="0.5"/>
			<circle cx="75.796" cy="-15.421" r="0.5"/>
			<circle cx="75.817" cy="-55.463" r="0.5"/>
			<circle cx="75.838" cy="-69.483" r="0.5"/>
			<circle cx="75.963" cy="-58.983" r="0.5"/>
			<circle cx="75.983" cy="-19.296" r="0.5"/>
			<circle cx="76.129" cy="-32.025" r="0.5"/>
			<circle cx="76.129" cy="-77.358" r="0.5"/>
			<circle cx="76.338" cy="-62.358" r="0.5"/>
			<circle cx="76.4" cy="-38.671" r="0.5"/>
			<circle cx="76.567" cy="-75.963" r="0.5"/>
			<circle cx="76.629" cy="-42.525" r="0.5"/>
			<circle cx="76.733" cy="-27.108" r="0.5"/>
			<circle cx="76.817" cy="-8.4" r="0.5"/>
			<circle cx="76.858" cy="-82.404" r="0.5"/>
			<circle cx="76.963" cy="-11.421" r="0.5"/>
			<circle cx="77.233" cy="-85.213" r="0.5"/>
			<circle cx="77.275" cy="-65.921" r="0.5"/>
			<circle cx="77.379" cy="-34.588" r="0.5"/>
			<circle cx="77.442" cy="-71.775" r="0.5"/>
			<circle cx="77.567" cy="-29.587" r="0.5"/>
			<circle cx="77.629" cy="-13.025" r="0.5"/>
			<circle cx="77.629" cy="-50.713" r="0.5"/>
			<circle cx="77.788" cy="-3.504" r="0.5"/>
			<circle cx="77.879" cy="-55.4" r="0.5"/>
			<circle cx="78.046" cy="-80.025" r="0.5"/>
			<circle cx="78.504" cy="-46.65" r="0.5"/>
			<circle cx="78.546" cy="-32.942" r="0.5"/>
			<circle cx="78.629" cy="-77.358" r="0.5"/>
			<circle cx="78.629" cy="-9.025" r="0.5"/>
			<circle cx="78.754" cy="-76.088" r="0.5"/>
			<circle cx="78.775" cy="-68.983" r="0.5"/>
			<circle cx="78.858" cy="-22.733" r="0.5"/>
			<circle cx="79.046" cy="-19.108" r="0.5"/>
			<circle cx="79.379" cy="-72.463" r="0.5"/>
			<circle cx="79.504" cy="-30.275" r="0.5"/>
			<circle cx="79.504" cy="-51.4" r="0.5"/>
			<circle cx="79.525" cy="-34.421" r="0.5"/>
			<circle cx="79.525" cy="-61.983" r="0.5"/>
			<circle cx="79.567" cy="-13.025" r="0.5"/>
			<circle cx="79.608" cy="-15.296" r="0.5"/>
			<circle cx="79.629" cy="-42.15" r="0.5"/>
			<circle cx="79.817" cy="-6.838" r="0.5"/>
			<circle cx="79.879" cy="-55.275" r="0.5"/>
			<circle cx="8.212" cy="-67.796" r="0.5"/>
			<circle cx="8.275" cy="-29.046" r="0.5"/>
			<circle cx="8.317" cy="-9.525" r="0.5"/>
			<circle cx="8.337" cy="-25.733" r="0.5"/>
			<circle cx="8.379" cy="-13.212" r="0.5"/>
			<circle cx="8.379" cy="-76.963" r="0.5"/>
			<circle cx="8.442" cy="-51.713" r="0.5"/>
			<circle cx="8.567" cy="-75.338" r="0.5"/>
			<circle cx="8.587" cy="-80.858" r="0.5"/>
			<circle cx="8.65" cy="-64.983" r="0.5"/>
			<circle cx="8.692" cy="-47.963" r="0.5"/>
			<circle cx="8.692" cy="-49.525" r="0.5"/>
			<circle cx="8.775" cy="-19.421" r="0.5"/>
			<circle cx="8.817" cy="-44.775" r="0.5"/>
			<circle cx="8.942" cy="-30.337" r="0.5"/>
			<circle cx="8.942" cy="-5.9" r="0.5"/>
			<circle cx="8.942" cy="-72.525" r="0.5"/>
			<circle cx="80.108" cy="-82.279" r="0.5"/>
			<circle cx="80.108" cy="-84.775" r="0.5"/>
			<circle cx="80.15" cy="-65.608" r="0.5"/>
			<circle cx="80.275" cy="-38.233" r="0.5"/>
			<circle cx="80.275" cy="-58.733" r="0.5"/>
			<circle cx="80.504" cy="-9.775" r="0.5"/>
			<circle cx="80.588" cy="-2.921" r="0.5"/>
			<circle cx="80.713" cy="-80.025" r="0.5"/>
			<circle cx="80.879" cy="-76.088" r="0.5"/>
			<circle cx="81.004" cy="-77.421" r="0.5"/>
			<circle cx="81.108" cy="-26.546" r="0.5"/>
			<circle cx="81.192" cy="-73.275" r="0.5"/>
			<circle cx="81.317" cy="-31.087" r="0.5"/>
			<circle cx="81.379" cy="-52.213" r="0.5"/>
			<circle cx="81.4" cy="-34.296" r="0.5"/>
			<circle cx="81.567" cy="-46.025" r="0.5"/>
			<circle cx="81.588" cy="-68.483" r="0.5"/>
			<circle cx="81.629" cy="-12.962" r="0.5"/>
			<circle cx="81.879" cy="-55.213" r="0.5"/>
			<circle cx="82.171" cy="-19.108" r="0.5"/>
			<circle cx="82.254" cy="-50.213" r="0.5"/>
			<circle cx="82.317" cy="-10.65" r="0.5"/>
			<circle cx="82.463" cy="-71.796" r="0.5"/>
			<circle cx="82.567" cy="-41.963" r="0.5"/>
			<circle cx="82.629" cy="-6.15" r="0.5"/>
			<circle cx="82.713" cy="-61.796" r="0.5"/>
			<circle cx="82.838" cy="-65.358" r="0.5"/>
			<circle cx="82.858" cy="-82.217" r="0.5"/>
			<circle cx="82.983" cy="-84.588" r="0.5"/>
			<circle cx="83.004" cy="-2.671" r="0.5"/>
			<circle cx="83.004" cy="-74.088" r="0.5"/>
			<circle cx="83.129" cy="-31.775" r="0.5"/>
			<circle cx="83.129" cy="-76.338" r="0.5"/>
			<circle cx="83.192" cy="-53.088" r="0.5"/>
			<circle cx="83.317" cy="-77.608" r="0.5"/>
			<circle cx="83.379" cy="-80.108" r="0.5"/>
			<circle cx="83.588" cy="-34.171" r="0.5"/>
			<circle cx="83.754" cy="-13.087" r="0.5"/>
			<circle cx="83.858" cy="-15.296" r="0.5"/>
			<circle cx="83.879" cy="-55.213" r="0.5"/>
			<circle cx="83.963" cy="-37.921" r="0.5"/>
			<circle cx="84.108" cy="-22.483" r="0.5"/>
			<circle cx="84.129" cy="-11.525" r="0.5"/>
			<circle cx="84.338" cy="-58.608" r="0.5"/>
			<circle cx="84.442" cy="-45.588" r="0.5"/>
			<circle cx="84.65" cy="-68.171" r="0.5"/>
			<circle cx="84.817" cy="-53.963" r="0.5"/>
			<circle cx="84.879" cy="-32.838" r="0.5"/>
			<circle cx="84.879" cy="-74.963" r="0.5"/>
			<circle cx="84.921" cy="-30.171" r="0.5"/>
			<circle cx="85.067" cy="-49.4" r="0.5"/>
			<circle cx="85.129" cy="-51.9" r="0.5"/>
			<circle cx="85.171" cy="-19.108" r="0.5"/>
			<circle cx="85.233" cy="-26.108" r="0.5"/>
			<circle cx="85.317" cy="-9.15" r="0.5"/>
			<circle cx="85.379" cy="-76.338" r="0.5"/>
			<circle cx="85.504" cy="-12.962" r="0.5"/>
			<circle cx="85.504" cy="-2.525" r="0.5"/>
			<circle cx="85.567" cy="-41.9" r="0.5"/>
			<circle cx="85.588" cy="-65.046" r="0.5"/>
			<circle cx="85.629" cy="-77.796" r="0.5"/>
			<circle cx="85.713" cy="-34.046" r="0.5"/>
			<circle cx="85.713" cy="-61.546" r="0.5"/>
			<circle cx="85.713" cy="-80.025" r="0.5"/>
			<circle cx="85.754" cy="-5.588" r="0.5"/>
			<circle cx="85.754" cy="-82.238" r="0.5"/>
			<circle cx="85.754" cy="-84.504" r="0.5"/>
			<circle cx="85.775" cy="-71.233" r="0.5"/>
			<circle cx="85.879" cy="-55.088" r="0.5"/>
			<circle cx="9.004" cy="-3.15" r="0.5"/>
			<circle cx="9.025" cy="-34.608" r="0.5"/>
			<circle cx="9.067" cy="-41.713" r="0.5"/>
			<circle cx="9.15" cy="-55.296" r="0.5"/>
			<circle cx="9.275" cy="-37.671" r="0.5"/>
			<circle cx="9.337" cy="-82.858" r="0.5"/>
			<circle cx="9.4" cy="-70.983" r="0.5"/>
			<circle cx="9.587" cy="-58.733" r="0.5"/>
			<circle cx="9.796" cy="-79.192" r="0.5"/>
			<circle cx="9.9" cy="-15.796" r="0.5"/>
		</g>
	</g>
</svg>
