<?xml version="1.0" encoding="utf-8"?>
<svg xmlns="http://www.w3.org/2000/svg" version="1.1" x="0px" y="0px" xml:space="preserve" width="54.125" height="54.125" viewBox="1.817 -55.725 54.125 54.125">
	<metadata id="metadata2">
	<rdf:RDF
		xmlns:dc="http://purl.org/dc/elements/1.1/"
		xmlns:cc="http://creativecommons.org/ns#"
		xmlns:rdf="http://www.w3.org/1999/02/22-rdf-syntax-ns#"
		xmlns="http://my.netscape.com/rdf/simple/0.9/">
		<item rdf:ID="biblio1">
			<link>rdf:resource="http://pubs.usgs.gov/tm/2006/11A02/</link>
			<title>U.S. Geological Survey, 2006, FGDC Digital Cartographic Standard for Geologic Map Symbolization (PostScript Implementation): U.S. Geological Survey Techniques and Methods 11-A2</title>
		</item>
		<item rdf:ID="biblio2">
			<link>https://davenquinn.com/projects/geologic-patterns/</link>
			<title>FGDC Geologic Patterns for the Web</title>
		</item>
		<rdf:Description>
			<dc:description>Converted from 'FGDC Geologic Patterns for the Web' to QGIS compatible svg symbols, with customisable fill colour/stroke colour/stroke width (when appropriate)</dc:description>
			<dc:date>01 MARCH 2019</dc:date>
			<dc:creator>GeoProc.com</dc:creator>
			<dc:publisher rdf:resource="https://github.com/BC-Consulting/QGIS-FGDC-Fill" />
		</rdf:Description>
		<cc:Work rdf:about="">
			<dc:format>image/svg+xml</dc:format>
			<dc:type rdf:resource="http://purl.org/dc/dcmitype/StillImage" />
			<dc:title>FGDC fill symbol: Lithology - Sedimentary - 636 Sandy Limestone</dc:title>
		</cc:Work>
	</rdf:RDF>
	</metadata>
	<g>
		<rect x="1.817" y="-55.725" style="fill:none;stroke:none;" width="54.125" height="54.125"/>
        <g stroke="param(outline) #000" stroke-width="param(outline-width) 0.8">
			<g style="fill:none;">
				<line x1="1.817" y1="-10.225" x2="55.942" y2="-10.225"/>
				<line x1="1.817" y1="-14" x2="56.004" y2="-14"/>
				<line x1="1.817" y1="-17.612" x2="55.942" y2="-17.612"/>
				<line x1="1.817" y1="-2.437" x2="55.942" y2="-2.437"/>
				<line x1="1.817" y1="-20.837" x2="56.004" y2="-20.837"/>
				<line x1="1.817" y1="-25.037" x2="55.942" y2="-25.037"/>
				<line x1="1.817" y1="-28.837" x2="55.942" y2="-28.837"/>
				<line x1="1.817" y1="-32.887" x2="55.942" y2="-32.887"/>
				<line x1="1.817" y1="-36.312" x2="55.942" y2="-36.312"/>
				<line x1="1.817" y1="-39.594" x2="55.942" y2="-39.594"/>
				<line x1="1.817" y1="-43.612" x2="55.942" y2="-43.612"/>
				<line x1="1.817" y1="-47.8" x2="55.942" y2="-47.8"/>
				<line x1="1.817" y1="-5.812" x2="55.942" y2="-5.812"/>
				<line x1="1.817" y1="-51.975" x2="55.942" y2="-51.975"/>
				<line x1="12.113" y1="-5.838" x2="12.113" y2="-2.375"/>
				<line x1="13.529" y1="-28.787" x2="13.529" y2="-25.05"/>
				<line x1="13.675" y1="-13.95" x2="13.675" y2="-10.187"/>
				<line x1="13.729" y1="-43.625" x2="13.729" y2="-39.625"/>
				<line x1="14.292" y1="-36.325" x2="14.292" y2="-32.9"/>
				<line x1="14.417" y1="-52.037" x2="14.417" y2="-47.812"/>
				<line x1="14.742" y1="-20.787" x2="14.742" y2="-17.625"/>
				<line x1="19.388" y1="-10.187" x2="19.388" y2="-5.838"/>
				<line x1="2.325" y1="-20.787" x2="2.325" y2="-17.625"/>
				<line x1="20.342" y1="-24.987" x2="20.342" y2="-20.85"/>
				<line x1="20.492" y1="-2.45" x2="20.492" y2="-1.6"/>
				<line x1="20.492" y1="-39.625" x2="20.492" y2="-36.325"/>
				<line x1="20.492" y1="-55.725" x2="20.492" y2="-51.975"/>
				<line x1="21.95" y1="-17.562" x2="21.95" y2="-14"/>
				<line x1="21.979" y1="-32.9" x2="21.979" y2="-28.85"/>
				<line x1="22.104" y1="-47.675" x2="22.104" y2="-43.625"/>
				<line x1="26.55" y1="-5.838" x2="26.55" y2="-2.375"/>
				<line x1="28.225" y1="-13.95" x2="28.225" y2="-10.187"/>
				<line x1="28.529" y1="-28.787" x2="28.529" y2="-25.05"/>
				<line x1="28.604" y1="-43.625" x2="28.604" y2="-39.625"/>
				<line x1="29.292" y1="-36.325" x2="29.292" y2="-32.9"/>
				<line x1="29.292" y1="-52.037" x2="29.292" y2="-47.812"/>
				<line x1="29.867" y1="-20.787" x2="29.867" y2="-17.625"/>
				<line x1="33.388" y1="-10.187" x2="33.388" y2="-5.838"/>
				<line x1="33.742" y1="-39.625" x2="33.742" y2="-36.325"/>
				<line x1="33.967" y1="-24.987" x2="33.967" y2="-20.85"/>
				<line x1="33.992" y1="-2.45" x2="33.992" y2="-1.6"/>
				<line x1="33.992" y1="-55.725" x2="33.992" y2="-51.975"/>
				<line x1="35.575" y1="-17.562" x2="35.575" y2="-14"/>
				<line x1="35.604" y1="-32.9" x2="35.604" y2="-28.85"/>
				<line x1="35.667" y1="-47.675" x2="35.667" y2="-43.625"/>
				<line x1="40.175" y1="-5.838" x2="40.175" y2="-2.375"/>
				<line x1="41.854" y1="-28.787" x2="41.854" y2="-25.05"/>
				<line x1="41.979" y1="-43.625" x2="41.979" y2="-39.625"/>
				<line x1="42.1" y1="-13.95" x2="42.1" y2="-10.187"/>
				<line x1="42.917" y1="-52.037" x2="42.917" y2="-47.812"/>
				<line x1="43.042" y1="-36.325" x2="43.042" y2="-32.9"/>
				<line x1="44.017" y1="-20.787" x2="44.017" y2="-17.625"/>
				<line x1="47.95" y1="-10.187" x2="47.95" y2="-5.838"/>
				<line x1="48.217" y1="-24.987" x2="48.217" y2="-20.85"/>
				<line x1="48.367" y1="-2.45" x2="48.367" y2="-1.6"/>
				<line x1="48.367" y1="-39.625" x2="48.367" y2="-36.325"/>
				<line x1="48.367" y1="-55.725" x2="48.367" y2="-51.975"/>
				<line x1="50.45" y1="-17.562" x2="50.45" y2="-14"/>
				<line x1="50.479" y1="-32.9" x2="50.479" y2="-28.85"/>
				<line x1="50.604" y1="-47.675" x2="50.604" y2="-43.625"/>
				<line x1="53.55" y1="-5.838" x2="53.55" y2="-2.375"/>
				<line x1="55.083" y1="-28.787" x2="55.083" y2="-25.05"/>
				<line x1="55.229" y1="-43.625" x2="55.229" y2="-39.625"/>
				<line x1="55.55" y1="-13.95" x2="55.55" y2="-10.187"/>
				<line x1="55.742" y1="-52.037" x2="55.742" y2="-47.812"/>
				<line x1="55.792" y1="-36.325" x2="55.792" y2="-32.9"/>
				<line x1="6.387" y1="-10.187" x2="6.387" y2="-5.838"/>
				<line x1="7.342" y1="-24.987" x2="7.342" y2="-20.85"/>
				<line x1="7.742" y1="-2.45" x2="7.742" y2="-1.6"/>
				<line x1="7.742" y1="-39.625" x2="7.742" y2="-36.325"/>
				<line x1="7.742" y1="-55.725" x2="7.742" y2="-51.975"/>
				<line x1="8.479" y1="-32.9" x2="8.479" y2="-28.85"/>
				<line x1="8.7" y1="-17.562" x2="8.7" y2="-14"/>
				<line x1="8.854" y1="-47.675" x2="8.854" y2="-43.625"/>
			</g>
			<circle cx="10.067" cy="-37.6" r="0.4"/>
			<circle cx="10.317" cy="-15.892" r="0.4"/>
			<circle cx="10.317" cy="-3.892" r="0.4"/>
			<circle cx="10.317" cy="-31.475" r="0.4"/>
			<circle cx="10.567" cy="-46.725" r="0.4"/>
			<circle cx="11.192" cy="-7.225" r="0.4"/>
			<circle cx="11.567" cy="-53.058" r="0.4"/>
			<circle cx="11.65" cy="-25.975" r="0.4"/>
			<circle cx="11.817" cy="-48.808" r="0.4"/>
			<circle cx="11.9" cy="-11.142" r="0.4"/>
			<circle cx="11.9" cy="-40.642" r="0.4"/>
			<circle cx="12.067" cy="-33.975" r="0.4"/>
			<circle cx="12.317" cy="-18.6" r="0.4"/>
			<circle cx="12.4" cy="-21.808" r="0.4"/>
			<circle cx="14.067" cy="-38.225" r="0.4"/>
			<circle cx="14.15" cy="-29.892" r="0.4"/>
			<circle cx="14.192" cy="-44.85" r="0.4"/>
			<circle cx="14.317" cy="-4.558" r="0.4"/>
			<circle cx="14.483" cy="-9.475" r="0.4"/>
			<circle cx="15.067" cy="-54.975" r="0.4"/>
			<circle cx="15.317" cy="-16.225" r="0.4"/>
			<circle cx="15.317" cy="-42.225" r="0.4"/>
			<circle cx="15.4" cy="-13.142" r="0.4"/>
			<circle cx="15.4" cy="-23.892" r="0.4"/>
			<circle cx="15.483" cy="-27.892" r="0.4"/>
			<circle cx="16.067" cy="-50.642" r="0.4"/>
			<circle cx="16.483" cy="-34.725" r="0.4"/>
			<circle cx="17.233" cy="-6.975" r="0.4"/>
			<circle cx="17.567" cy="-18.975" r="0.4"/>
			<circle cx="17.692" cy="-46.6" r="0.4"/>
			<circle cx="17.733" cy="-31.808" r="0.4"/>
			<circle cx="18.4" cy="-11.225" r="0.4"/>
			<circle cx="18.442" cy="-22.225" r="0.4"/>
			<circle cx="18.442" cy="-37.475" r="0.4"/>
			<circle cx="18.483" cy="-25.975" r="0.4"/>
			<circle cx="18.483" cy="-53.142" r="0.4"/>
			<circle cx="18.567" cy="-40.85" r="0.4"/>
			<circle cx="19.192" cy="-49.1" r="0.4"/>
			<circle cx="19.692" cy="-15.35" r="0.4"/>
			<circle cx="19.983" cy="-4.558" r="0.4"/>
			<circle cx="2.4" cy="-24.058" r="0.4"/>
			<circle cx="2.442" cy="-35.35" r="0.4"/>
			<circle cx="2.65" cy="-54.725" r="0.4"/>
			<circle cx="2.692" cy="-27.725" r="0.4"/>
			<circle cx="2.942" cy="-3.6" r="0.4"/>
			<circle cx="20.15" cy="-44.558" r="0.4"/>
			<circle cx="20.317" cy="-30.225" r="0.4"/>
			<circle cx="21.067" cy="-9.308" r="0.4"/>
			<circle cx="21.483" cy="-34.058" r="0.4"/>
			<circle cx="21.942" cy="-19.225" r="0.4"/>
			<circle cx="22.067" cy="-27.808" r="0.4"/>
			<circle cx="22.067" cy="-54.642" r="0.4"/>
			<circle cx="22.233" cy="-23.892" r="0.4"/>
			<circle cx="22.317" cy="-42.642" r="0.4"/>
			<circle cx="22.4" cy="-13.058" r="0.4"/>
			<circle cx="22.4" cy="-38.558" r="0.4"/>
			<circle cx="22.567" cy="-50.725" r="0.4"/>
			<circle cx="23.817" cy="-16.725" r="0.4"/>
			<circle cx="23.9" cy="-31.558" r="0.4"/>
			<circle cx="23.942" cy="-7.1" r="0.4"/>
			<circle cx="23.983" cy="-46.892" r="0.4"/>
			<circle cx="24.483" cy="-53.058" r="0.4"/>
			<circle cx="24.817" cy="-3.725" r="0.4"/>
			<circle cx="25.067" cy="-22.1" r="0.4"/>
			<circle cx="25.233" cy="-40.642" r="0.4"/>
			<circle cx="25.692" cy="-11.475" r="0.4"/>
			<circle cx="25.733" cy="-25.975" r="0.4"/>
			<circle cx="25.983" cy="-35.058" r="0.4"/>
			<circle cx="26.692" cy="-30.1" r="0.4"/>
			<circle cx="26.942" cy="-37.725" r="0.4"/>
			<circle cx="26.942" cy="-45.1" r="0.4"/>
			<circle cx="27.067" cy="-49.1" r="0.4"/>
			<circle cx="27.192" cy="-19.725" r="0.4"/>
			<circle cx="27.9" cy="-54.725" r="0.4"/>
			<circle cx="27.9" cy="-9.225" r="0.4"/>
			<circle cx="27.942" cy="-4.725" r="0.4"/>
			<circle cx="28.15" cy="-15.558" r="0.4"/>
			<circle cx="28.317" cy="-23.892" r="0.4"/>
			<circle cx="3.15" cy="-11.725" r="0.4"/>
			<circle cx="3.192" cy="-31.6" r="0.4"/>
			<circle cx="3.192" cy="-42.1" r="0.4"/>
			<circle cx="3.233" cy="-50.725" r="0.4"/>
			<circle cx="3.483" cy="-46.975" r="0.4"/>
			<circle cx="3.692" cy="-19.1" r="0.4"/>
			<circle cx="30.067" cy="-42.35" r="0.4"/>
			<circle cx="30.067" cy="-46.892" r="0.4"/>
			<circle cx="30.15" cy="-13.058" r="0.4"/>
			<circle cx="30.233" cy="-27.642" r="0.4"/>
			<circle cx="30.483" cy="-31.558" r="0.4"/>
			<circle cx="31.15" cy="-50.808" r="0.4"/>
			<circle cx="31.317" cy="-3.475" r="0.4"/>
			<circle cx="31.317" cy="-7.1" r="0.4"/>
			<circle cx="31.442" cy="-38.35" r="0.4"/>
			<circle cx="31.483" cy="-52.808" r="0.4"/>
			<circle cx="31.567" cy="-22.225" r="0.4"/>
			<circle cx="31.817" cy="-19.1" r="0.4"/>
			<circle cx="32.15" cy="-34.892" r="0.4"/>
			<circle cx="32.567" cy="-11.475" r="0.4"/>
			<circle cx="32.817" cy="-15.392" r="0.4"/>
			<circle cx="33.067" cy="-29.975" r="0.4"/>
			<circle cx="33.067" cy="-40.975" r="0.4"/>
			<circle cx="33.067" cy="-45.225" r="0.4"/>
			<circle cx="33.567" cy="-25.892" r="0.4"/>
			<circle cx="33.817" cy="-48.975" r="0.4"/>
			<circle cx="35.067" cy="-4.85" r="0.4"/>
			<circle cx="35.4" cy="-9.142" r="0.4"/>
			<circle cx="36.233" cy="-23.808" r="0.4"/>
			<circle cx="36.4" cy="-55.058" r="0.4"/>
			<circle cx="36.483" cy="-35.225" r="0.4"/>
			<circle cx="36.692" cy="-38.1" r="0.4"/>
			<circle cx="36.733" cy="-42.642" r="0.4"/>
			<circle cx="36.817" cy="-19.85" r="0.4"/>
			<circle cx="36.942" cy="-46.475" r="0.4"/>
			<circle cx="37.067" cy="-13.225" r="0.4"/>
			<circle cx="37.192" cy="-16.6" r="0.4"/>
			<circle cx="37.233" cy="-31.558" r="0.4"/>
			<circle cx="37.733" cy="-27.725" r="0.4"/>
			<circle cx="37.942" cy="-50.35" r="0.4"/>
			<circle cx="38.317" cy="-3.6" r="0.4"/>
			<circle cx="38.567" cy="-7.1" r="0.4"/>
			<circle cx="39.317" cy="-21.892" r="0.4"/>
			<circle cx="39.733" cy="-52.642" r="0.4"/>
			<circle cx="39.817" cy="-40.975" r="0.4"/>
			<circle cx="39.942" cy="-11.6" r="0.4"/>
			<circle cx="4.067" cy="-16.475" r="0.4"/>
			<circle cx="4.192" cy="-7.225" r="0.4"/>
			<circle cx="40.15" cy="-25.975" r="0.4"/>
			<circle cx="40.442" cy="-44.975" r="0.4"/>
			<circle cx="40.65" cy="-34.392" r="0.4"/>
			<circle cx="40.983" cy="-48.808" r="0.4"/>
			<circle cx="41.567" cy="-38.475" r="0.4"/>
			<circle cx="41.692" cy="-19.1" r="0.4"/>
			<circle cx="41.733" cy="-30.142" r="0.4"/>
			<circle cx="42.192" cy="-4.85" r="0.4"/>
			<circle cx="42.483" cy="-9.142" r="0.4"/>
			<circle cx="42.65" cy="-15.725" r="0.4"/>
			<circle cx="42.983" cy="-54.725" r="0.4"/>
			<circle cx="43.067" cy="-23.975" r="0.4"/>
			<circle cx="43.567" cy="-27.892" r="0.4"/>
			<circle cx="43.9" cy="-42.558" r="0.4"/>
			<circle cx="44.067" cy="-13.142" r="0.4"/>
			<circle cx="44.067" cy="-46.6" r="0.4"/>
			<circle cx="44.692" cy="-50.475" r="0.4"/>
			<circle cx="44.983" cy="-34.725" r="0.4"/>
			<circle cx="45.317" cy="-31.642" r="0.4"/>
			<circle cx="46.067" cy="-7.35" r="0.4"/>
			<circle cx="46.233" cy="-52.808" r="0.4"/>
			<circle cx="46.317" cy="-22.225" r="0.4"/>
			<circle cx="46.317" cy="-26.058" r="0.4"/>
			<circle cx="46.483" cy="-3.892" r="0.4"/>
			<circle cx="46.65" cy="-37.225" r="0.4"/>
			<circle cx="46.692" cy="-19.1" r="0.4"/>
			<circle cx="46.942" cy="-40.975" r="0.4"/>
			<circle cx="47.067" cy="-11.35" r="0.4"/>
			<circle cx="47.942" cy="-49.1" r="0.4"/>
			<circle cx="48.067" cy="-44.85" r="0.4"/>
			<circle cx="48.567" cy="-15.35" r="0.4"/>
			<circle cx="48.733" cy="-29.892" r="0.4"/>
			<circle cx="49.15" cy="-35.058" r="0.4"/>
			<circle cx="49.65" cy="-23.975" r="0.4"/>
			<circle cx="49.733" cy="-27.892" r="0.4"/>
			<circle cx="49.983" cy="-55.058" r="0.4"/>
			<circle cx="5.233" cy="-22.058" r="0.4"/>
			<circle cx="5.317" cy="-25.642" r="0.4"/>
			<circle cx="5.317" cy="-52.725" r="0.4"/>
			<circle cx="5.567" cy="-37.85" r="0.4"/>
			<circle cx="50.15" cy="-42.558" r="0.4"/>
			<circle cx="50.15" cy="-9.142" r="0.4"/>
			<circle cx="50.567" cy="-19.725" r="0.4"/>
			<circle cx="50.65" cy="-13.142" r="0.4"/>
			<circle cx="50.817" cy="-38.6" r="0.4"/>
			<circle cx="50.817" cy="-4.225" r="0.4"/>
			<circle cx="50.942" cy="-50.725" r="0.4"/>
			<circle cx="51.567" cy="-31.892" r="0.4"/>
			<circle cx="51.733" cy="-16.308" r="0.4"/>
			<circle cx="52.233" cy="-46.725" r="0.4"/>
			<circle cx="52.692" cy="-22.35" r="0.4"/>
			<circle cx="52.9" cy="-26.142" r="0.4"/>
			<circle cx="53.15" cy="-52.808" r="0.4"/>
			<circle cx="53.233" cy="-6.808" r="0.4"/>
			<circle cx="53.692" cy="-40.85" r="0.4"/>
			<circle cx="53.733" cy="-11.225" r="0.4"/>
			<circle cx="53.817" cy="-34.725" r="0.4"/>
			<circle cx="54.317" cy="-49.225" r="0.4"/>
			<circle cx="54.442" cy="-19.1" r="0.4"/>
			<circle cx="54.567" cy="-29.975" r="0.4"/>
			<circle cx="54.567" cy="-4.85" r="0.4"/>
			<circle cx="54.692" cy="-37.475" r="0.4"/>
			<circle cx="54.983" cy="-44.725" r="0.4"/>
			<circle cx="55.192" cy="-15.6" r="0.4"/>
			<circle cx="6.067" cy="-49.1" r="0.4"/>
			<circle cx="6.192" cy="-40.85" r="0.4"/>
			<circle cx="6.4" cy="-44.642" r="0.4"/>
			<circle cx="6.567" cy="-29.975" r="0.4"/>
			<circle cx="7.15" cy="-35.058" r="0.4"/>
			<circle cx="7.233" cy="-5.058" r="0.4"/>
			<circle cx="7.317" cy="-15.392" r="0.4"/>
			<circle cx="7.817" cy="-19.725" r="0.4"/>
			<circle cx="8.317" cy="-12.558" r="0.4"/>
			<circle cx="8.317" cy="-9.225" r="0.4"/>
			<circle cx="8.483" cy="-27.642" r="0.4"/>
			<circle cx="9.15" cy="-50.725" r="0.4"/>
			<circle cx="9.15" cy="-54.892" r="0.4"/>
			<circle cx="9.233" cy="-23.892" r="0.4"/>
			<circle cx="9.442" cy="-42.225" r="0.4"/>
		</g>
	</g>
</svg>