<?xml version="1.0" encoding="utf-8"?>
<svg xmlns="http://www.w3.org/2000/svg" version="1.1" x="0px" y="0px" xml:space="preserve" width="54.125" height="54.125" viewBox="0.058 -54.125 54.125 54.125">
	<metadata id="metadata2">
	<rdf:RDF
		xmlns:dc="http://purl.org/dc/elements/1.1/"
		xmlns:cc="http://creativecommons.org/ns#"
		xmlns:rdf="http://www.w3.org/1999/02/22-rdf-syntax-ns#"
		xmlns="http://my.netscape.com/rdf/simple/0.9/">
		<item rdf:ID="biblio1">
			<link>rdf:resource="http://pubs.usgs.gov/tm/2006/11A02/</link>
			<title>U.S. Geological Survey, 2006, FGDC Digital Cartographic Standard for Geologic Map Symbolization (PostScript Implementation): U.S. Geological Survey Techniques and Methods 11-A2</title>
		</item>
		<item rdf:ID="biblio2">
			<link>https://davenquinn.com/projects/geologic-patterns/</link>
			<title>FGDC Geologic Patterns for the Web</title>
		</item>
		<rdf:Description>
			<dc:description>Converted from 'FGDC Geologic Patterns for the Web' to QGIS compatible svg symbols, with customisable fill colour/stroke colour/stroke width (when appropriate)</dc:description>
			<dc:date>01 MARCH 2019</dc:date>
			<dc:creator>GeoProc.com</dc:creator>
			<dc:publisher rdf:resource="https://github.com/BC-Consulting/QGIS-FGDC-Fill" />
		</rdf:Description>
		<cc:Work rdf:about="">
			<dc:format>image/svg+xml</dc:format>
			<dc:type rdf:resource="http://purl.org/dc/dcmitype/StillImage" />
			<dc:title>FGDC fill symbol: Lithology - Sedimentary - 640 Cherty Limestone 2nd Option</dc:title>
		</cc:Work>
	</rdf:RDF>
	</metadata>
	<g>
		<rect x="0.058" y="-54.125" style="fill:none;stroke:none;" width="54.125" height="54.125"/>
        <g style="fill:none;" stroke="param(outline) #000" stroke-width="param(outline-width) 0.8">
			<ellipse cx="11.965" cy="-21.125" rx="2.383" ry="0.794"/>
			<ellipse cx="16.773" cy="-2.645" rx="2.384" ry="0.794"/>
			<ellipse cx="18.49" cy="-39.875" rx="2.383" ry="0.794"/>
			<ellipse cx="19.59" cy="-10.375" rx="2.383" ry="0.794"/>
			<ellipse cx="20.773" cy="-48.145" rx="2.384" ry="0.794"/>
			<ellipse cx="26.84" cy="-29.125" rx="2.383" ry="0.794"/>
			<ellipse cx="34.715" cy="-17.625" rx="2.383" ry="0.794"/>
			<ellipse cx="38.84" cy="-6.25" rx="2.383" ry="0.794"/>
			<ellipse cx="39.215" cy="-36.225" rx="2.383" ry="0.794"/>
			<ellipse cx="39.773" cy="-52.145" rx="2.384" ry="0.794"/>
			<ellipse cx="46.34" cy="-25.25" rx="2.383" ry="0.794"/>
			<ellipse cx="5.715" cy="-33" rx="2.383" ry="0.794"/>
			<line x1="0.058" y1="-0.838" x2="5.983" y2="-0.838"/>
			<line x1="0.058" y1="-16.013" x2="54.183" y2="-16.013"/>
			<line x1="0.058" y1="-19.237" x2="54.183" y2="-19.237"/>
			<line x1="0.058" y1="-23.438" x2="54.183" y2="-23.438"/>
			<line x1="0.058" y1="-27.237" x2="54.183" y2="-27.237"/>
			<line x1="0.058" y1="-37.994" x2="5.983" y2="-37.994"/>
			<line x1="0.058" y1="-4.213" x2="10.354" y2="-4.213"/>
			<line x1="0.058" y1="-50.375" x2="5.983" y2="-50.375"/>
			<line x1="0.058" y1="-8.625" x2="11.917" y2="-8.625"/>
			<line x1="0.566" y1="-19.188" x2="0.566" y2="-16.025"/>
			<line x1="10.354" y1="-0.775" x2="10.354" y2="-0.838"/>
			<line x1="10.354" y1="-4.213" x2="10.354" y2="-0.838"/>
			<line x1="10.354" y1="-4.238" x2="10.354" y2="-4.213"/>
			<line x1="11.77" y1="-27.188" x2="11.77" y2="-23.45"/>
			<line x1="11.917" y1="-8.625" x2="11.917" y2="-12.35"/>
			<line x1="11.917" y1="-8.625" x2="11.917" y2="-8.588"/>
			<line x1="11.97" y1="-42.013" x2="0.058" y2="-42.013"/>
			<line x1="11.97" y1="-42.013" x2="11.97" y2="-38.025"/>
			<line x1="11.97" y1="-42.013" x2="11.97" y2="-42.025"/>
			<line x1="11.97" y1="-42.013" x2="26.845" y2="-42.013"/>
			<line x1="12.533" y1="-34.713" x2="0.058" y2="-34.713"/>
			<line x1="12.533" y1="-34.713" x2="12.533" y2="-31.3"/>
			<line x1="12.533" y1="-34.713" x2="12.533" y2="-34.726"/>
			<line x1="12.533" y1="-34.713" x2="27.533" y2="-34.713"/>
			<line x1="12.658" y1="-50.375" x2="12.658" y2="-46.213"/>
			<line x1="12.658" y1="-50.375" x2="12.658" y2="-50.438"/>
			<line x1="12.658" y1="-50.375" x2="18.733" y2="-50.375"/>
			<line x1="12.658" y1="-50.375" x2="5.983" y2="-50.375"/>
			<line x1="12.983" y1="-19.188" x2="12.983" y2="-16.025"/>
			<line x1="17.628" y1="-8.588" x2="17.628" y2="-4.238"/>
			<line x1="18.583" y1="-23.388" x2="18.583" y2="-19.25"/>
			<line x1="18.733" y1="-0.838" x2="10.354" y2="-0.838"/>
			<line x1="18.733" y1="-0.838" x2="18.733" y2="-0.851"/>
			<line x1="18.733" y1="-0.838" x2="18.733" y2="0"/>
			<line x1="18.733" y1="-0.838" x2="24.792" y2="-0.838"/>
			<line x1="18.733" y1="-37.994" x2="18.733" y2="-34.726"/>
			<line x1="18.733" y1="-37.994" x2="18.733" y2="-38.025"/>
			<line x1="18.733" y1="-37.994" x2="5.983" y2="-37.994"/>
			<line x1="18.733" y1="-54.125" x2="18.733" y2="-50.375"/>
			<line x1="20.191" y1="-12.4" x2="20.191" y2="-15.963"/>
			<line x1="20.191" y1="-12.4" x2="33.816" y2="-12.4"/>
			<line x1="20.191" y1="-12.4" x2="6.941" y2="-12.4"/>
			<line x1="20.22" y1="-31.288" x2="20.22" y2="-27.25"/>
			<line x1="20.22" y1="-31.288" x2="6.72" y2="-31.288"/>
			<line x1="20.22" y1="-31.3" x2="20.22" y2="-31.288"/>
			<line x1="20.345" y1="-42.025" x2="20.345" y2="-46.075"/>
			<line x1="24.792" y1="-0.775" x2="24.792" y2="-0.838"/>
			<line x1="24.792" y1="-0.838" x2="32.233" y2="-0.838"/>
			<line x1="24.792" y1="-4.213" x2="10.354" y2="-4.213"/>
			<line x1="24.792" y1="-4.213" x2="24.792" y2="-0.838"/>
			<line x1="24.792" y1="-4.213" x2="24.792" y2="-4.238"/>
			<line x1="24.792" y1="-4.213" x2="38.417" y2="-4.213"/>
			<line x1="26.466" y1="-12.35" x2="26.466" y2="-8.625"/>
			<line x1="26.466" y1="-8.625" x2="11.917" y2="-8.625"/>
			<line x1="26.466" y1="-8.625" x2="26.466" y2="-8.588"/>
			<line x1="26.466" y1="-8.625" x2="40.341" y2="-8.625"/>
			<line x1="26.77" y1="-27.188" x2="26.77" y2="-23.45"/>
			<line x1="26.845" y1="-38.025" x2="26.845" y2="-42.013"/>
			<line x1="26.845" y1="-42.013" x2="26.845" y2="-42.025"/>
			<line x1="26.845" y1="-42.013" x2="40.22" y2="-42.013"/>
			<line x1="27.533" y1="-34.713" x2="27.533" y2="-31.3"/>
			<line x1="27.533" y1="-34.713" x2="27.533" y2="-34.726"/>
			<line x1="27.533" y1="-34.713" x2="41.283" y2="-34.713"/>
			<line x1="27.533" y1="-50.375" x2="18.733" y2="-50.375"/>
			<line x1="27.533" y1="-50.375" x2="27.533" y2="-46.213"/>
			<line x1="27.533" y1="-50.438" x2="27.533" y2="-50.375"/>
			<line x1="28.108" y1="-19.188" x2="28.108" y2="-16.025"/>
			<line x1="31.628" y1="-8.588" x2="31.628" y2="-4.238"/>
			<line x1="31.983" y1="-37.994" x2="18.733" y2="-37.994"/>
			<line x1="31.983" y1="-37.994" x2="31.983" y2="-34.726"/>
			<line x1="31.983" y1="-37.994" x2="31.983" y2="-38.025"/>
			<line x1="31.983" y1="-37.994" x2="46.608" y2="-37.994"/>
			<line x1="32.208" y1="-23.388" x2="32.208" y2="-19.25"/>
			<line x1="32.233" y1="-0.838" x2="38.417" y2="-0.838"/>
			<line x1="32.233" y1="-0.851" x2="32.233" y2="-0.838"/>
			<line x1="32.233" y1="-50.375" x2="27.533" y2="-50.375"/>
			<line x1="32.233" y1="-50.375" x2="32.233" y2="-54.125"/>
			<line x1="32.233" y1="-50.375" x2="41.158" y2="-50.375"/>
			<line x1="32.233" y1="0" x2="32.233" y2="-0.838"/>
			<line x1="33.816" y1="-15.963" x2="33.816" y2="-12.4"/>
			<line x1="33.845" y1="-31.288" x2="20.22" y2="-31.288"/>
			<line x1="33.845" y1="-31.288" x2="33.845" y2="-27.25"/>
			<line x1="33.845" y1="-31.3" x2="33.845" y2="-31.288"/>
			<line x1="33.908" y1="-42.025" x2="33.908" y2="-46.075"/>
			<line x1="38.417" y1="-0.775" x2="38.417" y2="-0.838"/>
			<line x1="38.417" y1="-4.213" x2="38.417" y2="-0.838"/>
			<line x1="38.417" y1="-4.238" x2="38.417" y2="-4.213"/>
			<line x1="4.628" y1="-8.588" x2="4.628" y2="-4.238"/>
			<line x1="40.095" y1="-27.188" x2="40.095" y2="-23.45"/>
			<line x1="40.22" y1="-38.025" x2="40.22" y2="-42.013"/>
			<line x1="40.22" y1="-42.025" x2="40.22" y2="-42.013"/>
			<line x1="40.341" y1="-12.35" x2="40.341" y2="-8.625"/>
			<line x1="40.341" y1="-8.588" x2="40.341" y2="-8.625"/>
			<line x1="41.158" y1="-46.213" x2="41.158" y2="-50.375"/>
			<line x1="41.158" y1="-50.438" x2="41.158" y2="-50.375"/>
			<line x1="41.283" y1="-34.713" x2="41.283" y2="-31.3"/>
			<line x1="41.283" y1="-34.726" x2="41.283" y2="-34.713"/>
			<line x1="42.258" y1="-16.025" x2="42.258" y2="-19.188"/>
			<line x1="46.191" y1="-8.588" x2="46.191" y2="-4.238"/>
			<line x1="46.458" y1="-23.388" x2="46.458" y2="-19.25"/>
			<line x1="46.608" y1="-0.838" x2="38.417" y2="-0.838"/>
			<line x1="46.608" y1="-0.851" x2="46.608" y2="-0.838"/>
			<line x1="46.608" y1="-37.994" x2="46.608" y2="-34.726"/>
			<line x1="46.608" y1="-37.994" x2="46.608" y2="-38.025"/>
			<line x1="46.608" y1="-37.994" x2="54.183" y2="-37.994"/>
			<line x1="46.608" y1="-50.375" x2="41.158" y2="-50.375"/>
			<line x1="46.608" y1="-54.125" x2="46.608" y2="-50.375"/>
			<line x1="46.608" y1="0" x2="46.608" y2="-0.838"/>
			<line x1="48.691" y1="-12.4" x2="33.816" y2="-12.4"/>
			<line x1="48.691" y1="-12.4" x2="48.691" y2="-15.963"/>
			<line x1="48.691" y1="-12.4" x2="54.183" y2="-12.4"/>
			<line x1="48.72" y1="-31.288" x2="33.845" y2="-31.288"/>
			<line x1="48.72" y1="-31.288" x2="48.72" y2="-27.25"/>
			<line x1="48.72" y1="-31.288" x2="48.72" y2="-31.3"/>
			<line x1="48.72" y1="-31.288" x2="54.183" y2="-31.288"/>
			<line x1="48.845" y1="-42.025" x2="48.845" y2="-46.075"/>
			<line x1="5.582" y1="-23.388" x2="5.582" y2="-19.25"/>
			<line x1="5.983" y1="-0.838" x2="10.354" y2="-0.838"/>
			<line x1="5.983" y1="-0.851" x2="5.983" y2="-0.838"/>
			<line x1="5.983" y1="-34.726" x2="5.983" y2="-37.994"/>
			<line x1="5.983" y1="-38.025" x2="5.983" y2="-37.994"/>
			<line x1="5.983" y1="-54.125" x2="5.983" y2="-50.375"/>
			<line x1="5.983" y1="0" x2="5.983" y2="-0.838"/>
			<line x1="51.792" y1="-0.838" x2="46.608" y2="-0.838"/>
			<line x1="51.792" y1="-0.838" x2="51.792" y2="-0.775"/>
			<line x1="51.792" y1="-0.838" x2="54.183" y2="-0.838"/>
			<line x1="51.792" y1="-4.213" x2="38.417" y2="-4.213"/>
			<line x1="51.792" y1="-4.213" x2="51.792" y2="-0.838"/>
			<line x1="51.792" y1="-4.213" x2="51.792" y2="-4.238"/>
			<line x1="51.792" y1="-4.213" x2="54.183" y2="-4.213"/>
			<line x1="53.325" y1="-23.45" x2="53.325" y2="-27.188"/>
			<line x1="53.47" y1="-42.013" x2="40.22" y2="-42.013"/>
			<line x1="53.47" y1="-42.013" x2="53.47" y2="-38.025"/>
			<line x1="53.47" y1="-42.013" x2="53.47" y2="-42.025"/>
			<line x1="53.47" y1="-42.013" x2="54.183" y2="-42.013"/>
			<line x1="53.792" y1="-8.625" x2="40.341" y2="-8.625"/>
			<line x1="53.792" y1="-8.625" x2="53.792" y2="-12.35"/>
			<line x1="53.792" y1="-8.625" x2="53.792" y2="-8.588"/>
			<line x1="53.792" y1="-8.625" x2="54.183" y2="-8.625"/>
			<line x1="53.983" y1="-50.375" x2="46.608" y2="-50.375"/>
			<line x1="53.983" y1="-50.375" x2="53.983" y2="-46.213"/>
			<line x1="53.983" y1="-50.375" x2="53.983" y2="-50.438"/>
			<line x1="53.983" y1="-50.375" x2="54.183" y2="-50.375"/>
			<line x1="54.033" y1="-34.713" x2="41.283" y2="-34.713"/>
			<line x1="54.033" y1="-34.713" x2="54.033" y2="-31.3"/>
			<line x1="54.033" y1="-34.713" x2="54.033" y2="-34.726"/>
			<line x1="54.033" y1="-34.713" x2="54.183" y2="-34.713"/>
			<line x1="54.183" y1="-46.2" x2="0.058" y2="-46.2"/>
			<line x1="6.72" y1="-31.288" x2="0.058" y2="-31.288"/>
			<line x1="6.72" y1="-31.288" x2="6.72" y2="-27.25"/>
			<line x1="6.72" y1="-31.3" x2="6.72" y2="-31.288"/>
			<line x1="6.941" y1="-12.4" x2="0.058" y2="-12.4"/>
			<line x1="6.941" y1="-15.963" x2="6.941" y2="-12.4"/>
			<line x1="7.095" y1="-42.025" x2="7.095" y2="-46.075"/>
			<path d="M0.058-13.512c0.411-0.143,0.665-0.336,0.665-0.55    c0-0.214-0.254-0.407-0.665-0.55"/>
			<path d="M0.058-43.284c0.312,0.05,0.662,0.078,1.031,0.078    c1.316,0,2.384-0.355,2.384-0.794c0-0.439-1.067-0.795-2.384-0.795c-0.369,0-0.719,0.028-1.031,0.078"/>
			<path d="M54.183-14.611c-0.434-0.15-1.043-0.244-1.719-0.244    c-1.317,0-2.384,0.356-2.384,0.794c0,0.438,1.067,0.795,2.384,0.795c0.676,0,1.285-0.094,1.719-0.245"/>
			<path d="M54.183-44.717c-0.8,0.128-1.352,0.4-1.352,0.717    c0,0.315,0.552,0.588,1.352,0.716"/>
		</g>
	</g>
</svg>
