<?xml version="1.0" encoding="utf-8"?>
<svg xmlns="http://www.w3.org/2000/svg" version="1.1" x="0px" y="0px" xml:space="preserve" width="54.125" height="54.125" viewBox="0 -54.205 54.125 54.125">
	<metadata id="metadata2">
	<rdf:RDF
		xmlns:dc="http://purl.org/dc/elements/1.1/"
		xmlns:cc="http://creativecommons.org/ns#"
		xmlns:rdf="http://www.w3.org/1999/02/22-rdf-syntax-ns#"
		xmlns="http://my.netscape.com/rdf/simple/0.9/">
		<item rdf:ID="biblio1">
			<link>rdf:resource="http://pubs.usgs.gov/tm/2006/11A02/</link>
			<title>U.S. Geological Survey, 2006, FGDC Digital Cartographic Standard for Geologic Map Symbolization (PostScript Implementation): U.S. Geological Survey Techniques and Methods 11-A2</title>
		</item>
		<item rdf:ID="biblio2">
			<link>https://davenquinn.com/projects/geologic-patterns/</link>
			<title>FGDC Geologic Patterns for the Web</title>
		</item>
		<rdf:Description>
			<dc:description>Converted from 'FGDC Geologic Patterns for the Web' to QGIS compatible svg symbols, with customisable fill colour/stroke colour/stroke width (when appropriate)</dc:description>
			<dc:date>01 MARCH 2019</dc:date>
			<dc:creator>GeoProc.com</dc:creator>
			<dc:publisher rdf:resource="https://github.com/BC-Consulting/QGIS-FGDC-Fill" />
		</rdf:Description>
		<cc:Work rdf:about="">
			<dc:format>image/svg+xml</dc:format>
			<dc:type rdf:resource="http://purl.org/dc/dcmitype/StillImage" />
			<dc:title>FGDC fill symbol: Lithology - Sedimentary - 641 Dolomitic Limestone , Limy Dolostone , Or Limy Dolomite</dc:title>
		</cc:Work>
	</rdf:RDF>
	</metadata>
	<g>
		<rect y="-54.205" style="fill:none;stroke:none;" width="54.125" height="54.125"/>
        <g style="fill:none;" stroke="param(outline) #000" stroke-width="param(outline-width) 0.8">
			<line x1="54.125" y1="-50.455" x2="53.926" y2="-50.455"/>
			<line x1="27.476" y1="-50.455" x2="18.676" y2="-50.455"/>
			<line x1="53.926" y1="-50.455" x2="46.551" y2="-50.455"/>
			<line x1="13.625" y1="-50.455" x2="18.676" y2="-50.455"/>
			<line x1="4.425" y1="-50.455" x2="0" y2="-50.455"/>
			<line x1="30.675" y1="-50.455" x2="46.551" y2="-50.455"/>
			<line x1="13.625" y1="-50.455" x2="4.425" y2="-50.455"/>
			<line x1="27.476" y1="-50.455" x2="30.675" y2="-50.455"/>
			<line x1="54.125" y1="-46.28" x2="0" y2="-46.28"/>
			<line x1="54.125" y1="-42.093" x2="53.413" y2="-42.093"/>
			<line x1="41.156" y1="-42.093" x2="53.413" y2="-42.093"/>
			<line x1="26.788" y1="-42.093" x2="41.156" y2="-42.093"/>
			<line x1="26.788" y1="-42.093" x2="0" y2="-42.093"/>
			<line x1="20.134" y1="-12.481" x2="32.259" y2="-12.481"/>
			<line x1="12.665" y1="-12.481" x2="20.134" y2="-12.481"/>
			<line x1="32.259" y1="-12.481" x2="41.103" y2="-12.481"/>
			<line x1="41.103" y1="-12.481" x2="48.634" y2="-12.481"/>
			<line x1="5.384" y1="-12.481" x2="12.665" y2="-12.481"/>
			<line x1="5.384" y1="-12.481" x2="0" y2="-12.481"/>
			<line x1="48.634" y1="-12.481" x2="54.125" y2="-12.481"/>
			<line x1="38.807" y1="-8.705" x2="26.409" y2="-8.705"/>
			<line x1="10.381" y1="-8.705" x2="26.409" y2="-8.705"/>
			<line x1="38.807" y1="-8.705" x2="53.733" y2="-8.705"/>
			<line x1="53.733" y1="-8.705" x2="54.125" y2="-8.705"/>
			<line x1="10.381" y1="-8.705" x2="0" y2="-8.705"/>
			<line x1="5.926" y1="-38.074" x2="31.926" y2="-38.074"/>
			<line x1="46.996" y1="-38.074" x2="31.926" y2="-38.074"/>
			<line x1="46.996" y1="-38.074" x2="54.125" y2="-38.074"/>
			<line x1="5.926" y1="-38.074" x2="0" y2="-38.074"/>
			<line x1="12.476" y1="-34.793" x2="0" y2="-34.793"/>
			<line x1="41.226" y1="-34.793" x2="28.04" y2="-34.793"/>
			<line x1="54.125" y1="-34.793" x2="53.968" y2="-34.793"/>
			<line x1="41.226" y1="-34.793" x2="53.968" y2="-34.793"/>
			<line x1="28.04" y1="-34.793" x2="12.476" y2="-34.793"/>
			<line x1="48.663" y1="-31.368" x2="54.125" y2="-31.368"/>
			<line x1="48.663" y1="-31.368" x2="20.163" y2="-31.368"/>
			<line x1="20.163" y1="-31.368" x2="0" y2="-31.368"/>
			<line x1="54.125" y1="-27.317" x2="0" y2="-27.317"/>
			<line x1="54.125" y1="-23.518" x2="0" y2="-23.518"/>
			<line x1="54.125" y1="-19.317" x2="0" y2="-19.317"/>
			<line x1="54.125" y1="-16.093" x2="0" y2="-16.093"/>
			<line x1="46.551" y1="-0.918" x2="50.271" y2="-0.918"/>
			<line x1="54.125" y1="-0.918" x2="50.271" y2="-0.918"/>
			<line x1="7.312" y1="-0.918" x2="10.296" y2="-0.918"/>
			<line x1="10.296" y1="-0.918" x2="18.676" y2="-0.918"/>
			<line x1="38.358" y1="-0.918" x2="46.551" y2="-0.918"/>
			<line x1="18.676" y1="-0.918" x2="23.271" y2="-0.918"/>
			<line x1="33.44" y1="-0.918" x2="23.271" y2="-0.918"/>
			<line x1="38.358" y1="-0.918" x2="33.44" y2="-0.918"/>
			<line x1="7.312" y1="-0.918" x2="0" y2="-0.918"/>
			<line x1="6.773" y1="-54.205" x2="4.425" y2="-50.455"/>
			<line x1="18.676" y1="-54.205" x2="18.676" y2="-50.455"/>
			<line x1="30.675" y1="-50.455" x2="32.943" y2="-54.205"/>
			<line x1="46.551" y1="-54.205" x2="46.551" y2="-50.455"/>
			<line x1="13.625" y1="-50.455" x2="11.101" y2="-46.293"/>
			<line x1="27.476" y1="-50.455" x2="27.476" y2="-50.518"/>
			<line x1="27.476" y1="-50.455" x2="27.476" y2="-46.293"/>
			<line x1="42.188" y1="-50.393" x2="39.601" y2="-46.293"/>
			<line x1="53.926" y1="-50.455" x2="53.926" y2="-46.293"/>
			<line x1="53.926" y1="-50.518" x2="53.926" y2="-50.455"/>
			<line x1="5.538" y1="-42.105" x2="8.125" y2="-46.268"/>
			<line x1="20.288" y1="-42.105" x2="20.288" y2="-46.155"/>
			<line x1="32.351" y1="-42.105" x2="34.875" y2="-46.268"/>
			<line x1="48.788" y1="-42.105" x2="48.788" y2="-46.155"/>
			<line x1="38.663" y1="-38.105" x2="41.156" y2="-42.093"/>
			<line x1="41.156" y1="-42.093" x2="41.188" y2="-42.143"/>
			<line x1="26.788" y1="-42.093" x2="26.788" y2="-42.105"/>
			<line x1="26.788" y1="-42.093" x2="26.788" y2="-38.105"/>
			<line x1="10.413" y1="-38.105" x2="12.875" y2="-42.08"/>
			<line x1="53.413" y1="-38.105" x2="53.413" y2="-42.093"/>
			<line x1="53.413" y1="-42.105" x2="53.413" y2="-42.093"/>
			<line x1="46.996" y1="-38.074" x2="45.051" y2="-34.806"/>
			<line x1="46.996" y1="-38.074" x2="47" y2="-38.08"/>
			<line x1="31.926" y1="-34.806" x2="31.926" y2="-38.074"/>
			<line x1="31.926" y1="-38.074" x2="31.926" y2="-38.105"/>
			<line x1="17.176" y1="-34.806" x2="19.188" y2="-38.018"/>
			<line x1="5.926" y1="-38.074" x2="5.926" y2="-38.105"/>
			<line x1="5.926" y1="-38.074" x2="5.926" y2="-34.806"/>
			<line x1="12.476" y1="-34.793" x2="12.476" y2="-31.38"/>
			<line x1="12.476" y1="-34.793" x2="12.476" y2="-34.806"/>
			<line x1="28.04" y1="-34.793" x2="25.976" y2="-31.38"/>
			<line x1="28.04" y1="-34.793" x2="28.062" y2="-34.83"/>
			<line x1="41.226" y1="-34.793" x2="41.226" y2="-34.806"/>
			<line x1="41.226" y1="-34.793" x2="41.226" y2="-31.38"/>
			<line x1="51.812" y1="-31.393" x2="53.968" y2="-34.793"/>
			<line x1="53.976" y1="-34.806" x2="53.968" y2="-34.793"/>
			<line x1="5.163" y1="-27.33" x2="7.688" y2="-31.33"/>
			<line x1="20.163" y1="-31.368" x2="20.163" y2="-27.33"/>
			<line x1="20.163" y1="-31.368" x2="20.163" y2="-31.38"/>
			<line x1="34.812" y1="-31.33" x2="32.288" y2="-27.33"/>
			<line x1="48.663" y1="-31.368" x2="48.663" y2="-31.38"/>
			<line x1="48.663" y1="-31.368" x2="48.663" y2="-27.33"/>
			<line x1="38.538" y1="-23.53" x2="40.812" y2="-27.268"/>
			<line x1="26.713" y1="-23.53" x2="26.713" y2="-27.268"/>
			<line x1="10.213" y1="-23.53" x2="12.5" y2="-27.268"/>
			<line x1="53.267" y1="-23.53" x2="53.267" y2="-27.268"/>
			<line x1="4.025" y1="-19.33" x2="6.562" y2="-23.393"/>
			<line x1="18.525" y1="-19.33" x2="18.525" y2="-23.468"/>
			<line x1="30.65" y1="-19.33" x2="33.25" y2="-23.455"/>
			<line x1="46.4" y1="-19.33" x2="46.4" y2="-23.468"/>
			<line x1="40.7" y1="-16.105" x2="42.625" y2="-19.268"/>
			<line x1="28.051" y1="-16.105" x2="28.051" y2="-19.268"/>
			<line x1="11.426" y1="-16.105" x2="13.312" y2="-19.205"/>
			<line x1="0.509" y1="-16.105" x2="0.509" y2="-19.268"/>
			<line x1="5.384" y1="-12.481" x2="7.688" y2="-16.08"/>
			<line x1="20.134" y1="-12.481" x2="20.134" y2="-16.043"/>
			<line x1="32.259" y1="-12.481" x2="34.5" y2="-16.08"/>
			<line x1="48.634" y1="-12.481" x2="48.634" y2="-16.043"/>
			<line x1="38.807" y1="-8.705" x2="41.103" y2="-12.481"/>
			<line x1="41.103" y1="-12.481" x2="41.125" y2="-12.518"/>
			<line x1="38.807" y1="-8.705" x2="38.784" y2="-8.668"/>
			<line x1="26.409" y1="-8.705" x2="26.409" y2="-8.668"/>
			<line x1="26.409" y1="-8.705" x2="26.409" y2="-12.43"/>
			<line x1="10.381" y1="-8.705" x2="10.358" y2="-8.668"/>
			<line x1="10.381" y1="-8.705" x2="12.665" y2="-12.481"/>
			<line x1="12.665" y1="-12.481" x2="12.688" y2="-12.518"/>
			<line x1="53.733" y1="-8.705" x2="53.733" y2="-8.668"/>
			<line x1="53.733" y1="-8.705" x2="53.733" y2="-12.43"/>
			<line x1="38.358" y1="-4.293" x2="52.353" y2="-4.293"/>
			<line x1="38.358" y1="-4.293" x2="25.29" y2="-4.293"/>
			<line x1="10.296" y1="-4.293" x2="25.29" y2="-4.293"/>
			<line x1="54.125" y1="-4.293" x2="52.353" y2="-4.293"/>
			<line x1="10.296" y1="-4.293" x2="0" y2="-4.293"/>
			<line x1="10.296" y1="-4.293" x2="10.296" y2="-4.318"/>
			<line x1="10.296" y1="-0.855" x2="10.296" y2="-0.918"/>
			<line x1="10.296" y1="-4.293" x2="10.296" y2="-0.918"/>
			<line x1="25.312" y1="-4.33" x2="25.29" y2="-4.293"/>
			<line x1="25.29" y1="-4.293" x2="23.271" y2="-0.918"/>
			<line x1="23.233" y1="-0.855" x2="23.271" y2="-0.918"/>
			<line x1="38.358" y1="-0.918" x2="38.358" y2="-0.855"/>
			<line x1="38.358" y1="-4.293" x2="38.358" y2="-4.318"/>
			<line x1="38.358" y1="-4.293" x2="38.358" y2="-0.918"/>
			<line x1="52.375" y1="-4.33" x2="52.353" y2="-4.293"/>
			<line x1="52.353" y1="-4.293" x2="50.271" y2="-0.918"/>
			<line x1="50.233" y1="-0.855" x2="50.271" y2="-0.918"/>
			<line x1="4.571" y1="-4.318" x2="4.571" y2="-8.668"/>
			<line x1="18.75" y1="-8.58" x2="16.071" y2="-4.318"/>
			<line x1="31.571" y1="-8.668" x2="31.571" y2="-4.318"/>
			<line x1="47.25" y1="-8.643" x2="44.634" y2="-4.318"/>
			<line x1="18.676" y1="-0.918" x2="18.676" y2="-0.08"/>
			<line x1="46.551" y1="-0.918" x2="46.551" y2="-0.08"/>
			<line x1="7.312" y1="-0.918" x2="6.785" y2="-0.08"/>
			<line x1="7.312" y1="-0.918" x2="7.375" y2="-1.018"/>
			<line x1="32.935" y1="-0.08" x2="33.44" y2="-0.918"/>
			<line x1="33.5" y1="-1.018" x2="33.44" y2="-0.918"/>
		</g>
	</g>
</svg>
