<?xml version="1.0" encoding="utf-8"?>
<svg xmlns="http://www.w3.org/2000/svg" version="1.1" x="0px" y="0px" xml:space="preserve" width="54.125" height="54.125" viewBox="0 -54.202 54.125 54.125">
	<metadata id="metadata2">
	<rdf:RDF
		xmlns:dc="http://purl.org/dc/elements/1.1/"
		xmlns:cc="http://creativecommons.org/ns#"
		xmlns:rdf="http://www.w3.org/1999/02/22-rdf-syntax-ns#"
		xmlns="http://my.netscape.com/rdf/simple/0.9/">
		<item rdf:ID="biblio1">
			<link>rdf:resource="http://pubs.usgs.gov/tm/2006/11A02/</link>
			<title>U.S. Geological Survey, 2006, FGDC Digital Cartographic Standard for Geologic Map Symbolization (PostScript Implementation): U.S. Geological Survey Techniques and Methods 11-A2</title>
		</item>
		<item rdf:ID="biblio2">
			<link>https://davenquinn.com/projects/geologic-patterns/</link>
			<title>FGDC Geologic Patterns for the Web</title>
		</item>
		<rdf:Description>
			<dc:description>Converted from 'FGDC Geologic Patterns for the Web' to QGIS compatible svg symbols, with customisable fill colour/stroke colour/stroke width (when appropriate)</dc:description>
			<dc:date>01 MARCH 2019</dc:date>
			<dc:creator>GeoProc.com</dc:creator>
			<dc:publisher rdf:resource="https://github.com/BC-Consulting/QGIS-FGDC-Fill" />
		</rdf:Description>
		<cc:Work rdf:about="">
			<dc:format>image/svg+xml</dc:format>
			<dc:type rdf:resource="http://purl.org/dc/dcmitype/StillImage" />
			<dc:title>FGDC fill symbol: Lithology - Sedimentary - 642 Dolostone Or Dolomite</dc:title>
		</cc:Work>
	</rdf:RDF>
	</metadata>
	<g>
		<rect y="-54.202" style="fill:none;stroke:none;" width="54.125" height="54.125"/>
        <g style="fill:none;" stroke="param(outline) #000" stroke-width="param(outline-width) 0.8">
			<line x1="30.774" y1="-50.452" x2="28.35" y2="-50.452"/>
			<line x1="42.017" y1="-50.452" x2="30.774" y2="-50.452"/>
			<line x1="42.017" y1="-50.452" x2="45.149" y2="-50.452"/>
			<line x1="17.337" y1="-50.452" x2="28.35" y2="-50.452"/>
			<line x1="54.125" y1="-50.452" x2="45.149" y2="-50.452"/>
			<line x1="4.587" y1="-50.452" x2="17.337" y2="-50.452"/>
			<line x1="4.587" y1="-50.452" x2="0" y2="-50.452"/>
			<line x1="34.781" y1="-46.276" x2="7.969" y2="-46.276"/>
			<line x1="54.125" y1="-46.276" x2="34.781" y2="-46.276"/>
			<line x1="7.969" y1="-46.276" x2="0" y2="-46.276"/>
			<line x1="27.532" y1="-42.089" x2="12.72" y2="-42.089"/>
			<line x1="27.532" y1="-42.089" x2="40.97" y2="-42.089"/>
			<line x1="40.97" y1="-42.089" x2="53.782" y2="-42.089"/>
			<line x1="53.782" y1="-42.089" x2="54.125" y2="-42.089"/>
			<line x1="12.72" y1="-42.089" x2="0" y2="-42.089"/>
			<line x1="12.602" y1="-12.477" x2="27.102" y2="-12.477"/>
			<line x1="41.102" y1="-12.477" x2="53.683" y2="-12.477"/>
			<line x1="53.683" y1="-12.477" x2="54.125" y2="-12.477"/>
			<line x1="12.602" y1="-12.477" x2="0" y2="-12.477"/>
			<line x1="27.102" y1="-12.477" x2="41.102" y2="-12.477"/>
			<line x1="5.463" y1="-8.701" x2="10.288" y2="-8.701"/>
			<line x1="10.288" y1="-8.701" x2="18.463" y2="-8.701"/>
			<line x1="32.463" y1="-8.701" x2="24.788" y2="-8.701"/>
			<line x1="18.463" y1="-8.701" x2="24.788" y2="-8.701"/>
			<line x1="51.228" y1="-8.701" x2="54.125" y2="-8.701"/>
			<line x1="5.463" y1="-8.701" x2="0" y2="-8.701"/>
			<line x1="51.228" y1="-8.701" x2="47.062" y2="-8.701"/>
			<line x1="47.062" y1="-8.701" x2="38.788" y2="-8.701"/>
			<line x1="32.463" y1="-8.701" x2="38.788" y2="-8.701"/>
			<line x1="6.621" y1="-38.07" x2="0" y2="-38.07"/>
			<line x1="6.621" y1="-38.07" x2="19.309" y2="-38.07"/>
			<line x1="47.246" y1="-38.07" x2="54.125" y2="-38.07"/>
			<line x1="32.621" y1="-38.07" x2="19.309" y2="-38.07"/>
			<line x1="47.246" y1="-38.07" x2="32.621" y2="-38.07"/>
			<line x1="28.04" y1="-34.789" x2="13.04" y2="-34.789"/>
			<line x1="28.04" y1="-34.789" x2="41.853" y2="-34.789"/>
			<line x1="53.912" y1="-34.789" x2="54.125" y2="-34.789"/>
			<line x1="53.912" y1="-34.789" x2="41.853" y2="-34.789"/>
			<line x1="13.04" y1="-34.789" x2="0" y2="-34.789"/>
			<line x1="51.711" y1="-31.364" x2="54.125" y2="-31.364"/>
			<line x1="7.484" y1="-31.364" x2="0" y2="-31.364"/>
			<line x1="34.609" y1="-31.364" x2="49.547" y2="-31.364"/>
			<line x1="34.609" y1="-31.364" x2="20.922" y2="-31.364"/>
			<line x1="51.711" y1="-31.364" x2="49.547" y2="-31.364"/>
			<line x1="7.484" y1="-31.364" x2="20.922" y2="-31.364"/>
			<line x1="27.492" y1="-27.315" x2="12.492" y2="-27.315"/>
			<line x1="40.867" y1="-27.315" x2="27.492" y2="-27.315"/>
			<line x1="12.492" y1="-27.315" x2="0" y2="-27.315"/>
			<line x1="54.055" y1="-27.315" x2="54.125" y2="-27.315"/>
			<line x1="54.055" y1="-27.315" x2="40.867" y2="-27.315"/>
			<line x1="54.125" y1="-23.514" x2="0" y2="-23.514"/>
			<line x1="54.125" y1="-19.315" x2="0" y2="-19.315"/>
			<line x1="51.82" y1="-16.089" x2="0" y2="-16.089"/>
			<line x1="51.82" y1="-16.089" x2="54.125" y2="-16.089"/>
			<line x1="9.015" y1="-0.914" x2="0" y2="-0.914"/>
			<line x1="50.39" y1="-0.914" x2="54.125" y2="-0.914"/>
			<line x1="9.015" y1="-0.914" x2="23.327" y2="-0.914"/>
			<line x1="23.327" y1="-0.914" x2="37.015" y2="-0.914"/>
			<line x1="37.015" y1="-0.914" x2="50.39" y2="-0.914"/>
			<line x1="54.125" y1="-4.289" x2="0" y2="-4.289"/>
			<line x1="5.463" y1="-8.701" x2="5.5" y2="-8.765"/>
			<line x1="5.463" y1="-8.701" x2="2.871" y2="-4.314"/>
			<line x1="15.871" y1="-4.314" x2="18.463" y2="-8.701"/>
			<line x1="18.463" y1="-8.701" x2="18.5" y2="-8.765"/>
			<line x1="32.463" y1="-8.701" x2="32.5" y2="-8.765"/>
			<line x1="32.463" y1="-8.701" x2="29.871" y2="-4.314"/>
			<line x1="47.062" y1="-8.702" x2="47.062" y2="-8.701"/>
			<line x1="47.062" y1="-8.701" x2="44.434" y2="-4.314"/>
			<line x1="50.39" y1="-0.914" x2="52.438" y2="-4.265"/>
			<line x1="50.39" y1="-0.914" x2="50.375" y2="-0.89"/>
			<line x1="37.015" y1="-0.914" x2="39.062" y2="-4.265"/>
			<line x1="37.015" y1="-0.914" x2="37" y2="-0.89"/>
			<line x1="23.327" y1="-0.914" x2="23.312" y2="-0.89"/>
			<line x1="23.327" y1="-0.914" x2="25.375" y2="-4.265"/>
			<line x1="9.015" y1="-0.914" x2="9" y2="-0.89"/>
			<line x1="9.015" y1="-0.914" x2="11.062" y2="-4.265"/>
			<line x1="53.683" y1="-12.477" x2="53.696" y2="-12.497"/>
			<line x1="51.228" y1="-8.701" x2="51.188" y2="-8.64"/>
			<line x1="51.228" y1="-8.701" x2="53.683" y2="-12.477"/>
			<line x1="47.312" y1="-12.515" x2="49.438" y2="-16.077"/>
			<line x1="44.812" y1="-19.39" x2="47.375" y2="-23.452"/>
			<line x1="51.82" y1="-16.089" x2="51.812" y2="-16.077"/>
			<line x1="51.82" y1="-16.089" x2="53.863" y2="-19.289"/>
			<line x1="54.055" y1="-27.315" x2="51.812" y2="-23.577"/>
			<line x1="54.062" y1="-27.327" x2="54.055" y2="-27.315"/>
			<line x1="49.547" y1="-31.364" x2="49.562" y2="-31.39"/>
			<line x1="49.547" y1="-31.364" x2="47.125" y2="-27.327"/>
			<line x1="53.912" y1="-34.789" x2="53.926" y2="-34.81"/>
			<line x1="51.711" y1="-31.364" x2="53.912" y2="-34.789"/>
			<line x1="51.711" y1="-31.364" x2="51.688" y2="-31.327"/>
			<line x1="47.246" y1="-38.07" x2="45.25" y2="-34.827"/>
			<line x1="47.246" y1="-38.07" x2="47.25" y2="-38.077"/>
			<line x1="51.359" y1="-38.077" x2="53.782" y2="-42.089"/>
			<line x1="53.782" y1="-42.089" x2="53.812" y2="-42.14"/>
			<line x1="46.188" y1="-42.14" x2="48.842" y2="-46.247"/>
			<line x1="53.904" y1="-50.435" x2="51.292" y2="-46.327"/>
			<line x1="45.149" y1="-50.452" x2="47.434" y2="-54.202"/>
			<line x1="45.149" y1="-50.452" x2="45.142" y2="-50.439"/>
			<line x1="41.102" y1="-12.477" x2="41.125" y2="-12.515"/>
			<line x1="38.788" y1="-8.701" x2="41.102" y2="-12.477"/>
			<line x1="38.75" y1="-8.64" x2="38.788" y2="-8.701"/>
			<line x1="27.102" y1="-12.477" x2="27.125" y2="-12.515"/>
			<line x1="24.75" y1="-8.64" x2="24.788" y2="-8.701"/>
			<line x1="24.788" y1="-8.701" x2="27.102" y2="-12.477"/>
			<line x1="12.602" y1="-12.477" x2="12.625" y2="-12.515"/>
			<line x1="12.602" y1="-12.477" x2="10.288" y2="-8.701"/>
			<line x1="10.25" y1="-8.64" x2="10.288" y2="-8.701"/>
			<line x1="32.438" y1="-12.515" x2="34.562" y2="-16.077"/>
			<line x1="18.75" y1="-12.515" x2="20.875" y2="-16.077"/>
			<line x1="5.5" y1="-12.515" x2="7.625" y2="-16.077"/>
			<line x1="40" y1="-16.14" x2="41.938" y2="-19.265"/>
			<line x1="25.75" y1="-16.14" x2="27.688" y2="-19.265"/>
			<line x1="10.688" y1="-16.14" x2="12.625" y2="-19.265"/>
			<line x1="30.5" y1="-19.39" x2="33.062" y2="-23.452"/>
			<line x1="16.875" y1="-19.39" x2="19.438" y2="-23.452"/>
			<line x1="3.875" y1="-19.39" x2="6.438" y2="-23.452"/>
			<line x1="40.867" y1="-27.315" x2="38.625" y2="-23.577"/>
			<line x1="40.875" y1="-27.327" x2="40.867" y2="-27.315"/>
			<line x1="27.5" y1="-27.327" x2="27.492" y2="-27.315"/>
			<line x1="27.492" y1="-27.315" x2="25.25" y2="-23.577"/>
			<line x1="12.492" y1="-27.315" x2="10.25" y2="-23.577"/>
			<line x1="12.492" y1="-27.315" x2="12.5" y2="-27.327"/>
			<line x1="34.609" y1="-31.364" x2="34.625" y2="-31.39"/>
			<line x1="34.609" y1="-31.364" x2="32.188" y2="-27.327"/>
			<line x1="18.5" y1="-27.327" x2="20.922" y2="-31.364"/>
			<line x1="20.938" y1="-31.39" x2="20.922" y2="-31.364"/>
			<line x1="7.484" y1="-31.364" x2="5.062" y2="-27.327"/>
			<line x1="7.484" y1="-31.364" x2="7.5" y2="-31.39"/>
			<line x1="41.875" y1="-34.827" x2="41.853" y2="-34.789"/>
			<line x1="39.875" y1="-31.39" x2="41.853" y2="-34.789"/>
			<line x1="28.04" y1="-34.789" x2="26.062" y2="-31.39"/>
			<line x1="28.04" y1="-34.789" x2="28.062" y2="-34.827"/>
			<line x1="13.04" y1="-34.789" x2="11.062" y2="-31.39"/>
			<line x1="13.04" y1="-34.789" x2="13.062" y2="-34.827"/>
			<line x1="32.621" y1="-38.07" x2="32.625" y2="-38.077"/>
			<line x1="32.621" y1="-38.07" x2="30.625" y2="-34.827"/>
			<line x1="17.312" y1="-34.827" x2="19.309" y2="-38.07"/>
			<line x1="19.312" y1="-38.077" x2="19.309" y2="-38.07"/>
			<line x1="6.621" y1="-38.07" x2="4.625" y2="-34.827"/>
			<line x1="6.621" y1="-38.07" x2="6.625" y2="-38.077"/>
			<line x1="40.97" y1="-42.089" x2="41" y2="-42.14"/>
			<line x1="38.562" y1="-38.077" x2="40.97" y2="-42.089"/>
			<line x1="27.532" y1="-42.089" x2="27.562" y2="-42.14"/>
			<line x1="27.532" y1="-42.089" x2="25.125" y2="-38.077"/>
			<line x1="12.72" y1="-42.089" x2="10.312" y2="-38.077"/>
			<line x1="12.72" y1="-42.089" x2="12.75" y2="-42.14"/>
			<line x1="34.781" y1="-46.276" x2="34.812" y2="-46.327"/>
			<line x1="34.781" y1="-46.276" x2="32.25" y2="-42.14"/>
			<line x1="18.625" y1="-42.14" x2="21.125" y2="-46.265"/>
			<line x1="7.969" y1="-46.276" x2="8" y2="-46.327"/>
			<line x1="7.969" y1="-46.276" x2="5.438" y2="-42.14"/>
			<line x1="42.017" y1="-50.452" x2="39.5" y2="-46.327"/>
			<line x1="42.017" y1="-50.452" x2="42.042" y2="-50.493"/>
			<line x1="25.812" y1="-46.327" x2="28.35" y2="-50.452"/>
			<line x1="28.375" y1="-50.493" x2="28.35" y2="-50.452"/>
			<line x1="13.459" y1="-50.41" x2="10.938" y2="-46.327"/>
			<line x1="30.767" y1="-50.439" x2="30.774" y2="-50.452"/>
			<line x1="30.774" y1="-50.452" x2="33.059" y2="-54.202"/>
			<line x1="17.337" y1="-50.452" x2="19.621" y2="-54.202"/>
			<line x1="17.329" y1="-50.439" x2="17.337" y2="-50.452"/>
			<line x1="4.587" y1="-50.452" x2="4.579" y2="-50.439"/>
			<line x1="6.871" y1="-54.202" x2="4.587" y2="-50.452"/>
			<line x1="47.875" y1="-0.827" x2="47.423" y2="-0.077"/>
			<line x1="33.5" y1="-0.827" x2="33.048" y2="-0.077"/>
			<line x1="20.062" y1="-0.827" x2="19.61" y2="-0.077"/>
			<line x1="7.312" y1="-0.827" x2="6.86" y2="-0.077"/>
		</g>
	</g>
</svg>
