<?xml version="1.0" encoding="utf-8"?>
<svg xmlns="http://www.w3.org/2000/svg" version="1.1" x="0px" y="0px" xml:space="preserve" width="53.978" height="53.978" viewBox="1 -54.978 53.978 53.978">
	<metadata id="metadata2">
	<rdf:RDF
		xmlns:dc="http://purl.org/dc/elements/1.1/"
		xmlns:cc="http://creativecommons.org/ns#"
		xmlns:rdf="http://www.w3.org/1999/02/22-rdf-syntax-ns#"
		xmlns="http://my.netscape.com/rdf/simple/0.9/">
		<item rdf:ID="biblio1">
			<link>rdf:resource="http://pubs.usgs.gov/tm/2006/11A02/</link>
			<title>U.S. Geological Survey, 2006, FGDC Digital Cartographic Standard for Geologic Map Symbolization (PostScript Implementation): U.S. Geological Survey Techniques and Methods 11-A2</title>
		</item>
		<item rdf:ID="biblio2">
			<link>https://davenquinn.com/projects/geologic-patterns/</link>
			<title>FGDC Geologic Patterns for the Web</title>
		</item>
		<rdf:Description>
			<dc:description>Converted from 'FGDC Geologic Patterns for the Web' to QGIS compatible svg symbols, with customisable fill colour/stroke colour/stroke width (when appropriate)</dc:description>
			<dc:date>01 MARCH 2019</dc:date>
			<dc:creator>GeoProc.com</dc:creator>
			<dc:publisher rdf:resource="https://github.com/BC-Consulting/QGIS-FGDC-Fill" />
		</rdf:Description>
		<cc:Work rdf:about="">
			<dc:format>image/svg+xml</dc:format>
			<dc:type rdf:resource="http://purl.org/dc/dcmitype/StillImage" />
			<dc:title>FGDC fill symbol: Lithology - Sedimentary - 664 Limonite</dc:title>
		</cc:Work>
	</rdf:RDF>
	</metadata>
	<g>
		<rect x="1" y="-54.978" style="fill:none;stroke:none;" width="53.978" height="53.978"/>
        <g style="fill:none;" stroke="param(outline) #000" stroke-width="param(outline-width) 0.8">
			<circle cx="4.44" cy="-36.017" r="2.357"/>
			<rect x="3.62" y="-36.838" width="1.641" height="1.641"/>
			<circle cx="37.907" cy="-32.679" r="2.357"/>
			<rect x="37.086" y="-33.5" width="1.641" height="1.641"/>
			<circle cx="51.394" cy="-26.583" r="2.357"/>
			<rect x="50.574" y="-27.404" width="1.641" height="1.641"/>
			<circle cx="23.798" cy="-39.407" r="2.357"/>
			<rect x="22.978" y="-40.228" width="1.641" height="1.641"/>
			<circle cx="8.894" cy="-46.833" r="2.357"/>
			<rect x="8.074" y="-47.654" width="1.641" height="1.641"/>
			<circle cx="42.798" cy="-45.657" r="2.357"/>
			<rect x="41.978" y="-46.478" width="1.641" height="1.641"/>
			<circle cx="23.144" cy="-51.208" r="2.357"/>
			<rect x="22.324" y="-52.029" width="1.641" height="1.641"/>
			<circle cx="51.269" cy="-51.708" r="2.357"/>
			<rect x="50.449" y="-52.529" width="1.641" height="1.641"/>
			<circle cx="19.824" cy="-27.862" r="2.357"/>
			<rect x="19.003" y="-28.683" width="1.641" height="1.641"/>
			<circle cx="4.824" cy="-16.237" r="2.357"/>
			<rect x="4.003" y="-17.058" width="1.641" height="1.641"/>
			<circle cx="39.074" cy="-18.112" r="2.357"/>
			<rect x="38.253" y="-18.933" width="1.641" height="1.641"/>
			<circle cx="48.824" cy="-9.862" r="2.357"/>
			<rect x="48.003" y="-10.683" width="1.641" height="1.641"/>
			<circle cx="34.199" cy="-4.987" r="2.357"/>
			<rect x="33.378" y="-5.808" width="1.641" height="1.641"/>
			<circle cx="22.574" cy="-11.987" r="2.357"/>
			<rect x="21.753" y="-12.808" width="1.641" height="1.641"/>
			<circle cx="11.824" cy="-4.237" r="2.357"/>
			<rect x="11.003" y="-5.058" width="1.641" height="1.641"/>
		</g>
	</g>
</svg>
