<?xml version="1.0" encoding="utf-8"?>
<svg xmlns="http://www.w3.org/2000/svg" version="1.1" x="0px" y="0px" xml:space="preserve" width="48.712" height="48.712" viewBox="0 -48.712 48.712 48.712">
	<metadata id="metadata2">
	<rdf:RDF
		xmlns:dc="http://purl.org/dc/elements/1.1/"
		xmlns:cc="http://creativecommons.org/ns#"
		xmlns:rdf="http://www.w3.org/1999/02/22-rdf-syntax-ns#"
		xmlns="http://my.netscape.com/rdf/simple/0.9/">
		<item rdf:ID="biblio1">
			<link>rdf:resource="http://pubs.usgs.gov/tm/2006/11A02/</link>
			<title>U.S. Geological Survey, 2006, FGDC Digital Cartographic Standard for Geologic Map Symbolization (PostScript Implementation): U.S. Geological Survey Techniques and Methods 11-A2</title>
		</item>
		<item rdf:ID="biblio2">
			<link>https://davenquinn.com/projects/geologic-patterns/</link>
			<title>FGDC Geologic Patterns for the Web</title>
		</item>
		<rdf:Description>
			<dc:description>Converted from 'FGDC Geologic Patterns for the Web' to QGIS compatible svg symbols, with customisable fill colour/stroke colour/stroke width (when appropriate)</dc:description>
			<dc:date>01 MARCH 2019</dc:date>
			<dc:creator>GeoProc.com</dc:creator>
			<dc:publisher rdf:resource="https://github.com/BC-Consulting/QGIS-FGDC-Fill" />
		</rdf:Description>
		<cc:Work rdf:about="">
			<dc:format>image/svg+xml</dc:format>
			<dc:type rdf:resource="http://purl.org/dc/dcmitype/StillImage" />
			<dc:title>FGDC fill symbol: Lithology - Sedimentary - 678 Interbedded Limestone And Shale 2nd Option</dc:title>
		</cc:Work>
	</rdf:RDF>
	</metadata>
	<g>
		<rect x="0" y="-48.712" style="fill:none;stroke:none;" width="48.712" height="48.712"/>
        <g style="fill:none;" stroke="param(outline) #000" stroke-width="param(outline-width) 0.8">
			<line x1="0.373" y1="-38.369" x2="0" y2="-38.369"/>
			<line x1="2.695" y1="-38.369" x2="8.428" y2="-38.369"/>
			<line x1="10.721" y1="-38.369" x2="16.452" y2="-38.369"/>
			<line x1="18.745" y1="-38.369" x2="24.478" y2="-38.369"/>
			<line x1="26.771" y1="-38.369" x2="32.502" y2="-38.369"/>
			<line x1="34.795" y1="-38.369" x2="40.527" y2="-38.369"/>
			<line x1="42.82" y1="-38.369" x2="48.697" y2="-38.369"/>
			<line x1="3.52" y1="-34.568" x2="0" y2="-34.568"/>
			<line x1="11.545" y1="-34.568" x2="5.812" y2="-34.568"/>
			<line x1="13.838" y1="-34.568" x2="19.569" y2="-34.568"/>
			<line x1="21.862" y1="-34.568" x2="27.595" y2="-34.568"/>
			<line x1="35.619" y1="-34.568" x2="29.888" y2="-34.568"/>
			<line x1="43.645" y1="-34.568" x2="37.912" y2="-34.568"/>
			<line x1="48.712" y1="-34.568" x2="45.938" y2="-34.568"/>
			<line x1="0" y1="-31.36" x2="0.768" y2="-31.36"/>
			<line x1="8.822" y1="-31.36" x2="3.09" y2="-31.36"/>
			<line x1="16.847" y1="-31.36" x2="11.115" y2="-31.36"/>
			<line x1="24.872" y1="-31.36" x2="19.14" y2="-31.36"/>
			<line x1="32.896" y1="-31.36" x2="27.165" y2="-31.36"/>
			<line x1="40.922" y1="-31.36" x2="35.189" y2="-31.36"/>
			<line x1="43.215" y1="-31.36" x2="48.712" y2="-31.36"/>
			<line x1="0.373" y1="-14.411" x2="0" y2="-14.411"/>
			<line x1="2.695" y1="-14.411" x2="8.428" y2="-14.411"/>
			<line x1="10.721" y1="-14.411" x2="16.452" y2="-14.411"/>
			<line x1="18.745" y1="-14.411" x2="24.478" y2="-14.411"/>
			<line x1="26.771" y1="-14.411" x2="32.502" y2="-14.411"/>
			<line x1="34.795" y1="-14.411" x2="40.527" y2="-14.411"/>
			<line x1="42.82" y1="-14.411" x2="48.697" y2="-14.411"/>
			<line x1="3.52" y1="-10.865" x2="0" y2="-10.865"/>
			<line x1="11.545" y1="-10.865" x2="5.812" y2="-10.865"/>
			<line x1="19.569" y1="-10.865" x2="13.838" y2="-10.865"/>
			<line x1="21.862" y1="-10.865" x2="27.595" y2="-10.865"/>
			<line x1="29.888" y1="-10.865" x2="35.619" y2="-10.865"/>
			<line x1="43.645" y1="-10.865" x2="37.912" y2="-10.865"/>
			<line x1="45.938" y1="-10.865" x2="48.712" y2="-10.865"/>
			<line x1="0.768" y1="-6.994" x2="0" y2="-6.994"/>
			<line x1="8.822" y1="-6.994" x2="3.09" y2="-6.994"/>
			<line x1="16.847" y1="-6.994" x2="11.115" y2="-6.994"/>
			<line x1="19.14" y1="-6.994" x2="24.872" y2="-6.994"/>
			<line x1="32.896" y1="-6.994" x2="27.165" y2="-6.994"/>
			<line x1="40.922" y1="-6.994" x2="35.189" y2="-6.994"/>
			<line x1="43.215" y1="-6.994" x2="48.712" y2="-6.994"/>
			<line x1="24.728" y1="-45.337" x2="16.808" y2="-45.337"/>
			<line x1="11.34" y1="-45.337" x2="16.808" y2="-45.337"/>
			<line x1="0" y1="-45.337" x2="5.332" y2="-45.337"/>
			<line x1="11.34" y1="-45.337" x2="5.332" y2="-45.337"/>
			<line x1="41.895" y1="-45.337" x2="36.989" y2="-45.337"/>
			<line x1="28.957" y1="-45.337" x2="24.728" y2="-45.337"/>
			<line x1="48.532" y1="-45.337" x2="48.712" y2="-45.337"/>
			<line x1="28.957" y1="-45.337" x2="36.989" y2="-45.337"/>
			<line x1="48.532" y1="-45.337" x2="41.895" y2="-45.337"/>
			<line x1="48.712" y1="-41.58" x2="0" y2="-41.58"/>
			<line x1="43.796" y1="-28.159" x2="48.712" y2="-28.159"/>
			<line x1="43.796" y1="-28.159" x2="30.408" y2="-28.159"/>
			<line x1="5.996" y1="-28.159" x2="0" y2="-28.159"/>
			<line x1="18.146" y1="-28.159" x2="5.996" y2="-28.159"/>
			<line x1="18.146" y1="-28.159" x2="30.408" y2="-28.159"/>
			<line x1="48.712" y1="-24.514" x2="0" y2="-24.514"/>
			<line x1="48.712" y1="-21.094" x2="0" y2="-21.094"/>
			<line x1="48.712" y1="-17.314" x2="0" y2="-17.314"/>
			<line x1="28.957" y1="-0.754" x2="34.522" y2="-0.754"/>
			<line x1="5.332" y1="-0.754" x2="0" y2="-0.754"/>
			<line x1="41.895" y1="-0.754" x2="46.56" y2="-0.754"/>
			<line x1="41.895" y1="-0.754" x2="34.522" y2="-0.754"/>
			<line x1="46.56" y1="-0.754" x2="48.712" y2="-0.754"/>
			<line x1="22.26" y1="-0.754" x2="28.957" y2="-0.754"/>
			<line x1="9.267" y1="-0.754" x2="16.808" y2="-0.754"/>
			<line x1="5.332" y1="-0.754" x2="9.267" y2="-0.754"/>
			<line x1="16.808" y1="-0.754" x2="22.26" y2="-0.754"/>
			<line x1="5.332" y1="-48.712" x2="5.332" y2="-45.337"/>
			<line x1="16.808" y1="-48.712" x2="16.808" y2="-45.337"/>
			<line x1="28.957" y1="-45.337" x2="28.957" y2="-48.712"/>
			<line x1="41.895" y1="-48.712" x2="41.895" y2="-45.337"/>
			<line x1="5.332" y1="-0.754" x2="5.332" y2="-0.765"/>
			<line x1="5.332" y1="-0.754" x2="5.332" y2="-0.001"/>
			<line x1="16.808" y1="-0.765" x2="16.808" y2="-0.754"/>
			<line x1="16.808" y1="-0.001" x2="16.808" y2="-0.754"/>
			<line x1="28.957" y1="-0.754" x2="28.957" y2="-0.765"/>
			<line x1="28.957" y1="-0.001" x2="28.957" y2="-0.754"/>
			<line x1="41.895" y1="-0.754" x2="41.895" y2="-0.765"/>
			<line x1="41.895" y1="-0.754" x2="41.895" y2="-0.001"/>
			<line x1="11.34" y1="-45.337" x2="11.34" y2="-41.591"/>
			<line x1="11.34" y1="-45.337" x2="11.34" y2="-45.394"/>
			<line x1="24.728" y1="-45.394" x2="24.728" y2="-45.337"/>
			<line x1="24.728" y1="-45.337" x2="24.728" y2="-41.591"/>
			<line x1="36.989" y1="-45.394" x2="36.989" y2="-45.337"/>
			<line x1="36.989" y1="-41.591" x2="36.989" y2="-45.337"/>
			<line x1="48.532" y1="-45.337" x2="48.532" y2="-41.591"/>
			<line x1="5.996" y1="-28.159" x2="5.996" y2="-28.17"/>
			<line x1="5.996" y1="-28.159" x2="5.996" y2="-24.525"/>
			<line x1="18.146" y1="-28.159" x2="18.146" y2="-24.525"/>
			<line x1="18.146" y1="-28.17" x2="18.146" y2="-28.159"/>
			<line x1="30.408" y1="-24.525" x2="30.408" y2="-28.159"/>
			<line x1="30.408" y1="-28.17" x2="30.408" y2="-28.159"/>
			<line x1="43.796" y1="-28.159" x2="43.796" y2="-24.525"/>
			<line x1="43.796" y1="-28.17" x2="43.796" y2="-28.159"/>
			<line x1="36.033" y1="-21.105" x2="36.033" y2="-24.469"/>
			<line x1="24.041" y1="-21.105" x2="24.041" y2="-24.469"/>
			<line x1="10.541" y1="-24.469" x2="10.541" y2="-21.105"/>
			<line x1="47.939" y1="-21.105" x2="47.939" y2="-24.469"/>
			<line x1="4.973" y1="-21.049" x2="4.973" y2="-17.325"/>
			<line x1="16.673" y1="-17.325" x2="16.673" y2="-21.049"/>
			<line x1="28.935" y1="-17.325" x2="28.935" y2="-21.049"/>
			<line x1="41.76" y1="-17.325" x2="41.76" y2="-21.049"/>
			<line x1="46.56" y1="-3.792" x2="34.522" y2="-3.792"/>
			<line x1="22.26" y1="-3.792" x2="34.522" y2="-3.792"/>
			<line x1="9.267" y1="-3.792" x2="22.26" y2="-3.792"/>
			<line x1="9.267" y1="-3.792" x2="0" y2="-3.792"/>
			<line x1="46.56" y1="-3.792" x2="48.712" y2="-3.792"/>
			<line x1="9.267" y1="-3.792" x2="9.267" y2="-3.814"/>
			<line x1="9.267" y1="-3.792" x2="9.267" y2="-0.754"/>
			<line x1="9.267" y1="-0.697" x2="9.267" y2="-0.754"/>
			<line x1="22.26" y1="-3.814" x2="22.26" y2="-3.792"/>
			<line x1="22.26" y1="-3.792" x2="22.26" y2="-0.754"/>
			<line x1="22.26" y1="-0.697" x2="22.26" y2="-0.754"/>
			<line x1="34.522" y1="-0.754" x2="34.522" y2="-0.697"/>
			<line x1="34.522" y1="-3.814" x2="34.522" y2="-3.792"/>
			<line x1="34.522" y1="-0.754" x2="34.522" y2="-3.792"/>
			<line x1="46.56" y1="-3.792" x2="46.56" y2="-3.814"/>
			<line x1="46.56" y1="-3.792" x2="46.56" y2="-0.754"/>
			<line x1="46.56" y1="-0.697" x2="46.56" y2="-0.754"/>
		</g>
	</g>
</svg>
