<?xml version="1.0" encoding="utf-8"?>
<svg xmlns="http://www.w3.org/2000/svg" version="1.1" x="0px" y="0px" xml:space="preserve" width="54.125" height="54.125" viewBox="0 -54.222 54.125 54.125">
	<metadata id="metadata2">
	<rdf:RDF
		xmlns:dc="http://purl.org/dc/elements/1.1/"
		xmlns:cc="http://creativecommons.org/ns#"
		xmlns:rdf="http://www.w3.org/1999/02/22-rdf-syntax-ns#"
		xmlns="http://my.netscape.com/rdf/simple/0.9/">
		<item rdf:ID="biblio1">
			<link>rdf:resource="http://pubs.usgs.gov/tm/2006/11A02/</link>
			<title>U.S. Geological Survey, 2006, FGDC Digital Cartographic Standard for Geologic Map Symbolization (PostScript Implementation): U.S. Geological Survey Techniques and Methods 11-A2</title>
		</item>
		<item rdf:ID="biblio2">
			<link>https://davenquinn.com/projects/geologic-patterns/</link>
			<title>FGDC Geologic Patterns for the Web</title>
		</item>
		<rdf:Description>
			<dc:description>Converted from 'FGDC Geologic Patterns for the Web' to QGIS compatible svg symbols, with customisable fill colour/stroke colour/stroke width (when appropriate)</dc:description>
			<dc:date>01 MARCH 2019</dc:date>
			<dc:creator>GeoProc.com</dc:creator>
			<dc:publisher rdf:resource="https://github.com/BC-Consulting/QGIS-FGDC-Fill" />
		</rdf:Description>
		<cc:Work rdf:about="">
			<dc:format>image/svg+xml</dc:format>
			<dc:type rdf:resource="http://purl.org/dc/dcmitype/StillImage" />
			<dc:title>FGDC fill symbol: Lithology - Sedimentary - 682 Till Or Diamicton 2nd Option</dc:title>
		</cc:Work>
	</rdf:RDF>
	</metadata>
	<g>
		<rect y="-54.222" style="fill:none;stroke:none;" width="54.125" height="54.125"/>
        <g fill="param(outline) #000" stroke="param(outline) #000" stroke-width="param(outline-width) 0.8">
			<circle cx="0.438" cy="-19.709" r="0.4"/>
			<circle cx="0.625" cy="-0.722" r="0.4"/>
			<circle cx="1.318" cy="-31.699" r="0.4"/>
			<circle cx="1.358" cy="-24.777" r="0.4"/>
			<circle cx="1.375" cy="-50.347" r="0.4"/>
			<circle cx="1.758" cy="-38.959" r="0.4"/>
			<circle cx="1.758" cy="-5.63" r="0.4"/>
			<circle cx="1.798" cy="-13.405" r="0.4"/>
			<circle cx="10.228" cy="-14.76" r="0.4"/>
			<circle cx="10.888" cy="-35.219" r="0.4"/>
			<circle cx="11.548" cy="-29.94" r="0.4"/>
			<circle cx="13.088" cy="-1.01" r="0.4"/>
			<circle cx="13.198" cy="-22.459" r="0.4"/>
			<circle cx="13.308" cy="-4.31" r="0.4"/>
			<circle cx="13.5" cy="-49.972" r="0.4"/>
			<circle cx="13.5" cy="-8.347" r="0.4"/>
			<circle cx="13.642" cy="-38.372" r="0.4"/>
			<circle cx="14.518" cy="-14.539" r="0.4"/>
			<circle cx="14.518" cy="-27.3" r="0.4"/>
			<circle cx="14.958" cy="-34.779" r="0.4"/>
			<circle cx="15.663" cy="-43.319" r="0.4"/>
			<circle cx="16.498" cy="-6.839" r="0.4"/>
			<circle cx="16.608" cy="-22.789" r="0.4"/>
			<circle cx="16.718" cy="-17.069" r="0.4"/>
			<circle cx="16.828" cy="-1.339" r="0.4"/>
			<circle cx="16.828" cy="-40.06" r="0.4"/>
			<circle cx="17.268" cy="-10.909" r="0.4"/>
			<circle cx="17.625" cy="-49.222" r="0.4"/>
			<circle cx="18.258" cy="-29.94" r="0.4"/>
			<circle cx="18.808" cy="-36.209" r="0.4"/>
			<circle cx="19.358" cy="-13.88" r="0.4"/>
			<circle cx="19.468" cy="-24.989" r="0.4"/>
			<circle cx="2.418" cy="-16.959" r="0.4"/>
			<circle cx="20.018" cy="-20.81" r="0.4"/>
			<circle cx="20.646" cy="-45.107" r="0.4"/>
			<circle cx="21.008" cy="-0.569" r="0.4"/>
			<circle cx="21.338" cy="-33.569" r="0.4"/>
			<circle cx="21.875" cy="-50.847" r="0.4"/>
			<circle cx="21.937" cy="-3.621" r="0.4"/>
			<circle cx="22.438" cy="-10.469" r="0.4"/>
			<circle cx="22.438" cy="-26.859" r="0.4"/>
			<circle cx="22.988" cy="-37.199" r="0.4"/>
			<circle cx="23.098" cy="-14.43" r="0.4"/>
			<circle cx="23.318" cy="-20.149" r="0.4"/>
			<circle cx="23.5" cy="-7.222" r="0.4"/>
			<circle cx="24.198" cy="-23.779" r="0.4"/>
			<circle cx="24.625" cy="-47.597" r="0.4"/>
			<circle cx="25.298" cy="-2.659" r="0.4"/>
			<circle cx="25.305" cy="-44.023" r="0.4"/>
			<circle cx="25.5" cy="-33.597" r="0.4"/>
			<circle cx="26" cy="-51.972" r="0.4"/>
			<circle cx="26.068" cy="-18.06" r="0.4"/>
			<circle cx="27.388" cy="-14.649" r="0.4"/>
			<circle cx="27.388" cy="-26.529" r="0.4"/>
			<circle cx="27.498" cy="-5.63" r="0.4"/>
			<circle cx="27.859" cy="-40.667" r="0.4"/>
			<circle cx="28.125" cy="-36.222" r="0.4"/>
			<circle cx="29.148" cy="-22.02" r="0.4"/>
			<circle cx="3.692" cy="-43.157" r="0.4"/>
			<circle cx="30.125" cy="-44.999" r="0.4"/>
			<circle cx="30.358" cy="-17.399" r="0.4"/>
			<circle cx="30.688" cy="-30.38" r="0.4"/>
			<circle cx="31.128" cy="-12.339" r="0.4"/>
			<circle cx="31.568" cy="-2.659" r="0.4"/>
			<circle cx="31.702" cy="-42.348" r="0.4"/>
			<circle cx="32.558" cy="-8.269" r="0.4"/>
			<circle cx="32.668" cy="-26.75" r="0.4"/>
			<circle cx="32.998" cy="-37.199" r="0.4"/>
			<circle cx="33.75" cy="-49.347" r="0.4"/>
			<circle cx="33.988" cy="-22.569" r="0.4"/>
			<circle cx="34.25" cy="-53.621" r="0.4"/>
			<circle cx="34.538" cy="-15.089" r="0.4"/>
			<circle cx="35.638" cy="-29.609" r="0.4"/>
			<circle cx="36.024" cy="-43.608" r="0.4"/>
			<circle cx="36.958" cy="-36.1" r="0.4"/>
			<circle cx="37.178" cy="-6.729" r="0.4"/>
			<circle cx="37.838" cy="-2.989" r="0.4"/>
			<circle cx="37.875" cy="-51.847" r="0.4"/>
			<circle cx="38.058" cy="-20.26" r="0.4"/>
			<circle cx="38.168" cy="-41.05" r="0.4"/>
			<circle cx="38.718" cy="-14.1" r="0.4"/>
			<circle cx="38.718" cy="-26.859" r="0.4"/>
			<circle cx="4.948" cy="-2.44" r="0.4"/>
			<circle cx="40.125" cy="-30.597" r="0.4"/>
			<circle cx="40.588" cy="-0.459" r="0.4"/>
			<circle cx="41.138" cy="-9.039" r="0.4"/>
			<circle cx="41.375" cy="-49.347" r="0.4"/>
			<circle cx="41.688" cy="-33.68" r="0.4"/>
			<circle cx="41.798" cy="-22.239" r="0.4"/>
			<circle cx="41.798" cy="-4.639" r="0.4"/>
			<circle cx="42.788" cy="-14.869" r="0.4"/>
			<circle cx="43" cy="-42.472" r="0.4"/>
			<circle cx="44.328" cy="-1.339" r="0.4"/>
			<circle cx="44.658" cy="-29.389" r="0.4"/>
			<circle cx="45" cy="-51.722" r="0.4"/>
			<circle cx="45.538" cy="-23.669" r="0.4"/>
			<circle cx="45.538" cy="-8.489" r="0.4"/>
			<circle cx="46.088" cy="-35.77" r="0.4"/>
			<circle cx="46.375" cy="-48.347" r="0.4"/>
			<circle cx="47.011" cy="-44.329" r="0.4"/>
			<circle cx="47.408" cy="-13.769" r="0.4"/>
			<circle cx="48.178" cy="-32.689" r="0.4"/>
			<circle cx="48.288" cy="-20.81" r="0.4"/>
			<circle cx="48.375" cy="-28.972" r="0.4"/>
			<circle cx="48.632" cy="-40.967" r="0.4"/>
			<circle cx="49.608" cy="-36.869" r="0.4"/>
			<circle cx="49.938" cy="-8.489" r="0.4"/>
			<circle cx="5.058" cy="-31.369" r="0.4"/>
			<circle cx="5.058" cy="-8.159" r="0.4"/>
			<circle cx="5.168" cy="-13.329" r="0.4"/>
			<circle cx="50.125" cy="-50.472" r="0.4"/>
			<circle cx="50.375" cy="-45.597" r="0.4"/>
			<circle cx="50.708" cy="-27.3" r="0.4"/>
			<circle cx="51.148" cy="-17.399" r="0.4"/>
			<circle cx="51.479" cy="-22.899" r="0.4"/>
			<circle cx="52.358" cy="-11.019" r="0.4"/>
			<circle cx="52.578" cy="-1.889" r="0.4"/>
			<circle cx="52.908" cy="-35" r="0.4"/>
			<circle cx="53.019" cy="-6.289" r="0.4"/>
			<circle cx="53.5" cy="-48.722" r="0.4"/>
			<circle cx="53.568" cy="-41.709" r="0.4"/>
			<circle cx="6.378" cy="-35.88" r="0.4"/>
			<circle cx="6.488" cy="-40.719" r="0.4"/>
			<circle cx="6.818" cy="-15.969" r="0.4"/>
			<circle cx="7.038" cy="-27.3" r="0.4"/>
			<circle cx="7.588" cy="-0.35" r="0.4"/>
			<circle cx="7.875" cy="-51.847" r="0.4"/>
			<circle cx="9.5" cy="-9.222" r="0.4"/>
			<circle cx="9.568" cy="-23.56" r="0.4"/>
			<circle cx="9.625" cy="-43.847" r="0.4"/>
			<circle cx="9.788" cy="-18.719" r="0.4"/>
			<line style="fill:none;" x1="17.378" y1="-32.139" x2="10.415" y2="-32.665"/>
			<line style="fill:none;" x1="20.33" y1="-47.094" x2="13.96" y2="-45.84"/>
			<line style="fill:none;" x1="22.587" y1="-52.979" x2="30.988" y2="-53.414"/>
			<line style="fill:none;" x1="23.635" y1="-5.822" x2="16.375" y2="-4.746"/>
			<line style="fill:none;" x1="23.958" y1="-16.946" x2="17.378" y2="-18.279"/>
			<line style="fill:none;" x1="26.298" y1="-39.466" x2="34.598" y2="-38.549"/>
			<line style="fill:none;" x1="28.391" y1="-24.604" x2="36.129" y2="-25.652"/>
			<line style="fill:none;" x1="3.783" y1="-53.305" x2="12.027" y2="-52.736"/>
			<line style="fill:none;" x1="38.718" y1="-11.68" x2="46.689" y2="-10.9"/>
			<line style="fill:none;" x1="38.718" y1="-18.5" x2="32.502" y2="-19.042"/>
			<line style="fill:none;" x1="38.941" y1="-4.767" x2="30.613" y2="-5.43"/>
			<line style="fill:none;" x1="39.384" y1="-47.19" x2="32.873" y2="-46.637"/>
			<line style="fill:none;" x1="42.854" y1="-53.459" x2="49.913" y2="-52.656"/>
			<line style="fill:none;" x1="43.946" y1="-31.985" x2="35.609" y2="-32.672"/>
			<line style="fill:none;" x1="45.979" y1="-38.959" x2="52.09" y2="-39.759"/>
			<line style="fill:none;" x1="46.858" y1="-25.319" x2="53.576" y2="-23.658"/>
			<line style="fill:none;" x1="5.659" y1="-10.981" x2="13.881" y2="-12.271"/>
			<line style="fill:none;" x1="6.385" y1="-38.388" x2="13.642" y2="-41.073"/>
			<line style="fill:none;" x1="7.038" y1="-25.539" x2="14.446" y2="-25.088"/>
			<path style="fill:none;" d="M14.188-20.149c1.375,0.936,0.11,1.925-0.88,1.32    C12.318-19.435,13.143-20.645,14.188-20.149z"/>
			<path style="fill:none;" d="M16.96-52.871c1.65,0,1.402,1.649,0.165,1.649    S15.558-52.871,16.96-52.871z"/>
			<path style="fill:none;" d="M19.578-9.919c1.375,0.109,1.155,1.484,0.165,1.539    C18.753-8.324,18.148-9.919,19.578-9.919z"/>
			<path style="fill:none;" d="M2.136-10.962c0.825,0.825-0.22,1.595-0.88,0.99    C0.596-10.576,0.981-11.677,2.136-10.962z"/>
			<path style="fill:none;" d="M2.831-36.154c1.732-0.66,3.3,1.402,1.237,1.979    C2.005-33.597,1.016-35.742,2.831-36.154z"/>
			<path style="fill:none;" d="M20.898-30.627"/>
			<path style="fill:none;" d="M20.898-30.627c0.76-1.266,2.64-1.485,3.465-1.237    c0.825,0.247,1.155,0.66,1.65,0.577c0.495-0.082,1.732,1.155,0.578,1.98c-1.155,0.825-2.888,1.567-3.465,1.237    c-0.577-0.33-1.237-0.66-1.65-0.825C21.063-29.06,20.651-30.214,20.898-30.627z"/>
			<path style="fill:none;" d="M21.173-41.597c1.485,0.083,1.32,1.568,0.083,1.65    C20.018-39.864,19.853-41.431,21.173-41.597z"/>
			<path style="fill:none;" d="M28.268-20.094c-0.055,1.319-1.54,0.989-1.595,0.055    C26.618-20.975,28.048-21.469,28.268-20.094z"/>
			<path style="fill:none;" d="M28.323-2.055c1.132,0.417,0.77,1.87-0.44,1.431    C26.673-1.064,27.278-2.44,28.323-2.055z"/>
			<path style="fill:none;" d="M28.901-11.322c1.732,0.908,1.402,2.641-0.578,2.229    c-1.98-0.413-2.723-1.237-3.135-2.146c-0.412-0.907,0.99-1.979,2.558-0.99C28.158-11.817,28.901-11.322,28.901-11.322z"/>
			<path style="fill:none;" d="M3.018-46.031c-0.055,1.319-1.54,0.989-1.595,0.055    C1.368-46.912,2.798-47.406,3.018-46.031z"/>
			<path style="fill:none;" d="M3.974-27.808c0.055,1.266-1.43,1.155-1.485,0.22    C2.434-28.522,3.864-28.963,3.974-27.808z"/>
			<path style="fill:none;" d="M30.875-50.784c1.017,0.611,1.25,2,0.5,2.5S28.5-47.909,28-48.409    s-1-1.5,0.25-2.125S30.25-51.159,30.875-50.784z"/>
			<path style="fill:none;" d="M32.283-35.906c1.65,0,1.402,1.649,0.165,1.649    C31.21-34.257,30.881-35.906,32.283-35.906z"/>
			<path style="fill:none;" d="M36.683-11.789c0,1.265-1.43,1.045-1.43,0.055    C35.253-12.725,36.683-13.055,36.683-11.789z"/>
			<path style="fill:none;" d="M41.358-38.877c0.99,0,1.815,0.577,2.062,1.237    c0.248,0.66-0.66,2.64-2.558,1.402C38.966-37.475,39.708-39.042,41.358-38.877z"/>
			<path style="fill:none;" d="M41.367-44.93c0.055,1.266-1.43,1.155-1.485,0.221    C39.827-45.644,41.257-46.084,41.367-44.93z"/>
			<path style="fill:none;" d="M42.513-26.337c1.403,0,1.32,1.402,0.165,1.402    C41.523-24.935,40.781-26.255,42.513-26.337z"/>
			<path style="fill:none;" d="M45.701-6.314c0.825,0.604,0.33,1.705-0.825,1.045    C43.721-5.929,44.381-7.085,45.701-6.314z"/>
			<path style="fill:none;" d="M45.813-20.067c2.228,1.403,2.062,3.631-0.413,2.888    c-2.475-0.742-2.393-0.989-3.465-2.64C40.863-21.469,44.328-20.975,45.813-20.067z"/>
			<path style="fill:none;" d="M49.608-4.475c1.485-1.155,2.723,0.331,1.732,1.155    c-0.99,0.825-2.393,1.98-3.3,1.32c-0.908-0.66-0.578-1.816,0.33-1.981C49.278-4.144,49.608-4.475,49.608-4.475z"/>
			<path style="fill:none;" d="M5.5-49.097c0.625-0.75,1.625-0.75,3.125-0.25s1.625,1,2.125,1    s1.375,2,0.125,2.25s-4.375,0.5-4.75-0.375S5.5-49.097,5.5-49.097z"/>
			<path style="fill:none;" d="M51.918-15.364c1.21,0,1.375,1.43,0.275,1.484    C51.093-13.824,50.488-15.255,51.918-15.364z"/>
			<path style="fill:none;" d="M52.743-31.947c0,1.32-1.402,1.155-1.485,0    C51.176-33.102,52.743-32.938,52.743-31.947z"/>
			<path style="fill:none;" d="M6.213-23.284c1.238,0.247,1.898,0.742,1.98,1.732    c0.083,0.989-0.577,1.979-2.887,1.814c-2.31-0.164-3.795-0.577-2.475-2.144c0.825-0.082,1.155-0.248,1.485-0.907    C4.646-23.449,5.636-23.449,6.213-23.284z"/>
			<path style="fill:none;" d="M9.266-5.794c2.062,0.412,2.97,1.402,1.567,2.227    c-1.402,0.825-1.402,0.661-2.97,0.166c-1.568-0.495-2.97-1.073-1.98-1.815C6.873-5.959,8.193-6.206,9.266-5.794z"/>
		</g>
	</g>
</svg>