<?xml version="1.0" encoding="UTF-8" standalone="no"?>
<svg xmlns:dc="http://purl.org/dc/elements/1.1/" xmlns:cc="http://creativecommons.org/ns#" xmlns:rdf="http://www.w3.org/1999/02/22-rdf-syntax-ns#" xmlns:svg="http://www.w3.org/2000/svg" xmlns="http://www.w3.org/2000/svg" version="1.1" x="0px" y="0px" xml:space="preserve" width="50.00" height="50.00" viewBox="0 0 50.00 50.00">
	<metadata id="metadata2">
		<rdf:RDF>
			<ns:item rdf:ID="biblio1">
				<ns:link>rdf:resource=&quot;http://pubs.usgs.gov/tm/2006/11A02/</ns:link>
				<ns:title>U.S. Geological Survey, 2006, FGDC Digital Cartographic Standard for Geologic Map Symbolization (PostScript Implementation): U.S. Geological Survey Techniques and Methods 11-A2</ns:title>
			</ns:item>
			<ns:item rdf:ID="biblio2">
				<ns:link>https://davenquinn.com/projects/geologic-patterns/</ns:link>
				<ns:title>FGDC Geologic Patterns for the Web</ns:title>
			</ns:item>
			<rdf:Description>
				<dc:description>
					Converted from 'FGDC Geologic Patterns for the Web' to QGIS compatible svg symbols, with customisable fill colour/stroke colour/stroke width (when appropriate).
					SVG scaled to 50x50 pixels so that base outline-width is 0.387 px and width is 90 in the QGIS xml definition file. 
					Some of the original FGDC symbols have been omitted from this set because they can be generated from other symbols using the 'texture width' and/or 'stroke width' fields in QGIS symbology form.
				</dc:description>
				<dc:date>01 MARCH 2019</dc:date>
				<dc:creator>GeoProc.com</dc:creator>
				<dc:publisher rdf:resource="https://github.com/BC-Consulting/QGIS-FGDC-Fill" />
			</rdf:Description>
			<cc:Work rdf:about="">
				<dc:format>image/svg+xml</dc:format>
				<dc:type rdf:resource="http://purl.org/dc/dcmitype/StillImage" />
				<dc:title>FGDC fill symbol: Lithology - Metamorphism, Igneous and vein - 704 Schistose Or Gneissoid Granite</dc:title>
			</cc:Work>
		</rdf:RDF>
	</metadata>
	<path style="fill:none;stroke:none;stroke-width:0;" id="rect1500" width="50.00" height="50.00" x="0.0" y="0.0" />
	<g style="fill:none;" stroke="param(outline) #000" stroke-width="param(outline-width) 0.387">
		<path d="M 1.6592187,8.499652e-4 C 2.3839057,1.8070451 4.1544186,4.0516205 6.5153858,5.2580161 c 2.628583,1.3440266 3.9913002,3.71264 4.6726592,5.0235329 0.759519,1.460419 3.534229,3.709242 5.519684,4.643774 1.985456,0.934532 4.556268,3.620886 5.023534,5.023533 0.467265,1.401798 3.504494,4.321785 5.023533,5.139925 1.519039,0.81729 4.321785,3.504494 4.906292,4.7899 0.584507,1.284556 2.687203,3.738127 5.023533,5.023533 2.336329,1.284557 4.439026,3.620886 5.023533,5.023533 0.584507,1.401798 2.920837,4.088152 5.023533,5.022684 1.129085,0.501249 2.298948,1.500348 3.268313,2.605645" id="path5" />
		<path d="M 7.0905476,8.499652e-4 C 7.8152345,1.8070451 9.5857475,4.0516205 11.945865,5.2580161 c 2.628583,1.3440266 3.9913,3.71264 4.672659,5.0235329 0.75952,1.460419 3.53338,3.709242 5.519685,4.643774 1.985455,0.934532 4.555417,3.620886 5.023533,5.023533 0.467266,1.401798 3.504494,4.321785 5.022683,5.139925 1.519039,0.81729 4.322635,3.504494 4.906292,4.7899 0.584508,1.284556 2.687204,3.738127 5.023534,5.023533 2.336329,1.284557 4.439026,3.620886 5.023533,5.023533 0.384007,0.921789 1.524986,2.398349 2.859667,3.568213" id="path7" />
		<path d="M 12.658658,8.499652e-4 C 13.383345,1.8070451 15.153858,4.0516205 17.514825,5.2580161 c 2.628583,1.3440266 3.990451,3.71264 4.672659,5.0235329 0.759519,1.460419 3.53338,3.709242 5.519685,4.643774 1.986304,0.934532 4.556267,3.620886 5.023533,5.023533 0.467266,1.401798 3.504494,4.321785 5.023533,5.139925 1.519039,0.81729 4.321785,3.504494 4.906292,4.7899 0.584507,1.284556 2.687204,3.738127 5.023533,5.023533 0.81899,0.450275 1.609094,1.029684 2.31594,1.653272" id="path9" />
		<path d="M 18.225069,8.499652e-4 C 18.950606,1.8070451 20.720269,4.0516205 23.081236,5.2580161 c 2.628583,1.3440266 3.991301,3.71264 4.672659,5.0235329 0.75952,1.460419 3.53423,3.709242 5.519685,4.643774 1.985455,0.934532 4.555418,3.620886 5.023533,5.023533 0.467266,1.401798 3.504494,4.321785 5.022684,5.139925 1.519039,0.81729 4.322634,3.504494 4.906292,4.7899 0.282908,0.622738 0.921788,1.519039 1.771362,2.423836" id="path11" />
		<path d="M 23.79318,8.499652e-4 C 24.517866,1.8070451 26.288379,4.0516205 28.648497,5.2580161 c 2.628583,1.3440266 3.9913,3.71264 4.672659,5.0235329 0.759519,1.460419 3.534229,3.709242 5.519685,4.643774 1.986304,0.934532 4.556267,3.620886 5.023533,5.023533 0.467266,1.401798 3.504494,4.321785 5.023533,5.139925 0.322838,0.174163 0.704297,0.432433 1.110394,0.744227" id="path13" />
		<path d="M 29.36044,8.499652e-4 C 30.085127,1.8070451 31.854791,4.0516205 34.215758,5.2580161 c 2.628583,1.3440266 3.9913,3.71264 4.672659,5.0235329 0.759519,1.460419 3.53338,3.709242 5.519684,4.643774 1.986305,0.934532 4.556268,3.620886 5.023534,5.023533 0.0943,0.283758 0.294802,0.629535 0.565816,1.008445" id="path15" />
		<path d="M 34.927701,8.499652e-4 C 35.653238,1.8070451 37.422901,4.0516205 39.783868,5.2580161 c 2.628583,1.3440266 3.9913,3.71264 4.672659,5.0235329 0.75952,1.460419 3.534229,3.709242 5.519685,4.643774 0.0068,0.0034 0.01444,0.0068 0.02124,0.01019" id="path17" />
		<path d="M 40.494962,8.499652e-4 C 41.220498,1.8070451 42.990162,4.0516205 45.351129,5.2580161 c 2.596299,1.3270352 3.956468,3.6540193 4.647172,4.9734079" id="path19" />
		<path d="M 46.063072,8.499652e-4 C 46.690058,1.5632172 48.100352,3.4543697 49.998301,4.7168372" id="path21" />
		<path d="m 0,47.551527 c 0.70854502,0.808795 1.3091941,1.675361 1.7059453,2.446774" id="path23" />
		<path d="m 0,43.491411 c 0.69495183,0.609145 1.4425773,1.135031 2.1630163,1.454471 1.954021,0.868265 4.0337791,3.224135 4.9742579,5.052419" id="path25" />
		<path d="m 0,36.552937 c 1.3083445,1.154572 2.3278337,2.459518 2.7075935,3.370262 0.5845071,1.401797 2.9208366,4.088152 5.0235332,5.022683 1.954021,0.868265 4.0329293,3.224135 4.9734083,5.052419" id="path27" />
		<path d="m 0,32.300818 c 0.90394712,0.963417 2.0466246,1.937029 3.2513211,2.598848 2.3363295,1.284556 4.439026,3.620885 5.0235332,5.023533 0.5845071,1.401797 2.9208367,4.088152 5.0235327,5.022683 1.954021,0.868265 4.03293,3.224135 4.974258,5.052419" id="path29" />
		<path d="m 0,25.832158 c 1.5011979,1.152873 3.3362785,3.032981 3.7958982,4.044824 0.5845072,1.284556 2.6872037,3.738127 5.0235332,5.023533 2.3363296,1.284557 4.4390256,3.620886 5.0226836,5.023533 0.584507,1.401798 2.920837,4.088152 5.023533,5.022684 1.954021,0.868265 4.03293,3.224135 4.974258,5.052419" id="path31" />
		<path d="m 0,20.955602 c 1.0687645,1.490153 3.2462236,3.479856 4.4577167,4.13148 1.5181893,0.81729 4.3217847,3.504494 4.9062919,4.7899 0.5845072,1.284556 2.6872034,3.738127 5.0235334,5.023533 2.336329,1.284557 4.439026,3.620886 5.023533,5.023533 0.584507,1.401798 2.920837,4.088152 5.022684,5.022684 1.954021,0.868265 4.032929,3.224135 4.974257,5.052419" id="path33" />
		<path d="m 0,14.934668 c 1.9829066,0.943877 4.5358775,3.615789 5.0014443,5.012489 0.4672659,1.401797 3.5044942,4.321785 5.0235327,5.139925 1.519039,0.81729 4.321785,3.504494 4.906292,4.7899 0.584508,1.284556 2.687204,3.738127 5.023534,5.023533 2.336329,1.284557 4.439026,3.620886 5.023533,5.023533 0.584507,1.401798 2.920836,4.088152 5.023533,5.022684 1.954021,0.868265 4.032929,3.224135 4.973408,5.052419" id="path35" />
		<path d="m 0,10.231424 c 0.00849574,0.01699 0.01784106,0.03313 0.02548723,0.04928 0.75951948,1.460418 3.53422937,3.709241 5.51968457,4.643773 1.9854553,0.934532 4.5554182,3.620886 5.0235332,5.023533 0.467266,1.401798 3.504494,4.321785 5.023533,5.139925 1.51819,0.817291 4.321785,3.504494 4.906292,4.7899 0.584507,1.284557 2.687204,3.738128 5.023533,5.023534 2.33633,1.284556 4.439026,3.620886 5.023534,5.023533 0.584507,1.401798 2.920836,4.088152 5.023533,5.022683 1.953171,0.868265 4.032929,3.224135 4.973408,5.052419" id="path37" />
		<path d="M 0,4.7168372 C 0.29565188,4.9130889 0.6031978,5.0948978 0.92093861,5.2571665 3.5495217,6.6011932 4.9113894,8.9698065 5.5935976,10.2807 c 0.7586699,1.460418 3.5333797,3.709241 5.5196844,4.643773 1.986305,0.934532 4.556267,3.620886 5.023533,5.023533 0.467266,1.401798 3.504495,4.321785 5.023534,5.139925 1.519039,0.817291 4.321784,3.504494 4.906292,4.7899 0.584507,1.284557 2.687203,3.738128 5.023533,5.023534 2.336329,1.284556 4.439026,3.620886 5.023533,5.023533 0.584507,1.401798 2.920837,4.088152 5.023533,5.022683 1.954021,0.868265 4.033779,3.224135 4.974258,5.052419" id="path39" />
		<line x1="10.666406" y1="6.073606" x2="8.4583626" y2="5.1271815" id="line41" />
		<line x1="9.8406191" y1="11.059761" x2="7.6334257" y2="10.113333" id="line43" />
		<line x1="14.479297" y1="9.5373201" x2="14.373949" y2="11.850715" id="line45" />
		<line x1="22.900276" y1="17.54966" x2="20.430565" y2="16.44606" id="line47" />
		<line x1="28.557594" y1="23.687834" x2="26.004622" y2="22.89518" id="line49" />
		<line x1="20.765297" y1="26.311317" x2="18.719521" y2="25.711519" id="line51" />
		<line x1="34.163086" y1="28.511715" x2="33.5327" y2="30.929605" id="line53" />
		<line x1="41.307156" y1="36.716904" x2="39.155182" y2="35.019455" id="line55" />
		<line x1="46.4063" y1="41.401459" x2="44.374119" y2="40.630894" id="line57" />
		<line x1="10.830374" y1="2.3286848" x2="10.106537" y2="0.37806094" id="line59" />
		<line x1="17.459602" y1="6.2435217" x2="15.667851" y2="7.1780553" id="line61" />
		<line x1="22.090633" y1="11.708836" x2="19.496033" y2="11.867703" id="line63" />
		<line x1="10.73692" y1="15.854756" x2="8.7293768" y2="15.6738" id="line65" />
		<line x1="28.494724" y1="17.449409" x2="28.179531" y2="19.972643" id="line67" />
		<line x1="34.021206" y1="24.894228" x2="32.926952" y2="22.647106" id="line69" />
		<line x1="40.098213" y1="29.167587" x2="38.861229" y2="31.256691" id="line71" />
		<line x1="28.641701" y1="28.169338" x2="27.777681" y2="29.504869" id="line73" />
		<line x1="18.322771" y1="2.3635178" x2="16.955805" y2="3.4152899" id="line75" />
		<line x1="34.76968" y1="17.892038" x2="32.491119" y2="16.700933" id="line77" />
		<line x1="22.03966" y1="22.845903" x2="19.463747" y2="21.269094" id="line79" />
		<line x1="25.632509" y1="9.5500669" x2="25.317316" y2="11.652762" id="line81" />
		<line x1="40.411705" y1="23.943556" x2="37.783119" y2="23.628363" id="line83" />
		<line x1="46.712997" y1="31.143696" x2="44.64938" y2="30.763088" id="line85" />
		<line x1="46.9118" y1="37.451786" x2="46.280563" y2="35.349091" id="line87" />
		<line x1="3.1587176" y1="8.8168821" x2="1.7917525" y2="9.8686571" id="line89" />
		<line x1="13.996737" y1="19.219072" x2="13.681545" y2="21.321768" id="line91" />
		<line x1="25.088779" y1="31.940599" x2="24.446503" y2="30.25844" id="line93" />
		<line x1="34.313457" y1="41.09901" x2="33.683075" y2="38.996315" id="line95" />
		<line x1="4.3022447" y1="5.0889492" x2="1.7790087" y2="3.6174877" id="line97" />
		<line x1="35.526653" y1="35.568279" x2="33.677128" y2="35.024551" id="line99" />
		<line x1="40.312302" y1="42.307953" x2="38.889267" y2="40.453335" id="line101" />
		<line x1="41.509354" y1="46.718945" x2="40.659779" y2="48.276215" id="line103" />
		<line x1="46.129341" y1="47.366322" x2="45.579666" y2="45.639133" id="line105" />
		<line x1="30.252495" y1="35.497765" x2="28.855793" y2="36.378773" id="line107" />
		<line x1="15.994086" y1="17.642262" x2="15.153008" y2="15.32887" id="line109" />
		<line x1="40.097363" y1="1.93618" x2="37.889317" y2="0.98975551" id="line111" />
		<line x1="46.819195" y1="7.8866" x2="46.535435" y2="10.86011" id="line113" />
		<line x1="41.026794" y1="7.550169" x2="38.184967" y2="7.1364264" id="line115" />
		<line x1="46.691757" y1="3.2700114" x2="44.096306" y2="3.4288821" id="line117" />
		<line x1="33.791821" y1="8.1695089" x2="32.65934" y2="5.7626643" id="line119" />
		<line x1="48.040031" y1="15.567602" x2="45.926292" y2="14.42832" id="line121" />
		<line x1="28.025757" y1="1.1180388" x2="26.658792" y2="2.1689651" id="line123" />
		<line x1="40.400658" y1="13.090243" x2="40.085468" y2="15.192939" id="line125" />
		<line x1="46.818344" y1="26.838055" x2="46.5023" y2="24.419317" id="line127" />
		<line x1="28.075035" y1="6.1160874" x2="25.66819" y2="5.5494218" id="line129" />
		<line x1="41.013203" y1="19.072096" x2="39.190865" y2="19.072096" id="line131" />
		<line x1="20.522318" y1="43.357178" x2="18.10358" y2="42.725945" id="line133" />
		<line x1="4.3404756" y1="44.843082" x2="6.0642619" y2="44.687611" id="line135" />
		<line x1="3.5775576" y1="31.125856" x2="1.0551714" y2="30.495472" id="line137" />
		<line x1="19.490936" y1="30.825106" x2="18.200432" y2="31.752842" id="line139" />
		<line x1="4.4619646" y1="40.154282" x2="3.8307309" y2="37.315853" id="line141" />
		<line x1="21.666695" y1="48.066368" x2="19.420422" y2="49.161469" id="line143" />
		<line x1="13.892241" y1="47.06897" x2="11.803137" y2="45.831139" id="line145" />
		<line x1="15.33142" y1="38.453434" x2="14.135218" y2="36.374527" id="line147" />
		<line x1="9.7029886" y1="27.603521" x2="8.7115355" y2="25.762493" id="line149" />
		<line x1="7.8798022" y1="19.921671" x2="6.8067904" y2="21.393133" id="line151" />
		<line x1="2.4884033" y1="13.668803" x2="2.2165396" y2="15.390891" id="line153" />
		<line x1="7.7387724" y1="30.25844" x2="6.9308281" y2="32.170834" id="line155" />
		<line x1="14.39349" y1="27.002022" x2="13.594889" y2="25.555197" id="line157" />
		<line x1="14.573599" y1="31.292374" x2="13.119127" y2="32.665283" id="line159" />
		<line x1="25.048851" y1="41.851734" x2="24.285933" y2="43.438736" id="line161" />
		<line x1="20.198631" y1="38.187519" x2="19.503679" y2="36.181671" id="line163" />
		<line x1="13.261005" y1="41.16103" x2="12.908433" y2="43.651131" id="line165" />
		<line x1="31.933802" y1="43.409004" x2="30.21851" y2="44.143036" id="line167" />
		<line x1="3.3566685" y1="47.138634" x2="2.6379282" y2="49.030636" id="line169" />
		<line x1="2.4816067" y1="25.107471" x2="0.6363312" y2="24.414219" id="line171" />
		<line x1="3.0661139" y1="20.063549" x2="1.3176899" y2="20.482389" id="line173" />
		<line x1="10.322329" y1="37.886768" x2="8.0548143" y2="37.203712" id="line175" />
		<line x1="26.287531" y1="37.196915" x2="25.595976" y2="38.754185" id="line177" />
		<line x1="33.717056" y1="12.529524" x2="31.299168" y2="11.899139" id="line179" />
		<line x1="30.80047" y1="46.842983" x2="30.108917" y2="48.400253" id="line181" />
	</g>
</svg>
