<?xml version="1.0" encoding="UTF-8" standalone="no"?>
<svg xmlns:dc="http://purl.org/dc/elements/1.1/" xmlns:cc="http://creativecommons.org/ns#" xmlns:rdf="http://www.w3.org/1999/02/22-rdf-syntax-ns#" xmlns:svg="http://www.w3.org/2000/svg" xmlns="http://www.w3.org/2000/svg" version="1.1" x="0px" y="0px" xml:space="preserve" width="50.00" height="50.00" viewBox="0 0 50.00 50.00">
	<metadata id="metadata2">
		<rdf:RDF>
			<ns:item rdf:ID="biblio1">
				<ns:link>rdf:resource=&quot;http://pubs.usgs.gov/tm/2006/11A02/</ns:link>
				<ns:title>U.S. Geological Survey, 2006, FGDC Digital Cartographic Standard for Geologic Map Symbolization (PostScript Implementation): U.S. Geological Survey Techniques and Methods 11-A2</ns:title>
			</ns:item>
			<ns:item rdf:ID="biblio2">
				<ns:link>https://davenquinn.com/projects/geologic-patterns/</ns:link>
				<ns:title>FGDC Geologic Patterns for the Web</ns:title>
			</ns:item>
			<rdf:Description>
				<dc:description>
					Converted from 'FGDC Geologic Patterns for the Web' to QGIS compatible svg symbols, with customisable fill colour/stroke colour/stroke width (when appropriate).
					SVG scaled to 50x50 pixels so that base outline-width is 0.387 px and width is 90 in the QGIS xml definition file. 
					Some of the original FGDC symbols have been omitted from this set because they can be generated from other symbols using the 'texture width' and/or 'stroke width' fields in QGIS symbology form.
				</dc:description>
				<dc:date>01 MARCH 2019</dc:date>
				<dc:creator>GeoProc.com</dc:creator>
				<dc:publisher rdf:resource="https://github.com/BC-Consulting/QGIS-FGDC-Fill" />
			</rdf:Description>
			<cc:Work rdf:about="">
				<dc:format>image/svg+xml</dc:format>
				<dc:type rdf:resource="http://purl.org/dc/dcmitype/StillImage" />
				<dc:title>FGDC fill symbol: Lithology - Metamorphism, Igneous and vein - 705 Schist</dc:title>
			</cc:Work>
		</rdf:RDF>
	</metadata>
	<path style="fill:none;stroke:none;stroke-width:0;" id="rect1500" width="50.00" height="50.00" x="0.0" y="0.0" />
	<g style="fill:none;" stroke="param(outline) #000" stroke-width="param(outline-width) 0.387">
		<path d="M 0,6.9343207 C 1.7326455,5.2895224 4.1783485,2.5522415 5.2175619,1.3831264 L 5.9250121,0.47755274" id="path5" />
		<path d="M 3.8166797,4.8876682 C 2.8821352,5.9782817 1.5578857,7.8473707 0.85697731,8.548279 0.64109753,8.7641588 0.33830511,9.0912494 9.345445e-4,9.4688054" id="path7" />
		<path d="M 8.0996972,1.6943297 C 6.4642443,3.5634187 4.2063848,5.743711 3.5830436,7.3015967 3.0802587,8.5576245 1.4653658,10.817353 9.345445e-4,12.50701" id="path9" />
		<path d="M 8.4109005,9.7940269 C 6.3866771,11.663116 4.9848604,13.765841 4.0503159,15.011589 3.2419349,16.089119 1.9074053,17.341408 9.345445e-4,18.717992" id="path11" />
		<path d="M 11.993944,13.376136 C 11.0594,14.388248 5.607267,21.008561 4.1278831,22.721581 3.0400733,23.981347 1.448544,25.366342 0,26.568166" id="path13" />
		<path d="M 7.7099921,20.852492 C 6.3866771,22.099174 3.9718141,24.746739 3.0372696,26.070988 2.3541176,27.039177 1.0887443,28.712946 0,29.999814" id="path15" />
		<path d="M 6.3081754,24.279467 C 4.8287914,26.070988 2.4924302,28.952189 1.7915218,30.354006 1.292475,31.351165 0.94015177,32.001608 0,33.074465" id="path17" />
		<path d="m 14.096669,17.971291 c -1.946656,2.726067 -5.1399945,5.5297 -6.8530146,8.02213 -1.71302,2.49243 -3.0372696,4.595156 -4.6727225,6.931517 -1.1943479,1.706478 -1.84946355,2.785877 -2.5699973555,3.640985" id="path19" />
		<path d="m 11.993944,26.459759 c -1.635453,2.258794 -6.386677,6.775448 -7.9436281,8.254832 -1.1840679,1.124257 -2.6812082,3.009233 -4.0493813555,4.3989" id="path21" />
		<path d="M 7.7884939,32.690367 C 6.9315166,33.313708 4.7512242,35.805204 2.3363613,38.375201 1.470973,39.295728 0.69903929,40.10224 0,40.806886" id="path23" />
		<path d="m 14.797578,25.214011 c -1.557886,1.71302 -4.439087,5.296064 -5.7633363,7.553923 C 7.7099921,35.026728 4.5175881,39.543382 2.9597024,41.022766 2.0653433,41.873201 1.1149116,42.372248 0,43.135771" id="path25" />
		<path d="M 23.519681,19.762813 C 21.573025,21.865538 15.498486,30.276439 13.006056,32.223095 10.513626,34.169751 6.6978804,38.842474 5.1399947,40.867631 3.7110762,42.725506 2.0634743,44.913275 0,47.126276" id="path27" />
		<path d="M 3.0372696,1.6167625 C 2.4139284,2.4737398 1.323315,2.8625103 0.85604276,3.7194876 0.60838847,4.1736762 0.29718515,4.4932905 0,4.7661775" id="path29" />
		<path d="m 42.872229,13.999477 c 0.700908,-0.75885 2.278419,-2.627939 3.4466,-3.680236 1.168181,-1.0522972 2.748495,-2.5503721 2.748495,-2.5503721 0.270084,-0.2186834 0.587829,-0.5055885 0.930807,-0.83081" id="path31" />
		<path d="m 31.833389,29.243767 c 1.635453,-1.459759 4.263392,-4.730664 6.48387,-7.476356 2.220478,-2.745692 5.082053,-5.899779 6.833389,-7.24272 1.751337,-1.34294 2.437292,-2.160667 2.437292,-2.160667 0.69904,-0.913984 1.65321,-2.043849 2.411125,-2.8905459" id="path33" />
		<path d="m 34.423012,33.858548 c 0.700908,-0.525214 3.25128,-3.270906 4.127883,-4.75029 0.75885,-1.28126 4.439087,-8.683787 5.782962,-10.494935 1.343875,-1.811147 4.656835,-5.003551 4.656835,-5.003551 C 49.305633,13.294831 49.649546,12.914471 50,12.510748" id="path35" />
		<path d="m 49.067324,19.373108 c 0.325222,-0.220553 0.633622,-0.437367 0.930807,-0.651378" id="path37" />
		<path d="m 42.646069,30.011028 c 1.168181,-1.284999 3.328848,-3.387724 4.147509,-4.614781 0.818661,-1.227057 1.794325,-2.530746 1.794325,-2.530746 0.384098,-0.57568 0.876603,-1.120519 1.410228,-1.655079" id="path39" />
		<path d="m 41.828343,32.989421 c 0.75885,-1.110239 2.627939,-2.803633 3.971814,-4.20545 1.343875,-1.401817 1.853202,-1.71302 1.853202,-1.71302 0.84109,-0.803708 1.625172,-1.570035 2.344772,-2.362528" id="path41" />
		<path d="m 32.865126,49.512168 1.12893,-1.401817 c 0.525214,-0.700908 1.811147,-2.627939 3.270906,-4.906358 1.459758,-2.27842 2.686815,-5.139995 4.147508,-6.892266 1.460693,-1.752271 3.79612,-4.029756 4.964301,-5.840903 1.16818,-1.811147 2.144779,-2.686816 2.144779,-2.686816 0.45232,-0.370079 0.955105,-0.780344 1.476581,-1.212104" id="path43" />
		<path d="m 45.675862,33.682853 c 1.518635,-1.518634 3.235393,-2.472804 3.235393,-2.472804 0.312138,-0.313073 0.687825,-0.735487 1.086876,-1.206497" id="path45" />
		<path d="m 48.522485,34.637023 c 0.627079,-0.627079 1.095286,-1.124257 1.47658,-1.55882" id="path47" />
		<path d="m 39.426563,48.051475 c 1.869089,-2.336361 5.373631,-5.957721 6.250234,-6.834324 0.876603,-0.876603 3.469029,-3.776494 3.469029,-3.776494 0.314007,-0.271953 0.587829,-0.557923 0.853239,-0.87193" id="path49" />
		<path d="m 42.199357,49.999066 c 0.160742,-0.181302 0.319614,-0.358865 0.478487,-0.525214 0,0 1.128929,-1.479384 2.180292,-3.231655 1.051363,-1.752271 2.027962,-2.647565 2.027962,-2.647565 0.848566,-0.599043 1.860678,-1.522373 3.112033,-2.782139" id="path51" />
		<path d="m 44.637583,49.999066 c 0.200928,-0.223356 0.396247,-0.438302 0.609324,-0.681283 0,0 0.544839,-0.856977 1.012111,-1.967216 0.467272,-1.110239 0.938283,-1.811148 0.938283,-1.811148 1.059773,-1.126126 1.973758,-1.83451 2.799895,-2.401779" id="path53" />
		<path d="m 47.237486,49.999066 c 0.251393,-0.237375 0.500916,-0.470076 0.736421,-0.681283 l 1.483122,-1.597137 c 0.191582,-0.197189 0.357931,-0.393443 0.542036,-0.590632" id="path55" />
		<path d="m 34.520205,24.22059 c 0.58409,-0.992486 3.212964,-4.965235 4.322268,-6.717506 1.109304,-1.75227 6.717506,-8.6445362 7.709992,-9.6958987 0.992486,-1.0513626 2.748496,-2.3756122 2.748496,-2.3756122 0.182236,-0.2186834 0.434563,-0.4233486 0.69717,-0.6635266" id="path57" />
		<path d="M 9.2678778,21.631902 C 9.891219,20.930994 11.760308,18.749767 13.395761,16.95918 15.031214,15.167658 17.522709,10.962207 18.69089,9.0931185 19.859071,7.2240295 23.908452,2.2401037 25.232701,0.83828692" id="path59" />
		<path d="M 9.5015139,25.837352 C 10.903331,24.04583 13.550895,20.697358 14.797578,19.373108 16.043325,18.048858 19.080595,14.544317 21.18332,11.896752 23.286045,9.2491874 29.126948,3.9531237 31.229674,1.6167625" id="path61" />
		<path d="M 22.117865,17.114314 C 23.67575,15.011589 32.787559,5.5885766 35.357557,2.6288742" id="path63" />
		<path d="m 21.260887,13.999477 c -2.336361,2.959703 -7.865126,9.190311 -9.579081,11.214534 -1.7130198,2.025158 -4.6727222,4.906359 -5.9184701,5.91847" id="path65" />
		<path d="m 34.110874,6.289485 c -0.544839,0.6233412 -1.71302,1.9466562 -2.959702,3.0372696 -1.245748,1.0906134 -3.660611,3.6606104 -5.218497,5.3736304 -1.557885,1.713021 -4.672722,5.139995 -6.308175,7.24272 -1.635453,2.102725 -6.152106,7.24272 -8.488468,9.73515" id="path67" />
		<path d="m 31.46331,11.507047 c -1.168181,1.479384 -3.660611,4.127883 -5.062428,6.152106 -1.401817,2.025158 -4.906359,6.697881 -6.230608,8.56697 -1.32425,1.869089 -2.413929,3.037269 -3.03727,3.660611" id="path69" />
		<path d="m 24.143023,22.87765 c 2.180292,-2.180292 7.165152,-7.24272 9.267877,-8.95574 2.102726,-1.71302 4.516654,-4.5166536 5.684835,-6.0745393" id="path71" />
		<path d="m 49.325259,49.999066 c 0.217749,-0.136444 0.442039,-0.281298 0.672872,-0.435498" id="path73" />
		<path d="m 46.22444,2.6335469 c -0.336436,0.3448469 -0.746701,0.7850174 -1.01585,1.144817 -0.525214,0.7009084 -1.927031,2.8615753 -3.037269,4.1475085" id="path75" />
		<path d="m 15.478861,34.617398 c -1.051363,0.817726 -4.322269,4.263392 -5.023177,5.197936 -0.7009085,0.934545 -1.9270309,3.504542 -3.0372698,4.731599 -1.1102388,1.227057 -2.8625098,2.745692 -3.329782,3.212964 l -0.9728608,1.090614 c -0.356996,0.487832 -0.6252103,0.854173 -0.8438937,1.148555" id="path77" />
		<path d="m 27.802699,29.360585 c -2.336361,2.453179 -8.352959,8.761355 -10.571568,11.155658 -2.218608,2.394303 -5.256812,5.549325 -6.483869,7.184778 0,0 0,0.40933 -1.2457481,1.499944 -0.2906433,0.254196 -0.5130649,0.528017 -0.6906284,0.798101" id="path79" />
		<path d="m 17.293746,49.999066 c 0.280363,-0.373818 0.56353,-0.753243 0.85137,-1.148555 0,0 0.895294,-1.557886 2.413928,-3.952189 1.518635,-2.394303 6.541812,-8.00157 8.119323,-9.345445" id="path81" />
		<path d="m 21.498262,49.999066 c 0.498112,-1.030803 1.192478,-2.305521 1.866285,-2.979328" id="path83" />
		<path d="m 11.500505,49.999066 c 0.147658,-0.204665 0.30653,-0.424283 0.493439,-0.681283 0,0 1.148555,-2.025158 2.66719,-3.602669 1.518635,-1.577511 4.381145,-4.497963 5.724085,-6.133416 1.342941,-1.635453 8.119323,-8.878172 9.695899,-11.331352 1.576577,-2.453179 4.147509,-5.840903 5.082053,-7.535232" id="path85" />
		<path d="m 36.62293,28.368099 c -0.876603,1.284998 -3.738178,4.614781 -6.48387,7.593174 -2.745692,2.978393 -6.717506,7.884752 -7.593174,9.228627 -0.875668,1.343875 -2.842884,4.20545 -2.842884,4.20545 -0.181302,0.182236 -0.357931,0.386901 -0.533625,0.603716" id="path87" />
		<path d="m 48.362678,20.01514 c -0.876603,0.817726 -2.627939,3.212964 -4.439087,5.432507 -1.811147,2.219543 -2.686815,4.439087 -3.4466,6.074539 -0.759784,1.635453 -3.562483,5.840904 -4.78954,7.359538 -1.227057,1.518635 -3.212964,3.913873 -4.730664,6.367052 -1.517701,2.453179 -3.076521,4.147509 -3.076521,4.147509 C 27.693357,49.606557 27.529812,49.803746 27.36907,50" id="path89" />
		<path d="m 35.743523,49.999066 c 0.420546,-0.446712 0.840156,-0.904639 1.249486,-1.382192 0,0 3.310157,-3.602669 4.828792,-5.880154 1.518635,-2.277484 5.549325,-8.468842 7.24272,-10.337931" id="path91" />
		<path d="m 39.476094,49.999066 c 0.248589,-0.294382 0.486898,-0.554185 0.70932,-0.75885 0,0 1.284998,-1.479384 3.212963,-3.99144 1.927966,-2.512056 5.357744,-5.003551 5.357744,-5.003551 0.391574,-0.29812 0.811185,-0.689694 1.242944,-1.127061" id="path93" />
		<path d="m 25.466338,22.87765 c -0.876603,0.934544 -3.387724,3.738178 -4.848417,5.373631 -1.460693,1.635453 -3.680236,3.562483 -5.315689,4.730664 -1.635453,1.168181 -6.5418119,6.132481 -7.6520507,7.476356" id="path95" />
		<path d="m 31.657695,19.898322 c -1.343875,1.051363 -8.236141,11.039774 -9.871594,13.025681 -1.635452,1.985907 -3.562483,3.971814 -5.549325,5.373631 -1.986841,1.401817 -4.906358,4.147509 -6.191357,5.431573 -1.2849989,1.284064 -2.8606409,4.78954 -3.7951854,5.782961" id="path97" />
		<path d="m 35.395873,14.291055 c -0.992486,1.226122 -4.672723,4.672722 -5.898845,5.665209 -1.227057,0.992486 -4.147508,4.322268 -5.607267,6.483869 -1.459758,2.161602 -4.906359,6.07454 -6.132481,6.892266" id="path99" />
		<path d="M 25.466338,30.29513 C 26.5177,29.184891 34.987477,17.795597 36.330417,16.043326" id="path101" />
		<path d="m 37.498598,16.744234 c 1.811147,-2.686815 6.424993,-8.2940821 8.00157,-9.929535 1.576577,-1.6354529 2.394303,-2.5120556 4.029756,-4.0297559" id="path103" />
		<path d="m 45.501103,15.459236 c -1.284999,1.401816 -3.971815,4.263392 -5.023177,6.658629 -1.051363,2.395238 -2.102725,3.854996 -2.803634,4.730664" id="path105" />
		<path d="m 14.411611,49.999066 c 0.533625,-0.554185 1.082202,-1.123323 1.631714,-1.693395 0,0 0.778476,-1.012112 1.71302,-2.413928 0.934545,-1.401817 1.927031,-2.686816 3.328848,-4.264327 1.401817,-1.577511 6.308175,-6.716571 8.994991,-8.819296 2.686815,-2.102725 6.717506,-6.83339 7.943628,-8.352959" id="path107" />
		<path d="m 25.232701,44.430115 c 2.62794,-3.154088 4.731599,-4.965235 8.002505,-7.82681 0.127098,-0.111211 0.256065,-0.228963 0.385967,-0.352323" id="path109" />
		<path d="m 39.134051,31.28855 c -1.518635,2.745692 -4.9643,6.366117 -6.833389,8.410901 -1.869089,2.044783 -2.336362,2.219543 -3.387724,4.088632 -1.051363,1.869089 -1.168181,2.512056 -1.752271,3.329782 -0.584091,0.817727 -1.771897,2.044783 -1.771897,2.044783 C 25.024298,49.460768 24.711226,49.735524 24.423386,50" id="path111" />
		<path d="m 40.594744,28.601735 c 1.226122,-2.569997 4.381145,-6.951142 5.898845,-8.294083 1.518635,-1.343875 1.869089,-2.044783 2.920451,-3.854996" id="path113" />
		<path d="m 41.119958,33.916489 c -1.752271,2.62794 -5.256813,7.651116 -6.250234,9.403387 -0.99342,1.752271 -2.278419,3.03727 -3.037269,4.030691 -0.75885,0.99342 -1.148555,1.577511 -1.148555,1.577511 -0.247655,0.304661 -0.540167,0.671003 -0.856978,1.070988" id="path115" />
		<path d="m 43.573137,35.844455 c -1.284998,1.459758 -2.861575,5.840903 -4.381144,7.593174 -1.51957,1.752271 -1.284999,1.635453 -2.394303,2.803633" id="path117" />
		<path d="m 27.802699,43.087175 c -1.752271,2.920451 -3.154088,4.439086 -4.439087,6.074539" id="path119" />
		<path d="m 10.27999,45.77399 c 1.518634,-1.752271 2.686815,-3.03727 5.023176,-5.139995" id="path121" />
		<path d="m 19.801129,32.981945 c -1.168181,1.343875 -5.023177,4.263392 -6.599753,5.898845" id="path123" />
		<path d="M 7.2044036,41.566671 C 5.6465179,43.825465 3.6213599,46.550597 1.5971366,48.342118 1.0326717,48.8421 0.5018504,49.226197 0,49.561699" id="path125" />
		<path d="M 38.082688,4.8474828 C 39.602258,3.2587572 40.937722,1.4279845 42.198422,9.3505e-4" id="path127" />
		<path d="m 30.295129,15.361108 c 2.49243,-3.193338 5.840903,-7.3987884 8.177264,-9.4230117 2.157864,-1.8700236 3.729768,-3.2269822 6.16519,-5.93716125" id="path129" />
		<path d="M 47.235617,9.3505e-4 C 45.076819,2.0373075 42.445142,4.9194428 41.119958,6.8726408 39.640574,9.0529331 38.393892,12.246272 37.537849,13.258383" id="path131" />
		<path d="M 46.766476,2.0045985 C 47.458973,1.1279957 48.319689,0.6298835 49.32339,5.055e-7" id="path133" />
		<path d="M 2.2709431,9.3505e-4 C 1.5840529,0.92613411 1.4092931,1.1018285 0.70090838,1.8102132" id="path135" />
		<path d="M 8.8174274,9.3505e-4 C 8.5651003,0.38409829 8.4015551,0.76165427 8.3109042,1.0644467" id="path137" />
		<path d="M 17.292811,9.3505e-4 C 14.919068,3.1643682 12.832231,5.5661475 11.369668,7.0287097 9.7342155,8.6641626 8.0987626,11.467796 8.0987626,11.467796 6.3857426,14.115361 4.4390864,16.685358 3.0372696,18.243244 2.1260887,19.255355 0.98687899,20.203918 0,21.191732" id="path139" />
		<path d="M 21.497327,9.3505e-4 C 21.074913,0.87660325 20.793615,1.5765771 20.793615,1.5765771 20.092707,2.3550526 18.534821,4.1465745 17.36664,5.9380963 16.19846,7.7296181 14.952712,9.3650709 13.083623,11.078091 11.214534,12.791111 7.2427199,16.218086 6.3081754,17.075063 4.5203917,18.714254 3.1933386,20.1899 2.0251579,22.058989 1.4289185,23.013159 0.74857014,23.865463 9.345445e-4,24.689732" id="path141" />
		<path d="M 5.2960637,7.4950474 C 6.9315166,5.3147551 8.4894022,3.6008005 9.5015139,2.5111216 10.361295,1.584988 10.665022,1.1569666 11.49957,9.3505e-4" id="path143" />
		<path d="M 7.3987888,14.6602 C 9.0342417,13.180816 13.550895,7.8847525 15.576053,5.1586861 17.285335,2.8578376 18.217076,1.1737884 19.169377,5.055e-7" id="path145" />
		<path d="M 16.120893,15.749879 C 17.756345,13.88079 22.585137,7.1829095 24.064521,5.0026172 25.396247,3.0400738 25.916788,1.7672242 27.368136,5.055e-7" id="path147" />
		<path d="m 16.43303,22.992599 c 1.090614,-1.245748 2.959703,-4.20545 4.672723,-6.775448 1.71302,-2.569997 7.943628,-9.6566481 9.423012,-11.1369666 C 31.74928,3.8596693 33.763224,2.1045947 35.742589,5.055e-7" id="path149" />
		<path d="M 33.254831,8.9744313 C 34.978132,6.9062844 37.555605,2.27842 39.47516,5.055e-7" id="path151" />
		<path d="M 14.409742,9.3505e-4 C 12.977085,1.4859263 11.654704,2.8494267 10.747262,3.7578039 9.5015139,5.0035518 6.3081754,8.4305264 4.9063586,10.299615 3.5045419,12.168704 2.2587941,13.960226 1.4793839,14.894771" id="path153" />
		<path d="m 10.436058,17.69747 c 1.791522,-1.946656 3.58211,-4.595156 5.062428,-6.619379 1.479384,-2.0251579 4.828791,-6.9315165 6.152106,-8.2548316 1.042018,-1.0420171 1.70461,-1.84572535 2.770925,-2.82232435" id="path155" />
		<path d="M 29.825988,9.3505e-4 C 27.95503,2.3643981 25.118687,6.0633252 23.986954,7.2623458" id="path157" />
	</g>
</svg>
