<?xml version="1.0" encoding="UTF-8" standalone="no"?>
<svg xmlns:dc="http://purl.org/dc/elements/1.1/" xmlns:cc="http://creativecommons.org/ns#" xmlns:rdf="http://www.w3.org/1999/02/22-rdf-syntax-ns#" xmlns:svg="http://www.w3.org/2000/svg" xmlns="http://www.w3.org/2000/svg" version="1.1" x="0px" y="0px" xml:space="preserve" width="50.00" height="50.00" viewBox="0 0 50.00 50.00">
	<metadata id="metadata2">
		<rdf:RDF>
			<ns:item rdf:ID="biblio1">
				<ns:link>rdf:resource=&quot;http://pubs.usgs.gov/tm/2006/11A02/</ns:link>
				<ns:title>U.S. Geological Survey, 2006, FGDC Digital Cartographic Standard for Geologic Map Symbolization (PostScript Implementation): U.S. Geological Survey Techniques and Methods 11-A2</ns:title>
			</ns:item>
			<ns:item rdf:ID="biblio2">
				<ns:link>https://davenquinn.com/projects/geologic-patterns/</ns:link>
				<ns:title>FGDC Geologic Patterns for the Web</ns:title>
			</ns:item>
			<rdf:Description>
				<dc:description>
					Converted from 'FGDC Geologic Patterns for the Web' to QGIS compatible svg symbols, with customisable fill colour/stroke colour/stroke width (when appropriate).
					SVG scaled to 50x50 pixels so that base outline-width is 0.387 px and width is 90 in the QGIS xml definition file. 
					Some of the original FGDC symbols have been omitted from this set because they can be generated from other symbols using the 'texture width' and/or 'stroke width' fields in QGIS symbology form.
				</dc:description>
				<dc:date>01 MARCH 2019</dc:date>
				<dc:creator>GeoProc.com</dc:creator>
				<dc:publisher rdf:resource="https://github.com/BC-Consulting/QGIS-FGDC-Fill" />
			</rdf:Description>
			<cc:Work rdf:about="">
				<dc:format>image/svg+xml</dc:format>
				<dc:type rdf:resource="http://purl.org/dc/dcmitype/StillImage" />
				<dc:title>FGDC fill symbol: Lithology - Metamorphism, Igneous and vein - 706 Contorted Schist</dc:title>
			</cc:Work>
		</rdf:RDF>
	</metadata>
	<path style="fill:none;stroke:none;stroke-width:0;" id="rect1500" width="50.00" height="50.00" x="0.0" y="0.0" />
	<g style="fill:none;" stroke="param(outline) #000" stroke-width="param(outline-width) 0.3">
		<path d="M 4.45e-8,5.0942952 C 1.7597802,4.2587968 1.5616531,3.7447877 1.7523037,2.2205171 1.8934226,1.087828 2.8943385,0.51213785 4.2326312,9.32453e-4" id="path5" />
		<path d="M 4.45e-8,11.568941 C 1.5616531,9.9287843 1.1682025,9.2502923 1.1682025,8.1783497 1.1682025,7.0101472 1.401843,6.5428662 2.9205062,6.1924055 4.4391694,5.8419448 4.5559896,3.2718993 5.0232706,2.1036969 5.3335452,1.3280105 6.7765089,0.70652674 8.1559224,9.32453e-4" id="path7" />
		<path d="M 3.2709669,7.0101472 C 4.3223492,6.5428662 4.6728099,5.1410233 5.3737314,3.3887196 6.0746528,1.6364159 7.1260351,1.7532361 8.527878,1.2859552 9.6699127,0.90558844 9.726921,0.83456173 9.9605615,9.32453e-4" id="path9" />
		<path d="M 1.2850228,10.982036 C 1.2009122,12.324067 0.81587264,12.823123 4.45e-8,13.386664" id="path11" />
		<path d="M 4.45e-8,29.587295 C 0.83362932,29.109734 1.5560457,29.347113 2.5700455,29.439635 3.8550682,29.556455 4.0887087,29.205994 4.6728099,28.621893 5.2569111,28.037792 5.3737314,27.920971 6.3082933,27.33687 7.2428553,26.752769 7.1260351,26.402308 6.1914731,25.701387 5.2569111,25.000465 4.9064504,24.416364 2.5700455,23.832263 0.23364054,23.248161 2.1027645,22.313599 3.2709669,22.079959 4.4391694,21.846319 5.4905516,21.612678 6.5419338,20.678116 7.5933161,19.743554 10.280182,19.042633 11.448384,18.224891 12.616587,17.407149 11.682025,16.122126 10.397002,16.238947 9.1119793,16.355767 9.5792602,15.187564 7.9437768,14.837104 6.3082933,14.486643 3.9718884,17.173509 1.869124,17.523969 -0.23364045,17.87443 0.93456201,14.486643 1.6354835,13.318441 2.336405,12.150238 2.2195847,12.150238 2.1027645,10.982036 1.9859442,9.8138331 3.2709669,8.1783497 4.3223492,7.360608 5.3737314,6.5428662 5.2569111,6.426046 5.4905516,5.1410233 5.7241921,3.8560006 7.7101363,2.5709779 8.995159,2.2205171 9.8596288,1.9850075 10.671763,1.1139958 11.39418,9.32453e-4" id="path13" />
		<path d="M 4.45e-8,27.235003 C 0.18691244,27.195751 0.3943852,27.22005 0.81774177,27.22005 c 0.93456193,0 1.05138223,0.11682 1.63548343,-0.584101 0.5841012,-0.700922 0,-0.934562 -0.8177417,-1.051383 C 1.1485767,25.514474 0.5784939,24.98925 4.45e-8,24.353748" id="path15" />
		<path d="M 4.45e-8,20.919233 C 1.2149306,20.130463 2.9130297,19.674396 3.7382479,19.509914 4.9064504,19.276273 5.4905516,18.692172 6.3082933,17.75761 7.1260351,16.823048 5.0232706,17.523969 3.5046074,18.341711 2.487804,18.889364 1.2607241,19.017399 4.45e-8,18.902448" id="path17" />
		<path d="M 1.0513823,21.963139 C 1.5186632,21.145397 2.6868657,21.028577 3.6214277,20.911757 4.5559896,20.794936 5.6073719,20.094015 6.1914731,19.393093 6.7755743,18.692172 7.9437768,18.341711 8.995159,17.99125 10.046541,17.64079 9.8129007,17.173509 8.7615185,16.939868 7.7101363,16.706228 8.060597,17.056688 8.060597,16.238947 c 0,-0.817742 -1.0513822,-0.584102 -2.3364049,0.23364" id="path19" />
		<path d="m 1.7523037,24.416364 c 1.5186632,0.350461 3.3877872,0.584101 3.1541467,1.635483 C 4.6728099,27.10323 4.7896301,26.986409 3.9718884,27.570511 3.1541467,28.154612 2.803686,28.271432 1.869124,28.154612 1.1467076,28.063959 0.70279065,27.905084 4.45e-8,28.268628" id="path21" />
		<path d="M 4.45e-8,31.465765 C 1.3308163,30.814375 3.13639,30.789142 4.0887087,31.075118 5.2569111,31.425579 7.0092148,29.673275 7.5933161,28.738713 8.1774173,27.804151 8.1774173,27.33687 9.46244,26.986409 10.747463,26.635949 8.7615185,24.650004 6.6587541,24.065903 4.5559896,23.481802 6.5419338,22.54724 7.5933161,22.313599 c 1.0513822,-0.23364 1.4018429,-0.46728 2.3364049,-0.934561 0.934562,-0.467281 1.635483,-0.817742 2.686866,-0.817742 1.051382,0 1.051382,-0.233641 1.635483,-1.168203 0.584101,-0.934562 0.584101,-1.869124 0,-2.453225 -0.584101,-0.584101 -0.817742,-0.817742 -0.817742,-1.752304 0,-0.934562 -0.934562,-1.051382 -1.635483,-1.051382 -0.700922,0 -1.285023,0.11682 -2.2195848,-0.35046 C 8.6446983,13.318441 7.8269565,13.318441 5.1400909,14.369823 2.4532252,15.421205 2.5700455,14.486643 2.9205062,13.902542 3.2709669,13.318441 3.2709669,12.85116 3.0373264,11.916598 2.803686,10.982036 4.9064504,8.8792712 6.1914731,7.4774282 7.4764958,6.0755853 8.7615185,3.8560006 10.280182,3.7391803 11.534364,3.6429205 12.550233,2.1111734 14.446459,9.32453e-4" id="path23" />
		<path d="M 6.3082933,31.659219 C 5.1400909,32.710601 4.3223492,33.294703 2.9205062,33.061062 1.9186558,32.893776 0.91680534,33.085361 4.45e-8,33.591893" id="path25" />
		<path d="M 4.45e-8,35.224573 C 1.5560457,34.486269 2.8812546,34.930186 4.2055289,34.930186 c 1.5186632,0 3.1541467,-1.985944 3.6214276,-3.270967 0.467281,-1.285023 2.6868655,-2.686865 4.0887085,-3.855068 1.401843,-1.168202 -0.350461,-2.102764 -1.401843,-3.037326 -1.051382,-0.934562 0.233641,-1.401843 1.168203,-2.219585 0.934562,-0.817742 2.453225,-0.934562 4.439169,-1.168202 1.985944,-0.233641 1.869124,-1.635484 1.518663,-2.336405 -0.350461,-0.700922 -0.467281,-0.934562 -0.23364,-2.102765 0.23364,-1.168202 0,-1.051382 -1.285023,-1.869124 -1.285023,-0.817742 -0.817742,-1.285022 -1.285023,-2.102764 -0.467281,-0.817742 -2.102764,-0.467281 -2.803686,-0.467281 -0.700921,0 -1.401843,-0.233641 -1.985944,-0.700922 C 9.46244,11.332496 8.1774173,11.566137 6.7755743,12.150238 5.3737314,12.734339 5.1400909,12.033418 5.2569111,11.332496 5.3737314,10.631575 5.9578326,10.164294 7.1260351,9.5801926 8.2942375,8.9960914 7.8269565,8.5288104 8.1774173,7.7110687 8.527878,6.893327 10.397002,5.3746638 11.214744,5.1410233 12.032485,4.9073828 12.616587,4.4401018 13.551149,3.3887196 14.485711,2.3373374 14.836171,1.8700564 16.121194,1.4027754 16.944543,1.1037156 17.528644,0.7074613 18.271621,9.32453e-4" id="path27" />
		<path d="M 11.331564,30.491017 C 10.630642,31.308758 11.097923,31.308758 10.280182,32.1265 9.46244,32.944242 8.8783388,33.061062 8.2942375,34.229265 7.7101363,35.397467 6.6587541,36.332029 4.4391694,36.56567 2.5466814,36.764731 1.1635297,36.624547 4.45e-8,37.303973" id="path29" />
		<path d="M 4.45e-8,39.698321 C 1.9915516,38.726377 1.7607148,38.536661 3.3877872,38.434793 c 1.8691239,-0.11682 3.0373264,-0.35046 4.0887086,-1.285022 1.0513822,-0.934562 0.2336405,-0.233641 1.8691239,-0.817742 1.6354833,-0.584101 1.6354833,-0.934562 1.9859443,-2.102764 0,0 -0.03925,-0.817742 0.03925,-1.207454 0.0785,-0.389713 0.311209,-0.856994 0.856993,-1.401843 0.544849,-0.54485 0.311209,-1.090634 0.467281,-2.025196 0.156072,-0.934562 0.544849,-1.324275 1.01213,-1.791556 0.467281,-0.46728 0.66167,-0.23364 0.66167,-0.23364 0.817742,-0.467281 0.467281,-0.467281 0.817742,-1.285023 0.350461,-0.817741 0.584101,-0.934562 1.285023,-1.518663 0.700921,-0.584101 3.270967,-1.168202 4.78963,-1.635483 1.518663,-0.467281 1.051382,-1.869124 0.584101,-3.037327 -0.467281,-1.168202 0,-1.051382 0.700922,-2.453225 0.700921,-1.401843 -0.934562,-2.803686 -1.985945,-3.504607 C 19.508981,13.434326 18.92488,12.733405 18.223958,11.682023 17.523037,10.63064 16.004374,10.28018 14.13525,10.046539 12.266126,9.8128986 11.915665,8.6446961 11.915665,7.5933139 c 0,-1.0513822 1.752304,-2.3364049 2.920506,-2.8036859 1.168203,-0.467281 1.168203,-0.3504608 1.752304,-1.2850227 0.584101,-0.934562 0.817742,-0.934562 2.336405,-1.2850227 1.170072,-0.2700884 2.270986,-0.9569915 3.302742,-2.21958470897" id="path31" />
		<path d="M 20.209903,12.150238 C 19.625801,11.566137 18.691239,10.281114 18.223958,9.4633724 17.756677,8.6456307 16.238014,8.9960914 15.303452,8.6456307 c -0.934562,-0.3504608 -0.584101,-1.6354835 0,-2.2195847 0.584102,-0.5841012 0.817742,-0.3504607 1.051383,-1.0513822 0.23364,-0.7009215 1.285022,-0.934562 2.336404,-1.2850227 1.051383,-0.3504608 0.934562,-0.467281 1.635484,-1.0513822 0.700921,-0.5841013 1.285023,-0.934562 2.453225,-1.401843 0.943908,-0.377563 1.506514,-0.4504589 2.119587,-1.635483447" id="path33" />
		<path d="m 11.39418,49.999998 c 0.351395,-0.542046 0.68223,-1.1411 0.988766,-1.752304 0,0 0.11682,-0.409338 0.409338,-1.285023 0.292518,-0.875684 0.934562,-2.570045 1.518663,-3.44573 0.584102,-0.875684 4.381227,-1.693426 5.198034,-2.044821 0.816807,-0.351395 1.985944,-2.394348 2.803686,-3.738248 0.817742,-1.3439 0.05794,-2.102764 -0.350461,-2.745743 -0.408403,-0.642979 -0.876619,-1.285023 -0.642978,-2.278462 0.23364,-0.99344 2.861628,-1.985944 3.680305,-2.044822 0.818676,-0.05888 2.278462,-0.934562 3.329844,-1.3439 1.051382,-0.409338 4.730753,-0.175698 5.724192,-0.11682 0.993439,0.05888 1.459786,0.175698 2.160707,-0.05794 0.700922,-0.23364 1.752304,-0.175698 3.213024,-0.291583 1.460721,-0.115886 2.979384,-1.285023 3.680305,-1.869124 0.700922,-0.584101 0.116821,-0.934562 -0.35046,-1.11026 -0.467281,-0.175697 -1.985944,0.291583 -2.861629,0.467281 -0.875685,0.175698 -2.394348,0.05794 -3.154147,-0.584101 -0.759799,-0.642044 -1.3439,-0.467281 -2.686865,-0.525224 -1.342966,-0.05794 -1.401843,-1.459786 -1.401843,-2.102764 0,-0.642979 -0.116821,-1.168203 -0.700922,-1.752304 -0.584101,-0.584101 -0.467281,-1.577541 -0.525224,-2.570045 -0.05794,-0.992505 1.168203,-1.518664 2.044822,-1.985945 0.876619,-0.467281 0.409338,-0.23364 0.409338,-0.23364 1.168203,-0.817742 0.350461,-0.817742 -0.350461,-1.051382 C 32.829293,15.30345 32.362012,15.30345 31.777911,14.485708 31.193809,13.667967 28.857405,12.850225 27.338741,12.149304 25.820078,11.448382 25.936898,10.046539 25.469617,9.1119771 25.002336,8.1774151 24.301415,8.0605949 24.535055,7.2428532 24.768696,6.4251114 27.922843,4.789628 29.324686,3.855066 30.325601,3.1877888 30.96858,1.7476288 31.340536,-2.10897e-6" id="path35" />
		<path d="m 34.228332,23.949083 c -1.051382,-0.700922 -0.350461,-4.67281 -0.23364,-5.607372 0.11682,-0.934562 1.051382,-0.934562 2.219584,-1.401843 1.168203,-0.467281 0.817742,-0.817742 0.467281,-1.518663 -0.35046,-0.700922 -0.584101,-0.584101 -1.285022,-0.700922 -0.700922,-0.11682 -1.285023,0 -2.686866,-0.817741 -1.401843,-0.817742 -1.285023,-1.285023 -3.270967,-1.518663 -1.985944,-0.233641 -2.219585,-1.518664 -2.219585,-2.4532256 0,-0.934562 0.116821,-0.5841012 -0.584101,-1.5186632 -0.700921,-0.934562 -0.467281,-0.934562 0.11682,-1.401843 0.584102,-0.467281 0.817742,-0.8177417 2.803686,-1.9859442 1.630811,-0.9588605 2.472851,-2.7840601 2.852283,-5.023270547" id="path37" />
		<path d="m 35.630175,19.743554 c 0.233641,-0.817742 2.102765,-1.985944 3.971889,-2.920506 1.869123,-0.934562 -0.116821,-1.752304 -0.700922,-2.570046 -0.584101,-0.817741 -2.453225,-1.051382 -3.387787,-1.051382 -0.934562,0 -2.102765,-0.23364 -2.336405,-1.051382 -0.233641,-0.817742 -1.168202,-0.934562 -2.219585,-1.051382 -1.051382,-0.11682 -1.869124,-1.051382 -1.518663,-1.8691241 0.350461,-0.8177417 0.350461,-0.5841012 0,-1.2850227 -0.350461,-0.7009215 0.934562,-1.7523037 3.504607,-3.0373264 2.1551,-1.07755 2.010243,-2.4831312 1.838284,-4.906450347" id="path39" />
		<path d="m 27.188277,49.999998 c 0.121493,-0.387843 0.175698,-0.887834 0.264481,-1.635484 0,0 0,-0.35046 -0.05794,-0.992504 -0.05794,-0.642044 0.175698,-0.700922 -0.409338,-2.394348 -0.585036,-1.693426 -0.576625,-3.011159 -0.291583,-4.205529 0.291583,-1.226145 1.996224,-2.484066 2.219584,-3.154147 0.584102,-1.752303 -0.584101,-1.927066 -1.110259,-2.803686 -0.525224,-0.876619 0.11682,-1.285022 1.57754,-1.869124 1.459786,-0.584101 2.336405,-0.35046 4.205529,-0.175697 1.869124,0.174763 3.32891,-0.409338 4.088709,-0.817742 0.759799,-0.408403 1.226145,-0.291583 2.512102,-0.291583 1.285958,0 2.453225,-0.291584 3.680305,-0.817742 1.22708,-0.526158 1.401843,-0.992505 1.752304,-1.459786 0.350461,-0.467281 0.876619,-0.992505 1.752304,-1.518663 0.875684,-0.526158 1.285022,-1.401843 1.635483,-2.219585 0.350461,-0.817741 -0.584101,-1.752303 -1.459786,-2.219584 -0.875684,-0.467281 -2.803686,-0.409338 -3.621427,-0.175698 -0.817742,0.233641 -0.817742,0.05794 -1.693427,-0.291583 -0.875684,-0.349526 -2.102764,-0.233641 -3.037326,0.23364 -0.934562,0.467281 -1.226145,-0.175697 -1.3439,-0.409338 -0.117755,-0.23364 -0.291583,-0.291583 -1.051382,-0.175698 -0.759799,0.115886 -0.175698,-1.051382 0.05794,-1.3439 0.23364,-0.292518 0.11682,-0.467281 0.175697,-0.817741 0.224295,-1.348573 2.336405,-1.401843 3.621428,-2.102765 1.285023,-0.700921 0.817742,-2.219585 0.817742,-3.270967 0,-1.051382 -0.934562,-2.219584 -2.453226,-2.570045 -1.518663,-0.350461 -1.401843,0.11682 -1.869124,-0.233641 -0.467281,-0.35046 -1.051382,-0.934562 -1.635483,-0.934562 -0.584101,0 -1.170072,-0.35046 -1.987813,-1.051382 C 32.709669,9.5801926 31.891927,9.1129117 31.775107,8.2951699 31.658287,7.4774282 33.527411,6.426046 35.396535,5.3746638 36.994636,4.4756152 36.457262,2.1242572 36.268481,9.32453e-4" id="path41" />
		<path d="m 47.078559,22.196779 c -0.291583,-0.291583 -0.584101,-0.759799 -1.168202,-0.525224 -0.584101,0.233641 -1.11026,-0.11682 -1.693426,-0.467281 -0.583167,-0.35046 -1.11026,0.05794 -2.219585,0.116821 -1.109325,0.05888 -1.11026,-0.700922 -0.817742,-1.226146 0.292518,-0.525223 1.459786,-1.459785 2.512103,-2.570045 1.052316,-1.11026 -0.116821,-2.570045 -0.116821,-2.570045 C 43.223491,14.603463 43.223491,13.668901 42.75621,12.734339 42.288929,11.799777 41.938468,11.682957 40.536625,11.449317 39.134783,11.215676 39.017962,11.098856 37.265659,10.631575 35.513355,10.164294 35.513355,8.7624509 35.396535,7.7110687 35.279714,6.6596865 36.331097,6.6596865 37.73294,5.7251245 38.954412,4.9101865 39.200202,3.2083491 38.779649,9.32453e-4" id="path43" />
		<path d="m 44.274873,18.692172 c 0.525224,-0.584101 0.758865,-1.518663 0.642979,-2.044822 -0.115886,-0.526158 0.350461,-1.051382 0.350461,-1.051382 0.700921,-0.700921 0.409338,-3.095269 -0.05794,-4.147586 C 44.743089,10.396065 42.75621,10.164294 40.887086,9.8138331 39.017962,9.4633724 39.134783,8.6456307 39.017962,7.7110687 38.901142,6.7765067 40.770266,5.6083043 41.938468,4.3232816 42.897329,3.2690957 42.203884,1.7420214 41.407637,9.32453e-4" id="path45" />
		<path d="m 47.604718,21.43698 c -0.175698,-0.467281 0.817741,-0.467281 1.285022,-1.051382 0.467281,-0.584101 -1.3439,-0.467281 -2.453225,-0.584101 -1.109325,-0.11682 -0.992505,-1.811181 -0.817742,-2.686866 0.174764,-0.875684 0.875685,-1.226145 0.875685,-1.226145 0.584101,-0.817742 1.401843,-1.168203 0.817742,-2.102764 C 46.728099,12.85116 47.19538,12.96798 47.078559,12.150238 46.961739,11.332496 46.611278,10.982036 45.793537,10.047474 44.975795,9.1129117 44.158053,8.8792712 41.821648,8.5288104 39.485243,8.1783497 41.237547,6.893327 43.106671,4.9073828 44.713183,3.1999381 43.816938,2.3560286 42.865554,9.32453e-4" id="path47" />
		<path d="m 12.616587,32.476961 c -0.156072,0.623353 -0.233641,0.934562 0,2.180333 0.23364,1.245771 -0.156072,1.791555 -0.77849,2.570045 -0.622419,0.778491 -2.0251963,0.623353 -2.0251963,0.623353 -1.5186632,0.11682 -1.1682024,0.467281 -2.6868656,1.168203 C 5.6073719,39.719816 5.3737314,39.602996 3.5046074,40.070277 2.0476253,40.434756 1.2298836,41.294553 4.45e-8,42.375841" id="path49" />
		<path d="m 4.8157979,41.212312 c -0.6429787,0.584101 0.467281,1.635483 0.5841012,2.453225 0.1168203,0.817742 -0.610269,1.428011 -0.610269,1.428011 C 3.0644287,46.722489 1.5756715,46.622491 4.45e-8,47.565464" id="path51" />
		<path d="M 2.8298537,44.600099 C 3.6475954,44.074875 3.6475954,43.140313 3.3550775,42.730975 3.0625596,42.321637 2.336405,42.640322 2.336405,42.640322 1.0990449,43.222554 0.67849203,43.668341 4.4500001e-8,44.006652" id="path53" />
		<path d="M 4.45e-8,48.409373 C 0.28317232,48.082277 0.66821185,47.943962 1.869124,47.780413 c 2.5700454,-0.350461 3.0373264,-0.467281 4.5559896,-2.219585 1.5186632,-1.752303 1.7523037,-2.686865 0.934562,-3.621427 0,0 -1.2074541,-0.350461 -0.5065326,-0.973814 0.7009214,-0.623353 1.7915553,-0.856993 2.5700454,-1.324274 0.7784906,-0.467281 1.9466926,-0.700922 2.9597576,-0.77849 1.012131,-0.07757 3.348536,-0.856993 2.726117,-2.102765 -0.622418,-1.245771 -0.856993,-2.258836 -0.934562,-2.881254 -0.07757,-0.623353 -0.156071,-0.77849 -0.389712,-1.635484 -0.23364,-0.856993 0.623353,-3.114895 1.479412,-4.205528 0.856993,-1.090634 3.114895,-2.647615 4.750378,-3.037327 1.635484,-0.389712 3.193398,-0.544849 3.738248,-1.245771 0.54485,-0.700921 0.623353,-1.245771 0.311209,-2.258836 -0.311209,-1.012131 -0.311209,-2.336405 -0.311209,-2.336405 -0.142988,-1.100914 1.273808,-1.260724 1.596232,-2.336405 0.350461,-1.168203 -0.11682,-1.401843 -1.752304,-2.336405 C 21.961272,13.552081 21.727631,13.20162 21.493991,11.566137 21.26035,9.9306534 21.377171,10.865215 20.676249,10.164294 19.975328,9.4633724 19.040766,8.8792712 18.690305,7.360608 18.339844,5.8419448 19.975328,5.491484 20.793069,4.6737423 21.610811,3.8560006 23.947216,2.6877981 25.582699,1.6364159 26.602307,0.98128796 26.986411,0.64391109 27.187342,9.32453e-4" id="path55" />
		<path d="m 4.2326312,49.999998 c 0.8691426,-0.33177 1.8812733,-0.637371 2.8934039,-1.051382 l 0.5841012,-0.506533 c 0.3897123,-0.156072 0.7009215,-0.623353 1.3242743,-1.401843 0.6233528,-0.77849 0.3897123,-1.557915 0.5448496,-3.037326 0.1560719,-1.479412 0.7009218,-1.713052 2.2588368,-3.037327 1.557914,-1.324274 3.660679,-1.01213 4.516738,-1.168202 0.856993,-0.156072 1.245771,-0.467281 1.713052,-1.168203 0.467281,-0.700921 -0.467281,-1.713052 -1.479412,-2.413973 -1.012131,-0.700922 -1.324274,-3.348536 -1.245771,-4.361601 0.0785,-1.013065 2.258836,-3.660679 3.427039,-4.595241 1.168202,-0.934562 4.439169,-1.401843 5.918581,-1.869124 1.479411,-0.467281 2.025195,-1.869124 1.324274,-2.959758 -0.700922,-1.090634 -0.54485,-1.635483 -0.467281,-2.492477 0.07757,-0.856993 1.207454,-1.829872 1.207454,-1.829872 0.817742,-0.817742 0.817742,-1.518663 0.350461,-2.570045 C 26.635951,14.485708 25.234108,13.901607 23.832265,12.850225 22.430422,11.798843 22.664062,11.448382 22.547242,10.397 22.430422,9.3456176 22.430422,9.4624378 21.145399,8.2942354 19.860376,7.1260329 20.794938,6.6587519 21.49586,5.8410102 22.196781,5.0232685 23.248164,4.5559875 25.350928,3.6214255 27.199492,2.7999456 27.963963,2.0681835 28.598531,-2.10897e-6" id="path57" />
		<path d="m 8.1559224,49.999998 c 0.6981177,-0.357003 1.380348,-0.736435 1.8906186,-1.168203 0,0 1.11026,-0.642978 1.11026,-1.869124 0,-1.226145 0.758864,-4.088708 2.219585,-4.730752 1.46072,-0.642044 4.555989,-0.992505 5.315788,-2.102765 0.759799,-1.110259 1.518663,-2.686865 0.175698,-4.088708 -1.342966,-1.401843 -3.213959,-3.563485 -1.344835,-5.89989 1.869124,-2.336405 4.67281,-3.270967 5.898955,-3.270967 1.226145,0 4.029831,-0.23364 4.78963,-1.401843 0.758865,-1.168202 0.758865,-2.278462 0.05794,-2.920506 L 27.335,21.495858 c -0.817742,-1.285023 0.467281,-3.037327 1.051382,-4.205529 0.584102,-1.168203 0.700922,-1.635484 0.350461,-2.686866 C 28.386385,13.552081 27.101363,13.0848 26.04998,12.85116 24.998598,12.617519 24.648137,11.332496 24.531317,10.281114 24.414497,9.2297319 23.363115,8.6456307 22.428553,7.827889 21.493991,7.0101472 22.545373,6.1924055 23.830396,5.7251245 25.115418,5.2578435 25.69952,4.6737423 27.568644,3.6223601 29.046186,2.7915345 29.792901,1.4495035 30.098503,9.32453e-4" id="path59" />
		<path d="m 28.095737,30.724657 c -0.817742,0.525224 -2.803686,0.584101 -4.32235,1.051382 -1.518663,0.467281 -0.934562,2.102765 0.05794,3.855069 0.992505,1.752303 -1.168202,4.614867 -1.927067,5.724192 -0.758864,1.109325 -3.213024,2.277527 -4.147586,2.570045 -0.934561,0.291583 -1.110259,1.342966 -1.226145,2.861629 -0.115886,1.518663 -0.759799,1.811181 -0.759799,1.811181 -0.487841,0.487841 -0.926151,0.956991 -1.324274,1.401843" id="path61" />
		<path d="m 35.630175,19.567856 c 0,0 0,0.175698 -0.11682,0.758865 -0.11682,0.583166 -0.233641,1.285022 -0.467281,2.395282 -0.233641,1.11026 0.467281,1.168203 0.934562,1.11026 0.467281,-0.05794 0.642979,0.05794 1.168202,0.525224 0.525224,0.467281 0.876619,0.642978 1.752304,0.291583 0.875685,-0.351395 1.693426,-0.233641 2.627988,0.05794 0.934562,0.291583 1.694361,0.05981 2.628923,-0.349526 0.934562,-0.409339 2.686866,-0.116821 3.387787,0.467281 0.700922,0.584101 0.175698,1.226145 -0.642978,1.869123 -0.818677,0.642979 -1.985945,1.635484 -2.686866,2.394348 -0.700922,0.758865 -2.745743,1.11026 -4.029831,1.285023 -1.284088,0.174763 -3.095269,0.467281 -3.796191,0.817742 -0.700921,0.35046 -3.037326,0 -4.67281,0 -1.635483,0 -2.686865,0.11682 -3.621427,0.758864 -0.934562,0.642979 -1.343901,0.291583 -2.745744,0.409338 -1.401842,0.117755 -1.168202,1.401843 -0.525223,2.336405 0.642978,0.934562 1.226145,2.336405 0.758864,3.796191 -0.467281,1.459786 -2.920506,3.738248 -3.56255,4.78963 -0.642044,1.051382 -0.291584,2.102764 -0.642979,3.154146 -0.351395,1.051383 -1.635483,2.044822 -1.635483,2.044822 -0.586905,0.62896 -1.054186,1.122409 -1.471001,1.518663" id="path63" />
		<path d="m 23.59769,43.632827 c -0.175698,0.817742 0.11682,1.576606 0.23364,3.095269 0.116821,1.518664 -0.700921,1.986879 -0.700921,1.986879 -0.294387,0.482234 -0.596251,0.909329 -0.902787,1.285023" id="path65" />
		<path d="m 25.992972,33.586286 c -0.876619,0.584101 1.226145,2.102764 1.401843,3.504607 0.175698,1.401843 -1.3439,2.512103 -1.3439,2.512103 -0.467281,0.876619 -0.817742,1.577541 -0.992505,3.095269 -0.174763,1.517729 0.408404,2.686866 0.642044,3.680305 0.233641,0.99344 -0.350461,2.570046 -0.350461,2.570046 -0.157006,0.425225 -0.305601,0.770079 -0.450458,1.051382" id="path67" />
		<path d="m 28.854601,49.065436 c -0.08504,0.339246 -0.17009,0.64952 -0.257005,0.934562" id="path69" />
		<path d="m 30.100372,49.999998 c 0.08131,-0.384105 0.131773,-0.776621 0.157006,-1.168203 0.116821,-1.869124 0,-0.700921 0,-1.518663 0,-0.817742 0.175698,-2.102764 0.992505,-3.56255 0.816807,-1.459786 0.525224,-1.693426 0.175698,-2.803686 -0.349526,-1.11026 -0.233641,-1.518663 0.175697,-1.869124 0.409339,-0.350461 0.350461,-0.817742 0.525224,-1.752304 0.174763,-0.934562 1.869124,-0.934562 3.446665,-0.992504 1.57754,-0.05794 2.453225,0.23364 3.32891,-0.175698 0.875684,-0.409338 1.168202,-0.525224 1.693426,-0.525224 0.525224,0 3.095269,-0.23364 4.088709,-0.525224 0.993439,-0.291583 2.453225,-1.3439 2.979383,-1.985944 0.526158,-0.642044 1.506514,-1.097176 1.506514,-1.097176 C 49.411226,31.805011 49.693464,31.622771 50,31.473241" id="path71" />
		<path d="m 31.337732,49.999998 c 0.148595,-0.700922 0.253266,-1.45044 0.320555,-2.219585 0,0 -0.09065,-0.96073 0.201865,-1.837349 0.292518,-0.876619 0.732697,-1.609315 0.732697,-1.609315 0.642978,-1.226146 0.35046,-2.043887 -0.05794,-2.861629 -0.408404,-0.817742 -0.11682,-1.226145 0.23364,-1.635484 0.350461,-0.409338 0.175698,-0.876619 0.116821,-1.518663 0,0 1.226145,-1.226145 2.920506,-1.051382 1.694361,0.174763 2.570045,0.23364 3.154146,-0.05794 0.584102,-0.291583 1.401843,-0.584101 2.803686,-0.584101 1.401843,0 2.803686,-0.11682 3.855068,-0.758864 1.051383,-0.642044 1.051383,-1.051383 2.219585,-1.168203 1.168203,-0.11682 1.097176,-0.338311 1.097176,-0.338311 0.336442,-0.303733 0.693445,-0.557934 1.063531,-0.760734" id="path73" />
		<path d="m 32.407805,49.999998 c 0.08224,-0.488776 0.142988,-0.995309 0.185044,-1.518663 0,0 0.142988,-1.07755 0.376628,-1.428011 0.233641,-0.350461 1.316798,-1.609316 1.316798,-1.609316 0.934562,-1.051382 -0.11682,-2.453225 -0.409338,-3.504607 -0.292518,-1.051382 -0.11682,-1.459786 0.175698,-1.927067 0.292517,-0.467281 -0.233641,-0.584101 0.409338,-1.3439 0.642978,-0.759799 1.693426,-0.584101 2.512102,-0.291583 0.818677,0.292518 1.518663,0.291583 2.044822,-0.175698 0.526158,-0.467281 1.869124,-0.525224 3.680305,-0.291583 1.811181,0.23364 2.512102,-0.409339 3.095269,-1.11026 0.583167,-0.700921 2.044822,-1.3439 2.745743,-1.226145 0.700922,0.117755 0.746715,0.07103 0.746715,0.07103 C 49.53085,35.476905 49.768229,35.341393 50,35.23205" id="path75" />
		<path d="m 34.781593,49.999998 c -0.03364,-0.467281 -0.06729,-0.97101 -0.08598,-1.518663 0,0 -0.148595,-1.136428 0.142988,-1.603709 0.291583,-0.467281 0.732697,-1.492495 0.732697,-1.492495 0.291583,-1.285023 -0.175698,-2.744809 -0.525224,-3.621428 -0.349526,-0.876619 -0.11682,-1.285023 0.467281,-1.811181 0,0 1.635483,-0.11682 2.861629,-0.175698 1.226145,-0.05888 0.817741,-0.05794 1.285022,-0.642978 0.467281,-0.585036 1.518664,-0.350461 2.686866,0.05794 1.168202,0.408403 1.518663,0.23364 2.512103,-0.116821 0.993439,-0.35046 1.518663,-0.642978 2.979383,-0.758864 1.460721,-0.115886 1.564457,-0.571952 1.564457,-0.571952 0.193454,-0.175697 0.391581,-0.318685 0.59625,-0.437375" id="path77" />
		<path d="m 36.915198,43.048726 c 0.467281,0.992505 0.175698,2.627988 -0.233641,3.621428 -0.409338,0.993439 -0.467281,2.278462 -0.467281,2.278462 0,0.338311 0.02243,0.691575 0.05421,1.051382" id="path79" />
		<path d="m 41.407637,49.999998 c -0.173828,-0.380367 -0.35233,-0.770079 -0.520551,-1.168203 -0.934562,-2.219584 -0.291583,-1.401843 -0.291583,-2.278462 0,-0.876619 -0.291583,-2.512102 -0.409338,-3.212089 -0.117755,-0.699987 0.05794,-1.3439 1.459786,-0.876619 0,0 1.811181,-0.467281 2.686865,-0.642979 0.875685,-0.175698 2.044822,0.525224 2.979384,1.285023 0.934562,0.759799 1.506514,0.24579 1.506514,0.24579 0.443917,-0.339246 0.828956,-0.666343 1.180351,-0.975683" id="path81" />
		<path d="M 45.61597,49.999998 C 45.429992,49.644864 45.215977,49.257956 44.975795,48.831795" id="path83" />
		<path d="m 44.216931,47.020614 c -0.233641,-0.700921 0.758864,-0.642978 1.401842,-0.758864 0.642979,-0.115886 1.168203,0.467281 2.102765,1.401843 0.934562,0.934562 1.213996,0.713071 1.213996,0.713071 0.360741,-0.340181 0.71494,-0.59812 1.063531,-0.806527" id="path85" />
		<path d="m 42.865554,49.999998 c -0.155137,-0.38504 -0.312144,-0.809331 -0.459805,-1.285023 0,0 -0.467281,-1.285023 -0.23364,-1.693426 0.23364,-0.408404 0.584101,-1.460721 0.409338,-1.986879 -0.174763,-0.526158 0.409338,-0.876619 1.459786,-0.934562 1.050448,-0.05794 1.693426,0 2.394348,0.291583 0.700921,0.291584 -0.421488,0.479431 1.798097,0.12897 0.845778,-0.133642 1.351376,-0.300929 1.764453,-0.508402" id="path87" />
		<path d="M 10.903535,7.0101472 C 10.125044,7.7886373 9.0344106,8.568062 9.2680511,9.5801926 c 0.2336405,1.0121304 0.3112091,1.3242744 1.2457709,1.3242744 0.934562,0 0.389713,-0.156072 1.245771,0.156072 0.856994,0.311209 0.856994,0.156072 1.557915,0.07757 0.700922,-0.07757 3.193398,0.778491 3.89432,1.713053 0.700921,0.934562 0.544849,1.168202 1.713052,1.869123 1.168202,0.700922 1.713052,1.324275 1.401843,1.946693 -0.311209,0.623353 -0.623353,1.245771 -0.311209,2.025196 0.311209,0.77849 0.856993,2.803686 -0.07757,3.037326 -0.934562,0.233641 -3.504607,0.856994 -4.439169,1.245771 -0.934562,0.388778 -2.336405,0.856994 -2.025196,2.025196 0.311209,1.168203 0.623353,1.557915 0.311209,1.946693" id="path89" />
		<path d="m 30.022803,14.427766 c 0.992505,0.817741 1.693427,1.110259 1.226146,1.693426 -0.467281,0.583167 -2.102765,1.57754 -1.927067,2.686866 0.175698,1.109325 0.467281,1.869123 0.584101,2.512102 0.11682,0.642979 -0.05794,0.642979 0.350461,1.168203 0.408403,0.525223 0.467281,0.525223 0.409338,1.110259 -0.05794,0.585036 0.05794,1.811181 1.635483,2.336405 1.577541,0.525224 2.102765,0.700922 1.752304,1.226145 -0.350461,0.525224 -0.700921,0.05794 -2.160707,0.116821 -1.459786,0.05888 -3.095269,0.23364 -4.030766,0.642978 -0.934562,0.409338 -2.160707,0.525224 -3.32891,0.758865 -1.168202,0.23364 -2.160707,0.35046 -3.213024,0.817741 -1.052317,0.467281 -2.160707,1.051383 -2.278462,1.811181 -0.117755,0.759799 -0.291583,1.285023 0.350461,2.278463 0.642044,0.993439 0.467281,1.168202 0.467281,1.518663 0,0 1.285023,0.758864 1.051382,2.044821 -0.23364,1.285958 -0.467281,2.219585 -1.285023,3.037327" id="path91" />
		<path d="m 44.801032,25.175228 c 1.401843,-0.11682 0.350461,1.285023 -1.401843,2.861629 -1.752304,1.576606 -4.322349,1.811181 -5.373732,1.811181 -1.051382,0 -3.504607,0.409338 -5.898955,0.233641 -2.394347,-0.175698 -0.934562,-0.291584 -2.102764,0.11682" id="path93" />
		<path d="m 9.9605615,49.999998 c 0.05327,-0.189716 0.1158855,-0.419618 0.2027995,-0.700922 0,0 0.934562,-0.817741 1.401843,-1.285022 0.467281,-0.467281 0.467281,-1.518664 0.934562,-3.270967 0.467281,-1.752304 1.051383,-1.869124 1.985945,-2.336405" id="path95" />
		<path d="m 49.999065,11.568941 c -0.142988,0.150464 -0.301863,0.30934 -0.47943,0.476626 l -0.688772,0.162614 -0.817742,-0.642979 c -0.758864,-1.051382 0,-1.9859439 -0.23364,-3.2709666 C 47.54584,7.0092127 45.676716,7.4764937 44.274873,7.1260329 42.87303,6.7755722 44.858975,5.0232685 45.910357,3.855066 46.795387,2.8719068 46.604736,1.8887476 45.61597,-2.10897e-6" id="path97" />
		<path d="m 41.880526,34.170387 c 0.758864,-0.175697 2.278462,-0.23364 3.328909,-0.525224 1.050448,-0.291583 2.219585,-1.401843 2.861629,-2.160707 0.642044,-0.758864 1.213996,-1.330816 1.213996,-1.330816 0.251397,-0.251397 0.486907,-0.431768 0.713071,-0.560737" id="path99" />
		<path d="m 49.999065,20.923906 c -0.511205,0.3299 -0.9383,0.717743 -1.180351,1.168202 0,0 -0.934562,-0.11682 0,0.934562 0.382236,0.429899 0.783163,0.91774 1.180351,1.353246" id="path101" />
		<path d="m 49.999065,13.390402 c -0.323358,0.224295 -0.71307,0.457935 -1.180351,0.75793 0,0 -0.980356,0.922412 -0.688773,1.623334 0.291584,0.700921 0.385975,0.800919 -0.291583,1.3439 -0.584101,0.467281 -0.700921,0.934562 -0.291583,1.168202 0.409338,0.233641 0.571952,0.304667 0.571952,0.304667 0.602792,0.150465 1.216799,0.265416 1.824265,0.323359 0.01963,0.0019 0.03832,0.0037 0.05701,0.0047" id="path103" />
		<path d="m 49.052354,27.8163 c 0.520551,-0.390647 0.71494,-0.527093 0.946711,-0.571952" id="path105" />
		<path d="m 28.796658,48.889738 c 0,0 0.05794,-2.044821 -0.175698,-3.095269 -0.23364,-1.050448 -0.642978,-2.219585 -0.584101,-4.380292 0.05888,-2.160707 0.876619,-1.811181 1.460721,-2.512103 0.584101,-0.700921 0.584101,-1.635483 0.409338,-2.861628 -0.174763,-1.226146 0.175697,-0.992505 0.992504,-1.401843 0.816808,-0.409338 0.992505,-0.350461 2.336405,-0.233641 1.3439,0.116821 1.985945,0.116821 2.745743,-0.409338 0.759799,-0.526158 0.87662,-0.291583 1.927067,-0.23364 1.050448,0.05794 2.920506,0 3.680305,-0.467281 0.759799,-0.467281 1.869124,-0.700922 2.627989,-0.700922 0.758864,0 2.044821,-0.350461 2.627988,-1.401843 0.583166,-1.051382 1.459786,-1.57754 1.869124,-1.811181 0.409338,-0.23364 0.571952,-0.629895 0.571952,-0.629895 0.271023,-0.215883 0.503729,-0.370086 0.71307,-0.476626" id="path107" />
		<path d="m 38.779649,49.999998 c -0.06168,-0.472889 -0.138315,-0.978487 -0.228968,-1.518663 v -1.3439 c 0.05794,-0.350461 -0.11682,-1.459786 0.05794,-2.512103 0.174763,-1.052317 -1.110259,-2.219585 -1.57754,-2.978449 -0.467281,-0.758864 1.57754,-0.467281 2.102764,-0.642979 0.525224,-0.175697 1.285023,-0.409338 1.869124,-0.291583 0.584101,0.117755 1.11026,0.350461 1.985944,-0.233641 0.875685,-0.584101 3.270967,0.409339 4.497112,0.291584 1.226146,-0.117755 1.447637,-0.571952 1.447637,-0.571952 0.414945,-0.184109 0.764471,-0.348592 1.063531,-0.494383" id="path109" />
		<path d="m 49.999065,48.408439 c -0.271023,0.303732 -0.442982,0.774752 -1.117736,1.591559" id="path111" />
		<path d="m 48.881329,9.32453e-4 c -0.14953,0.181305027 -0.324293,0.379432157 -0.529896,0.596250537 0,0 -0.922413,0.39625428 -0.688772,0.98035551 0.23364,0.5841012 0.812134,1.3401619 0.291583,2.1607073 -1.811181,2.8616287 0.513074,1.9980935 0.513074,1.9980935 0.63083,-0.2392479 1.131755,-0.4457861 1.530813,-0.6364367" id="path113" />
	</g>
</svg>
