<?xml version="1.0" encoding="UTF-8" standalone="no"?>
<svg xmlns:dc="http://purl.org/dc/elements/1.1/" xmlns:cc="http://creativecommons.org/ns#" xmlns:rdf="http://www.w3.org/1999/02/22-rdf-syntax-ns#" xmlns:svg="http://www.w3.org/2000/svg" xmlns="http://www.w3.org/2000/svg" version="1.1" x="0px" y="0px" xml:space="preserve" width="50.00" height="50.00" viewBox="0 0 50.00 50.00">
	<metadata id="metadata2">
		<rdf:RDF>
			<ns:item rdf:ID="biblio1">
				<ns:link>rdf:resource=&quot;http://pubs.usgs.gov/tm/2006/11A02/</ns:link>
				<ns:title>U.S. Geological Survey, 2006, FGDC Digital Cartographic Standard for Geologic Map Symbolization (PostScript Implementation): U.S. Geological Survey Techniques and Methods 11-A2</ns:title>
			</ns:item>
			<ns:item rdf:ID="biblio2">
				<ns:link>https://davenquinn.com/projects/geologic-patterns/</ns:link>
				<ns:title>FGDC Geologic Patterns for the Web</ns:title>
			</ns:item>
			<rdf:Description>
				<dc:description>
					Converted from 'FGDC Geologic Patterns for the Web' to QGIS compatible svg symbols, with customisable fill colour/stroke colour/stroke width (when appropriate).
					SVG scaled to 50x50 pixels so that base outline-width is 0.387 px and width is 90 in the QGIS xml definition file. 
					Some of the original FGDC symbols have been omitted from this set because they can be generated from other symbols using the 'texture width' and/or 'stroke width' fields in QGIS symbology form.
				</dc:description>
				<dc:date>01 MARCH 2019</dc:date>
				<dc:creator>GeoProc.com</dc:creator>
				<dc:publisher rdf:resource="https://github.com/BC-Consulting/QGIS-FGDC-Fill" />
			</rdf:Description>
			<cc:Work rdf:about="">
				<dc:format>image/svg+xml</dc:format>
				<dc:type rdf:resource="http://purl.org/dc/dcmitype/StillImage" />
				<dc:title>FGDC fill symbol: Lithology - Metamorphism, Igneous and vein - 707 Schist And Gneiss</dc:title>
			</cc:Work>
		</rdf:RDF>
	</metadata>
	<path style="fill:none;stroke:none;stroke-width:0;" id="rect1500" width="50.00" height="50.00" x="0.0" y="0.0" />
	<g style="fill:none;" stroke="param(outline) #000" stroke-width="param(outline-width) 0.3">
		<path id="path5" d="m 50,1.9549859 c -3.779054,3.3801622 -6.295759,5.5317617 -5.626532,6.2009638 0.692303,0.6922777 -0.923072,2.0002213 -3.23075,4.3078143 -2.307678,2.307593 -6.768881,6.384648 -6.154116,7.922428 0,0 0.538151,0.788274 0.07661,1.192564 -0.461535,0.404291 -8.019643,8.480866 -8.596562,8.999613 -0.57692,0.518747 -1.096609,1.558086 -0.980302,2.076833 0.116307,0.518747 0.115384,1.269176 -0.576919,1.961454 -0.692304,0.692278 -5.711965,5.942513 -6.51873,6.749248" />
		<path id="path7" d="m 50,3.7216792 c -2.12491,1.8765345 -4.005619,3.1097121 -3.934543,3.8186047 0.07661,0.7688899 0.692304,0.9230371 -0.461535,2.1534457 -0.118154,0.1264561 -0.277845,0.2926027 -0.470767,0.4910564" />
		<path id="path9" d="m 45.133155,10.185709 c -1.561836,1.612546 -5.281813,5.330539 -6.580575,6.57387" />
		<path id="path11" d="m 38.55258,16.759579 c -0.100614,0.096 -0.187383,0.177223 -0.256613,0.241836 -1.077225,0.999649 -1.922758,2.307593 -1.69199,3.076483 0.230768,0.76889 0.307383,1.153796 -0.461536,1.922686 0,0 -6.442114,6.672636 -7.192571,7.364914 -0.750457,0.692278 -1.558144,1.903302 -1.499991,2.538352 0.05815,0.63505 0.167372,1.391966 -0.351394,1.969787 -0.104307,0.116303 -1.620418,1.957044 -2.151184,2.51825" />
		<path id="path13" d="m 21.267148,39.974887 c -1.165839,1.227639 -2.107371,2.218981 -2.355677,2.487585 -0.749534,0.807658 -1.096609,1.153797 -0.980302,1.730695 0.116307,0.576898 0.461535,1.096568 0.115384,1.499935 -0.305883,0.356442 -2.098052,2.245245 -2.510886,2.679878 -0.05435,0.05722 -0.480858,0.539663 -0.480858,0.539663" />
		<path id="path15" d="M 44.726604,1.4394065 C 43.79007,2.6256698 40.52703,4.6170252 40.68026,5.5400623 c 0.153229,0.9230371 0.461535,1.2304085 -0.07661,1.7694623" />
		<path id="path17" d="m 38.776249,0.48891532 c -0.08318,0.0877772 -2.107027,2.30288978 -2.188406,2.38937738 -1.27328,1.3532129 -2.31001,2.5260872 -2.598927,2.8149937 -0.307383,0.3073713 -0.461535,0.6156659 -0.307383,1.3845559 0.154153,0.7688898 -0.07661,0.5381305 -0.846456,1.3079436 -0.768918,0.76889 -3.307364,3.4613901 -3.307364,3.4613901" />
		<path id="path19" d="m 35.529,0 c -1.307992,1.3845559 -4.848371,4.9253196 -5.386522,5.3868382 -0.53815,0.4615185 -0.768918,0.5381307 -0.768918,1.2304085 0,0.6922779 -0.538151,1.6153151 -1.53876,2.6924994" />
		<path id="path21" d="m 13.834579,23.193148 c 0.404305,-0.287987 2.538446,-2.596503 2.999981,-3.11525 0.461536,-0.518747 0.404305,-0.923037 0.404305,-1.558087 0,-0.635049 0.57692,-1.384556 1.269223,-2.076833 0.692304,-0.692278 7.788875,-7.903045 7.788875,-7.903045 0.846457,-0.846425 0.923072,-1.3079436 0.923072,-1.9226864 0,-0.6147427 0,-0.7688899 0.53815,-1.3845557 0.496613,-0.5667448 2.755368,-2.831878 5.093507,-5.23085155" />
		<path id="path23" d="m 24.527436,8.463321 c 0.846456,-0.8464251 0.999686,-1.0771844 0.768918,-1.9226865 -0.230768,-0.846425 0,-1.615315 0.692304,-2.2309808 C 26.596039,3.7706 28.979409,1.5728485 30.437861,0.00183935" />
		<path id="path25" d="m 19.296391,9.3088231 c 0,0 0.615689,-0.6156658 1.384607,-1.4611678 0.768918,-0.8464252 0.846456,-1.2304087 0.538151,-2.0768337 -0.307383,-0.846425 0.230767,-0.846425 0.768918,-1.538703 0.489228,-0.6285882 2.375062,-2.6537317 3.868592,-4.23027925" />
		<path id="path27" d="m 0,24.699545 c 1.8895268,-2.062065 6.3207792,-6.70125 6.9115448,-7.389836 0,0 0.5769195,-0.518746 0.9230712,-1.038416 0.3461517,-0.51967 0.4043052,-0.404291 0.2307678,-0.980266 -0.1735374,-0.575975 -0.3461517,-0.807657 -0.05723,-1.096568 0.2889213,-0.288911 0.596304,-0.65351 0.596304,-0.65351 0.3073828,-0.307372 5.0002762,-4.5385743 5.6925792,-5.0767049 0.692304,-0.5381308 0.999687,-1.1537965 0.846457,-2.0002215 -0.154153,-0.8464251 -0.07662,-0.9230373 0.53815,-1.461168 0.533535,-0.4661337 3.371979,-3.1807859 5.373198,-5.00009221" />
		<path id="path29" d="m 4.296484,18.077676 c 0.9230712,-0.923037 1.5387597,-1.615315 1.5387597,-2.692499 0,-1.077184 0.6147655,-1.691927 1.5378367,-2.46174 0.9230712,-0.76889 4.3079726,-4.1536677 5.3076596,-5.0000928 0.999686,-0.8464251 0.923071,-1.3845557 0.923071,-2.0002215 0,-0.6156658 0.07662,-0.6156658 0.846456,-1.4611678 0.647073,-0.7116617 2.98429,-2.8420315 4.579357,-4.46103859" />
		<path id="path31" d="M 14.450267,2.6168036 C 14.952418,2.177438 15.811797,1.2783997 17.030251,0.00183935" />
		<path id="path33" d="M 11.996756,3.9837413 C 11.614823,4.3859263 10.487094,5.1336486 9.94669,5.6873873 9.5660724,6.0773972 9.0037178,6.677802 9.2215345,7.1919195 9.5819056,8.0425111 8.5451131,8.9825952 8.2330684,9.3555459 7.1915187,10.600389 6.5835876,11.138232 5.9118586,11.770563 4.6038667,13.000972 3.9891012,13.481874 3.9115633,14.251687 L 3.6807954,15.462712 C 3.5654115,16.27037 3.5654115,16.616509 2.6423403,17.654925 2.1208051,18.241977 0.86768698,19.085633 0,19.709606" />
		<path d="M 0,1.955 2.1909585,0.00184093" id="line35" />
		<path id="path37" d="M 3.06603,1.1556358 0.70019845,3.2324694 C 0.51466113,3.4060004 0.18553732,3.5739931 0,3.7373707" />
		<path id="path39" d="M 0,5.5991367 C 0.22061403,5.3997607 0.57927612,5.1994615 0.77773644,5.0019316 L 6.5118549,0.00183935" />
		<path id="path41" d="M 0,9.3485137 C 0.59907324,8.7485395 1.2420412,8.2482534 1.5457317,7.943651 2.8537236,6.6357075 2.8537236,6.4824832 2.6995707,5.7126702 2.5454178,4.9437804 4.3149454,3.7124487 5.4687844,2.5586522 L 8.4023048,9.1631e-4" />
		<path id="path43" d="M 10.793059,0.00183935 6.9115448,3.3866166 C 5.7577057,4.540413 3.9891012,5.7708216 4.1423311,6.5406346 4.296484,7.3095246 4.296484,7.4636717 2.988492,8.7716155 2.4604953,9.2986697 1.1999926,10.416468 0,11.621955" />
		<path id="path45" d="m 18.992701,49.999994 c 0.314767,-0.318448 0.601842,-0.618435 0.842764,-0.88427 0,0 1.153839,-1.345788 1.922757,-2.115601 0.768919,-0.769813 0.999686,-1.000573 0.768919,-1.92361 -0.230768,-0.923037 -0.692304,-1.615315 2.231063,-4.53765 2.923366,-2.922336 4.231358,-4.691798 4.231358,-4.691798 0,0 2.000296,-2.076834 2.769214,-2.999871 0.768918,-0.923037 0.154153,-1.384556 0.154153,-2.153446 0,-0.76889 0.768918,-1.384555 1.615375,-2.307593 0.846456,-0.923037 8.961175,-8.903616 8.961175,-8.903616 0.692304,-0.692278 0.999686,-1.384556 0.768919,-2.000222 C 43.02763,16.866652 43.56578,16.02115 44.412237,15.098112 45.067617,14.382759 48.027397,11.3243 50,9.349" />
		<path id="path47" d="m 50,40.725316 c -0.430151,0.38583 -0.605025,0.676586 -0.741639,0.814119 0,0 -0.346152,0.287988 -0.346152,0.63505 0,0.347061 0.461535,0.749506 0.115384,1.211024 -0.346152,0.461519 -2.999982,2.94172 -3.461517,3.34601 -0.461536,0.40429 -0.865841,0.923037 -0.692304,1.327327 0.173538,0.404291 0.461536,0.461519 0.287998,0.807658 -0.173537,0.346139 -0.404305,0.635049 -0.404305,0.635049 -0.161537,0.134764 -0.367382,0.304603 -0.602765,0.499364" />
		<path d="M 50,38.146484 C 49.400003,38.660616 49.140625,39 49.140625,39 c 0,0 -1.384167,1.441413 -1.845703,1.845703 -0.461536,0.40429 -0.288772,0.866607 -0.115234,1.328125 0.02822,0.07506 0.05692,0.117966 0.08594,0.167969 m -2.023437,2.955078 c 0.79064,-0.74209 1.927228,-1.740941 2.111328,-2.201172 0.193233,-0.483069 0.06152,-0.496475 -0.08789,-0.753906 m -2.023437,2.955078 c -0.200426,0.188118 -0.484891,0.439932 -0.601563,0.568359 -0.576919,0.63505 -1.095259,0.981399 -1.037109,1.384766 0.01878,0.13027 0.03365,0.244949 0.05078,0.363281 m -0.857421,1.251953 c 0,0 0.517279,-0.287261 0.748047,-0.576172 0.156239,-0.195605 0.145289,-0.42771 0.109375,-0.675781 M 41.648438,50 l 1.14844,-1.134766" id="path49" />
		<path id="path51" d="m 49.546359,27.866485 c -0.865841,0.865809 -2.942751,3.173402 -3.518748,3.807529 -0.575996,0.634126 -1.211069,1.211025 -1.211069,1.846074 0,0.63505 0.461535,1.096568 0.115384,1.615315 -0.346152,0.518747 -3.980283,4.327198 -3.980283,4.327198 -0.749534,0.749506 -2.538446,2.422973 -3.28798,3.23063 -0.749534,0.807658 -0.807688,0.63505 -0.749534,1.384556 0.05815,0.749506 0.576919,1.153797 -0.173537,2.076834 -0.750457,0.923037 -0.749534,0.576898 -3.28798,3.191862 -0.211384,0.21876 -0.424613,0.436597 -0.635996,0.653511" />
		<path id="path53" d="m 30.402784,49.999994 c 0.205937,-0.220763 0.394551,-0.429978 0.558043,-0.620626 0.0095,-0.01102 2.974014,-2.964212 2.983304,-2.975112" />
		<path id="path55" d="m 28.527104,49.192336 c -0.185538,0.222452 -0.424613,0.49844 -0.696919,0.807658" />
		<path id="path57" d="m 50,19.682838 c -0.686765,0.494748 -1.087791,0.857502 -1.087791,0.857502 0,0 -0.865841,0.692277 -1.038455,1.096568 -0.173538,0.40429 -0.05723,0.923037 -0.05723,1.384555 0,0.461519 -1.211069,2.019606 -1.211069,2.019606 -0.923071,0.980265 -5.134122,5.076704 -5.826426,5.653602 -0.692303,0.576899 -1.153839,1.153797 -1.096608,1.788846 0.05723,0.63505 0.404305,1.558087 -0.230768,2.076834 -0.635073,0.518747 -5.36489,5.307464 -6.230731,6.115121 -0.865841,0.807658 -1.384607,1.384556 -1.384607,1.961454 0,0.576898 0.461536,1.038417 -0.05723,1.672543 -0.518766,0.634127 -3.635055,3.115251 -4.558126,4.153668 -0.923071,1.038416 0.615688,-0.576899 -0.923071,1.038416 -0.151385,0.159686 -0.311076,0.327679 -0.47446,0.499364" />
		<path id="path59" d="m 29.91171,36.999938 c 0,0 -3.308287,3.46139 -4.307973,4.538574 -0.999686,1.077184 -0.845533,2.307593 -0.768918,3.384777 0.07662,1.077185 -0.692304,1.769462 -1.307992,2.46174 -0.615689,0.692278 -1.615375,1.807307 -1.615375,1.807307 -0.269537,0.237221 -0.57415,0.511363 -0.899994,0.807658" />
		<path id="path61" d="m 50,5.581599 c -1.074455,0.9710351 -2.139169,1.9328398 -2.010862,2.5743507 0.154153,0.7688898 0.154153,0.9230371 -1.153839,2.2309813 -1.307992,1.307943 -6.230731,6.230501 -7.077188,7.153538 -0.846456,0.923037 -1.384606,1.769462 -1.153839,2.384205 0.230768,0.615666 -0.07662,1.307943 -0.768918,2.000221 0,0 -6.1735,6.230501 -6.923034,7.09631 -0.749534,0.865809 -1.327377,1.846074 -1.153839,2.307593 0.173537,0.461518 0.461535,1.269176 -0.115384,1.846074 -0.57692,0.576898 -7.442724,8.307335 -7.846106,8.711625 -0.403382,0.40429 -1.615374,1.672543 -1.672605,2.134062 -0.05723,0.461518 0.518766,1.095645 0.518766,1.672543 0,0.576898 -1.672605,2.134985 -2.192294,2.711883 l -0.539074,0.633204 c -0.326767,0.340601 -0.632303,0.661817 -0.918456,0.960882" />
		<path id="path63" d="M 41.686407,0.00183935 C 39.879034,1.7731476 37.125512,4.1619679 36.449824,4.7711723 c -0.768918,0.6922779 -0.768918,0.9996493 -0.615688,2.0002216 0.154152,0.9996492 -0.692304,2.0002216 -1.769528,2.9232587 0,0 -8.000258,8.0765754 -8.615947,8.6922414 -0.615688,0.615666 -0.384921,0.923037 -0.307383,1.691927 0.07662,0.76889 -0.692303,1.307944 -1.153839,1.922686 -0.461535,0.615666 -6.461498,6.615408 -7.538723,7.538445 -1.077224,0.923037 -0.846456,1.153796 -0.768918,1.922686 0.07662,0.76889 -0.461536,1.461168 -1.461222,2.46174 -0.999686,0.99965 -5.9999623,6.307113 -6.9996485,7.307686 -0.9996861,1.000572 -0.4615356,1.153796 0,1.922686 0.4615356,0.76889 0.3849207,1.53778 -0.3073827,2.153446 -0.6923034,0.615665 -3.2307494,3.191862 -3.2307494,3.191862 l -1.5286059,1.499936" />
		<line id="line65" y2="49.999996" x2="6.4675474" y1="48.80743" x1="7.8346157" />
		<path id="path67" d="m 8.3579974,49.999994 4.1685896,-3.634921 c 0,0 0.846456,-0.846425 1.192608,-1.249792 0.346151,-0.403367 0.404305,-1.153797 0.230768,-1.557164 -0.173538,-0.403367 1.558144,-2.076833 3.576901,-4.096439 2.018756,-2.019605 3.786695,-3.366504 4.248231,-3.770795 0.461535,-0.40429 1.756385,-1.681611 1.42131,-2.352659 -0.223345,-0.251625 -0.527964,-1.109903 -0.120104,-1.542537 1.136078,-1.205086 2.225928,-3.071513 3.421177,-3.759746" />
		<line id="line69" y2="49.999996" x2="10.749674" y1="47.192116" x1="13.969348" />
		<path id="path71" d="M 44.200853,0.00183935 C 42.434095,1.4648533 38.817502,4.461955 38.680887,5.0785437 c -0.154153,0.6922779 0.538151,1.615315 -0.154153,2.3842051 -0.692303,0.7688899 -3.307364,3.3847772 -4.230435,4.1536672 0,0 -5.231045,5.172701 -5.980579,5.92313 -0.750457,0.749506 -0.923071,1.269176 -0.750457,2.019605 0.172615,0.750429 0.287999,0.807658 -1.153839,2.422973 -1.441837,1.615315 -7.558107,7.730436 -8.192257,8.364562 -0.63415,0.634127 -0.635073,0.980266 -0.461536,1.788846 0.173538,0.808581 -0.287998,1.211025 -1.269222,2.192214 -0.981225,0.981188 -5.30766,5.653602 -6.461499,6.86555 -1.1538388,1.211948 -0.8076871,1.730695 -0.5769193,2.307593 0.2307678,0.576898 0.5769193,1.038417 0,1.672543 -0.5769195,0.634127 -3.7495154,3.46139 -4.5572027,4.210896" />
		<path id="path73" d="m 21.623454,29.539029 c 0.807687,-0.807658 7.904259,-8.250106 7.904259,-8.250106 0.635073,-0.63505 1.269223,-1.269176 1.096608,-1.961454 -0.172614,-0.692278 -0.173537,-1.153797 0.461536,-1.672544 0.635073,-0.518747 6.749497,-6.576639 7.211033,-7.038158" />
		<path id="path75" d="m 30.392631,36.577187 c 0,0 3.346133,-3.287858 3.923052,-3.980136 0.57692,-0.692278 0.692304,-0.980266 0.518766,-1.788846 -0.173537,-0.808581 0.404306,-1.327328 0.865841,-1.846074 0.461536,-0.518747 2.826444,-3.23063 4.038437,-4.441655 l 1.327376,-1.384556 c 0.692304,-0.749506 2.865213,-2.827263 2.865213,-2.827263 0.692304,-0.692278 0.999687,-1.384556 0.768919,-2.000221 -0.230768,-0.615666 0.307383,-1.461168 1.153839,-2.384205 C 46.363609,15.367639 48.212011,13.358187 50,11.563803" />
		<path id="path77" d="m 25.834505,15.231953 c -1.69199,1.922686 -2.538446,3.154018 -2.923367,3.615536 -0.384921,0.461519 -0.53815,0.846425 -0.384921,1.384556 0.154153,0.538131 -0.154152,0.846425 -0.615688,1.307944 -0.461536,0.461518 -2.384293,2.230981 -2.384293,2.230981" />
		<path id="path79" d="M 10.707651,2.0672109 C 9.0156622,3.9898973 6.7001615,5.7126702 6.3152408,6.1741889 5.9303201,6.6357075 5.7770902,7.0206139 5.9303201,7.5587446 6.084473,8.0968752 5.7761672,8.4051697 5.3146315,8.8666883 4.8530959,9.3282069 1.5457317,12.539453 1.5457317,12.539453" />
		<path id="path81" d="m 17.757631,25.770268 c 0,0 -3.692285,4.153667 -4.077205,4.538574 -0.384921,0.384906 -0.692304,0.76889 -0.615689,1.461168 0.07662,0.692278 0.07662,0.846425 -0.307382,1.230408 -0.384921,0.384907 -2.615061,2.538352 -2.615061,2.538352" />
		<path id="path83" d="m 38.700272,29.943319 c -0.749534,0.923037 -1.384607,1.499935 -1.269223,2.134062 0.115384,0.634127 0.230768,1.441784 -0.346152,2.076834 -0.576919,0.635049 -4.327358,4.096439 -4.903354,4.730565 -0.575997,0.634127 -1.615375,1.730695 -1.499991,2.481124 0.115384,0.750429 0.230768,1.096568 -0.346152,1.846074 -0.576919,0.749506 -4.558126,4.557035 -5.135045,5.192084" />
		<path id="path85" d="m 9.5275287,36.846714 c 0,0 -3.1541344,2.922336 -3.5381321,3.153095 -0.3849207,0.230759 -1.4621448,1.69285 -0.6932265,2.846647 0.2861521,0.429212 0,0.53813 -0.4615356,1.076261 C 4.5143288,44.29747 1.6393745,46.748134 0,48.212071" />
		<path id="path87" d="m 12.334588,27.346816 -3.1153651,3.11525 C 8.5269195,31.154344 7.9499999,31.615862 8.0653838,32.30814 8.1807677,33.000418 7.6038482,33.923455 6.4500092,35.077252 5.5177072,36.009519 1.7298355,39.202305 0,40.758545" />
		<path id="path89" d="M 12.796124,24.462324 C 10.488445,26.769917 8.8730712,28.039093 8.1807677,28.962131 7.4884643,29.885168 6.7961609,30.115927 6.680777,31.385103 6.5653931,32.654279 6.4500092,32.5389 5.5269379,33.461937 4.8494036,34.139446 1.6015286,36.808869 0,38.178657" />
		<path id="path91" d="m 0,35.948599 c 1.3689146,-1.219332 3.9189478,-3.348779 4.4884828,-3.755838 0.8076873,-0.576899 0.6923034,-1.499936 0.6923034,-2.307593 0,-0.807658 0.4615356,-1.038417 1.6153747,-2.076834 1.153839,-1.038417 5.0768911,-4.615186 6.5768821,-6.115121 0,0 1.21107,-1.499935 1.558144,-1.846074 0.347075,-0.346139 0.346152,-0.63505 0.404306,-1.384556 0.05815,-0.749506 -0.115384,-0.980266 0.749533,-1.903303 0.864918,-0.923037 6.865804,-6.5766399 7.615338,-7.2689178" />
		<path id="path93" d="m 0,34.078526 c 0.68214965,-0.628589 1.757115,-1.510089 2.2961886,-2.116525 0.9230712,-1.038416 1.0384551,-0.576898 1.0384551,-1.846074 0,-1.269176 0.9230713,-1.730695 1.7307586,-2.653732 0.8076873,-0.923037 2.9695202,-2.6805 4.2692045,-4.153667 0.8658402,-0.980265 1.4418372,-1.327327 2.1341402,-2.076834 0.692304,-0.749506 1.441837,-1.269176 1.961526,-1.846074 0.51969,-0.576898 0.404306,-1.384556 0.404306,-2.076834 0,-0.692277 0.404305,-0.923037 0.865841,-1.441784 0,0 1.153839,-1.153796 2.192294,-2.134062 1.038455,-0.980265 5.557812,-5.4994552 5.557812,-5.4994552 0.846456,-0.8464251 1.077224,-1.2304085 0.768918,-1.9226864 -0.307383,-0.6922779 0,-0.9996493 0.461536,-1.615315 0.390459,-0.520593 2.762752,-3.078329 4.183358,-4.69179798" />
		<path id="path95" d="M 6.7961609,23.423908 C 5.1807862,25.154602 3.9115633,26.539158 3.1038759,27.346816 2.2961886,28.154473 1.834653,28.500612 1.7192691,29.30827 1.6038852,30.115927 1.6038852,30.462066 1.1423496,30.808205 0.90788948,30.984505 0.35076708,31.25034 0,31.4691" />
		<path id="path97" d="M 3.7961794,18.462583 C 2.6884939,19.872061 1.1741466,21.19385 0,22.274726" />
		<path id="path99" d="m 17.296096,11.078286 c -1.730759,1.730694 -3.346133,3.23063 -4.038437,3.922908 -0.692303,0.692277 -1.038455,1.384555 -1.153839,1.961454 -0.115384,0.576898 -0.115384,1.153796 -0.807687,1.846074 -0.692304,0.692278 -1.9615262,1.961454 -1.9615262,1.961454" />
		<path id="path105" d="m 50,35.91537 c -0.592612,0.527054 -0.857023,0.893499 -0.857023,0.893499 0,0 -0.807688,0.287988 -0.865841,0.749507 -0.05815,0.461518 -0.115384,0.865809 -0.57692,1.441784 -0.461535,0.575975 -1.096608,1.096568 -2.538446,2.422972 -1.441837,1.326405 -3.635054,3.115251 -3.692285,3.922908 -0.05723,0.807658 0.346152,1.038417 -0.173537,1.499936 -0.519689,0.461518 -2.192294,2.307592 -2.192294,2.307592" />
		<path id="path107" d="m 49.257438,34.846492 c 0,0 0.237642,-0.336908 0.742562,-0.803965" />
		<path id="path109" d="m 50,31.445101 c -0.35446,0.221528 -0.510872,0.401521 -0.510872,0.401521 0,0 -1.096608,0.980265 -1.384606,1.499935 -0.287999,0.51967 -0.230768,1.153797 -0.230768,1.672543 0,0.518747 -0.287998,0.980266 -0.980302,1.672544 -0.692303,0.692278 -5.826426,5.019476 -6.635036,5.999741 0,0 -0.749534,0.865809 -1.038455,1.096568 -0.288921,0.23076 -0.692304,0.807658 -0.57692,1.326405 0.115384,0.518747 0.287999,1.269176 -0.05723,1.672543 C 38.240582,47.190268 35.990135,49.538481 35.528599,50" />
		<path id="path111" d="m 29.931095,47.827164 c 0.865841,-0.923037 3.461517,-2.999871 3.865822,-3.576769 0.404306,-0.576898 -0.230767,-0.980265 -0.173537,-1.672543 0.05723,-0.692278 0.692303,-1.038417 2.134141,-2.595581 1.441837,-1.557163 5.481197,-5.653602 6.057193,-6.46126 0.575997,-0.807657 0.287998,-1.211025 0.05723,-1.558087 -0.230768,-0.347062 0.518766,-1.153796 1.038455,-1.730694 0.519689,-0.576898 1.038455,-1.096568 2.07691,-2.076834 0.975686,-0.922114 2.433216,-2.274363 3.230749,-2.999871 0.635073,-0.576898 1.384607,-2.422972 1.384607,-2.422972 0.173538,-0.15784 0.21272,-0.32214 0.397335,-0.492902" />
		<path id="path113" d="M 49.372821,25.500741 C 49.530667,25.325364 49.65754,25.030915 50,24.657085" />
		<path id="path115" d="m 16.315794,22.385491 c 0,0 1.558144,-1.384556 2.07691,-1.961454 0.518767,-0.576898 0.749534,-1.211025 0.865841,-2.019605 0.116307,-0.808581 0.518766,-0.923038 1.327377,-1.846075 0.80861,-0.923037 2.307678,-2.422972 4.269204,-4.441655" />
		<path id="path117" d="m 49.488205,17.193407 c -1.096608,1.269176 -3.057212,3.576769 -3.576901,4.096439 -0.519689,0.51967 -0.576919,0.750429 -0.576919,1.327327 0,0.576898 0.05723,0.807658 -0.635073,1.499936 -0.692304,0.692277 -3.692285,3.63492 -3.692285,3.63492" />
		<path id="path101" d="M 48.259359,0 C 47.96182,0.92616774 46.265222,2.5391309 46.223162,2.5403391" />
		<path d="m 50,48.212 c -0.370424,0.329806 -0.663406,0.774509 -0.855754,0.886892 C 48.892055,49.24624 48.677835,49.260531 48.259359,50" id="path1047" />
	</g>
</svg>
