<?xml version="1.0" encoding="UTF-8" standalone="no"?>
<svg xmlns:dc="http://purl.org/dc/elements/1.1/" xmlns:cc="http://creativecommons.org/ns#" xmlns:rdf="http://www.w3.org/1999/02/22-rdf-syntax-ns#" xmlns:svg="http://www.w3.org/2000/svg" xmlns="http://www.w3.org/2000/svg" version="1.1" x="0px" y="0px" xml:space="preserve" width="50.00" height="50.00" viewBox="0 0 50.00 50.00">
	<metadata id="metadata2">
		<rdf:RDF>
			<ns:item rdf:ID="biblio1">
				<ns:link>rdf:resource=&quot;http://pubs.usgs.gov/tm/2006/11A02/</ns:link>
				<ns:title>U.S. Geological Survey, 2006, FGDC Digital Cartographic Standard for Geologic Map Symbolization (PostScript Implementation): U.S. Geological Survey Techniques and Methods 11-A2</ns:title>
			</ns:item>
			<ns:item rdf:ID="biblio2">
				<ns:link>https://davenquinn.com/projects/geologic-patterns/</ns:link>
				<ns:title>FGDC Geologic Patterns for the Web</ns:title>
			</ns:item>
			<rdf:Description>
				<dc:description>
					Converted from 'FGDC Geologic Patterns for the Web' to QGIS compatible svg symbols, with customisable fill colour/stroke colour/stroke width (when appropriate).
					SVG scaled to 50x50 pixels so that base outline-width is 0.387 px and width is 90 in the QGIS xml definition file. 
					Some of the original FGDC symbols have been omitted from this set because they can be generated from other symbols using the 'texture width' and/or 'stroke width' fields in QGIS symbology form.
				</dc:description>
				<dc:date>01 MARCH 2019</dc:date>
				<dc:creator>GeoProc.com</dc:creator>
				<dc:publisher rdf:resource="https://github.com/BC-Consulting/QGIS-FGDC-Fill" />
			</rdf:Description>
			<cc:Work rdf:about="">
				<dc:format>image/svg+xml</dc:format>
				<dc:type rdf:resource="http://purl.org/dc/dcmitype/StillImage" />
				<dc:title>FGDC fill symbol: Lithology - Metamorphism, Igneous and vein - 709 Contorted Gneiss</dc:title>
			</cc:Work>
		</rdf:RDF>
	</metadata>
	<path style="fill:none;stroke:none;stroke-width:0;" id="rect1500" width="50.00" height="50.00" x="0.0" y="0.0" />
	<g style="fill:none;" stroke="param(outline) #000" stroke-width="param(outline-width) 0.387">
		<path id="path5" d="m 49.823359,4.089975 c -0.688127,0.385315 -1.204453,0.931409 -1.270033,1.852654 -0.115458,1.6170295 0,3.3495612 -1.039118,4.158076 -1.039118,0.808515 -1.962777,0.231004 -2.078235,1.501528 -0.115458,1.270523 -0.346373,4.735587 -2.655523,5.082093 -2.309151,0.346506 -2.770981,0.231004 -3.579184,0.924017 -0.808203,0.693012 -1.039118,1.039518 -1.84732,1.039518 -0.808203,0 -1.154575,1.270523 -0.115457,2.194541 1.039117,0.924017 1.500947,1.039519 1.500947,2.079038 0,1.039519 0.92366,1.155021 1.962778,1.501527 1.039118,0.346506 4.618301,0.57751 1.500948,1.848034 -3.117353,1.270523 -3.925556,1.732532 -4.733758,3.118557 -0.808204,1.386026 -0.577289,2.541047 -1.731863,3.003055 -1.154576,0.462009 -1.500948,-0.115502 -1.962779,0.808515 -0.46183,0.924017 -0.46183,1.270523 -1.270032,1.270523 -0.808203,0 -1.616406,1.03952 0.230915,1.270524 1.84732,0.231004 2.078235,0.231004 2.655522,1.155021 0.577289,0.924017 0.346374,1.039519 1.616406,0.693012 1.270033,-0.346506 1.616405,-1.501527 2.655523,-0.115502 1.039118,1.386025 2.193693,2.310042 2.886439,3.927072 0.692744,1.61703 1.039117,2.079038 -0.230915,3.349562 -1.270033,1.270523 -2.424609,2.079038 -3.117354,2.425544 -0.653951,0.327102 -0.677966,1.364773 -2.052373,2.656549" />
		<path id="path7" d="m 49.823359,14.085066 c -0.03787,0.0194 -0.07667,0.0388 -0.115458,0.05822 -1.616405,0.808514 -1.38549,1.732532 -1.731863,2.541047 -0.346372,0.808514 -0.46183,2.77205 -2.30915,3.234058 -1.84732,0.46201 -3.232811,0.46201 -1.500948,1.386026 1.731863,0.924017 3.579183,3.927072 2.886439,5.197596 -0.692746,1.270523 -1.385491,1.270523 -1.616406,1.963535 -0.230916,0.693013 0.115458,1.963537 -1.38549,1.501527 -1.500948,-0.462008 -1.962778,-0.462008 -2.424609,0.924018 -0.46183,1.386025 -1.270033,2.656548 0,3.349561 1.270033,0.693012 3.694641,1.61703 3.694641,2.772051 0,1.155021 0.115458,1.501527 1.154575,2.079038 1.039118,0.57751 1.385491,1.963536 1.500948,2.656549 0.115458,0.693012 0.230915,3.118557 -1.039118,4.042574 -1.270032,0.924017 -2.713713,1.097732 -3.520992,2.021748 -0.807279,0.924017 -0.618853,0.464781 -1.674596,2.020826" />
		<path id="path9" d="m 49.823359,7.0181846 c -0.19674,0.4592364 -0.342678,0.985002 -0.46183,1.5800689 -0.346373,1.7325325 -0.472914,3.8291265 -1.270033,3.6960675 -0.692745,-0.115502 -1.154576,-0.462008 -1.500948,0.808515 -0.346373,1.270523 -1.154575,4.158076 -2.77098,4.504582 -1.616406,0.346507 -2.886439,-0.346506 -3.694642,0.346507 -0.808202,0.693012 -2.078235,1.732531 -1.154574,2.772051 0.923659,1.039519 1.154574,0.924017 1.154574,1.732531 0,0.808515 0,0.924017 1.270033,0.924017 1.270033,0 2.886439,0.231004 3.117354,1.270524 0.230914,1.039519 0.115457,2.19454 -1.154576,2.541046 -1.270032,0.346506 -2.77098,0.115502 -3.579183,1.039519 -0.808202,0.924017 -1.154576,1.61703 -1.385491,2.887553 -0.230915,1.270523 -0.692745,2.079038 -1.616405,1.963536 -0.92366,-0.115502 -0.808202,0.231004 -1.500948,0.808514 -0.692745,0.577512 -0.808202,0.924018 0,1.155022 0.808203,0.231004 1.270033,0.115502 1.270033,0.808515 0,0.693012 -0.346372,0.462008 1.039118,0.57751 1.385491,0.115502 2.30915,-0.808514 3.925556,1.155021 1.616405,1.963537 2.193692,1.270523 2.770981,3.465064 0.577287,2.19454 1.154575,2.656548 0,3.696068 -1.154576,1.039519 -3.579184,2.310042 -4.271929,2.77205 -0.692745,0.462008 -0.46183,-0.115502 -0.46183,1.155021 0,0.577511 -0.298342,0.905537 -0.646563,1.155022" />
		<path id="path11" d="m 49.823359,12.684257 c -0.170878,0.277204 -0.39348,0.468476 -0.692745,0.535005 -1.039118,0.231004 -1.731863,1.155021 -2.078235,2.079038 -0.346374,0.924017 -1.385491,3.234059 -2.424609,3.465063 -1.039118,0.231005 -3.232811,0.462009 -3.694641,0.924017 -0.46183,0.462009 -0.230915,0.808516 0.115458,1.386026 0.346372,0.577511 0,1.155021 1.154575,1.270523 1.154575,0.115502 3.925556,0.693013 3.694641,2.541046 -0.230915,1.848035 -1.616405,4.158077 -3.232811,3.81157 -1.616405,-0.346506 -2.309151,0.346507 -2.424608,1.501529 -0.115458,1.15502 -0.230915,2.194539 -1.039118,3.003054 -0.808203,0.808515 -2.770981,1.501527 -0.692745,1.732532 2.078236,0.231004 2.309151,0.231004 3.463725,1.155021 1.154576,0.924017 1.500948,0.346506 1.847322,1.501527 0.346372,1.155021 -0.115459,0.577511 1.039117,1.61703 1.154575,1.039519 2.193694,1.386026 1.962778,3.118557 -0.230915,1.732531 0,2.656549 -1.270032,3.23406 -1.270033,0.57751 -2.309152,1.039518 -3.001896,1.617029 -0.692746,0.57751 -1.616406,0.462008 -1.270033,1.617029 0.154251,0.514678 -0.195816,0.766011 -0.653028,1.03952" />
		<path id="path13" d="M 41.741332,0.16752317 C 40.661573,1.7586803 40.825985,2.2835219 39.894011,4.6138925 c 0,0 -1.039117,0.866728 -0.635478,2.8875529 0.40364,2.0208251 0.980927,3.0030556 -0.404563,3.6960676 -1.385491,0.693013 -1.962778,1.270523 -2.828248,1.443315 -0.86547,0.172791 -1.612711,0.267041 -1.612711,0.267041 -0.06003,0.0074 -0.119152,0.01478 -0.177342,0.02125 -0.92366,0.115502 -0.808203,0.57751 -0.808203,1.443315 0,0.865803 -0.46183,0.981305 -1.673672,1.443314 -1.211842,0.462008 -2.020969,0.462008 -2.770981,0.288293 -0.750012,-0.173715 -0.808203,0.346506 -1.039118,0.924017 -0.230915,0.57751 -0.519096,0.981305 -1.90551,1.386025 -1.385491,0.40472 0.808202,1.790745 1.790053,2.136327 0.980927,0.346507 1.731862,1.039519 2.078236,1.906247 0.346372,0.866728 0.519096,0.635724 1.385489,0.635724 0.866393,0 1.097309,0.346506 1.211842,0.750302 0.114534,0.403795 0.346374,0.693013 1.154576,0.981306 0.808203,0.288293 0.980927,0.635723 0.808203,1.155021 -0.172725,0.519297 -0.288182,0.519297 -0.692746,0.750301 -0.404563,0.231004 -0.980927,0.519298 -1.328223,1.155022 -0.347296,0.635724 -0.346372,0.519298 -1.154575,0.924017 -0.808202,0.404719 -1.270033,1.097732 -1.731863,2.367331 -0.46183,1.2696 -2.078235,1.61703 -3.463726,1.790745 -1.38549,0.173715 -1.154575,0.288293 -1.500948,0.924017 -0.346372,0.635723 -0.404563,0.519297 -1.154575,0.924017 -0.750012,0.404719 -0.750012,0.288293 -0.346373,1.039518 0.40364,0.751226 1.097308,0.750302 2.886439,0.924017 1.789129,0.173715 1.270033,0.577511 1.905511,1.328737 0.635478,0.751226 0.692745,0.635724 1.731863,0.981306 1.039117,0.345582 1.790053,2.310042 2.77098,3.869783 0.980927,1.55974 -0.114533,2.371027 -1.441834,4.045346 -1.327299,1.674318 -1.500948,2.198236 -1.500948,2.198236 -0.152403,0.21622 -0.28541,0.424124 -0.400867,0.632028" />
		<path id="path15" d="M 38.901076,0.16752317 C 38.48543,0.46690465 37.998661,0.65632812 37.873042,1.034251 c 0,0 0.230915,0.5775106 0.115458,1.6170296 -0.115458,1.039519 -0.288182,1.2705233 -0.750011,2.1945403 -0.461831,0.9240169 -0.635479,1.2705232 -0.230916,2.5410465 0.404563,1.2705233 0.288182,2.2527532 -1.328223,2.7147616 -1.616406,0.462008 -4.041013,0.750302 -4.444653,1.674319 -0.40364,0.924017 -0.692745,2.079038 -1.847321,2.136327 -1.154575,0.05729 -2.713713,-0.346507 -3.406459,0.693012 -0.692744,1.03952 -0.980927,1.443315 -1.558214,1.501528 -0.577288,0.05822 -1.790054,0.173716 -1.962778,0.866728 0,0 0,0.924017 0.866393,1.848034 0.866393,0.924016 0.866393,0.808514 0.866393,1.386025 0,0.577511 -0.288182,0.924017 0.92366,1.386026 1.211843,0.462008 2.309151,0.404719 2.655524,1.617029 0.346372,1.21231 0.346372,1.097732 1.442757,1.386025 1.096384,0.288293 1.673672,1.155022 0.980927,1.963537 -0.692745,0.808514 -2.713714,1.328736 -2.713714,2.194539 0,0.865804 -0.577287,1.905324 -2.020969,2.136328 -1.44368,0.231004 -3.117353,0.288293 -3.059162,0.866728 0.0582,0.578434 -0.404563,1.270523 -1.211842,1.732531 0,0 -0.173648,0.05729 -0.808203,0.231004 -0.634554,0.173716 -1.097308,0.462009 -1.097308,0.462009 -0.808203,0.231004 -0.692745,0.866727 -0.173649,1.386026 0.519098,0.519297 0.577289,0.635723 0.923661,1.21231 0.346372,0.576586 0.346372,0.693012 2.482799,1.21231 2.136426,0.519297 2.713713,2.714762 2.944628,3.927072 0.230916,1.21231 1.270033,1.444238 2.713714,1.963535 1.442757,0.519299 0.46183,2.425545 -0.404563,3.349562 -0.866393,0.924017 -1.328224,1.736228 -1.328224,1.736228 -0.27525,0.293837 -0.457212,0.576586 -0.5856,0.863032" />
		<path id="path17" d="M 40.627398,0.16752317 C 40.06027,0.5075614 39.329655,0.88178825 39.20219,1.8418419 c 0,0 0.230915,0.9240169 -0.230915,1.6743186 -0.46183,0.7503017 -1.328224,1.8480339 -0.808203,3.4650634 0.520021,1.6170296 0.404563,2.9457659 -0.750012,3.5223531 -1.154575,0.576586 -2.366417,1.097732 -3.23281,1.21231 -0.866394,0.114578 -1.559139,0.05729 -1.731863,0.750301 -0.172725,0.693013 -0.980927,1.55974 -1.790054,1.963537 -0.809127,0.403795 -0.750012,0.346506 -1.84732,0.57751 0,0 -1.154576,-0.05729 -1.673673,0.866728 -0.520021,0.924017 -0.404564,0.866728 -1.500948,1.21231 -1.096385,0.345582 -1.904587,0.404719 -1.270032,1.386025 0.634554,0.981307 0.692744,1.212311 0.808202,1.674319 0.115457,0.462009 0.230915,0.693013 1.270033,1.039519 1.039117,0.346506 1.731863,0.173715 2.30915,1.270523 0.577288,1.097732 0.519097,1.212311 1.270033,1.443315 0.750936,0.231004 2.020969,0.577511 1.904588,1.443314 -0.116382,0.865804 0.346372,1.617029 -1.039118,2.367332 -1.385491,0.750302 -2.193693,1.328736 -2.424609,2.079038 -0.230915,0.750301 -0.46183,1.905322 -1.84732,2.136326 -1.38549,0.231004 -2.77098,0 -3.175543,0.750303 -0.404564,0.750301 -0.173649,0.924017 -1.039119,1.270523 -0.865469,0.346506 -1.270033,0.57751 -1.270033,0.57751 -1.211842,0.173715 -0.808202,0.577511 -0.461829,1.501527 0.346372,0.924018 1.211842,0.924018 2.540066,1.097733 1.328223,0.173715 3.175543,1.848034 3.69464,2.541046 0.520021,0.693013 0.981851,2.021749 2.829171,3.349562 1.847321,1.327812 0.173649,3.234059 -0.635478,4.099863 -0.809126,0.865804 -1.500948,2.082734 -1.500948,2.082734 -0.138549,0.207903 -0.245694,0.41858 -0.331593,0.631103" />
		<path id="path19" d="M 0.17662169,4.089975 C 0.69571873,3.7998337 1.3127237,3.600246 1.9084846,3.4015823 3.293975,2.9395739 3.52489,2.9395739 4.5640078,1.6690507 c 1.0391177,-1.27052329 1.5009479,0 5.0801312,-1.38602541 0,0 0.1209995,0.0240244 0.362075,-0.11550212" />
		<path id="path21" d="M 0.17662169,14.085066 C 1.6831115,13.322753 1.804111,13.078812 2.2548572,12.064241 c 0,0 0.1154575,-0.462008 0.3463726,-2.4255444 C 2.8321448,7.6751606 3.1785174,6.4046374 4.4485502,6.2891352 5.7185831,6.1736331 7.450446,5.7116247 7.3349884,4.7876077 7.2195309,3.8635908 6.6422432,3.7480887 8.6050212,3.8635908 10.567799,3.979093 11.491459,3.1705782 12.992407,2.1310591 13.783984,1.5821931 14.544157,0.90488867 15.20365,0.16752317" />
		<path id="path23" d="M 0.17662169,7.0181846 C 0.5525514,6.1412925 1.1141368,5.5129611 2.0239421,5.1331901 3.4094325,4.5556795 3.8712625,4.2091732 4.4485502,3.5161605 5.0258378,2.8231478 5.3722104,2.5921436 6.7577008,2.1301351 8.1431911,1.6681267 9.7595965,1.5526246 11.02963,0.97511396 11.376925,0.81710707 11.741771,0.52973781 12.111235,0.16659916" />
		<path id="path25" d="M 0.17662169,12.684257 C 0.59873441,11.99956 0.70495533,10.790022 0.86936686,9.6386966 1.1002819,8.021667 1.331197,7.9061649 1.9084846,7.0976501 2.4857723,6.2891352 4.2176351,5.4806205 5.3722104,4.9031098 6.5267857,4.3255993 6.0649557,3.8635908 6.5267857,3.2860803 6.9886158,2.7085697 8.8359362,2.7085697 10.221426,2.5930676 11.316888,2.5015896 12.843698,1.2560151 13.835709,0.16752317" />
		<path id="path27" d="m 10.006214,49.833433 c 0.287258,-0.165399 0.743546,-0.560879 1.369788,-1.501528 1.154576,-1.732532 1.962778,-2.656548 2.424608,-3.234059 0,0 1.731863,-3.234059 -1.154575,-3.003055 C 9.7595965,42.325795 7.450446,40.93977 6.7577008,40.131255 6.0649557,39.32274 5.0258378,39.32274 4.7949228,38.052217 4.5640078,36.781694 4.5640078,36.781694 3.7558051,36.319685 2.9476024,35.857677 -0.97795359,33.432132 3.8712625,31.468597 8.7204788,29.50506 7.681361,29.158554 7.9122761,28.350039 c 0.230915,-0.808515 0.5772876,-1.501527 2.4246079,-1.617029 1.84732,-0.115502 3.117353,-0.346506 2.193694,-1.61703 -0.923661,-1.270523 -0.808204,-1.963536 -0.808204,-1.963536 0,0 -0.346372,-0.924017 -2.1936925,-1.386025 C 7.681361,21.30441 6.1804131,20.495896 6.4113282,19.340874 6.6422432,18.185853 6.5267857,18.070351 5.487668,17.261836 4.4485502,16.453322 3.7558051,14.720789 4.2176351,13.565768 4.6794653,12.410747 7.681361,10.562714 9.4132239,9.985203 11.145087,9.4076924 11.606917,9.5231945 11.722374,8.7146796 11.837832,7.9061649 14.377898,7.3286543 15.994303,6.982148 c 1.616406,-0.3465064 3.579184,-0.3465064 3.579184,-1.3860254 0,-1.039519 1.154575,-1.8480339 2.770981,-2.4255444 1.616405,-0.5775106 2.30915,-0.5775106 2.30915,-1.6170296 0,-0.4694006 -0.0231,-0.93787722 0.04618,-1.38602543" />
		<path id="path29" d="m 29.041928,0.16752317 c -0.41103,0.73828952 -0.616082,1.48674323 -0.750936,2.65654863 -0.173649,1.5015275 -2.020969,2.3673314 -3.232811,2.945766 -1.211842,0.5784346 -1.559139,0.6930126 -1.500948,1.7907448 0.05819,1.0977321 -2.482798,1.9053228 -5.022865,2.1945401 -2.540065,0.2892173 -2.597332,0.9240163 -2.828247,1.7907453 -0.230915,0.866728 -2.655523,1.270523 -5.022865,2.021749 -2.3673404,0.751225 -1.0973076,1.848033 -0.288181,2.252752 0.809126,0.40472 0.519097,0.981307 0.577287,2.02175 0.0582,1.040443 2.078236,1.328736 4.906484,1.790745 2.828247,0.462008 1.270032,2.599259 0.750011,3.580565 -0.52002,0.981306 0.288183,1.61703 0.923661,2.656549 0.635478,1.039518 -1.154576,3.118557 -2.944629,3.580565 -1.790053,0.462009 -2.482799,0.577511 -2.944629,1.674319 -0.46183,1.096808 -1.154575,1.328737 -2.3664172,1.790745 -1.2118422,0.462008 -1.5591385,0.577511 -0.9236603,1.155021 0.6354782,0.57751 0.4045632,0.519297 0.4045632,1.328736 0,0.809439 -0.288182,1.097732 0.9236603,1.386025 1.211842,0.288294 2.078236,0.46201 2.597332,1.328737 0.519098,0.866728 0.980927,1.21231 3.520994,1.270523 2.540065,0.05821 1.904586,1.732532 2.078235,3.349562 0.173648,1.617029 0.635478,1.732531 0.115457,2.713837 -0.520021,0.981306 -1.328223,2.310043 -1.328223,2.310043 -0.382396,0.709645 -0.892256,1.418366 -1.483399,2.079038" />
		<path id="path31" d="m 12.111235,49.833433 c 0.982774,-0.96375 2.004343,-2.457885 2.84395,-3.465064 0,0 0.923661,-0.866727 0.923661,-2.310043 0,-1.443314 0.05726,-2.541046 -1.904588,-2.829339 C 12.012404,40.940694 10.395075,40.073965 9.4714145,39.554668 8.5477543,39.035371 7.7395516,38.399647 7.0468065,38.111354 6.3540613,37.823061 6.0658793,37.823061 6.0076886,36.725329 5.9494977,35.627597 5.3722104,35.454805 4.680389,35.282014 3.9885675,35.109223 1.9094083,33.664985 4.0449108,32.625466 6.1804131,31.585947 8.3168392,30.372712 8.4895637,30.084419 8.6622881,29.796126 8.0277336,28.582891 10.510532,28.120883 12.993331,27.658875 15.64793,26.792147 14.493355,25.348832 13.33878,23.905518 13.33878,23.674514 13.685152,22.923288 14.031525,22.172062 12.242395,21.306258 10.105969,20.497743 7.969543,19.689228 7.7395516,19.342722 7.9704666,18.418705 8.2013817,17.494689 7.9131997,16.917178 6.6422432,16.282378 5.3712868,15.647578 4.1603682,13.510328 7.2777215,12.181592 10.395075,10.852854 12.069671,10.333557 12.41512,9.5832556 12.760568,8.8329538 14.146983,8.1972302 15.821578,7.9089369 17.496175,7.6206436 20.786252,6.927631 20.786252,6.0036141 c 0,-0.924017 0.288183,-1.4433145 1.559139,-1.6170296 1.270956,-0.1737152 2.828247,-0.6930128 3.059162,-1.9635361 0.161641,-0.8889042 0.154252,-1.58099287 0.451671,-2.25275318" />
		<path id="path33" d="m 13.835709,49.833433 c 0.263243,-0.288294 0.487693,-0.566423 0.657646,-0.808516 0,0 0.92366,-1.443314 1.616406,-2.541046 0.692745,-1.097732 1.38549,-1.674319 0.923659,-3.291348 -0.461829,-1.617029 -0.05727,-2.598335 -1.731862,-2.82934 -1.674596,-0.231005 -2.944629,0.40472 -3.579184,-0.693013 C 11.08782,38.572438 9.8177872,37.995852 8.7777457,37.706635 7.7377043,37.417417 7.1040734,37.591132 7.1613403,36.551614 7.2186068,35.512095 7.9113525,35.108299 6.5258621,34.703579 5.1403718,34.29886 4.6785416,33.433056 6.0640319,32.740044 c 1.3854904,-0.693013 2.4827988,-1.559741 3.1173533,-1.61703 0.6345546,-0.05729 0.8663938,-0.288294 1.2118418,-0.924017 0.345449,-0.635724 0.692746,-1.155021 1.904588,-1.328736 1.211842,-0.173716 2.713713,-0.924017 3.290077,-1.559741 0.576364,-0.635723 0.866394,-1.328736 0.115458,-2.252753 -0.750936,-0.924017 -1.270032,-1.21231 -0.808203,-1.790745 0.46183,-0.578435 1.500948,-2.483757 -0.980927,-2.887552 C 11.432345,19.975673 9.2386521,19.281737 9.5268341,18.184929 9.8150162,17.088121 9.7004822,16.972619 8.6604409,16.336895 7.6203994,15.701172 6.0049177,14.200568 8.0249627,13.449342 c 2.0200453,-0.751225 3.5209933,-1.501527 4.0410133,-1.55974 0.520021,-0.05822 1.559138,-0.693013 1.904587,-1.386025 0.345449,-0.6930133 -0.05727,-1.3860259 2.366418,-1.6170302 2.423684,-0.2310042 5.715609,-0.8085147 5.946524,-1.963536 0.230915,-1.1550211 0.05727,-1.6170295 1.790054,-2.079038 1.732786,-0.4620085 2.135503,-0.6930127 2.540065,-1.7325317 0.334366,-0.8602598 0.23461,-1.9182591 0.64841,-2.94576596" />
		<path id="path35" d="m 37.148893,0.16752317 c -0.08036,0.0766934 -0.166259,0.15338681 -0.256778,0.23100424 -0.808202,0.69301269 -0.115457,0.46200845 -0.230915,2.07903809 -0.115457,1.6170296 -0.230915,1.8480338 -0.808202,2.6565486 0,0 -1.962778,1.2705233 -0.980927,2.2527533 0.981851,0.9822299 1.270033,1.3860254 -0.115457,1.9053228 -1.385491,0.5192975 -4.964674,1.2705238 -5.25378,1.6743188 -0.289106,0.403796 -0.346372,0.231004 -0.173648,0.866728 0.172725,0.635724 -0.230915,1.097732 -1.328223,1.155021 -1.097309,0.05729 -2.540067,0.231004 -3.117354,1.039519 -0.577288,0.808514 -1.154575,1.270523 -2.309151,1.328736 -1.154575,0.05822 -2.540065,0.231004 -2.135502,1.097733 0.404564,0.866728 1.962778,1.501527 1.731863,2.252753 -0.230915,0.751225 0.288182,1.039518 0.866393,1.963535 0.578212,0.924018 0.866393,2.483758 2.078236,2.656549 1.211842,0.172791 1.500948,-0.404719 1.790053,0.808515 0.289106,1.21231 0.520021,1.328736 1.328223,1.386025 0.808204,0.05729 1.039118,0.462009 0,0.866729 -1.039117,0.404719 -1.790052,0.231004 -1.84732,1.386025 -0.05726,1.155021 -0.346372,1.905322 -1.559138,2.136326 -1.212766,0.231005 -3.520993,0.05729 -3.520993,0.866728 0,0.809439 -0.288182,1.674319 -1.559138,2.02175 l -2.944629,1.155021 c -1.270033,0.404719 -0.346373,1.270523 0.635478,1.501527 0.98185,0.231004 0.750012,0.866728 1.442757,2.310043 0.692746,1.443314 2.366417,1.501527 3.579184,1.501527 1.212766,0 1.904587,2.483758 2.135502,3.638779 0.230915,1.155021 1.673673,1.096808 2.540066,2.251829 0.866393,1.155022 -1.559139,3.180466 -1.559139,3.180466 -0.568974,0.442604 -0.791577,0.95451 -0.876553,1.497831" />
		<line id="line37" y2="0.3177146" x2="0.31620464" y1="1.3572336" x1="2.1635251" />
		<line id="line39" y2="7.7906642" x2="6.5849767" y1="9.9103575" x1="6.6468611" />
		<line id="line41" y2="5.6534133" x2="9.0668526" y1="7.6169491" x1="9.9332447" />
		<line id="line43" y2="11.717736" x2="2.9476023" y1="11.659524" x1="5.0258384" />
		<line id="line45" y2="4.441103" x2="11.95329" y1="5.0574222" x1="13.723947" />
		<line id="line47" y2="2.3620648" x2="14.800935" y1="1.6690521" x1="16.802505" />
		<line id="line49" y2="3.902401" x2="16.109762" y1="5.6728172" x1="17.033422" />
		<line id="line51" y2="1.5923585" x2="19.881065" y1="2.3620648" x1="21.728386" />
		<line id="line53" y2="15.76031" x2="2.331521" y1="17.608343" x1="1.562112" />
		<line id="line55" y2="20.457088" x2="5.2567534" y1="19.148682" x1="3.563684" />
		<line id="line57" y2="22.613741" x2="1.9472785" y1="22.228426" x1="3.9479265" />
		<line id="line59" y2="22.30512" x2="7.3349891" y1="24.230772" x1="6.5655794" />
		<line id="line61" y2="36.358494" x2="2.2936511" y1="38.283222" x1="1.5233184" />
		<line id="line63" y2="24.615164" x2="8.9513941" y1="25.693489" x1="10.952966" />
		<line id="line65" y2="26.463196" x2="5.8728342" y1="28.46554" x1="6.7964945" />
		<line id="line67" y2="29.389559" x2="2.4091086" y1="29.08186" x1="4.9491744" />
		<line id="line69" y2="25.308174" x2="1.4854484" y1="27.15621" x1="3.2551813" />
		<line id="line71" y2="34.856968" x2="12.491784" y1="35.395668" x1="10.491136" />
		<line id="line73" y2="36.08868" x2="14.724271" y1="38.091026" x1="14.416691" />
		<line id="line75" y2="38.167717" x2="16.648256" y1="39.091736" x1="18.726492" />
		<line id="line77" y2="33.624329" x2="14.570019" y1="31.314285" x1="13.800611" />
		<line id="line79" y2="30.467884" x2="16.648256" y1="31.237591" x1="19.034992" />
		<line id="line81" y2="28.388847" x2="19.342571" y1="26.078806" x1="19.342571" />
		<line id="line83" y2="27.618219" x2="21.805973" y1="28.46554" x1="24.115124" />
		<line id="line85" y2="26.694201" x2="25.192112" y1="24.384159" x1="25.269699" />
		<line id="line87" y2="25.077169" x2="21.113228" y1="23.768763" x1="22.960548" />
		<line id="line89" y2="21.766418" x2="19.804401" y1="23.07575" x1="21.497471" />
		<line id="line91" y2="17.377338" x2="19.419235" y1="19.225374" x1="18.342247" />
		<line id="line93" y2="18.224663" x2="14.416691" y1="17.146336" x1="13.031201" />
		<line id="line95" y2="13.450268" x2="13.954862" y1="15.298302" x1="13.107865" />
		<line id="line97" y2="16.453323" x2="15.878846" y1="15.837004" x1="17.726166" />
		<line id="line99" y2="12.988259" x2="18.418911" y1="11.294536" x1="17.264336" />
		<line id="line101" y2="47.406963" x2="47.452324" y1="49.101612" x1="48.606899" />
		<line id="line103" y2="12.988259" x2="23.960873" y1="13.757966" x1="22.190216" />
		<line id="line105" y2="9.9085102" x2="21.728386" y1="11.756545" x1="21.189892" />
		<line id="line107" y2="9.5231962" x2="24.884535" y1="10.909222" x1="26.270023" />
		<line id="line109" y2="6.7511449" x2="28.655836" y1="7.4441576" x1="26.115772" />
		<line id="line111" y2="8.8260622" x2="31.578463" y1="6.593637" x1="31.809378" />
		<line id="line113" y2="4.3295379" x2="32.832989" y1="3.1745167" x1="34.988808" />
		<line id="line115" y2="1.9000564" x2="30.041327" y1="4.1334052" x1="30.349829" />
		<line id="line119" y2="1.4380478" x2="47.668457" y1="1.9000564" x1="45.128391" />
		<line id="line121" y2="3.0550776" x2="41.89558" y1="4.2867918" x1="43.58865" />
		<line id="line123" y2="8.444869" x2="45.281719" y1="6.6744514" x1="44.358059" />
		<line id="line125" y2="6.2891369" x2="47.283291" y1="4.1334052" x1="47.437542" />
		<line id="line127" y2="8.6758718" x2="41.433754" y1="10.909222" x1="41.048584" />
		<line id="line129" y2="11.140225" x2="44.588974" y1="12.064242" x1="42.819241" />
		<line id="line131" y2="13.373574" x2="41.972244" y1="15.374995" x1="42.895905" />
		<line id="line133" y2="13.295958" x2="40.279175" y1="12.988259" x1="38.277607" />
		<line id="line135" y2="14.990603" x2="37.815773" y1="16.838636" x1="38.893688" />
		<line id="line137" y2="14.14328" x2="35.583286" y1="16.607634" x1="34.659626" />
		<line id="line139" y2="17.531651" x2="30.426493" y1="18.763365" x1="28.579172" />
		<line id="line141" y2="18.99437" x2="33.120811" y1="19.225374" x1="35.352371" />
		<line id="line143" y2="20.149389" x2="31.350153" y1="22.074118" x1="31.195902" />
		<line id="line145" y2="21.843113" x2="35.968452" y1="23.460142" x1="34.352047" />
		<line id="line147" y2="23.691145" x2="36.661201" y1="25.385792" x1="37.815773" />
		<line id="line149" y2="25.693489" x2="39.432178" y1="25.539179" x1="41.587082" />
		<line id="line151" y2="27.002823" x2="36.276031" y1="28.773239" x1="34.737217" />
		<line id="line153" y2="31.54529" x2="33.274139" y1="29.697256" x1="32.11956" />
		<line id="line155" y2="32.931316" x2="31.811983" y1="33.316631" x1="29.195253" />
		<line id="line157" y2="37.08939" x2="28.964338" y1="35.010353" x1="28.348257" />
		<line id="line159" y2="34.086334" x2="26.577602" y1="35.472363" x1="25.038784" />
		<line id="line161" y2="38.244411" x2="30.580744" y1="37.936714" x1="33.197475" />
		<line id="line163" y2="42.787804" x2="36.661201" y1="40.863079" x1="36.199368" />
		<line id="line165" y2="39.399437" x2="39.663094" y1="39.246044" x1="37.277283" />
		<line id="line167" y2="33.47094" x2="43.126823" y1="30.929893" x1="42.972569" />
		<line id="line169" y2="32.576488" x2="48.007053" y1="33.577198" x1="45.852154" />
		<line id="line173" y2="36.627384" x2="47.359955" y1="38.553036" x1="48.592117" />
		<path id="path175" d="m 48.514533,26.001188 c 0,0 -0.07666,2.002345 -0.07666,2.310043" />
		<line id="line177" y2="22.459431" x2="47.283291" y1="23.383448" x1="48.97636" />
		<line id="line179" y2="18.532362" x2="49.053951" y1="20.380394" x1="47.514206" />
		<line id="line181" y2="40.246754" x2="33.890221" y1="43.095501" x1="33.197475" />
		<line id="line183" y2="42.787804" x2="40.894337" y1="42.094791" x1="38.970352" />
		<line id="line185" y2="45.40554" x2="36.892113" y1="45.252155" x1="39.432178" />
		<line id="line187" y2="46.945881" x2="35.275707" y1="48.948227" x1="36.353622" />
		<line id="line189" y2="48.486217" x2="31.350153" y1="47.176884" x1="33.428387" />
		<line id="line191" y2="40.708763" x2="22.036888" y1="41.478474" x1="19.65015" />
		<line id="line193" y2="45.021152" x2="21.189892" y1="43.326504" x1="19.419235" />
		<line id="line195" y2="46.62912" x2="23.082857" y1="46.62912" x1="25.622923" />
		<line id="line199" y2="48.656906" x2="17.670181" y1="47.501884" x1="20.441162" />
		<line id="line201" y2="39.93906" x2="5.4110045" y1="41.016464" x1="2.8709388" />
		<line id="line205" y2="43.946949" x2="2.6546504" y1="44.562344" x1="5.4256315" />
		<line id="line207" y2="44.619457" x2="10.34983" y1="43.310123" x1="12.273814" />
		<line id="line209" y2="46.108803" x2="8.1014338" y1="48.649849" x1="8.2547617" />
		<line id="line211" y2="48.890015" x2="2.0407333" y1="47.580681" x1="4.6583862" />
		 <path d="M 50.01,45.172156 49.398216,44.412148" id="line203" />
		<path id="path1026" d="M 1.0822088,46.491184 0,45.172156" />
		<path d="m 33.051795,50 0.666101,-0.230233" id="line117" />
		<path id="path1029" d="M 31.485405,0.53947306 33.051795,0" />
		<path id="path1032" d="M 48.891224,30.640676 50,31.093997" />
		<path d="m 0,31.093997 0.969456,0.394004" id="line171" />
		<path d="m 22.492773,49.999859 -0.28961,-1.200638" id="line197" />
		<path id="path1035" d="M 22.741655,1.031647 22.492773,0" />
	</g>
</svg>
