<?xml version="1.0" encoding="UTF-8" standalone="no"?>
<svg xmlns:dc="http://purl.org/dc/elements/1.1/" xmlns:cc="http://creativecommons.org/ns#" xmlns:rdf="http://www.w3.org/1999/02/22-rdf-syntax-ns#" xmlns:svg="http://www.w3.org/2000/svg" xmlns="http://www.w3.org/2000/svg" version="1.1" x="0px" y="0px" xml:space="preserve" width="50.00" height="50.00" viewBox="0 0 50.00 50.00">
	<metadata id="metadata2">
		<rdf:RDF>
			<ns:item rdf:ID="biblio1">
				<ns:link>rdf:resource=&quot;http://pubs.usgs.gov/tm/2006/11A02/</ns:link>
				<ns:title>U.S. Geological Survey, 2006, FGDC Digital Cartographic Standard for Geologic Map Symbolization (PostScript Implementation): U.S. Geological Survey Techniques and Methods 11-A2</ns:title>
			</ns:item>
			<ns:item rdf:ID="biblio2">
				<ns:link>https://davenquinn.com/projects/geologic-patterns/</ns:link>
				<ns:title>FGDC Geologic Patterns for the Web</ns:title>
			</ns:item>
			<rdf:Description>
				<dc:description>
					Converted from 'FGDC Geologic Patterns for the Web' to QGIS compatible svg symbols, with customisable fill colour/stroke colour/stroke width (when appropriate).
					SVG scaled to 50x50 pixels so that base outline-width is 0.387 px and width is 90 in the QGIS xml definition file. 
					Some of the original FGDC symbols have been omitted from this set because they can be generated from other symbols using the 'texture width' and/or 'stroke width' fields in QGIS symbology form.
				</dc:description>
				<dc:date>01 MARCH 2019</dc:date>
				<dc:creator>GeoProc.com</dc:creator>
				<dc:publisher rdf:resource="https://github.com/BC-Consulting/QGIS-FGDC-Fill" />
			</rdf:Description>
			<cc:Work rdf:about="">
				<dc:format>image/svg+xml</dc:format>
				<dc:type rdf:resource="http://purl.org/dc/dcmitype/StillImage" />
				<dc:title>FGDC fill symbol: Lithology - Metamorphism, Igneous and vein - 710 Soapstone , Talc , Or Serpentinite</dc:title>
			</cc:Work>
		</rdf:RDF>
	</metadata>
	<path style="fill:none;stroke:none;stroke-width:0;" id="rect1500" width="50.00" height="50.00" x="0.0" y="0.0" />
	<g style="fill:none;" stroke="param(outline) #000" stroke-width="param(outline-width) 0.387">
		<path d="M 1.9966604,4.7194664 C 2.4372334,4.2165394 2.4995976,3.9027129 2.0590246,3.0849535 1.6184517,2.2671941 1.9966604,1.9533676 2.5619618,1.7019041" id="path5" />
		<path d="M 1.1165204,3.7136123 C 0.55121905,2.0157306 1.1788846,1.1989771 1.9966604,0.57031826" id="path7" />
		<path d="M 2.4362275,6.2916164 C 3.3797376,5.3481252 3.2529974,3.336417 2.8768004,2.771127" id="path9" />
		<path d="M 7.5289691,6.7945434 C 6.9636677,7.046007 6.5864649,7.3598334 7.0260319,8.1775928 7.4666049,8.9943463 7.4032348,9.3091787 6.9636677,9.8121057" id="path11" />
		<path d="M 6.0825218,8.8062516 C 5.5172205,7.1083699 6.144886,6.2916164 6.9626618,5.6629576" id="path13" />
		<path d="M 7.4032348,11.38325 C 8.3467449,10.439759 8.2200047,8.4280505 7.8438077,7.8627605" id="path15" />
		<path d="m 1.9966604,14.715644 c 0.440573,-0.502927 0.5029372,-0.816753 0.062364,-1.634512 -0.4405729,-0.81776 -0.062364,-1.131586 0.5029372,-1.38305" id="path17" />
		<path d="m 1.9966604,10.566496 c -0.8167699,0.628659 -1.44644722,1.446418 -0.88014,3.143294" id="path19" />
		<path d="m 2.4362275,16.286789 c 0.9435101,-0.943492 0.8167699,-2.9552 0.4405729,-3.52049" id="path21" />
		<path d="m 7.0260319,19.681546 c 0.440573,-0.502927 0.5029372,-0.816753 0.062364,-1.634513 -0.439567,-0.816753 -0.062364,-1.131586 0.5029372,-1.383049" id="path23" />
		<path d="m 7.0260319,15.532398 c -0.8167699,0.628659 -1.4454413,1.446418 -0.88014,3.143294" id="path25" />
		<path d="M 7.465599,21.253696 C 8.4091091,20.310205 8.2823689,18.298497 7.9061719,17.733207" id="path27" />
		<path d="m 2.5619618,21.693254 c -0.5653014,0.251464 -0.9435101,0.56529 -0.5029372,1.38305 0.440573,0.817759 0.3772029,1.131586 -0.062364,1.634513" id="path29" />
		<path d="m 1.9966604,20.561668 c -0.8167699,0.628659 -1.44644722,1.446419 -0.88014,3.143295" id="path31" />
		<path d="m 2.4362275,26.282967 c 0.9435101,-0.943492 0.8167699,-2.9552 0.4405729,-3.52049" id="path33" />
		<path d="M 6.9626618,29.740087 C 7.4022289,29.23716 7.465599,28.923334 7.025026,28.105574 6.585459,27.288821 6.9626618,26.973988 7.5279632,26.722525" id="path35" />
		<path d="m 6.9626618,25.590939 c -0.8167699,0.628659 -1.4464472,1.446418 -0.88014,3.143294" id="path37" />
		<path d="M 7.4032348,31.312237 C 8.3467449,30.368746 8.2200047,28.357038 7.8438077,27.791748" id="path39" />
		<path d="m 2.5619618,31.689432 c -0.5653014,0.251464 -0.9435101,0.56529 -0.5029372,1.38305 0.440573,0.817759 0.3772029,1.131586 -0.062364,1.634513" id="path41" />
		<path d="m 1.9966604,30.557847 c -0.8167699,0.628658 -1.44644722,1.446418 -0.88014,3.143294" id="path43" />
		<path d="m 2.4362275,36.278139 c 0.9435101,-0.942485 0.8167699,-2.954194 0.4405729,-3.52049" id="path45" />
		<path d="M 6.9626618,39.672896 C 7.4022289,39.169969 7.465599,38.856143 7.025026,38.038383 6.585459,37.22163 6.9626618,36.906798 7.5279632,36.655334" id="path47" />
		<path d="m 6.9626618,35.523748 c -0.8167699,0.628659 -1.4464472,1.446418 -0.88014,3.143294" id="path49" />
		<path d="M 7.4032348,41.245046 C 8.3467449,40.301555 8.2200047,38.289847 7.8438077,37.724557" id="path51" />
		<path d="m 2.5619618,41.747973 c -0.5653014,0.251464 -0.9435101,0.56529 -0.5029372,1.38305 0.440573,0.817759 0.3772029,1.131586 -0.062364,1.634513" id="path53" />
		<path d="M 1.9966604,40.616388 C 1.1788846,41.245046 0.55021318,42.0618 1.1165204,43.759682" id="path55" />
		<path d="m 2.8768004,42.81619 c 0.3772029,0.56529 0.5029372,2.576999 -0.4405729,3.52049" id="path57" />
		<path d="m 7.5289691,46.651512 c -0.5653014,0.251464 -0.9425042,0.56529 -0.5029372,1.38305 0.440573,0.816753 0.3772029,1.131585 -0.062364,1.634512" id="path59" />
		<path d="m 6.9626618,45.519926 c -0.8167699,0.628659 -1.4454413,1.445413 -0.88014,3.143294" id="path61" />
		<path d="M 7.8428019,47.719729 C 8.0912528,48.091895 8.2300635,49.091714 8.0278827,50" id="path63" />
		<path d="M 11.992033,4.7194664 C 12.432606,4.2165394 12.49497,3.9027129 12.054398,3.0849535 11.613825,2.2671941 11.992033,1.9533676 12.557335,1.7019041" id="path65" />
		<path d="m 11.111893,3.7136123 c -0.565301,-1.6978817 0.06236,-2.5146352 0.88014,-3.14329404" id="path67" />
		<path d="M 12.432606,6.2916164 C 13.376116,5.3481252 13.249376,3.336417 12.873179,2.771127" id="path69" />
		<path d="m 17.524342,6.7945434 c -0.565301,0.2514636 -0.94351,0.56529 -0.502937,1.3830494 0.440573,0.8177594 0.377203,1.1315859 -0.06236,1.6345129" id="path71" />
		<path d="m 16.078901,8.8062516 c -0.565302,-1.6978817 0.06236,-2.5146352 0.88014,-3.143294" id="path73" />
		<path d="m 17.398608,11.38325 c 0.94351,-0.943491 0.81677,-2.9551995 0.440573,-3.5204895" id="path75" />
		<path d="m 11.992033,14.715644 c 0.440573,-0.502927 0.502937,-0.816753 0.06237,-1.634512 -0.440573,-0.81776 -0.06237,-1.131586 0.502937,-1.38305" id="path77" />
		<path d="m 11.992033,10.566496 c -0.81677,0.628659 -1.446447,1.446418 -0.88014,3.143294" id="path79" />
		<path d="m 12.432606,16.286789 c 0.94351,-0.943492 0.81677,-2.9552 0.440573,-3.52049" id="path81" />
		<path d="m 17.021405,19.681546 c 0.440573,-0.502927 0.502937,-0.816753 0.06236,-1.634513 -0.440573,-0.817759 -0.06236,-1.131586 0.502937,-1.383049" id="path83" />
		<path d="m 17.021405,15.532398 c -0.81677,0.628659 -1.446447,1.446418 -0.88014,3.143294" id="path85" />
		<path d="m 17.461978,21.253696 c 0.94351,-0.943491 0.81677,-2.955199 0.440573,-3.520489" id="path87" />
		<path d="m 12.558341,21.693254 c -0.565302,0.251464 -0.943511,0.56529 -0.502938,1.38305 0.440573,0.817759 0.377203,1.131586 -0.06236,1.634513" id="path89" />
		<path d="m 11.992033,20.561668 c -0.81677,0.628659 -1.446447,1.446419 -0.88014,3.143295" id="path91" />
		<path d="m 12.432606,26.282967 c 0.94351,-0.943492 0.81677,-2.9552 0.440573,-3.52049" id="path93" />
		<path d="m 16.959041,29.740087 c 0.440573,-0.502927 0.502937,-0.816753 0.06236,-1.634513 -0.440573,-0.817759 -0.06236,-1.131586 0.502937,-1.383049" id="path95" />
		<path d="m 16.959041,25.590939 c -0.81677,0.628659 -1.446448,1.446418 -0.88014,3.143294" id="path97" />
		<path d="m 17.398608,31.312237 c 0.94351,-0.943491 0.81677,-2.955199 0.440573,-3.520489" id="path99" />
		<path d="m 12.558341,31.689432 c -0.565302,0.251464 -0.943511,0.56529 -0.502938,1.38305 0.440573,0.817759 0.377203,1.131586 -0.06236,1.634513" id="path101" />
		<path d="m 11.992033,30.557847 c -0.81677,0.628658 -1.446447,1.446418 -0.88014,3.143294" id="path103" />
		<path d="m 12.432606,36.278139 c 0.94351,-0.942485 0.81677,-2.954194 0.440573,-3.52049" id="path105" />
		<path d="m 16.959041,39.672896 c 0.440573,-0.502927 0.502937,-0.816753 0.06236,-1.634513 -0.440573,-0.817759 -0.06236,-1.131585 0.502937,-1.383049" id="path107" />
		<path d="m 16.959041,35.523748 c -0.81677,0.628659 -1.446448,1.446418 -0.88014,3.143294" id="path109" />
		<path d="m 17.398608,41.245046 c 0.94351,-0.943491 0.81677,-2.955199 0.440573,-3.520489" id="path111" />
		<path d="m 12.558341,41.747973 c -0.565302,0.251464 -0.943511,0.56529 -0.502938,1.38305 0.440573,0.817759 0.377203,1.131586 -0.06236,1.634513" id="path113" />
		<path d="m 11.992033,40.616388 c -0.81677,0.628658 -1.446447,1.446418 -0.88014,3.143294" id="path115" />
		<path d="m 12.872173,42.81619 c 0.377203,0.56529 0.502938,2.576999 -0.440573,3.52049" id="path117" />
		<path d="m 17.524342,46.651512 c -0.565301,0.251464 -0.94351,0.56529 -0.502937,1.38305 0.440573,0.817759 0.377203,1.131585 -0.06236,1.634512" id="path119" />
		<path d="m 16.959041,45.519926 c -0.81677,0.628659 -1.446448,1.446418 -0.88014,3.143294" id="path121" />
		<path d="M 17.775811,47.719729 C 18.024262,48.091895 18.163072,49.091714 17.960891,50" id="path123" />
		<path d="m 21.925042,4.7194664 c 0.440573,-0.502927 0.502937,-0.8167535 0.06236,-1.6345129 -0.440573,-0.8177594 -0.06236,-1.1315859 0.502937,-1.3830494" id="path125" />
		<path d="m 21.044902,3.7136123 c -0.565301,-1.6978817 0.06236,-2.5146352 0.88014,-3.14329404" id="path127" />
		<path d="M 22.365615,6.2916164 C 23.309125,5.3481252 23.182385,3.336417 22.806188,2.771127" id="path129" />
		<path d="m 27.457351,6.7945434 c -0.565302,0.2514636 -0.94351,0.56529 -0.502937,1.3830494 0.440572,0.8177594 0.377202,1.1315859 -0.06236,1.6345129" id="path131" />
		<path d="m 26.011909,8.8062516 c -0.565301,-1.6978817 0.06236,-2.5146352 0.88014,-3.143294" id="path133" />
		<path d="m 27.331616,11.38325 c 0.943511,-0.943491 0.81677,-2.9551995 0.440573,-3.5204895" id="path135" />
		<path d="m 21.925042,14.715644 c 0.440573,-0.502927 0.502937,-0.816753 0.06236,-1.634512 -0.440573,-0.81776 -0.06236,-1.131586 0.502937,-1.38305" id="path137" />
		<path d="m 21.925042,10.566496 c -0.81677,0.628659 -1.446447,1.446418 -0.88014,3.143294" id="path139" />
		<path d="m 22.365615,16.286789 c 0.94351,-0.943492 0.81677,-2.9552 0.440573,-3.52049" id="path141" />
		<path d="m 26.954414,19.681546 c 0.440572,-0.502927 0.502937,-0.816753 0.06236,-1.634513 -0.440573,-0.817759 -0.06236,-1.131586 0.502937,-1.383049" id="path143" />
		<path d="m 26.954414,15.532398 c -0.81677,0.628659 -1.446448,1.446418 -0.88014,3.143294" id="path145" />
		<path d="m 27.394986,21.253696 c 0.943511,-0.943491 0.81677,-2.955199 0.440573,-3.520489" id="path147" />
		<path d="m 22.491349,21.693254 c -0.565301,0.251464 -0.94351,0.56529 -0.502937,1.38305 0.440573,0.817759 0.377203,1.131586 -0.06236,1.634513" id="path149" />
		<path d="m 21.925042,20.561668 c -0.81677,0.628659 -1.446447,1.446419 -0.88014,3.143295" id="path151" />
		<path d="m 22.365615,26.282967 c 0.94351,-0.943492 0.81677,-2.9552 0.440573,-3.52049" id="path153" />
		<path d="m 26.892049,29.740087 c 0.440573,-0.502927 0.502937,-0.816753 0.06236,-1.634513 -0.440573,-0.817759 -0.06236,-1.131586 0.502937,-1.383049" id="path155" />
		<path d="m 26.892049,25.590939 c -0.81677,0.628659 -1.446447,1.446418 -0.88014,3.143294" id="path157" />
		<path d="m 27.331616,31.312237 c 0.943511,-0.943491 0.81677,-2.955199 0.440573,-3.520489" id="path159" />
		<path d="m 22.491349,31.689432 c -0.565301,0.251464 -0.94351,0.56529 -0.502937,1.38305 0.440573,0.817759 0.377203,1.131586 -0.06236,1.634513" id="path161" />
		<path d="m 21.925042,30.557847 c -0.81677,0.628658 -1.446447,1.446418 -0.88014,3.143294" id="path163" />
		<path d="m 22.365615,36.278139 c 0.94351,-0.942485 0.81677,-2.954194 0.440573,-3.52049" id="path165" />
		<path d="m 26.892049,39.672896 c 0.440573,-0.502927 0.502937,-0.816753 0.06236,-1.634513 -0.440573,-0.817759 -0.06236,-1.131585 0.502937,-1.383049" id="path167" />
		<path d="m 26.892049,35.523748 c -0.81677,0.628659 -1.446447,1.446418 -0.88014,3.143294" id="path169" />
		<path d="m 27.331616,41.245046 c 0.943511,-0.943491 0.81677,-2.955199 0.440573,-3.520489" id="path171" />
		<path d="m 22.491349,41.747973 c -0.565301,0.251464 -0.94351,0.56529 -0.502937,1.38305 0.440573,0.817759 0.377203,1.131586 -0.06236,1.634513" id="path173" />
		<path d="m 21.925042,40.616388 c -0.81677,0.628658 -1.446447,1.446418 -0.88014,3.143294" id="path175" />
		<path d="m 22.805182,42.81619 c 0.377203,0.56529 0.502937,2.576999 -0.440573,3.52049" id="path177" />
		<path d="m 27.457351,46.651512 c -0.565302,0.251464 -0.94351,0.56529 -0.502937,1.38305 0.440572,0.817759 0.377202,1.131585 -0.06236,1.634512" id="path179" />
		<path d="m 26.892049,45.519926 c -0.81677,0.628659 -1.446447,1.446418 -0.88014,3.143294" id="path181" />
		<path d="M 27.772189,47.719729 C 28.02064,48.091895 28.159451,49.091714 27.95727,50" id="path183" />
		<path d="m 31.962662,4.7194664 c 0.440573,-0.502927 0.502937,-0.8167535 0.06236,-1.6345129 -0.440573,-0.8177594 -0.06236,-1.1315859 0.502937,-1.3830494" id="path185" />
		<path d="M 31.082522,3.7136123 C 30.51722,2.0157306 31.145892,1.1989771 31.962662,0.57031826" id="path187" />
		<path d="M 32.403235,6.2916164 C 33.346745,5.3481252 33.220005,3.336417 32.843808,2.771127" id="path189" />
		<path d="m 37.49497,6.7945434 c -0.565301,0.2514636 -0.94351,0.56529 -0.502937,1.3830494 0.440573,0.8177594 0.377203,1.1315859 -0.06236,1.6345129" id="path191" />
		<path d="m 36.049529,8.8062516 c -0.565301,-1.6978817 0.06236,-2.5146352 0.88014,-3.143294" id="path193" />
		<path d="m 37.369236,11.38325 c 0.94351,-0.943491 0.81677,-2.9551995 0.440573,-3.5204895" id="path195" />
		<path d="m 31.962662,14.715644 c 0.440573,-0.502927 0.502937,-0.816753 0.06236,-1.634512 -0.440573,-0.81776 -0.06236,-1.131586 0.502937,-1.38305" id="path197" />
		<path d="m 31.962662,10.566496 c -0.81677,0.628659 -1.446448,1.446418 -0.88014,3.143294" id="path199" />
		<path d="m 32.403235,16.286789 c 0.94351,-0.943492 0.81677,-2.9552 0.440573,-3.52049" id="path201" />
		<path d="m 36.992033,19.681546 c 0.440573,-0.502927 0.502937,-0.816753 0.06236,-1.634513 -0.440573,-0.817759 -0.06236,-1.131586 0.502938,-1.383049" id="path203" />
		<path d="m 36.992033,15.532398 c -0.81677,0.628659 -1.446447,1.446418 -0.88014,3.143294" id="path205" />
		<path d="m 37.432606,21.253696 c 0.94351,-0.943491 0.81677,-2.955199 0.440573,-3.520489" id="path207" />
		<path d="m 32.528969,21.693254 c -0.565301,0.251464 -0.94351,0.56529 -0.502937,1.38305 0.440573,0.817759 0.377203,1.131586 -0.06236,1.634513" id="path209" />
		<path d="m 31.962662,20.561668 c -0.81677,0.628659 -1.446448,1.446419 -0.88014,3.143295" id="path211" />
		<path d="m 32.403235,26.282967 c 0.94351,-0.943492 0.81677,-2.9552 0.440573,-3.52049" id="path213" />
		<path d="m 36.929669,29.740087 c 0.440573,-0.502927 0.502937,-0.816753 0.06236,-1.634513 -0.440573,-0.817759 -0.06236,-1.131586 0.502937,-1.383049" id="path215" />
		<path d="m 36.929669,25.590939 c -0.81677,0.628659 -1.446447,1.446418 -0.88014,3.143294" id="path217" />
		<path d="m 37.369236,31.312237 c 0.94351,-0.943491 0.81677,-2.955199 0.440573,-3.520489" id="path219" />
		<path d="m 32.528969,31.689432 c -0.565301,0.251464 -0.94351,0.56529 -0.502937,1.38305 0.440573,0.817759 0.377203,1.131586 -0.06236,1.634513" id="path221" />
		<path d="m 31.962662,30.557847 c -0.81677,0.628658 -1.446448,1.446418 -0.88014,3.143294" id="path223" />
		<path d="m 32.403235,36.278139 c 0.94351,-0.942485 0.81677,-2.954194 0.440573,-3.52049" id="path225" />
		<path d="m 36.929669,39.672896 c 0.440573,-0.502927 0.502937,-0.816753 0.06236,-1.634513 -0.440573,-0.817759 -0.06236,-1.131585 0.502937,-1.383049" id="path227" />
		<path d="m 36.929669,35.523748 c -0.81677,0.628659 -1.446447,1.446418 -0.88014,3.143294" id="path229" />
		<path d="m 37.369236,41.245046 c 0.94351,-0.943491 0.81677,-2.955199 0.440573,-3.520489" id="path231" />
		<path d="m 32.528969,41.747973 c -0.565301,0.251464 -0.94351,0.56529 -0.502937,1.38305 0.440573,0.817759 0.377203,1.131586 -0.06236,1.634513" id="path233" />
		<path d="m 31.962662,40.616388 c -0.81677,0.628658 -1.446448,1.446418 -0.88014,3.143294" id="path235" />
		<path d="m 32.842802,42.81619 c 0.377203,0.56529 0.502937,2.576999 -0.440573,3.52049" id="path237" />
		<path d="m 37.49497,46.651512 c -0.565301,0.251464 -0.94351,0.56529 -0.502937,1.38305 0.440573,0.817759 0.377203,1.131585 -0.06236,1.634512" id="path239" />
		<path d="m 36.929669,45.519926 c -0.81677,0.628659 -1.446447,1.446418 -0.88014,3.143294" id="path241" />
		<path d="M 37.809809,47.719729 C 38.05826,48.091895 38.197071,49.091714 37.99489,50" id="path243" />
		<path d="M 41.95904,4.7194664 C 42.399613,4.2165394 42.461978,3.9027129 42.021405,3.0849535 41.580832,2.2671941 41.95904,1.9533676 42.524342,1.7019041" id="path245" />
		<path d="M 41.0789,3.7136123 C 40.513599,2.0157306 41.141265,1.1989771 41.95904,0.57031826" id="path247" />
		<path d="M 42.398608,6.2916164 C 43.342118,5.3481252 43.215377,3.336417 42.839181,2.771127" id="path249" />
		<path d="m 47.491349,6.7945434 c -0.565301,0.2514636 -0.94351,0.56529 -0.502937,1.3830494 0.440573,0.8177594 0.377203,1.1315859 -0.06236,1.6345129" id="path251" />
		<path d="m 46.044902,8.8062516 c -0.565301,-1.6978817 0.06236,-2.5146352 0.88014,-3.143294" id="path253" />
		<path d="m 47.365615,11.38325 c 0.94351,-0.943491 0.81677,-2.9551995 0.440573,-3.5204895" id="path255" />
		<path d="m 41.95904,14.715644 c 0.440573,-0.502927 0.502938,-0.816753 0.06236,-1.634512 -0.440573,-0.81776 -0.06236,-1.131586 0.502937,-1.38305" id="path257" />
		<path d="m 41.95904,10.566496 c -0.816769,0.628659 -1.446447,1.446418 -0.88014,3.143294" id="path259" />
		<path d="m 42.398608,16.286789 c 0.94351,-0.943492 0.816769,-2.9552 0.440573,-3.52049" id="path261" />
		<path d="m 46.988412,19.681546 c 0.440573,-0.502927 0.502937,-0.816753 0.06236,-1.634513 -0.440573,-0.817759 -0.06236,-1.131586 0.502937,-1.383049" id="path263" />
		<path d="m 46.988412,15.532398 c -0.81677,0.628659 -1.446447,1.446418 -0.88014,3.143294" id="path265" />
		<path d="m 47.427979,21.253696 c 0.94351,-0.943491 0.81677,-2.955199 0.440573,-3.520489" id="path267" />
		<path d="m 42.524342,21.693254 c -0.565302,0.251464 -0.94351,0.56529 -0.502937,1.38305 0.440573,0.817759 0.377203,1.131586 -0.06236,1.634513" id="path269" />
		<path d="m 41.95904,20.561668 c -0.816769,0.628659 -1.446447,1.446419 -0.88014,3.143295" id="path271" />
		<path d="m 42.398608,26.282967 c 0.94351,-0.943492 0.816769,-2.9552 0.440573,-3.52049" id="path273" />
		<path d="m 46.925042,29.740087 c 0.440573,-0.502927 0.502937,-0.816753 0.06236,-1.634513 -0.440573,-0.817759 -0.06236,-1.131586 0.502937,-1.383049" id="path275" />
		<path d="m 46.925042,25.590939 c -0.81677,0.628659 -1.446447,1.446418 -0.88014,3.143294" id="path277" />
		<path d="m 47.365615,31.312237 c 0.94351,-0.943491 0.81677,-2.955199 0.440573,-3.520489" id="path279" />
		<path d="m 42.524342,31.689432 c -0.565302,0.251464 -0.94351,0.56529 -0.502937,1.38305 0.440573,0.817759 0.377203,1.131586 -0.06236,1.634513" id="path281" />
		<path d="m 41.95904,30.557847 c -0.816769,0.628658 -1.446447,1.446418 -0.88014,3.143294" id="path283" />
		<path d="m 42.398608,36.278139 c 0.94351,-0.942485 0.816769,-2.954194 0.440573,-3.52049" id="path285" />
		<path d="m 46.925042,39.672896 c 0.440573,-0.502927 0.502937,-0.816753 0.06236,-1.634513 -0.440573,-0.817759 -0.06236,-1.131585 0.502937,-1.383049" id="path287" />
		<path d="m 46.925042,35.523748 c -0.81677,0.628659 -1.446447,1.446418 -0.88014,3.143294" id="path289" />
		<path d="m 47.365615,41.245046 c 0.94351,-0.943491 0.81677,-2.955199 0.440573,-3.520489" id="path291" />
		<path d="m 42.524342,41.747973 c -0.565302,0.251464 -0.94351,0.56529 -0.502937,1.38305 0.440573,0.817759 0.377203,1.131586 -0.06236,1.634513" id="path293" />
		<path d="m 41.95904,40.616388 c -0.816769,0.628658 -1.446447,1.446418 -0.88014,3.143294" id="path295" />
		<path d="m 42.839181,42.81619 c 0.377202,0.56529 0.502937,2.576999 -0.440573,3.52049" id="path297" />
		<path d="m 47.491349,46.651512 c -0.565301,0.251464 -0.94351,0.56529 -0.502937,1.38305 0.440573,0.817759 0.377203,1.131585 -0.06236,1.634512" id="path299" />
		<path d="m 46.925042,45.519926 c -0.81677,0.628659 -1.446447,1.446418 -0.88014,3.143294" id="path301" />
		<path d="M 47.805182,47.719729 C 48.053633,48.091895 48.192444,49.091714 47.990263,50" id="path303" />
		<path d="M 7.4032348,1.2623459 C 7.7301439,0.9354433 7.929307,0.47979139 8.0329121,0.00100484" id="path305" />
		<path d="M 17.398608,1.2623459 C 17.725517,0.9354433 17.92468,0.47979139 18.028285,0.00100484" id="path307" />
		<path d="m 27.331616,1.2623459 c 0.32691,-0.3269026 0.526073,-0.78255451 0.629678,-1.26134106" id="path309" />
		<path d="M 37.369236,1.2623459 C 37.696145,0.9354433 37.894302,0.47979139 37.998913,0.00100484" id="path311" />
		<path d="M 47.365615,1.2623459 C 47.692524,0.9354433 47.890681,0.47979139 47.995292,0.00100484" id="path313" />
	</g>
</svg>
