<?xml version="1.0" encoding="UTF-8" standalone="no"?>
<svg xmlns:dc="http://purl.org/dc/elements/1.1/" xmlns:cc="http://creativecommons.org/ns#" xmlns:rdf="http://www.w3.org/1999/02/22-rdf-syntax-ns#" xmlns:svg="http://www.w3.org/2000/svg" xmlns="http://www.w3.org/2000/svg" version="1.1" x="0px" y="0px" xml:space="preserve" width="50.00" height="50.00" viewBox="0 0 50.00 50.00">
	<metadata id="metadata2">
		<rdf:RDF>
			<ns:item rdf:ID="biblio1">
				<ns:link>rdf:resource=&quot;http://pubs.usgs.gov/tm/2006/11A02/</ns:link>
				<ns:title>U.S. Geological Survey, 2006, FGDC Digital Cartographic Standard for Geologic Map Symbolization (PostScript Implementation): U.S. Geological Survey Techniques and Methods 11-A2</ns:title>
			</ns:item>
			<ns:item rdf:ID="biblio2">
				<ns:link>https://davenquinn.com/projects/geologic-patterns/</ns:link>
				<ns:title>FGDC Geologic Patterns for the Web</ns:title>
			</ns:item>
			<rdf:Description>
				<dc:description>
					Converted from 'FGDC Geologic Patterns for the Web' to QGIS compatible svg symbols, with customisable fill colour/stroke colour/stroke width (when appropriate).
					SVG scaled to 50x50 pixels so that base outline-width is 0.387 px and width is 90 in the QGIS xml definition file. 
					Some of the original FGDC symbols have been omitted from this set because they can be generated from other symbols using the 'texture width' and/or 'stroke width' fields in QGIS symbology form.
				</dc:description>
				<dc:date>01 MARCH 2019</dc:date>
				<dc:creator>GeoProc.com</dc:creator>
				<dc:publisher rdf:resource="https://github.com/BC-Consulting/QGIS-FGDC-Fill" />
			</rdf:Description>
			<cc:Work rdf:about="">
				<dc:format>image/svg+xml</dc:format>
				<dc:type rdf:resource="http://purl.org/dc/dcmitype/StillImage" />
				<dc:title>FGDC fill symbol: Lithology - Metamorphism, Igneous and vein - 715 Volcanic Breccia Or Agglomerate</dc:title>
			</cc:Work>
		</rdf:RDF>
	</metadata>
	<path style="fill:none;stroke:none;stroke-width:0;" id="rect1500" width="50.00" height="50.00" x="0.0" y="0.0" />
	<g fill="param(outline) #000" stroke="param(outline) #000" stroke-width="param(outline-width) 0.6" syle="stroke-linecap:round;stroke-linejoin:bevel;">
		<g style="stroke:none;stroke-width:0;">
			<circle id="circle304" cy="39.055298" cx="4.8387094" r="0.44999999" />
			<circle id="circle306" cy="33.717052" cx="10.829494" r="0.44999999" />
			<circle id="circle308" cy="37.864517" cx="9.293087" r="0.44999999" />
			<circle id="circle310" cy="40.629494" cx="14.0553" r="0.44999999" />
			<circle id="circle312" cy="45.084793" cx="7.7576036" r="0.44999999" />
			<circle id="circle314" cy="46.928112" cx="14.0553" r="0.44999999" />
			<circle id="circle316" cy="48.002766" cx="4.0709677" r="0.44999999" />
			<circle id="circle318" cy="38.172352" cx="22.504148" r="0.44999999" />
			<circle id="circle320" cy="44.470047" cx="24.96129" r="0.44999999" />
			<circle id="circle322" cy="48.771427" cx="32.027649" r="0.44999999" />
			<circle id="circle324" cy="42.780643" cx="40.783409" r="0.44999999" />
			<circle id="circle326" cy="40.015667" cx="28.647924" r="0.44999999" />
			<circle id="circle328" cy="38.633179" cx="34.792625" r="0.44999999" />
			<circle id="circle330" cy="33.29493" cx="29.838709" r="0.44999999" />
			<circle id="circle332" cy="38.543911" cx="47.791176" r="0.44999999" />
			<circle id="circle334" cy="32.027649" cx="42.453457" r="0.44999999" />
			<circle id="circle336" cy="25.402765" cx="37.960369" r="0.44999999" />
			<circle id="circle338" cy="26.670967" cx="27.534563" r="0.44999999" />
			<circle id="circle340" cy="47.695854" cx="42.780643" r="0.44999999" />
			<circle id="circle342" cy="22.868202" cx="45.909676" r="0.44999999" />
			<circle id="circle344" cy="19.528111" cx="44.124424" r="0.44999999" />
			<circle id="circle346" cy="20.79447" cx="36.059906" r="0.44999999" />
			<circle id="circle348" cy="18.202765" cx="30.645161" r="0.44999999" />
			<circle id="circle350" cy="15.32258" cx="25.806452" r="0.44999999" />
			<circle id="circle352" cy="13.824884" cx="39.631336" r="0.44999999" />
			<circle id="circle354" cy="21.428572" cx="25" r="0.44999999" />
			<circle id="circle356" cy="22.119816" cx="18.43318" r="0.44999999" />
			<circle id="circle358" cy="31.048847" cx="16.935484" r="0.44999999" />
			<circle id="circle360" cy="36.86636" cx="16.302305" r="0.44999999" />
			<circle id="circle362" cy="11.57788" cx="46.831337" r="0.44999999" />
			<circle id="circle364" cy="7.9493084" cx="43.951153" r="0.44999999" />
			<circle id="circle366" cy="4.300612" cx="43.5816" r="0.44999999" />
			<circle id="circle368" cy="5.5870967" cx="47.926266" r="0.44999999" />
			<circle id="circle370" cy="3.9726393" cx="38.125046" r="0.44999999" />
			<circle id="circle372" cy="2.4193547" cx="33.75576" r="0.44999999" />
			<circle id="circle374" cy="6.0479264" cx="24.942858" r="0.44999999" />
			<circle id="circle376" cy="10.9447" cx="30.529953" r="0.44999999" />
			<circle id="circle378" cy="11.981566" cx="16.820276" r="0.44999999" />
			<circle id="circle380" cy="6.1640549" cx="16.417511" r="0.44999999" />
			<circle id="circle382" cy="5.0322728" cx="6.612608" r="0.44999999" />
			<circle id="circle384" cy="14.285714" cx="10.061751" r="0.44999999" />
			<circle id="circle386" cy="20.352995" cx="2.0737326" r="0.44999999" />
			<circle id="circle388" cy="12.442396" cx="4.2239633" r="0.44999999" />
			<circle id="circle390" cy="19.431337" cx="18.126268" r="0.44999999" />
			<circle id="circle392" cy="20.58341" cx="10.675575" r="0.44999999" />
			<circle id="circle394" cy="27.726267" cx="8.4488478" r="0.44999999" />
			<circle id="circle396" cy="26.190783" cx="16.052534" r="0.44999999" />
			<circle id="circle398" cy="32.41198" cx="2.6884794" r="0.44999999" />
			<circle id="circle400" cy="25.115208" cx="4.4543781" r="0.44999999" />
			<circle id="circle402" cy="10.98341" cx="12.826728" r="0.44999999" />
			<circle id="circle404" cy="23.425806" cx="29.262672" r="0.44999999" />
			<circle id="circle406" cy="7.0741825" cx="10.28696" r="0.44999999" />
			<circle id="circle408" cy="2.0737326" cx="28.187098" r="0.44999999" />
			<circle id="circle410" cy="3.5414634" cx="21.316711" r="0.44999999" />
			<circle id="circle412" cy="23.271889" cx="40.322578" r="0.44999999" />
			<circle id="circle414" cy="27.419355" cx="42.93364" r="0.44999999" />
			<circle id="circle416" cy="29.877419" cx="37.403687" r="0.44999999" />
			<circle id="circle418" cy="30.338249" cx="46.006451" r="0.44999999" />
			<circle id="circle420" cy="29.41659" cx="32.642395" r="0.44999999" />
			<circle id="circle422" cy="21.428572" cx="6.52811" r="0.44999999" />
			<circle id="circle424" cy="17.281105" cx="11.597235" r="0.44999999" />
			<circle id="circle426" cy="30.799078" cx="6.2211981" r="0.44999999" />
			<circle id="circle428" cy="31.720737" cx="24.500462" r="0.44999999" />
			<circle id="circle430" cy="25.422119" cx="23.425806" r="0.44999999" />
			<circle id="circle432" cy="39.094009" cx="41.090321" r="0.44999999" />
			<circle id="circle434" cy="33.870968" cx="15.283872" r="0.44999999" />
			<circle id="circle436" cy="44.776958" cx="43.702301" r="0.44999999" />
			<circle id="circle438" cy="46.467281" cx="36.175114" r="0.44999999" />
			<circle id="circle440" cy="44.009216" cx="14.209217" r="0.44999999" />
			<circle id="circle442" cy="46.313366" cx="29.262672" r="0.44999999" />
			<circle id="circle444" cy="48.771427" cx="24.193548" r="0.44999999" />
			<circle id="circle446" cy="17.741936" cx="34.792625" r="0.44999999" />
			<circle id="circle448" cy="10.829493" cx="37.711521" r="0.44999999" />
			<circle id="circle450" cy="25.576036" cx="0.53732711" r="0.44999999" />
			<circle id="circle452" cy="0.38433143" cx="4.6847925" r="0.44999999" />
			<circle id="circle454" cy="36.175114" cx="48.771427" r="0.44999999" />
			<circle id="circle456" cy="46.620277" cx="49.232258" r="0.44999999" />
			<circle id="circle458" cy="44.620476" cx="19.468733" r="0.44999999" />
			<circle id="circle460" cy="0.8451609" cx="49.078339" r="0.44999999" />
			<circle id="circle462" cy="42.319817" cx="2.7273252" r="0.44999999" />
		</g>
		<g style="fill:none;">
			<line id="line142" y2="37.427391" x2="2.4570682" y1="36.300201" x1="2.3538425" />
			<line id="line144" y2="37.643982" x2="3.2100637" y1="35.267021" x1="2.83587" />
			<line id="line146" y2="37.90942" x2="4.1649017" y1="33.992367" x1="3.4755015" />
			<line id="line148" y2="37.539833" x2="5.0119066" y1="33.195133" x1="3.981492" />
			<line id="line150" y2="37.258728" x2="5.9519992" y1="32.342598" x1="4.4690499" />
			<line id="line152" y2="36.835686" x2="6.7787275" y1="31.776701" x1="5.1824136" />
			<line id="line154" y2="36.633842" x2="7.501308" y1="32.008038" x1="6.06352" />
			<line id="line156" y2="36.249512" x2="8.2202015" y1="32.382229" x1="7.0579901" />
			<line id="line158" y2="35.560108" x2="8.7658234" y1="32.652275" x1="7.8303394" />
			<line id="line160" y2="34.492828" x2="9.174118" y1="32.9767" x1="8.6229668" />
			<line id="line162" y2="26.382488" x2="22.350231" y1="28.744699" x1="16.647926" />
			<line id="line164" y2="26.843317" x2="22.753918" y1="29.262672" x1="17.741936" />
			<line id="line166" y2="27.419355" x2="23.041475" y1="29.838709" x1="18.721659" />
			<line id="line168" y2="27.823042" x2="23.502304" y1="30.818434" x1="18.894011" />
			<line id="line172" y2="28.283871" x2="24.597235" y1="32.027649" x1="20.104147" />
			<line id="line174" y2="28.917051" x2="24.769587" y1="32.142857" x1="21.256222" />
			<line id="line176" y2="36.720737" x2="37.412903" y1="32.095852" x1="39.48848" />
			<line id="line178" y2="25.806452" x2="48.674652" y1="25.402765" x1="42.626728" />
			<line id="line180" y2="16.763134" x2="25.634102" y1="19.930876" x1="22.63871" />
			<line id="line182" y2="16.993547" x2="45.276497" y1="13.940092" x1="42.05069" />
			<line id="line184" y2="7.1428571" x2="32.718891" y1="3.9170506" x1="31.393547" />
			<line id="line186" y2="6.072494" x2="12.520752" y1="1.7526782" x1="12.405545" />
			<line id="line188" y2="2.4193547" x2="47.580643" y1="2.9953916" x1="45.967739" />
			<line id="line190" y2="16.589861" x2="45.852531" y1="13.767741" x1="43.029491" />
			<line id="line192" y2="16.474655" x2="46.600922" y1="13.364056" x1="43.835945" />
			<line id="line194" y2="16.359447" x2="47.119816" y1="12.903226" x1="44.700459" />
			<line id="line196" y2="16.186174" x2="47.580643" y1="13.248848" x1="46.082947" />
			<line id="line198" y2="16.013824" x2="48.156681" y1="13.306912" x1="47.752995" />
			<line id="line200" y2="17.626728" x2="44.815666" y1="14.689401" x1="41.070969" />
			<line id="line202" y2="18.202765" x2="44.354839" y1="16.013824" x1="41.129032" />
			<line id="line204" y2="6.7391706" x2="33.582489" y1="4.032258" x1="32.54562" />
			<line id="line206" y2="6.4516129" x2="34.504147" y1="3.6866357" x1="33.640553" />
			<line id="line208" y2="6.2211981" x2="35.310596" y1="3.3990779" x1="34.56221" />
			<line id="line210" y2="6.0479264" x2="35.944698" y1="3.2258062" x1="35.310596" />
			<line id="line212" y2="7.776958" x2="32.027649" y1="2.9382484" x1="29.838709" />
			<line id="line214" y2="8.2949305" x2="31.393547" y1="3.4562211" x1="28.743778" />
			<line id="line216" y2="8.698617" x2="30.875574" y1="3.6866357" x1="27.477419" />
			<line id="line218" y2="26.612904" x2="48.732719" y1="26.382488" x1="43.60553" />
			<line id="line220" y2="25.288479" x2="48.847923" y1="24.481106" x1="41.935482" />
			<line id="line222" y2="24.136406" x2="46.543777" y1="23.617512" x1="42.683868" />
			<line id="line224" y2="27.419355" x2="48.963131" y1="27.592627" x1="45.161289" />
			<line id="line226" y2="28.341013" x2="49.423962" y1="28.744699" x1="47.811058" />
			<line id="line228" y2="19.87281" x2="24.251614" y1="16.993547" x1="26.786175" />
			<line id="line230" y2="20.219355" x2="25.460831" y1="17.626728" x1="27.477419" />
			<line id="line232" y2="20.680183" x2="26.036867" y1="18.259909" x1="28.168663" />
			<line id="line234" y2="21.198156" x2="26.670967" y1="18.894009" x1="28.743778" />
			<line id="line236" y2="19.642397" x2="21.428572" y1="16.302303" x1="24.597235" />
			<line id="line238" y2="18.894009" x2="20.564978" y1="15.841475" x1="23.847927" />
			<line id="line240" y2="18.202765" x2="19.758526" y1="16.589861" x1="21.428572" />
			<line id="line242" y2="17.741936" x2="19.124424" y1="17.050692" x1="19.70046" />
			<line id="line244" y2="37.159447" x2="38.224888" y1="32.458065" x1="40.272812" />
			<line id="line246" y2="37.526268" x2="38.881107" y1="32.897697" x1="41.084789" />
			<line id="line248" y2="37.917049" x2="39.58894" y1="33.670044" x1="41.93272" />
			<line id="line250" y2="37.576038" x2="40.635021" y1="35.448849" x1="41.935482" />
			<line id="line252" y2="36.969585" x2="41.930878" y1="36.341934" x1="42.221199" />
			<line id="line254" y2="6.4190373" x2="13.385268" y1="3.0771022" x1="13.500476" />
			<line id="line256" y2="5.8420796" x2="14.594485" y1="3.884475" x1="14.537342" />
			<line id="line258" y2="5.9582081" x2="11.368678" y1="2.962816" x1="11.253471" />
			<line id="line260" y2="5.7849364" x2="10.331812" y1="3.5379317" x1="10.216605" />
			<line id="line262" y2="5.7849364" x2="9.2378025" y1="4.5176554" x1="9.0073881" />
			<line id="line264" y2="16.820276" x2="9.4470053" y1="14.285714" x1="6.1631336" />
			<line id="line266" y2="17.51152" x2="8.7557611" y1="14.573272" x1="5.0110602" />
			<line id="line268" y2="18.548388" x2="8.7557611" y1="16.302303" x1="4.953917" />
			<line id="line270" y2="19.70046" x2="8.7557611" y1="17.165899" x1="4.608295" />
			<line id="line272" y2="20.046083" x2="7.0857143" y1="18.145622" x1="4.3198156" />
			<line id="line274" y2="20.44977" x2="5.9327192" y1="19.642397" x1="4.608295" />
			<line id="line276" y2="1.8433177" x2="47.350227" y1="2.4193547" x1="45.276497" />
			<line id="line278" y2="3.1105988" x2="47.868202" y1="3.6866357" x1="46.42857" />
			<line id="line280" y2="1.3824883" x2="46.024883" y1="1.9585252" x1="44.527187" />
			<line id="line282" y2="41.820278" x2="33.640553" y1="40.610138" x1="33.006451" />
			<line id="line284" y2="42.396313" x2="32.949306" y1="40.783409" x1="31.73917" />
			<line id="line286" y2="42.914288" x2="32.48848" y1="41.013824" x1="30.414745" />
			<line id="line288" y2="43.721661" x2="32.258064" y1="41.589863" x1="29.493086" />
			<line id="line290" y2="46.486637" x2="32.54562" y1="42.626728" x1="27.649771" />
			<line id="line292" y2="45.276497" x2="32.660828" y1="41.992626" x1="28.628571" />
			<line id="line294" y2="44.527187" x2="28.398155" y1="43.548386" x1="27.18894" />
			<path id="path10" d="m 24.582819,3.2513628 c 0,0 1.267281,-1.5557604 2.130876,-1.843318 0,0 -2.82212,-0.2304148 -2.82212,-0.2304148 0.05714,0.8064516 0.460829,1.5557604 0.691244,2.0737328 0,0 0,0 0,0" />
			<path id="path108" d="m 45.967742,2.9953915 c 0.287558,0.3456221 0.691244,1.0949309 0.691244,1.0949309 0,0 1.670046,-0.2875576 1.670046,-0.2875576 0,0 -0.576036,-0.8645161 -0.691244,-1.0368664 -0.115207,-0.1723502 -0.287557,-1.2101382 -0.287557,-1.2101382 0,0 -2.188941,-0.2875576 -2.188941,-0.2875576 0,0 -1.267281,0.3447004 -1.267281,0.3447004 0,0 1.786175,1.0368664 2.073733,1.3824885 0,0 0,0 0,0" />
			<path id="path110" d="m 35.77235,49.557604 c 0,0 0.748387,-0.806452 0.806452,-1.612904 0,0 -3.283871,0.28848 -3.283871,0.28848 0.748387,0.634101 1.670046,1.036866 2.477419,1.324424 0,0 0,0 0,0" />
			<path id="path114" d="m 2.457641,46.49895 c 0,0 0.1152074,2.649769 0.1152074,2.649769 0,0 -1.7852535,-0.691244 -1.7852535,-0.691244 0,0 1.2672812,-1.900461 1.6700461,-1.958525 0,0 0,0 0,0" />
			<path id="path118" d="m 35.580645,45.141935 c 0,0 -0.921659,-0.748387 -0.921659,-0.748387 0,0 0.634102,-0.863594 1.094931,-0.978801 0.46083,-0.115208 1.26636,0.575115 1.26636,0.575115 0,0 0,0 0,0 0,0 -1.439632,1.152073 -1.439632,1.152073" />
			<path id="path120" d="m 3.1932163,38.586244 c 0,0 0.1732719,0.806452 0.1152073,1.267282 -0.058064,0.460829 -1.3253456,0 -1.3253456,0 0,0 -0.9788019,-1.152074 -0.9788019,-1.152074 0.5760369,0 2.1889402,-0.115208 2.1889402,-0.115208 0,0 0,0 0,0" />
			<path id="path122" d="m 45.813825,46.543779 c 0.46083,0.287557 3.571429,2.247004 3.571429,2.247004 0,0 -0.691245,0.634102 -0.691245,0.634102 0,0 -0.576036,-0.576037 -1.09493,-0.748387 -0.518895,-0.172351 -1.612904,0.115207 -1.612904,0.115207 0,0 -1.267281,0.691244 -1.267281,0.691244 0,0 -0.287557,-1.72811 -0.403686,-1.958525 -0.11613,-0.230415 -0.632259,-0.807373 -0.632259,-0.807373 0,0 0,0 0,0 0,0 1.670047,-0.46083 2.130876,-0.173272 0,0 0,0 0,0" />
			<path id="path124" d="m 39.707834,44.317054 c 0,0 0.05714,0.517972 0.576037,0.806451 0.518894,0.28848 2.01659,1.094931 2.01659,1.094931 0,0 -1.55576,1.843318 -1.55576,1.843318 0,0 -2.073733,-0.517972 -2.361291,-0.403686 -0.287557,0.114285 -0.921659,-0.517973 -0.921659,-0.517973 0,0 0.864516,-1.439631 0.921659,-1.612903 0.05714,-0.173272 0.287558,-1.152995 0.287558,-1.152995 0,0 0,-3e-6 0,-3e-6 0,0 1.036866,-0.05714 1.036866,-0.05714" />
			<path id="path134" d="m 0,40.633879 c 0.452091,0.08714 0.847926,0.149531 0.847926,0.149531 0,0 -0.230414,0.806452 -0.345622,1.325346 -0.115207,0.518894 1.036867,2.82212 1.036867,2.82212 0,0 -1.539171,-0.153038 -1.539171,-0.153038" />
			<path id="path136" d="m 33.754839,40.629493 c 0,0 0.403686,0.517972 0.403686,0.748387 0,0.230415 -1.152073,0.806452 -1.55576,1.267281 -0.403687,0.46083 -0.345622,1.440553 -0.287558,1.843318 0.05806,0.402765 0.691245,1.555761 0.691245,1.555761 0,0 -1.209217,1.036866 -1.209217,1.036866 0,0 -1.152074,-1.036866 -1.55576,-1.497696 -0.403687,-0.460829 -1.209217,-1.036866 -2.304148,-1.152074 -1.094931,-0.115207 -1.094931,-0.517972 -0.748387,-0.979723 0.346544,-0.461751 0.230415,-1.094931 1.036867,-1.209217 0.806451,-0.115207 2.476497,-1.497696 2.476497,-1.497696 0,0 0,0 0,0 1.786175,-0.173271 3.052535,-0.115207 3.052535,-0.115207 0,0 0,0 0,0" />
			<path id="path170" d="m 19.124424,31.797235 c 0,-0.230415 4.83871,-3.743779 4.83871,-3.743779" />
			<path id="path34" d="m 3.2248848,21.947465 c 0,0 0.1152073,2.64977 0.1152073,2.64977 0,0 -1.7852534,-0.691244 -1.7852534,-0.691244 0,0 1.2672811,-1.900461 1.6700461,-1.958526 0,0 0,0 0,0" />
			<path id="path4" d="m 2.8801843,1.5935482 c 0.4608295,0.3456221 -2.30414747,0.8064516 -2.30414747,0.8064516 0,0 -0.23041475,-1.3824885 -0.23041475,-1.3824885 0,0 2.07373272,0.2304148 2.53456222,0.5760369 0,0 0,0 0,0" />
			<path id="path44" d="m 32.257143,16.762212 c 0.691244,0.17235 0.748387,0.345622 0.748387,0.345622 0,0 1.612903,-0.978802 1.612903,-0.978802 0,0 1.325346,-0.345622 1.325346,-0.345622 0,0 0,-0.517972 0.287558,-0.921659 0.287557,-0.403687 1.209216,-0.691244 1.209216,-0.691244 0,0 -1.382488,-0.978802 -1.670046,-1.439632 -0.287558,-0.460829 -2.073733,0.230415 -2.073733,0.230415 0,0 -1.958525,-0.05714 -1.958525,-0.05714 0,0 -1.094931,0.921659 -1.094931,0.921659 0,0 0.403687,0.46083 0,1.267281 -0.403687,0.806452 -0.747465,1.553917 -0.747465,1.553917 0,0 0,-3e-6 0,-3e-6 0,0 1.670046,-0.05714 2.36129,0.115208 0,0 0,0 0,0" />
			<path id="path48" d="m 42.272515,5.4479605 c 0,0 0.230415,4.6082945 0.230415,4.6082945 -0.978802,-0.5179717 -2.649769,-0.8064511 -2.995392,-0.5179717 -0.345622,0.288479 -0.921659,-1.900461 -1.325345,-2.01659 -0.403687,-0.1161291 0.748387,-0.8645162 0.921659,-1.3253457 0.173272,-0.4608295 0.807373,-1.3824884 0.807373,-1.3824884 0,0 0,0 0,0 0.978802,0.4608294 2.36129,0.6341013 2.36129,0.6341013 0,0 0,0 0,0" />
			<path id="path50" d="m 46.313364,5.8175113 c 0,0 2.880185,2.5345623 2.880185,2.5345623 0,0 -1.325346,1.6129032 -1.325346,1.6129032 0,0 -1.958525,-0.1152074 -2.247005,-0.4036866 -0.288479,-0.2884793 0.05714,-2.2470047 0.05714,-2.2470047 0,0 -0.286633,-0.5751152 -0.286633,-0.5751152 0.345622,-0.5179723 0.921659,-0.921659 0.921659,-0.921659 0,0 0,0 0,0" />
			<path id="path52" d="m 46.42765,13.364055 c 0.63318,0.05714 2.073733,-0.05714 2.073733,-0.05714 0,0 0.230414,2.64977 0.230414,2.64977 0,0 -0.517972,0.173272 -1.612903,0.403687 -1.094931,0.230414 -1.439631,0.115207 -2.073733,0.978801 -0.634101,0.863595 -0.806451,1.152074 -0.806451,1.152074 0,0 -1.382489,-0.05714 -1.382489,-0.05714 0,0 -1.152073,-0.921659 -1.670046,-0.978802 -0.517972,-0.05714 0.115208,-1.267281 0,-2.130875 -0.115207,-0.863595 -0.287557,-1.326267 -0.287557,-1.326267 0,0 1.497696,-0.05714 2.130875,-0.230415 0.63318,-0.173272 1.958526,-1.094931 1.958526,-1.094931 0,0 0,-6e-6 0,-6e-6 0,0 0.806451,0.634101 1.439631,0.691244 0,0 0,0 0,0" />
			<path id="path54" d="m 37.384332,17.741935 c 0,0 -0.921659,-0.748387 -0.921659,-0.748387 0,0 0.634101,-0.864516 1.094931,-0.978802 0.460829,-0.114285 1.267281,0.575116 1.267281,0.575116 0,0 0,0 0,0 0,0 -1.440553,1.152073 -1.440553,1.152073" />
			<path id="path56" d="m 40.725346,19.585253 c 0,0 0.173272,0.806452 0.115207,1.267281 -0.05806,0.46083 -1.325345,0 -1.325345,0 0,0 -0.978802,-1.152073 -0.978802,-1.152073 0.576037,0 2.18894,-0.115208 2.18894,-0.115208 0,0 0,0 0,0" />
			<path id="path6" d="m 15.976973,4.5176551 c 0.176959,0.04424 -2.18894,2.0737327 -2.18894,2.0737327 -0.691244,-0.6912442 -4.9539167,-0.921659 -5.8755757,-0.6912442 0,0 1.497696,-1.0368664 1.1520737,-2.0165899 0,0 2.534562,-0.6341014 2.591705,-1.6129032 0,0 1.440553,-0.9788019 1.440553,-0.9788019 -0.46083,2.0737327 2.18894,3.0525346 2.880184,3.2258065 0,0 0,0 0,0" />
			<path id="path62" d="m 44.814747,23.387097 c 0.921659,0.287557 1.843318,0.864516 2.477419,1.036866 0.634101,0.17235 1.728111,0.345622 1.728111,0.345622 0,0 -0.230415,0.806452 -0.345622,1.325346 -0.115208,0.518894 1.036866,2.82212 1.036866,2.82212 0,0 -3.456221,-0.345623 -3.456221,-0.345623 0,0 -0.287558,-0.691244 -1.094931,-0.978801 -0.807373,-0.287558 -1.152074,-0.403687 -1.555761,-1.209217 -0.403686,-0.80553 -2.18894,-1.497696 -2.18894,-1.497696 0,0 1.268203,-1.268203 1.268203,-1.268203 1.439631,-0.403686 1.209217,-0.517972 2.130876,-0.230414 0,0 0,0 0,0" />
			<path id="path64" d="m 36.980645,23.156682 c 0,0 0.403687,0.517972 0.403687,0.748387 0,0.230415 -1.152074,0.806452 -1.55576,1.267281 -0.403687,0.46083 -0.345623,1.439631 -0.287558,1.843318 0.05806,0.403687 0.691244,1.55576 0.691244,1.55576 0,0 -1.209216,1.036867 -1.209216,1.036867 0,0 -1.152074,-1.036867 -1.555761,-1.497696 -0.403686,-0.460829 -1.209216,-1.036866 -2.304147,-1.152074 -1.094931,-0.115207 -1.094931,-0.517972 -0.748387,-0.978802 0.346543,-0.460829 0.230414,-1.09493 1.036866,-1.209216 0.806452,-0.114286 2.476498,-1.498618 2.476498,-1.498618 0,0 0,0 0,0 1.786175,-0.173272 3.052534,-0.115207 3.052534,-0.115207 0,0 0,0 0,0" />
			<path id="path66" d="m 40.149309,27.476498 c 0.460829,0.287557 3.571428,2.247004 3.571428,2.247004 0,0 -0.691244,0.634102 -0.691244,0.634102 0,0 -0.576037,-0.576037 -1.094931,-0.748387 -0.518894,-0.172351 -1.611981,0.114285 -1.611981,0.114285 0,0 -1.267281,0.691244 -1.267281,0.691244 0,0 -0.287558,-1.72811 -0.403687,-1.958525 -0.116129,-0.230415 -0.63318,-0.806451 -0.63318,-0.806451 0,0 0,0 0,0 0,0 1.670046,-0.46083 2.130876,-0.173272 0,0 0,0 0,0" />
			<path id="path68" d="m 46.543779,32.02765 c 0.518894,0 0.460829,0 0.921659,0.287557 0.460829,0.287558 1.439631,0.403687 1.439631,0.403687 0,0 -0.517972,2.01659 -0.517972,2.01659 0,0 -0.978802,-0.864516 -1.267281,-0.978802 -0.288479,-0.114286 -2.304148,0.230415 -2.304148,0.230415 0,0 0,-1.268203 0,-1.268203 0,0 1.209217,-0.691244 1.728111,-0.691244 0,0 0,0 0,0" />
			<path id="path70" d="m 36.175115,31.451613 c 0,0 -0.864516,0.978802 -0.748387,1.55576 0.116129,0.576959 -0.173272,-0.230415 -0.576037,-0.517972 -0.402765,-0.287558 0.229493,-1.268203 0.229493,-1.268203 0,0 0,0 0,0 0,0 1.094931,0.230415 1.094931,0.230415" />
			<path id="path72" d="m 28.744701,28.283874 c 0,0 0.05714,0.517972 0.576036,0.806452 0.518894,0.288479 2.01659,1.09493 2.01659,1.09493 0,0 -1.55576,1.843318 -1.55576,1.843318 0,0 -2.073733,-0.517972 -2.36129,-0.403686 -0.287558,0.114285 -0.921659,-0.517973 -0.921659,-0.517973 0,0 0.864516,-1.439631 0.921659,-1.612903 0.05714,-0.173272 0.287557,-1.152995 0.287557,-1.152995 0,0 0,-3e-6 0,-3e-6 0,0 1.036867,-0.05714 1.036867,-0.05714" />
			<path id="path74" d="m 35.080184,35.310599 c 0.115208,0.402765 -0.345622,0.806452 -0.634101,1.382489 -0.288479,0.576036 -0.690323,1.325345 -0.690323,1.325345 0,0 -3.341013,0 -3.341013,0 -0.63318,0 -1.209217,0.345622 -1.209217,0.345622 0,0 -0.921659,-0.287557 -0.921659,-0.287557 0,0 0.344701,-1.901383 0.344701,-1.901383 0,0 0.634101,-0.921659 0.634101,-0.921659 0,0 0.173272,0.05714 0.806452,-0.230415 0.633179,-0.287557 1.209216,-1.036866 1.382488,-1.325345 0,0 1.094009,-0.517973 1.094009,-0.517973 0,0 2.419355,1.728111 2.534562,2.130876 0,0 0,0 0,0" />
			<path id="path76" d="m 41.084793,32.897696 c 0.502304,0.423041 0.973272,0.640553 0.884792,1.106912 -0.08848,0.46636 -0.13364,0.699539 -0.149308,1.009217 -0.01659,0.309677 0.674654,1.835023 0.674654,1.835023 0,0 -1.22765,0.321659 -1.606452,0.590783 -0.378801,0.269125 -0.957603,0.699539 -0.957603,0.699539 0,0 -3.510599,-1.877419 -3.510599,-1.877419 0,0 1.304147,-1.174193 1.304147,-1.174193 0,0 1.075576,-1.914286 1.075576,-1.914286 0,0 -0.01198,-1.21106 -0.01198,-1.21106 0,0 1.793548,0.512442 2.296774,0.935484 0,0 -1e-6,0 -1e-6,0" />
			<path id="path78" d="m 44.988019,36.117972 c 0,0 1.382488,0.46083 1.382488,0.46083 0,0 -0.05714,1.267281 -0.05714,1.267281 0,0 -0.921659,-0.115207 -1.209216,-0.230415 -0.287558,-0.115207 -1.036867,-0.287557 -1.209217,-0.173272 -0.17235,0.114286 1.093088,-1.324424 1.093088,-1.324424 0,0 -3e-6,0 -3e-6,0" />
			<path id="path8" d="m 18.026511,4.424228 c 0,0 0.748387,-0.8064516 0.806451,-1.6129032 0,0 -3.282949,0.2884793 -3.282949,0.2884793 0.748387,0.6331797 1.670046,1.0368663 2.476498,1.3244239 0,0 0,0 0,0" />
			<path id="path80" d="m 10.043293,1.0746242 c 0,0 -0.057143,1.2672811 -0.057143,1.2672811 0,0 -0.921659,-0.1152073 -1.2092166,-0.2304147 C 8.4893758,1.9962832 7.740067,1.823933 7.5677168,1.9382187 7.3935232,2.0534261 8.6608044,0.61379474 8.6608044,0.61379474 c 0,0 0,0 0,0 0,0 1.3824886,0.46082946 1.3824886,0.46082946" />
			<path id="path82" d="m 28.168664,33.122581 c 0,0 -0.691245,1.325345 -0.517973,1.90046 0.173272,0.575116 -0.634101,-0.345622 -0.634101,-0.345622 0,0 -0.576037,-1.324424 -0.576037,-1.324424 0,0 1.728111,-0.230414 1.728111,-0.230414" />
			<path id="path84" d="m 19.643318,27.18894 c 1.210138,-0.634101 2.18894,-1.267281 2.18894,-1.267281 0,0 0.978802,0.806452 1.094931,1.267281 0.116129,0.46083 1.094931,0.921659 1.670046,1.094931 0.575115,0.173272 0,1.497696 0,1.497696 0,0 -0.576037,0.05714 -0.921659,0.230414 -0.345622,0.173272 -0.864516,1.958526 -0.921659,2.130876 -0.05714,0.17235 -1.55576,0 -1.958525,0 -0.402765,0 -1.670046,-0.345622 -1.670046,-0.345622 0,0 -0.634102,-0.230415 -0.230415,-0.978802 0.403687,-0.748387 -0.634101,-1.382488 -1.152074,-1.55576 -0.517972,-0.173272 -1.094931,-0.517973 -1.094931,-0.517973 0,0 0.05714,-0.634101 0.05714,-0.634101 0,0 1.728111,-0.287558 2.938249,-0.921659 0,0 3e-6,0 3e-6,0" />
			<path id="polygon116" d="m 30.16603,-1e-6 c 0,0 0.02385,0.84019 0.02385,0.84019 0,0 -1.727189,0.172351 -1.727189,0.172351 0,0 -1.005377,-1.012541 -1.005377,-1.012541" />
			<path id="polygon26" d="m 50,18.432273 c 0,0 -0.639119,0.09271 -0.639119,0.09271 0,0 0.639119,-2.591705 0.639119,-2.591705" />
			<path d="m 0.02711789,15.933278 c 0,0 1.08807001,-0.116129 1.08807001,-0.116129 0,0 -0.11520701,2.47742 -0.11520701,2.47742 0,0 -0.972863,0.1377 -0.972863,0.1377" id="path15120" />
			<path d="m 27.457313,50 c 0,0 -0.08955,-0.08147 -0.08955,-0.08147 0,0 -1.900461,-1.094931 -1.900461,-1.094931 0,0 1.036866,-1.209216 1.036866,-1.209216 0,0 1.843318,0.863594 1.843318,0.863594 0,0 1.785254,0.403687 1.785254,0.403687 0,0 0.03329,1.118335 0.03329,1.118335" id="path15123" />
			<path d="m 50,44.777838 c 0,0 -1.917051,-0.192585 -1.917051,-0.192585 0,0 -0.287557,-0.691244 -1.09493,-0.978801 -0.807374,-0.287558 -1.152074,-0.403687 -1.555761,-1.209217 -0.403686,-0.80553 -2.18894,-1.497696 -2.18894,-1.497696 0,0 1.268203,-1.268203 1.268203,-1.268203 0,0 0,0 0,0 1.439631,-0.403686 1.209216,-0.517972 2.130875,-0.230414 0.921659,0.287557 1.843318,0.864516 2.47742,1.036866 0.253607,0.06893 0.578857,0.138009 0.880184,0.196091" id="path15117" />
			<polygon id="polygon100" points="4.7787271,31.679005 6.3390958,32.091909 9.5778054,33.242139 8.5446257,36.13154 4.1649022,37.90942 1.7787271,37.245826 3.4755013,33.992369 " />
			<polygon id="polygon102" points="35.944701,2.9382487 36.462673,5.8755759 33.121659,6.9124422 30.299539,9.2165897 28.283871,6.0479261 26.843318,5.1843316 27.01659,3.8018431 29.83871,2.9382487 32.084793,4.2046081 " />
			<polygon id="polygon104" points="33.986175,1.3253454 31.912442,0.97880165 32.258065,2.0165897 " />
			<polygon id="polygon112" points="37.000922,40.495853 36.482028,39.688479 37.692166,39.458064 38.670968,40.322581 40.226728,40.840553 38.786175,41.24424 37.576959,41.878341 " />
			<polygon id="polygon126" points="6.7400922,42.991705 5.7023041,43.22212 4.6082949,41.20553 6.6820276,40.168664 8.0073733,40.57235 10.599078,39.535484 10.9447,41.320737 13.364055,43.164055 12.039631,43.279263 11.117972,44.892166 9.3317972,42.991705 " />
			<polygon id="polygon128" points="15.726267,42.242396 17.108756,40.514286 19.470046,41.378802 18.26083,41.896774 " />
			<polygon id="polygon130" points="23.156682,41.666359 21.256221,40.57235 22.293088,39.362212 24.136406,40.226728 25.921659,40.629493 25.979724,42.588018 24.251613,42.76129 " />
			<polygon id="polygon140" points="10.393565,46.061413 11.315224,47.213487 13.447021,47.904731 12.870984,49.172012 10.336422,49.517635 7.3401088,47.674317 7.6866526,46.752658 " />
			<polygon id="polygon16" points="0.74838706,10.9447 0.51889397,13.364055 1.8433179,12.672811 2.5345622,12.499539 2.591705,10.368663 " />
			<polygon id="polygon18" points="14.343779,10.311521 12.270046,9.6774192 11.635945,10.656221 10.714286,10.9447 9.562212,12.615668 8.5834101,11.751152 6.3364055,11.23318 7.2580645,9.9649768 7.2009217,8.7557602 8.4101382,7.7769584 10.829493,8.3520736 13.076498,8.064516 15.207373,9.4470044 " />
			<polygon id="polygon20" points="15.898618,13.421198 17.396313,14.689401 16.935484,15.322581 16.24424,15.552995 15.726267,16.532719 13.133641,17.338249 13.767742,14.746544 13.364055,12.729954 15.78341,12.788018 " />
			<polygon id="polygon22" points="18.836866,13.767742 18.317972,12.960369 19.528111,12.729954 20.506912,13.59447 22.062673,14.112442 20.62212,14.516129 19.412903,15.15023 " />
			<polygon id="polygon24" points="4.3198156,18.145622 5.0691244,15.898617 4.0894009,14.689401 7.0276498,14.055299 8.1225806,15.264516 10.311521,16.129032 8.4101382,17.799078 9.5050691,19.700461 8.0645161,19.700461 5.4147465,20.680184 4.7806451,20.62212 " />
			<polygon id="polygon28" points="25.115207,11.23318 26.843318,9.3317971 27.823042,10.714286 29.089401,11.635945 27.707834,12.960369 27.18894,14.516129 24.423963,13.190783 22.984332,13.018433 24.251613,11.347465 " />
			<polygon id="polygon30" points="18.548387,17.223963 21.658986,16.532719 23.041475,15.322581 25,16.532719 26.670968,16.763134 29.435023,19.470046 27.18894,21.543779 24.942857,19.872811 21.658986,19.872811 19.758525,18.202765 " />
			<polygon id="polygon32" points="13.133641,20.737327 14.574194,19.642396 16.417512,21.255299 14.861751,22.465438 " />
			<polygon id="polygon36" points="7.5465438,25.863594 6.5096774,26.094009 5.4147465,24.078341 7.4884793,23.041475 8.8138249,23.445161 11.40553,22.407373 11.751152,24.193548 14.170507,26.036866 12.846083,26.152074 11.924424,27.764977 10.138249,25.863594 " />
			<polygon id="polygon38" points="16.532719,25.115207 17.915207,23.387097 20.276498,24.250691 19.067281,24.769585 " />
			<polygon id="polygon40" points="23.963134,24.53917 22.062673,23.445161 23.099539,22.235023 24.942857,23.098617 26.728111,23.502304 26.786175,25.460829 25.058065,25.63318 " />
			<polygon id="polygon42" points="30.414747,22.119816 30.702304,20.391705 32.834101,20.391705 32.315207,21.658986 " />
			<polygon id="polygon46" points="36.290323,10.368663 33.812903,10.081106 36.059908,8.064516 " />
			<polygon id="polygon58" points="47.972777,19.806795 47.85757,18.482371 45.66863,18.309099 46.186602,19.345966 " />
			<polygon id="polygon60" points="49.502143,21.029035 48.753756,22.584795 44.663434,21.836408 46.161129,20.971892 " />
			<polygon id="polygon86" points="20.564977,34.505069 24.654378,34.562212 23.847926,37.096774 21.371429,37.211982 21.198157,35.829493 " />
			<polygon id="polygon88" points="25.691244,36.981567 27.073733,37.614747 26.786175,38.76682 25.230415,38.882949 25.46083,37.845161 " />
			<polygon id="polygon90" points="17.050691,33.58341 19.009217,33.525346 18.606452,34.21659 18.606452,35.368664 17.857143,35.310599 " />
			<polygon id="polygon92" points="17.511521,38.997235 17.915207,36.462673 19.412903,36.40553 19.643318,37.96129 20.16129,38.59447 19.470046,39.113364 18.548387,38.76682 " />
			<polygon id="polygon94" points="11.924424,36.001843 12.788018,34.562212 14.746544,34.792627 14.516129,35.829493 14.574194,37.500461 12.730876,37.384332 10.9447,37.96129 " />
			<polygon id="polygon96" points="9.0442396,30.588018 9.3898618,29.666359 12.096774,28.975115 13.018433,30.127189 15.15023,30.818433 14.574194,32.084793 12.039631,32.431336 " />
			<polygon id="polygon98" points="4.8958525,28.245161 5.5299539,29.051613 4.1474654,29.684793 2.1308755,30.894931 1.3244239,31.412903 1.2092166,29.397235 0.46082946,28.071889 0.46082946,27.61106 4.5502304,27.43871 " />
			<path id="path138" d="m 17.932162,46.788988 c 1.210139,-0.634101 2.188941,-1.267281 2.188941,-1.267281 0,0 0.978801,0.806452 1.09493,1.267281 0.116129,0.46083 1.094931,0.921659 1.670046,1.094931 0.575116,0.173272 0,1.497696 0,1.497696 0,0 -0.576036,0.05714 -0.921659,0.230415 C 21.87643,49.65615 21.777198,49.800126 21.677219,50 m -4.407275,0 c -0.06192,-0.559354 -0.820415,-0.997198 -1.239167,-1.137279 -0.517972,-0.173272 -1.094931,-0.517973 -1.094931,-0.517973 l 0.05807,-0.634101 c 0,0 1.72811,-0.287558 2.938248,-0.921659 h -5e-6" />
			<path d="m 21.677219,0 c -0.29271,0.585178 -0.591864,1.614435 -0.634458,1.742905 -0.05714,0.17235 -1.55576,0 -1.958525,0 -0.402765,0 -1.670968,-0.345622 -1.670968,-0.345622 0,0 -0.634101,-0.230415 -0.230414,-0.978802 C 17.260184,0.275125 17.284617,0.132534 17.269944,0" id="path1522" />
			<path d="M 50,6.8085591 49.34188,5.9446228 50,5.180097" id="path1527" />
			<path id="path1530" d="M 41.809761,50 40.610138,49.605599 39.204211,50" />
			<line id="line296" y2="45.68211" x2="5.8486133" y1="44.356766" x1="6.5398664" />
			<line id="line298" y2="45.536907" x2="5.0802078" y1="44.269627" x1="5.5410485" />
			<line id="line300" y2="45.366482" x2="4.1485267" y1="44.272472" x1="4.6665115" />
			<line id="line302" y2="45.208435" x2="3.2440071" y1="44.517189" x1="3.474422" />
			<polygon id="polygon132" points="6.4676409,45.899121 2.3782399,45.150734 3.8750141,44.286218 7.216028,44.344282 " />
			<path id="path1525" d="M 0,5.180097 1.6451061,3.2948532 5.1013273,3.525268 4.583355,5.6561436 5.0441845,6.7510745 3.7769034,7.3842542 3.5464886,8.4211205 1.299484,8.8248072 0.3206821,7.211904 0,6.8085591" />
			<path d="M 39.204211,0 38.479263,0.1816355 37.960369,0.7005295 39.285714,2.3134328 40.78341,1.8526033 41.820277,2.2553682 42.857143,1.161359 42.396314,0.1816355 41.809761,0" id="polygon106" />
			<polygon points="17.42859758,10.2960769 20.07836658,12.1393949 22.09495658,11.3329439 23.76500258,9.085939 25.03228358,8.0499943 23.36223758,6.320962 23.07375858,5.1688883 20.13643158,4.7661233 18.92629358,5.9762615 17.77421958,6.9550634 18.29311358,8.7412385" id="polygon14" />
		</g>
	</g>
</svg>
