<?xml version="1.0" encoding="UTF-8" standalone="no"?>
<svg xmlns:dc="http://purl.org/dc/elements/1.1/" xmlns:cc="http://creativecommons.org/ns#" xmlns:rdf="http://www.w3.org/1999/02/22-rdf-syntax-ns#" xmlns:svg="http://www.w3.org/2000/svg" xmlns="http://www.w3.org/2000/svg" version="1.1" x="0px" y="0px" xml:space="preserve" width="50.00" height="50.00" viewBox="0 0 50.00 50.00">
	<metadata id="metadata2">
		<rdf:RDF>
			<ns:item rdf:ID="biblio1">
				<ns:link>rdf:resource=&quot;http://pubs.usgs.gov/tm/2006/11A02/</ns:link>
				<ns:title>U.S. Geological Survey, 2006, FGDC Digital Cartographic Standard for Geologic Map Symbolization (PostScript Implementation): U.S. Geological Survey Techniques and Methods 11-A2</ns:title>
			</ns:item>
			<ns:item rdf:ID="biblio2">
				<ns:link>https://davenquinn.com/projects/geologic-patterns/</ns:link>
				<ns:title>FGDC Geologic Patterns for the Web</ns:title>
			</ns:item>
			<rdf:Description>
				<dc:description>
					Converted from 'FGDC Geologic Patterns for the Web' to QGIS compatible svg symbols, with customisable fill colour/stroke colour/stroke width (when appropriate).
					SVG scaled to 50x50 pixels so that base outline-width is 0.387 px and width is 90 in the QGIS xml definition file. 
					Some of the original FGDC symbols have been omitted from this set because they can be generated from other symbols using the 'texture width' and/or 'stroke width' fields in QGIS symbology form.
				</dc:description>
				<dc:date>01 MARCH 2019</dc:date>
				<dc:creator>GeoProc.com</dc:creator>
				<dc:publisher rdf:resource="https://github.com/BC-Consulting/QGIS-FGDC-Fill" />
			</rdf:Description>
			<cc:Work rdf:about="">
				<dc:format>image/svg+xml</dc:format>
				<dc:type rdf:resource="http://purl.org/dc/dcmitype/StillImage" />
				<dc:title>FGDC fill symbol: Lithology - Metamorphism, Igneous and vein - 720 Banded Igneous Rock</dc:title>
			</cc:Work>
		</rdf:RDF>
	</metadata>
	<path style="fill:none;stroke:none;stroke-width:0;" id="rect1500" width="50.00" height="50.00" x="0.0" y="0.0" />
	<g style="fill:none;stroke-linecap:square;" stroke="param(outline) #000" stroke-width="param(outline-width) 0.4">
		<line id="line5" y2="49.999081" x2="0.59356177" y1="49.328316" x1="0" />
		<line id="line7" y2="32.803963" x2="0.33037007" y1="33.018349" x1="0" />
		<line id="line9" y2="4.714673" x2="2.1092153" y1="2.3306539" x1="0" />
		<line id="line11" y2="42.120132" x2="0.93957633" y1="44.549236" x1="0" />
		<line id="line13" y2="6.0433197" x2="8.5712175" y1="6.0157175" x1="8.5960646" />
		<line id="line15" y2="43.55735" x2="10.200063" y1="42.868183" x1="8.7617102" />
		<line id="line17" y2="40.04987" x2="10.487181" y1="42.868183" x1="8.7617102" />
		<line id="line19" y2="21.302515" x2="8.8187656" y1="23.473989" x1="9.1049643" />
		<line id="line21" y2="23.487791" x2="9.1068048" y1="23.473989" x1="9.1049643" />
		<line id="line23" y2="0.31283981" x2="9.2788906" y1="0.32664451" x1="9.3074188" />
		<line id="line25" y2="0.019326247" x2="9.7491398" y1="0.32664451" x1="9.3074188" />
		<line id="line27" y2="5.1232042" x2="3.2650504" y1="0.32664451" x1="9.3074188" />
		<line id="line29" y2="43.558273" x2="10.199142" y1="43.55735" x1="10.200063" />
		<line id="line31" y2="6.712245" x2="10.620617" y1="6.6984439" x1="10.63166" />
		<line id="line33" y2="2.6894984" x2="13.957448" y1="6.6984439" x1="10.63166" />
		<line id="line35" y2="5.5492191" x2="6.5006528" y1="1.0792962" x1="10.81295" />
		<line id="line37" y2="44.190392" x2="7.2663026" y1="43.903316" x1="10.832275" />
		<line id="line39" y2="27.677998" x2="11.751606" y1="21.302515" x1="11.004361" />
		<line id="line41" y2="48.905983" x2="6.9782634" y1="48.905983" x1="11.119393" />
		<line id="line43" y2="27.686279" x2="11.752526" y1="27.677998" x1="11.751606" />
		<line id="line45" y2="43.55735" x2="10.200063" y1="40.73996" x1="11.752526" />
		<line id="line47" y2="43.55735" x2="10.200063" y1="44.302647" x1="11.753446" />
		<line id="line49" y2="44.305405" x2="11.752526" y1="44.302647" x1="11.753446" />
		<line id="line51" y2="41.430046" x2="13.074926" y1="44.302647" x1="11.753446" />
		<line id="line53" y2="7.4667397" x2="12.31848" y1="7.467659" x1="12.31756" />
		<line id="line55" y2="3.379585" x2="15.490586" y1="7.4667397" x1="12.31848" />
		<line id="line57" y2="6.0157175" x2="8.5960646" y1="1.9230419" x1="12.423389" />
		<line id="line59" y2="23.902763" x2="13.387813" y1="21.247311" x1="13.247934" />
		<line id="line61" y2="21.245468" x2="13.535053" y1="21.247311" x1="13.247934" />
		<line id="line63" y2="21.302515" x2="6.2935967" y1="21.247311" x1="13.247934" />
		<line id="line65" y2="21.247311" x2="13.247934" y1="21.245468" x1="13.247934" />
		<line id="line67" y2="42.005116" x2="14.455304" y1="44.995491" x1="13.30499" />
		<line id="line69" y2="23.902763" x2="13.387813" y1="23.890802" x1="13.362966" />
		<line id="line71" y2="31.432068" x2="13.786281" y1="23.902763" x1="13.387813" />
		<line id="line73" y2="24.982979" x2="15.720649" y1="23.902763" x1="13.387813" />
		<line id="line75" y2="8.1779881" x2="13.461432" y1="8.1402626" x1="13.501923" />
		<line id="line77" y2="4.3760705" x2="17.561152" y1="8.1402626" x1="13.501923" />
		<line id="line79" y2="27.374359" x2="16.696115" y1="26.133123" x1="13.535053" />
		<line id="line81" y2="42.75317" x2="15.778625" y1="47.430119" x1="13.573703" />
		<line id="line83" y2="49.991718" x2="16.953785" y1="47.430119" x1="13.573703" />
		<line id="line85" y2="31.432068" x2="13.786281" y1="31.423788" x1="13.765116" />
		<line id="line87" y2="32.582214" x2="16.801943" y1="31.432068" x1="13.786281" />
		<line id="line89" y2="31.432068" x2="13.786281" y1="32.113876" x1="13.823092" />
		<line id="line91" y2="48.656631" x2="11.65682" y1="49.99448" x1="13.923398" />
		<line id="line93" y2="8.5359125" x2="14.053154" y1="8.5414333" x1="14.112049" />
		<line id="line95" y2="9.1303072" x2="21.6259" y1="8.5414333" x1="14.112049" />
		<line id="line97" y2="44.302647" x2="11.753446" y1="45.570564" x1="14.398248" />
		<line id="line99" y2="43.845348" x2="17.274033" y1="48.215897" x1="14.685367" />
		<line id="line101" y2="33.954105" x2="14.800398" y1="33.931103" x1="14.834446" />
		<line id="line103" y2="47.506489" x2="18.174959" y1="47.583778" x1="15.145493" />
		<line id="line105" y2="7.8265038" x2="22.162407" y1="6.1399317" x1="15.79795" />
		<line id="line107" y2="35.852303" x2="16.123718" y1="35.852303" x1="16.123718" />
		<line id="line109" y2="47.583778" x2="16.813908" y1="49.366039" x1="16.180775" />
		<line id="line111" y2="45.398502" x2="18.884472" y1="45.110508" x1="16.583845" />
		<line id="line113" y2="27.398283" x2="16.755932" y1="27.374359" x1="16.696115" />
		<line id="line115" y2="33.931103" x2="14.834446" y1="32.582214" x1="16.801943" />
		<line id="line117" y2="32.573933" x2="16.813908" y1="32.582214" x1="16.801943" />
		<line id="line119" y2="0.6956082" x2="17.868515" y1="3.9532875e-007" x1="16.911453" />
		<line id="line121" y2="10.66414" x2="22.54615" y1="10.894169" x1="16.928938" />
		<line id="line123" y2="4.2417336" x2="4.3518672" y1="0.0055215657" x1="0.60368466" />
		<line id="line125" y2="42.75317" x2="2.7221026" y1="47.755836" x1="0.82454497" />
		<line id="line127" y2="39.015659" x2="0" y1="38.439671" x1="1.0196381" />
		<line id="line129" y2="40.665428" x2="0" y1="40.164886" x1="1.0546077" />
		<line id="line131" y2="34.688358" x2="0" y1="33.954105" x1="1.0776138" />
		<line id="line133" y2="39.416832" x2="1.1181051" y1="40.164886" x1="1.1116633" />
		<line id="line135" y2="46.030621" x2="4.9656744" y1="40.164886" x1="1.1116633" />
		<line id="line137" y2="39.417751" x2="1.1116633" y1="39.416832" x1="1.1181051" />
		<line id="line139" y2="36.917797" x2="0" y1="36.21299" x1="1.1447923" />
		<line id="line141" y2="39.416832" x2="1.1181051" y1="36.21299" x1="1.1447923" />
		<line id="line143" y2="33.321987" x2="1.1696391" y1="36.21299" x1="1.1447923" />
		<line id="line145" y2="37.462505" x2="5.8859253" y1="38.152592" x1="1.1696391" />
		<line id="line147" y2="36.082333" x2="3.9874477" y1="36.714451" x1="1.1696391" />
		<line id="line149" y2="34.817173" x2="2.6070712" y1="35.047203" x1="1.1696391" />
		<line id="line151" y2="37.388897" x2="17.239063" y1="37.404537" x1="17.216057" />
		<line id="line153" y2="0.32664451" x2="9.3074188" y1="4.3760705" x1="17.561152" />
		<line id="line155" y2="0.0055215657" x2="17.949495" y1="4.3760705" x1="17.561152" />
		<line id="line157" y2="5.1692095" x2="19.46331" y1="4.3760705" x1="17.561152" />
		<line id="line159" y2="0.019326247" x2="13.847016" y1="2.3058105" x1="17.714832" />
		<line id="line161" y2="49.991718" x2="17.938454" y1="47.506489" x1="18.174959" />
		<line id="line163" y2="39.417751" x2="18.826496" y1="36.542389" x1="18.481401" />
		<line id="line165" y2="13.13649" x2="18.482323" y1="13.13649" x1="18.481401" />
		<line id="line167" y2="28.548428" x2="13.650084" y1="31.021698" x1="18.596434" />
		<line id="line169" y2="35.852303" x2="16.123718" y1="33.609062" x1="19.344597" />
		<line id="line171" y2="5.2004938" x2="19.459629" y1="5.1692095" x1="19.46331" />
		<line id="line173" y2="0.0055215657" x2="20.05043" y1="5.1692095" x1="19.46331" />
		<line id="line175" y2="15.436779" x2="19.631716" y1="15.434939" x1="19.635397" />
		<line id="line177" y2="41.833054" x2="20.89706" y1="35.162216" x1="20.436935" />
		<line id="line179" y2="32.582214" x2="16.801943" y1="34.000111" x1="20.520678" />
		<line id="line181" y2="34.012074" x2="20.551968" y1="34.000111" x1="20.520678" />
		<line id="line183" y2="37.388897" x2="17.239063" y1="34.759209" x1="21.012093" />
		<line id="line185" y2="5.8335328" x2="21.319456" y1="1.155666" x1="21.932344" />
		<line id="line187" y2="19.327948" x2="26.380836" y1="13.960914" x1="22.009644" />
		<line id="line189" y2="36.915035" x2="22.623451" y1="36.887432" x1="22.622532" />
		<line id="line191" y2="5.1692095" x2="19.46331" y1="6.5687084" x1="22.824066" />
		<line id="line193" y2="9.1303072" x2="21.6259" y1="6.5687084" x1="22.824066" />
		<line id="line195" y2="6.580667" x2="22.852594" y1="6.5687084" x1="22.824066" />
		<line id="line197" y2="4.4055152" x2="23.836344" y1="6.5687084" x1="22.824066" />
		<line id="line199" y2="36.915035" x2="22.623451" y1="44.02293" x1="22.850754" />
		<line id="line201" y2="44.02293" x2="22.850754" y1="44.075378" x1="22.852594" />
		<line id="line203" y2="6.2935905" x2="25.153223" y1="11.124197" x1="22.929895" />
		<line id="line205" y2="13.13649" x2="18.482323" y1="12.964428" x1="23.159958" />
		<line id="line207" y2="21.245468" x2="21.070068" y1="21.01544" x1="23.427752" />
		<line id="line209" y2="15.434939" x2="19.635397" y1="12.604664" x1="23.815176" />
		<line id="line211" y2="9.1303072" x2="21.6259" y1="12.604664" x1="23.815176" />
		<line id="line213" y2="12.58074" x2="23.850147" y1="12.604664" x1="23.815176" />
		<line id="line215" y2="4.3760705" x2="23.850147" y1="4.4055152" x1="23.836344" />
		<line id="line217" y2="28.069048" x2="22.54615" y1="27.906187" x1="24.401377" />
		<line id="line219" y2="32.631901" x2="24.002909" y1="27.906187" x1="24.401377" />
		<line id="line221" y2="27.906187" x2="24.401377" y1="27.858341" x1="24.405977" />
		<line id="line223" y2="42.638157" x2="24.751072" y1="39.246609" x1="24.463034" />
		<line id="line225" y2="39.246609" x2="24.463034" y1="39.24477" x1="24.463034" />
		<line id="line227" y2="10.116673" x2="25.938194" y1="13.481534" x1="24.463034" />
		<line id="line229" y2="11.124197" x2="30.368282" y1="12.044312" x1="25.153223" />
		<line id="line231" y2="13.194457" x2="30.674726" y1="14.881029" x1="25.306904" />
		<line id="line233" y2="15.187428" x2="20.169142" y1="22.088297" x1="25.460587" />
		<line id="line235" y2="27.801292" x2="26.016417" y1="33.839092" x1="25.613348" />
		<line id="line237" y2="10.126792" x2="25.84341" y1="10.116673" x1="25.938194" />
		<line id="line239" y2="8.0565329" x2="26.840961" y1="10.116673" x1="25.938194" />
		<line id="line241" y2="9.8203936" x2="28.681463" y1="10.116673" x1="25.938194" />
		<line id="line243" y2="44.420418" x2="23.255665" y1="41.113525" x1="26.049545" />
		<line id="line245" y2="41.085003" x2="26.073473" y1="41.113525" x1="26.049545" />
		<line id="line247" y2="36.21299" x2="1.1447923" y1="36.100735" x1="1.327002" />
		<line id="line249" y2="42.57375" x2="0" y1="41.545059" x1="1.9748588" />
		<line id="line251" y2="47.147644" x2="0" y1="49.020996" x1="2.2049215" />
		<line id="line253" y2="19.405237" x2="20.859331" y1="22.548353" x1="26.227156" />
		<line id="line255" y2="22.855673" x2="21.357187" y1="22.548353" x1="26.227156" />
		<line id="line257" y2="21.08169" x2="26.365192" y1="21.091808" x1="26.303535" />
		<line id="line259" y2="22.548353" x2="26.227156" y1="22.553873" x1="26.332983" />
		<line id="line261" y2="23.928528" x2="26.303535" y1="22.553873" x1="26.332983" />
		<line id="line263" y2="21.08169" x2="26.365192" y1="22.553873" x1="26.332983" />
		<line id="line265" y2="23.085701" x2="36.426296" y1="22.553873" x1="26.332983" />
		<line id="line267" y2="12.604664" x2="23.815176" y1="16.79763" x1="26.457218" />
		<line id="line269" y2="21.08169" x2="26.365192" y1="16.79763" x1="26.457218" />
		<line id="line271" y2="15.445982" x2="30.371046" y1="16.79763" x1="26.457218" />
		<line id="line273" y2="24.925932" x2="21.817312" y1="24.465874" x1="26.476543" />
		<line id="line275" y2="43.500305" x2="24.060884" y1="47.468761" x1="26.763662" />
		<line id="line277" y2="46.145638" x2="29.754477" y1="42.235146" x1="27.051701" />
		<line id="line279" y2="26.536135" x2="22.220383" y1="25.961061" x1="27.108755" />
		<line id="line281" y2="23.928528" x2="26.303535" y1="25.961061" x1="27.108755" />
		<line id="line283" y2="25.961061" x2="27.108755" y1="25.961061" x1="27.108755" />
		<line id="line285" y2="47.410793" x2="31.019821" y1="48.618908" x1="27.741888" />
		<line id="line287" y2="27.906187" x2="24.401377" y1="27.60899" x1="27.761213" />
		<line id="line289" y2="25.961061" x2="27.108755" y1="27.60899" x1="27.761213" />
		<line id="line291" y2="34.184135" x2="27.396793" y1="27.60899" x1="27.761213" />
		<line id="line293" y2="24.047222" x2="28.232382" y1="24.005817" x1="28.221336" />
		<line id="line295" y2="23.928528" x2="26.303535" y1="24.047222" x1="28.232382" />
		<line id="line297" y2="27.686279" x2="29.21797" y1="24.047222" x1="28.232382" />
		<line id="line299" y2="42.293114" x2="25.096167" y1="46.778675" x1="28.3741" />
		<line id="line301" y2="16.184834" x2="28.297718" y1="20.631752" x1="28.527781" />
		<line id="line303" y2="48.963951" x2="31.364916" y1="49.711082" x1="29.29435" />
		<line id="line305" y2="34.47213" x2="29.007231" y1="27.801292" x1="29.409382" />
		<line id="line307" y2="33.66703" x2="24.521009" y1="34.663513" x1="29.984539" />
		<line id="line309" y2="27.916307" x2="30.98209" y1="24.235846" x1="30.214602" />
		<line id="line311" y2="15.417457" x2="30.368282" y1="15.445982" x1="30.371046" />
		<line id="line313" y2="20.248064" x2="30.752028" y1="15.445982" x1="30.371046" />
		<line id="line315" y2="47.583778" x2="26.533598" y1="45.800594" x1="30.61767" />
		<line id="line317" y2="15.445982" x2="30.371046" y1="15.341087" x1="30.674726" />
		<line id="line319" y2="11.430596" x2="30.752028" y1="15.341087" x1="30.674726" />
		<line id="line321" y2="34.184135" x2="30.674726" y1="28.088369" x1="31.019821" />
		<line id="line323" y2="13.730885" x2="33.435478" y1="16.64489" x1="31.594978" />
		<line id="line325" y2="35.392246" x2="25.441261" y1="36.599438" x1="31.652954" />
		<line id="line327" y2="0.0055215657" x2="31.720133" y1="1.6930131" x1="32.228111" />
		<line id="line329" y2="34.663513" x2="29.984539" y1="37.226955" x1="32.291607" />
		<line id="line331" y2="37.232479" x2="32.285168" y1="37.226955" x1="32.291607" />
		<line id="line333" y2="40.797924" x2="35.506046" y1="37.226955" x1="32.291607" />
		<line id="line335" y2="28.606394" x2="32.745293" y1="32.976944" x1="32.515228" />
		<line id="line337" y2="27.60899" x2="27.761213" y1="28.146336" x1="32.515228" />
		<line id="line339" y2="15.034688" x2="35.045918" y1="18.177803" x1="32.592529" />
		<line id="line341" y2="47.410793" x2="32.688236" y1="47.476124" x1="32.700199" />
		<line id="line343" y2="24.312216" x2="32.132404" y1="27.226221" x1="32.822594" />
		<line id="line345" y2="37.577522" x2="26.878693" y1="37.97961" x1="32.918297" />
		<line id="line347" y2="24.925932" x2="35.966171" y1="26.766163" x1="33.052654" />
		<line id="line349" y2="27.148932" x2="35.506046" y1="29.008486" x1="33.148361" />
		<line id="line351" y2="15.341087" x2="30.674726" y1="19.782484" x1="33.514622" />
		<line id="line353" y2="16.79763" x2="36.426296" y1="19.782484" x1="33.514622" />
		<line id="line355" y2="35.794338" x2="36.944397" y1="38.554684" x1="33.55051" />
		<line id="line357" y2="24.047222" x2="28.232382" y1="24.388584" x1="33.819225" />
		<line id="line359" y2="28.146336" x2="32.515228" y1="24.388584" x1="33.819225" />
		<line id="line361" y2="23.392099" x2="36.273533" y1="24.388584" x1="33.819225" />
		<line id="line363" y2="29.37285" x2="35.583344" y1="30.753023" x1="34.125668" />
		<line id="line365" y2="0.0055215657" x2="33.360023" y1="2.8431575" x1="34.183643" />
		<line id="line367" y2="39.704826" x2="28.949257" y1="39.647781" x1="34.355732" />
		<line id="line369" y2="48.738522" x2="34.560947" y1="48.762444" x1="34.566467" />
		<line id="line371" y2="49.999081" x2="34.834263" y1="48.762444" x1="34.566467" />
		<line id="line373" y2="34.663513" x2="29.984539" y1="31.908689" x1="34.729355" />
		<line id="line375" y2="28.146336" x2="32.515228" y1="31.908689" x1="34.729355" />
		<line id="line377" y2="35.967319" x2="37.116486" y1="31.908689" x1="34.729355" />
		<line id="line379" y2="38.443348" x2="36.996853" y1="39.934856" x1="34.815857" />
		<line id="line381" y2="41.775089" x2="48.792629" y1="41.948071" x1="35.275982" />
		<line id="line383" y2="35.794338" x2="31.077797" y1="32.918976" x1="35.275982" />
		<line id="line385" y2="16.882284" x2="0" y1="17.021217" x1="2.2463326" />
		<line id="line387" y2="49.999081" x2="3.1518598" y1="49.020996" x1="2.2849834" />
		<line id="line389" y2="46.030621" x2="4.9656744" y1="49.020996" x1="2.2849834" />
		<line id="line391" y2="15.337408" x2="0" y1="15.411016" x1="2.3033884" />
		<line id="line393" y2="19.405237" x2="2.1469457" y1="15.338328" x1="2.3144312" />
		<line id="line395" y2="19.021549" x2="37.270164" y1="21.168179" x1="35.353283" />
		<line id="line397" y2="41.603027" x2="32.170135" y1="40.797924" x1="35.506046" />
		<line id="line399" y2="42.75317" x2="35.045918" y1="40.797924" x1="35.506046" />
		<line id="line401" y2="40.681072" x2="36.888264" y1="40.797924" x1="35.506046" />
		<line id="line403" y2="0.0055215657" x2="34.812176" y1="3.5902915" x1="35.621075" />
		<line id="line405" y2="21.551867" x2="26.457218" y1="21.551867" x1="35.736107" />
		<line id="line407" y2="37.226955" x2="32.291607" y1="34.127087" x1="36.024147" />
		<line id="line409" y2="35.334278" x2="38.841953" y1="30.906683" x1="36.0812" />
		<line id="line411" y2="49.999081" x2="36.54501" y1="49.824257" x1="36.522003" />
		<line id="line413" y2="49.824257" x2="36.522003" y1="49.821499" x1="36.522003" />
		<line id="line415" y2="1.2320358" x2="36.716175" y1="0.0055215657" x1="36.551453" />
		<line id="line417" y2="1.2329553" x2="36.714333" y1="1.2320358" x1="36.716175" />
		<line id="line419" y2="40.681072" x2="36.888264" y1="40.720634" x1="36.886421" />
		<line id="line421" y2="38.443348" x2="36.996853" y1="40.681072" x1="36.888264" />
		<line id="line423" y2="2.0951037" x2="42.062832" y1="2.7851906" x1="36.944397" />
		<line id="line425" y2="44.133343" x2="36.944397" y1="44.133343" x1="36.99593" />
		<line id="line427" y2="44.190392" x2="48.734653" y1="44.133343" x1="36.99593" />
		<line id="line429" y2="38.439671" x2="37.001453" y1="38.443348" x1="36.996853" />
		<line id="line431" y2="38.443348" x2="36.996853" y1="35.967319" x1="37.116486" />
		<line id="line433" y2="1.2320358" x2="36.716175" y1="4.2224112" x1="37.116486" />
		<line id="line435" y2="4.223331" x2="37.116486" y1="4.2224112" x1="37.116486" />
		<line id="line437" y2="3.5902915" x2="43.903336" y1="3.9933019" x1="37.116486" />
		<line id="line439" y2="45.229202" x2="38.360664" y1="45.225521" x1="38.324772" />
		<line id="line441" y2="45.731583" x2="44.457329" y1="45.229202" x1="38.360664" />
		<line id="line443" y2="34.874222" x2="40.625401" y1="31.366741" x1="38.554836" />
		<line id="line445" y2="35.679321" x2="38.554836" y1="40.452881" x1="38.726925" />
		<line id="line447" y2="1.2320358" x2="36.716175" y1="0.88791203" x1="39.820183" />
		<line id="line449" y2="40.337868" x2="40.682457" y1="35.104252" x1="40.165276" />
		<line id="line451" y2="5.258461" x2="39.762207" y1="3.8203204" x1="40.567425" />
		<line id="line453" y2="45.513515" x2="41.085526" y1="47.698792" x1="41.200558" />
		<line id="line455" y2="6.3506384" x2="41.31559" y1="6.3221164" x1="41.330315" />
		<line id="line457" y2="35.967319" x2="37.116486" y1="34.663513" x1="41.487675" />
		<line id="line459" y2="37.279404" x2="43.459774" y1="34.663513" x1="41.487675" />
		<line id="line461" y2="34.663513" x2="41.487675" y1="31.903168" x1="41.564976" />
		<line id="line463" y2="3.9933019" x2="44.363461" y1="7.5007825" x1="42.407928" />
		<line id="line465" y2="40.681072" x2="36.888264" y1="40.204449" x1="42.521118" />
		<line id="line467" y2="35.449295" x2="42.062832" y1="40.204449" x1="42.521118" />
		<line id="line469" y2="39.954178" x2="45.476044" y1="40.204449" x1="42.521118" />
		<line id="line471" y2="40.204449" x2="42.521118" y1="40.222851" x1="42.522961" />
		<line id="line473" y2="31.883846" x2="48.389561" y1="36.024364" x1="42.522961" />
		<line id="line475" y2="6.3221164" x2="41.330315" y1="3.7053061" x1="42.695965" />
		<line id="line477" y2="49.424007" x2="43.213146" y1="45.685577" x1="42.983086" />
		<line id="line479" y2="8.5938797" x2="42.983086" y1="8.5662775" x1="43.002411" />
		<line id="line481" y2="5.258461" x2="45.341686" y1="8.5662775" x1="43.002411" />
		<line id="line483" y2="8.3058834" x2="46.952126" y1="8.0758553" x1="43.386154" />
		<line id="line485" y2="37.289524" x2="43.443211" y1="37.279404" x1="43.459774" />
		<line id="line487" y2="39.954178" x2="45.476044" y1="37.279404" x1="43.459774" />
		<line id="line489" y2="33.011906" x2="49.994476" y1="37.279404" x1="43.459774" />
		<line id="line491" y2="9.8010712" x2="43.501186" y1="9.8010712" x1="43.562843" />
		<line id="line493" y2="9.8010712" x2="47.527283" y1="9.8010712" x1="43.562843" />
		<line id="line495" y2="40.04987" x2="44.191372" y1="38.152592" x1="44.076344" />
		<line id="line497" y2="11.122358" x2="47.123295" y1="11.296259" x1="44.248428" />
		<line id="line499" y2="6.8686628" x2="46.203964" y1="6.6956816" x1="44.363461" />
		<line id="line501" y2="34.698479" x2="50" y1="38.497635" x1="44.421436" />
		<line id="line503" y2="45.731583" x2="44.457329" y1="45.685577" x1="44.421436" />
		<line id="line505" y2="46.088589" x2="48.792629" y1="45.731583" x1="44.457329" />
		<line id="line507" y2="3.0345416" x2="5.8472753" y1="0.0055215657" x1="3.1629031" />
		<line id="line509" y2="5.1232042" x2="3.2650504" y1="5.1434464" x1="3.2402036" />
		<line id="line511" y2="20.037357" x2="3.757385" y1="20.023556" x1="3.7583053" />
		<line id="line513" y2="20.023556" x2="3.7583053" y1="15.954803" x1="3.930392" />
		<line id="line515" y2="48.675953" x2="2.5500154" y1="44.478386" x1="3.930392" />
		<line id="line517" y2="14.344602" x2="45.456718" y1="14.297677" x1="45.458561" />
		<line id="line519" y2="11.239212" x2="45.571751" y1="14.297677" x1="45.458561" />
		<line id="line521" y2="39.704826" x2="48.792629" y1="39.954178" x1="45.476044" />
		<line id="line523" y2="34.663513" x2="41.487675" y1="31.711784" x1="45.513775" />
		<line id="line525" y2="16.581406" x2="47.009182" y1="16.586924" x1="47.009182" />
		<line id="line527" y2="11.122358" x2="47.123295" y1="16.581406" x1="47.009182" />
		<line id="line529" y2="11.122358" x2="47.123295" y1="11.06623" x1="47.124214" />
		<line id="line531" y2="11.122358" x2="47.123295" y1="11.068073" x1="48.0187" />
		<line id="line533" y2="11.068073" x2="48.0187" y1="11.06623" x1="48.044464" />
		<line id="line535" y2="16.762667" x2="48.547844" y1="16.759905" x1="48.504589" />
		<line id="line537" y2="17.910049" x2="48.447536" y1="16.762667" x1="48.547844" />
		<line id="line539" y2="16.870321" x2="49.995399" y1="16.762667" x1="48.547844" />
		<line id="line541" y2="15.264717" x2="48.680359" y1="15.264717" x1="48.677597" />
		<line id="line543" y2="16.762667" x2="48.547844" y1="15.264717" x1="48.680359" />
		<line id="line545" y2="41.257984" x2="48.792629" y1="41.775089" x1="48.792629" />
		<line id="line547" y2="46.088589" x2="48.792629" y1="41.775089" x1="48.792629" />
		<line id="line549" y2="39.704826" x2="48.792629" y1="41.257984" x1="48.792629" />
		<line id="line551" y2="40.68383" x2="50" y1="41.257984" x1="48.792629" />
		<line id="line553" y2="15.264717" x2="48.680359" y1="12.691156" x1="48.905819" />
		<line id="line555" y2="12.676433" x2="48.907661" y1="12.691156" x1="48.905819" />
		<line id="line557" y2="42.559948" x2="50" y1="43.126736" x1="48.907661" />
		<line id="line559" y2="44.544636" x2="49.996319" y1="46.433632" x1="49.309811" />
		<line id="line561" y2="39.781197" x2="45.361012" y1="36.910435" x1="49.996319" />
		<line id="line563" y2="15.301522" x2="48.687721" y1="15.338328" x1="49.996319" />
		<line id="line565" y2="46.088589" x2="48.792629" y1="47.175247" x1="49.996319" />
		<line id="line567" y2="39.704826" x2="48.792629" y1="39.000938" x1="49.998158" />
		<line id="line569" y2="0.0055215657" x2="47.882504" y1="2.3324966" x1="50" />
		<line id="line571" y2="42.063084" x2="7.4383888" y1="45.110508" x1="4.3905177" />
		<line id="line573" y2="41.102482" x2="6.2135353" y1="39.877808" x1="4.4475732" />
		<line id="line575" y2="16.370699" x2="5.6531019" y1="20.555382" x1="4.9656744" />
		<line id="line577" y2="42.868183" x2="8.7617102" y1="46.030621" x1="4.9656744" />
		<line id="line579" y2="42.638157" x2="2.8951097" y1="40.394913" x1="5.0807056" />
		<line id="line581" y2="39.416832" x2="1.1181051" y1="39.187721" x1="5.1957374" />
		<line id="line583" y2="19.290222" x2="11.752526" y1="19.290222" x1="5.1957374" />
		<line id="line585" y2="17.622053" x2="9.3368673" y1="17.737068" x1="5.4828558" />
		<line id="line587" y2="1.960767" x2="7.1126208" y1="0.0055215657" x1="5.5822425" />
		<line id="line589" y2="16.356895" x2="5.6558628" y1="16.370699" x1="5.6531019" />
		<line id="line591" y2="46.605694" x2="13.938123" y1="47.178005" x1="5.7570906" />
		<line id="line593" y2="46.030621" x2="4.9656744" y1="47.178005" x1="5.7570906" />
		<line id="line595" y2="47.180767" x2="5.7129183" y1="47.178005" x1="5.7570906" />
		<line id="line597" y2="41.430046" x2="9.5669298" y1="38.727665" x1="5.9429808" />
		<line id="line599" y2="42.868183" x2="8.7617102" y1="41.102482" x1="6.2135353" />
		<line id="line601" y2="43.7883" x2="3.5852978" y1="41.102482" x1="6.2135353" />
		<line id="line603" y2="41.085003" x2="6.23102" y1="41.102482" x1="6.2135353" />
		<line id="line605" y2="21.302515" x2="6.288075" y1="21.302515" x1="6.2935967" />
		<line id="line607" y2="5.5492191" x2="6.5006528" y1="5.5961437" x1="6.4546409" />
		<line id="line609" y2="41.603027" x2="2.2049215" y1="38.037579" x1="6.7482004" />
		<line id="line611" y2="1.0066084" x2="8.4359417" y1="0.019326247" x1="7.7080226" />
		<path id="path613" d="M-3.6e-08 32.543568C0.45644448 32.79384 0.93865602 33.106679 1.4567574 33.494968C1.4567574 33.494968 3.585298 36.428296 8.3015846 38.900647C13.017871 41.372997 14.229842 41.891022 14.229842 41.891022C16.960227 43.028285 19.46607 44.841832 21.523752 49.99908" />
		<path id="path615" d="M-3.6e-08 3.9997443C1.0490861 4.4864855 2.1368229 4.872934 3.2650507 5.1232054" />
		<path id="path617" d="M9.1049638 23.47399C8.2390075 22.609081 7.2709034 21.892311 6.2945171 21.303437" />
		<path id="path619" d="M10.63166 6.6984432C9.9239872 6.417808 9.2384002 6.1942199 8.5960649 6.0157175" />
		<path id="path621" d="M10.63166 6.6984432C11.184731 6.9183508 11.749765 7.1723027 12.31756 7.4667397" />
		<path id="path623" d="M11.751606 27.677997C11.189332 25.989585 10.235032 24.604812 9.1049638 23.47399" />
		<path id="path625" d="M12.729833 44.880477C12.729833 44.880477 5.8859256 45.45555 5.7129184 45.45555" />
		<path id="path627" d="M13.501923 8.1402642C13.108976 7.8945934 12.713268 7.6710053 12.31848 7.4667397" />
		<path id="path629" d="M14.11205 8.5414346C13.909594 8.401577 13.706219 8.2681603 13.501923 8.1402642" />
		<path id="path631" d="M14.11205 8.5414346C15.724329 9.6492537 17.262989 11.137081 18.482322 13.137412" />
		<path id="path633" d="M14.834447 33.931103C13.464193 31.783553 12.382898 29.693971 11.809582 27.85834C11.790252 27.79761 11.770932 27.737805 11.751602 27.677077" />
		<path id="path635" d="M14.834447 33.931103C15.240277 34.567822 15.671875 35.210063 16.123718 35.852304" />
		<path id="path637" d="M16.123718 35.852304C16.484457 36.364808 16.857159 36.878233 17.239063 37.388897" />
		<path id="path639" d="M16.696115 27.374359C16.633538 27.22346 16.577402 27.077162 16.525868 26.938225C14.685366 21.877589 11.69455 17.622055 6.6331695 16.586925C6.2899158 16.516996 5.964147 16.444307 5.6531021 16.370698" />
		<path id="path641" d="M16.696115 27.374359C17.37434 29.025047 18.739072 31.397104 20.520678 33.999191" />
		<path id="path643" d="M18.482322 13.136492C18.909318 13.83762 19.296744 14.602236 19.634476 15.43494" />
		<path id="path645" d="M19.635396 15.43494C20.070675 16.506875 20.422211 17.691984 20.667918 19.002228C20.667918 19.002228 20.901662 20.324434 20.901662 20.324434C21.840318 26.034671 23.618243 39.345982 33.379346 42.120131C34.536101 42.448612 35.737029 43.177343 36.996853 44.133344" />
		<path id="path647" d="M20.520678 34.000111C21.170375 34.94875 21.876208 35.928673 22.623452 36.915037" />
		<path id="path649" d="M22.850754 44.02293C20.966079 42.03456 19.000423 39.738872 17.239063 37.388897" />
		<path id="path651" d="M22.850754 44.02293C25.247087 46.551407 27.512745 48.583022 29.064289 49.59699C29.205087 49.68992 29.311836 49.76077 29.393738 49.816897C29.471038 49.871187 29.58331 49.939273 29.679016 49.99816" />
		<path id="path653" d="M23.836342 4.4055153C22.980509 3.1467972 22.21302 1.7390205 21.587249 0.14077981C21.569764 0.09569415 21.551359 0.05152861 21.533874 0.00644294" />
		<path id="path655" d="M23.836342 4.4055153C29.54742 12.80249 39.202694 14.531387 37.001454 21.533466C34.470763 29.584477 34.930889 30.734621 39.99227 31.654737C44.24751 32.428554 46.22605 30.763145 49.481898 32.263853C49.651225 32.342063 49.819631 32.458918 49.995398 32.55553" />
		<path id="path657" d="M24.463033 39.24661C23.82806 38.472793 23.212412 37.692535 22.623452 36.915037" />
		<path id="path659" d="M24.463033 39.24661C24.980214 39.875969 25.510279 40.500727 26.049546 41.113524" />
		<path id="path661" d="M26.049546 41.113524C28.182688 43.537109 30.469512 45.786791 32.7002 47.476123" />
		<path id="path663" d="M29.606316 0.00552283C29.760919 0.1223775 30.006626 0.23831206 30.163068 0.35424662C32.340382 1.9534074 34.769845 3.4182313 37.115565 4.2224123" />
		<path id="path665" d="M32.7002 47.476123C33.327812 47.952743 33.951742 48.383357 34.565549 48.762445" />
		<path id="path667" d="M36.522003 49.824258C36.315867 49.717525 36.072 49.591469 35.85114 49.481055C35.427825 49.269428 34.999908 49.029278 34.565549 48.762445" />
		<path id="path669" d="M36.83949 0.02576537C37.041945 0.08925334 37.399922 0.1518212 37.613421 0.21162871" />
		<path id="path671" d="M36.925073 49.991719C36.786115 49.936509 36.607586 49.868424 36.522003 49.824258" />
		<path id="path673" d="M36.995932 44.133344C37.443174 44.471946 37.897778 44.839992 38.360665 45.228281" />
		<path id="path675" d="M37.613421 0.21162871C37.807594 0.26591551 38.006368 0.31928223 38.209743 0.37080869C43.674194 1.750982 46.080651 5.5206953 47.527285 9.8019929" />
		<path id="path677" d="M38.360665 45.229201C39.946257 46.560608 41.628476 48.138606 43.434929 49.654037C43.537997 49.740527 43.782784 49.880385 43.956711 49.992639" />
		<path id="path679" d="M41.330315 6.3221159C40.423867 5.5298965 39.185209 4.905138 37.289492 4.2803796C37.232437 4.2610572 37.174461 4.2417347 37.116485 4.2224123" />
		<path id="path681" d="M43.002411 8.5662777C42.544126 7.6627243 42.037988 6.9413537 41.330315 6.3221159" />
		<path id="path683" d="M43.562844 9.8010728C43.376953 9.3538966 43.193823 8.9435251 43.002411 8.5662777" />
		<path id="path685" d="M44.522666 0.45545932C44.335855 0.30640061 44.02573 0.15642178 43.84168 0.00552283" />
		<path id="path687" d="M3.2650507 5.1232054C3.6165866 5.2004954 3.9727237 5.2658233 4.3325419 5.3155096C4.3325419 5.3155096 5.1828538 5.3265506 6.4997331 5.5482988" />
		<path id="path689" d="M3.7583052 20.023556C1.9766992 19.277343 0.48773302 18.9369 -3.6e-08 18.836607" />
		<path id="path691" d="M45.458561 14.297677C45.084939 13.596549 44.746287 12.830093 44.421438 11.986347C44.106712 11.167444 43.831557 10.446074 43.563764 9.8010728" />
		<path id="path693" d="M45.458561 14.297677C45.912245 15.148784 46.417462 15.904199 47.010104 16.581404" />
		<path id="path695" d="M47.009184 16.581404C47.503359 17.146355 48.05735 17.657019 48.694163 18.128118C49.092632 18.421635 49.515027 18.559652 49.981595 18.824646" />
		<path id="path697" d="M48.018699 11.068072C47.844772 10.677943 47.680047 10.25653 47.526365 9.8019929" />
		<path id="path699" d="M48.905821 12.691156C48.589255 12.220977 48.292014 11.682709 48.018699 11.068072" />
		<path id="path701" d="M48.905821 12.691156C49.096313 12.974551 49.294167 13.233104 49.497543 13.469573C49.661347 13.660037 49.824232 13.874424 49.996319 14.036365" />
		<path id="path703" d="M50.0 3.981342C48.049068 3.0704277 46.230651 1.8153901 44.522666 0.45545932" />
		<path id="path705" d="M6.2935968 21.302517C5.4313216 20.782652 4.5653654 20.361239 3.757385 20.022636" />
		<path id="path707" d="M6.5006533 5.5492189C7.1117 5.6522718 7.8230541 5.8013306 8.5969852 6.0157175" />
		<path id="path709" d="M5.6531021 16.370698C2.0705648 15.520511 0.53098481 14.455017 0.1214731 14.129296C0.04141126 14.064888 0.00460122 13.994039 0.00460122 13.994039C0.00276072 13.993119 0.00184047 14.027163 -3.6e-08 14.025323" />
		<polyline id="polyline711" points="13.573702804,47.4301174767 10.7742991403,49.1939789477    9.69760542352,50.000000152" />
		<polyline id="polyline713" points="20.03846636,49.9935593433 20.3219036803,47.5064870657    18.174958004,47.5064870657" />
		<polyline id="polyline715" points="30.8477350758,45.9735745927 31.0777978358,47.7107527134    31.7320963253,49.9926392278" />
		<polyline id="polyline717" points="32.7002004194,47.4761232532 32.7452927203,47.7107527134    33.381186189,49.9990800365" />
		<polyline id="polyline719" points="33.5146225898,19.7824860313 33.359100164,19.941666018    26.36519226,21.0816891596" />
		<polyline id="polyline721" points="33.5146225898,19.7824860313 33.6655437603,20.018035607    36.7336607277,22.241954843" />
		<polyline id="polyline723" points="34.7293539626,31.9086886011 34.739476724,31.903167908    36.5035979677,30.522994613" />
		<polyline id="polyline725" points="3.64235358032,47.5837767702 4.37487340816,48.465247448    5.57580101536,49.9990800365" />
		<polyline id="polyline727" points="47.9395576418,49.9935593433 47.2972224158,49.308993389    44.4573277064,45.7315842083" />
		<polyline id="polyline729" points="49.9999997203,49.31083362 49.5398742003,48.7909683456    46.9521282758,45.9735745927" />
		<polyline id="polyline731" points="7.71354418128,49.9990800365 6.671820004,48.5038923002    5.75709047024,47.1780058215" />
	</g>
</svg>
