<?xml version="1.0" encoding="UTF-8" standalone="no"?>
<svg xmlns:dc="http://purl.org/dc/elements/1.1/" xmlns:cc="http://creativecommons.org/ns#" xmlns:rdf="http://www.w3.org/1999/02/22-rdf-syntax-ns#" xmlns:svg="http://www.w3.org/2000/svg" xmlns="http://www.w3.org/2000/svg" version="1.1" x="0px" y="0px" xml:space="preserve" width="50.00" height="50.00" viewBox="0 0 50.00 50.00">
	<metadata id="metadata2">
		<rdf:RDF>
			<ns:item rdf:ID="biblio1">
				<ns:link>rdf:resource=&quot;http://pubs.usgs.gov/tm/2006/11A02/</ns:link>
				<ns:title>U.S. Geological Survey, 2006, FGDC Digital Cartographic Standard for Geologic Map Symbolization (PostScript Implementation): U.S. Geological Survey Techniques and Methods 11-A2</ns:title>
			</ns:item>
			<ns:item rdf:ID="biblio2">
				<ns:link>https://davenquinn.com/projects/geologic-patterns/</ns:link>
				<ns:title>FGDC Geologic Patterns for the Web</ns:title>
			</ns:item>
			<rdf:Description>
				<dc:description>
					Converted from 'FGDC Geologic Patterns for the Web' to QGIS compatible svg symbols, with customisable fill colour/stroke colour/stroke width (when appropriate).
					SVG scaled to 50x50 pixels so that base outline-width is 0.387 px and width is 90 in the QGIS xml definition file. 
					Some of the original FGDC symbols have been omitted from this set because they can be generated from other symbols using the 'texture width' and/or 'stroke width' fields in QGIS symbology form.
				</dc:description>
				<dc:date>01 MARCH 2019</dc:date>
				<dc:creator>GeoProc.com</dc:creator>
				<dc:publisher rdf:resource="https://github.com/BC-Consulting/QGIS-FGDC-Fill" />
			</rdf:Description>
			<cc:Work rdf:about="">
				<dc:format>image/svg+xml</dc:format>
				<dc:type rdf:resource="http://purl.org/dc/dcmitype/StillImage" />
				<dc:title>FGDC fill symbol: Lithology - Metamorphism, Igneous and vein - 722 Igneous Rock 2nd Option</dc:title>
			</cc:Work>
		</rdf:RDF>
	</metadata>
	<path style="fill:none;stroke:none;stroke-width:0;" id="rect1500" width="50.00" height="50.00" x="0.0" y="0.0" />
	<g style="fill:none;" stroke="param(outline) #000" stroke-width="param(outline-width) 0.6">
		<line id="line5" y2="2.7478294" x2="9.6600008" y1="1.7180176" x1="10.460035" />
		<line id="line7" y2="3.2757788" x2="7.1891413" y1="4.4869571" x1="7.0544572" />
		<line id="line9" y2="8.0229826" x2="3.8915577" y1="7.1167717" x1="4.7064886" />
		<line id="line11" y2="9.4329233" x2="0.71065921" y1="8.5273333" x1="1.5255901" />
		<line id="line13" y2="3.7006223" x2="13.511836" y1="3.9335418" x1="12.245062" />
		<line id="line15" y2="5.9652209" x2="5.9478149" y1="5.9652209" x1="7.1115584" />
		<line id="line17" y2="2.1223614" x2="4.1634083" y1="0.98323113" x1="4.7449698" />
		<line id="line19" y2="3.7913079" x2="3.8915577" y1="4.5677056" x1="4.7449698" />
		<line id="line21" y2="7.4403763" x2="9.5551081" y1="8.1782618" x1="10.486103" />
		<line id="line23" y2="9.0708113" x2="7.130178" y1="7.9670839" x1="7.6453285" />
		<line id="line25" y2="45.092548" x2="4.6723518" y1="44.167084" x1="3.879765" />
		<line id="line27" y2="10.080128" x2="11.921697" y1="9.5453453" x1="12.955722" />
		<line id="line29" y2="28.316774" x2="7.9395227" y1="27.781992" x1="8.9735479" />
		<line id="line31" y2="9.0763979" x2="16.031729" y1="9.30373" x1="17.197334" />
		<line id="line33" y2="7.2130442" x2="14.480071" y1="6.7012444" x1="15.551956" />
		<line id="line35" y2="11.558387" x2="18.310183" y1="10.340996" x1="18.26177" />
		<line id="line37" y2="13.88758" x2="24.516813" y1="12.670189" x1="24.468403" />
		<line id="line39" y2="7.4018645" x2="12.516293" y1="6.2975168" x1="13.032064" />
		<line id="line41" y2="9.4764013" x2="3.5570204" y1="9.8664618" x1="4.6537323" />
		<line id="line43" y2="4.1236038" x2="16.114897" y1="5.1111836" x1="16.731836" />
		<line id="line45" y2="12.489443" x2="5.8603015" y1="13.496277" x1="6.4908953" />
		<line id="line47" y2="13.127332" x2="9.7859955" y1="12.179505" x1="10.551894" />
		<line id="line49" y2="12.024225" x2="20.172171" y1="11.07702" x1="20.93807" />
		<line id="line51" y2="14.817394" x2="8.1313076" y1="14.756525" x1="9.293189" />
		<line id="line53" y2="16.616152" x2="10.359488" y1="17.303728" x1="11.327723" />
		<line id="line55" y2="17.238512" x2="6.6559916" y1="16.026711" x1="6.7832274" />
		<line id="line57" y2="21.104973" x2="4.7064886" y1="20.157766" x1="5.4723868" />
		<line id="line59" y2="18.583233" x2="3.2435856" y1="18.521742" x1="4.405467" />
		<line id="line61" y2="20.949694" x2="7.5770555" y1="21.63727" x1="8.54529" />
		<line id="line63" y2="10.821122" x2="8.6303205" y1="11.255903" x1="9.7357216" />
		<line id="line65" y2="12.342238" x2="2.3808637" y1="12.098762" x1="3.5427451" />
		<line id="line67" y2="9.032299" x2="31.433483" y1="8.5273333" x1="30.231258" />
		<line id="line69" y2="2.6658397" x2="2.4950657" y1="2.3937924" x1="1.2152585" />
		<line id="line71" y2="14.819257" x2="22.344492" y1="13.77143" x1="21.568663" />
		<line id="line73" y2="19.296896" x2="8.7134895" y1="18.390684" x1="9.5284204" />
		<line id="line75" y2="20.522985" x2="15.528991" y1="19.616774" x1="16.343922" />
		<line id="line77" y2="17.818016" x2="0.55549347" y1="16.912426" x1="1.3704243" />
		<line id="line79" y2="16.372051" x2="20.017006" y1="16.604971" x1="18.750233" />
		<line id="line81" y2="18.465221" x2="17.585247" y1="18.465221" x1="18.748991" />
		<line id="line83" y2="14.095033" x2="15.866632" y1="12.955902" x1="16.448195" />
		<line id="line85" y2="16.291307" x2="15.528991" y1="17.067705" x1="16.382402" />
		<line id="line87" y2="11.868946" x2="13.422462" y1="12.645344" x1="14.275873" />
		<line id="line89" y2="19.940376" x2="21.192543" y1="20.678265" x1="22.123537" />
		<line id="line91" y2="20.467085" x2="19.282763" y1="19.362736" x1="19.797913" />
		<line id="line93" y2="17.769567" x2="25.292643" y1="16.665842" x1="25.808414" />
		<line id="line95" y2="21.9764" x2="15.194454" y1="22.366463" x1="16.291166" />
		<line id="line97" y2="25.377642" x2="17.032238" y1="26.384476" x1="17.66283" />
		<line id="line99" y2="25.549692" x2="22.664757" y1="24.601866" x1="23.430653" />
		<line id="line101" y2="27.317394" x2="19.768742" y1="27.256525" x1="20.930622" />
		<line id="line103" y2="28.713669" x2="22.007473" y1="29.401245" x1="22.975708" />
		<line id="line105" y2="32.847828" x2="15.992626" y1="31.900003" x1="16.758526" />
		<line id="line107" y2="34.695034" x2="8.0692415" y1="33.747829" x1="8.8357601" />
		<line id="line109" y2="23.321119" x2="20.267756" y1="23.077642" x1="21.429636" />
		<line id="line111" y2="15.165842" x2="14.132499" y1="14.893792" x1="12.852692" />
		<line id="line113" y2="31.466463" x2="29.627354" y1="30.162113" x1="29.591976" />
		<line id="line115" y2="33.142239" x2="18.620514" y1="31.934786" x1="18.78561" />
		<line id="line117" y2="32.345345" x2="32.996315" y1="32.578262" x1="31.729542" />
		<line id="line119" y2="33.608078" x2="24.827145" y1="33.608078" x1="25.990889" />
		<line id="line121" y2="36.011803" x2="34.575901" y1="36.011803" x1="35.739643" />
		<line id="line123" y2="31.434164" x2="23.896151" y1="30.295654" x1="24.478333" />
		<line id="line125" y2="35.66584" x2="31.499273" y1="36.403107" x1="32.430267" />
		<line id="line127" y2="46.268326" x2="23.131495" y1="47.427952" x1="23.38969" />
		<line id="line129" y2="36.575779" x2="26.794649" y1="35.471432" x1="27.309797" />
		<line id="line131" y2="29.752798" x2="48.872879" y1="28.889442" x1="48.012638" />
		<line id="line133" y2="41.426712" x2="24.829628" y1="40.244102" x1="24.537916" />
		<line id="line135" y2="41.372051" x2="12.569049" y1="40.188824" x1="12.277958" />
		<line id="line137" y2="34.384476" x2="37.085243" y1="33.280746" x1="37.601013" />
		<line id="line139" y2="38.483231" x2="23.147633" y1="38.872673" x1="24.244343" />
		<line id="line141" y2="31.9764" x2="5.7318239" y1="33.106834" x1="5.4537668" />
		<line id="line143" y2="40.850315" x2="21.155924" y1="40.531059" x1="22.274979" />
		<line id="line145" y2="40.364601" x2="28.714979" y1="41.372051" x1="28.085627" />
		<line id="line147" y2="43.545345" x2="26.170881" y1="43.483852" x1="27.332764" />
		<line id="line149" y2="45.262115" x2="31.125015" y1="45.949692" x1="32.09325" />
		<line id="line151" y2="22.746586" x2="3.8158371" y1="23.434166" x1="4.7840714" />
		<line id="line153" y2="45.58075" x2="27.785227" y1="44.632923" x1="28.551125" />
		<line id="line155" y2="48.589443" x2="32.558746" y1="47.642239" x1="33.324646" />
		<line id="line157" y2="49.71056" x2="24.014698" y1="48.763355" x1="24.780598" />
		<line id="line159" y2="44.38261" x2="17.440634" y1="43.762737" x1="18.425627" />
		<line id="line161" y2="48.647827" x2="28.166933" y1="49.335407" x1="29.135168" />
		<line id="line163" y2="44.477642" x2="24.361647" y1="45.16584" x1="25.330503" />
		<line id="line165" y2="38.554661" x2="39.950226" y1="37.650314" x1="40.719849" />
		<line id="line167" y2="41.305592" x2="30.027061" y1="41.061493" x1="31.188942" />
		<line id="line169" y2="28.631681" x2="27.475515" y1="28.126711" x1="26.272671" />
		<line id="line171" y2="31.123606" x2="21.413498" y1="30.852175" x1="20.13369" />
		<line id="line173" y2="45.103729" x2="34.341293" y1="44.055904" x1="33.565464" />
		<line id="line175" y2="20.991926" x2="25.913305" y1="19.94348" x1="25.137476" />
		<line id="line177" y2="45.750935" x2="40.587021" y1="44.845345" x1="41.401333" />
		<line id="line179" y2="49.731678" x2="36.115765" y1="48.82547" x1="36.930077" />
		<line id="line181" y2="44.57019" x2="44.622578" y1="45.098763" x1="43.447041" />
		<line id="line183" y2="47.070808" x2="37.949207" y1="47.070808" x1="39.112946" />
		<line id="line185" y2="43.598141" x2="36.348515" y1="42.459007" x1="36.930077" />
		<line id="line187" y2="44.862736" x2="36.980972" y1="45.639133" x1="37.834381" />
		<line id="line189" y2="49.128574" x2="41.556499" y1="49.865841" x1="42.487495" />
		<line id="line191" y2="49.072674" x2="39.646717" y1="47.968327" x1="40.161869" />
		<line id="line193" y2="46.437271" x2="45.911694" y1="45.25404" x1="45.619358" />
		<line id="line195" y2="46.554039" x2="47.412457" y1="45.678886" x1="48.180214" />
		<line id="line197" y2="48.063976" x2="30.817785" y1="46.937271" x1="31.111359" />
		<line id="line199" y2="48.70311" x2="20.87973" y1="49.401867" x1="21.810724" />
		<line id="line201" y2="43.657146" x2="48.200081" y1="44.345345" x1="49.168312" />
		<line id="line203" y2="48.208076" x2="44.275623" y1="47.744102" x1="45.36861" />
		<line id="line205" y2="37.800625" x2="29.947617" y1="37.529194" x1="28.667809" />
		<line id="line207" y2="37.561493" x2="38.003204" y1="38.672054" x1="37.502949" />
		<line id="line209" y2="3.3583896" x2="38.906265" y1="4.3347864" x1="39.541206" />
		<line id="line211" y2="38.636028" x2="32.322895" y1="39.819256" x1="32.213036" />
		<line id="line213" y2="16.505592" x2="28.944626" y1="17.688824" x1="28.834766" />
		<line id="line215" y2="8.8968992" x2="33.599598" y1="10.080128" x1="33.489742" />
		<line id="line217" y2="14.318636" x2="38.372498" y1="13.270809" x1="37.596668" />
		<line id="line219" y2="16.803108" x2="36.743256" y1="15.897517" x1="37.558189" />
		<line id="line221" y2="20.180748" x2="32.049801" y1="19.275158" x1="32.864113" />
		<line id="line223" y2="21.626089" x2="28.357477" y1="20.719877" x1="29.171787" />
		<line id="line225" y2="15.172673" x2="41.087902" y1="15.405592" x1="39.821129" />
		<line id="line227" y2="18.122984" x2="34.105438" y1="18.122984" x1="35.26918" />
		<line id="line229" y2="14.280126" x2="32.321033" y1="13.141617" x1="32.903214" />
		<line id="line231" y2="15.94907" x2="32.049801" y1="16.725468" x1="32.903214" />
		<line id="line233" y2="19.598139" x2="37.713352" y1="20.336027" x1="38.644348" />
		<line id="line235" y2="21.229195" x2="35.2878" y1="20.124846" x1="35.803574" />
		<line id="line237" y2="17.579506" x2="42.561977" y1="16.475779" x1="43.077744" />
		<line id="line239" y2="21.634163" x2="31.715267" y1="22.024227" x1="32.811356" />
		<line id="line241" y2="0.99441457" x2="34.720516" y1="1.8037275" x1="35.557171" />
		<line id="line243" y2="24.233543" x2="34.62059" y1="25.240374" x1="35.251183" />
		<line id="line245" y2="23.359629" x2="39.412727" y1="22.412426" x1="40.179249" />
		<line id="line247" y2="26.97578" x2="36.288933" y1="26.914289" x1="37.451431" />
		<line id="line249" y2="28.259008" x2="39.089367" y1="29.263357" x1="39.723679" />
		<line id="line251" y2="28.558388" x2="34.575901" y1="27.611183" x1="35.341801" />
		<line id="line253" y2="34.555904" x2="33.836693" y1="33.608078" x1="34.602589" />
		<line id="line255" y2="28.465841" x2="32.134834" y1="29.591927" x1="32.430267" />
		<line id="line257" y2="30.510561" x2="37.176479" y1="31.198139" x1="38.144714" />
		<line id="line259" y2="29.814909" x2="12.842141" y1="30.502487" x1="13.810375" />
		<line id="line261" y2="22.979506" x2="36.788567" y1="22.735407" x1="37.950447" />
		<line id="line263" y2="24.726089" x2="41.714767" y1="24.482613" x1="42.87727" />
		<line id="line265" y2="12.183853" x2="35.26918" y1="11.678884" x1="34.066959" />
		<line id="line267" y2="14.823605" x2="30.653311" y1="14.551555" x1="29.372883" />
		<line id="line269" y2="6.7807465" x2="39.579689" y1="6.5086994" x1="38.299881" />
		<line id="line271" y2="25.735407" x2="48.627712" y1="25.032921" x1="49.726292" />
		<line id="line273" y2="3.9981403" x2="32.829975" y1="3.0925503" x1="33.644905" />
		<line id="line275" y2="32.836029" x2="44.51458" y1="31.930437" x1="45.329514" />
		<line id="line277" y2="30.881989" x2="46.480221" y1="30.881989" x1="47.643963" />
		<line id="line279" y2="26.780127" x2="43.958469" y1="25.641617" x1="44.540649" />
		<line id="line281" y2="28.44907" x2="43.687237" y1="29.225468" x1="44.540649" />
		<line id="line283" y2="35.937271" x2="41.895382" y1="36.713669" x1="42.748795" />
		<line id="line285" y2="32.023605" x2="49.275684" y1="32.877644" x1="48.450207" />
		<line id="line287" y2="36.014912" x2="45.191105" y1="34.911182" x1="45.706253" />
		<line id="line289" y2="34.614288" x2="42.489357" y1="35.004349" x1="43.586067" />
		<line id="line291" y2="38.143482" x2="46.814137" y1="39.150936" x1="47.444733" />
		<line id="line293" y2="35.706837" x2="24.352339" y1="36.713669" x1="24.982311" />
		<line id="line295" y2="37.898762" x2="43.810745" y1="37.643482" x1="45.001179" />
		<line id="line297" y2="32.907455" x2="39.746025" y1="31.960251" x1="40.511925" />
		<line id="line299" y2="41.039753" x2="48.616543" y1="40.035408" x1="49.204929" />
		<line id="line301" y2="41.837891" x2="40.49889" y1="41.77702" x1="41.661392" />
		<line id="line303" y2="39.594414" x2="44.158943" y1="40.28199" x1="45.127174" />
		<line id="line305" y2="41.150314" x2="34.099854" y1="41.837891" x1="35.068085" />
		<line id="line307" y2="42.940998" x2="43.301804" y1="41.993172" x1="44.067703" />
		<line id="line309" y2="36.501865" x2="48.128078" y1="37.1441" x1="49.12735" />
		<line id="line311" y2="24.683853" x2="46.90662" y1="24.178885" x1="45.704391" />
		<line id="line313" y2="27.323605" x2="42.290745" y1="27.051556" x1="41.010319" />
		<line id="line315" y2="17.734785" x2="49.162106" y1="16.860252" x1="48.314899" />
		<line id="line317" y2="11.66522" x2="41.421196" y1="12.500625" x1="40.576473" />
		<line id="line319" y2="26.430437" x2="2.3740366" y1="25.38261" x1="1.5982077" />
		<line id="line321" y2="28.914909" x2="0.74479574" y1="28.009319" x1="1.5597264" />
		<line id="line323" y2="27.284473" x2="5.0900583" y1="27.517393" x1="3.822664" />
		<line id="line325" y2="32.611805" x2="2.0177758" y1="33.349693" x1="2.9487705" />
		<line id="line327" y2="29.968948" x2="4.7971053" y1="28.864599" x1="5.3122559" />
		<line id="line329" y2="21.453419" x2="23.304039" y1="22.583231" x1="23.585819" />
		<line id="line331" y2="24.837271" x2="26.990156" y1="25.844101" x1="27.620129" />
		<line id="line333" y2="20.098139" x2="1.2053279" y1="21.104973" x1="1.8359216" />
		<line id="line335" y2="24.04224" x2="30.706066" y1="22.952797" x1="30.160505" />
		<line id="line337" y2="28.328573" x2="29.326952" y1="27.70994" x1="30.313187" />
		<line id="line339" y2="20.639133" x2="41.092865" y1="20.020498" x1="42.078476" />
		<line id="line341" y2="26.429815" x2="32.646259" y1="26.559629" x1="33.826759" />
		<line id="line343" y2="37.409321" x2="16.381783" y1="36.877022" x1="17.443737" />
		<line id="line345" y2="12.893791" x2="1.3530456" y1="11.80435" x1="0.80748278" />
		<line id="line347" y2="15.28137" x2="3.2932386" y1="15.411183" x1="4.4737401" />
		<line id="line349" y2="37.350933" x2="2.1828723" y1="36.403107" x1="2.9487705" />
		<line id="line351" y2="39.08696" x2="0.29047033" y1="39.026089" x1="1.4529724" />
		<line id="line353" y2="41.597519" x2="1.3840787" y1="42.285095" x1="2.3529339" />
		<line id="line355" y2="44.878265" x2="1.225189" y1="43.931057" x1="1.9910874" />
		<line id="line357" y2="49.776402" x2="1.5324173" y1="48.828575" x1="2.2983155" />
		<line id="line359" y2="47.25404" x2="0.069514289" y1="47.193169" x1="1.2313956" />
		<line id="line361" y2="48.740376" x2="5.2539134" y1="49.427952" x1="6.2221475" />
		<line id="line363" y2="35.091309" x2="0.79010415" y1="34.847206" x1="1.9519855" />
		<line id="line365" y2="29.818016" x2="10.785883" y1="28.713669" x1="11.301034" />
		<line id="line367" y2="30.186958" x2="7.101007" y1="30.577023" x1="8.1977186" />
		<line id="line369" y2="40.285095" x2="37.705906" y1="40.675159" x1="38.802616" />
		<line id="line371" y2="24.833544" x2="19.07608" y1="25.222982" x1="20.172171" />
		<line id="line373" y2="33.585094" x2="11.266276" y1="34.591927" x1="11.896871" />
		<line id="line375" y2="32.985718" x2="13.390186" y1="32.742237" x1="14.552068" />
		<line id="line377" y2="20.719877" x2="11.638055" y1="19.504351" x1="11.722465" />
		<line id="line379" y2="24.011805" x2="6.595787" y1="23.980747" x1="7.7589102" />
		<line id="line381" y2="25.608078" x2="10.370039" y1="26.320499" x1="11.320274" />
		<line id="line383" y2="22.872051" x2="12.328232" y1="22.226091" x1="13.325017" />
		<line id="line385" y2="29.750935" x2="14.675579" y1="29.104971" x1="15.672365" />
		<line id="line387" y2="33.662113" x2="21.360743" y1="32.60994" x1="21.974579" />
		<line id="line389" y2="25.033543" x2="14.593032" y1="23.980747" x1="15.206867" />
		<line id="line391" y2="34.983231" x2="17.408981" y1="35.471432" x1="18.465349" />
		<line id="line393" y2="36.740376" x2="20.350304" y1="37.800625" x1="20.886555" />
		<line id="line395" y2="5.0677056" x2="35.924603" y1="3.9291961" x1="36.506165" />
		<line id="line397" y2="8.3720531" x2="35.58448" y1="9.1484509" x1="36.437889" />
		<line id="line399" y2="6.6639786" x2="32.09325" y1="6.3925476" x1="30.81282" />
		<line id="line401" y2="38.931057" x2="14.01147" y1="37.88261" x1="13.235641" />
		<line id="line403" y2="43.258389" x2="22.989983" y1="42.352177" x1="23.804913" />
		<line id="line405" y2="46.932922" x2="20.015764" y1="46.027332" x1="20.830696" />
		<line id="line407" y2="39.785095" x2="16.726871" y1="40.018017" x1="15.460097" />
		<line id="line409" y2="41.443481" x2="5.4953513" y1="42.42609" x1="4.6618004" />
		<line id="line411" y2="42.735405" x2="9.7444105" y1="42.735405" x1="10.908154" />
		<line id="line413" y2="38.163357" x2="7.1773486" y1="37.024227" x1="7.7589102" />
		<line id="line415" y2="40.561493" x2="7.6887751" y1="41.337891" x1="8.5421867" />
		<line id="line417" y2="45.522984" x2="15.180179" y1="46.26025" x1="16.111174" />
		<line id="line419" y2="44.736649" x2="11.442545" y1="43.632301" x1="11.957696" />
		<line id="line421" y2="42.378265" x2="18.748991" y1="41.273914" x1="19.264143" />
		<line id="line423" y2="46.378883" x2="6.6522675" y1="45.617393" x1="7.5329885" />
		<line id="line425" y2="48.845345" x2="10.259562" y1="49.852177" x1="10.890156" />
		<line id="line427" y2="49.795654" x2="14.879778" y1="48.84845" x1="15.645676" />
		<line id="line429" y2="47.190063" x2="12.439951" y1="46.946587" x1="13.602452" />
		<line id="line431" y2="36.795654" x2="10.908154" y1="36.291306" x1="9.7059298" />
		<line id="line433" y2="38.969566" x2="6.253181" y1="38.698139" x1="4.9733739" />
		<line id="line435" y2="1.8894421" x2="49.820633" y1="0.8409974" x1="49.044804" />
		<line id="line437" y2="5.1242247" x2="49.019356" y1="4.2186346" x1="49.833664" />
		<line id="line439" y2="8.0229826" x2="43.846748" y1="7.1167717" x1="44.661678" />
		<line id="line441" y2="5.9652209" x2="45.903004" y1="5.9652209" x1="47.066746" />
		<line id="line443" y2="1.7701913" x2="43.766682" y1="0.63106114" x1="44.348244" />
		<line id="line445" y2="3.7913079" x2="43.846748" y1="4.5677056" x1="44.700161" />
		<line id="line447" y2="6.7807465" x2="48.812054" y1="7.5180159" x1="49.74305" />
		<line id="line449" y2="9.0708113" x2="47.085365" y1="7.9670839" x1="47.600517" />
		<line id="line451" y2="9.4764013" x2="43.512211" y1="9.8664618" x1="44.608921" />
		<line id="line453" y2="12.075157" x2="46.418156" y1="13.081991" x1="47.048748" />
		<line id="line455" y2="14.817394" x2="48.086494" y1="14.756525" x1="49.248379" />
		<line id="line457" y2="17.126089" x2="45.763355" y1="16.178886" x1="46.529255" />
		<line id="line459" y2="21.806833" x2="45.153862" y1="20.859631" x1="45.920383" />
		<line id="line461" y2="18.583233" x2="43.198772" y1="18.521742" x1="44.360657" />
		<line id="line463" y2="19.178885" x2="45.91045" y1="19.866463" x1="46.878685" />
		<line id="line465" y2="11.054041" x2="48.133049" y1="10.810564" x1="49.29493" />
		<line id="line467" y2="1.6049699" x2="47.493145" y1="1.1000035" x1="46.290916" />
		<line id="line469" y2="2.6658397" x2="42.450256" y1="2.3937924" x1="41.170448" />
		<line id="line471" y2="22.907457" x2="47.732098" y1="22.663357" x1="48.8946" />
		<line id="line473" y2="2.0018642" x2="26.811407" y1="0.95341963" x1="26.035578" />
		<line id="line475" y2="4.8559022" x2="25.409327" y1="3.9496913" x1="26.223637" />
		<line id="line477" y2="7.8633575" x2="20.48871" y1="6.9577675" x1="21.30302" />
		<line id="line479" y2="2.8559015" x2="29.526808" y1="3.0888207" x1="28.260035" />
		<line id="line481" y2="5.8062119" x2="22.544348" y1="5.8062119" x1="23.70809" />
		<line id="line483" y2="1.7993821" x2="19.510546" y1="0.57826191" x1="19.130701" />
		<line id="line485" y2="3.6322989" x2="20.48871" y1="4.4086967" x1="21.342123" />
		<line id="line487" y2="8.9577684" x2="27.93046" y1="9.6950331" x1="28.861456" />
		<line id="line489" y2="7.8074546" x2="24.241861" y1="6.7037272" x1="24.757631" />
		<line id="line491" y2="5.9857163" x2="28.966969" y1="4.8813682" x1="29.482119" />
		<line id="line493" y2="9.3167715" x2="20.153553" y1="9.7068367" x1="21.250265" />
		<line id="line495" y2="13.201244" x2="27.293041" y1="12.254041" x1="28.058939" />
		<line id="line497" y2="16.278265" x2="22.579103" y1="16.733543" x1="23.650368" />
		<line id="line499" y2="19.250315" x2="26.533968" y1="19.189445" x1="27.696472" />
		<line id="line501" y2="10.662113" x2="25.226852" y1="10.418015" x1="26.389355" />
		<line id="line503" y2="2.562113" x2="17.675865" y1="2.0571465" x1="16.473021" />
		<line id="line505" y2="11.906214" x2="43.431522" y1="11.844724" x1="44.593403" />
		<line id="line507" y2="8.4142895" x2="40.516888" y1="9.1024895" x1="41.485126" />
		<polyline id="polyline509" points="23.4225852074,9.91242519075 23.59761221,11.1540400927 22.4090423161,10.7577668024" />
		<polyline id="polyline511" points="14.6668904325,9.33292208742 15.2962428463,10.4167730149 14.0462273025,10.4975183562" />
		<polyline id="polyline513" points="35.7539202742,14.0683257957 36.3838933512,15.1527978411 35.1332571442,15.2335431824" />
		<polyline id="polyline515" points="9.67551754101,46.3795057939 10.305490618,47.4633567213 9.05485441101,47.5441020626" />
		<polyline id="polyline517" points="42.8679610703,21.8714313553 43.4979341472,22.9552822827 42.2472979403,23.036027624" />
		<polyline id="polyline519" points="27.6617143853,38.3310586203 28.2916874622,39.4149095477 27.0410512553,39.495654889" />
		<polyline id="polyline521" points="13.2312966128,2.21490969282 12.8415201671,1.02360534964 14.0809844377,1.20559292657" />
		<polyline id="polyline523" points="18.3207342788,5.56273576672 19.4081360825,6.18509601274 18.3666633504,6.88199041996" />
		<polyline id="polyline525" points="34.0899224227,5.77205253609 35.1779448896,6.39441278211 34.1358514943,7.09130718933" />
		<polyline id="polyline527" points="10.6096155517,22.6807481223 10.7579540397,23.9260897324 9.5780734296,23.5031083676" />
		<polyline id="polyline529" points="44.0329457653,13.9882015724 44.1806635902,15.2329220644 43.0014036432,14.8105618176" />
		<polyline id="polyline531" points="26.4365253667,45.9645989632 26.5848638547,47.2093194552 25.4049832446,46.7869592084" />
		<polyline id="polyline533" points="38.9546800356,24.5993816552 39.1023978606,25.8441021473 37.9231379136,25.4217419005" />
		<polyline id="polyline535" points="39.4704510967,17.6732947257 39.6187895847,18.9180152177 38.4389089746,18.4956549709" />
		<polyline id="polyline537" points="30.2653962156,17.9223630477 30.4131140406,19.1670835398 29.2338540936,18.744723293" />
		<polyline id="polyline539" points="2.33245204998,24.4378909726 1.18919056452,23.9260897324 2.15680438419,23.1298164436" />
		<polyline id="polyline541" points="10.5512732174,5.2012450849 9.82695934473,6.22422644737 9.23546738184,5.11863638957" />
		<polyline id="polyline543" points="19.5093041727,14.712425172 18.283494491,14.4540400799 19.0611853929,13.47081027" />
		<polyline id="polyline545" points="22.4822805654,19.1894437881 23.1712166397,18.1416177052 23.8005690535,19.2254686327" />
		<polyline id="polyline547" points="18.5969293716,28.1850959269 18.63230717,29.4385120711 17.495872979,28.9111828806" />
		<polyline id="polyline549" points="31.3596253138,0.73913330106 31.3950031122,1.99254944524 30.2579482581,1.46522025475" />
		<polyline id="polyline551" points="42.9970590013,46.8571455436 43.0324367997,48.1105616877 41.8953819456,47.5832324973" />
		<polyline id="polyline553" points="10.2328730317,15.0136674069 11.2619325013,14.2987605774 11.4425454721,15.5391332433" />
		<polyline id="polyline555" points="5.67224035251,18.0813692583 6.72364369473,18.7627357152 5.64493117479,19.4006239115" />
		<polyline id="polyline557" points="18.3567327403,38.6167729049 19.4081360825,39.2987604799 18.3300442257,39.9366486761" />
		<polyline id="polyline559" points="15.2379005121,18.497518325 14.249184146,19.2677046574 14.0015395571,18.0385121156" />
		<polyline id="polyline561" points="47.6874102747,9.91180407274 46.6986939086,10.6813692871 46.4510493198,9.45279786335" />
		<polyline id="polyline563" points="31.6854734571,25.6149096016 30.696757091,26.384474816 30.4491125021,25.1552822742" />
		<polyline id="polyline565" points="27.6201299556,6.27888483225 26.6314135895,7.04907116465 26.3837690006,5.81987862286" />
		<polyline id="polyline567" points="1.62489608178,29.7000027533 1.56407109504,30.9521766615 0.47108332311,30.3397543036" />
		<polyline id="polyline569" points="30.6291048098,33.7534188866 30.5682798231,35.0055927948 29.4752920511,34.3931704369" />
		<polyline id="polyline571" points="5.59838144004,35.9857170145 4.3831230315,35.6819903076 5.19743305806,34.7285741623" />
		<polyline id="polyline573" points="35.8439164281,47.8937915023 34.6286580195,47.5900647954 35.4429680461,46.63664865" />
		<polyline id="polyline575" points="10.8206410159,39.987580353 9.74937645348,39.3372697965 10.8088484164,38.6677045817" />
		<polyline id="polyline577" points="47.1561226355,42.7987604662 46.0848580731,42.1484499097 47.144330036,41.479505813" />
		<polyline id="polyline579" points="35.5695833246,31.6801269692 34.4983187622,31.0298164127 35.5577907251,30.360251198" />
		<polyline id="polyline581" points="13.5509381247,35.1099406204 14.784195764,34.8900648449 14.4310384431,36.0925493123" />
		<polyline id="polyline583" points="49.1950010175,20.4795058949 48.4644805135,19.4614934765 49.7008414684,19.2608723593" />
		<polyline id="polyline585" points="2.65271422506,38.5577666939 3.27089470254,39.6478288015 2.02025849559,39.7155306646" />
		<polyline id="polyline587" points="48.7462615745,35.0323008692 47.5061766408,35.209319502 47.9009183914,34.0192573949" />
		<polyline id="polyline589" points="23.6243007246,27.009940652 24.5701913347,26.1882015248 24.8836262154,27.4018661163" />
		<polyline id="polyline591" points="40.9588012824,39.7993815959 41.9046918925,38.9776424687 42.21750611,40.1913070602" />
		<polyline id="polyline593" points="34.2115723962,23.1559034 35.1574630063,22.3341642727 35.4708978869,23.5484499823" />
		<polyline id="polyline595" points="26.4296980722,15.0360276552 27.3755886823,14.214288528 27.689023563,15.4285742376" />
		<polyline id="polyline597" points="21.9019605389,2.51677304568 22.847851149,1.69503391845 23.1606653665,2.90869850999" />
		<polyline id="polyline599" points="13.1661269841,27.4590089733 13.4981817587,26.2496922078 14.4310384431,27.0863381673" />
		<polyline id="polyline601" points="38.0429258977,11.1509345027 38.3756013353,9.94223885523 39.3084580197,10.7788848147" />
		<polyline id="polyline603" points="20.6140845441,44.8503132533 20.9461393187,43.6409964878 21.8789960031,44.4776424473" />
		<polyline id="polyline605" points="25.9157890006,23.3987605419 26.7785107513,22.4894437752 27.206768311,23.6677046402" />
		<polyline id="polyline607" points="5.87457653289,25.577021403 7.07245637379,25.9447232649 6.20973462309,26.8534189135" />
		<polyline id="polyline609" points="38.1105781788,1.00372957332 39.3084580197,1.37143143524 38.445736269,2.28074820188" />
		<polyline id="polyline611" points="47.617275341,4.03043763605 46.4516699829,4.49006496345 46.5602860306,3.24099664534" />
		<polyline id="polyline613" points="30.0419574888,42.9291952483 31.2398373297,43.2968971102 30.377115579,44.2062138769" />
		<polyline id="polyline615" points="14.4868981248,42.8130461805 15.6841573025,43.1807480424 14.8214355518,44.089443691" />
		<polyline id="polyline617" points="47.0326106726,48.2739157244 48.2304905135,48.6409964683 47.3677687628,49.5503132349" />
		<polyline id="polyline619" points="2.05191231522,5.49379166761 2.53416756723,6.65093452024 1.28415202341,6.56646247088" />
		<polyline id="polyline621" points="5.31535905276,10.237891028 6.56847791223,10.2223630777 6.02353568409,11.3515556199" />
		<polyline id="polyline623" points="0.97133780589,13.964599088 2.22383600223,13.9490711377 1.67889377409,15.0782636799" />
		<polyline id="polyline625" points="10.6027882572,30.8217418794 11.0291838275,32.0006238624 9.78475425189,31.8565244841" />
		<polyline id="polyline627" points="42.4508754469,30.1614934348 42.8772710172,31.3403754177 41.6328414416,31.1968971574" />
		<polyline id="polyline629" points="39.5027255794,34.3670834805 39.9291211497,35.5459654635 38.6846915741,35.4024872031" />
		<polyline id="polyline631" points="22.7535103532,35.9633567662 21.5028741463,35.8826114249 22.1328472232,34.7987604974" />
		<polyline id="polyline633" points="18.5807921302,48.2658411902 17.3307765864,48.1850958489 17.9601290002,47.1012449215" />
		<polyline id="polyline635" points="35.5931685235,39.3403753865 34.3431529797,39.2596300452 34.9731260567,38.1757791178" />
		<polyline id="polyline637" points="4.07651544528,47.4074561004 2.82649990146,47.3267107591 3.45647297841,46.2428598317" />
		<polyline id="polyline639" points="19.2219371435,23.0509344563 17.973162926,23.1496922199 18.4417635891,21.9869593052" />
		<polyline id="polyline641" points="42.8052740942,6.65093452024 41.5558792135,6.74969228383 42.0251005397,5.58695936911" />
		<polyline id="polyline643" points="31.0337771706,12.0242264248 29.785002953,12.1229841883 30.2536036162,10.9602512736" />
		<polyline id="polyline645" points="7.93393679823,44.0521766104 6.68454191754,44.150934374 7.15376324382,42.9882014593" />
		<polyline id="polyline647" points="47.8425760572,27.3031083527 46.5938018397,27.4018661163 47.0624025028,26.2391332016" />
		<polyline id="polyline649" points="40.4982692399,43.7838536301 39.2494950224,43.8826113937 39.7180956855,42.7192573609" />
		<polyline id="polyline651" points="26.557554677,30.675158029 27.7752957381,30.9683257298 26.9696749953,31.9285741732" />
		<polyline id="polyline653" points="6.9712882836,1.50000286331 7.47092210325,0.34969230879 8.27654284599,1.30994075225" />
	</g>
</svg>
