<?xml version="1.0" encoding="UTF-8" standalone="no"?>
<svg xmlns:dc="http://purl.org/dc/elements/1.1/" xmlns:cc="http://creativecommons.org/ns#" xmlns:rdf="http://www.w3.org/1999/02/22-rdf-syntax-ns#" xmlns:svg="http://www.w3.org/2000/svg" xmlns="http://www.w3.org/2000/svg" version="1.1" x="0px" y="0px" xml:space="preserve" width="50.00" height="50.00" viewBox="0 0 50.00 50.00">
	<metadata id="metadata2">
		<rdf:RDF>
			<ns:item rdf:ID="biblio1">
				<ns:link>rdf:resource=&quot;http://pubs.usgs.gov/tm/2006/11A02/</ns:link>
				<ns:title>U.S. Geological Survey, 2006, FGDC Digital Cartographic Standard for Geologic Map Symbolization (PostScript Implementation): U.S. Geological Survey Techniques and Methods 11-A2</ns:title>
			</ns:item>
			<ns:item rdf:ID="biblio2">
				<ns:link>https://davenquinn.com/projects/geologic-patterns/</ns:link>
				<ns:title>FGDC Geologic Patterns for the Web</ns:title>
			</ns:item>
			<rdf:Description>
				<dc:description>
					Converted from 'FGDC Geologic Patterns for the Web' to QGIS compatible svg symbols, with customisable fill colour/stroke colour/stroke width (when appropriate).
					SVG scaled to 50x50 pixels so that base outline-width is 0.387 px and width is 90 in the QGIS xml definition file. 
					Some of the original FGDC symbols have been omitted from this set because they can be generated from other symbols using the 'texture width' and/or 'stroke width' fields in QGIS symbology form.
				</dc:description>
				<dc:date>01 MARCH 2019</dc:date>
				<dc:creator>GeoProc.com</dc:creator>
				<dc:publisher rdf:resource="https://github.com/BC-Consulting/QGIS-FGDC-Fill" />
			</rdf:Description>
			<cc:Work rdf:about="">
				<dc:format>image/svg+xml</dc:format>
				<dc:type rdf:resource="http://purl.org/dc/dcmitype/StillImage" />
				<dc:title>FGDC fill symbol: Lithology - Metamorphism, Igneous and vein - 725 Igneous Rock 5th Option</dc:title>
			</cc:Work>
		</rdf:RDF>
	</metadata>
	<path style="fill:none;stroke:none;stroke-width:0;" id="rect1500" width="50.00" height="50.00" x="0.0" y="0.0" />
	<g fill="param(outline) #000" stroke="param(outline) #000" stroke-width="param(outline-width) 0.6">
		<g style="fill:none;">
			<line id="line5" y2="43.996273" x2="6.8086743" y1="42.738506" x1="5.5518317" />
			<line id="line7" y2="35.735401" x2="6.8086743" y1="34.477638" x1="5.5518317" />
			<line id="line9" y2="27.466457" x2="6.8086743" y1="26.208693" x1="5.5518317" />
			<line id="line11" y2="19.236645" x2="6.8086743" y1="17.97888" x1="5.5518317" />
			<line id="line13" y2="10.968321" x2="6.8086743" y1="9.710556" x1="5.5518317" />
			<line id="line15" y2="2.6993747" x2="6.8086743" y1="1.4416145" x1="5.5518317" />
			<line id="line17" y2="43.996273" x2="5.5518317" y1="42.738506" x1="6.8086743" />
			<line id="line19" y2="35.735401" x2="5.5518317" y1="34.477638" x1="6.8086743" />
			<line id="line21" y2="27.466457" x2="5.5518317" y1="26.208693" x1="6.8086743" />
			<line id="line23" y2="19.236645" x2="5.5518317" y1="17.97888" x1="6.8086743" />
			<line id="line25" y2="10.968321" x2="5.5518317" y1="9.710556" x1="6.8086743" />
			<line id="line27" y2="2.6993747" x2="5.5518317" y1="1.4416145" x1="6.8086743" />
			<line id="line29" y2="39.888817" x2="10.998151" y1="38.631054" x1="9.7413082" />
			<line id="line31" y2="31.620495" x2="10.998151" y1="30.36273" x1="9.7413082" />
			<line id="line33" y2="23.39068" x2="10.998151" y1="22.132915" x1="9.7413082" />
			<line id="line35" y2="15.121737" x2="10.998151" y1="13.863973" x1="9.7413082" />
			<line id="line37" y2="48.149689" x2="10.998151" y1="46.891922" x1="9.7413082" />
			<line id="line39" y2="6.8534141" x2="10.998151" y1="5.5956492" x1="9.7413082" />
			<line id="line41" y2="39.888817" x2="9.7413082" y1="38.631054" x1="10.998151" />
			<line id="line43" y2="31.620495" x2="9.7413082" y1="30.36273" x1="10.998151" />
			<line id="line45" y2="23.39068" x2="9.7413082" y1="22.132915" x1="10.998151" />
			<line id="line47" y2="15.121737" x2="9.7413082" y1="13.863973" x1="10.998151" />
			<line id="line49" y2="48.149689" x2="9.7413082" y1="46.891922" x1="10.998151" />
			<line id="line51" y2="6.8534141" x2="9.7413082" y1="5.5956492" x1="10.998151" />
			<line id="line53" y2="43.996273" x2="15.071563" y1="42.738506" x1="13.81472" />
			<line id="line55" y2="35.735401" x2="15.071563" y1="34.477638" x1="13.81472" />
			<line id="line57" y2="27.466457" x2="15.071563" y1="26.208693" x1="13.81472" />
			<line id="line59" y2="19.236645" x2="15.071563" y1="17.97888" x1="13.81472" />
			<line id="line61" y2="10.968321" x2="15.071563" y1="9.710556" x1="13.81472" />
			<line id="line63" y2="2.6993747" x2="15.071563" y1="1.4416145" x1="13.81472" />
			<line id="line65" y2="43.996273" x2="13.81472" y1="42.738506" x1="15.071563" />
			<line id="line67" y2="35.735401" x2="13.81472" y1="34.477638" x1="15.071563" />
			<line id="line69" y2="27.466457" x2="13.81472" y1="26.208693" x1="15.071563" />
			<line id="line71" y2="19.236645" x2="13.81472" y1="17.97888" x1="15.071563" />
			<line id="line73" y2="10.968321" x2="13.81472" y1="9.710556" x1="15.071563" />
			<line id="line75" y2="2.6993747" x2="13.81472" y1="1.4416145" x1="15.071563" />
			<line id="line77" y2="39.888817" x2="2.7358832" y1="38.631054" x1="1.4790403" />
			<line id="line79" y2="31.620495" x2="2.7358832" y1="30.36273" x1="1.4790403" />
			<line id="line81" y2="23.39068" x2="2.7358832" y1="22.132915" x1="1.4790403" />
			<line id="line83" y2="15.121737" x2="2.7358832" y1="13.863973" x1="1.4790403" />
			<line id="line85" y2="48.149689" x2="2.7358832" y1="46.891922" x1="1.4790403" />
			<line id="line87" y2="6.8534141" x2="2.7358832" y1="5.5956492" x1="1.4790403" />
			<line id="line89" y2="39.888817" x2="19.26104" y1="38.631054" x1="18.004196" />
			<line id="line91" y2="31.620495" x2="19.26104" y1="30.36273" x1="18.004196" />
			<line id="line93" y2="23.39068" x2="19.26104" y1="22.132915" x1="18.004196" />
			<line id="line95" y2="15.121737" x2="19.26104" y1="13.863973" x1="18.004196" />
			<line id="line97" y2="48.149689" x2="19.26104" y1="46.891922" x1="18.004196" />
			<line id="line99" y2="6.8534141" x2="19.26104" y1="5.5956492" x1="18.004196" />
			<line id="line101" y2="39.888817" x2="18.004196" y1="38.631054" x1="19.26104" />
			<line id="line103" y2="31.620495" x2="18.004196" y1="30.36273" x1="19.26104" />
			<line id="line105" y2="23.39068" x2="18.004196" y1="22.132915" x1="19.26104" />
			<line id="line107" y2="15.121737" x2="18.004196" y1="13.863973" x1="19.26104" />
			<line id="line109" y2="48.149689" x2="18.004196" y1="46.891922" x1="19.26104" />
			<line id="line111" y2="6.8534141" x2="18.004196" y1="5.5956492" x1="19.26104" />
			<line id="line113" y2="43.996273" x2="23.334452" y1="42.738506" x1="22.077608" />
			<line id="line115" y2="35.735401" x2="23.334452" y1="34.477638" x1="22.077608" />
			<line id="line117" y2="27.466457" x2="23.334452" y1="26.208693" x1="22.077608" />
			<line id="line119" y2="19.236645" x2="23.334452" y1="17.97888" x1="22.077608" />
			<line id="line121" y2="10.968321" x2="23.334452" y1="9.710556" x1="22.077608" />
			<line id="line123" y2="2.6993747" x2="23.334452" y1="1.4416145" x1="22.077608" />
			<line id="line125" y2="43.996273" x2="22.077608" y1="42.738506" x1="23.334452" />
			<line id="line127" y2="35.735401" x2="22.077608" y1="34.477638" x1="23.334452" />
			<line id="line129" y2="27.466457" x2="22.077608" y1="26.208693" x1="23.334452" />
			<line id="line131" y2="19.236645" x2="22.077608" y1="17.97888" x1="23.334452" />
			<line id="line133" y2="10.968321" x2="22.077608" y1="9.710556" x1="23.334452" />
			<line id="line135" y2="2.6993747" x2="22.077608" y1="1.4416145" x1="23.334452" />
			<line id="line137" y2="39.888817" x2="27.523928" y1="38.631054" x1="26.267084" />
			<line id="line139" y2="31.620495" x2="27.523928" y1="30.36273" x1="26.267084" />
			<line id="line141" y2="23.39068" x2="27.523928" y1="22.132915" x1="26.267084" />
			<line id="line143" y2="15.121737" x2="27.523928" y1="13.863973" x1="26.267084" />
			<line id="line145" y2="48.149689" x2="27.523928" y1="46.891922" x1="26.267084" />
			<line id="line147" y2="6.8534141" x2="27.523928" y1="5.5956492" x1="26.267084" />
			<line id="line149" y2="39.888817" x2="26.267084" y1="38.631054" x1="27.523928" />
			<line id="line151" y2="31.620495" x2="26.267084" y1="30.36273" x1="27.523928" />
			<line id="line153" y2="23.39068" x2="26.267084" y1="22.132915" x1="27.523928" />
			<line id="line155" y2="15.121737" x2="26.267084" y1="13.863973" x1="27.523928" />
			<line id="line157" y2="48.149689" x2="26.267084" y1="46.891922" x1="27.523928" />
			<line id="line159" y2="6.8534141" x2="26.267084" y1="5.5956492" x1="27.523928" />
			<line id="line161" y2="39.888817" x2="1.4790403" y1="38.631054" x1="2.7358832" />
			<line id="line163" y2="31.620495" x2="1.4790403" y1="30.36273" x1="2.7358832" />
			<line id="line165" y2="23.39068" x2="1.4790403" y1="22.132915" x1="2.7358832" />
			<line id="line167" y2="15.121737" x2="1.4790403" y1="13.863973" x1="2.7358832" />
			<line id="line169" y2="48.149689" x2="1.4790403" y1="46.891922" x1="2.7358832" />
			<line id="line171" y2="6.8534141" x2="1.4790403" y1="5.5956492" x1="2.7358832" />
			<line id="line173" y2="43.996273" x2="31.59672" y1="42.738506" x1="30.339876" />
			<line id="line175" y2="35.735401" x2="31.59672" y1="34.477638" x1="30.339876" />
			<line id="line177" y2="27.466457" x2="31.59672" y1="26.208693" x1="30.339876" />
			<line id="line179" y2="19.236645" x2="31.59672" y1="17.97888" x1="30.339876" />
			<line id="line181" y2="10.968321" x2="31.59672" y1="9.710556" x1="30.339876" />
			<line id="line183" y2="2.6993747" x2="31.59672" y1="1.4416145" x1="30.339876" />
			<line id="line185" y2="43.996273" x2="30.339876" y1="42.738506" x1="31.59672" />
			<line id="line187" y2="35.735401" x2="30.339876" y1="34.477638" x1="31.59672" />
			<line id="line189" y2="27.466457" x2="30.339876" y1="26.208693" x1="31.59672" />
			<line id="line191" y2="19.236645" x2="30.339876" y1="17.97888" x1="31.59672" />
			<line id="line193" y2="10.968321" x2="30.339876" y1="9.710556" x1="31.59672" />
			<line id="line195" y2="2.6993747" x2="30.339876" y1="1.4416145" x1="31.59672" />
			<line id="line197" y2="39.888817" x2="35.796745" y1="38.631054" x1="34.539902" />
			<line id="line199" y2="31.620495" x2="35.796745" y1="30.36273" x1="34.539902" />
			<line id="line201" y2="23.39068" x2="35.796745" y1="22.132915" x1="34.539902" />
			<line id="line203" y2="15.121737" x2="35.796745" y1="13.863973" x1="34.539902" />
			<line id="line205" y2="48.149689" x2="35.796745" y1="46.891922" x1="34.539902" />
			<line id="line207" y2="6.8534141" x2="35.796745" y1="5.5956492" x1="34.539902" />
			<line id="line209" y2="39.888817" x2="34.539902" y1="38.631054" x1="35.796745" />
			<line id="line211" y2="31.620495" x2="34.539902" y1="30.36273" x1="35.796745" />
			<line id="line213" y2="23.39068" x2="34.539902" y1="22.132915" x1="35.796745" />
			<line id="line215" y2="15.121737" x2="34.539902" y1="13.863973" x1="35.796745" />
			<line id="line217" y2="48.149689" x2="34.539902" y1="46.891922" x1="35.796745" />
			<line id="line219" y2="6.8534141" x2="34.539902" y1="5.5956492" x1="35.796745" />
			<line id="line221" y2="43.996273" x2="39.869534" y1="42.738506" x1="38.612694" />
			<line id="line223" y2="35.735401" x2="39.869534" y1="34.477638" x1="38.612694" />
			<line id="line225" y2="27.466457" x2="39.869534" y1="26.208693" x1="38.612694" />
			<line id="line227" y2="19.236645" x2="39.869534" y1="17.97888" x1="38.612694" />
			<line id="line229" y2="10.968321" x2="39.869534" y1="9.710556" x1="38.612694" />
			<line id="line231" y2="2.6993747" x2="39.869534" y1="1.4416145" x1="38.612694" />
			<line id="line233" y2="43.996273" x2="38.612694" y1="42.738506" x1="39.869534" />
			<line id="line235" y2="35.735401" x2="38.612694" y1="34.477638" x1="39.869534" />
			<line id="line237" y2="27.466457" x2="38.612694" y1="26.208693" x1="39.869534" />
			<line id="line239" y2="19.236645" x2="38.612694" y1="17.97888" x1="39.869534" />
			<line id="line241" y2="10.968321" x2="38.612694" y1="9.710556" x1="39.869534" />
			<line id="line243" y2="2.6993747" x2="38.612694" y1="1.4416145" x1="39.869534" />
			<line id="line245" y2="39.888817" x2="44.05901" y1="38.631054" x1="42.802174" />
			<line id="line247" y2="31.620495" x2="44.05901" y1="30.36273" x1="42.802174" />
			<line id="line249" y2="23.39068" x2="44.05901" y1="22.132915" x1="42.802174" />
			<line id="line251" y2="15.121737" x2="44.05901" y1="13.863973" x1="42.802174" />
			<line id="line253" y2="48.149689" x2="44.05901" y1="46.891922" x1="42.802174" />
			<line id="line255" y2="6.8534141" x2="44.05901" y1="5.5956492" x1="42.802174" />
			<line id="line257" y2="39.888817" x2="42.802174" y1="38.631054" x1="44.05901" />
			<line id="line259" y2="31.620495" x2="42.802174" y1="30.36273" x1="44.05901" />
			<line id="line261" y2="23.39068" x2="42.802174" y1="22.132915" x1="44.05901" />
			<line id="line263" y2="15.121737" x2="42.802174" y1="13.863973" x1="44.05901" />
			<line id="line265" y2="48.149689" x2="42.802174" y1="46.891922" x1="44.05901" />
			<line id="line267" y2="6.8534141" x2="42.802174" y1="5.5956492" x1="44.05901" />
			<line id="line269" y2="43.996273" x2="48.131805" y1="42.738506" x1="46.875584" />
			<line id="line271" y2="35.735401" x2="48.131805" y1="34.477638" x1="46.875584" />
			<line id="line273" y2="27.466457" x2="48.131805" y1="26.208693" x1="46.875584" />
			<line id="line275" y2="19.236645" x2="48.131805" y1="17.97888" x1="46.875584" />
			<line id="line277" y2="10.968321" x2="48.131805" y1="9.710556" x1="46.875584" />
			<line id="line279" y2="2.6993747" x2="48.131805" y1="1.4416145" x1="46.875584" />
			<line id="line281" y2="43.996273" x2="46.875584" y1="42.738506" x1="48.131805" />
			<line id="line283" y2="35.735401" x2="46.875584" y1="34.477638" x1="48.131805" />
			<line id="line285" y2="27.466457" x2="46.875584" y1="26.208693" x1="48.131805" />
			<line id="line287" y2="19.236645" x2="46.875584" y1="17.97888" x1="48.131805" />
			<line id="line289" y2="10.968321" x2="46.875584" y1="9.710556" x1="48.131805" />
			<line id="line291" y2="2.6993747" x2="46.875584" y1="1.4416145" x1="48.131805" />
		</g>
		<g style="stroke:none;stroke-width:0;">
			<circle r="0.22" id="circle293" cy="47.386333" cx="5.5338326" />
			<circle r="0.22" id="circle295" cy="39.726086" cx="5.7411337" />
			<circle r="0.22" id="circle297" cy="49.560246" cx="5.9478145" />
			<circle r="0.22" id="circle299" cy="44.901863" cx="6.1544957" />
			<circle r="0.22" id="circle301" cy="28.986954" cx="6.2581463" />
			<circle r="0.22" id="circle303" cy="21.014904" cx="6.2581463" />
			<circle r="0.22" id="circle305" cy="30.926706" cx="6.4648271" />
			<circle r="0.22" id="circle307" cy="37.294407" cx="6.6460605" />
			<circle r="0.22" id="circle309" cy="12.707451" cx="6.6460605" />
			<circle r="0.22" id="circle311" cy="23.732296" cx="6.9563923" />
			<circle r="0.22" id="circle313" cy="41.952793" cx="7.1500392" />
			<circle r="0.22" id="circle315" cy="8.0490685" cx="7.1500392" />
			<circle r="0.22" id="circle317" cy="33.477638" cx="7.4994726" />
			<circle r="0.22" id="circle319" cy="16.524221" cx="7.4994726" />
			<circle r="0.22" id="circle321" cy="5.5254636" cx="7.4994726" />
			<circle r="0.22" id="circle323" cy="47.903725" cx="7.809804" />
			<circle r="0.22" id="circle325" cy="27.667078" cx="8.0164852" />
			<circle r="0.22" id="circle327" cy="22.33478" cx="8.0164852" />
			<circle r="0.22" id="circle329" cy="31.471426" cx="8.1977186" />
			<circle r="0.22" id="circle331" cy="18.530432" cx="8.1977186" />
			<circle r="0.22" id="circle333" cy="38.897514" cx="8.2237864" />
			<circle r="0.22" id="circle335" cy="25.647203" cx="8.2237864" />
			<circle r="0.22" id="circle337" cy="0.47887969" cx="8.2361994" />
			<circle r="0.22" id="circle339" cy="45.937263" cx="8.5341177" />
			<circle r="0.22" id="circle341" cy="35.884468" cx="8.740799" />
			<circle r="0.22" id="circle343" cy="14.117389" cx="8.740799" />
			<circle r="0.22" id="circle345" cy="3.1186311" cx="8.740799" />
			<circle r="0.22" id="circle347" cy="40.788197" cx="8.8183813" />
			<circle r="0.22" id="circle349" cy="29.78944" cx="8.8183813" />
			<circle r="0.22" id="circle351" cy="20.2118" cx="8.8183813" />
			<circle r="0.22" id="circle353" cy="9.2136641" cx="8.8183813" />
			<circle r="0.22" id="circle355" cy="43.349068" cx="9.0511303" />
			<circle r="0.22" id="circle357" cy="11.232296" cx="9.0511303" />
			<circle r="0.22" id="circle359" cy="27.303724" cx="10.188807" />
			<circle r="0.22" id="circle361" cy="33.567699" cx="10.214874" />
			<circle r="0.22" id="circle363" cy="16.434158" cx="10.214874" />
			<circle r="0.22" id="circle365" cy="37.359627" cx="10.292458" />
			<circle r="0.22" id="circle367" cy="12.642234" cx="10.292458" />
			<circle r="0.22" id="circle369" cy="1.643476" cx="10.292458" />
			<circle r="0.22" id="circle371" cy="18.503725" cx="10.37004" />
			<circle r="0.22" id="circle373" cy="7.50559" cx="10.37004" />
			<circle r="0.22" id="circle375" cy="44.591301" cx="10.602789" />
			<circle r="0.22" id="circle377" cy="3.9341614" cx="10.680371" />
			<circle r="0.22" id="circle379" cy="49.145962" cx="10.809469" />
			<circle r="0.22" id="circle381" cy="41.485714" cx="10.91312" />
			<circle r="0.22" id="circle383" cy="9.6018629" cx="10.91312" />
			<circle r="0.22" id="circle385" cy="29.452791" cx="11.068286" />
			<circle r="0.22" id="circle387" cy="20.549067" cx="11.068286" />
			<circle r="0.22" id="circle389" cy="35.22298" cx="11.223452" />
			<circle r="0.22" id="circle391" cy="24.922358" cx="11.327103" />
			<circle r="0.22" id="circle393" cy="24.198133" cx="0.67217821" />
			<circle r="0.22" id="circle395" cy="49.353413" cx="0.77582896" />
			<circle r="0.22" id="circle397" cy="34.331676" cx="0.78886282" />
			<circle r="0.22" id="circle399" cy="15.670184" cx="0.78886282" />
			<circle r="0.22" id="circle401" cy="4.6714263" cx="0.78886282" />
			<circle r="0.22" id="circle403" cy="45.329811" cx="0.78886282" />
			<circle r="0.22" id="circle405" cy="27.614283" cx="0.98250973" />
			<circle r="0.22" id="circle407" cy="39.416767" cx="12.387196" />
			<circle r="0.22" id="circle409" cy="31.471426" cx="12.387196" />
			<circle r="0.22" id="circle411" cy="18.530432" cx="12.387196" />
			<circle r="0.22" id="circle413" cy="10.584473" cx="12.387196" />
			<circle r="0.22" id="circle415" cy="46.972046" cx="12.568429" />
			<circle r="0.22" id="circle417" cy="36.699375" cx="12.619944" />
			<circle r="0.22" id="circle419" cy="13.301862" cx="12.619944" />
			<circle r="0.22" id="circle421" cy="2.3037267" cx="12.619944" />
			<circle r="0.22" id="circle423" cy="27.460247" cx="12.671459" />
			<circle r="0.22" id="circle425" cy="22.541613" cx="12.671459" />
			<circle r="0.22" id="circle427" cy="44.592545" cx="12.852693" />
			<circle r="0.22" id="circle429" cy="33.593788" cx="12.852693" />
			<circle r="0.22" id="circle431" cy="16.407452" cx="12.852693" />
			<circle r="0.22" id="circle433" cy="5.4093165" cx="12.852693" />
			<circle r="0.22" id="circle435" cy="42.108074" cx="13.085442" />
			<circle r="0.22" id="circle437" cy="7.8937888" cx="13.085442" />
			<circle r="0.22" id="circle439" cy="29.375153" cx="13.628522" />
			<circle r="0.22" id="circle441" cy="20.626705" cx="13.628522" />
			<circle r="0.22" id="circle443" cy="48.732296" cx="13.706104" />
			<circle r="0.22" id="circle445" cy="23.473289" cx="14.223117" />
			<circle r="0.22" id="circle447" cy="14.415525" cx="14.40435" />
			<circle r="0.22" id="circle449" cy="31.237265" cx="14.430418" />
			<circle r="0.22" id="circle451" cy="40.036644" cx="14.533448" />
			<circle r="0.22" id="circle453" cy="37.708694" cx="14.533448" />
			<circle r="0.22" id="circle455" cy="12.293165" cx="14.533448" />
			<circle r="0.22" id="circle457" cy="4.32236" cx="14.947431" />
			<circle r="0.22" id="circle459" cy="45.679501" cx="14.947431" />
			<circle r="0.22" id="circle461" cy="6.2633538" cx="15.102596" />
			<circle r="0.22" id="circle463" cy="33.490059" cx="15.257762" />
			<circle r="0.22" id="circle465" cy="16.511799" cx="15.257762" />
			<circle r="0.22" id="circle467" cy="0.44037259" cx="15.72326" />
			<circle r="0.22" id="circle469" cy="27.977636" cx="15.774775" />
			<circle r="0.22" id="circle471" cy="22.024221" cx="15.774775" />
			<circle r="0.22" id="circle473" cy="24.715525" cx="15.982076" />
			<circle r="0.22" id="circle475" cy="41.797512" cx="16.188757" />
			<circle r="0.22" id="circle477" cy="8.2043476" cx="16.188757" />
			<circle r="0.22" id="circle479" cy="30.07391" cx="16.26634" />
			<circle r="0.22" id="circle481" cy="19.927948" cx="16.26634" />
			<circle r="0.22" id="circle483" cy="47.309937" cx="16.26634" />
			<circle r="0.22" id="circle485" cy="2.6919253" cx="16.26634" />
			<circle r="0.22" id="circle487" cy="36.59565" cx="16.343924" />
			<circle r="0.22" id="circle489" cy="13.406209" cx="16.343924" />
			<circle r="0.22" id="circle491" cy="34.395649" cx="16.705769" />
			<circle r="0.22" id="circle493" cy="15.605588" cx="16.705769" />
			<circle r="0.22" id="circle495" cy="39.701241" cx="16.80942" />
			<circle r="0.22" id="circle497" cy="32.170185" cx="16.80942" />
			<circle r="0.22" id="circle499" cy="17.831675" cx="16.80942" />
			<circle r="0.22" id="circle501" cy="10.300621" cx="16.80942" />
			<circle r="0.22" id="circle503" cy="4.6714263" cx="17.388498" />
			<circle r="0.22" id="circle505" cy="45.329811" cx="17.388498" />
			<circle r="0.22" id="circle507" cy="36.932297" cx="1.7198576" />
			<circle r="0.22" id="circle509" cy="13.068942" cx="1.7198576" />
			<circle r="0.22" id="circle511" cy="2.0708075" cx="1.7198576" />
			<circle r="0.22" id="circle513" cy="41.680744" cx="1.7583387" />
			<circle r="0.22" id="circle515" cy="19.319252" cx="1.7583387" />
			<circle r="0.22" id="circle517" cy="8.3204947" cx="1.7583387" />
			<circle r="0.22" id="circle519" cy="26.785711" cx="18.050747" />
			<circle r="0.22" id="circle521" cy="49.249687" cx="18.154396" />
			<circle r="0.22" id="circle523" cy="37.50124" cx="18.154396" />
			<circle r="0.22" id="circle525" cy="12.499998" cx="18.154396" />
			<circle r="0.22" id="circle527" cy="2.0708075" cx="18.319492" />
			<circle r="0.22" id="circle529" cy="41.680744" cx="18.358595" />
			<circle r="0.22" id="circle531" cy="30.682608" cx="18.358595" />
			<circle r="0.22" id="circle533" cy="19.319252" cx="18.358595" />
			<circle r="0.22" id="circle535" cy="8.3204947" cx="18.358595" />
			<circle r="0.22" id="circle537" cy="43.452793" cx="18.464729" />
			<circle r="0.22" id="circle539" cy="24.611799" cx="18.464729" />
			<circle r="0.22" id="circle541" cy="35.378258" cx="18.567759" />
			<circle r="0.22" id="circle543" cy="32.636024" cx="18.901674" />
			<circle r="0.22" id="circle545" cy="17.365835" cx="18.901674" />
			<circle r="0.22" id="circle547" cy="10.662112" cx="19.134422" />
			<circle r="0.22" id="circle549" cy="28.831675" cx="19.755087" />
			<circle r="0.22" id="circle551" cy="21.170183" cx="19.755087" />
			<circle r="0.22" id="circle553" cy="4.4000001" cx="19.910252" />
			<circle r="0.22" id="circle555" cy="45.60186" cx="19.910252" />
			<circle r="0.22" id="circle557" cy="34.499378" cx="20.429749" />
			<circle r="0.22" id="circle559" cy="15.502482" cx="20.429749" />
			<circle r="0.22" id="circle561" cy="37.475773" cx="20.763664" />
			<circle r="0.22" id="circle563" cy="48.474533" cx="20.763664" />
			<circle r="0.22" id="circle565" cy="12.525464" cx="20.763664" />
			<circle r="0.22" id="circle567" cy="1.5273291" cx="20.763664" />
			<circle r="0.22" id="circle569" cy="24.922358" cx="20.843731" />
			<circle r="0.22" id="circle571" cy="27.1236" cx="21.151579" />
			<circle r="0.22" id="circle573" cy="22.878258" cx="21.151579" />
			<circle r="0.22" id="circle575" cy="41.719875" cx="21.22916" />
			<circle r="0.22" id="circle577" cy="30.721117" cx="21.22916" />
			<circle r="0.22" id="circle579" cy="19.280123" cx="21.22916" />
			<circle r="0.22" id="circle581" cy="8.2819872" cx="21.22916" />
			<circle r="0.22" id="circle583" cy="43.777016" cx="21.267643" />
			<circle r="0.22" id="circle585" cy="32.778881" cx="21.267643" />
			<circle r="0.22" id="circle587" cy="17.222979" cx="21.267643" />
			<circle r="0.22" id="circle589" cy="6.2242212" cx="21.267643" />
			<circle r="0.22" id="circle591" cy="4.0503082" cx="22.082573" />
			<circle r="0.22" id="circle593" cy="39.622356" cx="22.188707" />
			<circle r="0.22" id="circle595" cy="14.881364" cx="22.60207" />
			<circle r="0.22" id="circle597" cy="46.558384" cx="22.705719" />
			<circle r="0.22" id="circle599" cy="31.754656" cx="22.80937" />
			<circle r="0.22" id="circle601" cy="28.986954" cx="22.858402" />
			<circle r="0.22" id="circle603" cy="21.014904" cx="22.858402" />
			<circle r="0.22" id="circle605" cy="37.294407" cx="23.246317" />
			<circle r="0.22" id="circle607" cy="12.707451" cx="23.246317" />
			<circle r="0.22" id="circle609" cy="23.732296" cx="23.556648" />
			<circle r="0.22" id="circle611" cy="48.732296" cx="23.636715" />
			<circle r="0.22" id="circle613" cy="41.952793" cx="23.750296" />
			<circle r="0.22" id="circle615" cy="8.0490685" cx="23.750296" />
			<circle r="0.22" id="circle617" cy="44.475773" cx="24.099728" />
			<circle r="0.22" id="circle619" cy="33.477638" cx="24.099728" />
			<circle r="0.22" id="circle621" cy="16.524221" cx="24.099728" />
			<circle r="0.22" id="circle623" cy="5.5254636" cx="24.099728" />
			<circle r="0.22" id="circle625" cy="43.555901" cx="2.1201851" />
			<circle r="0.22" id="circle627" cy="32.636024" cx="2.3014188" />
			<circle r="0.22" id="circle629" cy="17.365835" cx="2.3014188" />
			<circle r="0.22" id="circle631" cy="25.647203" cx="24.67136" />
			<circle r="0.22" id="circle633" cy="27.667078" cx="24.774389" />
			<circle r="0.22" id="circle635" cy="22.33478" cx="24.774389" />
			<circle r="0.22" id="circle637" cy="31.471426" cx="24.797974" />
			<circle r="0.22" id="circle639" cy="18.530432" cx="24.797974" />
			<circle r="0.22" id="circle641" cy="0.47887969" cx="24.836456" />
			<circle r="0.22" id="circle643" cy="35.884468" cx="25.341055" />
			<circle r="0.22" id="circle645" cy="14.117389" cx="25.341055" />
			<circle r="0.22" id="circle647" cy="46.882607" cx="25.341055" />
			<circle r="0.22" id="circle649" cy="3.1186311" cx="25.341055" />
			<circle r="0.22" id="circle651" cy="40.788197" cx="25.418638" />
			<circle r="0.22" id="circle653" cy="29.78944" cx="25.418638" />
			<circle r="0.22" id="circle655" cy="20.2118" cx="25.418638" />
			<circle r="0.22" id="circle657" cy="9.2136641" cx="25.418638" />
			<circle r="0.22" id="circle659" cy="38.769562" cx="25.651386" />
			<circle r="0.22" id="circle661" cy="11.232296" cx="25.651386" />
			<circle r="0.22" id="circle663" cy="44.384472" cx="26.326048" />
			<circle r="0.22" id="circle665" cy="33.567699" cx="26.81513" />
			<circle r="0.22" id="circle667" cy="16.434158" cx="26.81513" />
			<circle r="0.22" id="circle669" cy="37.359627" cx="26.892712" />
			<circle r="0.22" id="circle671" cy="12.642234" cx="26.892712" />
			<circle r="0.22" id="circle673" cy="1.643476" cx="26.892712" />
			<circle r="0.22" id="circle675" cy="27.096272" cx="26.946711" />
			<circle r="0.22" id="circle677" cy="42.496273" cx="26.970295" />
			<circle r="0.22" id="circle679" cy="18.503725" cx="26.970295" />
			<circle r="0.22" id="circle681" cy="7.50559" cx="26.970295" />
			<circle r="0.22" id="circle683" cy="48.835403" cx="27.050362" />
			<circle r="0.22" id="circle685" cy="46.067699" cx="27.280626" />
			<circle r="0.22" id="circle687" cy="3.9341614" cx="27.280626" />
			<circle r="0.22" id="circle689" cy="24.715525" cx="27.774675" />
			<circle r="0.22" id="circle691" cy="35.170807" cx="27.981356" />
			<circle r="0.22" id="circle693" cy="40.788197" cx="28.291687" />
			<circle r="0.22" id="circle695" cy="9.2136641" cx="28.291687" />
			<circle r="0.22" id="circle697" cy="29.452791" cx="28.366787" />
			<circle r="0.22" id="circle699" cy="20.549067" cx="28.366787" />
			<circle r="0.22" id="circle701" cy="43.738506" cx="28.834768" />
			<circle r="0.22" id="circle703" cy="6.2633538" cx="28.834768" />
			<circle r="0.22" id="circle705" cy="49.560246" cx="28.912352" />
			<circle r="0.22" id="circle707" cy="39.416767" cx="28.98745" />
			<circle r="0.22" id="circle709" cy="10.584473" cx="28.98745" />
			<circle r="0.22" id="circle711" cy="4.32236" cx="29.016001" />
			<circle r="0.22" id="circle713" cy="45.679501" cx="29.016001" />
			<circle r="0.22" id="circle715" cy="37.294407" cx="29.067516" />
			<circle r="0.22" id="circle717" cy="31.704346" cx="29.067516" />
			<circle r="0.22" id="circle719" cy="18.297512" cx="29.067516" />
			<circle r="0.22" id="circle721" cy="12.707451" cx="29.067516" />
			<circle r="0.22" id="circle723" cy="2.3037267" cx="29.2202" />
			<circle r="0.22" id="circle725" cy="27.278879" cx="29.222683" />
			<circle r="0.22" id="circle727" cy="22.722979" cx="29.222683" />
			<circle r="0.22" id="circle729" cy="15.269563" cx="29.222683" />
			<circle r="0.22" id="circle731" cy="47.179501" cx="29.739695" />
			<circle r="0.22" id="circle733" cy="41.642235" cx="30.050026" />
			<circle r="0.22" id="circle735" cy="8.3596268" cx="30.050026" />
			<circle r="0.22" id="circle737" cy="10.662112" cx="2.5341675" />
			<circle r="0.22" id="circle739" cy="26.061487" cx="2.7408483" />
			<circle r="0.22" id="circle741" cy="33.490059" cx="30.541592" />
			<circle r="0.22" id="circle743" cy="16.511799" cx="30.541592" />
			<circle r="0.22" id="circle745" cy="28.986954" cx="30.851923" />
			<circle r="0.22" id="circle747" cy="21.014904" cx="30.851923" />
			<circle r="0.22" id="circle749" cy="6.8844719" cx="31.00709" />
			<circle r="0.22" id="circle751" cy="36.750931" cx="31.239838" />
			<circle r="0.22" id="circle753" cy="13.250929" cx="31.239838" />
			<circle r="0.22" id="circle755" cy="24.301239" cx="31.291353" />
			<circle r="0.22" id="circle757" cy="49.249687" cx="31.395004" />
			<circle r="0.22" id="circle759" cy="4.8658385" cx="31.550169" />
			<circle r="0.22" id="circle761" cy="45.136024" cx="31.550169" />
			<circle r="0.22" id="circle763" cy="35.042854" cx="32.248417" />
			<circle r="0.22" id="circle765" cy="14.959003" cx="32.248417" />
			<circle r="0.22" id="circle767" cy="38.536644" cx="32.40358" />
			<circle r="0.22" id="circle769" cy="11.465215" cx="32.40358" />
			<circle r="0.22" id="circle771" cy="32.868942" cx="32.558746" />
			<circle r="0.22" id="circle773" cy="17.132917" cx="32.558746" />
			<circle r="0.22" id="circle775" cy="27.667078" cx="32.63633" />
			<circle r="0.22" id="circle777" cy="22.33478" cx="32.63633" />
			<circle r="0.22" id="circle779" cy="41.021114" cx="32.84301" />
			<circle r="0.22" id="circle781" cy="8.9807453" cx="32.84301" />
			<circle r="0.22" id="circle783" cy="47.931053" cx="32.86908" />
			<circle r="0.22" id="circle785" cy="2.0708075" cx="32.86908" />
			<circle r="0.22" id="circle787" cy="30.617388" cx="32.946663" />
			<circle r="0.22" id="circle789" cy="19.38447" cx="32.946663" />
			<circle r="0.22" id="circle791" cy="43.816147" cx="33.256992" />
			<circle r="0.22" id="circle793" cy="6.1857142" cx="33.256992" />
			<circle r="0.22" id="circle795" cy="45.990059" cx="33.463673" />
			<circle r="0.22" id="circle797" cy="4.0118012" cx="33.463673" />
			<circle r="0.22" id="circle799" cy="36.828571" cx="33.722488" />
			<circle r="0.22" id="circle801" cy="13.173289" cx="33.722488" />
			<circle r="0.22" id="circle803" cy="24.301239" cx="34.394669" />
			<circle r="0.22" id="circle805" cy="0.82857132" cx="34.498318" />
			<circle r="0.22" id="circle807" cy="18.711178" cx="34.601971" />
			<circle r="0.22" id="circle809" cy="33.412422" cx="34.653484" />
			<circle r="0.22" id="circle811" cy="16.589439" cx="34.653484" />
			<circle r="0.22" id="circle813" cy="10.766459" cx="34.731068" />
			<circle r="0.22" id="circle815" cy="29.116146" cx="34.808651" />
			<circle r="0.22" id="circle817" cy="20.885092" cx="34.808651" />
			<circle r="0.22" id="circle819" cy="2.6142857" cx="34.808651" />
			<circle r="0.22" id="circle821" cy="26.26832" cx="35.222633" />
			<circle r="0.22" id="circle823" cy="41.331676" cx="35.35173" />
			<circle r="0.22" id="circle825" cy="8.670186" cx="35.35173" />
			<circle r="0.22" id="circle827" cy="43.659626" cx="35.429314" />
			<circle r="0.22" id="circle829" cy="49.145962" cx="35.532963" />
			<circle r="0.22" id="circle831" cy="35.378258" cx="35.532963" />
			<circle r="0.22" id="circle833" cy="28.831675" cx="3.1548305" />
			<circle r="0.22" id="circle835" cy="21.170183" cx="3.1548305" />
			<circle r="0.22" id="circle837" cy="34.603104" cx="3.3099964" />
			<circle r="0.22" id="circle839" cy="15.398134" cx="3.3099964" />
			<circle r="0.22" id="circle841" cy="4.4000001" cx="3.3099964" />
			<circle r="0.22" id="circle843" cy="45.60186" cx="3.3099964" />
			<circle r="0.22" id="circle845" cy="33.943478" cx="36.593056" />
			<circle r="0.22" id="circle847" cy="16.058382" cx="36.593056" />
			<circle r="0.22" id="circle849" cy="5.0596251" cx="36.593056" />
			<circle r="0.22" id="circle851" cy="44.941612" cx="36.593056" />
			<circle r="0.22" id="circle853" cy="37.049065" cx="36.825806" />
			<circle r="0.22" id="circle855" cy="12.952793" cx="36.825806" />
			<circle r="0.22" id="circle857" cy="1.9540349" cx="36.825806" />
			<circle r="0.22" id="circle859" cy="31.911179" cx="36.877319" />
			<circle r="0.22" id="circle861" cy="18.090059" cx="36.877319" />
			<circle r="0.22" id="circle863" cy="39.766457" cx="37.058556" />
			<circle r="0.22" id="circle865" cy="10.235401" cx="37.058556" />
			<circle r="0.22" id="circle867" cy="47.490059" cx="37.187653" />
			<circle r="0.22" id="circle869" cy="41.952793" cx="37.291302" />
			<circle r="0.22" id="circle871" cy="8.0490685" cx="37.291302" />
			<circle r="0.22" id="circle873" cy="29.801861" cx="37.679218" />
			<circle r="0.22" id="circle875" cy="20.199377" cx="37.679218" />
			<circle r="0.22" id="circle877" cy="27.770807" cx="37.808315" />
			<circle r="0.22" id="circle879" cy="22.231054" cx="37.808315" />
			<circle r="0.22" id="circle881" cy="14.156519" cx="38.325947" />
			<circle r="0.22" id="circle883" cy="24.404966" cx="38.428978" />
			<circle r="0.22" id="circle885" cy="49.353413" cx="38.63628" />
			<circle r="0.22" id="circle887" cy="3.5844698" cx="38.765377" />
			<circle r="0.22" id="circle889" cy="7.1558981" cx="39.075706" />
			<circle r="0.22" id="circle891" cy="37.708694" cx="39.15329" />
			<circle r="0.22" id="circle893" cy="12.292544" cx="39.15329" />
			<circle r="0.22" id="circle895" cy="33.916767" cx="39.230873" />
			<circle r="0.22" id="circle897" cy="16.084469" cx="39.230873" />
			<circle r="0.22" id="circle899" cy="46.558384" cx="39.256943" />
			<circle r="0.22" id="circle901" cy="5.1763973" cx="39.773952" />
			<circle r="0.22" id="circle903" cy="44.825462" cx="39.773952" />
			<circle r="0.22" id="circle905" cy="28.120497" cx="40.394615" />
			<circle r="0.22" id="circle907" cy="21.881365" cx="40.394615" />
			<circle r="0.22" id="circle909" cy="41.137264" cx="40.627365" />
			<circle r="0.22" id="circle911" cy="30.13913" cx="40.627365" />
			<circle r="0.22" id="circle913" cy="19.86273" cx="40.627365" />
			<circle r="0.22" id="circle915" cy="8.8639727" cx="40.627365" />
			<circle r="0.22" id="circle917" cy="36.23354" cx="40.704948" />
			<circle r="0.22" id="circle919" cy="13.7677" cx="40.704948" />
			<circle r="0.22" id="circle921" cy="2.7695651" cx="40.704948" />
			<circle r="0.22" id="circle923" cy="38.381363" cx="40.860115" />
			<circle r="0.22" id="circle925" cy="11.620495" cx="40.860115" />
			<circle r="0.22" id="circle927" cy="48.111179" cx="40.911629" />
			<circle r="0.22" id="circle929" cy="0.44037259" cx="41.170444" />
			<circle r="0.22" id="circle931" cy="31.820496" cx="41.248028" />
			<circle r="0.22" id="circle933" cy="18.180742" cx="41.248028" />
			<circle r="0.22" id="circle935" cy="25.959003" cx="41.713524" />
			<circle r="0.22" id="circle937" cy="24.042854" cx="41.713524" />
			<circle r="0.22" id="circle939" cy="33.826706" cx="41.946274" />
			<circle r="0.22" id="circle941" cy="16.174532" cx="41.946274" />
			<circle r="0.22" id="circle943" cy="5.1763973" cx="41.946274" />
			<circle r="0.22" id="circle945" cy="44.825462" cx="41.946274" />
			<circle r="0.22" id="circle947" cy="39.934158" cx="42.256607" />
			<circle r="0.22" id="circle949" cy="10.067701" cx="42.256607" />
			<circle r="0.22" id="circle951" cy="42.301861" cx="42.29509" />
			<circle r="0.22" id="circle953" cy="7.6993766" cx="42.29509" />
			<circle r="0.22" id="circle955" cy="27.303724" cx="42.463287" />
			<circle r="0.22" id="circle957" cy="1.8378881" cx="42.64452" />
			<circle r="0.22" id="circle959" cy="48.939129" cx="3.8791447" />
			<circle r="0.22" id="circle961" cy="37.475773" cx="4.1634083" />
			<circle r="0.22" id="circle963" cy="12.525464" cx="4.1634083" />
			<circle r="0.22" id="circle965" cy="1.5273291" cx="4.1634083" />
			<circle r="0.22" id="circle967" cy="37.643475" cx="42.799686" />
			<circle r="0.22" id="circle969" cy="12.357761" cx="42.799686" />
			<circle r="0.22" id="circle971" cy="29.336021" cx="43.187599" />
			<circle r="0.22" id="circle973" cy="20.665215" cx="43.187599" />
			<circle r="0.22" id="circle975" cy="18.219873" cx="43.187599" />
			<circle r="0.22" id="circle977" cy="45.729813" cx="43.497932" />
			<circle r="0.22" id="circle979" cy="49.45652" cx="43.601582" />
			<circle r="0.22" id="circle981" cy="35.378258" cx="43.601582" />
			<circle r="0.22" id="circle983" cy="3.7012422" cx="43.963428" />
			<circle r="0.22" id="circle985" cy="25.232918" cx="44.325275" />
			<circle r="0.22" id="circle987" cy="9.9900618" cx="44.351345" />
			<circle r="0.22" id="circle989" cy="44.126705" cx="44.77774" />
			<circle r="0.22" id="circle991" cy="33.127949" cx="44.77774" />
			<circle r="0.22" id="circle993" cy="16.873289" cx="44.77774" />
			<circle r="0.22" id="circle995" cy="5.875155" cx="44.77774" />
			<circle r="0.22" id="circle997" cy="42.068943" cx="44.816841" />
			<circle r="0.22" id="circle999" cy="31.070805" cx="44.816841" />
			<circle r="0.22" id="circle1001" cy="18.931053" cx="44.816841" />
			<circle r="0.22" id="circle1003" cy="7.9322958" cx="44.816841" />
			<circle r="0.22" id="circle1005" cy="27.472668" cx="44.894424" />
			<circle r="0.22" id="circle1007" cy="22.528568" cx="44.894424" />
			<circle r="0.22" id="circle1009" cy="37.825462" cx="45.282337" />
			<circle r="0.22" id="circle1011" cy="12.176395" cx="45.282337" />
			<circle r="0.22" id="circle1013" cy="1.1776375" cx="45.282337" />
			<circle r="0.22" id="circle1015" cy="48.00745" cx="45.463573" />
			<circle r="0.22" id="circle1017" cy="34.952793" cx="46.13575" />
			<circle r="0.22" id="circle1019" cy="15.049067" cx="46.13575" />
			<circle r="0.22" id="circle1021" cy="4.0503082" cx="46.13575" />
			<circle r="0.22" id="circle1023" cy="45.950932" cx="46.13575" />
			<circle r="0.22" id="circle1025" cy="29.180742" cx="46.290916" />
			<circle r="0.22" id="circle1027" cy="20.820494" cx="46.290916" />
			<circle r="0.22" id="circle1029" cy="24.508694" cx="46.704899" />
			<circle r="0.22" id="circle1031" cy="39.932919" cx="47.118259" />
			<circle r="0.22" id="circle1033" cy="32.985092" cx="47.144329" />
			<circle r="0.22" id="circle1035" cy="17.016148" cx="47.144329" />
			<circle r="0.22" id="circle1037" cy="22.437885" cx="47.325562" />
			<circle r="0.22" id="circle1039" cy="5.875155" cx="47.377075" />
			<circle r="0.22" id="circle1041" cy="49.353413" cx="47.428593" />
			<circle r="0.22" id="circle1043" cy="42.030434" cx="47.687408" />
			<circle r="0.22" id="circle1045" cy="7.9714284" cx="47.687408" />
			<circle r="0.22" id="circle1047" cy="37.281986" cx="47.725891" />
			<circle r="0.22" id="circle1049" cy="12.719873" cx="47.725891" />
			<circle r="0.22" id="circle1051" cy="29.375153" cx="48.463238" />
			<circle r="0.22" id="circle1053" cy="20.626705" cx="48.463238" />
			<circle r="0.22" id="circle1055" cy="34.680744" cx="48.656887" />
			<circle r="0.22" id="circle1057" cy="15.320495" cx="48.656887" />
			<circle r="0.22" id="circle1059" cy="4.32236" cx="48.656887" />
			<circle r="0.22" id="circle1061" cy="45.679501" cx="48.656887" />
			<circle r="0.22" id="circle1063" cy="27.1236" cx="4.5513225" />
			<circle r="0.22" id="circle1065" cy="22.878258" cx="4.5513225" />
			<circle r="0.22" id="circle1067" cy="41.719875" cx="4.6289053" />
			<circle r="0.22" id="circle1069" cy="30.721117" cx="4.6289053" />
			<circle r="0.22" id="circle1071" cy="19.280123" cx="4.6289053" />
			<circle r="0.22" id="circle1073" cy="8.2819872" cx="4.6289053" />
			<circle r="0.22" id="circle1075" cy="43.777016" cx="4.667387" />
			<circle r="0.22" id="circle1077" cy="32.778881" cx="4.667387" />
			<circle r="0.22" id="circle1079" cy="17.222979" cx="4.667387" />
			<circle r="0.22" id="circle1081" cy="6.2242212" cx="4.667387" />
			<circle r="0.22" id="circle1083" cy="24.819252" cx="4.7064886" />
			<circle r="0.22" id="circle1085" cy="47.386333" cx="48.980251" />
			<circle r="0.22" id="circle1087" cy="25.907452" cx="49.290581" />
			<circle r="0.22" id="circle1089" cy="24.094408" cx="49.290581" />
			<circle r="0.22" id="circle1091" cy="38.847202" cx="49.471813" />
			<circle r="0.22" id="circle1093" cy="11.154658" cx="49.471813" />
			<circle r="0.22" id="circle1095" cy="42.922981" cx="49.647465" />
			<circle r="0.22" id="circle1097" cy="31.924843" cx="49.647465" />
			<circle r="0.22" id="circle1099" cy="18.077017" cx="49.647465" />
			<circle r="0.22" id="circle1101" cy="7.0782585" cx="49.647465" />
			<circle r="0.22" id="circle1103" cy="15.049067" cx="5.4823174" />
			<circle r="0.22" id="circle1105" cy="4.0503082" cx="5.4823174" />
		</g>
	</g>
</svg>
