<?xml version="1.0" encoding="UTF-8" standalone="no"?>
<svg xmlns:dc="http://purl.org/dc/elements/1.1/" xmlns:cc="http://creativecommons.org/ns#" xmlns:rdf="http://www.w3.org/1999/02/22-rdf-syntax-ns#" xmlns:svg="http://www.w3.org/2000/svg" xmlns="http://www.w3.org/2000/svg" version="1.1" x="0px" y="0px" xml:space="preserve" width="50.00" height="50.00" viewBox="0 0 50.00 50.00">
	<metadata id="metadata2">
		<rdf:RDF>
			<ns:item rdf:ID="biblio1">
				<ns:link>rdf:resource=&quot;http://pubs.usgs.gov/tm/2006/11A02/</ns:link>
				<ns:title>U.S. Geological Survey, 2006, FGDC Digital Cartographic Standard for Geologic Map Symbolization (PostScript Implementation): U.S. Geological Survey Techniques and Methods 11-A2</ns:title>
			</ns:item>
			<ns:item rdf:ID="biblio2">
				<ns:link>https://davenquinn.com/projects/geologic-patterns/</ns:link>
				<ns:title>FGDC Geologic Patterns for the Web</ns:title>
			</ns:item>
			<rdf:Description>
				<dc:description>
					Converted from 'FGDC Geologic Patterns for the Web' to QGIS compatible svg symbols, with customisable fill colour/stroke colour/stroke width (when appropriate).
					SVG scaled to 50x50 pixels so that base outline-width is 0.387 px and width is 90 in the QGIS xml definition file. 
					Some of the original FGDC symbols have been omitted from this set because they can be generated from other symbols using the 'texture width' and/or 'stroke width' fields in QGIS symbology form.
				</dc:description>
				<dc:date>01 MARCH 2019</dc:date>
				<dc:creator>GeoProc.com</dc:creator>
				<dc:publisher rdf:resource="https://github.com/BC-Consulting/QGIS-FGDC-Fill" />
			</rdf:Description>
			<cc:Work rdf:about="">
				<dc:format>image/svg+xml</dc:format>
				<dc:type rdf:resource="http://purl.org/dc/dcmitype/StillImage" />
				<dc:title>FGDC fill symbol: Lithology - Metamorphism, Igneous and vein - 733 Ore</dc:title>
			</cc:Work>
		</rdf:RDF>
	</metadata>
	<path style="fill:none;stroke:none;stroke-width:0;" id="rect1500" width="50.00" height="50.00" x="0.0" y="0.0" />
	<g fill="param(fill) #000" stroke="param(outline) #000" stroke-width="param(outline-width) 0.6" style="stroke-linecap:square;">
		<g style="stroke:none;stroke-width:0;">
			<path d="M 32.511009,12.041283 C 29.357798,12.112842 45.699082,9.5183468 46.1,9.9770624 c 0.400917,0.4587156 -0.172477,1.1467886 -1.548624,1.4330276 -1.376147,0.286238 -10.893578,1.433945 -12.384404,1.663303 -1.490825,0.229357 2.866973,-1.089909 0.344037,-1.03211 z" id="path251" />
			<path d="m 33.887156,19.380732 c 2.152293,1.479817 3.784403,1.03211 6.077981,0.114679 2.293578,-0.917431 1.777982,-0.917431 3.383487,-0.744954 1.605504,0.172477 2.866972,-0.172477 4.243119,-0.860551 1.376147,-0.688073 2.178899,-1.490825 1.089908,-1.319266 -1.088991,0.17156 -4.243119,1.20367 -5.619266,1.146789 -1.376147,-0.05688 -2.695413,0.229358 -3.955963,0.744955 -1.260551,0.515596 -6.136697,0.287155 -5.219266,0.918348 z" id="path253" />
			<path d="m 35.894495,26.720182 c -2.446789,-0.349542 5.504587,0.401835 7.625688,0.229357 2.121101,-0.172477 2.924771,-0.401834 2.924771,0.05688 0,0.458716 -1.662385,0.860551 -3.669725,0.744954 -2.007339,-0.115596 -5.447706,-0.631192 -6.249541,-0.458715 -0.801835,0.172477 -0.230275,-0.515597 -0.631193,-0.572477 z" id="path255" />
			<path d="M 44.820183,6.4596312 C 42.829358,7.9770624 41.322936,7.0330257 36.333945,7.1477046 31.344954,7.2623835 25.32477,6.7458698 29.739449,5.8284386 c 4.414679,-0.9174312 6.536698,-1.0899083 9.174312,-0.6880734 2.637615,0.4018349 7.110092,0.4018349 5.906422,1.319266 z" id="path257" />
		</g>
		<g style="fill:none;">
			<line x1="7.1605506" y1="14.227522" x2="42.895412" y2="49.999996" id="line5" />
			<line x1="7.1669726" y1="0" x2="11.238532" y2="4.070642" id="line7" />
			<line x1="7.1889901" y1="9.4963284" x2="9.5972471" y2="11.904585" id="line9" />
			<line x1="7.2275233" y1="14.222934" x2="3.5311925" y2="17.923851" id="line11" />
			<line x1="7.8486242" y1="31.600914" x2="26.266054" y2="49.999996" id="line13" />
			<line x1="9.0229359" y1="31.499998" x2="5.2403669" y2="35.287155" id="line15" />
			<line x1="9.5256872" y1="0" x2="4.5651374" y2="4.966053" id="line17" />
			<line x1="9.5972471" y1="11.904585" x2="47.240364" y2="49.548622" id="line19" />
			<line x1="11.66422" y1="5.0128407" x2="7.1366973" y2="9.5449533" id="line21" />
			<line x1="11.908257" y1="0" x2="4.7825689" y2="7.1339421" id="line23" />
			<line x1="11.983486" y1="0" x2="14.850459" y2="2.8669722" id="line25" />
			<line x1="12.363302" y1="30.540365" x2="7.3211002" y2="35.588989" id="line27" />
			<line x1="13.055963" y1="6.0036683" x2="8.6155958" y2="10.44954" id="line29" />
			<line x1="13.101835" y1="5.9348602" x2="22.419266" y2="15.252294" id="line31" />
			<line x1="13.324771" y1="29.909172" x2="33.377064" y2="49.999996" id="line33" />
			<line x1="13.681651" y1="29.221098" x2="12.363302" y2="30.540365" id="line35" />
			<line x1="13.898165" y1="25.780731" x2="38.078899" y2="49.999996" id="line37" />
			<line x1="14.012844" y1="28.246786" x2="35.784401" y2="49.999996" id="line39" />
			<line x1="14.270642" y1="23.745871" x2="40.487156" y2="49.999996" id="line41" />
			<line x1="14.289908" y1="0" x2="5.8018351" y2="8.4972448" id="line43" />
			<line x1="14.334863" y1="0" x2="17.344954" y2="3.0100896" id="line45" />
			<line x1="14.791742" y1="6.6495385" x2="9.5770645" y2="11.870641" id="line47" />
			<line x1="16.527523" y1="7.297246" x2="4.4935775" y2="19.344036" id="line49" />
			<line x1="16.670641" y1="0" x2="13.669724" y2="3.0045848" id="line51" />
			<line x1="16.743118" y1="0" x2="19.982569" y2="3.2394476" id="line53" />
			<line x1="17.000917" y1="7.4256859" x2="24.311926" y2="14.73578" id="line55" />
			<line x1="18.264219" y1="7.9421992" x2="6.0284405" y2="20.191742" id="line57" />
			<line x1="19.041283" y1="49.999996" x2="9.7688074" y2="40.746788" id="line59" />
			<line x1="19.052294" y1="0" x2="16.06422" y2="2.9917407" id="line61" />
			<line x1="20.056881" y1="8.5321093" x2="7.9651375" y2="20.637613" id="line63" />
			<line x1="20.35321" y1="17.772474" x2="14.2211" y2="23.911926" id="line65" />
			<line x1="20.727524" y1="8.7440348" x2="26.490824" y2="14.506422" id="line67" />
			<line x1="20.82844" y1="19.68165" x2="13.922936" y2="26.595411" id="line69" />
			<line x1="21.433945" y1="0" x2="18.288073" y2="3.1504567" id="line71" />
			<line x1="21.444954" y1="0" x2="24.368807" y2="2.9238532" id="line73" />
			<line x1="21.734861" y1="9.2357769" x2="9.8155966" y2="21.168804" id="line75" />
			<line x1="21.761467" y1="21.131189" x2="13.681651" y2="29.221098" id="line77" />
			<line x1="23.010092" y1="22.265137" x2="8.9990826" y2="36.29266" id="line79" />
			<line x1="23.414679" y1="9.9394484" x2="11.722936" y2="21.644035" id="line81" />
			<line x1="23.816513" y1="0" x2="20.511009" y2="3.3091726" id="line83" />
			<line x1="23.85321" y1="0" x2="26.433027" y2="2.5798163" id="line85" />
			<line x1="24.602751" y1="23.055044" x2="10.133027" y2="37.541283" id="line87" />
			<line x1="24.741285" y1="10.407337" x2="28.382566" y2="14.047707" id="line89" />
			<line x1="25.177982" y1="10.55688" x2="13.458715" y2="22.289906" id="line91" />
			<line x1="25.680735" y1="23.287155" x2="31.357796" y2="28.963301" id="line93" />
			<line x1="26.197248" y1="0" x2="22.962385" y2="3.2385306" id="line95" />
			<line x1="26.261467" y1="0" x2="28.354128" y2="2.0926585" id="line97" />
			<line x1="26.53945" y1="23.500916" x2="10.265138" y2="39.794495" id="line99" />
			<line x1="26.885319" y1="11.233027" x2="22.988991" y2="15.133943" id="line101" />
			<line x1="28.411009" y1="23.652292" x2="32.941284" y2="28.182566" id="line103" />
			<line x1="28.468807" y1="11.725686" x2="30.188992" y2="13.445869" id="line105" />
			<line x1="28.555044" y1="0" x2="30.446787" y2="1.8917431" id="line107" />
			<line x1="28.578897" y1="0" x2="25.931192" y2="2.6513753" id="line109" />
			<line x1="28.736696" y1="11.764218" x2="25.92844" y2="14.575227" id="line111" />
			<line x1="30.701834" y1="12.180731" x2="28.924772" y2="13.959632" id="line113" />
			<line x1="30.963301" y1="0" x2="32.740364" y2="1.7770641" id="line115" />
			<line x1="30.96789" y1="49.999996" x2="11.718349" y2="30.769722" id="line117" />
			<line x1="31.221102" y1="12.184402" x2="32.166969" y2="13.130275" id="line119" />
			<line x1="31.711926" y1="25.461466" x2="7.1293578" y2="49.999996" id="line121" />
			<line x1="32.867889" y1="33.842201" x2="16.662386" y2="49.999996" id="line123" />
			<line x1="33.1422" y1="25.97431" x2="34.862385" y2="27.694494" id="line125" />
			<line x1="33.342201" y1="0" x2="31.494495" y2="1.8504568" id="line127" />
			<line x1="33.371559" y1="0" x2="35.09174" y2="1.7201831" id="line129" />
			<line x1="33.476147" y1="26.079815" x2="9.5082569" y2="49.999996" id="line131" />
			<line x1="1.3247703" y1="48.744034" x2="7.4853206" y2="42.577061" id="line133" />
			<line x1="34.769726" y1="34.725685" x2="47.843121" y2="47.79908" id="line135" />
			<line x1="35.326603" y1="26.611008" x2="34.008255" y2="27.93119" id="line137" />
			<line x1="35.723854" y1="0" x2="34.00367" y2="1.7220169" id="line139" />
			<line x1="35.779816" y1="0" x2="37.4422" y2="1.6623852" id="line141" />
			<line x1="37.845871" y1="36.011009" x2="23.800919" y2="49.999996" id="line143" />
			<line x1="38.073391" y1="0" x2="39.735779" y2="1.6623852" id="line145" />
			<line x1="38.105507" y1="0" x2="36.398167" y2="1.7082561" id="line147" />
			<line x1="40.256878" y1="38.365135" x2="28.561466" y2="49.999996" id="line149" />
			<line x1="40.481651" y1="0" x2="42.201832" y2="1.7201831" id="line151" />
			<line x1="40.487156" y1="0" x2="38.793579" y2="1.695412" id="line153" />
			<line x1="41.391743" y1="38.998165" x2="48.358715" y2="45.965137" id="line155" />
			<line x1="42.868805" y1="0" x2="41.102753" y2="1.7678878" id="line157" />
			<line x1="42.889908" y1="0" x2="44.523853" y2="1.633943" id="line159" />
			<line x1="2.4339447" y1="49.992657" x2="28.583487" y2="23.824768" id="line161" />
			<line x1="2.4871559" y1="33.464218" x2="4.06422" y2="35.041283" id="line163" />
			<line x1="43.64312" y1="39.744953" x2="33.334862" y2="49.999996" id="line165" />
			<line x1="44.867889" y1="40.109173" x2="48.85321" y2="44.093575" id="line167" />
			<line x1="45.249542" y1="0" x2="43.525688" y2="1.7256846" id="line169" />
			<line x1="45.30275" y1="49.999996" x2="8.6220179" y2="13.33853" id="line171" />
			<line x1="45.436695" y1="40.333027" x2="35.71376" y2="49.999996" id="line173" />
			<line x1="47.000919" y1="41.15229" x2="38.093578" y2="49.999996" id="line175" />
			<line x1="48.421101" y1="42.113758" x2="40.473392" y2="49.999996" id="line177" />
			<line x1="3.5770638" y1="17.811007" x2="5.8697243" y2="20.104584" id="line179" />
			<line x1="3.7486238" y1="15.632108" x2="8.9660549" y2="20.849539" id="line181" />
			<line x1="4.006422" y1="32.576145" x2="6.816514" y2="35.385319" id="line183" />
			<line x1="4.6660547" y1="4.6229334" x2="30.325687" y2="30.282568" id="line185" />
			<line x1="4.7522936" y1="7.0596323" x2="7.1889901" y2="9.4963284" id="line187" />
			<line x1="5.2678895" y1="2.874311" x2="20.491743" y2="18.097246" id="line189" />
			<line x1="5.4972472" y1="14.972476" x2="12.263303" y2="21.738531" id="line191" />
			<line x1="6.2550459" y1="31.886236" x2="3.1605501" y2="34.984402" id="line193" />
			<line x1="7.0165133" y1="42.696327" x2="14.338531" y2="49.999996" id="line195" />
			<line x1="7.1440363" y1="0" x2="5.1495414" y2="1.9972457" id="line197" />
			<line x1="7.1743116" y1="49.999996" x2="2.430275" y2="45.219265" id="line199" />
			<line x1="8.5935774" y1="41.865135" x2="16.746788" y2="49.999996" id="line201" />
			<line x1="9.5752296" y1="0" x2="12.643119" y2="3.0678878" id="line203" />
			<line x1="9.8550453" y1="31.256878" x2="28.560549" y2="49.999996" id="line205" />
			<line x1="10.42844" y1="38.998165" x2="21.448624" y2="49.999996" id="line207" />
			<line x1="11.988072" y1="49.999996" x2="5.3541279" y2="43.384403" id="line209" />
			<line x1="19.036697" y1="0" x2="22.247705" y2="3.2110088" id="line211" />
			<line x1="30.434864" y1="24.355961" x2="4.7495413" y2="49.999996" id="line213" />
			<line x1="30.455963" y1="31.488071" x2="11.88899" y2="49.999996" id="line215" />
			<line x1="30.96055" y1="0" x2="28.89908" y2="2.0642197" id="line217" />
			<line x1="31.533028" y1="32.794495" x2="14.281651" y2="49.999996" id="line219" />
			<line x1="1.3880733" y1="48.960548" x2="2.4366968" y2="49.985321" id="line221" />
			<line x1="1.4266053" y1="46.623852" x2="4.7660546" y2="49.999996" id="line223" />
			<line x1="34.459633" y1="34.632107" x2="19.043119" y2="49.999996" id="line225" />
			<line x1="36.281651" y1="35.192657" x2="21.421101" y2="49.999996" id="line227" />
			<line x1="39.094498" y1="37.144951" x2="26.180735" y2="49.999996" id="line229" />
			<line x1="41.822018" y1="39.183483" x2="30.954128" y2="49.999996" id="line231" />
			<line x1="45.239449" y1="49.999996" x2="47.910091" y2="47.394493" id="line233" />
			<line x1="45.298164" y1="0" x2="46.272476" y2="0.97431183" id="line235" />
			<line x1="48.896328" y1="44.022934" x2="42.85413" y2="49.999996" id="line237" />
			<line x1="3.7486238" y1="44.187153" x2="9.5798159" y2="49.999996" id="line239" />
			<line x1="4.7587156" y1="0" x2="20.92844" y2="16.169724" id="line241" />
			<line x1="4.7633023" y1="0" x2="3.9018345" y2="0.86238372" id="line243" />
			<line x1="5.8128433" y1="31.973392" x2="23.857798" y2="49.999996" id="line245" />
			<path d="M 1.9302751,49.999998 C -1.4339451,45.088072 7.2247705,42.717429 7.5688072,42.54587 12.006422,40.326604 11.43578,35.490824 5.2752292,35.244952 -0.45871574,35.015594 2.1788989,32.263301 8.4862384,31.575228 14.793578,30.887154 14.222936,28.325686 13.878899,25.80275 13.534862,23.279815 17.307339,22.703668 8.0302751,20.6422 6.998165,20.412842 5.1633026,20.298163 4.2458714,19.036695 3.3284402,17.775228 2.411009,15.711007 4.704587,15.252292 6.998165,14.793576 11.807339,12.283484 8.2596329,10.20642 -0.68807354,4.9688056 10.263303,2.8091725 1.9302751,-1.759e-6" id="path247" />
			<path d="m 47.030275,49.992659 c 0.04312,-0.08624 0.09358,-0.231193 0.137615,-0.334863 0.542201,-1.282569 1.154128,-3.846789 1.684403,-5.544036 0.573395,-1.834863 -0.974312,-2.522936 -2.637614,-3.383487 -1.663303,-0.86055 -2.064221,-0.802752 -4.013762,-1.376146 -2.975229,-0.87523 -3.497248,-3.745872 -6.19266,-4.262386 -2.695413,-0.516514 -5.619266,-2.752293 -5.733945,-4.414679 -0.114679,-1.662385 2.866972,-2.695412 4.587156,-2.981651 1.720183,-0.286239 3.154128,-0.688073 1.777981,-0.86055 -1.376146,-0.172478 -2.293578,-0.401835 -4.300917,-1.089909 -2.095413,-0.718348 -0.305505,-1.700917 -5.810092,-2.274312 -5.504587,-0.573394 -6.575229,-5.352293 -6.021101,-6.651376 0.684404,-1.603669 2.981652,-2.06422 5.561468,-2.293578 2.579817,-0.229358 2.656881,-0.822018 5.580734,-1.337614 2.923853,-0.515597 2.637615,-1.261468 0.631193,-1.146789 -2.006422,0.114679 -2.809175,0.442201 -9.862386,-2.5798169 C 20.411009,8.6009156 19.575229,8.4064202 17.811926,7.7220166 15.002752,6.6321083 11.494495,5.9055028 11.236697,4.3577964 11.084403,3.4403652 12.612844,2.369723 18.117431,3.1348606 23.622018,3.8990808 25.915596,2.2174294 30.197247,1.9119248 34.478899,1.6064203 41.511926,1.7183469 43.346789,1.7587138 44.207339,1.7779799 46.271559,1.682567 47.03578,-1.759e-6" id="path249" />
		</g>
	</g>
</svg>
