<?xml version="1.0" encoding="UTF-8" standalone="no"?>
<svg xmlns:dc="http://purl.org/dc/elements/1.1/" xmlns:cc="http://creativecommons.org/ns#" xmlns:rdf="http://www.w3.org/1999/02/22-rdf-syntax-ns#" xmlns:svg="http://www.w3.org/2000/svg" xmlns="http://www.w3.org/2000/svg" version="1.1" x="0px" y="0px" xml:space="preserve" width="50.00" height="50.00" viewBox="0 0 50.00 50.00">
	<metadata id="metadata2">
		<rdf:RDF>
			<ns:item rdf:ID="biblio1">
				<ns:link>rdf:resource=&quot;http://pubs.usgs.gov/tm/2006/11A02/</ns:link>
				<ns:title>U.S. Geological Survey, 2006, FGDC Digital Cartographic Standard for Geologic Map Symbolization (PostScript Implementation): U.S. Geological Survey Techniques and Methods 11-A2</ns:title>
			</ns:item>
			<ns:item rdf:ID="biblio2">
				<ns:link>https://davenquinn.com/projects/geologic-patterns/</ns:link>
				<ns:title>FGDC Geologic Patterns for the Web</ns:title>
			</ns:item>
			<rdf:Description>
				<dc:description>
					Converted from 'FGDC Geologic Patterns for the Web' to QGIS compatible svg symbols, with customisable fill colour/stroke colour/stroke width (when appropriate).
					SVG scaled to 50x50 pixels so that base outline-width is 0.387 px and width is 90 in the QGIS xml definition file. 
					Some of the original FGDC symbols have been omitted from this set because they can be generated from other symbols using the 'texture width' and/or 'stroke width' fields in QGIS symbology form.
				</dc:description>
				<dc:date>01 MARCH 2019</dc:date>
				<dc:creator>GeoProc.com</dc:creator>
				<dc:publisher rdf:resource="https://github.com/BC-Consulting/QGIS-FGDC-Fill" />
			</rdf:Description>
			<cc:Work rdf:about="">
				<dc:format>image/svg+xml</dc:format>
				<dc:type rdf:resource="http://purl.org/dc/dcmitype/StillImage" />
				<dc:title>FGDC fill symbol: Sedimentary - 202</dc:title>
			</cc:Work>
		</rdf:RDF>
	</metadata>
	<path style="fill:none;stroke:none;stroke-width:0;" id="rect1500" width="50.00" height="50.00" x="0.0" y="0.0" />
	<path stroke="param(outline) #000" stroke-width="param(outline-width) 0.206" style="fill:none;stroke-opacity:1;stroke-miterlimit:4;stroke-dasharray:none" id="path4" d="M0.64310858 0.0C0.64310858 0.0 0.64310858 50.0 0.64310858 50.0M1.3809911 0.0C1.3809911 0.0 1.3809911 50.0 1.3809911 50.0M2.7281343 0.0C2.7281343 0.0 2.7281343 50.0 2.7281343 50.0M3.4524776 0.0C3.4524776 0.0 3.4524776 50.0 3.4524776 50.0M4.8063904 0.0C4.8063904 0.0 4.8063904 50.0 4.8063904 50.0M5.5510425 0.0C5.5510425 0.0 5.5510425 50.0 5.5510425 50.0M6.8914162 0.0C6.8914162 0.0 6.8914162 50.0 6.8914162 50.0M7.6225291 0.0C7.6225291 0.0 7.6225291 50.0 7.6225291 50.0M8.9696723 0.0C8.9696723 0.0 8.9696723 50.0 8.9696723 50.0M9.7075548 0.0C9.7075548 0.0 9.7075548 50.0 9.7075548 50.0M11.047928 0.0C11.047928 0.0 11.047928 50.0 11.047928 50.0M11.779041 0.0C11.779041 0.0 11.779041 50.0 11.779041 50.0M13.132954 0.0C13.132954 0.0 13.132954 50.0 13.132954 50.0M13.877606 0.0C13.877606 0.0 13.877606 50.0 13.877606 50.0M15.21798 0.0C15.21798 0.0 15.21798 50.0 15.21798 50.0M15.949093 0.0C15.949093 0.0 15.949093 50.0 15.949093 50.0M17.296236 0.0C17.296236 0.0 17.296236 50.0 17.296236 50.0M18.034118 0.0C18.034118 0.0 18.034118 50.0 18.034118 50.0M19.381262 0.0C19.381262 0.0 19.381262 50.0 19.381262 50.0M20.105605 0.0C20.105605 0.0 20.105605 50.0 20.105605 50.0M21.459518 0.0C21.459518 0.0 21.459518 50.0 21.459518 50.0M22.20417 0.0C22.20417 0.0 22.20417 50.0 22.20417 50.0M23.537774 0.0C23.537774 0.0 23.537774 50.0 23.537774 50.0M24.275657 0.0C24.275657 0.0 24.275657 50.0 24.275657 50.0M25.6228 0.0C25.6228 0.0 25.6228 50.0 25.6228 50.0M26.360682 0.0C26.360682 0.0 26.360682 50.0 26.360682 50.0M27.701056 0.0C27.701056 0.0 27.701056 50.0 27.701056 50.0M28.432169 0.0C28.432169 0.0 28.432169 50.0 28.432169 50.0M29.786082 0.0C29.786082 0.0 29.786082 50.0 29.786082 50.0M30.530734 0.0C30.530734 0.0 30.530734 50.0 30.530734 50.0M31.871107 0.0C31.871107 0.0 31.871107 50.0 31.871107 50.0M32.60222 0.0C32.60222 0.0 32.60222 50.0 32.60222 50.0M33.949363 0.0C33.949363 0.0 33.949363 50.0 33.949363 50.0M34.687246 0.0C34.687246 0.0 34.687246 50.0 34.687246 50.0M36.034389 0.0C36.034389 0.0 36.034389 50.0 36.034389 50.0M36.758733 0.0C36.758733 0.0 36.758733 50.0 36.758733 50.0M38.112645 0.0C38.112645 0.0 38.112645 50.0 38.112645 50.0M38.857297 0.0C38.857297 0.0 38.857297 50.0 38.857297 50.0M40.197671 0.0C40.197671 0.0 40.197671 50.0 40.197671 50.0M40.928784 0.0C40.928784 0.0 40.928784 50.0 40.928784 50.0M42.275927 0.0C42.275927 0.0 42.275927 50.0 42.275927 50.0M43.01381 0.0C43.01381 0.0 43.01381 50.0 43.01381 50.0M44.354183 0.0C44.354183 0.0 44.354183 50.0 44.354183 50.0M45.085296 0.0C45.085296 0.0 45.085296 50.0 45.085296 50.0M46.439209 0.0C46.439209 0.0 46.439209 50.0 46.439209 50.0M47.183861 0.0C47.183861 0.0 47.183861 50.0 47.183861 50.0M48.517465 0.0C48.517465 0.0 48.517465 50.0 48.517465 50.0M49.255348 0.0C49.255348 0.0 49.255348 50.0 49.255348 50.0" />
</svg>
