<?xml version="1.0" encoding="UTF-8" standalone="no"?>
<svg xmlns:dc="http://purl.org/dc/elements/1.1/" xmlns:cc="http://creativecommons.org/ns#" xmlns:rdf="http://www.w3.org/1999/02/22-rdf-syntax-ns#" xmlns:svg="http://www.w3.org/2000/svg" xmlns="http://www.w3.org/2000/svg" version="1.1" x="0px" y="0px" xml:space="preserve" width="50.00" height="50.00" viewBox="0 0 50.00 50.00">
	<metadata id="metadata2">
		<rdf:RDF>
			<ns:item rdf:ID="biblio1">
				<ns:link>rdf:resource=&quot;http://pubs.usgs.gov/tm/2006/11A02/</ns:link>
				<ns:title>U.S. Geological Survey, 2006, FGDC Digital Cartographic Standard for Geologic Map Symbolization (PostScript Implementation): U.S. Geological Survey Techniques and Methods 11-A2</ns:title>
			</ns:item>
			<ns:item rdf:ID="biblio2">
				<ns:link>https://davenquinn.com/projects/geologic-patterns/</ns:link>
				<ns:title>FGDC Geologic Patterns for the Web</ns:title>
			</ns:item>
			<rdf:Description>
				<dc:description>
					Converted from 'FGDC Geologic Patterns for the Web' to QGIS compatible svg symbols, with customisable fill colour/stroke colour/stroke width (when appropriate).
					SVG scaled to 50x50 pixels so that base outline-width is 0.387 px and width is 90 in the QGIS xml definition file. 
					Some of the original FGDC symbols have been omitted from this set because they can be generated from other symbols using the 'texture width' and/or 'stroke width' fields in QGIS symbology form.
				</dc:description>
				<dc:date>01 MARCH 2019</dc:date>
				<dc:creator>GeoProc.com</dc:creator>
				<dc:publisher rdf:resource="https://github.com/BC-Consulting/QGIS-FGDC-Fill" />
			</rdf:Description>
			<cc:Work rdf:about="">
				<dc:format>image/svg+xml</dc:format>
				<dc:type rdf:resource="http://purl.org/dc/dcmitype/StillImage" />
				<dc:title>FGDC fill symbol: Lithology - Metamorphism, Igneous and vein - 703 Slate</dc:title>
			</cc:Work>
		</rdf:RDF>
	</metadata>
	<path style="fill:none;stroke:none;stroke-width:0;" id="rect1500" width="50.00" height="50.00" x="0.0" y="0.0" />
	<g style="fill:none;stroke-linecap:square;" stroke="param(outline) #000">
		<g style="stroke-width:0.387;">
			<line id="line5" y2="47.387501" x2="18.761112" y1="34.186111" x1="5.5590277" />
			<line id="line7" y2="50" x2="23.804167" y1="32.893055" x1="6.6972222" />
			<line id="line9" y2="27.813889" x2="34.997223" y1="0.00069450296" x1="7.1840277" />
			<line id="line11" y2="19.074305" x2="16.706945" y1="10.873612" x1="8.5069447" />
			<line id="line13" y2="26.596527" x2="36.123611" y1="0.00069450296" x1="9.5277777" />
			<line id="line15" y2="2.4340262" x2="14.391667" y1="0.00069450296" x1="11.958333" />
			<line id="line17" y2="31.991667" x2="20.075695" y1="24.286806" x1="12.370138" />
			<line id="line19" y2="50" x2="7.1374998" y1="42.862499" x1="-2e-008" />
			<line id="line21" y2="50" x2="9.5249996" y1="40.475002" x1="-2e-008" />
			<line id="line23" y2="50" x2="11.911805" y1="38.088196" x1="-2e-008" />
			<line id="line25" y2="50" x2="14.255555" y1="35.744446" x1="-2e-008" />
			<line id="line27" y2="49.963196" x2="16.65" y1="33.313889" x1="-2e-008" />
			<line id="line29" y2="35.384724" x2="4.4576387" y1="30.92639" x1="-2e-008" />
			<line id="line31" y2="34.186111" x2="5.5590277" y1="28.626389" x1="-2e-008" />
			<line id="line33" y2="32.893055" x2="6.6972222" y1="26.195833" x1="-2e-008" />
			<line id="line35" y2="31.595139" x2="7.7868056" y1="23.808334" x1="-2e-008" />
			<line id="line37" y2="21.673611" x2="0.29583338" y1="21.377779" x1="-2e-008" />
			<line id="line39" y2="20.372919" x2="1.3381945" y1="19.034029" x1="-2e-008" />
			<line id="line41" y2="34.599304" x2="17.909027" y1="16.690279" x1="-2e-008" />
			<line id="line43" y2="50" x2="2.3631942" y1="47.636806" x1="-2e-008" />
			<line id="line45" y2="33.302776" x2="19" y1="14.303473" x1="-2e-008" />
			<line id="line47" y2="24.286806" x2="12.370138" y1="11.915973" x1="-2e-008" />
			<line id="line49" y2="13.382639" x2="6.2409725" y1="7.1416674" x1="-2e-008" />
			<line id="line51" y2="12.141667" x2="7.3874998" y1="4.7541676" x1="-2e-008" />
			<line id="line53" y2="10.873612" x2="8.5069447" y1="2.3673592" x1="-2e-008" />
			<line id="line55" y2="9.6270828" x2="9.5604172" y1="0.066667572" x1="-2e-008" />
			<line id="line57" y2="50" x2="4.7506943" y1="45.249306" x1="-2e-008" />
			<line id="line59" y2="30.241667" x2="8.8638887" y1="21.673611" x1="0.29583338" />
			<line id="line61" y2="9.4854174" x2="-2e-008" y1="22.984722" x1="13.499305" />
			<line id="line63" y2="30.645832" x2="21.160418" y1="22.984722" x1="13.499305" />
			<line id="line65" y2="1.212502" x2="15.513889" y1="0.00069450296" x1="14.302083" />
			<line id="line67" y2="25.304861" x2="37.263195" y1="2.4340262" x1="14.391667" />
			<line id="line69" y2="13.382639" x2="6.2409725" y1="21.709723" x1="14.568056" />
			<line id="line71" y2="29.336807" x2="22.195137" y1="21.709723" x1="14.568056" />
			<line id="line73" y2="16.639584" x2="30.941666" y1="1.212502" x1="15.513889" />
			<line id="line75" y2="12.141667" x2="7.3874998" y1="20.397224" x1="15.643055" />
			<line id="line77" y2="27.991667" x2="23.236805" y1="20.397224" x1="15.643055" />
			<line id="line79" y2="40.732639" x2="38.365276" y1="19.074305" x1="16.706945" />
			<line id="line81" y2="20.372919" x2="1.3381945" y1="35.849304" x1="16.815279" />
			<line id="line83" y2="9.6270828" x2="9.5604172" y1="17.787498" x1="17.720833" />
			<line id="line85" y2="8.2513895" x2="10.660417" y1="16.386112" x1="18.795139" />
			<line id="line87" y2="38.090279" x2="40.498611" y1="16.386112" x1="18.795139" />
			<line id="line89" y2="48.666668" x2="17.740278" y1="50" x1="19.07361" />
			<line id="line91" y2="47.387501" x2="18.761112" y1="50" x1="21.373611" />
			<line id="line93" y2="5.6520839" x2="27.115278" y1="0.00069450296" x1="21.463196" />
			<line id="line95" y2="43.256248" x2="36.114582" y1="29.336807" x1="22.195137" />
			<line id="line97" y2="4.3555584" x2="28.205557" y1="0.00069450296" x1="23.850695" />
			<line id="line99" y2="0.00069450296" x2="19.076387" y1="6.9090266" x1="25.984722" />
			<line id="line101" y2="13.971528" x2="33.047222" y1="6.9090266" x1="25.984722" />
			<line id="line103" y2="31.595139" x2="7.7868056" y1="50" x1="26.191666" />
			<line id="line105" y2="30.241667" x2="8.8638887" y1="50" x1="28.622221" />
			<line id="line107" y2="1.6687503" x2="30.293751" y1="0.00069450296" x1="28.625" />
			<line id="line109" y2="0.00069450296" x2="26.237501" y1="3.0256965" x1="29.263195" />
			<line id="line111" y2="8.4743052" x2="37.09861" y1="1.6687503" x1="30.293751" />
			<line id="line113" y2="35.849304" x2="16.815279" y1="50" x1="30.965971" />
			<line id="line115" y2="7.1125007" x2="38.080555" y1="0.00069450296" x1="30.96875" />
			<line id="line117" y2="0.00069450296" x2="16.688889" y1="15.319446" x1="32.008331" />
			<line id="line119" y2="34.599304" x2="17.909027" y1="50" x1="33.309723" />
			<line id="line121" y2="8.2513895" x2="10.660417" y1="0.00069450296" x1="2.4097221" />
			<line id="line123" y2="16.644444" x2="50" y1="0.00069450296" x1="33.355556" />
			<line id="line125" y2="5.6520839" x2="27.115278" y1="12.609029" x1="34.07222" />
			<line id="line127" y2="4.3555584" x2="28.205557" y1="11.238194" x1="35.087502" />
			<line id="line129" y2="24.163193" x2="48.013195" y1="11.238194" x1="35.087502" />
			<line id="line131" y2="33.302776" x2="19" y1="50" x1="35.696526" />
			<line id="line133" y2="3.0256965" x2="29.263195" y1="9.8583336" x1="36.095833" />
			<line id="line135" y2="22.89514" x2="49.132637" y1="9.8583336" x1="36.095833" />
			<line id="line137" y2="21.375" x2="50" y1="8.4743052" x1="37.09861" />
			<line id="line139" y2="27.991667" x2="23.236805" y1="42.006252" x1="37.252083" />
			<line id="line141" y2="19.03125" x2="50" y1="7.1125007" x1="38.080555" />
			<line id="line143" y2="31.991667" x2="20.075695" y1="50" x1="38.084026" />
			<line id="line145" y2="16.639584" x2="30.941666" y1="24.035418" x1="38.337502" />
			<line id="line147" y2="15.319446" x2="32.008331" y1="22.709723" x1="39.398613" />
			<line id="line149" y2="17.787498" x2="17.720833" y1="39.477085" x1="39.409721" />
			<line id="line151" y2="50" x2="49.93264" y1="39.477085" x1="39.409721" />
			<line id="line153" y2="47.590279" x2="50" y1="38.090279" x1="40.498611" />
			<line id="line155" y2="30.645832" x2="21.160418" y1="50" x1="40.514584" />
			<line id="line157" y2="1.2916676" x2="41.852081" y1="0.00069450296" x1="40.560417" />
			<line id="line159" y2="43.256248" x2="36.114582" y1="50" x1="42.858334" />
			<line id="line161" y2="42.006252" x2="37.252083" y1="50" x1="45.24514" />
			<line id="line163" y2="12.609029" x2="34.07222" y1="25.404167" x1="46.867359" />
			<line id="line165" y2="40.732639" x2="38.365276" y1="50" x1="47.632641" />
			<line id="line167" y2="27.813889" x2="34.997223" y1="42.815971" x1="50" />
			<line id="line169" y2="26.596527" x2="36.123611" y1="40.472221" x1="50" />
			<line id="line171" y2="25.304861" x2="37.263195" y1="38.041668" x1="50" />
			<line id="line173" y2="24.035418" x2="38.337502" y1="35.697918" x1="50" />
			<line id="line175" y2="22.709723" x2="39.398613" y1="33.311111" x1="50" />
			<line id="line177" y2="13.971528" x2="33.047222" y1="30.923613" x1="50" />
			<line id="line179" y2="25.404167" x2="46.867359" y1="28.536804" x1="50" />
			<line id="line181" y2="24.163193" x2="48.013195" y1="26.149305" x1="50" />
			<line id="line183" y2="22.89514" x2="49.132637" y1="23.762499" x1="50" />
			<line id="line185" y2="0.00069450296" x2="35.743057" y1="14.256944" x1="50" />
			<line id="line187" y2="0.00069450296" x2="38.129864" y1="11.870138" x1="50" />
			<line id="line189" y2="1.2916676" x2="41.852081" y1="9.4395828" x1="50" />
			<line id="line191" y2="0.067361638" x2="42.970833" y1="7.0958328" x1="50" />
			<line id="line193" y2="0.00069450296" x2="45.334721" y1="4.6652799" x1="50" />
			<line id="line195" y2="0.00069450296" x2="47.591663" y1="2.4083354" x1="50" />
			<line id="line197" y2="48.666668" x2="17.740278" y1="35.384724" x1="4.4576387" />
			<line id="line199" y2="45.203472" x2="50" y1="0.00069450296" x1="4.7965274" />
			<path id="path201" d="M 5.5590277,34.186111 C 5.9409722,33.761806 6.3222222,33.329167 6.6972222,32.89375" />
			<path id="path203" d="m 6.2409722,13.382639 c -0.1555556,0.164584 -0.3125,0.331945 -0.4631945,0.488195" />
			<path id="path205" d="m 6.6972222,32.893056 c 0.375,-0.435417 0.7381944,-0.869445 1.0895833,-1.297917" />
			<path id="path207" d="m 7.3874999,12.141667 c -0.3875,0.429167 -0.7701389,0.843056 -1.1458333,1.240278" />
			<path id="path209" d="M 7.7868055,31.595139 C 8.1659721,31.131945 8.5319444,30.675695 8.8638888,30.241667" />
			<path id="path211" d="M 8.5069444,10.873611 C 8.1368055,11.301389 7.7624999,11.726389 7.3874999,12.141667" />
			<path id="path213" d="M 8.5069444,10.873611 C 8.867361,10.45625 9.2201388,10.039584 9.561111,9.6270837" />
			<path id="path215" d="M 9.4270833,29.4875 C 9.2513888,29.729861 9.0631944,29.982639 8.8638888,30.241667" />
			<path id="path217" d="M 10.660417,8.2513893 C 10.318055,8.6951393 9.9493055,9.1562504 9.5604166,9.6270837" />
			<path id="path219" d="M 11.336805,7.3520837 C 11.129167,7.6381948 10.9,7.9416671 10.660417,8.2513893" />
			<path id="path221" d="m 11.546528,25.181945 c 0.239583,-0.247222 0.518055,-0.551389 0.823611,-0.895139" />
			<path id="path223" d="m 12.370139,24.286806 c 0.345139,-0.3875 0.727778,-0.829861 1.128472,-1.302083" />
			<path id="path225" d="m -2e-8,22.028473 c 0.09930555,-0.11875 0.19861111,-0.236806 0.29583333,-0.354862" />
			<path id="path227" d="M 0.29583331,21.673611 C 0.66319442,21.228473 1.0111111,20.79375 1.3381944,20.372917" />
			<path id="path229" d="m 13.499305,22.984723 c 0.345139,-0.40625 0.703473,-0.833334 1.06875,-1.275" />
			<path id="path231" d="m 13.821528,3.0340282 c 0.186111,-0.1930556 0.378472,-0.3958333 0.570139,-0.6" />
			<path id="path233" d="m 14.391667,2.4340282 c 0.36875,-0.3916667 0.74375,-0.8006944 1.122222,-1.2215278" />
			<path id="path235" d="m 14.568055,21.709723 c 0.356945,-0.43125 0.717362,-0.871528 1.075,-1.3125" />
			<path id="path237" d="M 15.643055,20.397223 C 16.005555,19.95 16.363194,19.50625 16.706944,19.074306" />
			<path id="path239" d="M 16.581944,6.9488444e-4 C 16.229861,0.40902822 15.872222,0.81458377 15.513889,1.2131949" />
			<path id="path241" d="m 16.65,49.963195 c 0.375,-0.434723 0.738889,-0.868056 1.090972,-1.296528" />
			<path id="path243" d="m 16.815278,35.849306 c -0.217361,0.241666 -0.422917,0.465278 -0.6,0.648611" />
			<path id="path245" d="m 17.720833,17.7875 c -0.315972,0.405556 -0.65625,0.8375 -1.013889,1.286806" />
			<path id="path247" d="M 17.740278,48.666667 C 18.099305,48.229167 18.443055,47.8 18.761111,47.3875" />
			<path id="path249" d="m 17.909028,34.599306 c -0.395834,0.463889 -0.763889,0.884722 -1.09375,1.25" />
			<path id="path251" d="M 17.909028,34.599306 C 18.256944,34.191667 18.623611,33.75625 19,33.302778" />
			<path id="path253" d="m 18.761111,47.3875 c 0.23125,-0.300694 0.453472,-0.59375 0.654861,-0.872222" />
			<path id="path255" d="m 18.795139,16.386111 c -0.299306,0.399306 -0.663889,0.875695 -1.074306,1.402084" />
			<path id="path257" d="m 18.795139,16.386111 c 0.135416,-0.181944 0.2625,-0.352083 0.368055,-0.498611" />
			<path id="path259" d="m 19,33.302778 c 0.354861,-0.427083 0.715278,-0.867361 1.075694,-1.311111" />
			<path id="path261" d="M 1.3381944,20.372917 C 1.6055555,20.028473 1.8625,19.691667 2.0916666,19.374306" />
			<path id="path263" d="m 20.075694,31.991667 c 0.367361,-0.451389 0.730556,-0.902778 1.084723,-1.345833" />
			<path id="path265" d="m 21.160417,30.645834 c 0.361111,-0.452084 0.708333,-0.890973 1.034722,-1.309028" />
			<path id="path267" d="m 22.195139,29.336806 c 0.382639,-0.4875 0.735416,-0.943056 1.041666,-1.345834" />
			<path id="path269" d="m 23.236805,27.991667 c 0.290973,-0.382639 0.54375,-0.720139 0.7375,-0.986806" />
			<path id="path271" d="M 25.984722,6.9090282 C 25.835416,7.0694448 25.686111,7.2319448 25.536111,7.3861115" />
			<path id="path273" d="m 25.984722,6.9090282 c 0.379167,-0.40625 0.756944,-0.8256945 1.129861,-1.2569445" />
			<path id="path275" d="m 28.205555,4.355556 c -0.35625,0.4361111 -0.720833,0.8694444 -1.090277,1.2965277" />
			<path id="path277" d="M 29.263194,3.0256949 C 28.921528,3.4652782 28.569444,3.9097226 28.205555,4.355556" />
			<path id="path279" d="m 29.263194,3.0256949 c 0.359722,-0.4631945 0.705556,-0.91875 1.029861,-1.3569445" />
			<path id="path281" d="m 30.29375,1.6687504 c 0.15625,-0.2118055 0.311805,-0.4222222 0.458333,-0.625" />
			<path id="path283" d="m 30.941666,16.639584 c -0.308333,0.368055 -0.584722,0.682639 -0.814583,0.920139" />
			<path id="path285" d="M 32.008333,15.319445 C 31.625,15.808334 31.265278,16.254167 30.941666,16.639584" />
			<path id="path287" d="m 32.008333,15.319445 c 0.331945,-0.422222 0.681945,-0.877778 1.039583,-1.347917" />
			<path id="path289" d="m 34.072222,12.609028 c -0.344444,0.4625 -0.6875,0.91875 -1.025,1.3625" />
			<path id="path291" d="m 34.553472,28.280556 c 0.144444,-0.15 0.295139,-0.309722 0.443056,-0.466667" />
			<path id="path293" d="m 34.997222,27.813889 c 0.369444,-0.390278 0.745833,-0.795833 1.126389,-1.217361" />
			<path id="path295" d="m 35.0875,11.238195 c -0.334028,0.454166 -0.674306,0.913889 -1.015278,1.371528" />
			<path id="path297" d="m 35.0875,11.238195 c 0.347222,-0.472917 0.684028,-0.934722 1.007639,-1.3791668" />
			<path id="path299" d="M 36.095833,9.8583337 C 36.454166,9.3652782 36.790278,8.9013893 37.098611,8.4743059" />
			<path id="path301" d="m 36.114583,43.25625 c -0.263889,0.283333 -0.525694,0.559722 -0.779861,0.822917" />
			<path id="path303" d="M 37.098611,8.4743059 C 37.476389,7.9500004 37.813889,7.4812504 38.080555,7.1125004" />
			<path id="path305" d="m 37.252083,42.00625 c -0.38125,0.427084 -0.7625,0.847917 -1.1375,1.25" />
			<path id="path307" d="m 37.263194,25.304861 c -0.376389,0.436111 -0.758333,0.86875 -1.140278,1.290973" />
			<path id="path309" d="M 38.080555,7.1125004 C 38.194444,6.9541671 38.295833,6.8131948 38.384028,6.6923615" />
			<path id="path311" d="m 38.3375,24.035417 c -0.346528,0.420139 -0.706945,0.845139 -1.073611,1.269444" />
			<path id="path313" d="m 38.3375,24.035417 c 0.374305,-0.453472 0.729861,-0.897917 1.061111,-1.325694" />
			<path id="path315" d="M 38.365278,40.732639 C 38,41.160417 37.627083,41.585417 37.252083,42.00625" />
			<path id="path317" d="m 39.409722,39.477084 c -0.336111,0.413888 -0.684028,0.832638 -1.045139,1.25625" />
			<path id="path319" d="m 40.1125,21.761806 c -0.218056,0.301389 -0.461111,0.621528 -0.713889,0.947917" />
			<path id="path321" d="m 40.498611,38.090278 c -0.334028,0.443056 -0.699306,0.908333 -1.088889,1.386806" />
			<path id="path323" d="m 40.498611,38.090278 c 0.134722,-0.179167 0.272222,-0.359722 0.395139,-0.529861" />
			<path id="path325" d="m 46.867361,25.404167 c -0.15625,0.164583 -0.313195,0.331944 -0.464584,0.488889" />
			<path id="path327" d="m 46.867361,25.404167 c 0.375694,-0.397917 0.759028,-0.811806 1.145833,-1.240972" />
			<path id="path329" d="M 3.8680555,36.00625 C 4.0604166,35.806945 4.2590277,35.596528 4.4583333,35.384722" />
			<path id="path331" d="m 48.013194,24.163195 c 0.375,-0.415972 0.749306,-0.840278 1.11875,-1.268056" />
			<path id="path333" d="M 49.132639,22.895139 C 49.427777,22.554167 49.718055,22.213195 50,21.874306" />
			<path id="path335" d="M 4.4576388,35.384722 C 4.8194444,34.999306 5.1881944,34.597917 5.5590277,34.185417" />
		</g>
		<g style="stroke-width:0.60;">
			<path id="path339" d="M 7.379861,3.7409726 C 8.1305555,2.9902782 9.2569444,1.5958338 10.43125,6.9488444e-4" />
			<path id="path341" d="M 11.029167,17.952778 C 9.3229166,20.732639 4.3368055,26.291667 2.2270833,27.978472" />
			<path id="path343" d="m 12.284722,15.372917 c 1.909722,-1.909722 6.25,-7.9861111 7.638889,-10.9374999" />
			<path id="path345" d="M -2e-8,31.982639 C 0.58680553,31.219445 1.0868055,30.517361 1.44375,29.936806" />
			<path id="path347" d="M -2e-8,14.390278 C 2.2,11.386111 4.7041666,7.5979171 5.5861111,5.7236115" />
			<path id="path349" d="M 15.369444,31.147222 C 13.843055,33.633334 7.3208333,41.659722 4.5875,43.845139" />
			<path id="path351" d="M 16.145833,28.298611 C 18.055555,26.388889 23.842361,19.401389 25.23125,16.45" />
			<path id="path353" d="M 18.245139,41.284028 C 17.402083,43.075695 12.294444,47.530556 10.468055,50" />
			<path id="path355" d="M 22.182639,1.793056 C 22.570833,1.418056 23.125,0.78958377 23.775694,4.3999999e-7" />
			<path id="path357" d="M 27.055555,12.580556 C 28.759028,10.877778 33.970833,3.6395838 36.063889,4.3999999e-7" />
			<path id="path359" d="m 28.777083,29.667361 c -1.090278,2.315973 -4.628472,5.438195 -6.752778,8.079167 -0.581944,0.724306 -1.105555,1.327778 -1.516666,1.738889" />
			<path id="path361" d="M 31.708333,38.759028 C 30.55625,41.101389 26.415972,46.838889 23.811805,50" />
			<path id="path363" d="m 34.643055,35.738195 c 0.411111,-0.411111 0.934723,-1.015278 1.516667,-1.738889 2.124306,-2.641667 5.6625,-5.763195 6.752778,-8.079861" />
			<path id="path365" d="m 38.485416,16.414584 c -1.090277,2.316666 -4.628472,5.438194 -6.752777,8.079861 -0.581945,0.723611 -1.105556,1.327777 -1.516667,1.738889" />
			<path id="path367" d="m 39.671528,44.424306 c -0.252084,0.535416 -3.380556,4.710416 -3.902778,5.560416 -0.0035,0.0049 -0.0062,0.0097 -0.0097,0.01528" />
			<path id="path369" d="M 40.545833,11.981945 C 40.956944,11.570834 41.480555,10.967361 42.0625,10.24375 44.186805,7.6020837 47.725,4.480556 48.815277,2.1638893" />
			<path id="path371" d="M 41.852083,1.2916671 C 41.771527,1.3777782 41.6875,1.4673615 41.613889,1.5437504" />
			<path id="path373" d="m 42.970833,0.06736155 c -0.417361,0.46875 -0.79375,0.88055555 -1.11875,1.22499995" />
			<path id="path375" d="M 46.745833,18.280556 C 47.466666,17.559723 48.686111,16.014584 50,14.2125" />
			<path id="path377" d="M 49.414583,42.340972 C 48.281944,43.904167 45.219444,47.582639 43.067361,50" />
			<path id="path379" d="m 50,31.8125 c -0.0049,0.0069 -0.0097,0.0125 -0.01458,0.01945 -2.215277,2.90625 -5.556944,8.663889 -7.254861,10.021527" />
		</g>
	</g>
</svg>
