<?xml version="1.0" encoding="UTF-8" standalone="no"?>
<svg xmlns:dc="http://purl.org/dc/elements/1.1/" xmlns:cc="http://creativecommons.org/ns#" xmlns:rdf="http://www.w3.org/1999/02/22-rdf-syntax-ns#" xmlns:svg="http://www.w3.org/2000/svg" xmlns="http://www.w3.org/2000/svg" version="1.1" x="0px" y="0px" xml:space="preserve" width="50.00" height="50.00" viewBox="0 0 50.00 50.00">
	<metadata id="metadata2">
		<rdf:RDF>
			<ns:item rdf:ID="biblio1">
				<ns:link>rdf:resource=&quot;http://pubs.usgs.gov/tm/2006/11A02/</ns:link>
				<ns:title>U.S. Geological Survey, 2006, FGDC Digital Cartographic Standard for Geologic Map Symbolization (PostScript Implementation): U.S. Geological Survey Techniques and Methods 11-A2</ns:title>
			</ns:item>
			<ns:item rdf:ID="biblio2">
				<ns:link>https://davenquinn.com/projects/geologic-patterns/</ns:link>
				<ns:title>FGDC Geologic Patterns for the Web</ns:title>
			</ns:item>
			<rdf:Description>
				<dc:description>
					Converted from 'FGDC Geologic Patterns for the Web' to QGIS compatible svg symbols, with customisable fill colour/stroke colour/stroke width (when appropriate).
					SVG scaled to 50x50 pixels so that base outline-width is 0.387 px and width is 90 in the QGIS xml definition file. 
					Some of the original FGDC symbols have been omitted from this set because they can be generated from other symbols using the 'texture width' and/or 'stroke width' fields in QGIS symbology form.
				</dc:description>
				<dc:date>01 MARCH 2019</dc:date>
				<dc:creator>GeoProc.com</dc:creator>
				<dc:publisher rdf:resource="https://github.com/BC-Consulting/QGIS-FGDC-Fill" />
			</rdf:Description>
			<cc:Work rdf:about="">
				<dc:format>image/svg+xml</dc:format>
				<dc:type rdf:resource="http://purl.org/dc/dcmitype/StillImage" />
				<dc:title>FGDC fill symbol: Lithology - Metamorphism, Igneous and vein - 708 Gneiss</dc:title>
			</cc:Work>
		</rdf:RDF>
	</metadata>
	<path style="fill:none;stroke:none;stroke-width:0;" id="rect1500" width="50.00" height="50.00" x="0.0" y="0.0" />
	<g style="fill:none;" stroke="param(outline) #000" stroke-width="param(outline-width) 0.387">
		<path d="M 0,10.730196 C 1.7876777,8.1616217 3.2388625,7.6336897 5.0909952,7.3066941 7.178199,6.9379946 7.1052133,5.1741139 7.9345971,3.6339172 8.763981,2.0937204 9.8303317,1.8567671 11.133649,1.2643837 11.886256,0.92222306 12.243602,0.50139391 12.50237,9.4844011e-4" id="path5" />
		<path d="M 0,13.375543 C 0.29383884,12.921541 0.5241706,12.499764 0.70710899,12.164238 1.4180095,10.860994 4.0246445,9.4392742 5.6834123,8.9653675 7.3421801,8.4914608 8.0530806,7.8990774 9.2379147,6.0034506 10.422749,4.1078239 11.133649,3.3969638 12.55545,2.9230571 13.752607,2.5240277 14.193365,1.6207615 14.940284,9.4844011e-4" id="path7" />
		<path d="M 0,15.848388 C 0.90710899,14.94607 1.6957346,13.916745 2.1289099,13.112051 2.9582938,11.571854 3.4322275,11.690331 5.4464455,10.860994 7.4606635,10.031658 9.0009479,9.0838442 9.5933649,7.8990774 10.185782,6.7143107 11.607583,5.5295439 13.147867,4.4632539 14.453081,3.5599877 15.841706,1.9761915 16.88436,9.4844011e-4" id="path9" />
		<path d="M 0,26.398499 C 0.90805685,24.843137 3.0170616,22.621463 4.735545,21.761796 6.6312796,20.813983 7.6976303,19.273786 8.5270142,17.378159 9.3563981,15.482532 11.963033,13.349952 14.332701,12.165185 16.70237,10.980419 17.887204,8.0185019 18.716588,6.5967818 19.545972,5.1750617 23.574408,3.279435 25.114692,2.4500982 26.220853,1.8548714 26.594313,0.89284084 26.803791,0.00189625" id="path11" />
		<path d="M 0,28.969917 C 0.83886254,27.947226 1.5725118,26.838285 2.0104265,26.026956 2.8398104,24.48676 4.8540284,23.301993 6.749763,21.880273 c 1.8957346,-1.42172 2.6066351,-3.5543 3.1990522,-4.502114 0.5924168,-0.947813 3.1990518,-3.080393 5.3317538,-4.146683 2.132701,-1.066291 3.909952,-4.5021141 4.620853,-5.6868808 0.7109,-1.1847667 2.962085,-2.4880101 5.331753,-3.4358235 1.826541,-0.7307642 2.668247,-2.5875306 3.12038,-4.10687545" id="path13" />
		<path d="M 0,40.926583 C 1.5327014,40.115255 3.1004739,39.286866 4.2018957,38.585484 5.5052133,37.756147 7.5791469,35.50509 8.0530806,33.964893 8.5270142,32.424697 11.252133,31.002977 12.55545,30.52907 c 1.799052,-0.653991 3.199052,-3.317347 3.672986,-4.62059 0.473934,-1.303244 2.251185,-3.080394 4.739337,-4.028207 2.488151,-0.947814 4.976303,-5.331451 5.687203,-6.753171 0.710901,-1.42172 3.672986,-3.5543 5.331754,-4.146683 1.658768,-0.592384 3.199052,-3.3173471 3.672986,-4.6205905 0.473933,-1.3032434 2.132701,-3.3173469 3.791469,-4.0282069 1.143128,-0.4900196 1.779147,-1.48617143 2.103317,-2.32972535" id="path15" />
		<path d="M 0,42.708472 C 1.3345971,41.678199 3.3165877,40.261218 4.6758294,40.124733 c 2.585782,-0.257806 3.4957346,-2.369534 4.206635,-4.146684 0.7109005,-1.77715 2.3696686,-2.606487 3.5545026,-3.317347 1.606635,-0.963926 3.731753,-2.428298 4.916588,-5.982598 1.023696,-3.069967 4.348815,-3.212139 6.930805,-5.449927 1.777251,-1.540197 2.580095,-3.427293 3.969668,-5.568404 1.421801,-2.191344 3.495735,-3.021629 5.39147,-3.969442 1.895734,-0.947813 3.199052,-4.3836369 3.909952,-5.805357 0.710901,-1.4217201 1.658768,-1.4217201 3.080569,-2.3695335 1.164929,-0.777207 2.450237,-1.9913559 3.005687,-3.51449205989" id="path17" />
		<path d="M 0,45.072319 C 1.5023697,43.933995 4.0663507,41.648817 6.6312796,41.072546 c 2.9469194,-0.661574 3.6729854,-3.080393 4.2654024,-4.62059 0.592418,-1.540197 1.895735,-1.658674 3.909953,-2.48801 2.014218,-0.829337 3.199052,-4.620591 3.732702,-5.628116 0.891943,-1.68616 1.243601,-1.540197 2.784834,-2.428298 1.541232,-0.888101 2.132701,-1.362956 2.902369,-2.547723 0.769669,-1.184766 2.014218,-2.369533 3.139337,-3.258582 1.125118,-0.889049 1.243602,-1.540197 2.014218,-2.961917 0.770616,-1.42172 4.502369,-3.258582 5.865403,-4.383637 1.363033,-1.125054 2.073933,-1.895627 2.547867,-4.0282067 C 38.267299,6.5948862 41.052133,5.4688839 42.769668,4.3438294 44.216114,3.396016 45.452133,1.8188545 45.842654,6.2672001e-7" id="path19" />
		<path d="M 0,46.80113 C 1.656872,45.664702 5.949763,43.525487 8.5270142,42.197601 c 1.9545028,-1.006578 3.4360188,-3.02163 3.7914688,-4.323925 0.355451,-1.302296 0.592417,-0.947814 1.184835,-1.42172 0.592417,-0.473907 0.7109,-0.592384 1.658767,-1.540197 0.947868,-0.947813 2.488152,-1.540197 3.732702,-2.84344 0.781042,-0.818911 0.769668,-2.13258 1.184834,-3.139158 0.415166,-1.006578 1.006635,-1.06629 2.665403,-2.073816 1.658767,-1.007525 2.369668,-2.428298 3.199052,-3.672777 0.829384,-1.244479 1.954502,-2.014103 3.317535,-2.84344 1.363034,-0.829337 1.421801,-1.954391 2.132702,-3.080393 0.7109,-1.126003 3.732701,-2.191345 5.035071,-2.961917 1.30237,-0.770572 2.369668,-2.547723 2.784834,-4.6803027 C 39.629384,7.4839352 41.405687,6.951264 42.590521,6.4773573 43.775355,6.0034506 44.130806,5.5295439 45.67109,4.1665883 47,2.9903519 47.75545,1.3733822 47.976303,9.4844011e-4" id="path21" />
		<path d="m 0,31.815253 c 1.00189572,-0.93644 1.69573462,-2.213145 2.24739332,-3.775141 0.7109005,-2.014103 2.4881517,-2.84344 4.85782,-4.146684 2.3696682,-1.303243 3.3175357,-3.435823 4.2654027,-5.33145 0.947867,-1.895627 2.132702,-2.606487 4.50237,-3.435823 2.369668,-0.829337 3.554502,-3.435824 4.502369,-5.4499275 0.947868,-2.0141034 2.488152,-2.4880101 5.331754,-3.6727769 2.36872,-0.9866737 3.668246,-3.9457471 4.446446,-6.00250215989" id="path23" />
		<path d="m 50,10.75863 c -0.150711,0.21705 -0.303317,0.448316 -0.458768,0.695695 -0.961137,1.526928 -1.78673,3.285122 -4.265403,4.028207 -0.789573,0.236954 0,0 -0.967772,0.35543 -0.967773,0.35543 -2.606635,2.132581 -3.436019,3.791254 -0.829384,1.658673 -1.895735,2.606487 -4.85782,3.90973 -2.962085,1.303244 -2.962085,2.606487 -3.672986,4.26516 -0.7109,1.658674 -2.606635,2.843441 -4.028436,3.554301 -1.421801,0.71086 -2.725118,1.77715 -3.199052,3.317346 -0.473934,1.540197 -2.014218,2.961917 -4.383886,4.739067 -2.369668,1.777151 -4.028436,3.198871 -5.450237,4.620591 l -2.251185,4.739067 c -0.2,0.450211 -0.336493,0.858719 -0.526066,1.224575" id="path25" />
		<path d="m 50,31.834209 c -0.28436,0.263492 -0.594313,0.500445 -0.932701,0.708964 0,0 -0.67109,0.473907 -1.618958,1.126003 -0.947867,0.652095 -2.132701,0.415142 -3.021801,1.658673 -0.889099,1.243531 -1.954502,2.665251 -2.962085,2.902205 -1.007583,0.236953 -2.191469,0.829336 -3.376303,2.13258 -1.184834,1.303243 -1.658768,1.77715 -3.436019,3.317347 -1.777251,1.540196 -3.258768,2.961917 -3.495735,3.5543 -0.236967,0.592383 -0.592417,1.658673 -0.592417,1.658673 -0.118483,0.31657 -0.254028,0.692852 -0.410426,1.106099" id="path27" />
		<path d="m 50,13.405873 c -0.848341,1.302296 -2.217062,2.855762 -4.487204,3.378955 l -2.034123,1.06629 c -0.947867,0.947813 -1.303318,3.317347 -3.080569,4.62059 -1.777251,1.303244 -5.21327,3.080394 -6.516587,4.976021 -1.303318,1.895626 -1.658768,4.62059 -3.909953,5.33145 -2.251185,0.71086 -2.843602,1.42172 -3.909953,3.317347 -1.06635,1.895627 -2.132701,3.317347 -4.502369,4.97602 -2.369669,1.658674 -5.094787,5.68688 -6.161138,7.937937 -0.167772,0.35543 -0.318483,0.685269 -0.458768,0.98857" id="path29" />
		<path d="m 50,15.868292 c -0.825592,0.817963 -1.748815,1.527876 -2.591469,1.865297 l -2.508057,1.77715 c -0.829384,1.06629 -3.080569,4.502114 -4.85782,5.331451 -1.777251,0.829336 -4.028436,1.658673 -4.739336,2.961916 -0.710901,1.303244 -3.317536,5.805357 -5.331754,6.753171 -2.014218,0.947813 -3.080569,2.724963 -4.028436,4.146683 -0.947867,1.42172 -0.829384,3.080394 -2.962085,4.028207 -2.132702,0.947814 -4.50237,3.672777 -5.568721,6.160787 C 17.249289,49.273028 17.072038,49.642675 16.883412,50" id="path31" />
		<path d="m 26.802844,49.999053 c 0.08246,-0.349744 0.140284,-0.688113 0.206635,-0.98857 0.236967,-1.06629 0.592417,-3.969442 1.421801,-5.094497 0.829384,-1.125054 3.376303,-2.251057 4.85782,-2.902204 1.481516,-0.651148 3.258767,-3.317347 3.969668,-4.502114 0.7109,-1.184767 3.021801,-2.014103 4.206635,-3.139158 1.184834,-1.125054 1.126066,-1.362956 1.717535,-2.13258 l 1.737441,-0.829337 c 1.777251,-0.473906 4.14692,-2.014103 4.85782,-3.5543 C 49.83981,26.722651 49.914692,26.580479 50,26.43262" id="path33" />
		<path d="m 28.352607,49.999053 c 0.134597,-0.45116 0.235071,-0.871989 0.315639,-1.225523 0.355451,-1.540197 1.184835,-2.961917 2.073934,-3.90973 0.8891,-0.947814 2.843602,-2.369534 4.087204,-3.376112 1.243602,-1.006577 2.784834,-2.428298 3.554502,-3.672777 0.769669,-1.244479 1.303318,-1.06629 2.606635,-1.598961 1.303318,-0.532671 1.480569,-1.243531 2.132702,-2.073815 0.652132,-0.830285 1.717535,-1.362956 2.902369,-2.014104 l 1.618958,-0.889049 c 0.777251,-0.499498 1.606635,-1.338312 2.354502,-2.246318" id="path35" />
		<path d="m 41.554502,49.999053 c 0.14692,-0.380074 0.229384,-0.729817 0.266351,-0.98857 0,0 0.35545,-3.080393 1.006635,-3.90973 0.651185,-0.829337 1.126067,-1.126002 3.080569,-2.073816 1.954502,-0.947813 2.725118,-1.303243 2.725118,-1.303243 l 0.537441,-0.35543 C 49.443602,41.222301 49.721327,41.07539 50,40.927531" id="path37" />
		<path d="m 43.641706,49.999053 c 0.122275,-0.334579 0.209479,-0.684322 0.252133,-1.047334 0,0 0.7109,-2.13258 1.480569,-2.84344 0.769668,-0.71086 2.551658,-1.77715 3.618009,-2.606487 0.250237,-0.194302 0.598104,-0.473907 1.006635,-0.789529" id="path39" />
		<path d="m 45.840758,49.999053 c 0.07393,-0.341213 0.117536,-0.691904 0.126067,-1.047334 0,0 0.415166,-1.243531 1.421801,-2.073816 1.006635,-0.830284 0.3109,-0.269179 2.077725,-1.42172 0.158294,-0.102364 0.336493,-0.232214 0.532701,-0.381021" id="path41" />
		<path d="m 50,46.804921 c -0.166825,0.114686 -0.306161,0.218945 -0.415166,0.310883 -1.214218,1.032169 -0.655924,0.473907 -1.011374,0.947814 -0.35545,0.473906 -0.532702,1.303243 -0.532702,1.303243 -0.0076,0.201884 -0.03033,0.414194 -0.06445,0.632192" id="path43" />
		<line x1="3.2540283" y1="2.1534309" x2="1.0028436" y2="1.5610476" id="line45" />
		<line x1="1.7734597" y1="5.2338243" x2="1.0625591" y2="7.2479277" id="line47" />
		<line x1="15.872987" y1="3.8708689" x2="13.957347" y2="4.5627761" id="line49" />
		<line x1="17.90616" y1="6.7939286" x2="17.550711" y2="5.0167785" id="line51" />
		<line x1="44.367775" y1="22.353231" x2="44.723225" y2="24.130383" id="line53" />
		<line x1="19.78294" y1="0.94876015" x2="18.716589" y2="3.515439" id="line55" />
		<line x1="48.69289" y1="22.471708" x2="46.974407" y2="23.597712" id="line57" />
		<line x1="11.232227" y1="7.8204074" x2="13.364929" y2="8.8279362" id="line59" />
		<line x1="15.299525" y1="7.6621227" x2="15.181042" y2="9.7947025" id="line61" />
		<line x1="43.182938" y1="39.295395" x2="45.019905" y2="38.11063" id="line63" />
		<line x1="46.855927" y1="39.176918" x2="47.211376" y2="40.954071" id="line65" />
		<line x1="11.66635" y1="11.868518" x2="9.8303318" y2="12.638143" id="line67" />
		<line x1="6.3345971" y1="1.7980009" x2="8.1715641" y2="1.0274289" id="line69" />
		<line x1="8.7042656" y1="10.209845" x2="7.9933648" y2="12.105472" id="line71" />
		<line x1="3.6691945" y1="13.11205" x2="5.979147" y2="13.053285" id="line73" />
		<line x1="4.2616115" y1="16.903303" x2="5.6834126" y2="15.481583" id="line75" />
		<line x1="4.3004742" y1="30.528122" x2="2.8786731" y2="31.949842" id="line77" />
		<line x1="7.934597" y1="14.296816" x2="7.934597" y2="16.310921" id="line79" />
		<line x1="23.277725" y1="34.734516" x2="21.441708" y2="35.504143" id="line81" />
		<line x1="20.315641" y1="33.075844" x2="19.60474" y2="34.97147" id="line83" />
		<line x1="17.590523" y1="35.919285" x2="15.280569" y2="35.97805" id="line85" />
		<line x1="17.294786" y1="38.347584" x2="15.872987" y2="39.769302" id="line87" />
		<line x1="19.545973" y1="37.162815" x2="19.545973" y2="39.176918" id="line89" />
		<line x1="4.9725122" y1="3.6339157" x2="4.9725122" y2="5.6480193" id="line91" />
		<line x1="1.8919431" y1="17.673876" x2="1.8322275" y2="15.541295" id="line93" />
		<line x1="5.0909953" y1="19.865219" x2="3.3137443" y2="19.15436" id="line95" />
		<line x1="1.3582938" y1="23.064093" x2="0.70710891" y2="20.694557" id="line97" />
		<line x1="38.147869" y1="2.1335268" x2="36.252132" y2="1.0274289" id="line99" />
		<line x1="33.565876" y1="1.0274289" x2="31.512796" y2="1.6596202" id="line101" />
		<line x1="33.348816" y1="5.0556359" x2="33.882465" y2="3.3969624" id="line103" />
		<line x1="34.237915" y1="6.8327861" x2="32.045498" y2="7.1294513" id="line105" />
		<line x1="29.872988" y1="4.207346" x2="29.932703" y2="6.2214494" id="line107" />
		<line x1="30.20948" y1="10.446798" x2="29.854029" y2="8.1957417" id="line109" />
		<line x1="27.602844" y1="8.2545061" x2="25.291945" y2="7.4251695" id="line111" />
		<line x1="23.455925" y1="9.0838423" x2="21.855925" y2="10.268609" id="line113" />
		<line x1="25.094788" y1="12.895" x2="22.902369" y2="12.717763" id="line115" />
		<line x1="24.422749" y1="17.02178" x2="24.008532" y2="14.948912" id="line117" />
		<line x1="19.289101" y1="13.862718" x2="20.710901" y2="15.46263" id="line119" />
		<line x1="20.512796" y1="17.476734" x2="18.498577" y2="18.720261" id="line121" />
		<line x1="21.678673" y1="20.43865" x2="20.078674" y2="19.885124" id="line123" />
		<line x1="16.682465" y1="23.81476" x2="16.504265" y2="21.267984" id="line125" />
		<line x1="11.903317" y1="20.635792" x2="14.214219" y2="20.043409" id="line127" />
		<line x1="43.953556" y1="41.072548" x2="43.598106" y2="43.086651" id="line129" />
		<line x1="39.688152" y1="44.271416" x2="42.057819" y2="44.271416" id="line131" />
		<line x1="35.935547" y1="44.943417" x2="37.357346" y2="42.73122" id="line133" />
		<line x1="40.536495" y1="46.680759" x2="39.233177" y2="48.339432" id="line135" />
		<line x1="36.883415" y1="49.050293" x2="36.726067" y2="46.839043" id="line137" />
		<line x1="34.3564" y1="49.050293" x2="33.250237" y2="46.99638" id="line139" />
		<line x1="12.081516" y1="24.229902" x2="13.977252" y2="25.354958" id="line141" />
		<line x1="10.304265" y1="25.967243" x2="9.000948" y2="24.248859" id="line143" />
		<line x1="3.727962" y1="49.564007" x2="2.4246445" y2="47.845619" id="line145" />
		<line x1="12.495734" y1="28.158588" x2="10.363033" y2="28.929161" id="line147" />
		<line x1="7.1838861" y1="30.409645" x2="7.2426543" y2="28.336777" id="line149" />
		<line x1="4.6170616" y1="32.601936" x2="7.2236962" y2="32.83889" id="line151" />
		<line x1="3.5109003" y1="28.139633" x2="5.2881517" y2="27.250584" id="line153" />
		<line x1="4.794313" y1="36.748623" x2="3.4909952" y2="34.734516" id="line155" />
		<line x1="11.242655" y1="47.625729" x2="9.2037916" y2="45.985062" id="line157" />
		<line x1="10.759242" y1="43.482834" x2="8.7876778" y2="43.2383" id="line159" />
		<line x1="7.0853081" y1="47.136658" x2="6.0777254" y2="49.524197" id="line161" />
		<line x1="0.88436013" y1="35.148712" x2="1.0028436" y2="33.371563" id="line163" />
		<line x1="2.1876776" y1="37.636723" x2="0.52890992" y2="38.703014" id="line165" />
		<line x1="47.231281" y1="3.8121045" x2="49.541233" y2="4.6414409" id="line167" />
		<line x1="45.986732" y1="6.2015452" x2="45.098579" y2="8.3341255" id="line169" />
		<line x1="48.33744" y1="9.5577497" x2="46.145023" y2="9.3805084" id="line171" />
		<line x1="45.849289" y1="13.46748" x2="45.434124" y2="11.394611" id="line173" />
		<line x1="41.465405" y1="8.7284126" x2="43.202843" y2="9.5577497" id="line175" />
		<line x1="44.24929" y1="14.652246" x2="41.879623" y2="14.652246" id="line177" />
		<line x1="42.550713" y1="11.848614" x2="39.983887" y2="12.579378" id="line179" />
		<line x1="38.601898" y1="19.391314" x2="37.29858" y2="21.049986" id="line181" />
		<line x1="39.272987" y1="17.377211" x2="39.095734" y2="14.830435" id="line183" />
		<line x1="34.3564" y1="17.258734" x2="36.666351" y2="16.666349" id="line185" />
		<line x1="35.165878" y1="20.43865" x2="33.270142" y2="19.312645" id="line187" />
		<line x1="33.171566" y1="23.45933" x2="31.868248" y2="21.741892" id="line189" />
		<line x1="40.220856" y1="39.947491" x2="41.52417" y2="41.664928" id="line191" />
		<line x1="13.266351" y1="41.664928" x2="11.963033" y2="39.947491" id="line193" />
		<line x1="31.670143" y1="26.461056" x2="29.537441" y2="27.23068" id="line195" />
		<line x1="28.826542" y1="23.933237" x2="28.886257" y2="21.860369" id="line197" />
		<line x1="28.96493" y1="29.284592" x2="26.358295" y2="29.047638" id="line199" />
		<line x1="25.153553" y1="27.15201" x2="26.930805" y2="26.262962" id="line201" />
		<line x1="25.410427" y1="32.068317" x2="24.107109" y2="30.054216" id="line203" />
		<line x1="21.500475" y1="29.106401" x2="21.381992" y2="30.883553" id="line205" />
		<line x1="40.636021" y1="25.552103" x2="43.064457" y2="25.967243" id="line207" />
		<line x1="44.486256" y1="26.73687" x2="43.953556" y2="29.106401" id="line209" />
		<line x1="47.922276" y1="26.144485" x2="46.145023" y2="26.381439" id="line211" />
		<line x1="35.541233" y1="33.786705" x2="34.948814" y2="36.451958" id="line213" />
		<line x1="47.389576" y1="19.035883" x2="49.048344" y2="20.102173" id="line215" />
		<line x1="41.34692" y1="28.277065" x2="39.806637" y2="30.113928" id="line217" />
		<line x1="14.095736" y1="43.857224" x2="12.55545" y2="45.693138" id="line219" />
		<line x1="37.732704" y1="29.93574" x2="37.9109" y2="27.744394" id="line221" />
		<line x1="37.081516" y1="32.601936" x2="39.332703" y2="33.194321" id="line223" />
		<line x1="22.271091" y1="44.686558" x2="24.81801" y2="44.152939" id="line225" />
		<line x1="24.640759" y1="48.655052" x2="25.17346" y2="46.285519" id="line227" />
		<line x1="34.119431" y1="31.594412" x2="35.896683" y2="31.35746" id="line229" />
		<line x1="26.595263" y1="42.612743" x2="27.187679" y2="39.947491" id="line231" />
		<line x1="31.354504" y1="40.678257" x2="29.458769" y2="39.098251" id="line233" />
		<line x1="5.9203792" y1="44.8638" x2="4.380095" y2="46.700661" id="line235" />
		<line x1="21.441708" y1="48.833241" x2="20.375357" y2="46.759426" id="line237" />
		<line x1="29.735546" y1="36.748623" x2="31.986731" y2="37.341003" id="line239" />
		<line x1="47.863506" y1="35.385666" x2="48.21896" y2="37.162815" id="line241" />
		<line x1="16.030331" y1="16.469204" x2="16.030331" y2="18.483309" id="line243" />
		<line x1="27.424646" y1="10.229753" x2="26.891943" y2="11.888426" id="line245" />
		<line x1="22.645496" y1="0.67199886" x2="23.948814" y2="2.3903842" id="line247" />
	</g>
</svg>
