<?xml version="1.0" encoding="UTF-8" standalone="no"?>
<svg xmlns:dc="http://purl.org/dc/elements/1.1/" xmlns:cc="http://creativecommons.org/ns#" xmlns:rdf="http://www.w3.org/1999/02/22-rdf-syntax-ns#" xmlns:svg="http://www.w3.org/2000/svg" xmlns="http://www.w3.org/2000/svg" version="1.1" x="0px" y="0px" xml:space="preserve" width="50.00" height="50.00" viewBox="0 0 50.00 50.00">
	<metadata id="metadata2">
		<rdf:RDF>
			<ns:item rdf:ID="biblio1">
				<ns:link>rdf:resource=&quot;http://pubs.usgs.gov/tm/2006/11A02/</ns:link>
				<ns:title>U.S. Geological Survey, 2006, FGDC Digital Cartographic Standard for Geologic Map Symbolization (PostScript Implementation): U.S. Geological Survey Techniques and Methods 11-A2</ns:title>
			</ns:item>
			<ns:item rdf:ID="biblio2">
				<ns:link>https://davenquinn.com/projects/geologic-patterns/</ns:link>
				<ns:title>FGDC Geologic Patterns for the Web</ns:title>
			</ns:item>
			<rdf:Description>
				<dc:description>
					Converted from 'FGDC Geologic Patterns for the Web' to QGIS compatible svg symbols, with customisable fill colour/stroke colour/stroke width (when appropriate).
					SVG scaled to 50x50 pixels so that base outline-width is 0.387 px and width is 90 in the QGIS xml definition file. 
					Some of the original FGDC symbols have been omitted from this set because they can be generated from other symbols using the 'texture width' and/or 'stroke width' fields in QGIS symbology form.
				</dc:description>
				<dc:date>01 MARCH 2019</dc:date>
				<dc:creator>GeoProc.com</dc:creator>
				<dc:publisher rdf:resource="https://github.com/BC-Consulting/QGIS-FGDC-Fill" />
			</rdf:Description>
			<cc:Work rdf:about="">
				<dc:format>image/svg+xml</dc:format>
				<dc:type rdf:resource="http://purl.org/dc/dcmitype/StillImage" />
				<dc:title>FGDC fill symbol: Lithology - Metamorphism, Igneous and vein - 716 Zeolitic Rock</dc:title>
			</cc:Work>
		</rdf:RDF>
	</metadata>
	<path style="fill:none;stroke:none;stroke-width:0;" id="rect1500" width="50.00" height="50.00" x="0.0" y="0.0" />
	<g style="fill:none;" stroke="param(outline) #000" stroke-width="param(outline-width) 0.387">
		<polyline id="polyline5" points="5.7489129285,4.469568677 8.0141302745,4.469568677 5.4771738035,7.9119599125 8.0141302745,7.9119599125" />
		<polyline id="polyline7" points="22.3249995535,4.469568677 24.589129943,4.469568677 22.0532604285,7.9119599125    24.589129943,7.9119599125" />
		<polyline id="polyline9" points="38.969564438,4.469568677 41.2336948275,4.469568677 38.697825313,7.9119599125    41.2336948275,7.9119599125" />
		<polyline id="polyline11" points="47.393477313,4.469568677 49.6576077025,4.469568677 47.121738188,7.9119599125    49.6576077025,7.9119599125" />
		<polyline id="polyline13" points="30.613042866,4.469568677 32.8771732555,4.469568677 30.341303741,7.9119599125    32.8771732555,7.9119599125" />
		<polyline id="polyline15" points="14.1054345005,4.469568677 16.36956489,4.469568677 13.8336953755,7.9119599125    16.36956489,7.9119599125" />
		<polyline id="polyline17" points="1.4358695365,12.8489163355 3.699999926,12.8489163355 1.1641304115,16.2902206145 3.699999926,16.2902206145" />
		<polyline id="polyline19" points="18.0119561615,12.8489163355 20.276086551,12.8489163355 17.7402170365,16.2902206145    20.276086551,16.2902206145" />
		<polyline id="polyline21" points="34.6554340895,12.8489163355 36.919564479,12.8489163355 34.3836949645,16.2902206145    36.919564479,16.2902206145" />
		<polyline id="polyline23" points="43.0793469645,12.8489163355 45.343477354,12.8489163355 42.8076078395,16.2902206145    45.343477354,16.2902206145" />
		<polyline id="polyline25" points="26.299999474,12.8489163355 28.5641298635,12.8489163355 26.028260349,16.2902206145    28.5641298635,16.2902206145" />
		<polyline id="polyline27" points="9.791304152,12.8489163355 12.056521498,12.8489163355 9.519565027,16.2902206145    12.056521498,16.2902206145" />
		<polyline id="polyline29" points="5.7489129285,21.204350951 8.0141302745,21.204350951 5.4771738035,24.6467421865 8.0141302745,24.6467421865" />
		<polyline id="polyline31" points="22.3249995535,21.204350951 24.589129943,21.204350951 22.0532604285,24.6467421865    24.589129943,24.6467421865" />
		<polyline id="polyline33" points="38.969564438,21.204350951 41.2336948275,21.204350951 38.697825313,24.6467421865    41.2336948275,24.6467421865" />
		<polyline id="polyline35" points="47.393477313,21.204350951 49.6576077025,21.204350951 47.121738188,24.6467421865    49.6576077025,24.6467421865" />
		<polyline id="polyline37" points="30.613042866,21.204350951 32.8771732555,21.204350951 30.341303741,24.6467421865    32.8771732555,24.6467421865" />
		<polyline id="polyline39" points="14.1054345005,21.204350951 16.36956489,21.204350951 13.8336953755,24.6467421865    16.36956489,24.6467421865" />
		<polyline id="polyline41" points="1.4358695365,29.582611653 3.699999926,29.582611653 1.1641304115,33.0250028885 3.699999926,33.0250028885" />
		<polyline id="polyline43" points="18.0119561615,29.582611653 20.276086551,29.582611653 17.7402170365,33.0250028885    20.276086551,33.0250028885" />
		<polyline id="polyline45" points="34.6554340895,29.582611653 36.919564479,29.582611653 34.3836949645,33.0250028885    36.919564479,33.0250028885" />
		<polyline id="polyline47" points="43.0793469645,29.582611653 45.343477354,29.582611653 42.8076078395,33.0250028885    45.343477354,33.0250028885" />
		<polyline id="polyline49" points="26.299999474,29.582611653 28.5641298635,29.582611653 26.028260349,33.0250028885    28.5641298635,33.0250028885" />
		<polyline id="polyline51" points="9.791304152,29.582611653 12.056521498,29.582611653 9.519565027,33.0250028885    12.056521498,33.0250028885" />
		<polyline id="polyline53" points="5.7489129285,37.8032636625 8.0141302745,37.8032636625 5.4771738035,41.245654898 8.0141302745,41.245654898" />
		<polyline id="polyline55" points="22.3249995535,37.8032636625 24.589129943,37.8032636625 22.0532604285,41.245654898    24.589129943,41.245654898" />
		<polyline id="polyline57" points="38.969564438,37.8032636625 41.2336948275,37.8032636625 38.697825313,41.245654898    41.2336948275,41.245654898" />
		<polyline id="polyline59" points="47.393477313,37.8032636625 49.6576077025,37.8032636625 47.121738188,41.245654898    49.6576077025,41.245654898" />
		<polyline id="polyline61" points="30.613042866,37.8032636625 32.8771732555,37.8032636625 30.341303741,41.245654898    32.8771732555,41.245654898" />
		<polyline id="polyline63" points="14.1054345005,37.8032636625 16.36956489,37.8032636625 13.8336953755,41.245654898 16.36956489,41.245654898" />
		<polyline id="polyline65" points="1.4358695365,46.1815243645 3.699999926,46.1815243645 1.1641304115,49.6239156 3.699999926,49.6239156" />
		<polyline id="polyline67" points="18.0119561615,46.1815243645 20.276086551,46.1815243645 17.7402170365,49.6239156 20.276086551,49.6239156" />
		<polyline id="polyline69" points="34.6554340895,46.1815243645 36.919564479,46.1815243645 34.3836949645,49.6239156 36.919564479,49.6239156" />
		<polyline id="polyline71" points="43.0793469645,46.1815243645 45.343477354,46.1815243645 42.8076078395,49.6239156 45.343477354,49.6239156" />
		<polyline id="polyline73" points="26.299999474,46.1815243645 28.5641298635,46.1815243645 26.028260349,49.6239156 28.5641298635,49.6239156" />
		<polyline id="polyline75" points="9.791304152,46.1815243645 12.056521498,46.1815243645 9.519565027,49.6239156 12.056521498,49.6239156" />
	</g>
</svg>
