<?xml version="1.0" encoding="UTF-8" standalone="no"?>
<svg xmlns:dc="http://purl.org/dc/elements/1.1/" xmlns:cc="http://creativecommons.org/ns#" xmlns:rdf="http://www.w3.org/1999/02/22-rdf-syntax-ns#" xmlns:svg="http://www.w3.org/2000/svg" xmlns="http://www.w3.org/2000/svg" version="1.1" x="0px" y="0px" xml:space="preserve" width="50.00" height="50.00" viewBox="0 0 50.00 50.00">
	<metadata id="metadata2">
		<rdf:RDF>
			<ns:item rdf:ID="biblio1">
				<ns:link>rdf:resource=&quot;http://pubs.usgs.gov/tm/2006/11A02/</ns:link>
				<ns:title>U.S. Geological Survey, 2006, FGDC Digital Cartographic Standard for Geologic Map Symbolization (PostScript Implementation): U.S. Geological Survey Techniques and Methods 11-A2</ns:title>
			</ns:item>
			<ns:item rdf:ID="biblio2">
				<ns:link>https://davenquinn.com/projects/geologic-patterns/</ns:link>
				<ns:title>FGDC Geologic Patterns for the Web</ns:title>
			</ns:item>
			<rdf:Description>
				<dc:description>
					Converted from 'FGDC Geologic Patterns for the Web' to QGIS compatible svg symbols, with customisable fill colour/stroke colour/stroke width (when appropriate).
					SVG scaled to 50x50 pixels so that base outline-width is 0.387 px and width is 90 in the QGIS xml definition file. 
					Some of the original FGDC symbols have been omitted from this set because they can be generated from other symbols using the 'texture width' and/or 'stroke width' fields in QGIS symbology form.
				</dc:description>
				<dc:date>01 MARCH 2019</dc:date>
				<dc:creator>GeoProc.com</dc:creator>
				<dc:publisher rdf:resource="https://github.com/BC-Consulting/QGIS-FGDC-Fill" />
			</rdf:Description>
			<cc:Work rdf:about="">
				<dc:format>image/svg+xml</dc:format>
				<dc:type rdf:resource="http://purl.org/dc/dcmitype/StillImage" />
				<dc:title>FGDC fill symbol: Lithology - Metamorphism, Igneous and vein - 717 Basaltic Flows</dc:title>
			</cc:Work>
		</rdf:RDF>
	</metadata>
	<path style="fill:none;stroke:none;stroke-width:0;" id="rect1500" width="50.00" height="50.00" x="0.0" y="0.0" />
	<g style="fill:none;" stroke="param(outline) #000">
		<g style="stroke-width:0.46;">
			<line x1="1.3447864" y1="36.813789" x2="1.3447864" y2="36.872028" id="line1133" />
			<line x1="1.9769511" y1="36.823753" x2="1.9769511" y2="36.986206" id="line1129" />
			<line x1="12.068597" y1="42.394634" x2="12.068597" y2="42.413792" id="line249" />
			<line x1="13.64326" y1="23.607662" x2="13.64326" y2="23.462069" id="line1193" />
			<line x1="15.654693" y1="26.77088" x2="15.654693" y2="26.843676" id="line1173" />
			<line x1="16.267702" y1="37.157852" x2="16.267702" y2="37.242142" id="line1079" />
			<line x1="17.033962" y1="2.347126" x2="17.033962" y2="2.353256" id="line969" />
			<line x1="17.244682" y1="37.242142" x2="17.244682" y2="37.186207" id="line1077" />
			<line x1="17.933552" y1="12.97701" x2="17.933552" y2="12.945592" id="line525" />
			<line x1="18.275303" y1="41.684288" x2="18.275303" y2="41.72337" id="line227" />
			<line x1="18.907467" y1="2.3984652" x2="18.907467" y2="2.4237533" id="line401" />
			<line x1="19.887514" y1="31.970879" x2="19.887514" y2="32.044445" id="line703" />
			<line x1="2.7424448" y1="27.322603" x2="2.7424448" y2="27.324137" id="line1243" />
			<line x1="2.7585363" y1="2.0214562" x2="2.7585363" y2="2.0084307" id="line335" />
			<line x1="20.519678" y1="31.977777" x2="20.519678" y2="31.986971" id="line709" />
			<line x1="21.321186" y1="2.466665" x2="21.321186" y2="2.481225" id="line347" />
			<line x1="21.842243" y1="32.00766" x2="21.842243" y2="32.044445" id="line713" />
			<line x1="22.665974" y1="32.039845" x2="22.665974" y2="32.044445" id="line685" />
			<line x1="27.527893" y1="46.606129" x2="27.527893" y2="46.693485" id="line835" />
			<line x1="27.953169" y1="6.6704965" x2="27.953169" y2="6.6973162" id="line1047" />
			<line x1="28.734753" y1="46.590805" x2="28.734753" y2="46.63678" id="line827" />
			<line x1="29.792192" y1="6.8467412" x2="29.792192" y2="6.843678" id="line1037" />
			<line x1="3.3332314" y1="2.0789251" x2="3.3332314" y2="2.017621" id="line337" />
			<line x1="3.5661745" y1="27.381607" x2="3.5661745" y2="27.340229" id="line1239" />
			<line x1="32.913937" y1="16.90881" x2="32.913937" y2="16.946358" id="line895" />
			<line x1="33.680195" y1="2.3616834" x2="33.680195" y2="2.2467425" id="line991" />
			<line x1="34.424232" y1="46.762451" x2="34.424232" y2="46.809193" id="line783" />
			<line x1="36.355976" y1="2.0084307" x2="36.355976" y2="2.0789251" id="line387" />
			<line x1="38.79575" y1="31.919538" x2="38.79575" y2="32.067432" id="line721" />
			<line x1="39.139797" y1="22.951723" x2="39.139797" y2="22.977009" id="line487" />
			<line x1="39.550514" y1="7.1340976" x2="39.550514" y2="7.0881224" id="line1005" />
			<line x1="39.8302" y1="22.997698" x2="39.8302" y2="23.15019" id="line505" />
			<line x1="4.2182617" y1="23.799997" x2="4.2182617" y2="23.763216" id="line1237" />
			<line x1="4.8887391" y1="23.820688" x2="4.8887391" y2="23.744061" id="line1231" />
			<line x1="40.171185" y1="1.9049808" x2="40.171185" y2="1.9065125" id="line395" />
			<line x1="41.941246" y1="7.0996161" x2="41.941246" y2="7.0881224" id="line1015" />
			<line x1="43.240059" y1="7.1386957" x2="43.240059" y2="7.1570883" id="line1011" />
			<line x1="44.500557" y1="1.9065125" x2="44.500557" y2="1.9264365" id="line441" />
			<line x1="46.033077" y1="1.944829" x2="46.033077" y2="1.9226015" id="line417" />
			<line x1="46.13192" y1="12.946358" x2="46.13192" y2="12.965515" id="line569" />
			<line x1="46.534973" y1="23.63295" x2="46.534973" y2="23.684288" id="line1271" />
			<line x1="46.72271" y1="42.115707" x2="46.72271" y2="42.130268" id="line849" />
			<line x1="47.147217" y1="23.613026" x2="47.147217" y2="23.763216" id="line1269" />
			<line x1="47.324223" y1="7.354023" x2="47.324223" y2="7.2137909" id="line565" />
			<line x1="47.527279" y1="1.9639814" x2="47.527279" y2="1.9440572" id="line419" />
			<line x1="47.64222" y1="42.154022" x2="47.64222" y2="42.19157" id="line839" />
			<line x1="48.067493" y1="23.651339" x2="48.067493" y2="23.832182" id="line1261" />
			<line x1="49.136425" y1="42.242146" x2="49.136425" y2="42.17318" id="line843" />
			<line x1="49.561699" y1="23.841379" x2="49.561699" y2="23.671263" id="line1263" />
			<line x1="5.5017476" y1="23.844442" x2="5.5017476" y2="23.724903" id="line1229" />
			<line x1="5.5630484" y1="32.505745" x2="5.5630484" y2="32.549423" id="line647" />
			<line x1="5.5630484" y1="7.673563" x2="5.5630484" y2="7.4781599" id="line547" />
			<line x1="5.8618898" y1="2.0628362" x2="5.8618898" y2="2.0789251" id="line353" />
			<line x1="7.5890398" y1="23.913406" x2="7.5890398" y2="23.899616" id="line1183" />
			<line x1="8.2020483" y1="16.96245" x2="8.2020483" y2="16.979307" id="line881" />
			<line x1="9.9460564" y1="23.911875" x2="9.9460564" y2="23.911875" id="line1187" />
			<path d="m 34.424234,46.76245 c 2.016797,0.03295 5.392172,0.272031 6.494054,0.363985 1.380035,0.114176 3.792988,-0.114942 5.746951,-0.230651" id="path5" />
			<path d="m 34.424234,46.76245 c -0.50803,-0.0084 -0.929473,-0.0046 -1.20686,0.01916" id="path7" />
			<path d="m 40.171185,1.9049795 c -1.420647,0.013793 -2.777693,0.044444 -3.815209,0.1034483" id="path9" />
			<path d="m 36.355976,2.0084278 c -0.742506,0.042146 -1.321799,0.098851 -1.644394,0.1747126 -0.281984,0.0659 -0.633697,0.1256705 -1.031386,0.1777778" id="path11" />
			<path d="M 33.680196,2.3616845 C 31.320114,2.6735619 27.321003,2.7586194 26.435973,2.7586194" id="path13" />
			<path d="m 44.500554,1.9065121 c -1.323331,-0.010728 -2.860449,-0.015326 -4.329369,-0.0023" id="path15" />
			<path d="m 46.033074,1.922604 c 0.623736,0.00766 1.139429,0.016092 1.493441,0.021456" id="path17" />
			<path d="m 44.500554,1.9065121 c 0.555539,0.0046 1.07353,0.00996 1.53252,0.016092" id="path19" />
			<path d="m 47.527281,1.94406 c 0.337921,0.00613 0.529486,0.00996 0.529486,0.00996 0.47125,0 1.139429,0.00536 1.941703,0.014559" id="path21" />
			<path d="m 39.550514,7.0881212 c 0.6904,-0.013793 1.508766,-0.02069 2.389965,0" id="path23" />
			<path d="m 37.814935,7.1264354 c 0.357843,0 0.967786,-0.022989 1.736345,-0.038314" id="path25" />
			<path d="M 47.324223,7.3540216 C 47.029979,7.3379297 45.246125,7.2398454 43.240056,7.1394622" id="path27" />
			<path d="m 41.941245,7.0881212 c 0.340986,0.00843 0.690401,0.019923 1.045945,0.038314 0.08429,0.00383 0.169344,0.00843 0.252866,0.013027" id="path29" />
			<path d="m 47.324223,7.3540216 c 0.02835,0.00153 0.04291,0.0023 0.04291,0.0023 0.802274,0.019923 1.691902,0.054406 2.632103,0.094253" id="path31" />
			<path d="m 46.131922,12.946359 c -0.800742,-0.01609 -1.901091,-0.01762 -3.029793,0.04138 -2.184607,0.114943 -5.517072,-0.114176 -6.782167,0" id="path33" />
			<path d="m 46.131922,12.946359 c 0.748636,0.01533 1.234445,0.04138 1.234445,0.04138 0.751701,-0.04904 1.64516,-0.09349 2.632103,-0.131801" id="path35" />
			<path d="m 32.913935,16.908811 c 1.386931,0.02529 2.786888,0.0636 3.980722,0.101916 3.563875,0.115708 10.242598,-0.114177 10.242598,-0.114177 0.887329,0.0682 1.978484,0.136399 2.861215,0.156322" id="path37" />
			<path d="m 26.550912,17.010727 c 0.917213,-0.152491 3.612916,-0.153257 6.36379,-0.101916" id="path39" />
			<path d="m 18.010943,22.944826 c 0.804573,-0.114942 4.685681,-0.127969 7.214339,-0.357854 2.528658,-0.229885 8.22197,0.170881 12.244836,0.28659 0.530252,0.01533 1.092687,0.04215 1.670447,0.07816" id="path41" />
			<path d="M 39.830199,22.9977 C 39.598788,22.98161 39.368144,22.96552 39.140565,22.95172" id="path43" />
			<path d="M 46.534975,23.68429 C 45.193253,23.514175 42.437782,23.184673 39.830199,22.9977" id="path45" />
			<path d="m 49.561702,23.841378 c -0.55937,0.0038 -1.071232,0.0031 -1.494207,-0.0092" id="path47" />
			<path d="m 47.147216,23.763217 c -0.142524,-0.01839 -0.350947,-0.04598 -0.613008,-0.07969" id="path49" />
			<path d="m 48.067495,23.832182 c -0.275088,-0.0077 -0.512628,-0.02069 -0.700362,-0.03908 0,0 -0.07739,-0.01073 -0.21915,-0.02989" id="path51" />
			<path d="m 49.561702,23.841378 c 0.143291,-7.66e-4 0.28888,-0.0023 0.436768,-0.0038" id="path53" />
			<path d="m 30.573777,27.011493 c 0.80534,-0.114943 3.448171,-0.114943 4.7125,-0.230652 1.264329,-0.114176 4.712499,0.114943 6.666462,0.230652 1.953964,0.114176 5.87415,0.229885 5.87415,0.229885 0.55937,-0.04674 1.270459,-0.03678 2.171581,-0.0084" id="path55" />
			<path d="m 27.240546,37.586205 c 0.689634,-0.114942 2.183841,0.114177 4.712499,0 2.528659,-0.114942 6.665697,-0.344827 9.309294,-0.574712 2.643597,-0.229885 6.793662,-0.229885 6.793662,-0.229885 0.47125,0 1.139429,0.0054 1.941703,0.01456" id="path57" />
			<path d="m 49.136428,42.242144 c -0.521057,-0.01992 -1.021425,-0.03755 -1.494208,-0.05058" id="path59" />
			<path d="m 49.136428,42.242144 c 0.281983,0.01073 0.569331,0.02299 0.862042,0.03525" id="path61" />
			<path d="m 46.722708,42.130267 c -0.808404,-0.05977 -2.19227,-0.139464 -3.045883,-0.06207 -1.26433,0.114942 -5.632778,-0.344828 -6.207473,-0.229885" id="path63" />
			<path d="m 47.64222,42.191569 c -0.09272,-0.0023 -0.184668,-0.0054 -0.275087,-0.0077 0,0 -0.255931,-0.02452 -0.644425,-0.05287" id="path65" />
			<path d="m 46.94569,46.781608 c 0.857445,-0.05594 1.898793,-0.105748 3.05278,-0.148659" id="path67" />
			<path d="m 41.8378,32.413792 c 0.344817,0 1.14939,0 1.953964,0 0.805339,0 3.345491,-0.344828 3.345491,-0.344828 0.746337,-0.03755 1.759333,-0.0015 2.861215,0.06283" id="path69" />
			<path d="M 18.907467,2.3984661 C 18.27377,2.3831404 17.637774,2.3693473 17.033962,2.3524891" id="path71" />
			<path d="M 17.033962,2.3532554 C 16.450071,2.3379297 15.896065,2.3203052 15.401828,2.2988492 13.953596,2.236014 9.8173241,2.138696 5.8618896,2.0628339" id="path73" />
			<path d="M 23.792375,2.6429105 C 23.289709,2.5593856 22.39012,2.5057458 21.321187,2.4666653" id="path75" />
			<path d="m 21.321187,2.4666653 c -0.74787,-0.027586 -1.578496,-0.048276 -2.41372,-0.068199" id="path77" />
			<path d="M 5.8618896,2.0628339 C 5.0006133,2.046742 4.1477658,2.03065 3.3332313,2.0168569" id="path79" />
			<path d="m -2.4e-8,1.9685811 c 0.804573084,0.0092 1.744774224,0.022989 2.758536324,0.03908" id="path81" />
			<path d="m 3.3332313,2.0176232 c -0.1938638,-0.00307 -0.3854288,-0.00613 -0.574695,-0.0092" id="path83" />
			<path d="m 29.792192,6.8436768 c 1.672746,0.2528736 3.066573,0.052874 4.459634,0.052874" id="path85" />
			<path d="M 5.5630482,7.6735619 C 3.6956723,7.6176232 1.7608656,7.5249029 -2.4e-8,7.4505734" id="path87" />
			<path d="m 27.953168,6.6704967 c 0.585422,0.0069 1.089622,0.03908 1.471219,0.1103449 0.124134,0.022989 0.246736,0.043678 0.367805,0.062069" id="path89" />
			<path d="m 27.953168,6.6704967 c -2.23748,-0.026054 -5.651935,0.3164751 -7.838075,0.2252874 -2.759302,-0.1149425 -4.022865,0 -7.356863,0.5747126 C 11.097745,7.7570868 8.4104706,7.757853 5.5630482,7.6727956" id="path91" />
			<path d="M -2.4e-8,12.855171 C 5.9530745,12.619922 15.286889,12.577776 17.355025,12.873562 c 0.181603,0.02605 0.375467,0.04981 0.578526,0.07203" id="path93" />
			<path d="m 31.148472,12.873562 c -0.688868,-0.114943 -4.366916,-0.114943 -5.632011,0.114176 -1.169313,0.213027 -5.090266,0.229119 -7.58291,-0.04215" id="path95" />
			<path d="M 8.2020479,16.962451 C 7.7108752,17.02452 7.1285175,17.086589 6.3791151,17.126435 4.1952739,17.241378 2.0689022,16.89655 1.3792681,17.010727 1.101882,17.05747 0.5984491,17.065899 -2.4e-8,17.052872" id="path97" />
			<path d="M 22.757924,17.010727 C 17.930486,17.241378 14.137498,17.355554 11.60884,16.89655 10.169804,16.634481 9.5054563,16.79847 8.2028141,16.96245" id="path99" />
			<path d="m 9.9460558,23.911876 c 1.1869372,-0.03218 2.4374732,-0.118008 3.6972052,-0.304215" id="path101" />
			<path d="m 4.8887393,23.820688 c 0.1961626,0.0069 0.400754,0.01533 0.6130081,0.02375" id="path103" />
			<path d="m 4.2182617,23.799999 c 0.2107215,0.0046 0.4344695,0.01226 0.6704776,0.02069" id="path105" />
			<path d="m 13.643261,23.607661 c 0.150953,-0.02222 0.302672,-0.04598 0.454392,-0.07126" id="path107" />
			<path d="m 7.5890398,23.913408 c 0.7432723,0.01609 1.5348189,0.02069 2.3562498,-0.0015" id="path109" />
			<path d="m 5.5017474,23.844443 c 0.6352296,0.02529 1.3371238,0.05287 2.0880587,0.06973" id="path111" />
			<path d="m 4.2182617,23.799999 c -0.1907987,-0.0046 -0.3716361,-0.0069 -0.5402133,-0.0069 -1.1325324,0 -2.4811502,0.03065 -3.678048424,0.04444" id="path113" />
			<path d="m 26.435973,27.011493 c -2.578465,0 -7.38828,-0.212261 -10.78128,-0.240613" id="path115" />
			<path d="m 3.5661744,27.340228 c 0.536382,0.0092 1.1087783,0.01533 1.7202539,0.01533 3.7929874,0 5.0580827,-0.114176 6.8963407,-0.45977 0.589254,-0.110345 1.87274,-0.138697 3.471158,-0.125671" id="path117" />
			<path d="M 2.7424448,27.322604 C 1.6750445,27.295784 0.76855884,27.25747 -2.4e-8,27.233715" id="path119" />
			<path d="m 2.7424448,27.322604 c 0.2643597,0.0069 0.5394471,0.01303 0.8237296,0.01762" id="path121" />
			<path d="m 1.3447864,36.813792 c -0.39002636,-0.0054 -0.76242876,-0.01073 -1.1110771,-0.01533" id="path123" />
			<path d="m 23.792375,37.470497 c -1.090388,-0.18161 -4.049684,-0.219924 -6.547692,-0.285058" id="path125" />
			<path d="m 1.976951,36.823753 c -0.2153191,-0.0031 -0.4260406,-0.0061 -0.6321646,-0.0092" id="path127" />
			<path d="m 16.267701,37.157853 c 0.313401,0.01 0.64136,0.01916 0.976982,0.02835" id="path129" />
			<path d="m 1.976951,36.823753 c 4.6925767,0.07126 11.480875,0.218391 13.424877,0.302682 0.272022,0.01226 0.562434,0.02222 0.865873,0.03218" id="path131" />
			<path d="m 18.275303,41.68429 c -1.67811,0.01073 -3.014467,0.182375 -5.517073,0.613793 -0.21302,0.03678 -0.443664,0.06896 -0.688868,0.09655" id="path133" />
			<path d="M 12.068596,42.394634 C 9.1514441,42.724903 4.1002577,42.449807 -2.4e-8,42.277393" id="path135" />
			<path d="m 18.275303,41.68429 c 0.557071,-0.0038 1.151689,0.01073 1.839024,0.03908 2.758536,0.114943 7.471036,-0.45977 9.309294,-0.114176 1.839024,0.344827 3.333997,0.114176 4.828205,0.114176" id="path137" />
			<path d="m 27.527893,46.606129 c 0.406884,-0.01073 0.818366,-0.01456 1.20686,-0.01456" id="path139" />
			<path d="M -2.4e-8,46.632182 C 5.9630359,46.410726 14.91372,46.377776 16.935114,46.665899 c 2.412953,0.344827 6.896341,0.344827 8.159904,0.114942 0.524121,-0.09502 1.463556,-0.150958 2.432875,-0.175479" id="path141" />
			<path d="m 28.734753,46.590803 c 0.919512,7.66e-4 1.70876,0.02835 1.993042,0.0751" id="path143" />
			<path d="m 20.519679,31.977776 c -0.207657,-0.0031 -0.418378,-0.0054 -0.632165,-0.0069" id="path145" />
			<path d="m 22.665973,32.039845 c 0.715687,0.03448 1.30724,0.08123 1.701098,0.144062 2.183841,0.344061 7.011279,0.344061 10.574389,-0.114943 2.49341,-0.321073 3.016766,-0.305747 3.854288,-0.148659" id="path147" />
			<path d="m 5.5630482,32.505746 c 0.3218292,0.01456 0.6160731,0.02222 0.8735364,0.02222 2.1846075,0 3.7929874,-0.114176 5.6327774,-0.344061 1.134832,-0.142529 4.72476,-0.240613 7.818918,-0.213027" id="path149" />
			<path d="m 40.228654,32.183907 c -0.655918,-0.103449 -1.07353,-0.196935 -1.432906,-0.264368" id="path151" />
			<path d="M 5.5630482,32.505746 C 4.0412556,32.440612 1.8903636,32.24291 -2.4e-8,32.131799" id="path153" />
			<path d="m 21.842244,32.007661 c -0.417612,-0.01303 -0.861277,-0.02299 -1.322565,-0.02989" id="path155" />
			<path d="m 22.665973,32.039845 c -0.258996,-0.01226 -0.535616,-0.02299 -0.823729,-0.03218" id="path157" />
		</g>
		<g style="stroke-width:0.23;">
			<line x1="0.23141059" y1="32.293484" x2="0.23141059" y2="36.629883" id="line1275" />
			<line x1="0.52105689" y1="17.333332" x2="0.52105689" y2="23.472029" id="line445" />
			<line x1="0.57469505" y1="42.653637" x2="0.57469505" y2="46.241379" id="line809" />
			<line x1="0.86204261" y1="1.9639814" x2="0.86204261" y2="0" id="line331" />
			<line x1="0.86204261" y1="47.138695" x2="0.86204261" y2="50" id="line161" />
			<line x1="0.99996948" y1="2.1279695" x2="0.99996948" y2="7.3034468" id="line1019" />
			<line x1="0.99996948" y1="27.209961" x2="0.99996948" y2="24.150957" id="line1225" />
			<line x1="1.095752" y1="12.757853" x2="1.095752" y2="7.9946346" id="line541" />
			<line x1="1.095752" y1="27.63678" x2="1.095752" y2="32.134865" id="line643" />
			<line x1="1.3447864" y1="16.701147" x2="1.3447864" y2="12.836781" id="line927" />
			<line x1="1.3447864" y1="32.478161" x2="1.3447864" y2="36.813789" id="line1135" />
			<line x1="1.4367375" y1="37.535633" x2="1.4367375" y2="42.298084" id="line239" />
			<line x1="1.6857722" y1="42.906513" x2="1.6857722" y2="46.241379" id="line821" />
			<line x1="1.7846196" y1="23.472029" x2="1.7846196" y2="17.27586" id="line443" />
			<line x1="1.9769511" y1="16.815325" x2="1.9769511" y2="12.951721" id="line925" />
			<line x1="1.9769511" y1="36.823753" x2="1.9769511" y2="32.593102" id="line1131" />
			<line x1="10.159077" y1="42.758617" x2="10.159077" y2="46.197701" id="line759" />
			<line x1="10.520751" y1="12.550956" x2="10.520751" y2="8.281991" id="line555" />
			<line x1="10.520751" y1="27.659769" x2="10.520751" y2="31.927967" id="line657" />
			<line x1="10.584351" y1="2.2321823" x2="10.584351" y2="7.2605352" id="line961" />
			<line x1="10.584351" y1="23.99157" x2="10.584351" y2="26.63678" id="line1169" />
			<line x1="10.861736" y1="37.29425" x2="10.861736" y2="42.355553" id="line253" />
			<line x1="10.999663" y1="13.21839" x2="10.999663" y2="16.599998" id="line867" />
			<line x1="10.999663" y1="32.595402" x2="10.999663" y2="36.770878" id="line1071" />
			<line x1="11.149084" y1="2.0789251" x2="11.149084" y2="0" id="line359" />
			<line x1="11.149084" y1="46.976242" x2="11.149084" y2="50" id="line425" />
			<line x1="11.267088" y1="12.608428" x2="11.267088" y2="8.1678133" id="line577" />
			<line x1="11.267088" y1="27.54406" x2="11.267088" y2="31.984673" id="line675" />
			<line x1="11.336819" y1="23.321836" x2="11.336819" y2="17.425285" id="line465" />
			<line x1="11.34065" y1="42.758617" x2="11.34065" y2="46.140995" id="line761" />
			<line x1="11.608841" y1="37.17931" x2="11.608841" y2="42.413792" id="line273" />
			<line x1="11.765924" y1="2.2321823" x2="11.765924" y2="7.2022972" id="line963" />
			<line x1="11.765924" y1="23.99157" x2="11.765924" y2="26.578543" id="line1171" />
			<line x1="11.945228" y1="12.608428" x2="11.945228" y2="8.2252855" id="line553" />
			<line x1="11.945228" y1="27.601532" x2="11.945228" y2="31.984673" id="line655" />
			<line x1="12.286214" y1="37.236778" x2="12.286214" y2="42.394634" id="line251" />
			<line x1="12.528352" y1="2.1938689" x2="12.528352" y2="0" id="line363" />
			<line x1="12.528352" y1="46.918007" x2="12.528352" y2="50" id="line429" />
			<line x1="12.716852" y1="23.437546" x2="12.716852" y2="17.367813" id="line469" />
			<line x1="12.877" y1="12.688888" x2="12.877" y2="16.599998" id="line883" />
			<line x1="12.877" y1="32.859768" x2="12.877" y2="36.770878" id="line1089" />
			<line x1="13.217987" y1="42.229118" x2="13.217987" y2="46.140995" id="line775" />
			<line x1="13.335991" y1="12.125669" x2="13.335991" y2="8.1570854" id="line523" />
			<line x1="13.335991" y1="27.26973" x2="13.335991" y2="32.032181" id="line637" />
			<line x1="13.64326" y1="2.4973171" x2="13.64326" y2="7.2022972" id="line979" />
			<line x1="13.64326" y1="26.578543" x2="13.64326" y2="23.607662" id="line1191" />
			<line x1="13.677742" y1="41.666664" x2="13.677742" y2="37.697315" id="line223" />
			<line x1="13.719121" y1="23.114941" x2="13.719121" y2="17.311111" id="line471" />
			<line x1="14.061639" y1="2.1363997" x2="14.061639" y2="0" id="line365" />
			<line x1="14.061639" y1="46.861301" x2="14.061639" y2="50" id="line431" />
			<line x1="14.522161" y1="23.229883" x2="14.522161" y2="17.367813" id="line467" />
			<line x1="14.748208" y1="2.1363997" x2="14.748208" y2="0" id="line361" />
			<line x1="14.748208" y1="46.803829" x2="14.748208" y2="50" id="line427" />
			<line x1="14.807976" y1="12.390803" x2="14.807976" y2="7.570879" id="line517" />
			<line x1="14.807976" y1="27.212259" x2="14.807976" y2="31.76705" id="line631" />
			<line x1="14.888433" y1="12.953256" x2="14.888433" y2="17.129501" id="line869" />
			<line x1="14.888433" y1="32.330265" x2="14.888433" y2="36.770878" id="line1073" />
			<line x1="15.149729" y1="41.666664" x2="15.149729" y2="37.639847" id="line217" />
			<line x1="15.211029" y1="23.08046" x2="15.211029" y2="17.540995" id="line539" />
			<line x1="15.22942" y1="42.229118" x2="15.22942" y2="46.140995" id="line763" />
			<line x1="15.255471" y1="27.212259" x2="15.255471" y2="31.710342" id="line633" />
			<line x1="15.485351" y1="12.448275" x2="15.485351" y2="7.6850567" id="line519" />
			<line x1="15.608718" y1="1.9065125" x2="15.608718" y2="0" id="line423" />
			<line x1="15.608718" y1="46.63065" x2="15.608718" y2="50" id="line435" />
			<line x1="15.654693" y1="2.4973171" x2="15.654693" y2="6.9379287" id="line965" />
			<line x1="15.654693" y1="23.462069" x2="15.654693" y2="26.77088" id="line1175" />
			<line x1="15.654693" y1="41.72337" x2="15.654693" y2="37.754787" id="line219" />
			<line x1="15.968094" y1="12.448275" x2="15.968094" y2="7.570879" id="line521" />
			<line x1="15.968094" y1="27.212259" x2="15.968094" y2="31.82452" id="line635" />
			<line x1="16.151997" y1="23.022987" x2="16.151997" y2="17.598467" id="line475" />
			<line x1="16.267702" y1="13.333331" x2="16.267702" y2="17.072029" id="line873" />
			<line x1="16.267702" y1="37.157852" x2="16.267702" y2="32.709576" id="line1081" />
			<line x1="16.309078" y1="37.639847" x2="16.309078" y2="41.72337" id="line221" />
			<line x1="16.493748" y1="2.3088095" x2="16.493748" y2="0" id="line369" />
			<line x1="16.493748" y1="47.148659" x2="16.493748" y2="50" id="line433" />
			<line x1="16.55505" y1="12.237546" x2="16.55505" y2="7.5325651" id="line529" />
			<line x1="16.55505" y1="27.173944" x2="16.55505" y2="31.614557" id="line641" />
			<line x1="16.608686" y1="42.079693" x2="16.608686" y2="46.612259" id="line767" />
			<line x1="16.896034" y1="37.601532" x2="16.896034" y2="41.512642" id="line229" />
			<line x1="17.033962" y1="2.353256" x2="17.033962" y2="6.8804598" id="line971" />
			<line x1="17.033962" y1="26.786972" x2="17.033962" y2="23.312643" id="line1179" />
			<line x1="17.244682" y1="12.965515" x2="17.244682" y2="17.072029" id="line871" />
			<line x1="17.244682" y1="32.342529" x2="17.244682" y2="37.186207" id="line1075" />
			<line x1="17.585669" y1="41.712643" x2="17.585669" y2="46.612259" id="line765" />
			<line x1="17.933552" y1="12.945592" x2="17.933552" y2="7.4781599" id="line527" />
			<line x1="17.933552" y1="27.383905" x2="17.933552" y2="31.82452" id="line639" />
			<line x1="18.010942" y1="2.7739453" x2="18.010942" y2="6.6160908" id="line967" />
			<line x1="18.010942" y1="22.944824" x2="18.010942" y2="26.521839" id="line1177" />
			<line x1="18.275303" y1="41.684288" x2="18.275303" y2="37.813026" id="line225" />
			<line x1="18.566483" y1="17.828352" x2="18.566483" y2="22.608427" id="line507" />
			<line x1="18.681421" y1="12.460534" x2="18.681421" y2="7.3057442" id="line613" />
			<line x1="18.681421" y1="27.212259" x2="18.681421" y2="31.836781" id="line717" />
			<line x1="18.907467" y1="2.3984652" x2="18.907467" y2="0" id="line399" />
			<line x1="18.907467" y1="47.367813" x2="18.907467" y2="50" id="line207" />
			<line x1="19.022406" y1="37.639847" x2="19.022406" y2="41.206127" id="line309" />
			<line x1="19.025471" y1="16.979307" x2="19.025471" y2="13.505747" id="line887" />
			<line x1="19.025471" y1="32.353256" x2="19.025471" y2="37.150192" id="line1093" />
			<line x1="19.367224" y1="41.98774" x2="19.367224" y2="46.785439" id="line779" />
			<line x1="19.77334" y1="17.036779" x2="19.77334" y2="13.390803" id="line889" />
			<line x1="19.77334" y1="17.828352" x2="19.77334" y2="22.550955" id="line453" />
			<line x1="19.77334" y1="37.207661" x2="19.77334" y2="32.238312" id="line1095" />
			<line x1="19.792498" y1="26.694252" x2="19.792498" y2="22.955553" id="line1197" />
			<line x1="19.792498" y1="3.049042" x2="19.792498" y2="6.7877378" id="line983" />
			<line x1="19.887514" y1="12.667432" x2="19.887514" y2="7.2482753" id="line605" />
			<line x1="19.887514" y1="31.970879" x2="19.887514" y2="27.154022" id="line705" />
			<line x1="2.1102803" y1="2.3800757" x2="2.1102803" y2="7.3034468" id="line1031" />
			<line x1="2.1102803" y1="27.209961" x2="2.1102803" y2="23.875093" id="line1247" />
			<line x1="2.1263716" y1="1.9639814" x2="2.1263716" y2="0" id="line329" />
			<line x1="2.1263716" y1="47.08046" x2="2.1263716" y2="50" id="line159" />
			<line x1="2.3187029" y1="43.020687" x2="2.3187029" y2="46.356319" id="line819" />
			<line x1="2.4167843" y1="23.529499" x2="2.4167843" y2="17.27586" id="line447" />
			<line x1="2.4941764" y1="12.700381" x2="2.4941764" y2="7.9946346" id="line543" />
			<line x1="2.4941764" y1="32.077393" x2="2.4941764" y2="27.63678" id="line645" />
			<line x1="2.7424448" y1="2.4957852" x2="2.7424448" y2="7.4183903" id="line1029" />
			<line x1="2.7424448" y1="27.322603" x2="2.7424448" y2="23.990038" id="line1245" />
			<line x1="2.7585363" y1="0" x2="2.7585363" y2="2.0084307" id="line333" />
			<line x1="2.7585363" y1="47.08046" x2="2.7585363" y2="50" id="line163" />
			<line x1="2.7999144" y1="16.344061" x2="2.7999144" y2="13.273561" id="line923" />
			<line x1="2.7999144" y1="32.915707" x2="2.7999144" y2="36.514942" id="line1127" />
			<line x1="2.8351624" y1="37.535633" x2="2.8351624" y2="42.241379" id="line241" />
			<line x1="2.9914794" y1="23.586971" x2="2.9914794" y2="17.21839" id="line449" />
			<line x1="20.114328" y1="2.3662815" x2="20.114328" y2="0" id="line343" />
			<line x1="20.114328" y1="41.872028" x2="20.114328" y2="46.842144" id="line781" />
			<line x1="20.114328" y1="47.367813" x2="20.114328" y2="50" id="line169" />
			<line x1="20.229267" y1="37.583141" x2="20.229267" y2="41.148659" id="line301" />
			<line x1="20.23233" y1="17.036779" x2="20.23233" y2="13.448275" id="line885" />
			<line x1="20.23233" y1="32.295784" x2="20.23233" y2="37.207661" id="line1091" />
			<line x1="20.405506" y1="17.942526" x2="20.405506" y2="22.608427" id="line455" />
			<line x1="20.519678" y1="12.60996" x2="20.519678" y2="7.3057442" id="line607" />
			<line x1="20.519678" y1="27.212259" x2="20.519678" y2="31.977777" id="line707" />
			<line x1="20.5396" y1="2.9340982" x2="20.5396" y2="6.8452096" id="line985" />
			<line x1="20.5396" y1="26.751722" x2="20.5396" y2="22.841377" id="line1199" />
			<line x1="20.574083" y1="41.930267" x2="20.574083" y2="46.842144" id="line777" />
			<line x1="20.74649" y1="2.4237533" x2="20.74649" y2="0" id="line345" />
			<line x1="20.74649" y1="47.483524" x2="20.74649" y2="50" id="line171" />
			<line x1="20.861429" y1="37.639847" x2="20.861429" y2="41.091953" id="line303" />
			<line x1="20.980202" y1="17.885822" x2="20.980202" y2="22.665899" id="line457" />
			<line x1="20.99859" y1="2.9915702" x2="20.99859" y2="6.8452096" id="line981" />
			<line x1="20.99859" y1="26.751722" x2="20.99859" y2="22.898849" id="line1195" />
			<line x1="21.094374" y1="12.60996" x2="21.094374" y2="7.3632164" id="line609" />
			<line x1="21.094374" y1="31.986971" x2="21.094374" y2="27.26973" id="line711" />
			<line x1="21.321186" y1="2.466665" x2="21.321186" y2="0" id="line349" />
			<line x1="21.321186" y1="47.426052" x2="21.321186" y2="50" id="line173" />
			<line x1="21.436125" y1="37.697315" x2="21.436125" y2="41.091953" id="line305" />
			<line x1="21.727304" y1="17.885822" x2="21.727304" y2="22.550955" id="line459" />
			<line x1="21.842243" y1="12.667432" x2="21.842243" y2="7.2482753" id="line611" />
			<line x1="21.842243" y1="16.819155" x2="21.842243" y2="13.380075" id="line861" />
			<line x1="21.842243" y1="27.154022" x2="21.842243" y2="32.00766" id="line715" />
			<line x1="21.842243" y1="32.491951" x2="21.842243" y2="36.990036" id="line1065" />
			<line x1="22.068291" y1="2.3662815" x2="22.068291" y2="0" id="line351" />
			<line x1="22.068291" y1="47.426052" x2="22.068291" y2="50" id="line175" />
			<line x1="22.183229" y1="37.583141" x2="22.183229" y2="41.148659" id="line307" />
			<line x1="22.183229" y1="41.862068" x2="22.183229" y2="46.624519" id="line755" />
			<line x1="22.608503" y1="2.9233704" x2="22.608503" y2="6.6275845" id="line957" />
			<line x1="22.608503" y1="26.534098" x2="22.608503" y2="22.829884" id="line1165" />
			<line x1="22.665974" y1="12.667432" x2="22.665974" y2="7.3877382" id="line587" />
			<line x1="22.665974" y1="32.039845" x2="22.665974" y2="27.293486" id="line683" />
			<line x1="23.007727" y1="38.251339" x2="23.007727" y2="41.148659" id="line283" />
			<line x1="23.048336" y1="13.322603" x2="23.048336" y2="16.819155" id="line853" />
			<line x1="23.048336" y1="32.699615" x2="23.048336" y2="36.990036" id="line1057" />
			<line x1="23.164042" y1="17.885822" x2="23.164042" y2="22.193867" id="line531" />
			<line x1="23.390087" y1="41.804596" x2="23.390087" y2="46.624519" id="line747" />
			<line x1="23.505028" y1="2.538697" x2="23.505028" y2="0" id="line411" />
			<line x1="23.505028" y1="47.426052" x2="23.505028" y2="50" id="line231" />
			<line x1="23.604643" y1="32.718773" x2="23.604643" y2="37.066666" id="line1059" />
			<line x1="23.696592" y1="13.341762" x2="23.696592" y2="16.839079" id="line855" />
			<line x1="23.815363" y1="2.8666644" x2="23.815363" y2="6.6275845" id="line949" />
			<line x1="23.815363" y1="26.534098" x2="23.815363" y2="22.773178" id="line1157" />
			<line x1="24.003098" y1="41.766281" x2="24.003098" y2="46.643677" id="line749" />
			<line x1="24.255198" y1="13.437547" x2="24.255198" y2="16.876627" id="line857" />
			<line x1="24.255198" y1="32.814556" x2="24.255198" y2="37.048275" id="line1061" />
			<line x1="24.409216" y1="12.783141" x2="24.409216" y2="7.2153258" id="line585" />
			<line x1="24.409216" y1="27.386206" x2="24.409216" y2="32.159386" id="line681" />
			<line x1="24.462852" y1="2.8858228" x2="24.462852" y2="6.6475086" id="line951" />
			<line x1="24.462852" y1="26.553253" x2="24.462852" y2="22.791571" id="line1159" />
			<line x1="24.596949" y1="41.918774" x2="24.596949" y2="46.681992" id="line751" />
			<line x1="24.7502" y1="38.078926" x2="24.7502" y2="41.264366" id="line281" />
			<line x1="24.980078" y1="26.668198" x2="24.980078" y2="22.849039" id="line1161" />
			<line x1="25.003067" y1="13.322603" x2="25.003067" y2="16.876627" id="line859" />
			<line x1="25.003067" y1="32.699615" x2="25.003067" y2="37.048275" id="line1063" />
			<line x1="25.021456" y1="2.9816082" x2="25.021456" y2="6.6858225" id="line953" />
			<line x1="25.344053" y1="41.804596" x2="25.344053" y2="46.681992" id="line753" />
			<line x1="25.577763" y1="12.839844" x2="25.577763" y2="7.3295007" id="line581" />
			<line x1="25.577763" y1="17.65517" x2="25.577763" y2="22.308811" id="line533" />
			<line x1="25.577763" y1="27.501148" x2="25.577763" y2="32.216858" id="line677" />
			<line x1="25.769327" y1="26.59157" x2="25.769327" y2="22.773178" id="line1163" />
			<line x1="25.769327" y1="6.6858225" x2="25.769327" y2="2.8666644" id="line955" />
			<line x1="25.918749" y1="2.6536376" x2="25.918749" y2="0" id="line413" />
			<line x1="25.918749" y1="38.193867" x2="25.918749" y2="41.321838" id="line277" />
			<line x1="25.918749" y1="47.196167" x2="25.918749" y2="50" id="line233" />
			<line x1="26.439806" y1="13.23065" x2="26.439806" y2="16.613028" id="line863" />
			<line x1="26.439806" y1="33.401531" x2="26.439806" y2="36.783142" id="line1067" />
			<line x1="26.78079" y1="41.976242" x2="26.78079" y2="46.416855" id="line757" />
			<line x1="26.783854" y1="17.598467" x2="26.783854" y2="22.251339" id="line509" />
			<line x1="27.125607" y1="2.5961659" x2="27.125607" y2="0" id="line403" />
			<line x1="27.125607" y1="47.138695" x2="27.125607" y2="50" id="line209" />
			<line x1="27.186909" y1="13.058238" x2="27.186909" y2="16.888885" id="line939" />
			<line x1="27.186909" y1="33.228352" x2="27.186909" y2="37.059769" id="line1147" />
			<line x1="27.206066" y1="22.944824" x2="27.206066" y2="26.326435" id="line1167" />
			<line x1="27.206066" y1="6.4206877" x2="27.206066" y2="3.0390799" id="line959" />
			<line x1="27.416019" y1="17.540995" x2="27.416019" y2="22.308811" id="line511" />
			<line x1="27.527893" y1="46.606129" x2="27.527893" y2="41.804596" id="line837" />
			<line x1="27.74168" y1="12.518006" x2="27.74168" y2="7.0773945" id="line583" />
			<line x1="27.74168" y1="27.247509" x2="27.74168" y2="31.894251" id="line679" />
			<line x1="27.757771" y1="2.6536376" x2="27.757771" y2="0" id="line405" />
			<line x1="27.757771" y1="47.08046" x2="27.757771" y2="50" id="line211" />
			<line x1="27.953169" y1="22.773178" x2="27.953169" y2="26.60383" id="line1257" />
			<line x1="27.953169" y1="6.6704965" x2="27.953169" y2="2.8666644" id="line1045" />
			<line x1="27.990715" y1="17.540995" x2="27.990715" y2="22.366283" id="line513" />
			<line x1="28.0842" y1="37.676628" x2="28.0842" y2="41.264366" id="line279" />
			<line x1="28.332466" y1="2.7111096" x2="28.332466" y2="0" id="line407" />
			<line x1="28.332466" y1="47.08046" x2="28.332466" y2="50" id="line213" />
			<line x1="28.393768" y1="13.000766" x2="28.393768" y2="16.831417" id="line931" />
			<line x1="28.393768" y1="33.171646" x2="28.393768" y2="37.002296" id="line1139" />
			<line x1="28.734753" y1="46.590805" x2="28.734753" y2="41.746357" id="line825" />
			<line x1="28.738586" y1="17.598467" x2="28.738586" y2="22.251339" id="line515" />
			<line x1="28.852757" y1="27.501148" x2="28.852757" y2="31.894251" id="line695" />
			<line x1="28.852757" y1="7.3295007" x2="28.852757" y2="12.518006" id="line597" />
			<line x1="29.025932" y1="13.322603" x2="29.025932" y2="16.774712" id="line933" />
			<line x1="29.025932" y1="33.493484" x2="29.025932" y2="36.945591" id="line1141" />
			<line x1="29.079571" y1="2.5961659" x2="29.079571" y2="0" id="line409" />
			<line x1="29.079571" y1="47.138695" x2="29.079571" y2="50" id="line215" />
			<line x1="29.160028" y1="22.714941" x2="29.160028" y2="26.546358" id="line1251" />
			<line x1="29.160028" y1="6.6398444" x2="29.160028" y2="2.8091955" id="line1035" />
			<line x1="29.194508" y1="37.928734" x2="29.194508" y2="41.264366" id="line293" />
			<line x1="29.366919" y1="42.068966" x2="29.366919" y2="46.579308" id="line829" />
			<line x1="29.485687" y1="12.632181" x2="29.485687" y2="7.1800756" id="line595" />
			<line x1="29.485687" y1="27.350956" x2="29.485687" y2="32.009193" id="line693" />
			<line x1="29.562313" y1="17.598467" x2="29.562313" y2="22.078926" id="line485" />
			<line x1="29.600628" y1="13.380075" x2="29.600628" y2="16.774712" id="line935" />
			<line x1="29.600628" y1="33.022221" x2="29.600628" y2="36.945591" id="line1143" />
			<line x1="29.792192" y1="6.843678" x2="29.792192" y2="3.1310332" id="line1039" />
			<line x1="29.826674" y1="38.043678" x2="29.826674" y2="41.379307" id="line291" />
			<line x1="29.904068" y1="2.4237533" x2="29.904068" y2="0" id="line379" />
			<line x1="29.904068" y1="47.138695" x2="29.904068" y2="50" id="line191" />
			<line x1="29.941614" y1="42.126434" x2="29.941614" y2="46.579308" id="line831" />
			<line x1="3.1424327" y1="43.078926" x2="3.1424327" y2="46.413025" id="line817" />
			<line x1="3.3332314" y1="2.017621" x2="3.3332314" y2="0" id="line339" />
			<line x1="3.3332314" y1="47.022987" x2="3.3332314" y2="50" id="line165" />
			<line x1="3.4520016" y1="16.931032" x2="3.4520016" y2="12.990038" id="line921" />
			<line x1="3.4520016" y1="32.631416" x2="3.4520016" y2="36.308044" id="line1125" />
			<line x1="3.5661745" y1="27.340229" x2="3.5661745" y2="24.04751" id="line1241" />
			<line x1="3.5661745" y1="7.4758592" x2="3.5661745" y2="2.5532541" id="line1027" />
			<line x1="3.7393491" y1="23.472029" x2="3.7393491" y2="17.21839" id="line451" />
			<line x1="3.7929873" y1="42.795403" x2="3.7929873" y2="46.206894" id="line815" />
			<line x1="30.309418" y1="27.409195" x2="30.309418" y2="32.067432" id="line691" />
			<line x1="30.347731" y1="13.265132" x2="30.347731" y2="16.831417" id="line937" />
			<line x1="30.347731" y1="32.906513" x2="30.347731" y2="37.002296" id="line1145" />
			<line x1="30.366888" y1="26.753256" x2="30.366888" y2="23.095018" id="line1253" />
			<line x1="30.366888" y1="6.8467412" x2="30.366888" y2="3.1885049" id="line1041" />
			<line x1="30.650404" y1="38.101913" x2="30.650404" y2="41.436012" id="line289" />
			<line x1="30.688717" y1="42.011494" x2="30.688717" y2="46.63678" id="line833" />
			<line x1="30.959972" y1="12.74789" x2="30.959972" y2="7.218389" id="line593" />
			<line x1="31.113991" y1="22.980076" x2="31.113991" y2="26.810726" id="line1255" />
			<line x1="31.113991" y1="6.9049788" x2="31.113991" y2="3.0735614" id="line1043" />
			<line x1="31.171461" y1="13.404597" x2="31.171461" y2="16.831417" id="line899" />
			<line x1="31.171461" y1="33.045975" x2="31.171461" y2="37.002296" id="line1103" />
			<line x1="31.305555" y1="17.712643" x2="31.305555" y2="21.906511" id="line483" />
			<line x1="31.512445" y1="42.150955" x2="31.512445" y2="46.63678" id="line791" />
			<line x1="31.630449" y1="32.124138" x2="31.630449" y2="27.37088" id="line689" />
			<line x1="31.630449" y1="7.1992311" x2="31.630449" y2="12.74789" id="line591" />
			<line x1="31.646542" y1="2.2513406" x2="31.646542" y2="0" id="line377" />
			<line x1="31.646542" y1="47.252872" x2="31.646542" y2="50" id="line189" />
			<line x1="31.937721" y1="23.118773" x2="31.937721" y2="26.810726" id="line1207" />
			<line x1="31.937721" y1="6.9049788" x2="31.937721" y2="3.2122586" id="line995" />
			<line x1="31.9722" y1="38.063599" x2="31.9722" y2="41.493484" id="line287" />
			<line x1="32.243458" y1="12.805363" x2="32.243458" y2="7.1800756" id="line589" />
			<line x1="32.243458" y1="32.181606" x2="32.243458" y2="27.350956" id="line687" />
			<line x1="32.474102" y1="17.770113" x2="32.474102" y2="22.021456" id="line477" />
			<line x1="32.585209" y1="38.043678" x2="32.585209" y2="41.551723" id="line285" />
			<line x1="32.81509" y1="2.3662815" x2="32.81509" y2="0" id="line371" />
			<line x1="32.81509" y1="47.310345" x2="32.81509" y2="50" id="line183" />
			<line x1="32.913937" y1="16.90881" x2="32.913937" y2="12.967816" id="line897" />
			<line x1="32.913937" y1="33.137928" x2="32.913937" y2="37.117241" id="line1101" />
			<line x1="32.933857" y1="32.239079" x2="32.933857" y2="27.523371" id="line701" />
			<line x1="32.933857" y1="7.3532543" x2="32.933857" y2="12.862068" id="line603" />
			<line x1="33.256454" y1="46.751724" x2="33.256454" y2="41.978542" id="line789" />
			<line x1="33.274845" y1="38.216091" x2="33.274845" y2="41.609192" id="line299" />
			<line x1="33.680195" y1="2.3616834" x2="33.680195" y2="6.7547879" id="line993" />
			<line x1="33.680195" y1="23.211494" x2="33.680195" y2="26.661303" id="line1205" />
			<line x1="33.967541" y1="31.50268" x2="33.967541" y2="27.616091" id="line697" />
			<line x1="33.967541" y1="7.4452105" x2="33.967541" y2="12.655937" id="line599" />
			<line x1="34.083248" y1="13.081991" x2="34.083248" y2="16.474327" id="line891" />
			<line x1="34.083248" y1="33.252872" x2="34.083248" y2="36.64521" id="line1097" />
			<line x1="34.309296" y1="37.514175" x2="34.309296" y2="41.666664" id="line295" />
			<line x1="34.424232" y1="46.762451" x2="34.424232" y2="42.093483" id="line785" />
			<line x1="34.63802" y1="22.298849" x2="34.63802" y2="17.712643" id="line479" />
			<line x1="34.84951" y1="2.3616834" x2="34.84951" y2="6.8122597" id="line987" />
			<line x1="34.84951" y1="23.325668" x2="34.84951" y2="26.718773" id="line1201" />
			<line x1="34.980541" y1="1.8490435" x2="34.980541" y2="0" id="line373" />
			<line x1="34.980541" y1="47.252872" x2="34.980541" y2="50" id="line185" />
			<line x1="35.328423" y1="31.50268" x2="35.328423" y2="27.635248" id="line699" />
			<line x1="35.328423" y1="7.4643655" x2="35.328423" y2="12.655937" id="line601" />
			<line x1="35.404282" y1="22.164749" x2="35.404282" y2="17.578543" id="line481" />
			<line x1="35.669407" y1="37.533333" x2="35.669407" y2="41.666664" id="line297" />
			<line x1="35.746033" y1="1.7149416" x2="35.746033" y2="0" id="line375" />
			<line x1="35.746033" y1="47.118771" x2="35.746033" y2="50" id="line187" />
			<line x1="36.014225" y1="22.527967" x2="36.014225" y2="17.447508" id="line497" />
			<line x1="36.247932" y1="13.35862" x2="36.247932" y2="16.417624" id="line893" />
			<line x1="36.247932" y1="32.471264" x2="36.247932" y2="36.588505" id="line1099" />
			<line x1="36.355976" y1="2.0084307" x2="36.355976" y2="0" id="line389" />
			<line x1="36.355976" y1="46.98774" x2="36.355976" y2="50" id="line199" />
			<line x1="36.503864" y1="22.470495" x2="36.503864" y2="17.850573" id="line495" />
			<line x1="36.588921" y1="42.370113" x2="36.588921" y2="46.751724" id="line787" />
			<line x1="37.014194" y1="23.338696" x2="37.014194" y2="26.396168" id="line1203" />
			<line x1="37.014194" y1="7.0199227" x2="37.014194" y2="2.373946" id="line989" />
			<line x1="37.018024" y1="1.7915688" x2="37.018024" y2="0" id="line385" />
			<line x1="37.018024" y1="47.160919" x2="37.018024" y2="50" id="line197" />
			<line x1="37.062469" y1="22.221453" x2="37.062469" y2="17.677395" id="line493" />
			<line x1="37.263229" y1="12.862068" x2="37.263229" y2="7.3724122" id="line621" />
			<line x1="37.263229" y1="31.710342" x2="37.263229" y2="27.542528" id="line727" />
			<line x1="37.359013" y1="13.081991" x2="37.359013" y2="16.417624" id="line909" />
			<line x1="37.359013" y1="32.459003" x2="37.359013" y2="36.588505" id="line1113" />
			<line x1="37.604214" y1="41.609192" x2="37.604214" y2="37.441376" id="line317" />
			<line x1="37.698463" y1="22.432182" x2="37.698463" y2="17.908045" id="line491" />
			<line x1="37.699997" y1="42.093483" x2="37.699997" y2="46.751724" id="line801" />
			<line x1="37.810337" y1="1.7532581" x2="37.810337" y2="0" id="line383" />
			<line x1="37.810337" y1="47.218388" x2="37.810337" y2="50" id="line195" />
			<line x1="37.876236" y1="31.652105" x2="37.876236" y2="27.523371" id="line725" />
			<line x1="37.876236" y1="7.3532543" x2="37.876236" y2="12.805363" id="line619" />
			<line x1="38.125271" y1="23.062067" x2="38.125271" y2="26.396168" id="line1217" />
			<line x1="38.125271" y1="7.0199227" x2="38.125271" y2="2.0965517" id="line1007" />
			<line x1="38.21722" y1="41.551723" x2="38.21722" y2="37.422222" id="line315" />
			<line x1="38.785023" y1="13.197701" x2="38.785023" y2="16.531799" id="line907" />
			<line x1="38.785023" y1="32.574711" x2="38.785023" y2="36.702682" id="line1111" />
			<line x1="38.79575" y1="27.56245" x2="38.79575" y2="31.919538" id="line719" />
			<line x1="38.79575" y1="7.3908019" x2="38.79575" y2="12.689653" id="line615" />
			<line x1="39.126774" y1="42.208427" x2="39.126774" y2="46.866665" id="line799" />
			<line x1="39.136734" y1="41.436012" x2="39.136734" y2="37.460533" id="line311" />
			<line x1="39.139797" y1="17.734863" x2="39.139797" y2="22.951723" id="line489" />
			<line x1="39.344391" y1="13.255173" x2="39.344391" y2="16.32567" id="line905" />
			<line x1="39.344391" y1="32.631416" x2="39.344391" y2="36.495785" id="line1109" />
			<line x1="39.481548" y1="1.7340999" x2="39.481548" y2="0" id="line381" />
			<line x1="39.481548" y1="47.275093" x2="39.481548" y2="50" id="line193" />
			<line x1="39.493813" y1="23.188503" x2="39.493813" y2="26.523371" id="line1215" />
			<line x1="39.550514" y1="7.0881224" x2="39.550514" y2="2.2114923" id="line1003" />
			<line x1="39.685375" y1="42.2659" x2="39.685375" y2="46.659767" id="line797" />
			<line x1="39.8302" y1="17.7931" x2="39.8302" y2="22.997698" id="line503" />
			<line x1="39.995712" y1="13.235249" x2="39.995712" y2="16.382374" id="line903" />
			<line x1="39.995712" y1="32.612259" x2="39.995712" y2="36.553253" id="line1107" />
			<line x1="4.0803351" y1="1.9639814" x2="4.0803351" y2="0" id="line341" />
			<line x1="4.0803351" y1="47.022987" x2="4.0803351" y2="50" id="line167" />
			<line x1="4.1217132" y1="16.931032" x2="4.1217132" y2="12.97088" id="line919" />
			<line x1="4.1217132" y1="32.612259" x2="4.1217132" y2="36.308044" id="line1123" />
			<line x1="4.2182617" y1="23.799997" x2="4.2182617" y2="27.175478" id="line1235" />
			<line x1="4.2182617" y1="7.2689652" x2="4.2182617" y2="2.2689643" id="line1025" />
			<line x1="4.3707471" y1="12.700381" x2="4.3707471" y2="7.9946346" id="line551" />
			<line x1="4.3707471" y1="27.63678" x2="4.3707471" y2="32.077393" id="line653" />
			<line x1="4.4634647" y1="42.775478" x2="4.4634647" y2="46.206894" id="line813" />
			<line x1="4.7124996" y1="37.535633" x2="4.7124996" y2="42.241379" id="line247" />
			<line x1="4.7354875" y1="16.988504" x2="4.7354875" y2="12.951721" id="line917" />
			<line x1="4.7354875" y1="32.593102" x2="4.7354875" y2="36.36475" id="line1121" />
			<line x1="4.8887391" y1="27.175478" x2="4.8887391" y2="23.820688" id="line1233" />
			<line x1="4.8887391" y1="7.2689652" x2="4.8887391" y2="2.2498059" id="line1023" />
			<line x1="4.9423771" y1="27.809195" x2="4.9423771" y2="32.077393" id="line651" />
			<line x1="40.109882" y1="6.9272008" x2="40.109882" y2="2.2689643" id="line1001" />
			<line x1="40.167351" y1="23.36092" x2="40.167351" y2="26.431417" id="line1213" />
			<line x1="40.171185" y1="1.9049808" x2="40.171185" y2="0" id="line397" />
			<line x1="40.171185" y1="47.332565" x2="40.171185" y2="50" id="line205" />
			<line x1="40.289188" y1="27.580841" x2="40.289188" y2="31.951723" id="line723" />
			<line x1="40.289188" y1="7.4107261" x2="40.289188" y2="12.574713" id="line617" />
			<line x1="40.336697" y1="42.246742" x2="40.336697" y2="46.716473" id="line795" />
			<line x1="40.519833" y1="33.08046" x2="40.519833" y2="36.323372" id="line1105" />
			<line x1="40.630939" y1="13.331034" x2="40.630939" y2="16.497316" id="line901" />
			<line x1="40.630939" y1="41.321838" x2="40.630939" y2="37.479694" id="line313" />
			<line x1="40.761971" y1="23.479692" x2="40.761971" y2="26.626051" id="line1211" />
			<line x1="40.761971" y1="6.9846725" x2="40.761971" y2="2.2498059" id="line999" />
			<line x1="40.803349" y1="42.2659" x2="40.803349" y2="46.831417" id="line793" />
			<line x1="40.863884" y1="22.977009" x2="40.863884" y2="17.850573" id="line499" />
			<line x1="41.174988" y1="13.369348" x2="41.174988" y2="16.497316" id="line915" />
			<line x1="41.174988" y1="33.010727" x2="41.174988" y2="36.667431" id="line1119" />
			<line x1="41.205635" y1="1.7340999" x2="41.205635" y2="0" id="line391" />
			<line x1="41.205635" y1="47.390804" x2="41.205635" y2="50" id="line201" />
			<line x1="41.286095" y1="6.9846725" x2="41.286095" y2="2.1532547" id="line997" />
			<line x1="41.397968" y1="23.518005" x2="41.397968" y2="26.683523" id="line1209" />
			<line x1="41.400265" y1="27.542528" x2="41.400265" y2="32.239079" id="line735" />
			<line x1="41.400265" y1="7.3724122" x2="41.400265" y2="12.862068" id="line629" />
			<line x1="41.515972" y1="42.38084" x2="41.515972" y2="46.831417" id="line807" />
			<line x1="41.742016" y1="41.609192" x2="41.742016" y2="37.441376" id="line325" />
			<line x1="41.941246" y1="23.613026" x2="41.941246" y2="26.740995" id="line1223" />
			<line x1="41.941246" y1="7.0881224" x2="41.941246" y2="2.383908" id="line1017" />
			<line x1="42.013275" y1="27.523371" x2="42.013275" y2="32.181606" id="line733" />
			<line x1="42.013275" y1="7.3532543" x2="42.013275" y2="12.805363" id="line627" />
			<line x1="42.224762" y1="22.996933" x2="42.224762" y2="17.850573" id="line501" />
			<line x1="42.355026" y1="41.551723" x2="42.355026" y2="37.422222" id="line323" />
			<line x1="42.473797" y1="13.197701" x2="42.473797" y2="16.554789" id="line911" />
			<line x1="42.473797" y1="32.838314" x2="42.473797" y2="36.72567" id="line1115" />
			<line x1="42.565746" y1="1.7532581" x2="42.565746" y2="0" id="line393" />
			<line x1="42.565746" y1="47.390804" x2="42.565746" y2="50" id="line203" />
			<line x1="42.814781" y1="42.208427" x2="42.814781" y2="46.888885" id="line803" />
			<line x1="42.932785" y1="27.56245" x2="42.932785" y2="32.331799" id="line729" />
			<line x1="42.932785" y1="7.3908019" x2="42.932785" y2="12.689653" id="line623" />
			<line x1="43.240059" y1="23.704979" x2="43.240059" y2="27.063601" id="line1219" />
			<line x1="43.240059" y1="7.1386957" x2="43.240059" y2="2.2114923" id="line1009" />
			<line x1="43.274536" y1="41.436012" x2="43.274536" y2="37.460533" id="line319" />
			<line x1="43.833141" y1="13.21609" x2="43.833141" y2="16.554789" id="line913" />
			<line x1="43.833141" y1="32.858238" x2="43.833141" y2="36.72567" id="line1117" />
			<line x1="44.159569" y1="23.168579" x2="44.159569" y2="17.528736" id="line737" />
			<line x1="44.174892" y1="42.226818" x2="44.174892" y2="46.888885" id="line805" />
			<line x1="44.427761" y1="12.574713" x2="44.427761" y2="7.4107261" id="line625" />
			<line x1="44.427761" y1="27.580841" x2="44.427761" y2="32.216858" id="line731" />
			<line x1="44.500557" y1="1.9065125" x2="44.500557" y2="0" id="line439" />
			<line x1="44.500557" y1="47.597698" x2="44.500557" y2="50" id="line327" />
			<line x1="44.5994" y1="23.724903" x2="44.5994" y2="27.063601" id="line1221" />
			<line x1="44.5994" y1="7.1570883" x2="44.5994" y2="2.2306507" id="line1013" />
			<line x1="44.768745" y1="41.321838" x2="44.768745" y2="37.479694" id="line321" />
			<line x1="44.772575" y1="23.15019" x2="44.772575" y2="17.471264" id="line579" />
			<line x1="45.113564" y1="1.9065125" x2="45.113564" y2="0" id="line437" />
			<line x1="45.113564" y1="47.54023" x2="45.113564" y2="50" id="line275" />
			<line x1="45.692089" y1="23.188503" x2="45.692089" y2="17.355555" id="line535" />
			<line x1="45.768715" y1="13.124137" x2="45.768715" y2="16.497316" id="line947" />
			<line x1="45.768715" y1="32.765514" x2="45.768715" y2="36.667431" id="line1155" />
			<line x1="46.033077" y1="1.9226015" x2="46.033077" y2="0" id="line415" />
			<line x1="46.033077" y1="47.426052" x2="46.033077" y2="50" id="line235" />
			<line x1="46.109699" y1="42.134865" x2="46.109699" y2="46.831417" id="line851" />
			<line x1="46.13192" y1="12.946358" x2="46.13192" y2="7.7310319" id="line571" />
			<line x1="46.13192" y1="27.901148" x2="46.13192" y2="32.077393" id="line669" />
			<line x1="46.380955" y1="13.104213" x2="46.380955" y2="16.439846" id="line945" />
			<line x1="46.380955" y1="32.746361" x2="46.380955" y2="36.610725" id="line1153" />
			<line x1="46.474442" y1="41.976242" x2="46.474442" y2="37.271263" id="line265" />
			<line x1="46.534973" y1="23.684288" x2="46.534973" y2="27.006128" id="line1273" />
			<line x1="46.534973" y1="7.0996161" x2="46.534973" y2="2.1386974" id="line1055" />
			<line x1="46.646084" y1="27.613792" x2="46.646084" y2="31.618389" id="line667" />
			<line x1="46.703552" y1="7.7310319" x2="46.703552" y2="12.792337" id="line567" />
			<line x1="46.72271" y1="42.130268" x2="46.72271" y2="46.773945" id="line847" />
			<line x1="46.896648" y1="41.976242" x2="46.896648" y2="37.271263" id="line261" />
			<line x1="47.147217" y1="23.763216" x2="47.147217" y2="26.948658" id="line1267" />
			<line x1="47.147217" y1="7.0421443" x2="47.147217" y2="2.1187732" id="line1053" />
			<line x1="47.185528" y1="23.736397" x2="47.185528" y2="17.241379" id="line537" />
			<line x1="47.301235" y1="13.142527" x2="47.301235" y2="16.32567" id="line941" />
			<line x1="47.301235" y1="32.520306" x2="47.301235" y2="36.495785" id="line1149" />
			<line x1="47.324223" y1="27.383905" x2="47.324223" y2="32.019924" id="line665" />
			<line x1="47.324223" y1="7.354023" x2="47.324223" y2="12.908044" id="line563" />
			<line x1="47.435333" y1="41.861301" x2="47.435333" y2="37.125671" id="line263" />
			<line x1="47.527279" y1="1.9440572" x2="47.527279" y2="0" id="line421" />
			<line x1="47.527279" y1="47.310345" x2="47.527279" y2="50" id="line237" />
			<line x1="47.64222" y1="42.19157" x2="47.64222" y2="46.659767" id="line841" />
			<line x1="48.009254" y1="23.168579" x2="48.009254" y2="17.528736" id="line743" />
			<line x1="48.04451" y1="41.957088" x2="48.04451" y2="37.424519" id="line271" />
			<line x1="48.067493" y1="2.157084" x2="48.067493" y2="6.9272008" id="line1049" />
			<line x1="48.067493" y1="23.832182" x2="48.067493" y2="26.834482" id="line1259" />
			<line x1="48.220745" y1="27.978542" x2="48.220745" y2="31.981607" id="line673" />
			<line x1="48.220745" y1="7.8068962" x2="48.220745" y2="12.86973" id="line575" />
			<line x1="48.561729" y1="41.880459" x2="48.561729" y2="37.347126" id="line269" />
			<line x1="48.622265" y1="23.15019" x2="48.622265" y2="17.471264" id="line741" />
			<line x1="48.795441" y1="13.162451" x2="48.795441" y2="17.00383" id="line943" />
			<line x1="48.795441" y1="32.539463" x2="48.795441" y2="36.380074" id="line1151" />
			<line x1="48.814598" y1="12.639846" x2="48.814598" y2="7.5777774" id="line573" />
			<line x1="48.814598" y1="31.750956" x2="48.814598" y2="27.748657" id="line671" />
			<line x1="49.136425" y1="42.242146" x2="49.136425" y2="46.54406" id="line845" />
			<line x1="49.156349" y1="41.650574" x2="49.156349" y2="37.117241" id="line267" />
			<line x1="49.541775" y1="23.188503" x2="49.541775" y2="17.355555" id="line739" />
			<line x1="49.561699" y1="2.1770082" x2="49.561699" y2="6.8122597" id="line1051" />
			<line x1="49.561699" y1="23.841379" x2="49.561699" y2="26.718773" id="line1265" />
			<line x1="5.015172" y1="23.494253" x2="5.015172" y2="17.390038" id="line745" />
			<line x1="5.0596156" y1="12.700381" x2="5.0596156" y2="7.9946346" id="line545" />
			<line x1="5.0764728" y1="42.756321" x2="5.0764728" y2="46.264366" id="line811" />
			<line x1="5.3415985" y1="37.248276" x2="5.3415985" y2="41.780842" id="line245" />
			<line x1="5.4251213" y1="17.045977" x2="5.4251213" y2="13.124137" id="line929" />
			<line x1="5.4251213" y1="32.765514" x2="5.4251213" y2="36.422222" id="line1137" />
			<line x1="5.5017476" y1="27.232182" x2="5.5017476" y2="23.844442" id="line1227" />
			<line x1="5.5017476" y1="7.3256683" x2="5.5017476" y2="2.2306507" id="line1021" />
			<line x1="5.5630484" y1="32.505745" x2="5.5630484" y2="27.64904" id="line649" />
			<line x1="5.5630484" y1="7.673563" x2="5.5630484" y2="12.643678" id="line549" />
			<line x1="5.7668734" y1="42.928734" x2="5.7668734" y2="46.321072" id="line823" />
			<line x1="5.8465643" y1="37.017624" x2="5.8465643" y2="42.183907" id="line243" />
			<line x1="5.8618898" y1="2.0628362" x2="5.8618898" y2="0" id="line355" />
			<line x1="5.8618898" y1="47.022987" x2="5.8618898" y2="50" id="line177" />
			<line x1="6.0503893" y1="23.321836" x2="6.0503893" y2="17.21839" id="line461" />
			<line x1="6.1906152" y1="2.4030633" x2="6.1906152" y2="7.3839064" id="line1033" />
			<line x1="6.1906152" y1="23.897316" x2="6.1906152" y2="27.289654" id="line1249" />
			<line x1="6.4557409" y1="37.497314" x2="6.4557409" y2="42.030651" id="line259" />
			<line x1="6.4595723" y1="12.604595" x2="6.4595723" y2="8.0720282" id="line561" />
			<line x1="6.4595723" y1="27.713408" x2="6.4595723" y2="32.511875" id="line663" />
			<line x1="6.8227797" y1="17.036779" x2="6.8227797" y2="12.8613" id="line875" />
			<line x1="6.8227797" y1="33.032181" x2="6.8227797" y2="36.413792" id="line1083" />
			<line x1="7.0526581" y1="12.374711" x2="7.0526581" y2="7.8421435" id="line559" />
			<line x1="7.0526581" y1="27.483524" x2="7.0526581" y2="32.281223" id="line661" />
			<line x1="7.1652975" y1="37.382374" x2="7.1652975" y2="41.91494" id="line257" />
			<line x1="7.1652975" y1="42.931034" x2="7.1652975" y2="46.312641" id="line769" />
			<line x1="7.2603145" y1="2.0789251" x2="7.2603145" y2="0" id="line357" />
			<line x1="7.2603145" y1="46.965515" x2="7.2603145" y2="50" id="line179" />
			<line x1="7.4488139" y1="23.321836" x2="7.4488139" y2="17.160151" id="line463" />
			<line x1="7.5890398" y1="2.4053638" x2="7.5890398" y2="7.3747101" id="line973" />
			<line x1="7.5890398" y1="27.281225" x2="7.5890398" y2="23.913406" id="line1181" />
			<line x1="8.2020483" y1="16.96245" x2="8.2020483" y2="12.976244" id="line879" />
			<line x1="8.2020483" y1="32.882759" x2="8.2020483" y2="36.621456" id="line1087" />
			<line x1="8.5445662" y1="43.045975" x2="8.5445662" y2="46.255169" id="line773" />
			<line x1="8.8342123" y1="12.604595" x2="8.8342123" y2="8.0720282" id="line557" />
			<line x1="8.8342123" y1="27.449041" x2="8.8342123" y2="31.981607" id="line659" />
			<line x1="8.9683084" y1="2.5203044" x2="8.9683084" y2="7.3172412" id="line977" />
			<line x1="8.9683084" y1="24.014557" x2="8.9683084" y2="27.223753" id="line1189" />
			<line x1="9.1376514" y1="2.0789251" x2="9.1376514" y2="0" id="line367" />
			<line x1="9.1376514" y1="46.965515" x2="9.1376514" y2="50" id="line181" />
			<line x1="9.1767302" y1="37.612259" x2="9.1767302" y2="42.144825" id="line255" />
			<line x1="9.1797962" y1="12.873563" x2="9.1797962" y2="16.714943" id="line877" />
			<line x1="9.1797962" y1="32.779308" x2="9.1797962" y2="36.621456" id="line1085" />
			<line x1="9.3253851" y1="23.321836" x2="9.3253851" y2="16.896551" id="line473" />
			<line x1="9.5207815" y1="42.678158" x2="9.5207815" y2="46.255169" id="line771" />
			<line x1="9.6004725" y1="32.859768" x2="9.6004725" y2="36.82835" id="line1069" />
			<line x1="9.8180904" y1="12.953256" x2="9.8180904" y2="16.657471" id="line865" />
			<line x1="9.9460564" y1="2.1532547" x2="9.9460564" y2="7.3172412" id="line975" />
			<line x1="9.9460564" y1="26.694252" x2="9.9460564" y2="23.911875" id="line1185" />
		</g>
	</g>
</svg>
