<?xml version="1.0" encoding="UTF-8" standalone="no"?>
<svg xmlns:dc="http://purl.org/dc/elements/1.1/" xmlns:cc="http://creativecommons.org/ns#" xmlns:rdf="http://www.w3.org/1999/02/22-rdf-syntax-ns#" xmlns:svg="http://www.w3.org/2000/svg" xmlns="http://www.w3.org/2000/svg" version="1.1" x="0px" y="0px" xml:space="preserve" width="50.00" height="50.00" viewBox="0 0 50.00 50.00">
	<metadata id="metadata2">
		<rdf:RDF>
			<ns:item rdf:ID="biblio1">
				<ns:link>rdf:resource=&quot;http://pubs.usgs.gov/tm/2006/11A02/</ns:link>
				<ns:title>U.S. Geological Survey, 2006, FGDC Digital Cartographic Standard for Geologic Map Symbolization (PostScript Implementation): U.S. Geological Survey Techniques and Methods 11-A2</ns:title>
			</ns:item>
			<ns:item rdf:ID="biblio2">
				<ns:link>https://davenquinn.com/projects/geologic-patterns/</ns:link>
				<ns:title>FGDC Geologic Patterns for the Web</ns:title>
			</ns:item>
			<rdf:Description>
				<dc:description>
					Converted from 'FGDC Geologic Patterns for the Web' to QGIS compatible svg symbols, with customisable fill colour/stroke colour/stroke width (when appropriate).
					SVG scaled to 50x50 pixels so that base outline-width is 0.387 px and width is 90 in the QGIS xml definition file. 
					Some of the original FGDC symbols have been omitted from this set because they can be generated from other symbols using the 'texture width' and/or 'stroke width' fields in QGIS symbology form.
				</dc:description>
				<dc:date>01 MARCH 2019</dc:date>
				<dc:creator>GeoProc.com</dc:creator>
				<dc:publisher rdf:resource="https://github.com/BC-Consulting/QGIS-FGDC-Fill" />
			</rdf:Description>
			<cc:Work rdf:about="">
				<dc:format>image/svg+xml</dc:format>
				<dc:type rdf:resource="http://purl.org/dc/dcmitype/StillImage" />
				<dc:title>FGDC fill symbol: Lithology - Metamorphism, Igneous and vein - 724 Igneous Rock 4th Option</dc:title>
			</cc:Work>
		</rdf:RDF>
	</metadata>
	<path style="fill:none;stroke:none;stroke-width:0;" id="rect1500" width="50.00" height="50.00" x="0.0" y="0.0" />
	<g style="fill:none;" stroke="param(outline) #000" stroke-width="param(outline-width) 0.6">
		<polyline id="polyline5" points="23.4225851999,9.9130436246 23.5982328657,11.1540374086 22.4096629718,10.7577641182" />
		<polyline id="polyline7" points="14.666890425,9.33291940326 15.296863502,10.4167703307 14.046227295,10.497515672" />
		<polyline id="polyline9" points="35.7539202668,14.0689442295 36.3838933437,15.152795157 35.1338777999,15.2335404983" />
		<polyline id="polyline11" points="9.67551753357,46.3801242277 10.3054906105,47.4639751552 9.0554750667,47.5447204965" />
		<polyline id="polyline13" points="42.8679610628,21.8714286711 43.4979341398,22.9552795986 42.247918596,23.0360249399" />
		<polyline id="polyline15" points="26.8356117518,38.5807453762 27.4655848288,39.6645963036 26.2149486218,39.7453416449" />
		<polyline id="polyline17" points="13.2312966053,2.21490700866 12.8415201597,1.02360266548 14.0809844303,1.20559024241" />
		<polyline id="polyline19" points="18.3207342713,5.56273308256 19.4087567382,6.18509332858 18.366663343,6.8819877358" />
		<polyline id="polyline21" points="34.0905430784,5.77204985193 35.1779448821,6.39441009795 34.13647215,7.09130450517" />
		<polyline id="polyline23" points="10.6102362073,22.6807454382 10.7579540323,23.9260870482 9.57869408529,23.5031056834" />
		<polyline id="polyline25" points="44.0329457578,13.9881988882 44.1812842459,15.2329193803 43.0014036358,14.8105591334" />
		<polyline id="polyline27" points="26.4371460223,45.964596279 26.5848638473,47.2099378891 25.4056039003,46.7869565243" />
		<polyline id="polyline29" points="38.9546800282,24.5993789711 39.1030185163,25.8447205811 37.9231379061,25.4217392163" />
		<polyline id="polyline31" points="39.4710717523,17.6732920415 39.6187895773,18.9180125336 38.4395296303,18.4956522868" />
		<polyline id="polyline33" points="30.2653962082,17.9223603635 30.4137346963,19.1677019736 29.2338540861,18.7447206088" />
		<polyline id="polyline35" points="2.33307270567,24.4378882885 1.18919055708,23.9260870482 2.15742503988,23.1298137594" />
		<polyline id="polyline37" points="9.67179355479,5.72981382725 8.94747968208,6.75217407171 8.35598771919,5.64720513192" />
		<polyline id="polyline39" points="19.5099248284,14.7124224879 18.2834944835,14.4540373957 19.0618060486,13.4708075859" />
		<polyline id="polyline41" points="22.4829012211,19.189441104 23.1712166323,18.1416150211 23.8011897092,19.2254659485" />
		<polyline id="polyline43" points="18.4305916453,29.2496895119 18.4659694438,30.5031056561 17.3289145896,29.9757764656" />
		<polyline id="polyline45" points="31.3596253064,0.7391306169 31.3950031048,1.99254676108 30.2585689138,1.4658386886" />
		<polyline id="polyline47" points="42.9970589939,46.8571428594 43.0324367923,48.1105590036 41.8960026013,47.5838509311" />
		<polyline id="polyline49" points="10.2328730243,15.0136647227 11.262553157,14.2987578932 11.4425454647,15.5391305592" />
		<polyline id="polyline51" points="5.67224034507,18.0813665741 6.72364368729,18.7627330311 5.64493116735,19.4006212274" />
		<polyline id="polyline53" points="18.811058144,38.2062112161 19.8624614863,38.8881987911 18.7837489663,39.5260869874" />
		<polyline id="polyline55" points="15.2385211678,18.4981367588 14.2491841385,19.2677019732 14.0021602128,18.0385094314" />
		<polyline id="polyline57" points="47.6874102673,9.91180138858 46.6986939012,10.681987721 46.4510493123,9.45279517919" />
		<polyline id="polyline59" points="31.6860941128,26.4950311376 30.6967570835,27.264596352 30.4497331578,26.0360249282" />
		<polyline id="polyline61" points="27.6207506113,6.2795032661 26.631413582,7.04906848049 26.3843896563,5.8198759387" />
		<polyline id="polyline63" points="1.62489607434,29.7000000692 1.56469175073,30.9521739773 0.4717039788,30.3397516195" />
		<polyline id="polyline65" points="30.6291048024,33.7534162024 30.5689004788,35.0062112286 29.4759127068,34.3931677527" />
		<polyline id="polyline67" points="6.65475007986,35.1055901102 5.43887100819,34.8018634033 6.25318103475,33.848447258" />
		<polyline id="polyline69" points="35.8445370838,47.8944099361 34.6286580121,47.5900621112 35.4429680387,46.6372670839" />
		<polyline id="polyline71" points="10.8206410084,39.2832298455 9.74937644604,38.632919289 10.8088484089,37.9639751922" />
		<polyline id="polyline73" points="47.1567432911,42.7987577821 46.0854787288,42.1490683436 47.1449506917,41.4795031288" />
		<polyline id="polyline75" points="35.5695833172,31.6801242851 34.4983187548,31.0298137286 35.5577907177,30.3602485138" />
		<polyline id="polyline77" points="13.5509381173,35.1105590543 14.7841957566,34.8900621607 14.4316590988,36.0931677461" />
		<polyline id="polyline79" points="49.1956216732,20.4795032107 48.464480506,19.4614907923 49.7014621241,19.2608696751" />
		<polyline id="polyline81" points="2.65271421762,38.5577640098 3.27151535823,39.6478261173 2.02025848815,39.7155279804" />
		<polyline id="polyline83" points="48.7468822302,35.032298185 47.5067972965,35.2099379359 47.900918384,34.0198758287" />
		<polyline id="polyline85" points="22.482280558,27.0049690238 23.4287918312,26.1832298966 23.7416060488,27.3975156061" />
		<polyline id="polyline87" points="42.0145492591,39.2708074853 42.9604398692,38.449068358 43.2738747499,39.6633540676" />
		<polyline id="polyline89" points="34.2115723887,22.2757764956 35.158083662,21.4540373684 35.4708978795,22.668323078" />
		<polyline id="polyline91" points="26.4296980648,15.0360249711 27.376209338,14.2142858438 27.6890235556,15.4285715534" />
		<polyline id="polyline93" points="21.9019605314,2.51677036152 22.8478511416,1.69503123429 23.1612860222,2.90931694384" />
		<polyline id="polyline95" points="13.1661269767,27.4590062891 13.4981817512,26.2503106416 14.4316590988,27.0869566011" />
		<polyline id="polyline97" points="38.0435465533,11.1509318185 38.3756013279,9.94223617107 39.3084580123,10.7788821305" />
		<polyline id="polyline99" points="21.2347476667,43.9186335541 21.5668024412,42.7099379066 22.5002797888,43.5465838661" />
		<polyline id="polyline101" points="25.9164096563,23.3987578577 26.779131407,22.4894410911 27.2073889667,23.667701956" />
		<polyline id="polyline103" points="5.52328119387,26.457142939 6.72116103477,26.8248448009 5.85843928407,27.7341615675" />
		<polyline id="polyline105" points="38.1105781714,1.00434800717 39.3084580123,1.37142875108 38.4457362616,2.28074551772" />
		<polyline id="polyline107" points="47.6172753336,4.03043495189 46.4516699755,4.49006227929 46.5609066863,3.24099396118" />
		<polyline id="polyline109" points="30.0419574814,42.9298136822 31.2398373223,43.2968944261 30.3771155716,44.2062111927" />
		<polyline id="polyline111" points="14.4868981173,42.8130434963 15.6847779582,43.1807453582 14.8220562075,44.0894410068" />
		<polyline id="polyline113" points="48.2646269782,48.2739130402 49.461886156,48.6409937841 48.5991644053,49.5503105508" />
		<polyline id="polyline115" points="2.05253297091,5.49378898345 2.53416755979,6.65093183608 1.28415201597,6.56645978672" />
		<polyline id="polyline117" points="5.31597970845,10.2378883438 6.56847790479,10.2223603936 6.02415633978,11.3515529358" />
		<polyline id="polyline119" points="0.97133779845,13.9652175218 2.22383599479,13.9490684536 1.67951442978,15.0782609958" />
		<polyline id="polyline121" points="10.6034089129,30.8217391952 11.0298044832,32.0006211782 9.78475424445,31.8565217999" />
		<polyline id="polyline123" points="42.4508754395,30.1614907506 42.8772710098,31.3403727336 41.6328414341,31.1968944733" />
		<polyline id="polyline125" points="39.502725572,34.3670807963 39.9291211423,35.5459627793 38.6846915666,35.402484519" />
		<polyline id="polyline127" points="22.6554455713,34.3850932186 21.4048093643,34.3043478773 22.0347824413,33.2204969499" />
		<polyline id="polyline129" points="18.5807921228,48.2658385061 17.330776579,48.1850931648 17.9607496559,47.1012422373" />
		<polyline id="polyline131" points="35.5937891792,39.3403727024 34.3431529723,39.2596273611 34.9731260492,38.1757764336" />
		<polyline id="polyline133" points="3.54895177734,45.6465838579 2.29893623352,45.5664596346 2.92890931047,44.4826087072" />
		<polyline id="polyline135" points="19.2225577992,23.0509317721 17.9731629185,23.1496895357 18.4417635817,21.986956621" />
		<polyline id="polyline137" points="42.8052740867,6.65093183608 41.5564998691,6.74968959967 42.0251005323,5.58695668495" />
		<polyline id="polyline139" points="31.0343978263,12.0248448586 29.7850029456,12.1229815042 30.2542242718,10.9602485895" />
		<polyline id="polyline141" points="8.2858527855,42.9962733092 7.03707856794,43.0944099548 7.50567923109,41.9322981581" />
		<polyline id="polyline143" points="47.8425760498,27.3031056686 46.5938018322,27.4018634322 47.0624024954,26.2391305175" />
		<polyline id="polyline145" points="40.4988898956,43.7838509459 39.2494950149,43.8826087095 39.7180956781,42.7198757948" />
		<polyline id="polyline147" points="26.5575546696,30.6751553449 27.7759163938,30.9689441636 26.970295651,31.9291926071" />
		<polyline id="polyline149" points="6.09180862095,1.50000017915 6.5914424406,0.35031074264 7.39706318334,1.3105591861" />
	</g>
</svg>
