<?xml version="1.0" encoding="UTF-8" standalone="no"?>
<svg xmlns:dc="http://purl.org/dc/elements/1.1/" xmlns:cc="http://creativecommons.org/ns#" xmlns:rdf="http://www.w3.org/1999/02/22-rdf-syntax-ns#" xmlns:svg="http://www.w3.org/2000/svg" xmlns="http://www.w3.org/2000/svg" version="1.1" x="0px" y="0px" xml:space="preserve" width="50.00" height="50.00" viewBox="0 0 50.00 50.00">
	<metadata id="metadata2">
		<rdf:RDF>
			<ns:item rdf:ID="biblio1">
				<ns:link>rdf:resource=&quot;http://pubs.usgs.gov/tm/2006/11A02/</ns:link>
				<ns:title>U.S. Geological Survey, 2006, FGDC Digital Cartographic Standard for Geologic Map Symbolization (PostScript Implementation): U.S. Geological Survey Techniques and Methods 11-A2</ns:title>
			</ns:item>
			<ns:item rdf:ID="biblio2">
				<ns:link>https://davenquinn.com/projects/geologic-patterns/</ns:link>
				<ns:title>FGDC Geologic Patterns for the Web</ns:title>
			</ns:item>
			<rdf:Description>
				<dc:description>
					Converted from 'FGDC Geologic Patterns for the Web' to QGIS compatible svg symbols, with customisable fill colour/stroke colour/stroke width (when appropriate).
					SVG scaled to 50x50 pixels so that base outline-width is 0.387 px and width is 90 in the QGIS xml definition file. 
					Some of the original FGDC symbols have been omitted from this set because they can be generated from other symbols using the 'texture width' and/or 'stroke width' fields in QGIS symbology form.
				</dc:description>
				<dc:date>01 MARCH 2019</dc:date>
				<dc:creator>GeoProc.com</dc:creator>
				<dc:publisher rdf:resource="https://github.com/BC-Consulting/QGIS-FGDC-Fill" />
			</rdf:Description>
			<cc:Work rdf:about="">
				<dc:format>image/svg+xml</dc:format>
				<dc:type rdf:resource="http://purl.org/dc/dcmitype/StillImage" />
				<dc:title>FGDC fill symbol: Lithology - Metamorphism, Igneous and vein - 727 Igneous Rock 7th Option</dc:title>
			</cc:Work>
		</rdf:RDF>
	</metadata>
	<path style="fill:none;stroke:none;stroke-width:0;" id="rect1500" width="50.00" height="50.00" x="0.0" y="0.0" />
	<g fill="param(outline) #000" stroke="param(outline) #000" stroke-width="param(outline-width) 0.6">
		<g style="fill:none;">
			<line id="line9" y2="11.050932" x2="5.0168204" y1="9.0322981" x1="5.7150664" />
			<line id="line11" y2="33.916149" x2="5.4761109" y1="36.099377" x1="5.8360953" />
			<line id="line13" y2="3.2484446" x2="6.3357291" y1="1.2298112" x1="5.9869165" />
			<line id="line15" y2="26.068943" x2="6.0291214" y1="28.26708" x1="6.2792487" />
			<line id="line17" y2="11.391923" x2="5.9049888" y1="9.282609" x1="6.5728226" />
			<line id="line19" y2="33.816769" x2="6.4213805" y1="35.932919" x1="6.7137132" />
			<line id="line21" y2="43.879501" x2="6.7019205" y1="41.743477" x1="6.7428846" />
			<line id="line23" y2="3.2484446" x2="7.2667241" y1="1.0745317" x1="6.8533621" />
			<line id="line25" y2="26.017389" x2="6.9787364" y1="28.145338" x1="7.1643147" />
			<line id="line27" y2="43.929192" x2="7.651535" y1="41.716766" x1="7.6360188" />
			<line id="line29" y2="6.4316745" x2="10.64189" y1="6.0043478" x1="8.5471516" />
			<line id="line31" y2="5.4714274" x2="10.780297" y1="5.0956492" x1="8.6011496" />
			<line id="line33" y2="39.945961" x2="11.301034" y1="39.662109" x1="9.1858149" />
			<line id="line35" y2="39.00745" x2="11.458683" y1="38.770805" x1="9.260294" />
			<line id="line37" y2="48.020496" x2="11.404685" y1="47.736645" x1="9.2888441" />
			<line id="line39" y2="32.472668" x2="11.435098" y1="31.967079" x1="9.3608418" />
			<line id="line41" y2="47.081985" x2="11.562333" y1="46.845341" x1="9.363945" />
			<line id="line43" y2="24.097513" x2="10.911258" y1="22.539129" x1="9.4508371" />
			<line id="line45" y2="31.555899" x2="11.690811" y1="31.088818" x1="9.5290413" />
			<line id="line47" y2="15.437264" x2="11.960799" y1="15.010556" x1="9.8660612" />
			<line id="line49" y2="14.477638" x2="12.099207" y1="14.101863" x1="9.9200583" />
			<line id="line51" y2="23.470182" x2="11.625642" y1="21.896273" x1="10.0715" />
			<line id="line53" y2="22.955898" x2="2.1350813" y1="24.709936" x1="0.78638017" />
			<line id="line55" y2="33.531055" x2="15.265831" y1="34.896893" x1="13.526112" />
			<line id="line57" y2="27.607452" x2="11.989971" y1="26.154657" x1="13.554041" />
			<line id="line59" y2="11.167699" x2="14.481933" y1="9.1049671" x1="13.925818" />
			<line id="line61" y2="34.313042" x2="15.807049" y1="35.587578" x1="14.094019" />
			<line id="line63" y2="28.326084" x2="12.613116" y1="26.778881" x1="14.193945" />
			<line id="line65" y2="43.879501" x2="16.163309" y1="42.793785" x1="14.324905" />
			<line id="line67" y2="19.629812" x2="13.628521" y1="17.611177" x1="14.326767" />
			<line id="line69" y2="43.077019" x2="16.673494" y1="42.001862" x1="14.740749" />
			<line id="line71" y2="10.950309" x2="15.407963" y1="8.8291903" x1="14.775506" />
			<line id="line73" y2="2.8385093" x2="13.532939" y1="1.4149069" x1="15.124319" />
			<line id="line75" y2="19.971426" x2="14.51669" y1="17.861488" x1="15.184524" />
			<line id="line77" y2="3.56832" x2="14.142429" y1="2.0509284" x1="15.751809" />
			<line id="line79" y2="29.821115" x2="18.009161" y1="28.021738" x1="16.858452" />
			<line id="line81" y2="21.528568" x2="19.099045" y1="22.704967" x1="17.225883" />
			<line id="line83" y2="29.33478" x2="18.826574" y1="27.503103" x1="17.586489" />
			<line id="line85" y2="22.363352" x2="19.555853" y1="23.45155" x1="17.718691" />
			<line id="line87" y2="46.107452" x2="3.5073674" y1="47.039749" x1="1.5020049" />
			<line id="line89" y2="23.579502" x2="2.8525679" y1="25.237886" x1="1.5075907" />
			<line id="line91" y2="47.840992" x2="17.488424" y1="46.008694" x1="18.585756" />
			<line id="line93" y2="40.604347" x2="19.029531" y1="38.512421" x1="18.598791" />
			<line id="line95" y2="14.950308" x2="17.644833" y1="13.526706" x1="19.236212" />
			<line id="line97" y2="48.35714" x2="18.287218" y1="46.429813" x1="19.374001" />
			<line id="line99" y2="5.8602471" x2="17.295399" y1="5.8018608" x1="19.429239" />
			<line id="line101" y2="40.443478" x2="19.966732" y1="38.288818" x1="19.464617" />
			<line id="line103" y2="6.8117986" x2="17.289812" y1="6.693789" x1="19.498133" />
			<line id="line105" y2="15.680121" x2="18.254322" y1="14.162732" x1="19.864325" />
			<line id="line107" y2="35.980122" x2="23.526855" y1="35.69627" x1="21.411016" />
			<line id="line109" y2="35.041611" x2="23.684505" y1="34.805588" x1="21.486116" />
			<line id="line111" y2="43.408695" x2="23.853325" y1="43.887577" x1="21.694038" />
			<line id="line113" y2="27.486956" x2="23.930288" y1="27.337265" x1="21.800793" />
			<line id="line115" y2="26.540991" x2="24.028353" y1="26.443478" x1="21.819412" />
			<line id="line117" y2="44.348446" x2="24.003527" y1="44.755276" x1="21.908167" />
			<line id="line119" y2="19.496891" x2="22.76158" y1="17.367081" x1="22.925434" />
			<line id="line121" y2="2.1267056" x2="21.633833" y1="3.1298099" x1="23.605061" />
			<line id="line123" y2="19.601242" x2="23.706228" y1="17.391302" x1="23.818567" />
			<line id="line125" y2="9.9366417" x2="21.717625" y1="9.8782606" x1="23.851463" />
			<line id="line127" y2="10.888198" x2="21.712036" y1="10.769564" x1="23.920357" />
			<line id="line129" y2="1.3055886" x2="22.114849" y1="2.3229802" x1="23.991112" />
			<line id="line131" y2="46.992546" x2="3.85618" y1="47.841614" x1="1.8973672" />
			<line id="line133" y2="39.064594" x2="3.4407752" y1="39.414906" x1="1.2572823" />
			<line id="line135" y2="40.011177" x2="3.535116" y1="40.294407" x1="1.4192755" />
			<line id="line137" y2="48.569565" x2="25.810896" y1="46.493786" x1="25.308781" />
			<line id="line139" y2="22.418011" x2="26.421629" y1="24.486954" x1="25.637112" />
			<line id="line141" y2="48.376396" x2="26.74189" y1="46.240372" x1="26.165916" />
			<line id="line143" y2="6.6428571" x2="24.860041" y1="5.2192545" x1="26.451422" />
			<line id="line145" y2="22.808073" x2="27.289316" y1="24.78447" x1="26.479973" />
			<line id="line147" y2="30.480124" x2="26.447697" y1="32.689438" x1="26.572451" />
			<line id="line149" y2="7.3726678" x2="25.469532" y1="5.8552761" x1="27.079533" />
			<line id="line151" y2="40.136024" x2="28.315271" y1="38.33416" x1="27.168287" />
			<line id="line153" y2="15.426086" x2="26.535833" y1="13.393786" x1="27.192493" />
			<line id="line155" y2="30.483227" x2="27.398554" y1="32.618633" x1="27.463102" />
			<line id="line157" y2="39.65155" x2="29.133307" y1="37.816769" x1="27.896944" />
			<line id="line159" y2="15.749065" x2="27.430206" y1="13.626084" x1="28.055214" />
			<line id="line161" y2="26.793787" x2="31.341005" y1="26.352793" x1="29.251854" />
			<line id="line163" y2="35.08012" x2="31.472586" y1="34.796894" x1="29.357365" />
			<line id="line165" y2="25.869564" x2="31.567547" y1="25.469563" x1="29.392742" />
			<line id="line167" y2="34.142235" x2="31.630236" y1="33.90559" x1="29.431845" />
			<line id="line169" y2="44.585712" x2="31.890293" y1="44.391922" x1="29.764523" />
			<line id="line171" y2="43.641613" x2="32.008217" y1="43.498135" x1="29.80176" />
			<line id="line173" y2="20.773289" x2="31.548929" y1="19.305588" x1="29.99789" />
			<line id="line175" y2="12.152794" x2="30.277189" y1="10.030432" x1="30.036993" />
			<line id="line177" y2="14.070184" x2="1.1513301" y1="12.954035" x1="2.9717352" />
			<line id="line179" y2="20.104345" x2="32.224827" y1="18.626707" x1="30.579453" />
			<line id="line181" y2="12.077017" x2="31.224939" y1="9.8857145" x1="30.918955" />
			<line id="line183" y2="0.90807343" x2="30.094713" y1="2.4484434" x1="31.682371" />
			<line id="line185" y2="0.265214" x2="30.796062" y1="1.7919222" x1="32.289379" />
			<line id="line187" y2="29.967701" x2="35.740265" y1="30.903105" x1="33.735523" />
			<line id="line189" y2="21.665836" x2="35.084846" y1="23.624842" x1="34.056404" />
			<line id="line191" y2="15.508074" x2="36.18404" y1="15.002481" x1="34.109783" />
			<line id="line193" y2="30.852793" x2="36.089699" y1="31.704346" x1="34.132126" />
			<line id="line195" y2="14.591923" x2="36.439751" y1="14.124223" x1="34.277985" />
			<line id="line197" y2="48.275776" x2="34.251297" y1="46.148445" x1="34.443081" />
			<line id="line199" y2="39.934158" x2="35.246216" y1="37.888195" x1="34.63176" />
			<line id="line201" y2="22.157761" x2="35.899155" y1="24.022358" x1="34.857063" />
			<line id="line203" y2="48.393166" x2="35.194702" y1="46.184471" x1="35.336212" />
			<line id="line205" y2="39.690681" x2="36.165421" y1="37.588818" x1="35.473999" />
			<line id="line207" y2="5.9571404" x2="33.858414" y1="5.7385082" x1="35.981705" />
			<line id="line209" y2="6.9062085" x2="33.924206" y1="6.6223574" x1="36.117008" />
			<line id="line211" y2="6.0689416" x2="1.3710449" y1="5.6745305" x1="3.4688864" />
			<line id="line213" y2="14.897513" x2="1.6211721" y1="13.692546" x1="3.4757135" />
			<line id="line215" y2="7.0093145" x2="1.5150387" y1="6.5440965" x1="3.6768084" />
			<line id="line217" y2="11.609316" x2="38.307327" y1="9.4869528" x1="38.066513" />
			<line id="line219" y2="19.832916" x2="38.875858" y1="17.796892" x1="38.230366" />
			<line id="line221" y2="27.672049" x2="39.441898" y1="25.909315" x1="38.23595" />
			<line id="line223" y2="42.5354" x2="38.620762" y1="44.727325" x1="38.319744" />
			<line id="line225" y2="34.015526" x2="40.089874" y1="35.549068" x1="38.49601" />
			<line id="line227" y2="27.160868" x2="40.243793" y1="25.368322" x1="38.947231" />
			<line id="line229" y2="11.533538" x2="39.255081" y1="9.3422365" x1="38.948471" />
			<line id="line231" y2="19.575775" x2="39.790714" y1="17.48447" x1="39.067642" />
			<line id="line233" y2="34.739128" x2="40.70681" y1="36.178879" x1="39.130325" />
			<line id="line235" y2="42.720493" x2="39.553619" y1="44.828571" x1="39.207291" />
			<line id="line237" y2="1.6192515" x2="37.695354" y1="0.60683078" x1="39.574722" />
			<line id="line239" y2="2.4714265" x2="38.117405" y1="1.3726704" x1="40.037117" />
			<line id="line241" y2="7.1304321" x2="40.060081" y1="5.6211152" x1="41.570774" />
			<line id="line243" y2="32.388817" x2="43.265186" y1="31.080744" x1="41.57822" />
			<line id="line245" y2="23.822357" x2="43.420353" y1="22.237267" x1="41.989723" />
			<line id="line247" y2="31.656521" x2="43.872192" y1="30.347204" x1="42.089653" />
			<line id="line249" y2="7.826086" x2="40.709293" y1="6.2217383" x1="42.232403" />
			<line id="line251" y2="39.331676" x2="41.91959" y1="41.490059" x1="42.409294" />
			<line id="line253" y2="16.269564" x2="43.770409" y1="14.496892" x1="42.579971" />
			<line id="line255" y2="23.208694" x2="44.147148" y1="21.605587" x1="42.622795" />
			<line id="line257" y2="47.485714" x2="41.408783" y1="45.737885" x1="42.635834" />
			<line id="line259" y2="39.176395" x2="42.85741" y1="41.271427" x1="43.275734" />
			<line id="line261" y2="15.765215" x2="44.576645" y1="13.961489" x1="43.295601" />
			<line id="line263" y2="48.058384" x2="42.167854" y1="46.215527" x1="43.391804" />
			<line id="line265" y2="43.879501" x2="47.713478" y1="43.59565" x1="45.597641" />
			<line id="line267" y2="42.941612" x2="47.871124" y1="42.704967" x1="45.672737" />
			<line id="line269" y2="37.128571" x2="46.554081" y1="35.119873" x1="45.827904" />
			<line id="line271" y2="26.058384" x2="47.61417" y1="27.529192" x1="45.962589" />
			<line id="line273" y2="4.8484473" x2="45.052692" y1="2.9993758" x1="46.121475" />
			<line id="line275" y2="49.365837" x2="48.437794" y1="49.082607" x1="46.321953" />
			<line id="line277" y2="48.427948" x2="48.59544" y1="48.191303" x1="46.396431" />
			<line id="line279" y2="26.805588" x2="48.203182" y1="28.183228" x1="46.572079" />
			<line id="line281" y2="36.835403" x2="47.458385" y1="34.774532" x1="46.652145" />
			<line id="line283" y2="11.188197" x2="46.307678" y1="9.080122" x1="46.653385" />
			<line id="line285" y2="5.3515511" x2="45.859558" y1="3.4074535" x1="46.915924" />
			<line id="line287" y2="11.37329" x2="47.240532" y1="9.181365" x1="47.540936" />
			<line id="line289" y2="19.280123" x2="46.196579" y1="17.964594" x1="47.878574" />
			<line id="line291" y2="20.049067" x2="46.757034" y1="18.640991" x1="48.463238" />
			<line id="line293" y2="19.118633" x2="7.1680384" y1="18.613041" x1="5.0937819" />
			<line id="line295" y2="18.20186" x2="7.4237518" y1="17.734781" x1="5.261982" />
			<path id="path2069" d="M 49.448809,30.569563 50.02,30.710514" />
			<path d="m 0,30.710514 1.5030649,0.364639" id="line5" />
			<path id="path2071" d="M 49.617009,29.691303 50.02,29.779522" />
			<path d="m 0,29.779522 1.7587781,0.37886" id="line7" />
		</g>
		<g style="stroke:none;stroke-width:0;">
			<circle r="0.22" id="circle297" cy="39.726086" cx="5.7411342" />
			<circle r="0.22" id="circle299" cy="49.560246" cx="5.9478149" />
			<circle r="0.22" id="circle301" cy="44.901863" cx="6.1551161" />
			<circle r="0.22" id="circle303" cy="28.986954" cx="6.2581463" />
			<circle r="0.22" id="circle305" cy="21.014904" cx="6.2581463" />
			<circle r="0.22" id="circle307" cy="30.926706" cx="6.4654479" />
			<circle r="0.22" id="circle309" cy="37.294407" cx="6.6460609" />
			<circle r="0.22" id="circle311" cy="12.707451" cx="6.6460609" />
			<circle r="0.22" id="circle313" cy="23.732296" cx="6.9563923" />
			<circle r="0.22" id="circle315" cy="8.0490685" cx="7.15066" />
			<circle r="0.22" id="circle317" cy="33.477638" cx="7.4994726" />
			<circle r="0.22" id="circle319" cy="16.524221" cx="7.4994726" />
			<circle r="0.22" id="circle321" cy="5.5254636" cx="7.4994726" />
			<circle r="0.22" id="circle323" cy="47.903725" cx="7.8098044" />
			<circle r="0.22" id="circle325" cy="18.698133" cx="7.9649701" />
			<circle r="0.22" id="circle327" cy="27.667078" cx="8.0171051" />
			<circle r="0.22" id="circle329" cy="22.33478" cx="8.0171051" />
			<circle r="0.22" id="circle331" cy="31.471426" cx="8.1977186" />
			<circle r="0.22" id="circle333" cy="38.897514" cx="8.2237864" />
			<circle r="0.22" id="circle335" cy="25.647203" cx="8.2237864" />
			<circle r="0.22" id="circle337" cy="0.47887969" cx="8.2368202" />
			<circle r="0.22" id="circle339" cy="45.937263" cx="8.5341177" />
			<circle r="0.22" id="circle341" cy="35.884468" cx="8.740799" />
			<circle r="0.22" id="circle343" cy="14.117389" cx="8.740799" />
			<circle r="0.22" id="circle345" cy="3.1186311" cx="8.740799" />
			<circle r="0.22" id="circle347" cy="40.788197" cx="8.8183823" />
			<circle r="0.22" id="circle349" cy="29.78944" cx="8.8183823" />
			<circle r="0.22" id="circle351" cy="9.2136641" cx="8.8183823" />
			<circle r="0.22" id="circle353" cy="43.349068" cx="9.0511303" />
			<circle r="0.22" id="circle355" cy="11.232296" cx="9.0511303" />
			<circle r="0.22" id="circle357" cy="20.328569" cx="9.206296" />
			<circle r="0.22" id="circle359" cy="27.303724" cx="10.189426" />
			<circle r="0.22" id="circle361" cy="33.567699" cx="10.214874" />
			<circle r="0.22" id="circle363" cy="16.434158" cx="10.214874" />
			<circle r="0.22" id="circle365" cy="37.359627" cx="10.292457" />
			<circle r="0.22" id="circle367" cy="12.642234" cx="10.292457" />
			<circle r="0.22" id="circle369" cy="1.643476" cx="10.292457" />
			<circle r="0.22" id="circle371" cy="17.999376" cx="10.37004" />
			<circle r="0.22" id="circle373" cy="7.50559" cx="10.37004" />
			<circle r="0.22" id="circle375" cy="44.591301" cx="10.602788" />
			<circle r="0.22" id="circle377" cy="3.9341614" cx="10.680371" />
			<circle r="0.22" id="circle379" cy="49.145962" cx="10.81009" />
			<circle r="0.22" id="circle381" cy="41.485714" cx="10.91312" />
			<circle r="0.22" id="circle383" cy="9.6018629" cx="10.91312" />
			<circle r="0.22" id="circle385" cy="29.452791" cx="11.068286" />
			<circle r="0.22" id="circle387" cy="20.549067" cx="11.068286" />
			<circle r="0.22" id="circle389" cy="35.22298" cx="11.223452" />
			<circle r="0.22" id="circle391" cy="24.922358" cx="11.327102" />
			<circle r="0.22" id="circle393" cy="21.726084" cx="0.74976104" />
			<circle r="0.22" id="circle395" cy="49.353413" cx="0.7758289" />
			<circle r="0.22" id="circle397" cy="34.331676" cx="0.78886276" />
			<circle r="0.22" id="circle399" cy="15.670184" cx="0.78886276" />
			<circle r="0.22" id="circle401" cy="4.6714263" cx="0.78886276" />
			<circle r="0.22" id="circle403" cy="45.329811" cx="0.78886276" />
			<circle r="0.22" id="circle405" cy="27.614283" cx="0.98250967" />
			<circle r="0.22" id="circle407" cy="19.163973" cx="12.309612" />
			<circle r="0.22" id="circle409" cy="39.416767" cx="12.387195" />
			<circle r="0.22" id="circle411" cy="31.471426" cx="12.387195" />
			<circle r="0.22" id="circle413" cy="10.584473" cx="12.387195" />
			<circle r="0.22" id="circle415" cy="46.972046" cx="12.568428" />
			<circle r="0.22" id="circle417" cy="36.699375" cx="12.619944" />
			<circle r="0.22" id="circle419" cy="13.301862" cx="12.619944" />
			<circle r="0.22" id="circle421" cy="2.3037267" cx="12.619944" />
			<circle r="0.22" id="circle423" cy="22.541613" cx="12.672079" />
			<circle r="0.22" id="circle425" cy="44.592545" cx="12.852693" />
			<circle r="0.22" id="circle427" cy="33.593788" cx="12.852693" />
			<circle r="0.22" id="circle429" cy="16.407452" cx="12.852693" />
			<circle r="0.22" id="circle431" cy="5.4093165" cx="12.852693" />
			<circle r="0.22" id="circle433" cy="42.108074" cx="13.085441" />
			<circle r="0.22" id="circle435" cy="7.8937888" cx="13.085441" />
			<circle r="0.22" id="circle437" cy="29.375153" cx="13.628521" />
			<circle r="0.22" id="circle439" cy="20.626705" cx="13.628521" />
			<circle r="0.22" id="circle441" cy="48.732296" cx="13.706104" />
			<circle r="0.22" id="circle443" cy="24.198133" cx="13.706104" />
			<circle r="0.22" id="circle445" cy="45.536022" cx="14.249185" />
			<circle r="0.22" id="circle447" cy="14.415525" cx="14.40435" />
			<circle r="0.22" id="circle449" cy="31.237265" cx="14.430418" />
			<circle r="0.22" id="circle451" cy="40.036644" cx="14.534068" />
			<circle r="0.22" id="circle453" cy="37.708694" cx="14.534068" />
			<circle r="0.22" id="circle455" cy="12.293165" cx="14.534068" />
			<circle r="0.22" id="circle457" cy="4.32236" cx="14.947431" />
			<circle r="0.22" id="circle459" cy="6.2633538" cx="15.102596" />
			<circle r="0.22" id="circle461" cy="16.511799" cx="15.257762" />
			<circle r="0.22" id="circle463" cy="46.881985" cx="15.645677" />
			<circle r="0.22" id="circle465" cy="0.44037259" cx="15.723259" />
			<circle r="0.22" id="circle467" cy="27.977636" cx="15.775394" />
			<circle r="0.22" id="circle469" cy="22.024221" cx="15.775394" />
			<circle r="0.22" id="circle471" cy="24.715525" cx="15.982076" />
			<circle r="0.22" id="circle473" cy="48.641613" cx="16.059658" />
			<circle r="0.22" id="circle475" cy="41.797512" cx="16.188757" />
			<circle r="0.22" id="circle477" cy="8.2043476" cx="16.188757" />
			<circle r="0.22" id="circle479" cy="30.07391" cx="16.26634" />
			<circle r="0.22" id="circle481" cy="19.927948" cx="16.26634" />
			<circle r="0.22" id="circle483" cy="2.6919253" cx="16.26634" />
			<circle r="0.22" id="circle485" cy="36.59565" cx="16.343922" />
			<circle r="0.22" id="circle487" cy="13.406209" cx="16.343922" />
			<circle r="0.22" id="circle489" cy="17.533539" cx="16.576672" />
			<circle r="0.22" id="circle491" cy="34.395649" cx="16.706388" />
			<circle r="0.22" id="circle493" cy="15.605588" cx="16.706388" />
			<circle r="0.22" id="circle495" cy="39.701241" cx="16.80942" />
			<circle r="0.22" id="circle497" cy="32.170185" cx="16.80942" />
			<circle r="0.22" id="circle499" cy="10.300621" cx="17.161335" />
			<circle r="0.22" id="circle501" cy="4.6714263" cx="17.388498" />
			<circle r="0.22" id="circle503" cy="45.329811" cx="17.388498" />
			<circle r="0.22" id="circle505" cy="36.932297" cx="1.7198575" />
			<circle r="0.22" id="circle507" cy="2.0708075" cx="1.7198575" />
			<circle r="0.22" id="circle509" cy="41.680744" cx="1.7583386" />
			<circle r="0.22" id="circle511" cy="19.319252" cx="1.7583386" />
			<circle r="0.22" id="circle513" cy="8.3204947" cx="1.7583386" />
			<circle r="0.22" id="circle515" cy="26.785711" cx="18.050745" />
			<circle r="0.22" id="circle517" cy="49.249687" cx="18.154396" />
			<circle r="0.22" id="circle519" cy="37.50124" cx="18.154396" />
			<circle r="0.22" id="circle521" cy="12.499998" cx="18.154396" />
			<circle r="0.22" id="circle523" cy="2.0708075" cx="18.319494" />
			<circle r="0.22" id="circle525" cy="41.680744" cx="18.358595" />
			<circle r="0.22" id="circle527" cy="30.682608" cx="18.358595" />
			<circle r="0.22" id="circle529" cy="8.3204947" cx="18.358595" />
			<circle r="0.22" id="circle531" cy="24.611799" cx="18.464727" />
			<circle r="0.22" id="circle533" cy="35.378258" cx="18.568378" />
			<circle r="0.22" id="circle535" cy="18.931053" cx="18.748991" />
			<circle r="0.22" id="circle537" cy="16.83478" cx="18.826574" />
			<circle r="0.22" id="circle539" cy="32.636024" cx="18.901676" />
			<circle r="0.22" id="circle541" cy="21.104967" cx="19.447237" />
			<circle r="0.22" id="circle543" cy="28.831675" cx="19.755085" />
			<circle r="0.22" id="circle545" cy="10.309937" cx="19.838257" />
			<circle r="0.22" id="circle547" cy="4.4000001" cx="19.910252" />
			<circle r="0.22" id="circle549" cy="45.60186" cx="19.910252" />
			<circle r="0.22" id="circle551" cy="43.672668" cx="20.19762" />
			<circle r="0.22" id="circle553" cy="26.61739" cx="20.30065" />
			<circle r="0.22" id="circle555" cy="34.499378" cx="20.430368" />
			<circle r="0.22" id="circle557" cy="15.502482" cx="20.430368" />
			<circle r="0.22" id="circle559" cy="37.475773" cx="20.763664" />
			<circle r="0.22" id="circle561" cy="48.474533" cx="20.763664" />
			<circle r="0.22" id="circle563" cy="12.525464" cx="20.763664" />
			<circle r="0.22" id="circle565" cy="1.5273291" cx="20.763664" />
			<circle r="0.22" id="circle567" cy="24.922358" cx="20.843731" />
			<circle r="0.22" id="circle569" cy="22.878258" cx="21.151577" />
			<circle r="0.22" id="circle571" cy="30.721117" cx="21.22916" />
			<circle r="0.22" id="circle573" cy="19.280123" cx="21.22916" />
			<circle r="0.22" id="circle575" cy="8.2819872" cx="21.22916" />
			<circle r="0.22" id="circle577" cy="32.778881" cx="21.267643" />
			<circle r="0.22" id="circle579" cy="17.222979" cx="21.267643" />
			<circle r="0.22" id="circle581" cy="6.2242212" cx="21.267643" />
			<circle r="0.22" id="circle583" cy="41.602482" cx="21.335295" />
			<circle r="0.22" id="circle585" cy="39.427948" cx="21.335295" />
			<circle r="0.22" id="circle587" cy="46.558384" cx="21.774725" />
			<circle r="0.22" id="circle589" cy="4.0503082" cx="22.082573" />
			<circle r="0.22" id="circle591" cy="14.881364" cx="22.60269" />
			<circle r="0.22" id="circle593" cy="31.754656" cx="22.80937" />
			<circle r="0.22" id="circle595" cy="28.986954" cx="22.858402" />
			<circle r="0.22" id="circle597" cy="21.014904" cx="22.858402" />
			<circle r="0.22" id="circle599" cy="37.294407" cx="23.246317" />
			<circle r="0.22" id="circle601" cy="12.707451" cx="23.246317" />
			<circle r="0.22" id="circle603" cy="23.732296" cx="23.556648" />
			<circle r="0.22" id="circle605" cy="39.531673" cx="23.611267" />
			<circle r="0.22" id="circle607" cy="48.732296" cx="23.636715" />
			<circle r="0.22" id="circle609" cy="41.952793" cx="23.750294" />
			<circle r="0.22" id="circle611" cy="8.0490685" cx="23.750294" />
			<circle r="0.22" id="circle613" cy="33.477638" cx="24.099728" />
			<circle r="0.22" id="circle615" cy="16.524221" cx="24.099728" />
			<circle r="0.22" id="circle617" cy="5.5254636" cx="24.099728" />
			<circle r="0.22" id="circle619" cy="12.409314" cx="1.9135046" />
			<circle r="0.22" id="circle621" cy="43.555901" cx="2.1208057" />
			<circle r="0.22" id="circle623" cy="32.636024" cx="2.301419" />
			<circle r="0.22" id="circle625" cy="17.365835" cx="2.301419" />
			<circle r="0.22" id="circle627" cy="46.765217" cx="24.257378" />
			<circle r="0.22" id="circle629" cy="2.4590061" cx="24.464678" />
			<circle r="0.22" id="circle631" cy="25.647203" cx="24.67136" />
			<circle r="0.22" id="circle633" cy="22.33478" cx="24.775009" />
			<circle r="0.22" id="circle635" cy="31.471426" cx="24.797974" />
			<circle r="0.22" id="circle637" cy="0.47887969" cx="24.836454" />
			<circle r="0.22" id="circle639" cy="44.242233" cx="25.110788" />
			<circle r="0.22" id="circle641" cy="35.884468" cx="25.341055" />
			<circle r="0.22" id="circle643" cy="14.117389" cx="25.341055" />
			<circle r="0.22" id="circle645" cy="18.154655" cx="25.343538" />
			<circle r="0.22" id="circle647" cy="40.788197" cx="25.418636" />
			<circle r="0.22" id="circle649" cy="29.78944" cx="25.418636" />
			<circle r="0.22" id="circle651" cy="20.2118" cx="25.418636" />
			<circle r="0.22" id="circle653" cy="9.2136641" cx="25.418636" />
			<circle r="0.22" id="circle655" cy="27.937265" cx="25.42112" />
			<circle r="0.22" id="circle657" cy="38.769562" cx="25.651386" />
			<circle r="0.22" id="circle659" cy="11.232296" cx="25.651386" />
			<circle r="0.22" id="circle661" cy="42.210556" cx="25.912685" />
			<circle r="0.22" id="circle663" cy="3.9080746" cx="26.74003" />
			<circle r="0.22" id="circle665" cy="33.567699" cx="26.815128" />
			<circle r="0.22" id="circle667" cy="16.434158" cx="26.815128" />
			<circle r="0.22" id="circle669" cy="37.359627" cx="26.892712" />
			<circle r="0.22" id="circle671" cy="12.642234" cx="26.892712" />
			<circle r="0.22" id="circle673" cy="1.643476" cx="26.892712" />
			<circle r="0.22" id="circle675" cy="27.096272" cx="26.94733" />
			<circle r="0.22" id="circle677" cy="7.50559" cx="26.970295" />
			<circle r="0.22" id="circle679" cy="48.835403" cx="27.050362" />
			<circle r="0.22" id="circle681" cy="46.067699" cx="27.280626" />
			<circle r="0.22" id="circle683" cy="19.086332" cx="27.360693" />
			<circle r="0.22" id="circle685" cy="44.552792" cx="27.748608" />
			<circle r="0.22" id="circle687" cy="24.715525" cx="27.774675" />
			<circle r="0.22" id="circle689" cy="9.4981365" cx="27.774675" />
			<circle r="0.22" id="circle691" cy="21.493166" cx="27.826191" />
			<circle r="0.22" id="circle693" cy="35.170807" cx="27.981356" />
			<circle r="0.22" id="circle695" cy="40.788197" cx="28.291687" />
			<circle r="0.22" id="circle697" cy="29.452791" cx="28.366787" />
			<circle r="0.22" id="circle699" cy="18.077017" cx="28.679602" />
			<circle r="0.22" id="circle701" cy="42.534161" cx="28.886904" />
			<circle r="0.22" id="circle703" cy="49.560246" cx="28.912352" />
			<circle r="0.22" id="circle705" cy="10.584473" cx="28.98745" />
			<circle r="0.22" id="circle707" cy="4.32236" cx="29.016001" />
			<circle r="0.22" id="circle709" cy="45.679501" cx="29.016001" />
			<circle r="0.22" id="circle711" cy="37.294407" cx="29.067516" />
			<circle r="0.22" id="circle713" cy="12.707451" cx="29.067516" />
			<circle r="0.22" id="circle715" cy="2.3037267" cx="29.220198" />
			<circle r="0.22" id="circle717" cy="27.278879" cx="29.222683" />
			<circle r="0.22" id="circle719" cy="22.722979" cx="29.222683" />
			<circle r="0.22" id="circle721" cy="15.269563" cx="29.222683" />
			<circle r="0.22" id="circle723" cy="32.893787" cx="29.429983" />
			<circle r="0.22" id="circle725" cy="6.3925467" cx="29.429983" />
			<circle r="0.22" id="circle727" cy="31.237265" cx="29.843346" />
			<circle r="0.22" id="circle729" cy="39.311798" cx="30.050646" />
			<circle r="0.22" id="circle731" cy="8.3596268" cx="30.050646" />
			<circle r="0.22" id="circle733" cy="47.386333" cx="30.257328" />
			<circle r="0.22" id="circle735" cy="26.061487" cx="2.7414689" />
			<circle r="0.22" id="circle737" cy="10.236022" cx="2.883601" />
			<circle r="0.22" id="circle739" cy="16.511799" cx="30.541592" />
			<circle r="0.22" id="circle741" cy="40.968319" cx="30.67131" />
			<circle r="0.22" id="circle743" cy="29.339128" cx="30.676275" />
			<circle r="0.22" id="circle745" cy="21.014904" cx="30.851923" />
			<circle r="0.22" id="circle747" cy="23.667078" cx="31.00709" />
			<circle r="0.22" id="circle749" cy="36.750931" cx="31.239838" />
			<circle r="0.22" id="circle751" cy="13.250929" cx="31.239838" />
			<circle r="0.22" id="circle753" cy="49.249687" cx="31.395002" />
			<circle r="0.22" id="circle755" cy="4.8658385" cx="31.550169" />
			<circle r="0.22" id="circle757" cy="35.042854" cx="32.248417" />
			<circle r="0.22" id="circle759" cy="14.959003" cx="32.248417" />
			<circle r="0.22" id="circle761" cy="27.667078" cx="32.284412" />
			<circle r="0.22" id="circle763" cy="11.465215" cx="32.40358" />
			<circle r="0.22" id="circle765" cy="46.105587" cx="32.40358" />
			<circle r="0.22" id="circle767" cy="39.311798" cx="32.533298" />
			<circle r="0.22" id="circle769" cy="6.8068323" cx="32.533298" />
			<circle r="0.22" id="circle771" cy="32.868942" cx="32.558746" />
			<circle r="0.22" id="circle773" cy="17.132917" cx="32.558746" />
			<circle r="0.22" id="circle775" cy="22.33478" cx="32.63633" />
			<circle r="0.22" id="circle777" cy="42.003105" cx="32.739979" />
			<circle r="0.22" id="circle779" cy="8.9807453" cx="32.843632" />
			<circle r="0.22" id="circle781" cy="47.931053" cx="32.86908" />
			<circle r="0.22" id="circle783" cy="2.0708075" cx="32.86908" />
			<circle r="0.22" id="circle785" cy="30.617388" cx="32.946663" />
			<circle r="0.22" id="circle787" cy="19.38447" cx="32.946663" />
			<circle r="0.22" id="circle789" cy="43.816147" cx="33.256992" />
			<circle r="0.22" id="circle791" cy="4.0118012" cx="33.464294" />
			<circle r="0.22" id="circle793" cy="36.828571" cx="33.722488" />
			<circle r="0.22" id="circle795" cy="13.173289" cx="33.722488" />
			<circle r="0.22" id="circle797" cy="26.444098" cx="34.166885" />
			<circle r="0.22" id="circle799" cy="16.136023" cx="34.265572" />
			<circle r="0.22" id="circle801" cy="24.301239" cx="34.39529" />
			<circle r="0.22" id="circle803" cy="0.82857132" cx="34.498318" />
			<circle r="0.22" id="circle805" cy="33.412422" cx="34.653484" />
			<circle r="0.22" id="circle807" cy="18.465216" cx="34.653484" />
			<circle r="0.22" id="circle809" cy="10.766459" cx="34.731068" />
			<circle r="0.22" id="circle811" cy="29.116146" cx="34.808651" />
			<circle r="0.22" id="circle813" cy="20.885092" cx="34.808651" />
			<circle r="0.22" id="circle815" cy="2.6142857" cx="34.808651" />
			<circle r="0.22" id="circle817" cy="41.331676" cx="35.35173" />
			<circle r="0.22" id="circle819" cy="8.670186" cx="35.35173" />
			<circle r="0.22" id="circle821" cy="43.659626" cx="35.429314" />
			<circle r="0.22" id="circle823" cy="49.145962" cx="35.532963" />
			<circle r="0.22" id="circle825" cy="35.378258" cx="35.532963" />
			<circle r="0.22" id="circle827" cy="26.250309" cx="36.36031" />
			<circle r="0.22" id="circle829" cy="18.931053" cx="36.437893" />
			<circle r="0.22" id="circle831" cy="4.32236" cx="36.463959" />
			<circle r="0.22" id="circle833" cy="16.058382" cx="36.593056" />
			<circle r="0.22" id="circle835" cy="44.941612" cx="36.593056" />
			<circle r="0.22" id="circle837" cy="28.831675" cx="3.1548307" />
			<circle r="0.22" id="circle839" cy="21.170183" cx="3.1548307" />
			<circle r="0.22" id="circle841" cy="34.603104" cx="3.3099966" />
			<circle r="0.22" id="circle843" cy="15.398134" cx="3.3099966" />
			<circle r="0.22" id="circle845" cy="4.4000001" cx="3.3099966" />
			<circle r="0.22" id="circle847" cy="37.049065" cx="36.825806" />
			<circle r="0.22" id="circle849" cy="12.952793" cx="36.825806" />
			<circle r="0.22" id="circle851" cy="1.9540349" cx="36.825806" />
			<circle r="0.22" id="circle853" cy="31.911179" cx="36.877941" />
			<circle r="0.22" id="circle855" cy="5.7714286" cx="36.877941" />
			<circle r="0.22" id="circle857" cy="39.766457" cx="37.058556" />
			<circle r="0.22" id="circle859" cy="10.235401" cx="37.058556" />
			<circle r="0.22" id="circle861" cy="47.490059" cx="37.188274" />
			<circle r="0.22" id="circle863" cy="41.952793" cx="37.291302" />
			<circle r="0.22" id="circle865" cy="8.0490685" cx="37.291302" />
			<circle r="0.22" id="circle867" cy="34.148445" cx="37.368885" />
			<circle r="0.22" id="circle869" cy="29.801861" cx="37.679218" />
			<circle r="0.22" id="circle871" cy="20.199377" cx="37.679218" />
			<circle r="0.22" id="circle873" cy="27.770807" cx="37.808937" />
			<circle r="0.22" id="circle875" cy="22.231054" cx="37.808937" />
			<circle r="0.22" id="circle877" cy="14.156519" cx="38.325947" />
			<circle r="0.22" id="circle879" cy="24.404966" cx="38.4296" />
			<circle r="0.22" id="circle881" cy="49.353413" cx="38.63628" />
			<circle r="0.22" id="circle883" cy="3.5844698" cx="38.765377" />
			<circle r="0.22" id="circle885" cy="7.1558981" cx="39.07571" />
			<circle r="0.22" id="circle887" cy="37.708694" cx="39.153294" />
			<circle r="0.22" id="circle889" cy="32.4795" cx="39.153294" />
			<circle r="0.22" id="circle891" cy="12.292544" cx="39.153294" />
			<circle r="0.22" id="circle893" cy="16.084469" cx="39.230877" />
			<circle r="0.22" id="circle895" cy="46.558384" cx="39.256943" />
			<circle r="0.22" id="circle897" cy="39.726086" cx="39.360592" />
			<circle r="0.22" id="circle899" cy="5.1763973" cx="39.773956" />
			<circle r="0.22" id="circle901" cy="29.995029" cx="39.981258" />
			<circle r="0.22" id="circle903" cy="28.120497" cx="40.394619" />
			<circle r="0.22" id="circle905" cy="21.881365" cx="40.394619" />
			<circle r="0.22" id="circle907" cy="41.137264" cx="40.627369" />
			<circle r="0.22" id="circle909" cy="19.86273" cx="40.627369" />
			<circle r="0.22" id="circle911" cy="8.8639727" cx="40.627369" />
			<circle r="0.22" id="circle913" cy="13.7677" cx="40.704948" />
			<circle r="0.22" id="circle915" cy="2.7695651" cx="40.704948" />
			<circle r="0.22" id="circle917" cy="38.381363" cx="40.860115" />
			<circle r="0.22" id="circle919" cy="11.620495" cx="40.860115" />
			<circle r="0.22" id="circle921" cy="48.111179" cx="40.912251" />
			<circle r="0.22" id="circle923" cy="0.44037259" cx="41.170448" />
			<circle r="0.22" id="circle925" cy="31.820496" cx="41.248032" />
			<circle r="0.22" id="circle927" cy="18.180742" cx="41.248032" />
			<circle r="0.22" id="circle929" cy="36.555279" cx="41.558361" />
			<circle r="0.22" id="circle931" cy="25.959003" cx="41.713528" />
			<circle r="0.22" id="circle933" cy="24.042854" cx="41.713528" />
			<circle r="0.22" id="circle935" cy="33.826706" cx="41.946278" />
			<circle r="0.22" id="circle937" cy="16.174532" cx="41.946278" />
			<circle r="0.22" id="circle939" cy="5.1763973" cx="41.946278" />
			<circle r="0.22" id="circle941" cy="44.825462" cx="41.946278" />
			<circle r="0.22" id="circle943" cy="10.067701" cx="42.256607" />
			<circle r="0.22" id="circle945" cy="42.301861" cx="42.295712" />
			<circle r="0.22" id="circle947" cy="7.6993766" cx="42.295712" />
			<circle r="0.22" id="circle949" cy="27.303724" cx="42.463909" />
			<circle r="0.22" id="circle951" cy="1.8378881" cx="42.644524" />
			<circle r="0.22" id="circle953" cy="12.357761" cx="42.799686" />
			<circle r="0.22" id="circle955" cy="48.939129" cx="3.8791447" />
			<circle r="0.22" id="circle957" cy="37.475773" cx="4.1634083" />
			<circle r="0.22" id="circle959" cy="12.525464" cx="4.1634083" />
			<circle r="0.22" id="circle961" cy="1.5273291" cx="4.1634083" />
			<circle r="0.22" id="circle963" cy="29.336021" cx="43.187603" />
			<circle r="0.22" id="circle965" cy="20.665215" cx="43.187603" />
			<circle r="0.22" id="circle967" cy="18.219873" cx="43.187603" />
			<circle r="0.22" id="circle969" cy="37.331676" cx="43.420353" />
			<circle r="0.22" id="circle971" cy="45.729813" cx="43.497932" />
			<circle r="0.22" id="circle973" cy="49.45652" cx="43.601585" />
			<circle r="0.22" id="circle975" cy="3.7012422" cx="43.963432" />
			<circle r="0.22" id="circle977" cy="35.390682" cx="44.273762" />
			<circle r="0.22" id="circle979" cy="25.232918" cx="44.325897" />
			<circle r="0.22" id="circle981" cy="9.9900618" cx="44.351345" />
			<circle r="0.22" id="circle983" cy="39.971428" cx="44.506512" />
			<circle r="0.22" id="circle985" cy="44.126705" cx="44.778366" />
			<circle r="0.22" id="circle987" cy="33.127949" cx="44.778366" />
			<circle r="0.22" id="circle989" cy="16.873289" cx="44.778366" />
			<circle r="0.22" id="circle991" cy="5.875155" cx="44.778366" />
			<circle r="0.22" id="circle993" cy="42.068943" cx="44.816845" />
			<circle r="0.22" id="circle995" cy="31.070805" cx="44.816845" />
			<circle r="0.22" id="circle997" cy="7.9322958" cx="44.816845" />
			<circle r="0.22" id="circle999" cy="27.472668" cx="44.894424" />
			<circle r="0.22" id="circle1001" cy="19.940371" cx="45.049591" />
			<circle r="0.22" id="circle1003" cy="37.825462" cx="45.282341" />
			<circle r="0.22" id="circle1005" cy="12.176395" cx="45.282341" />
			<circle r="0.22" id="circle1007" cy="1.1776375" cx="45.282341" />
			<circle r="0.22" id="circle1009" cy="48.00745" cx="45.463573" />
			<circle r="0.22" id="circle1011" cy="22.657763" cx="45.670254" />
			<circle r="0.22" id="circle1013" cy="15.049067" cx="46.135754" />
			<circle r="0.22" id="circle1015" cy="45.950932" cx="46.135754" />
			<circle r="0.22" id="circle1017" cy="29.180742" cx="46.290916" />
			<circle r="0.22" id="circle1019" cy="24.508694" cx="46.704899" />
			<circle r="0.22" id="circle1021" cy="21.415525" cx="46.989166" />
			<circle r="0.22" id="circle1023" cy="6.2763948" cx="46.989166" />
			<circle r="0.22" id="circle1025" cy="30.822979" cx="47.015232" />
			<circle r="0.22" id="circle1027" cy="2.3944075" cx="47.066746" />
			<circle r="0.22" id="circle1029" cy="39.932919" cx="47.118881" />
			<circle r="0.22" id="circle1031" cy="32.985092" cx="47.144329" />
			<circle r="0.22" id="circle1033" cy="17.016148" cx="47.144329" />
			<circle r="0.22" id="circle1035" cy="7.9714284" cx="47.687412" />
			<circle r="0.22" id="circle1037" cy="37.281986" cx="47.726513" />
			<circle r="0.22" id="circle1039" cy="12.719873" cx="47.726513" />
			<circle r="0.22" id="circle1041" cy="41.434158" cx="47.997742" />
			<circle r="0.22" id="circle1043" cy="4.3354011" cx="48.230492" />
			<circle r="0.22" id="circle1045" cy="29.375153" cx="48.463238" />
			<circle r="0.22" id="circle1047" cy="20.626705" cx="48.463238" />
			<circle r="0.22" id="circle1049" cy="0.91925216" cx="48.540821" />
			<circle r="0.22" id="circle1051" cy="34.680744" cx="48.657509" />
			<circle r="0.22" id="circle1053" cy="15.320495" cx="48.657509" />
			<circle r="0.22" id="circle1055" cy="45.679501" cx="48.657509" />
			<circle r="0.22" id="circle1057" cy="23.278879" cx="48.695988" />
			<circle r="0.22" id="circle1059" cy="47.386333" cx="48.980873" />
			<circle r="0.22" id="circle1061" cy="27.1236" cx="4.5513229" />
			<circle r="0.22" id="circle1063" cy="22.878258" cx="4.5513229" />
			<circle r="0.22" id="circle1065" cy="41.719875" cx="4.6289058" />
			<circle r="0.22" id="circle1067" cy="30.721117" cx="4.6289058" />
			<circle r="0.22" id="circle1069" cy="19.280123" cx="4.6289058" />
			<circle r="0.22" id="circle1071" cy="8.2819872" cx="4.6289058" />
			<circle r="0.22" id="circle1073" cy="43.777016" cx="4.6680074" />
			<circle r="0.22" id="circle1075" cy="32.778881" cx="4.6680074" />
			<circle r="0.22" id="circle1077" cy="17.222979" cx="4.6680074" />
			<circle r="0.22" id="circle1079" cy="6.2242212" cx="4.6680074" />
			<circle r="0.22" id="circle1081" cy="24.819252" cx="4.7064886" />
			<circle r="0.22" id="circle1083" cy="25.907452" cx="49.291203" />
			<circle r="0.22" id="circle1085" cy="38.847202" cx="49.471817" />
			<circle r="0.22" id="circle1087" cy="11.154658" cx="49.471817" />
			<circle r="0.22" id="circle1089" cy="42.922981" cx="49.648083" />
			<circle r="0.22" id="circle1091" cy="31.924843" cx="49.648083" />
			<circle r="0.22" id="circle1093" cy="18.077017" cx="49.648083" />
			<circle r="0.22" id="circle1095" cy="7.0782585" cx="49.648083" />
			<circle r="0.22" id="circle1097" cy="15.049067" cx="5.4823174" />
			<circle r="0.22" id="circle1099" cy="4.0503082" cx="5.4823174" />
			<circle r="0.22" id="circle1101" cy="47.386333" cx="5.5344529" />
		</g>
	</g>
</svg>
