<?xml version="1.0" encoding="UTF-8" standalone="no"?>
<svg xmlns:dc="http://purl.org/dc/elements/1.1/" xmlns:cc="http://creativecommons.org/ns#" xmlns:rdf="http://www.w3.org/1999/02/22-rdf-syntax-ns#" xmlns:svg="http://www.w3.org/2000/svg" xmlns="http://www.w3.org/2000/svg" version="1.1" x="0px" y="0px" xml:space="preserve" width="50.00" height="50.00" viewBox="0 0 50.00 50.00">
	<metadata id="metadata2">
		<rdf:RDF>
			<ns:item rdf:ID="biblio1">
				<ns:link>rdf:resource=&quot;http://pubs.usgs.gov/tm/2006/11A02/</ns:link>
				<ns:title>U.S. Geological Survey, 2006, FGDC Digital Cartographic Standard for Geologic Map Symbolization (PostScript Implementation): U.S. Geological Survey Techniques and Methods 11-A2</ns:title>
			</ns:item>
			<ns:item rdf:ID="biblio2">
				<ns:link>https://davenquinn.com/projects/geologic-patterns/</ns:link>
				<ns:title>FGDC Geologic Patterns for the Web</ns:title>
			</ns:item>
			<rdf:Description>
				<dc:description>
					Converted from 'FGDC Geologic Patterns for the Web' to QGIS compatible svg symbols, with customisable fill colour/stroke colour/stroke width (when appropriate).
					SVG scaled to 50x50 pixels so that base outline-width is 0.387 px and width is 90 in the QGIS xml definition file. 
					Some of the original FGDC symbols have been omitted from this set because they can be generated from other symbols using the 'texture width' and/or 'stroke width' fields in QGIS symbology form.
				</dc:description>
				<dc:date>01 MARCH 2019</dc:date>
				<dc:creator>GeoProc.com</dc:creator>
				<dc:publisher rdf:resource="https://github.com/BC-Consulting/QGIS-FGDC-Fill" />
			</rdf:Description>
			<cc:Work rdf:about="">
				<dc:format>image/svg+xml</dc:format>
				<dc:type rdf:resource="http://purl.org/dc/dcmitype/StillImage" />
				<dc:title>FGDC fill symbol: Lithology - Metamorphism, Igneous and vein - 732 Quartz</dc:title>
			</cc:Work>
		</rdf:RDF>
	</metadata>
	<path style="fill:none;stroke:none;stroke-width:0;" id="rect1500" width="50.00" height="50.00" x="0.0" y="0.0" />
	<g style="fill:none;" stroke="param(outline) #000" stroke-width="param(outline-width) 0.6">
		<path d="M 2.3291781,3.3288607 C 3.1443904,3.7946963 3.8431439,3.6782374 4.6583562,2.9794839 5.4735685,2.2807305 5.7064863,2.2807305 6.7546165,2.5136483 7.8027466,2.7465661 7.9192055,2.6301072 8.9673357,1.9313538 10.015466,1.2326004 10.131925,0.76676475 10.59776,0.99968256" id="path5" />
		<path d="M 16.890709,0.66957427 C 15.72612,1.4847866 15.493202,1.1354099 15.842579,2.1835401 c 0.349377,1.0481301 0.349377,0.8152123 -0.349377,1.3975068 -0.698753,0.5822945 -1.164589,0.6987534 -0.931671,1.6304247 0.232918,0.9316712 -0.116459,1.0481301 -0.582294,1.5139657" id="path7" />
		<path d="M 1.7468836,8.0216887 C 2.3291781,7.672312 3.2608493,7.3229353 3.9596028,7.9052298 4.6583562,8.4875243 5.9980994,9.5496295 6.3465445,8.5014994 6.6949895,7.4533692 7.9192055,8.0496388 8.7334862,8.5154745" id="path9" />
		<path d="m 19.379987,2.5787686 c -0.116459,1.1645891 0.116459,1.8633425 0.931671,1.9798014 0.815213,0.1164589 0.815213,-0.2329178 0.931671,0.5822945 0.116459,0.8152124 0.116459,1.0481302 1.048131,1.0481302 0.931671,0 1.397506,0 1.513965,0.8152123 0.116459,0.8152123 0.582295,1.281048 1.513966,1.281048" id="path11" />
		<path d="m 11.724151,15.038105 c 0.135092,1.162726 0.511487,1.79533 1.333221,1.734772 0.821734,-0.06056 0.746269,-0.401551 1.035087,0.369873 0.287887,0.771424 0.337265,0.998752 1.247508,0.800306 0.910243,-0.199378 1.364898,-0.298135 1.652785,0.472357" id="path13" />
		<path d="m 17.119459,7.4533692 c 0,1.281048 0.232918,1.6304247 0.698753,2.0962603 0.465836,0.4658355 0.815213,0.5822945 0.232918,1.2810475 -0.582294,0.698754 -0.465835,0.698754 0.349377,1.513966 0.815212,0.815213 0.465836,1.397507 -0.349377,2.445637 -0.815212,1.04813 -0.931671,1.164589 -0.698753,1.630425" id="path15" />
		<path d="m 11.004901,10.656455 c -0.756517,0.232918 -1.2810483,0.408072 -1.1645894,0.989435 0.1164589,0.581363 0.1164589,1.106825 -0.8152123,1.281048 -0.9316712,0.174222 -0.8739076,0.232918 -0.8739076,1.106825 0,0.873908 -0.057764,1.164589 -0.5822945,1.513966 -0.524531,0.349377 -0.408072,0.465836 -0.4658357,0.698753" id="path17" />
		<path d="m 1.6881883,12.577561 c 0.2329178,0.698753 0.2906814,0.815212 0.5235992,1.222353 0.2329178,0.40714 0.1751542,0.756517 -0.1164589,1.04813 -0.2916131,0.291613 -0.6978217,0.524531 -0.2319861,1.28198 0.4658356,0.757448 0.5235992,1.339743 0.1751542,1.746883 -0.3484451,0.40714 -0.5245309,0.756517 -0.1751542,1.338812" id="path19" />
		<path d="m 9.4918666,21.021298 c 0.4658356,-0.175155 0.6409894,-0.5236 1.3397434,0.05776 0.698753,0.582295 0.582294,0.290682 1.45527,0.174223 0.872976,-0.116459 0.815213,-0.116459 1.339744,0.290681 0.52453,0.40714 1.397506,0.64099 2.678554,-0.582294" id="path21" />
		<path d="m 10.59776,24.33991 c 1.164589,0.175155 1.805579,0.116459 1.921106,0.815213 0.115528,0.698753 0,0.756517 0.64099,0.931671 0.64099,0.175154 1.04813,0.408072 0.582295,1.397507 -0.465836,0.989435 -0.465836,0.989435 -0.349377,1.281048" id="path23" />
		<path d="m 4.4254384,26.02903 c 0.6409898,0.349377 0.6409898,-0.05776 1.1068254,0.698754 0.4658356,0.756517 0.5235993,0.582294 1.1068255,0.873907 0.5832262,0.291614 0.408072,0.582295 0.4658356,1.281048 0.057764,0.698754 0.1164589,1.106826 0.9894348,1.106826 0.872976,0 1.3397433,0.523599 1.5139658,0.989435" id="path25" />
		<path d="m 16.304247,25.563195 c 0.349376,-0.408072 0.64099,-0.523599 1.04813,-1.106826 0.40714,-0.583226 0.873907,-0.698753 1.746883,-0.465835 0.872976,0.232918 0.815213,0.116459 1.281048,-0.465836 0.465836,-0.582294 0.989435,-0.756517 1.339744,-0.698753" id="path27" />
		<path d="m 6.9297707,20.555462 c -0.6987534,0 -1.3975069,0.05776 -1.5139658,0.582294 C 5.299346,21.661356 4.8335104,22.127191 4.134757,21.952969 3.4360035,21.778746 3.0279315,21.720051 2.7372501,22.069428 2.4465687,22.418804 1.9220378,22.535263 1.6304247,22.4775" id="path29" />
		<path d="m 21.299474,9.3978671 c 0.465836,0.7565169 0.408072,0.6987539 0.756517,0.9316709 0.348445,0.232918 0.349377,0.698754 0.290682,1.048131 -0.0587,0.349376 -0.290682,0.582294 0.408072,0.931671 0.698753,0.349377 0.989435,0.989435 0.408072,1.513966 -0.581363,0.52453 -0.756517,0.756517 -0.756517,1.106825" id="path31" />
		<path d="m 26.211591,15.146375 c 0.290681,-0.523599 0.523599,-0.931671 0.873907,-1.04813 0.350309,-0.116459 0.64099,-0.232918 0.815213,-0.873907 0.174222,-0.64099 -0.175154,-1.04813 0.465835,-0.989435 0.64099,0.0587 0.582295,0.175154 0.815213,-0.523599 0.232918,-0.698754 0.756517,-1.222353 1.397507,-0.873908" id="path33" />
		<path d="m 28.415973,17.934671 c -0.349377,0 -0.523599,-0.05776 -0.989435,0.290681 -0.465836,0.348445 -1.04813,0.290682 -1.513966,-0.116459 -0.465835,-0.40714 -0.523599,-0.582294 -0.931671,-0.175154 -0.408072,0.40714 -0.757449,0.816144 -1.513966,0.117391 -0.756517,-0.698754 -1.281048,-0.64099 -1.572661,-0.465836" id="path35" />
		<path d="m 22.593028,20.613226 c 0.931671,0.465835 1.106825,0.465835 1.222352,1.04813 0.116459,0.582294 0.175154,0.756517 1.106826,0.931671 0.931671,0.175154 1.630424,0.873908 1.513965,1.572661 -0.116458,0.698753 -0.175154,1.106825 0.873908,1.164589 1.049062,0.05776 1.339743,-0.05776 1.455271,0.465836" id="path37" />
		<path d="m 21.020367,27.018465 c -0.989435,-0.232918 -1.805579,-0.349376 -1.921107,0.465836 -0.115527,0.815212 -0.523599,1.397507 -1.164589,1.630425 -0.640989,0.232917 -0.698753,0.116458 -0.873907,0.815212 -0.175154,0.698753 -0.815213,1.45527 -1.572661,1.572661" id="path39" />
		<path d="m 1.0917704,28.657227 c 0.057764,0.64099 -0.11645892,0.815212 0.5822945,1.281048 0.6987534,0.465836 0.756517,0.989435 0.4658356,1.746884 -0.2906814,0.757448 -0.408072,0.756517 0.1164589,1.339743 0.5245309,0.583226 0.408072,1.106825 0,1.805579" id="path41" />
		<path d="m 7.4594949,34.544653 c 0.756517,0.175155 1.2223523,0.698754 1.9798013,0.349377 0.7574488,-0.349377 0.9316708,-0.523599 1.3975068,0 0.465836,0.523599 1.805579,1.04813 2.329178,0.582295 0.523599,-0.465836 1.164589,-0.5236 1.513966,-0.408072" id="path45" />
		<path d="m 13.024174,37.861649 c 0.756517,0 0.698753,-0.232918 0.989434,0.232918 0.290682,0.465835 0.350309,0.640989 1.049062,0.640989 0.698754,0 0.756517,-0.232917 1.164589,0.408072 0.408072,0.64099 0.64099,0.931672 1.455271,0.931672 0.81428,0 0.931671,0.05776 1.164589,0.465835 0.232918,0.408072 0.523599,0.465836 0.989435,0.408072" id="path47" />
		<path d="m 24.979969,31.909739 c -0.582294,-0.290681 -0.815212,-0.465835 -1.222352,-0.349376 -0.407141,0.116458 -0.989435,0.175154 -1.455271,-0.232918 -0.465835,-0.408072 -0.698753,-0.465836 -1.339743,0.116459 -0.64099,0.582294 -0.756517,0.640989 -1.455271,0.582294 -0.698753,-0.0587 -0.815212,0.05776 -0.873907,0.465836" id="path49" />
		<path d="m 22.417873,37.732685 c 0.408072,-0.408072 0.756517,-0.815213 0.582295,-1.455271 -0.174223,-0.640058 0.232918,-1.746884 0.931671,-1.746884 0.698754,0 1.164589,-0.232917 1.805579,-0.931671 0.64099,-0.698753 1.04813,-0.815212 1.572661,-0.756517" id="path51" />
		<path d="M 9.5173154,43.665418 C 9.2219752,42.771945 9.106448,42.184061 8.5698053,42.179402 8.0331627,42.174744 7.2403105,41.775989 7.0502496,41.098664 6.8601886,40.421339 6.4782034,40.057987 6.0440446,39.813889" id="path53" />
		<path d="m 25.620959,41.285147 c 0.582295,0.232918 0.931671,0.408072 1.572661,-0.116459 0.64099,-0.524531 0.931671,-0.582294 1.455271,-0.408072 0.523599,0.174223 1.281048,-0.116459 1.45527,-0.815212 0.174223,-0.698754 0.756517,-1.106826 1.04813,-1.164589" id="path55" />
		<path d="m 30.162856,28.824044 c 0.5236,0.873908 0.64099,0.873908 1.281048,0.931671 0.640058,0.05776 0.815213,0.05776 1.106826,0.64099 0.291613,0.583226 0.64099,0.756517 1.688188,0.523599 1.047199,-0.232917 1.281048,0.116459 1.397507,0.5236" id="path57" />
		<path d="m 32.492034,33.4824 c 0.64099,0.349377 0.815213,0.582295 0.5236,1.106826 -0.291613,0.524531 -0.05776,1.339743 0.290681,1.746883 0.348445,0.407141 0.523599,0.698754 0.290682,1.339744 -0.232918,0.640989 0.232917,1.572661 0.698753,1.863342" id="path59" />
		<path d="m 40.993535,29.173421 c -0.465836,0.408072 -0.582295,0.523599 -0.408072,1.339743 0.174222,0.816144 0.349376,1.281048 -0.408072,1.513966 -0.757449,0.232918 -1.746884,0.465835 -2.038497,0.989435 -0.291613,0.523599 -0.815212,0.64099 -1.281048,0.582294" id="path61" />
		<path d="m 29.638325,19.74025 c 0.349377,0.175154 0.290682,-0.116459 0.64099,0.698753 0.349377,0.815212 0.232918,0.349377 0.873908,0.64099 0.64099,0.290681 0.931671,1.281048 0.465836,1.921106 -0.465836,0.640058 -0.582295,1.222353 -0.116459,1.630425 0.465835,0.408072 0.465835,0.756517 0.408072,1.164589" id="path63" />
		<path d="m 35.869343,27.775914 c 0.349376,-0.408072 0.175154,-0.698753 0.698753,-0.756517 0.523599,-0.05776 0.931671,-0.116459 1.281048,-0.465836 0.349377,-0.349376 0.408072,-0.582294 0.989435,-0.408072 0.581363,0.174223 0.465836,0.232918 1.106825,-0.05776 0.64099,-0.290682 0.64099,-0.232918 1.164589,-0.05776 0.5236,0.175154 0.5236,0.175154 1.281048,0 0.757449,-0.175154 0.989435,-0.175154 1.281048,-0.05776" id="path65" />
		<path d="m 42.426345,34.181154 c -0.523599,0.349376 -0.408072,0.290681 -0.698754,0.873907 -0.290681,0.583227 -0.290681,0.64099 -0.815212,0.815213 -0.524531,0.174222 -0.873908,0.290681 -0.815212,0.931671 0.05869,0.64099 0.232918,1.281048 -0.815213,1.630425 -1.04813,0.349376 -1.281048,0.465835 -1.45527,0.931671 -0.174223,0.465836 -0.523599,0.815212 -0.64099,1.164589" id="path67" />
		<path d="m 44.905374,30.705282 c 0.733225,0.461177 0.956826,0.397823 0.73602,1.124527 -0.220806,0.726704 0.135093,1.352787 0.839436,1.277321 0.704344,-0.07547 1.854958,0.148136 2.067379,0.693164" id="path69" />
		<path d="m 42.410997,36.498659 c 0.607449,-0.119254 0.444407,-0.09783 1.057447,0.155589 0.613971,0.254347 0.37919,0.367079 1.047198,0.07453 0.668008,-0.292545 1.44968,-0.35124 1.926696,0.460246 0.477016,0.810554 1.274526,1.207446 1.67235,1.073285" id="path71" />
		<path d="m 39.945404,22.24365 c -0.989434,-0.408072 -1.222352,-0.64099 -1.45527,-0.175154 -0.232918,0.465836 -1.223284,1.339743 -1.572661,0.873908 -0.349377,-0.465836 -0.349377,-0.698754 -0.873908,-0.64099 -0.524531,0.05776 -0.873907,-0.408072 -1.106825,-0.873908" id="path75" />
		<path d="m 49.321744,22.22688 c -0.788194,-0.509624 -0.654965,-0.397824 -1.363967,-0.0047 -0.709933,0.392233 -2.170794,0.231054 -2.167067,-0.679189 0.0037,-0.909311 0.154657,-1.542847 -0.457451,-1.447817 -0.612108,0.09503 -0.559934,0.214285 -1.177632,-0.228259" id="path77" />
		<path d="m 33.948237,9.375407 c -0.349377,0.4658356 -0.582295,0.756517 -0.232918,1.222353 0.349377,0.465835 0.465835,1.339743 -0.232918,2.038496 -0.698753,0.698754 -1.106825,0.698754 -0.931671,1.339744 0.175154,0.640989 0.290681,1.45527 -0.232918,1.863342" id="path79" />
		<path d="m 35.811579,14.150222 c 0.290682,0.931671 0.232918,1.106826 0.582295,1.397507 0.349376,0.290681 0.408072,0.698753 0.349376,1.222353 -0.0587,0.523599 0.408072,1.106825 1.164589,0.989434 0.756517,-0.11739 0.698754,-0.465835 1.106826,-0.116458 0.408072,0.349376 0.290681,0.349376 0.931671,0.408072 0.64099,0.0587 0.698754,0.175154 0.873908,0.523599" id="path81" />
		<path d="m 44.429538,12.228184 c -0.931671,0.175155 -1.164589,-0.116459 -1.397507,0.232918 -0.232918,0.349377 -0.582294,0.290682 -0.873907,0.465836 -0.291613,0.175154 -0.290682,-0.05776 -0.5236,0.64099 -0.232917,0.698753 -1.339743,1.222352 -1.746883,0.815212 C 39.4805,13.976 39.072428,13.567928 38.723052,13.74215" id="path83" />
		<path d="m 49.253732,13.870721 c -0.731362,0.275774 -0.770492,0.3177 -1.001547,0.738815 -0.231054,0.421115 -0.30652,0.588816 -1.300613,0.462109 -0.994093,-0.126707 -1.431979,0.260868 -1.604338,1.132912 -0.172359,0.872044 -0.489127,1.213968 -1.058378,1.400302" id="path85" />
		<path d="m 45.709654,6.6381569 c 0.931672,0.5822945 0.873908,0.3493767 1.106826,1.1068254 0.232918,0.7574488 0.290681,1.3397433 0.931671,1.8055789 0.64099,0.4658358 0.756517,0.5822948 0.815212,1.2810478" id="path87" />
		<path d="M 43.439172,7.8614412 C 43.089795,8.6179583 41.925206,9.2011845 41.400675,8.7931125 40.876144,8.3850405 40.469004,7.8614412 39.712487,8.4437358 38.95597,9.0260303 38.490134,9.0260303 37.791381,8.8518078 37.092627,8.6775853 36.917473,8.61889 36.684555,8.7940442" id="path89" />
		<path d="m 40.283895,0.72826957 c 0.698753,0.64098983 1.630424,1.97980143 0.931671,2.27141453 -0.698754,0.2916131 -0.989435,0.1751542 -1.04813,0.756517 -0.0587,0.5813629 -0.407141,1.1058938 -0.989435,1.5717294 -0.582295,0.4658356 -0.698754,0.5822945 -0.756517,0.8739076" id="path91" />
		<path d="m 44.142093,0.81011162 c 1.04813,1.10682538 0.64099,0.69875338 1.397507,0.81521228 0.756517,0.1164589 0.931671,-0.3493767 1.222353,0.5235993 0.290681,0.8729759 -0.175155,1.3397432 0.756517,1.572661 0.931671,0.2329178 1.397507,0.408072 1.572661,0.9316713" id="path93" />
		<path d="M 37.401601,4.2175301 C 36.527693,3.9268486 35.247577,3.2858588 34.839505,4.1010712 34.431433,4.9162835 33.85007,5.8479547 33.151316,5.90665 32.452563,5.9653453 32.044491,5.7901911 31.637351,6.314722 31.23021,6.8392529 30.58922,7.0712391 30.006926,7.2463933" id="path95" />
		<path d="m 23.921884,3.8437366 c 0.698754,-0.6987534 0.523599,-1.281048 1.630425,-0.756517 1.106825,0.5245309 1.04813,0.4658356 1.863342,0.1751541 0.815213,-0.2906814 0.873908,-0.6987534 1.630425,-0.057764 0.756517,0.6409898 0.756517,0.408072 1.04813,0.4658357 0.291613,0.057764 0.698754,0.2329178 0.815213,0.756517" id="path97" />
		<path d="m 43.443733,40.447865 c 0.881361,0.781672 1.449681,1.08167 1.166453,1.731045 -0.283228,0.649375 -0.412731,0.634468 0.02888,1.130117 0.441613,0.495649 0.655897,0.913038 -0.273911,1.488811 -0.929808,0.575772 -0.929808,0.575772 -0.991298,0.883224" id="path99" />
		<path d="m 0.87390762,43.264948 c 0.93167128,0.465836 1.10682548,0.465836 1.22235268,1.048131 0.1155272,0.582294 0.1751542,0.756517 1.1068254,0.931671 0.9316713,0.175154 1.6304247,0.873907 1.5139658,1.572661 -0.1164589,0.698753 -0.1751542,1.105894 0.8729759,1.163657 1.0481302,0.05776 1.3397433,-0.05776 1.4552705,0.465836" id="path101" />
		<path d="m 40.119627,43.089794 c -0.582295,-0.290681 -0.815212,-0.465835 -1.222353,-0.349377 -0.40714,0.116459 -0.989435,0.175155 -1.45527,-0.232917 -0.465836,-0.408072 -0.698754,-0.465836 -1.339743,0.116459 -0.64099,0.582294 -0.756517,0.640989 -1.455271,0.582294 -0.698753,-0.0587 -0.815212,0.05776 -0.873908,0.465836" id="path103" />
		<path d="m 14.341215,48.454357 c 0.109006,-0.566456 0.170496,-1.099372 -0.333538,-1.531667 -0.503102,-0.432296 -0.785399,-1.57732 -0.206831,-1.968622 0.578568,-0.391302 0.833846,-0.845957 0.973597,-1.783218 0.13975,-0.937262 0.410867,-1.262415 0.877634,-1.507444" id="path105" />
		<path d="m 32.346059,48.374086 c 0.582294,0.232917 0.931671,0.40714 1.572661,-0.116459 0.64099,-0.5236 0.931671,-0.582295 1.45527,-0.408072 0.5236,0.174222 1.281048,-0.116459 1.455271,-0.815213 0.174222,-0.698753 0.756517,-1.106825 1.04813,-1.164589" id="path107" />
		<path d="m 48.900235,44.791419 c -0.465836,0.408072 -0.582295,0.5236 -0.408072,1.339744 0.174222,0.816144 0.349377,1.280116 -0.407141,1.513034 -0.756517,0.232918 -1.746883,0.465835 -2.038496,0.989435 -0.291613,0.523599 -0.815213,0.640989 -1.281048,0.582294" id="path109" />
		<path d="m 22.650791,46.991633 c -0.989435,-0.408072 -1.222352,-0.640989 -1.45527,-0.175154 -0.232918,0.465836 -1.222353,1.339743 -1.572661,0.873908 -0.350309,-0.465836 -0.349377,-0.698754 -0.873908,-0.64099 -0.524531,0.05776 -0.873908,-0.408072 -1.106825,-0.873908" id="path113" />
		<path d="m 50,25.370055 c -0.571643,0.160951 -1.183766,0.562996 -1.194265,1.213252 -0.01304,0.865523 0.197514,1.456203 -0.804033,1.640673 -1.001546,0.184471 -1.418003,0.241303 -1.612723,0.723909" id="path73"  />
		<path id="path11842" d="M 1.544848,25.022757 C 1.23926,25.29201 1.157273,25.287352 0.537711,25.289215 0.383851,25.289911 0.189241,25.316775 0,25.370055" />
		<path d="m 27.123715,0.01 c 0.465836,0.408072 0.556306,0.849821 0.498542,1.257893" id="path111"  />
		<path id="path11844" d="m 25.349911,45.20203 c 0.349377,0.175154 0.290682,-0.116459 0.64099,0.698753 0.350308,0.815212 0.232918,0.349377 0.873908,0.64099 0.640989,0.291613 0.931671,1.281048 0.465835,1.921106 C 26.864809,49.102937 26.65788,49.591928 27.123715,50" />
		<path d="m 0,39.448596 c 0.32473615,-0.154165 0.57698348,-0.425535 0.6521541,-0.842004 0.1155273,-0.640058 0.5245309,-1.397507 1.4562021,-1.106825 0.9316712,0.290681 1.8055789,0.349376 2.3869417,-0.64099" id="path43"  />
		<path id="path11846" d="m 48.682353,40.469935 c 0.175154,-0.582295 0.175154,-0.873908 0.757448,-0.873908 0.203411,0 0.395859,-0.06466 0.570199,-0.147431" />
	</g>
</svg>
