<?xml version="1.0" encoding="UTF-8" standalone="no"?>
<svg xmlns:dc="http://purl.org/dc/elements/1.1/" xmlns:cc="http://creativecommons.org/ns#" xmlns:rdf="http://www.w3.org/1999/02/22-rdf-syntax-ns#" xmlns:svg="http://www.w3.org/2000/svg" xmlns="http://www.w3.org/2000/svg" version="1.1" x="0px" y="0px" xml:space="preserve" width="50.00" height="50.00" viewBox="0 0 50.00 50.00">
	<metadata id="metadata2">
		<rdf:RDF>
			<ns:item rdf:ID="biblio1">
				<ns:link>rdf:resource=&quot;http://pubs.usgs.gov/tm/2006/11A02/</ns:link>
				<ns:title>U.S. Geological Survey, 2006, FGDC Digital Cartographic Standard for Geologic Map Symbolization (PostScript Implementation): U.S. Geological Survey Techniques and Methods 11-A2</ns:title>
			</ns:item>
			<ns:item rdf:ID="biblio2">
				<ns:link>https://davenquinn.com/projects/geologic-patterns/</ns:link>
				<ns:title>FGDC Geologic Patterns for the Web</ns:title>
			</ns:item>
			<rdf:Description>
				<dc:description>
					Converted from 'FGDC Geologic Patterns for the Web' to QGIS compatible svg symbols, with customisable fill colour/stroke colour/stroke width (when appropriate).
					SVG scaled to 50x50 pixels so that base outline-width is 0.387 px and width is 90 in the QGIS xml definition file. 
					Some of the original FGDC symbols have been omitted from this set because they can be generated from other symbols using the 'texture width' and/or 'stroke width' fields in QGIS symbology form.
				</dc:description>
				<dc:date>01 MARCH 2019</dc:date>
				<dc:creator>GeoProc.com</dc:creator>
				<dc:publisher rdf:resource="https://github.com/BC-Consulting/QGIS-FGDC-Fill" />
			</rdf:Description>
			<cc:Work rdf:about="">
				<dc:format>image/svg+xml</dc:format>
				<dc:type rdf:resource="http://purl.org/dc/dcmitype/StillImage" />
				<dc:title>FGDC fill symbol: Misc. and Metamorphic - 416</dc:title>
			</cc:Work>
		</rdf:RDF>
	</metadata>
	<path style="fill:none;stroke:none;stroke-width:0;" id="rect1500" width="50.00" height="50.00" x="0.0" y="0.0" />
	<g fill="param(outline) #000" stroke="param(outline) #000" stroke-width="param(outline-width) 0.387">
		<circle id="circle5" r="1.0355029" cy="29.733727" cx="24.860947"  />
		<circle id="circle7" r="1.0355029" cy="37.784019" cx="26.840237"  />
		<circle id="circle9" r="1.0355029" cy="19.150885" cx="27.065088"  />
		<circle id="circle11" r="1.0355029" cy="9.6183395" cx="28.408285"  />
		<circle id="circle13" r="1.0355029" cy="46.041416" cx="28.408285"  />
		<circle id="circle15" r="1.0355029" cy="35.819523" cx="34.526627"  />
		<circle id="circle17" r="1.0355029" cy="4.6508842" cx="34.76923"  />
		<circle id="circle19" r="1.0355029" cy="27.331358" cx="34.952663"  />
		<circle id="circle21" r="1.0355029" cy="33.594673" cx="44.142014"  />
		<circle id="circle23" r="1.0355029" cy="24.071003" cx="44.547337"  />
		<circle id="circle25" r="1.0355029" cy="11.872777" cx="45.091713"  />
		<circle id="circle27" r="1.0355029" cy="2.9615374" cx="45.43787"  />
		<circle id="circle29" r="1.0355029" cy="27.792898" cx="1.9852073"  />
		<circle id="circle31" r="1.0355029" cy="46.33136" cx="3.3639052"  />
		<circle id="circle33" r="1.0355029" cy="17.426031" cx="3.3727808"  />
		<circle id="circle35" r="1.0355029" cy="4.8343167" cx="5.6242609"  />
		<circle id="circle37" r="1.0355029" cy="36.24852" cx="6.4733729"  />
		<circle id="circle39" r="1.0355029" cy="27.340235" cx="10.221893"  />
		<circle id="circle41" r="1.0355029" cy="44.417156" cx="10.692307"  />
		<circle id="circle43" r="1.0355029" cy="18.343193" cx="12.292899"  />
		<circle id="circle45" r="1.0355029" cy="2.3402326" cx="15.115384"  />
		<circle id="circle47" r="1.0355029" cy="43.674553" cx="18.150887"  />
		<circle id="circle49" r="1.0355029" cy="22.467453" cx="19.813608"  />
		<circle id="circle51" r="1.0355029" cy="13.6213" cx="21.026628"  />
		<circle id="circle53" r="1.0355029" cy="5.1420093" cx="22.677515"  />
		<path id="path55" d="M34.994083 15.139051C37.257397 11.378695 45.497042 16.023666 40.180474 19.928991C37.431953 21.949701 31.065089 21.668636 34.994083 15.139051C34.994083 15.139051 34.994083 15.139051 34.994083 15.139051" style="fill:none" />
		<path id="path57" d="M39.147929 41.30769C45.236687 39.565086 47.115385 41.26627 44.331361 46.097631C41.872781 50.366861 31.822485 43.405323 39.147929 41.30769C39.147929 41.30769 39.147929 41.30769 39.147929 41.30769" style="fill:none" />
		<path id="path59" d="M11.653846 7.7159735C14.606509 4.4704114 21.778107 10.633133 15.801775 13.426033C12.710059 14.86982 6.52071 13.346151 11.653846 7.7159735C11.653846 7.7159735 11.653846 7.7159735 11.653846 7.7159735" style="fill:none" />
		<path id="path61" d="M14.165681 32.902364C16.426036 29.147926 24.857988 36.825441 19.349112 37.692305C15.982249 38.224849 10.233728 39.434909 14.165681 32.902364C14.165681 32.902364 14.165681 32.902364 14.165681 32.902364" style="fill:none" />
	</g>
</svg>
