<?xml version="1.0" encoding="UTF-8" standalone="no"?>
<svg xmlns:dc="http://purl.org/dc/elements/1.1/" xmlns:cc="http://creativecommons.org/ns#" xmlns:rdf="http://www.w3.org/1999/02/22-rdf-syntax-ns#" xmlns:svg="http://www.w3.org/2000/svg" xmlns="http://www.w3.org/2000/svg" version="1.1" x="0px" y="0px" xml:space="preserve" width="50.00" height="50.00" viewBox="0 0 50.00 50.00">
	<metadata id="metadata2">
		<rdf:RDF>
			<ns:item rdf:ID="biblio1">
				<ns:link>rdf:resource=&quot;http://pubs.usgs.gov/tm/2006/11A02/</ns:link>
				<ns:title>U.S. Geological Survey, 2006, FGDC Digital Cartographic Standard for Geologic Map Symbolization (PostScript Implementation): U.S. Geological Survey Techniques and Methods 11-A2</ns:title>
			</ns:item>
			<ns:item rdf:ID="biblio2">
				<ns:link>https://davenquinn.com/projects/geologic-patterns/</ns:link>
				<ns:title>FGDC Geologic Patterns for the Web</ns:title>
			</ns:item>
			<rdf:Description>
				<dc:description>
					Converted from 'FGDC Geologic Patterns for the Web' to QGIS compatible svg symbols, with customisable fill colour/stroke colour/stroke width (when appropriate).
					SVG scaled to 50x50 pixels so that base outline-width is 0.387 px and width is 90 in the QGIS xml definition file. 
					Some of the original FGDC symbols have been omitted from this set because they can be generated from other symbols using the 'texture width' and/or 'stroke width' fields in QGIS symbology form.
				</dc:description>
				<dc:date>01 MARCH 2019</dc:date>
				<dc:creator>GeoProc.com</dc:creator>
				<dc:publisher rdf:resource="https://github.com/BC-Consulting/QGIS-FGDC-Fill" />
			</rdf:Description>
			<cc:Work rdf:about="">
				<dc:format>image/svg+xml</dc:format>
				<dc:type rdf:resource="http://purl.org/dc/dcmitype/StillImage" />
				<dc:title>FGDC fill symbol: Misc. and Metamorphic - 418</dc:title>
			</cc:Work>
		</rdf:RDF>
	</metadata>
	<path style="fill:none;stroke:none;stroke-width:0;" id="rect1500" width="50.00" height="50.00" x="0.0" y="0.0" />
	<g fill="param(outline) #000" stroke="param(outline) #000" stroke-width="param(outline-width) 0.387">
		<ellipse ry="1.479" rx="1.479" id="circle5" cy="9.6159506" cx="28.408285" />
		<ellipse ry="1.479" rx="1.479" id="circle7" cy="19.15202" cx="28.745562" />
		<ellipse ry="1.479" rx="1.479" id="circle9" cy="4.6482015" cx="34.76923" />
		<ellipse ry="1.479" rx="1.479" id="circle11" cy="11.870522" cx="45.094677" />
		<ellipse ry="1.479" rx="1.479" id="circle13" cy="2.9617121" cx="45.43787" />
		<ellipse ry="1.479" rx="1.479" id="circle15" cy="31.07876" cx="47.5" />
		<ellipse ry="1.479" rx="1.479" id="circle17" cy="19.107637" cx="4.2130179" />
		<ellipse ry="1.479" rx="1.479" id="circle19" cy="5.6689754" cx="5.6242604" />
		<ellipse ry="1.479" rx="1.479" id="circle21" cy="3.4647007" cx="22.680475" />
		<ellipse ry="1.479" rx="1.479" id="circle23" cy="43.523285" cx="28.408285" />
		<ellipse ry="1.479" rx="1.479" id="circle25" cy="34.138115" cx="34.526627" />
		<ellipse ry="1.479" rx="1.479" id="circle27" cy="24.812119" cx="40.828403" />
		<ellipse ry="1.479" rx="1.479" id="circle29" cy="46.334099" cx="5.0443783" />
		<ellipse ry="1.479" rx="1.479" id="circle31" cy="36.250664" cx="6.4733729" />
		<ellipse ry="1.479" rx="1.479" id="circle33" cy="27.344812" cx="10.224852" />
		<ellipse ry="1.479" rx="1.479" id="circle35" cy="45.354752" cx="15.636094" />
		<ellipse ry="1.479" rx="1.479" id="circle37" cy="22.468784" cx="18.136095" />
		<ellipse ry="1.479" rx="1.479" id="circle39" cy="29.732527" cx="24.860947" />
		<polygon id="polygon41" points="42.7071008565,19.3650493265 33.5710061253,21.8977435209 36.1923079167,12.8972111151" style="fill:none;" />
		<polygon id="polygon43" points="46.9201186341,46.8844286514 37.8964499391,43.9878076043 45.029586078,37.9046075299" style="fill:none;" />
		<polygon id="polygon45" points="19.4142013038,9.5656530977 12.4437870594,15.9920687405 10.6656805395,6.7903410015" style="fill:none;" />
		<polygon id="polygon47" points="15.7573965474,31.2769965539 20.8461539754,39.2774698035 11.4733728522,39.3958199995" style="fill:none;" />
	</g>
</svg>
