<?xml version="1.0" encoding="UTF-8" standalone="no"?>
<svg xmlns:dc="http://purl.org/dc/elements/1.1/" xmlns:cc="http://creativecommons.org/ns#" xmlns:rdf="http://www.w3.org/1999/02/22-rdf-syntax-ns#" xmlns:svg="http://www.w3.org/2000/svg" xmlns="http://www.w3.org/2000/svg" version="1.1" x="0px" y="0px" xml:space="preserve" width="50.00" height="50.00" viewBox="0 0 50.00 50.00">
	<metadata id="metadata2">
		<rdf:RDF>
			<ns:item rdf:ID="biblio1">
				<ns:link>rdf:resource=&quot;http://pubs.usgs.gov/tm/2006/11A02/</ns:link>
				<ns:title>U.S. Geological Survey, 2006, FGDC Digital Cartographic Standard for Geologic Map Symbolization (PostScript Implementation): U.S. Geological Survey Techniques and Methods 11-A2</ns:title>
			</ns:item>
			<ns:item rdf:ID="biblio2">
				<ns:link>https://davenquinn.com/projects/geologic-patterns/</ns:link>
				<ns:title>FGDC Geologic Patterns for the Web</ns:title>
			</ns:item>
			<rdf:Description>
				<dc:description>
					Converted from 'FGDC Geologic Patterns for the Web' to QGIS compatible svg symbols, with customisable fill colour/stroke colour/stroke width (when appropriate).
					SVG scaled to 50x50 pixels so that base outline-width is 0.387 px and width is 90 in the QGIS xml definition file. 
					Some of the original FGDC symbols have been omitted from this set because they can be generated from other symbols using the 'texture width' and/or 'stroke width' fields in QGIS symbology form.
				</dc:description>
				<dc:date>01 MARCH 2019</dc:date>
				<dc:creator>GeoProc.com</dc:creator>
				<dc:publisher rdf:resource="https://github.com/BC-Consulting/QGIS-FGDC-Fill" />
			</rdf:Description>
			<cc:Work rdf:about="">
				<dc:format>image/svg+xml</dc:format>
				<dc:type rdf:resource="http://purl.org/dc/dcmitype/StillImage" />
				<dc:title>FGDC fill symbol: Misc. and Metamorphic - 419</dc:title>
			</cc:Work>
		</rdf:RDF>
	</metadata>
	<path style="fill:none;stroke:none;stroke-width:0;" id="rect1500" width="50.00" height="50.00" x="0.0" y="0.0" />
	<g fill="param(outline) #000" style="stroke:none;stroke-width:0;">
		<path id="path5" d="M0.0 48.739846C0.0 48.739846 0.158648 48.754476 0.158648 48.754476C0.26328817 48.767976 0.38255545 48.783726 0.51644986 48.802856C1.6247355 48.953625 1.4458346 48.144651 1.9791619 48.197532C1.9791619 48.197532 3.4227462 47.652966 3.0289391 47.471818C2.8275349 47.378429 2.6340068 47.289543 2.483235 47.188281C1.8778972 46.785481 1.676493 46.93625 1.676493 46.93625C1.17242 46.93625 1.3231918 47.087018 0.96989059 47.489818C0.66272107 47.841986 0.58058416 47.83636 0.19127773 47.766601C0.19127773 47.766601 0.0 47.749724 0.0 47.749724" />
		<path id="path7" d="M0.0 37.030537C0.0 37.030537 0.15639767 37.064287 0.15639767 37.064287C0.28579143 37.149797 0.56145639 37.210555 1.0531527 36.566976C1.7091227 35.709621 2.0612988 35.156053 2.6666365 35.156053C3.2719743 35.156053 3.5746432 34.753254 3.373239 34.14793C3.1718348 33.542609 2.1726899 32.615496 2.3234618 32.36234C2.4742337 32.109184 3.7434176 31.222575 3.2224671 30.596999C2.5439938 29.780149 0.88662852 30.145818 1.5347225 31.119063C1.7361267 31.4206 1.3231918 32.737011 1.2725595 32.888904C1.2219275 33.040798 2.1648138 33.441347 2.4157252 33.593241C2.6677617 33.745134 2.8196587 33.946534 2.5676222 34.147934C2.3155857 34.349333 1.9116521 34.450596 1.6089832 34.399964C1.3063144 34.349334 0.95301315 34.147934 0.75160895 34.651995C0.55020476 35.157182 0.73923215 35.983033 0.15752283 35.906524C0.15752283 35.906524 0.0 35.885146 0.0 35.885146" />
		<path id="path9" d="M0.0 30.126691C0.0 30.126691 0.18227642 30.041181 0.18227642 30.041181C0.18227642 30.041181 1.041901 29.75427 1.2714343 29.341345C1.5009676 28.929544 1.2601823 28.507618 1.5527251 28.167826C2.0185426 27.62776 2.8129077 26.754653 3.4182455 27.05844C3.4182455 27.05844 3.6005219 27.13945 3.8761869 26.887419C4.1507267 26.635388 4.5242808 26.246091 4.0742156 26.051442C3.5566406 25.82754 2.7240199 25.447243 2.2705791 25.648643C1.8171384 25.851167 0.44443942 27.05844 0.4939466 27.613133C0.52545117 27.959676 0.19915387 28.48399 0.19915387 28.48399C0.19915387 28.48399 0.0 28.577376 0.0 28.577376" />
		<path id="path11" d="M0.0 23.678526C0.0 23.678526 0.158648 23.689776 0.158648 23.689776C0.26328817 23.703276 0.38255545 23.719026 0.51644986 23.738156C0.79999096 23.776406 0.82586972 23.594138 0.9665151 23.400614C0.9665151 23.400614 1.1780458 22.750285 0.9485125 22.609642C0.738107 22.480252 0.73698184 22.539882 0.73698184 22.539882C0.4298123 22.89093 0.579459 22.773916 0.19015256 22.704157C0.19015256 22.704157 0.0 22.690655 0.0 22.690655" />
		<path id="path13" d="M0.0 15.019466C0.158648 14.983466 0.29704306 14.940706 0.37467931 14.892325C0.37467931 14.892325 0.56370671 14.786562 0.56370671 14.786562C0.87650205 14.588538 0.83599618 14.289251 0.94626217 14.094603C0.94626217 14.094603 1.5515999 14.346633 1.5515999 14.346633C1.8542688 14.296002 2.055673 13.438647 1.8542688 12.934585C1.6528646 12.431649 1.248931 12.783817 1.248931 12.783817C0.95863896 12.493531 0.96088929 12.93346 0.56370671 13.427396C0.56370671 13.427396 0.43206263 13.536534 0.43206263 13.536534C0.3690535 13.610793 0.19465322 13.687303 0.0 13.760437" />
		<path id="path15" d="M0.0 11.997346C0.15527251 11.978216 0.37692964 11.847702 0.67959851 11.451654C1.3344434 10.594299 1.6877446 10.039606 2.2930824 10.039606C2.8984201 10.039606 3.201089 9.6379317 2.9985597 9.0314824C2.7971555 8.4261583 1.7980106 7.5001699 1.9487825 7.2470139C2.0995543 6.9938579 3.3687383 6.1072493 2.8477878 5.4816727C2.1693145 4.6659478 0.51194921 5.0304924 1.1600432 6.0026115C1.3614474 6.3052735 0.94851249 7.6216848 0.89788015 7.7735784C0.84724781 7.9243468 1.7890093 8.326021 2.0410459 8.4767895C2.2930824 8.6286831 2.4449794 8.8300828 2.1929429 9.0314824C1.9409063 9.2328821 1.538098 9.3352696 1.2354291 9.2846384C0.93276021 9.2328821 0.579459 9.0314824 0.3780548 9.5366693C0.20590485 9.9619714 0.31504567 10.617927 0.0 10.764195" />
		<path id="path17" d="M0.0 4.8752234C0.04838201 4.8673434 0.0945137 4.8729734 0.12939376 4.9067274C0.25203653 5.0293674 0.16427376 5.0822488 0.3780548 4.9944884C0.3780548 4.9944884 1.2376794 4.7075783 1.4672127 4.2946527C1.696746 3.8828519 1.4559611 3.4620503 1.7485035 3.1211336C2.214321 2.5821926 2.3707187 1.7090856 2.9760564 2.0117477C2.9760564 2.0117477 3.1583328 2.0938827 3.4339978 1.8418519C3.7085376 1.5886959 4.0820917 1.2005233 3.6320265 1.0047494C3.1155766 0.78197208 2.9197982 0.4016755 2.4663575 0.6042003C2.0129168 0.80672511 0.6402178 2.0128728 0.68972498 2.5686909C0.72122955 2.9152333 0.39493225 3.4384224 0.39493225 3.4384224C0.39493225 3.4384224 0.28691659 3.5711887 0.19915387 3.5891909C0.14739637 3.5993171 0.07201044 3.5295586 0.0 3.4688011" />
		<path id="path19" d="M0.0 40.106663C0.0 40.106663 0.15752283 40.026783 0.15752283 40.026783C0.46919301 39.828758 0.74823346 39.527221 0.85962461 39.332573C0.85962461 39.332573 1.1611683 39.63636 1.4649624 39.585729C1.7676312 39.533969 1.9690354 38.677742 1.7676312 38.173681C1.566227 37.669615 1.1622935 38.021783 1.1622935 38.021783C0.8720014 37.731497 0.55583057 38.172551 0.15752283 38.666487C0.15752283 38.666487 0.0 38.790252 0.0 38.790252" />
		<path id="path21" d="M12.745848 17.86944C12.292407 18.423008 13.300553 18.423008 13.804626 18.020208C14.309824 17.617409 14.409964 17.365378 14.914037 17.365378C15.419235 17.365378 15.570007 17.466641 16.224852 17.264116C16.880822 17.062716 16.931454 15.700174 15.872676 15.700174C14.813897 15.701274 13.320806 17.166229 12.745848 17.86944C12.745848 17.86944 12.745848 17.86944 12.745848 17.86944" />
		<path id="path23" d="M13.48508 42.782241C13.990278 42.379442 14.089292 42.127411 14.594491 42.127411C15.099689 42.127411 15.250461 42.228673 15.905306 42.026148C16.561276 41.824749 16.611908 40.462207 15.55313 40.462207C14.494351 40.462207 13.002385 41.928261 12.426301 42.631473C11.973986 43.18504 12.981007 43.18504 13.48508 42.782241C13.48508 42.782241 13.48508 42.782241 13.48508 42.782241" />
		<path id="path25" d="M13.600972 7.5361743C13.096898 7.8883424 13.147531 9.2002531 13.954273 8.3428981C13.954273 8.3428981 14.004903 8.2135072 14.004903 8.2135072C14.055533 7.7589516 14.105043 7.1817559 13.60097 7.5361743C13.60097 7.5361743 13.600972 7.5361743 13.600972 7.5361743" />
		<path id="path27" d="M14.483099 3.4699263C14.483099 3.1177581 14.381835 3.1177581 14.079166 2.9669897C13.776497 2.8139709 13.776497 2.8150961 13.625725 2.6148216C13.474953 2.4111716 13.222917 2.3616655 12.869616 2.3616655C12.516314 2.3616655 12.516314 2.4111715 12.164138 2.1085095C11.811962 1.8058475 11.054727 1.8047223 10.802691 2.3616655C10.550654 2.9163585 11.055853 3.5723138 11.660065 3.5205575C12.264278 3.4699265 12.566947 3.5205575 12.566947 3.9233568C12.566947 4.3261561 12.31491 5.0833739 11.508168 4.8324682C10.701426 4.5793122 10.398757 4.0257444 9.8946843 4.1258816C9.3906112 4.227144 9.3399789 4.6299434 9.7427873 5.4377923C10.026328 6.0026115 10.196228 6.7485778 11.053602 6.1432537C11.910977 5.5379296 12.213645 4.9326054 12.920248 5.1351302C12.920248 5.1351302 13.767496 4.6974516 13.426571 4.2890266C13.085647 3.8794764 13.077771 3.8727256 13.525591 3.7737135C14.133179 3.6375718 14.483104 3.8220945 14.483104 3.4699263C14.483104 3.4699263 14.483099 3.4699263 14.483099 3.4699263" />
		<path id="path29" d="M14.654124 12.926709C14.503352 12.372017 13.747243 11.818449 13.393942 12.069354C13.04064 12.321385 11.780458 14.692051 10.671047 15.29625C9.561636 15.900449 8.4522252 16.102973 8.2001887 15.699049C7.947027 15.29625 7.8975198 14.490651 7.4935862 14.490651C7.0907779 14.490651 7.0401455 14.994713 6.8376162 15.349131C6.6350868 15.700174 6.5844545 16.155855 5.9296095 16.104099C5.2747646 16.053469 4.7695664 16.054589 4.4162652 16.658792C4.0640891 17.264116 3.9628244 18.574901 4.9214634 17.86944C5.8801024 17.162853 7.2415497 15.800311 7.8975198 16.456267C8.5523647 17.112222 8.7537689 18.221608 9.0564378 18.221608C9.3591067 18.221608 9.8631797 17.414884 10.317746 16.910822C10.772312 16.406761 10.822944 16.406761 11.325892 16.456267C11.829965 16.506897 12.233898 16.35613 12.233898 15.751931C12.233898 15.297375 12.991133 14.590788 13.747243 14.138483C14.503352 13.683927 14.806021 13.481402 14.654124 12.926709C14.654124 12.926709 14.654124 12.926709 14.654124 12.926709" />
		<path id="path31" d="M14.888158 44.464322C15.241459 44.160535 14.815018 43.680101 14.38296 44.111029C14.081416 44.413691 14.534857 44.766984 14.888158 44.464322C14.888158 44.464322 14.888158 44.464322 14.888158 44.464322" />
		<path id="path33" d="M14.915162 33.664124C14.915162 33.664124 14.965792 33.535859 14.965792 33.535859C15.016422 33.082428 15.065932 32.505232 14.561859 32.8574C14.058911 33.209569 14.109543 34.521479 14.91516 33.664124C14.91516 33.664124 14.915162 33.664124 14.915162 33.664124" />
		<path id="path35" d="M16.575903 18.726795C16.929204 18.423008 16.502763 17.943699 16.070705 18.374627C15.769161 18.676164 16.222602 19.029457 16.575903 18.726795C16.575903 18.726795 16.575903 18.726795 16.575903 18.726795" />
		<path id="path37" d="M16.734551 43.419069C16.986587 43.6711 17.49066 43.468579 17.945226 43.115282C18.398667 42.763114 19.105269 42.359189 19.861379 42.257927C20.618614 42.156664 20.466717 41.804496 20.466717 41.248678C20.466717 40.69511 20.417207 40.592723 20.669246 40.140417C20.921283 39.686987 21.274584 39.130044 21.677392 39.130044C22.080201 39.130044 22.232098 38.878013 22.28273 38.575351C22.33336 38.272689 22.182591 38.224308 21.62676 38.224308C21.072055 38.224308 21.281335 38.132048 21.021422 37.821508C20.769386 37.517721 20.718753 37.517721 20.21468 37.872138C19.710607 38.225431 19.710607 38.979273 19.710607 39.485585C19.710607 39.989647 19.206534 40.443078 18.34916 41.048402C17.49066 41.653726 16.481389 43.167036 16.734551 43.419067C16.734551 43.419067 16.734551 43.419069 16.734551 43.419069" />
		<path id="path39" d="M17.049596 35.941403C17.049596 35.941403 17.193617 35.986413 17.193617 35.986413C17.515414 36.140557 17.630181 36.283449 17.964354 36.229442C18.298527 36.176562 18.654079 35.548734 17.495161 34.86465C16.335118 34.182817 15.186326 34.137811 14.974796 34.81177C14.76214 35.484602 15.276339 35.699504 15.817543 35.657873C16.358746 35.617373 16.439758 35.696123 17.049596 35.941408C17.049596 35.941408 17.049596 35.941403 17.049596 35.941403" />
		<path id="path41" d="M17.458031 9.4320315C16.363247 8.6489356 15.224582 8.5004174 14.952292 9.1529973C14.680003 9.803327 14.824024 10.541417 15.366352 10.549293C15.908681 10.557193 16.331742 10.165621 16.917952 10.463783C16.917952 10.463783 17.057473 10.523413 17.057473 10.523413C17.363517 10.70456 16.646788 9.9405918 16.984333 9.9169639C17.320757 9.8944609 18.549435 10.218501 17.458027 9.4320295C17.458027 9.4320295 17.458031 9.4320315 17.458031 9.4320315" />
		<path id="path43" d="M17.532291 37.328698C16.674917 37.530098 16.825689 38.28169 16.825689 39.194177C16.825689 39.647607 18.288401 39.143547 19.045636 38.135422C19.801745 37.127298 18.389666 37.127298 17.532291 37.328698C17.532291 37.328698 17.532291 37.328698 17.532291 37.328698" />
		<path id="path45" d="M17.668436 45.104525C18.231018 45.544454 17.911471 46.608835 18.598946 46.312923C19.157027 46.073269 19.052387 45.759356 19.657725 45.809987C20.263062 45.860617 20.413834 45.960755 21.019172 45.658093C21.62451 45.355431 21.573877 45.303675 22.128583 45.355431C22.683288 45.406061 22.884692 45.556831 23.339258 44.952632C23.792699 44.347308 23.843331 44.549832 24.247265 44.902002C24.650073 45.25417 25.003374 45.204664 25.054007 44.952632C25.104637 44.699476 24.600566 44.044646 24.398037 43.843246C24.196632 43.640721 23.893964 43.440447 24.751338 42.985891C24.751338 42.985891 25.544578 42.809244 25.265537 42.551588C24.987622 42.293931 25.801115 41.953014 25.45794 41.779743C25.140644 41.795493 24.306898 41.735863 23.539537 42.580841C22.407623 43.829744 22.380619 44.396814 22.07795 44.44632C21.775281 44.49695 21.523245 44.34731 21.271208 44.648845C21.019172 44.951507 21.171069 44.851369 20.363202 44.699475C20.363202 44.699475 19.707232 44.822115 19.619469 44.471072C19.531709 44.120029 18.987127 43.908503 18.845357 44.189787C18.703586 44.471072 18.423421 44.471072 18.229893 44.41819C18.03749 44.36643 17.105855 44.665721 17.668436 45.104525C17.668436 45.104525 17.668436 45.104525 17.668436 45.104525" />
		<path id="path47" d="M18.55394 26.215712C19.141275 26.246092 19.664475 26.195462 19.764615 25.969307C19.887258 25.693648 19.97277 25.34148 20.21468 25.097325C20.21468 25.097325 20.357576 24.939806 20.357576 24.939806C20.512848 24.780036 20.131418 24.374987 20.470092 24.354734C21.327467 24.305224 22.913947 24.401994 23.243619 23.800041C23.322379 23.658274 23.319009 23.211594 23.803951 22.978691C24.290021 22.744662 25.32067 21.305611 24.177505 20.825177C21.243079 19.592026 22.587649 22.741287 22.28498 23.246473C21.982311 23.750535 21.579503 23.447873 21.17557 23.144086C20.772761 22.842549 20.332822 23.807917 19.62622 24.010442C18.919618 24.211842 18.97025 23.706655 18.415544 23.657149C17.860839 23.607639 17.507538 23.959811 17.355641 24.616891C17.326391 24.746282 17.289261 24.85542 17.245375 24.945431C17.245375 24.945431 17.073225 25.102951 17.073225 25.102951C16.894324 25.453994 16.579278 24.879048 15.980692 24.879048C15.224582 24.879048 14.770016 25.58451 14.972545 26.089697C14.972545 26.089697 15.425986 26.492496 15.931184 26.039067C16.435257 25.584512 15.972814 25.726279 16.678293 25.926554C16.678293 25.926554 16.883072 25.961434 16.883072 25.961434C18.24677 26.215715 17.192492 27.819036 17.847337 27.568131C18.502182 27.317225 19.058013 27.76953 18.906116 28.37598C18.755344 28.981304 17.595301 30.290964 16.940456 30.341595C16.284486 30.393355 15.628515 30.140196 15.528376 29.888165C15.427111 29.636134 15.377604 29.686765 15.72978 29.385228C16.081956 29.081441 16.081956 28.981304 15.82992 28.779904C15.577883 28.577379 15.124442 28.880041 15.023178 29.333472C14.923038 29.788028 14.569737 30.09069 14.216436 29.838659C13.863135 29.586628 12.386921 27.743652 12.992258 27.590633C13.597596 27.439865 13.949772 27.641263 13.949772 27.287971C13.949772 26.935803 13.849633 26.935803 13.546964 26.78391C13.244295 26.633141 13.244295 26.633141 13.093523 26.431742C12.942751 26.230342 12.689589 26.178585 12.337413 26.178585C11.985237 26.178585 11.984112 26.229215 11.631936 25.926555C11.278635 25.623893 10.522525 25.623893 10.270489 26.178585C10.018452 26.733278 10.522525 27.389234 11.127863 27.338603C11.733201 27.287973 12.654709 28.577379 12.654709 28.981304C12.654709 29.384103 12.402673 30.140196 11.595931 29.888165C10.789189 29.636131 10.48652 29.081438 9.982447 29.1827C9.478374 29.283963 9.4277416 29.686762 9.83055 30.494611C10.112966 31.05943 10.283991 31.805397 11.141365 31.200072C11.998739 30.594748 12.302533 29.989424 13.008011 30.191949C13.713488 30.394474 13.865385 30.594748 14.066789 31.099935C14.268193 31.603997 14.066789 31.95729 15.125568 31.755891C16.184346 31.553366 17.79783 31.453229 18.404293 30.998673C19.009631 30.545242 19.598091 28.579627 19.614968 28.073315C19.626218 27.687392 19.825374 27.420735 19.739861 27.148451C19.654351 26.875043 19.518204 26.789532 19.289796 26.849165C18.643953 27.013435 17.890093 26.285471 18.55394 26.215712" />
		<path id="path49" d="M18.618074 1.1420162C18.965749 1.1667692 19.068139 0.82472731 18.982627 0.67170857C18.703586 0.17102225 16.044826 0.44218046 16.044826 0.44218046C15.288716 0.44218046 14.83415 1.1476419 15.03668 1.6528287C15.03668 1.6528287 15.49012 2.0556281 15.995319 1.6021977C16.499392 1.1476421 16.036949 0.65033115 16.742427 0.85173082C16.742427 0.85173082 16.947207 0.88548492 16.947207 0.88548492C18.312029 1.1420164 17.256626 2.7453377 17.911471 2.4933069C18.567441 2.241276 19.122147 2.6947065 18.97025 3.3000307C18.819478 3.9053548 17.659435 5.2172655 17.003465 5.2678967C16.34862 5.3185277 15.69265 5.0653717 15.591385 4.814466C15.49012 4.5613099 15.440613 4.6119411 15.792789 4.3092791C16.144965 4.0077421 16.144965 3.9064797 15.894054 3.7039549C15.642017 3.5025553 15.187452 3.8052173 15.087312 4.259773C15.087312 4.259773 13.440073 6.8622167 15.008552 6.7260751C15.008552 6.7260751 15.187453 6.6799441 15.187453 6.6799441C16.24623 6.4774196 17.859714 6.3761572 18.466177 5.9227267C19.071515 5.4704213 19.6611 3.5036804 19.676852 2.9984935C19.688104 2.610321 19.886133 2.3447885 19.801745 2.07138C19.716233 1.7990966 19.580088 1.7147113 19.35168 1.7720933C18.706962 1.9397389 17.953102 1.2106496 18.618074 1.1420162" />
		<path id="path51" d="M18.722714 49.585949C18.722714 49.585949 20.27994 49.169648 20.785138 48.585702C21.381474 47.895992 21.827039 48.208781 21.827039 48.208781C22.684413 48.159271 23.619424 49.387925 24.282145 49.212404C24.908861 49.045883 23.76232 47.585454 24.031233 47.710345C24.242764 47.809355 25.28129 46.508697 23.780322 46.706722C23.511408 46.741602 23.643052 47.737348 23.643052 47.737348C23.340383 48.242535 22.937575 47.300794 22.533641 46.998132C22.129708 46.69547 21.105809 46.935122 20.400332 47.136524C19.69373 47.339049 19.922138 48.385427 19.475448 48.053512C17.973355 46.94075 17.217246 49.335044 18.722714 49.585949C18.722714 49.585949 18.722714 49.585949 18.722714 49.585949" />
		<path id="path53" d="M19.229037 34.579986C19.93564 35.286573 20.639992 35.085173 20.741257 34.73188C20.842521 34.378587 22.153336 34.68237 22.708042 34.329081C23.262747 33.975787 23.161482 33.673125 23.616048 32.966539C24.069489 32.261077 24.018857 31.908909 24.018857 31.10106C24.018857 30.698261 24.410413 30.344968 24.970745 30.060308C24.970745 30.060308 24.979745 30.060308 24.979745 30.060308C24.979745 30.060308 25.83937 29.773398 26.070028 29.361597C26.299561 28.948672 26.057648 28.52787 26.351319 28.188079C26.817136 27.646887 27.640756 26.774906 28.246093 27.078693C28.246093 27.078693 28.42837 27.158573 28.70291 26.907672C28.978575 26.655641 29.352129 26.266343 28.900938 26.071694C28.383363 25.846667 26.593229 25.467495 26.139788 25.67002C25.686347 25.872545 25.241908 27.079818 25.29254 27.634511C25.32404 27.981053 24.997748 28.505367 24.997748 28.505367C24.997748 28.505367 24.962868 28.517747 24.962868 28.517747C24.750212 28.656139 24.527429 28.885667 24.273143 29.287341C23.567665 30.396727 22.969079 29.959049 20.994417 29.339101C20.548853 29.198458 20.195551 29.703645 20.347449 30.258338C20.49822 30.811906 20.843645 30.750023 22.2546 30.750023C23.66668 30.750023 23.465275 31.707516 22.20509 33.070058C20.943782 34.430349 19.808492 31.588251 18.675453 32.666133C17.950848 33.352467 18.522431 33.874531 19.229033 34.579992C19.229033 34.579992 19.229037 34.579986 19.229037 34.579986" />
		<path id="path55" d="M19.514829 13.942709C18.705837 13.820069 18.97025 12.624047 19.088392 12.410271C19.699356 11.307636 18.454925 11.635051 17.575048 11.602422C15.072685 11.513532 16.227102 13.626545 17.509788 12.835573C18.183761 12.420397 18.459426 13.99559 17.756199 14.435519C17.052972 14.875448 19.374183 16.035465 19.988522 15.507776C20.603987 14.980086 20.322696 14.065349 19.514829 13.942709C19.514829 13.942709 19.514829 13.942709 19.514829 13.942709" />
		<path id="path57" d="M20.911156 16.070345C19.779242 17.318122 19.751113 17.885192 19.448444 17.935823C19.145775 17.986453 18.893739 17.835686 18.641702 18.138348C18.389666 18.44101 18.540438 18.339747 17.733696 18.188978C16.926954 18.035959 17.927224 19.63478 17.220621 20.190598C16.514019 20.744166 16.161843 20.795922 15.909806 20.341367C15.65777 19.887936 15.506998 19.282612 14.700256 19.989198C13.892389 20.69466 13.590845 20.797047 13.136279 20.341367C12.681713 19.887936 11.925604 18.878687 11.068229 19.029456C10.210855 19.182475 10.413384 19.282612 10.413384 19.63478C10.413384 19.989198 11.018722 20.49326 11.7242 20.49326C12.429677 20.49326 13.085647 21.653277 12.38017 22.258601C11.674692 22.8628 11.046851 22.745786 10.336873 22.874052C10.123092 22.913432 9.7292853 22.516258 9.6516491 22.399244C9.5740131 22.282229 9.1329489 22.469004 9.0541875 22.645649C8.9754265 22.82117 9.1295735 23.519881 9.7720415 23.616643C10.41451 23.714533 10.849948 24.08245 11.141365 23.439996C11.433907 22.797542 12.673837 22.997817 12.834735 23.013569C13.799 23.113706 13.793374 23.266725 13.944146 23.416368C14.096043 23.569387 14.498852 23.669524 14.801521 22.8628C15.104189 22.056077 15.154822 21.552015 16.062828 21.602646C16.970835 21.653276 17.424276 21.804046 17.828209 21.34949C18.231018 20.89606 18.28165 20.794797 18.886988 20.845428C19.492326 20.896058 17.785453 19.449132 18.390791 19.145345C18.996129 18.842683 18.945496 18.793177 19.500202 18.842683C20.054907 18.893313 20.257436 19.044083 20.710877 18.439884C21.164318 17.83456 21.21495 18.037084 21.618884 18.389254C22.021692 18.741422 22.374993 18.69079 22.425626 18.439884C22.476256 18.187853 21.97106 17.531898 21.769656 17.331623C21.568251 17.129098 21.264457 16.928824 22.121832 16.473143C22.121832 16.473143 22.915072 16.296496 22.637156 16.039965C22.358116 15.782308 23.172734 15.440266 22.829559 15.26812C22.512263 15.28387 21.678517 15.22424 20.911156 16.070345C20.911156 16.070345 20.911156 16.070345 20.911156 16.070345" />
		<path id="path59" d="M20.951662 28.111569C20.648993 28.414231 21.103559 28.766399 21.45686 28.463737C21.809036 28.161075 21.3826 27.680641 20.951662 28.111569C20.951662 28.111569 20.951662 28.111569 20.951662 28.111569" />
		<path id="path61" d="M21.728025 37.669615C21.930554 38.021783 23.241369 37.569478 23.896214 37.216184C24.245014 37.027161 24.624194 36.925899 24.981996 36.927024C24.981996 36.927024 25.047256 36.951774 25.047256 36.951774C25.177775 37.037284 25.452314 37.098042 25.944011 36.455588C26.599981 35.597108 26.952157 35.042415 27.557495 35.042415C28.162832 35.042415 28.465501 34.639616 28.262972 34.034292C28.061568 33.428967 27.062423 32.501854 27.21207 32.248698C27.362841 31.995542 28.632025 31.108933 28.111075 30.483357C27.432602 29.666507 25.774111 30.032176 26.42333 31.005421C26.624734 31.305832 26.210674 32.623369 26.160042 32.775262C26.109412 32.927156 27.052296 33.327705 27.304333 33.479599C27.556369 33.631492 27.707141 33.832892 27.455105 34.034292C27.203068 34.235691 26.80026 34.338079 26.497591 34.287448C26.194922 34.235688 25.841621 34.034292 25.640217 34.539478C25.438813 35.042415 25.626717 35.869391 25.046131 35.792882C25.046131 35.792882 25.014631 35.801882 25.014631 35.801882C24.879611 35.708492 24.700711 35.564478 24.549939 35.450839C23.944601 34.997409 23.893969 35.653364 23.692564 36.258688C23.49116 36.864012 23.226747 36.869638 22.885822 36.76275C22.081331 36.510719 21.5255 37.316318 21.72803 37.669611C21.72803 37.669611 21.728025 37.669615 21.728025 37.669615" />
		<path id="path63" d="M22.456005 0.33529237C22.456005 0.33529237 21.911426 0.06638444 21.576128 0.25203217C21.343219 0.38029788 20.599486 0.95074275 21.057427 1.4514291C21.365722 1.7878453 21.741527 2.871353 22.404248 1.7473403C22.69454 1.2567802 23.010711 0.33529237 22.456008 0.33529237C22.456008 0.33529237 22.456005 0.33529237 22.456005 0.33529237" />
		<path id="path65" d="M2.5451189 24.288351C3.0401907 24.180338 3.8345558 24.665272 4.1563525 24.349111C4.477024 24.034073 4.9417163 23.669528 5.5796838 23.833798C6.215401 23.998068 7.5487192 22.769418 7.5858496 22.17422C7.6229796 21.579022 7.5757236 20.676662 7.9729057 20.918566C8.3700883 21.161596 8.9202931 20.241233 8.7638954 19.760799C8.6074977 19.281488 7.9380257 19.33887 7.5385928 19.415379C7.1391599 19.491889 7.1639135 21.038953 6.9512576 21.690408C6.739727 22.342988 6.4539355 22.116835 5.9127321 21.922186C5.3726538 21.726412 5.1915025 22.314859 4.932715 22.823422C4.6728024 23.331984 3.428372 23.308356 2.7127682 23.172214C2.4033484 23.113704 2.1490615 23.329734 2.1344344 23.741534C2.1209324 24.153334 2.5451189 24.288351 2.5451189 24.288351C2.5451189 24.288351 2.5451189 24.288351 2.5451189 24.288351" />
		<path id="path67" d="M2.8196587 20.379622C3.1223276 19.774298 3.1223276 19.068837 2.8196587 18.766175C2.5169899 18.463513 1.7102479 19.219605 1.2568072 20.430253C1.0689049 20.93094 2.5169899 20.984946 2.8196587 20.379623C2.8196587 20.379623 2.8196587 20.379622 2.8196587 20.379622" />
		<path id="path69" d="M23.189611 40.702986C23.405643 40.789626 23.670056 40.709786 23.915342 40.560094C23.915342 40.560094 23.915342 40.537594 23.915342 40.537594C24.227012 40.33957 24.506052 40.039158 24.616318 39.845634C24.616318 39.845634 24.918987 40.147171 25.221656 40.097665C25.524325 40.047035 25.725729 39.189679 25.524325 38.685617C25.322921 38.182681 24.918987 38.534849 24.918987 38.534849C24.628695 38.243438 24.312524 38.684492 23.914217 39.178428C23.914217 39.178428 23.897337 39.168298 23.897337 39.168298C23.74319 39.349446 23.580041 39.537344 23.404516 39.699363C22.749671 40.304688 22.74517 40.525215 23.189609 40.702986C23.189609 40.702986 23.189611 40.702986 23.189611 40.702986" />
		<path id="path71" d="M23.342634 3.0311225C23.039965 3.3326595 23.494531 3.6859527 23.847832 3.3832907C24.200008 3.0806286 23.773572 2.5990696 23.342634 3.0311225C23.342634 3.0311225 23.342634 3.0311225 23.342634 3.0311225" />
		<path id="path73" d="M23.347134 25.979433C23.347134 25.979433 22.802555 25.710525 22.467257 25.896173C22.234348 26.023313 21.490615 26.593758 21.948557 27.094445C22.256851 27.431986 22.632656 28.515494 23.295377 27.391481C23.585669 26.899796 23.900715 25.979433 23.347137 25.979433C23.347137 25.979433 23.347134 25.979433 23.347134 25.979433" />
		<path id="path75" d="M23.891713 19.156597C24.259642 19.524518 24.095368 19.237607 24.890858 19.365873C25.441063 19.455883 25.785363 18.945072 25.578333 18.736921C25.025878 18.175477 24.519554 17.879566 23.963724 18.433134C23.411269 18.988952 23.691434 18.955198 23.891714 19.156597C23.891714 19.156597 23.891713 19.156597 23.891713 19.156597" />
		<path id="path77" d="M25.795489 48.376426C26.621359 49.072886 26.603356 46.893495 27.136684 46.946376C27.640757 46.998136 28.565641 48.659961 28.968449 48.459686C29.372383 48.258287 29.927088 48.056887 30.481794 48.409056C31.036499 48.761224 32.00864 47.988255 32.265177 47.450439C32.622979 46.697722 31.390925 46.693221 31.390925 46.693221C30.937485 46.342178 30.583058 46.845115 30.18025 47.249039C29.777441 47.651838 28.887437 47.003759 28.2821 46.60096C27.676762 46.19816 27.172689 45.303676 27.172689 45.303676C24.476798 45.215916 26.323191 46.841739 25.96989 47.245664C25.96989 47.245664 25.093387 47.784605 25.795489 48.376427C25.795489 48.376427 25.795489 48.376426 25.795489 48.376426" />
		<path id="path79" d="M25.949637 41.362317C26.035147 41.576093 26.633736 42.453701 26.592105 42.710232C26.549345 42.966764 27.941175 42.881253 28.069444 42.624722C28.197712 42.369315 27.877041 42.026148 27.919797 41.811247C27.962557 41.596346 28.776046 41.363442 28.947071 40.848129C29.314999 39.744369 29.704306 37.922771 30.460415 38.125296C31.216525 38.32782 32.073899 38.477464 32.679237 38.125296C33.284575 37.772002 33.235068 37.519972 33.83928 37.621234C34.444618 37.722496 35.755433 37.519972 36.310138 37.217309C36.864844 36.915773 37.115755 36.763879 37.166388 36.359954C37.217018 35.957155 37.952877 35.555481 37.973129 34.695876C37.985509 34.161435 38.051889 33.957785 39.234437 34.230069C40.416984 34.502352 37.960753 31.95504 37.687338 32.501857C37.415049 33.047549 37.415049 33.593241 36.869344 33.047549C36.32364 32.501857 36.505917 32.137312 36.050226 32.228448C35.59566 32.320708 34.644897 33.283828 34.644897 33.283828C34.342228 33.587615 33.838155 34.03992 33.586119 34.090552C33.334082 34.141182 32.778251 34.594613 32.980781 34.897275C33.18331 35.201063 33.687383 35.603862 34.39286 34.947905C35.098338 34.293074 35.753183 34.293074 36.106484 34.645242C36.459785 34.998536 36.409153 35.855891 35.753183 36.107922C35.097213 36.359952 34.139699 36.965277 33.584993 36.461215C33.030288 35.956028 32.827759 35.702872 32.526215 36.006659C32.223546 36.309321 31.920877 36.358827 31.315539 36.409459C30.710202 36.461219 29.348754 36.662615 28.995453 37.116045C28.643277 37.56835 27.584499 37.770875 27.584499 38.073537C27.584499 38.377325 28.139204 38.677736 28.340608 38.82963C28.543138 38.981524 28.693909 39.28306 28.492505 39.636354C28.291101 39.989647 27.988432 40.99777 27.18169 40.847002C26.374948 40.695108 26.676492 40.796372 26.273684 40.998896C26.273684 41.001196 25.864124 41.147414 25.949637 41.362315C25.949637 41.362315 25.949637 41.362317 25.949637 41.362317" />
		<path id="path81" d="M26.345694 14.453521C26.648363 14.404011 26.849767 13.54666 26.648363 13.042599C26.446959 12.538537 26.043025 12.890705 26.043025 12.890705C25.752733 12.60042 25.436562 13.041474 25.038254 13.535409C25.038254 13.535409 25.021374 13.525279 25.021374 13.525279C24.867227 13.705301 24.704078 13.893199 24.528553 14.055219C23.872582 14.660543 23.868082 14.88107 24.312521 15.059967C24.528553 15.145477 24.792966 15.065567 25.038251 14.915949C25.038251 14.915949 25.038251 14.893449 25.038251 14.893449C25.349922 14.695425 25.628962 14.396138 25.739228 14.20149C25.740328 14.20259 26.043022 14.504152 26.345691 14.45352C26.345691 14.45352 26.345694 14.453521 26.345694 14.453521" />
		<path id="path83" d="M27.55862 9.9619714C28.163958 9.9619714 28.466626 9.5591721 28.264097 8.9538479C28.062693 8.3496489 27.063548 7.4214102 27.213195 7.1682542C27.363967 6.9162234 28.633151 6.0296148 28.1122 5.4040382C27.433727 4.5871881 25.775236 4.9528579 26.424455 5.924977C26.62586 6.227639 26.2118 7.5429251 26.161167 7.6948187C26.110537 7.8467123 27.053422 8.2483865 27.305458 8.4002801C27.557495 8.5510486 27.708267 8.7524483 27.45623 8.9538479C27.204193 9.1563727 26.801385 9.2576351 26.498716 9.2070039C26.196047 9.1563729 25.842746 8.9538479 25.641342 9.4590348C25.439938 9.9630965 25.627842 10.788948 25.047256 10.712438C25.047256 10.712438 25.015756 10.722568 25.015756 10.722568C24.880737 10.628058 24.701836 10.484038 24.551064 10.371525C23.945726 9.918094 23.895094 10.574049 23.69369 11.179373C23.492285 11.784698 23.227872 11.790323 22.886948 11.683435C22.080206 11.430279 21.524375 12.237003 21.726904 12.590296C21.929434 12.94359 23.240249 12.490159 23.895094 12.137991C24.243894 11.948968 24.623074 11.847705 24.980876 11.84883C24.980876 11.84883 25.046136 11.87358 25.046136 11.87358C25.176655 11.95909 25.451194 12.018722 25.942891 11.376269C26.601111 10.516663 26.953287 9.9619704 27.558625 9.9619704C27.558625 9.9619704 27.55862 9.9619714 27.55862 9.9619714" />
		<path id="path85" d="M28.346234 0.91586347C27.829784 0.69308619 27.634006 0.31278961 27.180565 0.51531442C26.727124 0.71783922 25.354425 1.9251121 25.403932 2.479805C25.435437 2.8263475 25.10914 3.3517868 25.10914 3.3517868C25.10914 3.3517868 24.915612 3.4789274 24.915612 3.4789274C24.702956 3.6184445 24.480174 3.8479726 24.225887 4.2496468C23.520409 5.3590326 22.922948 4.921354 20.948287 4.3002778C20.502722 4.1596356 20.149421 4.6648224 20.300193 5.2195154C20.45209 5.7742083 20.79639 5.7112006 22.208469 5.7112006C23.619424 5.7112006 23.419145 6.6709431 22.157839 8.0312347C20.896531 9.3926515 19.760116 6.5494282 18.627077 7.6284354C17.903597 8.3170197 18.476305 8.8379585 19.181783 9.5445451C19.888385 10.250007 20.593862 10.048607 20.695127 9.6953135C20.796392 9.3431454 22.106081 9.6458075 22.661912 9.2925142C23.216617 8.9403461 23.116478 8.637684 23.569919 7.9310975C24.023359 7.2256361 23.972727 6.8734679 23.972727 6.065619C23.972727 5.6628197 24.364284 5.3084012 24.92574 5.0248665C24.92574 5.0248665 25.093389 4.9089773 25.093389 4.9089773C25.093389 4.9089773 25.953014 4.6220672 26.182547 4.2102668C26.412081 3.7973412 26.171297 3.3765396 26.463838 3.0356229C26.929656 2.4966819 27.086053 1.623575 27.691391 1.9273622C27.691391 1.9273622 27.873667 2.0083722 28.149332 1.7563412C28.422747 1.5009349 28.796301 1.1105121 28.346236 0.91586327C28.346236 0.91586327 28.346234 0.91586347 28.346234 0.91586347" />
		<path id="path87" d="M28.549888 18.446636C28.24722 18.142848 27.440478 18.900066 26.987037 20.110714C26.799135 20.612526 28.24722 20.665407 28.549888 20.060084C28.852557 19.455885 28.852557 18.750424 28.549888 18.446636C28.549888 18.446636 28.549888 18.446636 28.549888 18.446636" />
		<path id="path89" d="M28.683783 29.389726C28.886312 29.741894 29.237363 30.227953 29.589539 30.378722C29.94284 30.530616 32.103154 31.809897 30.379404 33.324333C29.969844 33.683252 30.099238 33.54711 29.695305 33.850897C29.292496 34.153559 29.430891 34.343708 29.695305 34.744257C29.946216 35.126803 29.995723 35.13918 30.549303 35.34058C31.104009 35.541979 30.901479 34.583362 30.953237 33.827269C31.003867 33.071177 32.365317 32.617746 32.818757 32.061928C33.272198 31.50836 32.768127 31.003173 31.910751 30.953667C31.053376 30.903037 31.305413 30.500237 31.456185 30.145818C31.608082 29.79365 31.758854 29.944419 31.910751 29.490988C32.061523 29.037558 31.758854 29.288463 31.154641 29.540498C30.549303 29.793654 30.7012 29.339099 30.7012 28.683143C30.7012 28.027188 30.423285 27.715525 30.953237 27.792034C31.658714 27.893297 32.933524 27.222714 33.034789 26.819915C33.136053 26.417116 33.377963 26.070573 34.284845 26.373235C34.284845 26.373235 34.551508 26.250595 34.738286 26.322605C35.222106 26.510503 35.504522 26.953807 35.857823 26.249475C35.857823 26.249475 36.193121 26.201095 36.193121 26.201095C36.431656 25.722912 36.494665 25.658779 35.948961 25.776918C35.403257 25.897308 35.199602 25.640777 34.993698 25.42025C34.788918 25.198597 34.140824 25.316737 33.731265 25.48888C33.321705 25.658776 32.277554 25.50913 32.277554 25.50913C31.722848 25.50913 30.63144 26.289975 30.245509 26.734405C30.053106 26.957182 29.933839 27.039317 29.796569 27.567007C29.658174 28.094696 29.641297 27.978807 29.641297 27.978807C29.289121 28.633637 28.482379 29.036437 28.683783 29.38973C28.683783 29.38973 28.683783 29.389726 28.683783 29.389726" />
		<path id="path91" d="M28.738916 22.142713C28.390115 21.552016 26.025023 21.540764 25.634591 22.392494C25.482694 22.718784 25.691971 22.961814 25.644721 23.463625C25.597461 23.964311 26.333321 24.747407 26.66862 24.424493C27.002793 24.100453 27.411227 22.140463 28.860438 22.813295C29.401641 23.064201 30.268017 24.542632 30.853101 24.244471C31.439311 23.945184 31.971513 24.199461 32.354069 24.437994C32.736624 24.677649 34.044064 24.032945 34.551512 24.029569C34.551512 24.029569 35.190605 24.259097 35.160226 23.962059C35.129846 23.665023 34.416493 22.314857 34.920566 22.364363C35.423514 22.412743 35.942214 22.725533 35.682301 22.168589C35.455018 21.68028 35.53378 21.595894 35.031957 21.548638C35.031957 21.548638 34.844055 21.378743 34.204962 21.72191C33.564744 22.066202 31.628339 23.55926 31.266036 23.118206C30.902609 22.677152 30.597689 22.142711 30.113869 22.449874C29.627799 22.760412 29.08772 22.733409 28.73892 22.142711C28.73892 22.142711 28.738916 22.142713 28.738916 22.142713" />
		<path id="path93" d="M29.281245 45.46457C29.892208 45.173159 30.324271 44.61509 30.270263 44.189788C30.217383 43.766737 29.116971 43.869124 28.016561 44.545332C27.56087 44.826616 28.671406 45.75598 29.281245 45.46457C29.281245 45.46457 29.281245 45.46457 29.281245 45.46457" />
		<path id="path95" d="M29.373508 7.3392752C29.373508 7.3392752 29.477023 7.2470142 29.477023 7.2470142C29.73131 6.8678427 30.041855 6.3795329 29.430893 6.4594177C28.82218 6.5404277 28.261849 7.727448 29.373513 7.3392755C29.373513 7.3392755 29.373508 7.3392752 29.373508 7.3392752" />
		<path id="path97" d="M31.820738 42.985891C32.512713 44.141407 33.452224 43.655348 32.748997 42.542587C32.458705 42.084656 31.584453 42.590967 31.820738 42.985891C31.820738 42.985891 31.820738 42.985891 31.820738 42.985891" />
		<path id="path99" d="M32.189791 18.305993C31.887122 17.700669 30.750708 18.357753 31.029748 18.859561C31.281785 19.315242 32.491335 18.911321 32.189791 18.305993C32.189791 18.305993 32.189791 18.305993 32.189791 18.305993" />
		<path id="path101" d="M32.536341 46.289296C32.730995 46.289296 33.840405 45.397061 33.840405 45.201287C33.840405 45.006638 32.638731 44.791737 32.444078 44.791737C32.249425 44.791737 31.449434 45.181035 31.449434 45.374559C31.449434 45.570332 32.341688 46.289296 32.536341 46.289296C32.536341 46.289296 32.536341 46.289296 32.536341 46.289296" />
		<path id="path103" d="M32.828884 50.0C32.828884 50.0 32.903144 49.899863 32.903144 49.899863C33.305952 49.697338 33.607496 49.525192 34.314098 49.373298C35.0207 49.22253 36.43278 48.618331 37.138257 48.013007C37.84486 47.406557 37.187767 46.247665 36.482287 46.247665C35.77681 46.247665 35.171472 45.743604 35.171472 45.389185C35.171472 45.038142 34.970068 44.935755 35.826317 44.784986C36.683692 44.633093 37.439801 45.642341 37.894367 46.096897C38.347808 46.550328 38.650477 46.44794 39.458344 45.743604C40.265086 45.037017 40.416983 45.642341 40.669019 46.096897C40.921056 46.550328 41.195596 46.381557 41.979834 45.945003C42.249873 45.794235 42.531164 46.146403 42.460279 46.77873C42.389399 47.411058 40.91318 48.959248 40.984065 48.395553C41.054955 47.831859 41.359869 47.51232 40.819791 47.355926C39.946665 47.10277 39.861152 47.809357 39.558483 48.616081C39.255814 49.422804 38.853006 49.321542 38.701109 49.170773C38.550337 49.02113 38.550337 48.919868 37.591698 48.769099C36.9166 48.661086 36.441781 49.281037 36.096356 49.903238C36.096356 49.903238 36.035599 50.0 36.035599 50.0" />
		<path id="path105" d="M32.905395 20.791423C32.854765 20.23673 32.5971 19.826054 31.739726 20.431379C30.882352 21.036703 31.404427 21.597021 31.806116 21.559892C32.360821 21.509262 32.956032 21.346116 32.9054 20.791423C32.9054 20.791423 32.905395 20.791423 32.905395 20.791423" />
		<path id="path107" d="M33.004409 28.68539C33.256446 29.13882 34.465996 28.73602 34.164452 28.130697C33.861783 27.524247 32.724244 28.182457 33.004409 28.68539C33.004409 28.68539 33.004409 28.68539 33.004409 28.68539" />
		<path id="path109" d="M33.717763 48.458561C34.272468 48.407931 35.532651 47.701343 35.482018 47.147776C35.431388 46.593083 35.280614 46.542452 34.42324 47.147776C33.566991 47.751975 33.314954 48.494566 33.717763 48.458561C33.717763 48.458561 33.717763 48.458561 33.717763 48.458561" />
		<path id="path111" d="M3.4587514 45.141655C3.7614202 44.536331 3.7614202 43.830869 3.4587514 43.528207C3.1560825 43.22442 2.3482154 43.980513 1.8958998 45.192286C1.7079976 45.692973 3.1560825 45.746979 3.4587514 45.141656C3.4587514 45.141656 3.4587514 45.141655 3.4587514 45.141655" />
		<path id="path113" d="M3.7715467 40.913387C4.139475 39.810752 4.5287815 37.988029 5.2848911 38.191679C5.2848911 38.191679 5.7079524 37.660614 5.4356629 37.297194C5.1622483 36.933775 6.5754532 37.111547 6.1411402 36.476969C5.7990906 35.976282 4.1743551 36.730125 3.8221791 37.183555C3.4688778 37.635861 2.4100994 37.838386 2.4100994 38.142173C2.4100994 38.444835 2.9648048 38.746372 3.166209 38.898265C3.3687383 39.050159 3.5195102 39.351696 3.318106 39.704989C3.1167018 40.057157 2.8129077 41.065281 2.007291 40.913387C1.1994239 40.762619 1.5020927 40.863877 1.0992843 41.066406C1.0992843 41.066406 0.68972498 41.212674 0.77523738 41.427575C0.86074978 41.640226 1.4604617 42.518959 1.4177055 42.77549C1.3738245 43.032022 2.7656509 42.946511 2.8939195 42.68998C3.0233132 42.432323 2.7015166 42.090281 2.7442728 41.876505C2.787029 41.662729 3.6005219 41.4287 3.7715467 40.913387C3.7715467 40.913387 3.7715467 40.913387 3.7715467 40.913387" />
		<path id="path115" d="M4.2823708 32.419722C4.2823708 32.419722 4.3858858 32.328582 4.3858858 32.328582C4.6401726 31.948285 4.9507176 31.4611 4.3397538 31.540985C3.7299154 31.620875 3.1707093 32.809016 4.2823708 32.419718C4.2823708 32.419718 4.2823708 32.419722 4.2823708 32.419722" />
		<path id="path117" d="M4.3825103 49.079637C4.7841935 49.284412 5.3411492 48.675713 5.8958546 49.029007C6.4505601 49.383425 7.4598314 48.626208 7.6792382 48.071515C7.898645 47.517947 8.7706464 47.920746 9.0733152 48.27404C9.3759841 48.625083 10.182726 47.919621 10.182726 47.414434C10.182726 46.911498 9.5278811 46.759604 9.1239476 46.708973C8.720014 46.658343 8.2665733 46.860867 7.8626397 47.414434C7.4587062 47.969127 7.257302 47.66759 6.8038613 47.314297C6.3504205 46.962129 5.9971193 47.466191 5.5931858 47.86899C5.5931858 47.86899 5.5448038 47.538199 5.1701244 47.443688C4.79432 47.3503 3.4553759 48.605954 4.3825103 49.079637C4.3825103 49.079637 4.3825103 49.079637 4.3825103 49.079637" />
		<path id="path119" d="M4.3858858 7.2470139C4.6401726 6.8678424 4.9507176 6.3795326 4.3397541 6.4594174C3.7299157 6.5404273 3.1707096 7.7274477 4.2823708 7.3392752C4.2823708 7.3392752 4.3858858 7.2470139 4.3858858 7.2470139" />
		<path id="path121" d="M34.625769 8.2135072C34.3231 8.5161693 33.199062 8.040236 32.947026 8.0919924C32.694989 8.1426234 32.140284 8.5960541 32.341688 8.8987162C32.544218 9.2025034 33.048291 9.6053027 33.753768 8.9493472C33.753768 8.9493472 34.238713 8.6995666 34.029433 9.6604343C33.956293 10.001351 34.966694 9.6581843 35.666545 9.1147424C36.786082 8.246136 36.892973 11.870205 35.734055 11.038728C35.164722 10.629178 34.120571 11.897208 33.565866 11.392022C33.01116 10.886835 32.808631 10.633679 32.505962 10.937466C32.204418 11.241253 31.900624 11.289634 31.295286 11.340265C30.689949 11.392025 29.328501 11.593421 28.976325 12.046852C28.623024 12.499157 27.564246 12.702807 27.564246 13.004344C27.564246 13.308131 28.118951 13.608543 28.320355 13.760437C28.521759 13.91233 28.672531 14.213867 28.471127 14.568286C28.269723 14.920454 27.967054 15.928577 27.160312 15.777809C26.35357 15.625915 26.655114 15.727179 26.252305 15.929702C26.252305 15.929702 25.842746 16.07597 25.928258 16.290872C26.014898 16.504648 26.613483 17.382255 26.570727 17.638787C26.527967 17.896443 27.919797 17.809808 28.048066 17.554397C28.176334 17.297866 27.855663 16.954699 27.898419 16.739797C27.941179 16.524896 28.754668 16.290868 28.925693 15.77668C29.292496 14.672919 29.681803 12.851321 30.439037 13.053846C31.195147 13.256371 32.052521 13.406014 32.657859 13.053846C33.263197 12.701678 33.212564 12.448522 33.817902 12.549784C34.42324 12.651047 35.734055 12.448522 36.28876 12.14586C36.843466 11.843198 37.095502 11.692429 37.146135 11.288505C37.196765 10.885706 38.003509 10.481781 37.952877 9.6244258C37.902247 8.7659457 37.498311 7.7578222 36.591429 7.7578222C35.684548 7.7589522 34.928438 7.9119661 34.625769 8.213503C34.625769 8.213503 34.625769 8.2135072 34.625769 8.2135072" />
		<path id="path123" d="M35.408883 41.991269C35.863449 41.488333 35.914081 41.487207 36.417029 41.537839C36.921102 41.588469 37.325036 41.437701 37.325036 40.832377C37.325036 40.378947 38.08227 39.671235 38.83838 39.217804C39.594489 38.764374 39.897158 38.562974 39.746387 38.007156C39.595615 37.452463 38.839505 36.898895 38.486204 37.150926C38.132903 37.402957 36.87272 39.772497 35.763309 40.377822C34.653898 40.982021 33.544488 41.184545 33.292451 40.780621C33.040414 40.377822 32.989782 39.571098 32.586974 39.571098C32.184165 39.571098 32.133533 40.075159 31.931004 40.428453C31.729599 40.780621 31.677842 41.235177 31.022997 41.184545C30.365902 41.133915 29.861829 41.133915 29.508527 41.739238C29.156351 42.343437 29.055087 43.655348 30.013726 42.949887C30.972365 42.2433 32.333812 40.880758 32.989782 41.536713C33.645752 42.192669 33.846031 43.302055 34.1487 43.302055C34.450244 43.303155 34.954317 42.495331 35.408883 41.991269C35.408883 41.991269 35.408883 41.991269 35.408883 41.991269" />
		<path id="path125" d="M35.956837 2.3684164C35.704801 2.9242344 36.209999 3.5801898 36.814211 3.5295586C37.419549 3.4778026 37.722218 3.5295586 37.722218 3.9323579C37.722218 4.3351572 37.470182 5.0912499 36.66344 4.8403441C35.856698 4.5871881 35.554029 4.0336203 35.048831 4.1337576C34.544757 4.23502 34.494125 4.6378193 34.898059 5.4456683C35.180475 6.0104874 35.351499 6.7564538 36.208874 6.1511297C37.066248 5.5458055 37.370042 4.9404814 38.075519 5.1430062C38.780997 5.345531 38.932894 5.5446804 39.134298 6.0509924C39.335702 6.5550541 39.299697 7.3100216 40.193076 6.7069477C40.563255 6.456042 41.732299 6.4121616 42.618928 6.8217118C43.505556 7.2301368 44.119895 6.0026115 43.778971 5.1160029C43.438047 4.2293943 42.756198 4.0932526 42.209369 4.6378193C41.663664 5.1835112 41.11796 5.1835112 40.595885 4.8414693C40.368602 4.6918259 40.445113 4.6389445 40.798414 4.3374075C41.15059 4.0336203 41.15059 3.9334831 40.898554 3.7320834C40.646517 3.5306837 40.193076 3.8322207 40.091812 4.2856512C39.990547 4.7402069 39.638371 5.0439941 39.28507 4.7908381C38.931768 4.5376821 38.074394 3.9334831 38.679732 3.7827146C39.28507 3.630821 39.638371 3.8322206 39.638371 3.4789274C39.638371 3.1278844 39.538231 3.1278844 39.235562 2.9759908C38.932894 2.8240972 38.931768 2.8252223 38.780997 2.6215724C38.630225 2.4190476 38.378188 2.3684164 38.024887 2.3684164C37.671586 2.3684164 37.671586 2.4190474 37.31941 2.1163855C36.966108 1.8148486 36.208874 1.8137234 35.956837 2.3684164C35.956837 2.3684164 35.956837 2.3684164 35.956837 2.3684164" />
		<path id="path127" d="M36.033348 0.00112644C36.033348 0.00112644 35.964718 0.11026481 35.964718 0.11026481C35.822943 0.36792137 35.70255 0.62332765 35.60016 0.82922786C35.247984 1.5358144 34.419864 0.81572621 33.936044 0.6278282C33.749267 0.55581938 33.482604 0.6784594 33.482604 0.6784594C32.574597 0.37579733 32.52509 1.3344147 32.423825 1.7372141C32.32256 2.1400134 31.667715 2.1906446 30.961113 2.0893822C30.430036 2.013998 30.709076 2.324536 30.709076 2.9804913C30.709076 3.6364467 30.558305 4.0898772 31.163642 3.8378463C31.76898 3.5858155 32.071649 3.3337846 31.919752 3.7872153C31.76898 4.241771 31.617083 4.0921277 31.466311 4.4431707C31.314414 4.7953388 31.062378 5.2015136 31.919752 5.2510196C32.777126 5.3005256 33.280074 5.8057126 32.827759 6.3604055C32.374318 6.9139733 31.012871 7.368529 30.962238 8.1246216C30.911608 8.8807142 31.11301 9.8393316 30.55943 9.6379319C30.004724 9.4354071 29.956342 9.4241557 29.705431 9.0416089C29.441018 8.6399347 29.301497 8.4520367 29.705431 8.1482495C30.108239 7.8455872 29.978846 7.982854 30.388405 7.6216848C32.11328 6.1061241 29.951842 4.8279676 29.599666 4.6771991C29.246364 4.5253055 28.895314 4.0403711 28.693909 3.6870779C28.49138 3.3337846 29.299247 2.9309853 29.652548 2.2750299C29.652548 2.2750299 29.670548 2.3909191 29.807821 1.8632295C29.945091 1.3344147 30.065483 1.2534048 30.257886 1.0306275C30.642692 0.58507296 31.11526 0.42530339 31.669966 0.42530339C32.18529 0.42530339 32.395696 0.29591255 32.745622 0.1158905C32.745622 0.1158905 32.831132 0.00112644 32.831132 0.00112644" />
		<path id="path129" d="M38.485079 12.069354C38.131777 12.321385 36.871595 14.692051 35.762184 15.29625C34.652773 15.900449 33.543362 16.102973 33.291326 15.699049C33.039289 15.29625 32.988657 14.489526 32.585849 14.489526C32.18304 14.489526 32.132408 14.993588 31.929878 15.348006C31.728474 15.699049 31.676717 16.15473 31.021872 16.102973C30.367027 16.052343 29.861829 16.053463 29.508527 16.657666C29.156351 17.262991 29.055087 18.573776 30.013726 17.868315C30.972365 17.161728 32.333812 15.799186 32.989782 16.455142C33.645752 17.111097 33.846031 18.220483 34.1487 18.220483C34.451369 18.220483 34.955442 17.413759 35.410008 16.909697C35.864574 16.405636 35.915206 16.405636 36.418154 16.455142C36.922227 16.505772 37.326161 16.355004 37.326161 15.750805C37.326161 15.29625 38.083395 14.589663 38.839505 14.137358C39.595615 13.683927 39.898284 13.481402 39.747512 12.926709C39.594489 12.372017 38.83838 11.817324 38.485079 12.069354C38.485079 12.069354 38.485079 12.069354 38.485079 12.069354" />
		<path id="path131" d="M38.895763 18.020208C39.400961 17.617409 39.501101 17.365378 40.005174 17.365378C40.510372 17.365378 40.661144 17.466641 41.315989 17.264116C41.971959 17.062716 42.021466 15.700174 40.963813 15.700174C39.90616 15.700174 38.411943 17.166229 37.836985 17.86944C37.384669 18.423008 38.39169 18.423008 38.895763 18.020208C38.895763 18.020208 38.895763 18.020208 38.895763 18.020208" />
		<path id="path133" d="M38.895763 43.10178C39.400961 42.698981 39.501101 42.445825 40.005174 42.445825C40.510372 42.445825 40.661144 42.547087 41.315989 42.345688C41.970834 42.144288 42.021466 40.780621 40.963813 40.780621C39.90616 40.780621 38.411943 42.246675 37.836985 42.949887C37.384669 43.504579 38.39169 43.504579 38.895763 43.10178C38.895763 43.10178 38.895763 43.10178 38.895763 43.10178" />
		<path id="path135" d="M39.654123 7.7769538C39.15005 8.1279968 39.200682 9.4410326 40.007424 8.5836776C40.007424 8.5836776 40.058054 8.4542867 40.058054 8.4542867C40.107564 8.0008562 40.158193 7.4236605 39.65412 7.7769538C39.65412 7.7769538 39.654123 7.7769538 39.654123 7.7769538" />
		<path id="path137" d="M40.208829 31.755891C41.267607 31.553366 42.881091 31.450978 43.486429 30.997548C44.091766 30.545242 44.681352 28.578501 44.697104 28.073315C44.708354 27.686267 44.906384 27.419609 44.821997 27.147326C44.736487 26.875043 42.692064 26.672518 42.463655 26.73215C42.463655 26.73215 42.378145 26.73215 42.378145 26.73215C42.378145 26.180833 41.911202 26.095322 41.911202 26.095322C41.185472 26.259592 40.470994 25.203088 40.13682 25.207589C39.379585 25.219969 38.926145 25.914175 39.128674 26.418237C39.128674 26.418237 38.989154 26.696146 39.579864 27.030312C40.118817 27.335224 40.591386 27.841536 41.130339 27.490493C41.130339 27.490493 41.505018 27.373479 41.505018 27.373479C42.488411 27.514121 41.65579 28.441235 42.31176 28.189204C42.96773 27.937173 44.141276 27.771778 43.990504 28.377102C43.838607 28.982426 42.679689 30.293211 42.023719 30.343843C41.367749 30.394473 40.779288 30.155945 40.536253 30.035555C40.161574 29.846532 39.666502 29.846532 39.299699 29.839781C38.865386 29.831881 38.089023 29.291839 38.694361 29.14107C39.299699 28.989177 39.653 29.1917 39.653 28.837283C39.653 28.485115 39.55286 28.485115 39.250192 28.334347C38.947523 28.182453 38.946398 28.183578 38.795626 27.979928C38.644854 27.778528 38.392817 27.727897 38.039516 27.727897C37.686215 27.727897 37.686215 27.777407 37.332914 27.475866C36.979612 27.173204 36.532923 27.173204 36.280886 27.727897C36.02885 28.28259 36.223506 28.629133 36.828841 28.578501C37.434178 28.526741 37.736847 28.578501 37.736847 28.981301C37.736847 29.3841 37.484811 30.141318 36.678069 29.889287C35.871327 29.637256 35.568658 29.082563 35.064585 29.183826C34.560512 29.285088 34.509879 29.687887 34.913813 30.494611C35.196229 31.05943 35.367254 31.806522 36.224628 31.200072C37.082002 30.594748 37.385796 29.989424 38.091274 30.191949C38.796751 30.394474 38.948648 30.594748 39.150052 31.10106C39.351456 31.602872 39.150052 31.95729 40.208831 31.755891C40.208831 31.755891 40.208829 31.755891 40.208829 31.755891" />
		<path id="path139" d="M41.668165 18.726795C42.021466 18.423008 41.595025 17.943699 41.162967 18.374627C40.860298 18.676164 41.314864 19.029457 41.668165 18.726795C41.668165 18.726795 41.668165 18.726795 41.668165 18.726795" />
		<path id="path141" d="M41.668165 43.808367C42.021466 43.504579 41.595025 43.024146 41.162967 43.455073C40.860298 43.757735 41.314864 44.111029 41.668165 43.808367C41.668165 43.808367 41.668165 43.808367 41.668165 43.808367" />
		<path id="path143" d="M41.863943 35.786134C42.166612 34.474223 41.863943 33.364838 41.157341 33.364838C40.451864 33.364838 40.401231 33.920656 40.602636 34.423592C40.805165 34.927654 40.753407 35.028916 40.7039 35.684872C40.7039 35.684872 40.7039 35.83564 40.7039 35.83564C40.65439 36.188934 40.552003 36.340827 40.7039 36.643489C40.855797 36.946151 41.561275 37.09692 41.863943 35.786134C41.863943 35.786134 41.863943 35.786134 41.863943 35.786134" />
		<path id="path145" d="M41.916826 39.833255C41.916826 40.286685 43.379538 39.782625 44.136773 38.7745C44.892883 37.766377 43.480803 37.766377 42.623429 37.967776C41.766054 38.168051 41.916826 38.919643 41.916826 39.833255C41.916826 39.833255 41.916826 39.833255 41.916826 39.833255" />
		<path id="path147" d="M42.374768 50.0C42.410768 49.91899 42.441148 49.824479 42.465908 49.71534C42.617805 49.059385 42.971106 48.707217 43.524686 48.755598C44.079392 48.806228 44.028759 49.310291 44.735362 49.108891C45.441964 48.906366 46.500743 48.250411 46.903551 48.553073C47.307485 48.85686 47.710293 49.159522 48.012962 48.65546C48.294253 48.186278 49.228138 47.717095 49.805347 47.735098C49.805347 47.735098 49.998875 47.751978 49.998875 47.751978C49.998875 47.751978 49.998875 48.742099 49.998875 48.742099C49.998875 48.742099 49.823349 48.726349 49.823349 48.726349C49.347405 48.694849 49.267519 48.801729 48.971601 49.210158C48.568792 49.764851 47.055448 49.715345 46.198074 49.764851C45.888654 49.782851 45.662496 49.864988 45.507224 50.000005" />
		<path id="path149" d="M42.387144 44.507077C42.639181 44.759108 43.143254 44.557707 43.59782 44.20329C44.051261 43.851122 44.757863 43.447197 45.513973 43.345935C46.271207 43.244673 46.11931 42.892505 46.11931 42.336686C46.11931 41.783119 46.0698 41.680731 46.32184 41.228426C46.573876 40.774995 46.927177 40.218052 47.329986 40.218052C47.732794 40.218052 47.884691 39.966021 47.935324 39.663359C47.985954 39.360697 47.835184 39.312316 47.279353 39.312316C46.724648 39.312316 46.933928 39.220056 46.674016 38.909517C46.421979 38.605729 46.371347 38.605729 45.867274 38.960147C45.363201 39.312315 45.363201 40.067283 45.363201 40.573595C45.363201 41.077656 44.859128 41.532212 44.001753 42.136411C43.144379 42.741735 42.135108 44.255045 42.387144 44.507077C42.387144 44.507077 42.387144 44.507077 42.387144 44.507077" />
		<path id="path151" d="M42.49516 10.697812C41.862818 9.509666 41.095457 9.1890017 40.56213 9.6525585C40.028802 10.11499 39.866779 10.459282 40.349474 10.707938C40.833294 10.955468 40.861423 11.065732 41.254105 11.593421C41.254105 11.593421 41.353115 11.708185 41.353115 11.708185C41.546643 12.006347 41.485885 11.268256 41.79868 11.397647C42.11035 11.527038 43.126372 11.887082 42.495156 10.697812C42.495156 10.697812 42.49516 10.697812 42.49516 10.697812" />
		<path id="path153" d="M42.623429 12.886205C41.766054 13.088729 41.916826 13.839196 41.916826 14.752808C41.916826 15.206239 43.379538 14.701048 44.136773 13.694053C44.892883 12.68368 43.480803 12.684805 42.623429 12.886205C42.623429 12.886205 42.623429 12.886205 42.623429 12.886205" />
		<path id="path155" d="M42.80458 22.085331C43.207388 21.631901 43.258021 21.530638 43.863358 21.580144C44.468696 21.631904 44.620593 21.733163 45.224806 21.429376C45.830143 21.126714 45.779511 21.077208 46.334216 21.126714C46.888922 21.177344 47.091451 21.329239 47.544892 20.723914C47.998333 20.119715 48.048965 20.321115 48.452899 20.674404C48.855707 21.026573 49.209008 20.974816 49.259641 20.723914C49.310271 20.471884 48.805075 19.817053 48.60367 19.615654C48.402266 19.413129 48.098472 19.212854 48.955846 18.758299C48.955846 18.758299 48.511407 17.509396 47.745171 18.355499C46.613257 19.603277 46.585128 20.169222 46.282459 20.220978C45.97979 20.271608 45.727754 20.120841 45.475717 20.422378C45.22368 20.72504 45.374452 20.624902 44.56771 20.473008C43.760968 20.321114 42.903594 20.371745 42.196992 20.926438C41.490389 21.481131 41.138213 21.531762 40.886177 21.078332C40.63414 20.624901 40.483368 20.019577 39.675501 20.725039C38.867634 21.431625 38.56609 21.532888 38.111525 21.078332C37.658084 20.624901 36.900849 18.65816 36.043475 18.808929C35.187226 18.959697 35.38863 19.062085 35.38863 19.414253C35.38863 20.592272 35.995093 20.271608 36.699445 20.271608C37.406047 20.271608 38.062017 22.389117 37.355415 22.994442C37.355415 22.994442 37.317155 23.013572 37.317155 23.013572C36.669061 23.832672 37.808852 23.750537 37.808852 23.750537C38.767491 23.902431 38.767491 24.003693 38.918262 24.153336C39.069034 24.30523 39.472968 24.406492 39.775637 23.599769C40.078306 22.79192 40.128938 22.288983 41.036945 22.339614C41.947202 22.386874 42.401767 22.537639 42.804576 22.085333C42.804576 22.085333 42.80458 22.085331 42.80458 22.085331" />
		<path id="path157" d="M43.795849 1.3175377C43.132002 1.3872967 43.885859 2.1163855 44.529455 1.9498651C44.757863 1.8902331 44.894008 1.9768681 44.978395 2.2491518C45.063905 2.5214351 44.608216 2.8769787 44.853502 3.1751402C45.210179 3.6094434 44.155901 4.2417708 44.148025 3.4778022C44.141225 2.8533508 43.745216 2.4190476 43.089246 2.6710784C42.433276 2.9231093 43.488679 1.3186628 42.124981 1.0632565C42.124981 1.0632565 41.920202 1.0295024 41.920202 1.0295024C41.213599 0.82810273 41.677166 1.3254136 41.173093 1.7788442C40.66902 2.2322747 40.214454 1.8283502 40.214454 1.8283502C40.011925 1.3254136 40.465366 0.6188271 41.2226 0.6188271C41.821187 0.6188271 42.136233 0.5558194 42.315134 0.20590152C42.315134 0.20590152 42.353384 0.05963361 42.353384 0.05963361C42.362384 0.04050627 42.370264 0.02250406 42.379264 0.00225158" />
		<path id="path159" d="M43.795849 1.3175377C44.383184 1.3479167 44.905259 1.2972847 45.006524 1.0722576C45.129167 0.79547373 45.214679 0.44443074 45.456589 0.20027583C45.456589 0.20027583 45.465589 0.05400792 45.465589 0.05400792C45.483589 0.03488058 45.502719 0.01800351 45.522969 0.00112644" />
		<path id="path161" d="M44.045635 47.008259C44.650972 47.058889 44.801744 47.160152 45.407082 46.856365C46.01242 46.553703 45.961787 46.504197 46.516493 46.553703C47.071198 46.604333 47.272602 46.755103 47.727168 46.150904C48.180609 45.545579 48.231241 45.748104 48.635175 46.100274C49.037983 46.453568 49.391285 46.402936 49.441917 46.150904C49.492547 45.898873 48.988476 45.242917 48.785947 45.042643C48.584543 44.840118 48.281874 44.639844 49.139248 44.184163C49.139248 44.184163 49.713081 44.267423 49.815471 43.703729C49.917861 43.14116 49.492549 42.152164 48.928843 42.646099C48.366261 43.14116 47.928573 43.780238 47.928573 43.780238C46.796658 45.028016 46.769655 45.595086 46.466986 45.645717C46.164317 45.696347 45.996668 46.050766 45.660244 45.848242C44.026507 44.861496 43.918491 45.780732 43.637201 46.343302C43.35591 46.905871 44.045635 47.008259 44.045635 47.008259C44.045635 47.008259 44.045635 47.008259 44.045635 47.008259" />
		<path id="path163" d="M4.5366576 20.865682C4.7886942 21.320237 5.9982445 20.917442 5.6967008 20.312114C5.3940319 19.70679 4.256492 20.36387 4.5366576 20.865682C4.5366576 20.865682 4.5366576 20.865682 4.5366576 20.865682" />
		<path id="path165" d="M4.5569106 27.305971C4.2047345 27.961926 3.3968674 28.3636 3.5982716 28.716893C3.800801 29.069062 4.1518518 29.555121 4.5040279 29.707015C4.8573291 29.857783 7.0176423 31.137065 5.2938924 32.6515C4.884333 33.011544 5.0137268 32.875403 4.6097932 33.178065C4.2069848 33.481852 4.3453799 33.670875 4.6097932 34.072549C4.8607046 34.453971 4.9102118 34.466348 5.463792 34.667747C6.0184974 34.870272 5.8159681 33.911655 5.8677256 33.154437C5.9183579 32.398344 7.2798053 31.944914 7.733246 31.390221C8.1866867 30.835528 7.6826136 30.331466 6.8252394 30.280835C5.9678651 30.230204 6.2199016 29.827404 6.3706735 29.474111C6.5225705 29.121943 6.6733423 29.271586 6.8252394 28.818156C6.9760112 28.3636 6.6733423 28.615631 6.0691298 28.868787C5.463792 29.120818 5.615689 28.667387 5.615689 28.010307C5.615689 27.354351 5.646068 26.423863 6.1771454 26.500372C6.8837478 26.600509 7.422701 26.501472 7.6398574 26.148204C7.9875328 25.582259 7.195418 25.740904 7.1166566 25.603637C7.0390206 25.467495 7.2539265 25.331354 7.3900712 25.234592C7.526216 25.137832 7.2921822 24.864422 6.8837478 24.836293C6.3301676 24.800293 5.8564739 24.996063 5.4716682 25.441617C5.2792653 25.663269 5.159998 25.74653 5.0216029 26.274219C4.884333 26.800784 4.5569106 27.305971 4.5569106 27.305971C4.5569106 27.305971 4.5569106 27.305971 4.5569106 27.305971" />
		<path id="path167" d="M46.042799 3.0311225C45.74013 3.3326595 46.194696 3.6859527 46.547997 3.3832907C46.901299 3.0806286 46.473737 2.5990696 46.042799 3.0311225C46.042799 3.0311225 46.042799 3.0311225 46.042799 3.0311225" />
		<path id="path169" d="M46.228451 13.618669C45.724378 13.971963 45.724378 14.728055 45.724378 15.233242C45.724378 15.737304 45.220305 16.191859 44.362931 16.797184C43.505556 17.401383 42.49741 18.915818 42.749447 19.166724C43.001483 19.418755 43.505556 19.216234 43.960122 18.864062C44.413563 18.510768 45.120165 18.107969 45.876275 18.006707C46.63351 17.905444 46.481613 17.553276 46.481613 16.997458C46.481613 16.44389 46.430983 16.341503 46.684142 15.888072C46.936179 15.434642 47.28948 14.879949 47.692288 14.879949C48.095097 14.879949 48.246994 14.627918 48.297626 14.326381C48.348256 14.022594 48.197487 13.973088 47.641656 13.973088C47.086951 13.973088 47.296231 13.881948 47.036318 13.570288C46.783157 13.266501 46.732524 13.266501 46.228451 13.618668C46.228451 13.618668 46.228451 13.618669 46.228451 13.618669" />
		<path id="path171" d="M46.547997 28.463737C46.901299 28.15995 46.474857 27.680641 46.042799 28.111569C45.74013 28.414231 46.194696 28.766399 46.547997 28.463737C46.547997 28.463737 46.547997 28.463737 46.547997 28.463737" />
		<path id="path173" d="M47.567395 26.56788C47.87569 26.904296 48.251494 27.987804 48.914215 26.863791C49.203382 26.373231 49.519553 25.451743 48.964845 25.451743C48.964845 25.451743 48.420266 25.183961 48.084967 25.368483C47.853184 25.497874 47.109451 26.067194 47.567392 26.56788C47.567392 26.56788 47.567395 26.56788 47.567395 26.56788" />
		<path id="path175" d="M48.438271 0.89786127C48.438271 0.89786127 47.893693 0.62895334 47.558394 0.81460107C47.325485 0.94286678 46.581752 1.5133116 47.039694 2.013998C47.347988 2.3504142 47.723793 3.4339219 48.386514 2.3099092C48.676806 1.8193491 48.991852 0.89786127 48.438274 0.89786127C48.438274 0.89786127 48.438271 0.89786127 48.438271 0.89786127" />
		<path id="path177" d="M50.0 35.887397C50.0 35.887397 49.844725 35.868267 49.844725 35.868267C49.709706 35.774877 49.53193 35.629738 49.380033 35.517224C48.774695 35.063794 48.724063 35.719749 48.522659 36.325073C48.321254 36.930397 48.055716 36.936023 47.715917 36.829135C46.909175 36.575979 46.354469 37.383828 46.556999 37.737121C46.758403 38.090414 48.069218 37.635859 48.725188 37.282565C49.075114 37.094667 49.453169 36.993405 49.81097 36.99453C49.81097 36.99453 50.0 37.03616 50.0 37.03616" />
		<path id="path179" d="M50.0 30.11544C50.0 30.11544 49.912238 30.15707 49.912238 30.15707C49.350782 30.440604 48.959225 30.793898 48.959225 31.197822C48.959225 32.004546 49.009855 32.356714 48.556417 33.063301C48.102976 33.768762 48.204241 34.071424 47.64841 34.424717C47.093705 34.778011 45.78289 34.475347 45.68275 34.827517C45.581485 35.18081 44.876008 35.38221 44.169406 34.675623C43.462803 33.969037 42.89122 33.448098 43.6147 32.759513C44.747739 31.681631 45.884154 34.524855 47.145462 33.162313C48.40677 31.800896 48.607049 30.842279 47.194972 30.842279C45.782893 30.842279 45.438593 30.906409 45.286696 30.350593C45.135924 29.794775 45.489225 29.290714 45.93479 29.430231C47.909451 30.052432 48.506912 30.488985 49.21239 29.380721C49.467802 28.979046 49.689459 28.748393 49.902115 28.608876C49.902115 28.608876 49.998875 28.563876 49.998875 28.563876" />
		<path id="path181" d="M50.0 22.69178C50.0 22.69178 49.758088 22.67603 49.758088 22.67603C49.203382 22.573642 48.143479 23.078829 47.841935 23.584016C47.539266 24.088077 47.135333 23.785415 46.732524 23.482753C46.732524 23.482753 44.266167 22.662528 43.173633 23.0462C41.039199 23.798917 44.142399 26.411487 44.128897 25.502376C44.094017 23.120459 47.223095 24.461623 47.837434 24.597765C48.450648 24.735032 48.800574 24.138709 48.800574 24.138709C49.131372 23.684153 49.191006 23.600893 49.832349 23.669526C49.832349 23.669526 50.0 23.681906 50.0 23.681906" />
		<path id="path183" d="M50.0 13.752561C49.717582 13.861699 49.383408 13.968587 49.277643 14.065349C48.622798 14.670673 48.617172 14.8912 49.061612 15.070097C49.212384 15.130857 49.659073 15.093727 49.998873 15.013837" />
		<path id="path185" d="M50.0 10.750693C49.939238 10.786693 49.861603 10.801323 49.759213 10.787823C49.759213 10.787823 49.738963 10.804703 49.738963 10.804703C49.603943 10.710193 49.426168 10.566173 49.274271 10.45366C48.668933 10.000229 48.618301 10.656184 48.416896 11.260383C48.214367 11.865708 47.949954 11.871333 47.610154 11.76557C46.803412 11.512414 46.248707 12.319138 46.451236 12.672431C46.652641 13.024599 47.963456 12.572294 48.619426 12.219001C48.969351 12.031103 49.347406 11.928715 49.705208 11.930966C49.705208 11.930966 49.759218 11.950096 49.759218 11.950096C49.813228 11.984976 49.891987 12.016476 50.000003 11.995096" />
		<path id="path187" d="M50.0 3.4879285C49.941488 3.4372975 49.882981 3.3844158 49.84135 3.3765398C49.75359 3.3585378 49.688328 3.4778022 49.688328 3.4778022C49.475672 3.6173193 49.25289 3.8468474 48.998603 4.2485216C48.293125 5.3579075 47.695664 4.9202289 45.721003 4.2991526C45.275438 4.1585104 44.922137 4.6636973 45.072909 5.2183902C45.224806 5.7730832 45.569106 5.7100754 46.981185 5.7100754C48.39214 5.7100754 48.191861 6.669818 46.930555 8.0301096C45.669247 9.3915263 44.532832 6.5483031 43.399793 7.6273103C42.676313 8.3158946 43.249021 8.8368334 43.954499 9.5434199C44.661101 10.248882 45.366578 10.047482 45.467843 9.6941884C45.569108 9.3420203 44.324677 13.658049 47.434628 9.2913891C47.816058 8.7558235 47.889194 8.6365589 48.342635 7.9299723C48.796075 7.2245109 48.745443 6.8723428 48.745443 6.0644938C48.745443 5.6616945 49.137 5.3072761 49.698456 5.0237414C49.698456 5.0237414 49.866105 4.881974 50.0 4.8729729" />
		<path id="path189" d="M50.0 38.77225C50.0 38.77225 49.894233 38.85439 49.894233 38.85439C49.740085 39.034412 49.526304 39.14355 49.350779 39.304445C48.694809 39.909769 48.690308 40.130296 49.134747 40.309193C49.351904 40.395833 49.615192 40.314793 49.860478 40.166301C49.860478 40.166301 50.0 40.094291 50.0 40.094291" />
		<path id="path191" d="M5.635942 44.016517C5.8879785 44.469948 7.098654 44.067147 6.7959851 43.461824C6.4944414 42.8565 5.3569015 43.513581 5.635942 44.016517C5.635942 44.016517 5.635942 44.016517 5.635942 44.016517" />
		<path id="path193" d="M6.2390294 11.365018C5.6336916 11.415648 4.2722443 11.618174 3.9189431 12.071605C3.5656419 12.525035 2.5068634 12.72756 2.5068634 13.030222C2.5068634 13.332884 3.0615688 13.634421 3.262973 13.786315C3.4655023 13.938208 3.6162742 14.239745 3.41487 14.594164C3.2134658 14.946332 2.9107969 15.954455 2.104055 15.803687C1.2973131 15.652918 1.5988568 15.751927 1.1960484 15.954455C1.1960484 15.954455 0.78648901 16.102973 0.8720014 16.315625C0.9575138 16.530526 1.5572257 17.408133 1.5144695 17.664665C1.4717135 17.922321 2.8635401 17.835686 2.9918087 17.579155C3.1200773 17.321499 2.7994058 16.980582 2.842162 16.764556C2.884918 16.551904 3.6984111 16.317876 3.8694359 15.803688C4.2373642 14.699928 4.6266707 12.87833 5.3827803 13.079729C6.1388899 13.282254 6.9962642 13.431897 7.6016019 13.079729C8.2069397 12.728686 8.1574325 12.47553 8.7616451 12.576793C9.3669828 12.67693 10.677798 12.47553 11.232503 12.173993C11.787209 11.870206 11.919978 11.684558 12.089878 11.315513C12.55232 10.308515 12.992258 9.321769 11.808587 9.4129051C10.62604 9.5040411 10.717179 10.867708 10.717179 10.867708C10.717179 10.867708 10.677799 11.063482 10.677799 11.063482C10.021829 11.315513 9.0643149 11.921962 8.5096095 11.41565C7.9549031 10.911588 7.7523738 10.659557 7.45083 10.962219C7.147036 11.264881 6.8443671 11.314387 6.2390294 11.365018C6.2390294 11.365018 6.2390294 11.365018 6.2390294 11.365018" />
		<path id="path195" d="M6.8454923 46.273544C7.4001977 46.222914 8.6603804 45.517451 8.609748 44.962758C8.559116 44.408065 8.4083438 44.357434 7.5509696 44.962758C6.6947204 45.569207 6.4438091 46.311798 6.8454923 46.273544C6.8454923 46.273544 6.8454923 46.273544 6.8454923 46.273544" />
		<path id="path197" d="M7.2775549 37.62911C7.4598314 38.629357 9.140825 37.743874 9.140825 37.743874C9.7461628 37.845136 11.056978 37.643737 11.611683 37.341075C12.166389 37.039538 12.4173 36.887644 12.469057 36.48372C12.519687 36.08092 13.325307 35.676996 13.275799 34.819641C13.226289 33.962286 12.822359 32.954162 11.914352 32.954162C11.006345 32.954162 10.250236 33.104931 9.947567 33.406468C9.6448981 33.710255 9.140825 34.163685 8.8887885 34.214317C8.636752 34.264947 8.0820465 34.718378 8.2834507 35.02104C8.4859801 35.323703 8.988928 35.727627 9.6955304 35.07167C10.401008 34.416839 11.056978 34.416839 11.409154 34.769008C11.762455 35.121176 11.711823 35.978531 11.055853 36.231687C10.401008 36.483718 9.5481341 36.940524 8.8876633 36.583855C8.1360544 36.178805 7.0952785 36.626605 7.2775549 37.629108C7.2775549 37.629108 7.2775549 37.62911 7.2775549 37.62911" />
		<path id="path199" d="M7.9155224 50.0C7.9155224 50.0 7.9785314 49.92687 7.9785314 49.92687C8.3813398 49.724345 8.6840087 49.552199 9.389486 49.400306C10.096088 49.248412 11.508168 48.644213 12.213645 48.038889C12.919123 47.433565 12.263155 46.274673 11.557675 46.274673C10.852198 46.274673 10.24686 45.769486 10.24686 45.417318C10.24686 45.06515 10.045456 44.962762 10.90283 44.811994C11.760205 44.658975 12.516314 45.669349 12.97088 46.122779C13.424321 46.57621 13.72699 46.474947 14.534857 45.769486C15.341599 45.064024 15.493496 45.669349 15.744407 46.122779C15.744407 46.122779 16.344119 46.65947 16.186596 47.064519C16.027948 47.468444 15.377604 47.504448 14.955668 47.468444C14.533732 47.433564 13.602097 48.153653 14.076916 48.277418C14.551734 48.400058 14.613618 48.483318 14.636122 48.643088C14.749763 49.498193 13.930644 49.349674 13.778747 49.198906C13.627975 49.045887 13.627975 48.94575 12.669337 48.794981C11.994239 48.688093 11.51942 49.309169 11.173995 49.930245C11.173995 49.930245 11.148116 50.0 11.148116 50.0" />
		<path id="path201" d="M8.0392903 8.5262956C7.7872538 8.5758016 7.2325484 9.0292322 7.4339526 9.3330194C7.636482 9.6356814 8.1394299 10.038481 8.8460323 9.3825254C8.8460323 9.3825254 12.517439 7.9119703 11.064854 7.2650161C10.235609 6.8959709 9.4007377 7.4169097 9.0980688 7.7184466C8.7954 8.0199835 8.2913269 8.4745392 8.0392903 8.5262956C8.0392903 8.5262956 8.0392903 8.5262956 8.0392903 8.5262956" />
		<path id="path203" d="M8.092173 27.456739C7.5374676 28.011432 7.8176332 27.978803 8.019037 28.179078C8.3869653 28.545872 8.2226915 28.258958 9.0181818 28.390603C9.5683866 28.479493 9.9126865 27.968677 9.7056565 27.759401C9.1532018 27.197957 8.6468784 26.902046 8.092173 27.456739C8.092173 27.456739 8.092173 27.456739 8.092173 27.456739" />
		<path id="path205" d="M9.7067821 2.6778293C9.154327 2.1175106 8.6480036 1.8204743 8.092173 2.3762923C7.5374676 2.9298601 7.8176332 2.8972311 8.0190374 3.0986308C8.3869657 3.4654257 8.2226919 3.1785156 9.0181822 3.3090316C9.568387 3.3979175 9.9126869 2.88823 9.7067821 2.6778293C9.7067821 2.6778293 9.7067821 2.6778293 9.7067821 2.6778293" />
		<path id="path207" d="M10.31662 41.991269C10.771186 41.488333 10.821819 41.487207 11.324767 41.537839C11.82884 41.588469 12.232773 41.437701 12.232773 40.832377C12.232773 40.378947 12.990008 39.671235 13.746118 39.217804C14.502227 38.764374 14.804896 38.562974 14.654124 38.007156C14.503352 37.452463 13.747243 36.898895 13.393942 37.150926C13.04064 37.402957 11.780458 39.772497 10.671047 40.377822C9.561636 40.982021 8.4511 41.184545 8.1990635 40.781746C7.947027 40.377822 7.8975198 39.571098 7.4935862 39.571098C7.0907779 39.571098 7.0401455 40.075159 6.8376162 40.428453C6.636212 40.781746 6.5844545 41.235177 5.9296095 41.184545C5.2747646 41.133915 4.7695664 41.133915 4.4162652 41.739238C4.0640891 42.343437 3.9639496 43.655348 4.9214634 42.949887C5.8801024 42.2433 7.2415497 40.880758 7.8975198 41.536713C8.5523647 42.192669 8.7537689 43.302055 9.0564378 43.302055C9.3591067 43.303155 9.8631797 42.495331 10.31662 41.991269C10.31662 41.991269 10.31662 41.991269 10.31662 41.991269" />
		<path id="path209" d="M11.139115 0.00112644C11.139115 0.00112644 11.108735 0.08663692 11.108735 0.08663692C10.966965 0.34316833 10.847697 0.59969975 10.744182 0.80559997C10.390881 1.5110614 9.5638864 0.79097318 9.0800662 0.60307517C8.8932891 0.53219149 8.6266255 0.65483151 8.6266255 0.65483151C7.7186189 0.3510443 7.6679865 1.3096617 7.567847 1.7135862C7.4665823 2.1163855 6.8117374 2.1670167 6.105135 2.0646292C5.574058 1.9892449 5.8530984 2.299783 5.8530984 2.9568634C5.8530984 3.6128188 5.7023266 4.0662493 6.3076643 3.8142184C6.9130021 3.5610624 7.215671 3.3101567 7.0637739 3.7635872C6.9130021 4.2170178 6.7611051 4.0673745 6.6103332 4.4195426C6.4584362 4.7717107 6.2063997 5.1767603 7.0637739 5.2262664C7.9211482 5.2768976 8.4252213 5.7820845 7.9717806 6.3356523C7.5183398 6.8903452 6.1568925 7.3437757 6.1062601 8.0998683C6.0556278 8.8570861 6.257032 9.8145783 5.7034518 9.6131787C5.1487463 9.4106539 5.1003643 9.3994025 4.849453 9.0179808C4.5850396 8.6163066 4.4455194 8.4272834 4.849453 8.1234962C5.2522614 7.8208342 5.1228676 7.958101 5.532427 7.5969317C7.257302 6.0824963 5.0958637 4.8043397 4.7436876 4.6524461C4.3915116 4.5016776 4.0393355 4.0156181 3.8379313 3.66345C3.635402 3.3112819 4.4432691 2.9073574 4.7965703 2.251402C4.7965703 2.251402 4.8145733 2.3661661 4.9518428 1.8396016C5.0891127 1.3107868 5.2095052 1.2286518 5.401908 1.0058745C5.7867138 0.56144507 6.2592823 0.4016755 6.8139877 0.4016755C7.3293124 0.4016755 7.4542055 0.291412 7.8041313 0.11026481C7.8041313 0.11026481 7.898645 1.3058e-06 7.898645 1.3058e-06" />
		<polyline id="polyline211" points="18.553939519,26.2157120458 18.5550646821,26.2157120458 18.5516891928,26.2157120458 18.553939519,26.2157120458" />
		<polyline id="polyline213" points="18.6180738157,1.1420161728 18.6180738157,1.1420161728 18.6146983264,1.1420161728 18.6180738157,1.1420161728" />
		<polyline id="polyline215" points="43.7958485044,1.3175376696 43.7969736675,1.3175376696 43.7935981782,1.3175376696 43.7958485044,1.3175376696" />
	</g>
</svg>
