<?xml version="1.0" encoding="UTF-8" standalone="no"?>
<svg xmlns:dc="http://purl.org/dc/elements/1.1/" xmlns:cc="http://creativecommons.org/ns#" xmlns:rdf="http://www.w3.org/1999/02/22-rdf-syntax-ns#" xmlns:svg="http://www.w3.org/2000/svg" xmlns="http://www.w3.org/2000/svg" version="1.1" x="0px" y="0px" xml:space="preserve" width="50.00" height="50.00" viewBox="0 0 50.00 50.00">
	<metadata id="metadata2">
		<rdf:RDF>
			<ns:item rdf:ID="biblio1">
				<ns:link>rdf:resource=&quot;http://pubs.usgs.gov/tm/2006/11A02/</ns:link>
				<ns:title>U.S. Geological Survey, 2006, FGDC Digital Cartographic Standard for Geologic Map Symbolization (PostScript Implementation): U.S. Geological Survey Techniques and Methods 11-A2</ns:title>
			</ns:item>
			<ns:item rdf:ID="biblio2">
				<ns:link>https://davenquinn.com/projects/geologic-patterns/</ns:link>
				<ns:title>FGDC Geologic Patterns for the Web</ns:title>
			</ns:item>
			<rdf:Description>
				<dc:description>
					Converted from 'FGDC Geologic Patterns for the Web' to QGIS compatible svg symbols, with customisable fill colour/stroke colour/stroke width (when appropriate).
					SVG scaled to 50x50 pixels so that base outline-width is 0.387 px and width is 90 in the QGIS xml definition file. 
					Some of the original FGDC symbols have been omitted from this set because they can be generated from other symbols using the 'texture width' and/or 'stroke width' fields in QGIS symbology form.
				</dc:description>
				<dc:date>01 MARCH 2019</dc:date>
				<dc:creator>GeoProc.com</dc:creator>
				<dc:publisher rdf:resource="https://github.com/BC-Consulting/QGIS-FGDC-Fill" />
			</rdf:Description>
			<cc:Work rdf:about="">
				<dc:format>image/svg+xml</dc:format>
				<dc:type rdf:resource="http://purl.org/dc/dcmitype/StillImage" />
				<dc:title>FGDC fill symbol: Misc. and Metamorphic - 424</dc:title>
			</cc:Work>
		</rdf:RDF>
	</metadata>
	<path style="fill:none;stroke:none;stroke-width:0;" id="rect1500" width="50.00" height="50.00" x="0.0" y="0.0" />
	<g style="fill:none;" stroke="param(outline) #000" stroke-width="param(outline-width) 0.387">
		<path d="M 8.119,9.973 C 7.186,8.39 9.146,6.897 10.08,7.912 11.01,8.943 9.518,9.689 8.119,9.973 6.72,10.26 5.785,13.62 5.599,16.03 c -0.187,2.44 0.56,2.62 1.493,5.05 0,0 0.996,1.3 0.119,1.67 -0.87,0.38 -1.742,0 -1.742,-1 0,-0.98 0.622,-1.12 1.617,-0.67" id="path5" />
		<path d="M 5.972,13.71 C 5.691,12.96 5.785,10.81 4.572,10.81 3.358,10.81 1.586,8.659 3.265,8.106 4.945,7.539 5.412,9.883 4.572,10.81" id="path7" />
		<path d="m 5.599,16.03 c 0.56,-0.37 0.839,-1.12 1.773,-0.92 0.935,0.18 3.828,0.55 2.988,-1.03 -0.841,-1.6 -2.241,-1.32 -2.988,1.03" id="path9" />
		<path d="M 5.506,16.78 C 4.2,15.38 4.752,13.93 3.547,14.74 2.708,15.29 1.739,16.6 1.179,14.91 0.6196,13.24 3.7,12.76 3.979,14.45" id="path11" />
		<path d="m 6.438,19.39 c 0.56,-1.3 1.027,-2.04 2.239,-1.12 1.213,0.94 2.143,0.2 1.773,-0.74 -0.37,-0.93 -1.958,-1.5 -1.773,0.74" id="path13" />
		<path d="m 5.785,18.18 c -1.027,-0.74 -1.306,-0.94 -1.866,0 -0.56,0.93 -2.9859,3.08 -3.3591,1.3 C 0.1866,17.72 1.306,17.44 3.173,19.11" id="path15" />
		<path d="m 4.092,47.01 c 1.222,1.38 -0.413,3.22 -1.527,2.4 -1.114,-0.83 0.208,-1.85 1.527,-2.4 1.32,-0.54 2.041,-2.68 1.756,-5.1 -0.284,-2.41 -1.054,-2.45 -2.436,-4.65 0,0 -1.229,-1.09 -0.447,-1.63 0.782,-0.53 1.708,-0.33 1.901,0.64 0.192,0.98 -0.394,1.22 -1.454,0.99" id="path17" />
		<path d="m 5.878,44 c 0.418,0.68 1.766,3.08 2.956,2.85 1.186,-0.23 3.346,1.53 1.806,2.4 -1.543,0.88 -2.451,-1.32 -1.806,-2.4" id="path19" />
		<path d="m 5.848,41.91 c -0.478,0.48 -0.608,1.26 -1.559,1.26 -0.952,0 -3.862,0.19 -2.732,1.59 1.13,1.39 2.45,0.84 2.732,-1.59" id="path21" />
		<path d="m 5.794,41.16 c 1.553,1.12 2.38,3.09 3.409,2.08 0.716,-0.72 1.417,-2.18 2.287,-0.65 0.87,1.55 -2.059,2.6 -2.657,1" id="path23" />
		<path d="M 4.376,38.78 C 4.077,40.17 3.765,40.99 2.395,40.31 1.024,39.63 0.2523,40.54 0.7988,41.38 1.344,42.23 3.01,42.47 2.395,40.31" id="path25" />
		<path d="m 5.251,39.84 c 1.151,0.54 1.462,0.67 1.832,-0.36 0.369,-1.02 2.336,-3.59 3.047,-1.93 0.7,1.67 -0.34,2.16 -2.496,0.87" id="path27" />
		<path d="M 21.84,3.06 C 20.35,1.388 22.4,0.0741 23.43,0.8206 24.44,1.567 23.98,2.508 21.84,3.06 c -2.15,0.567 -1.68,3.553 -0.15,4.673 1.6,1.12 1.78,3.357 1.87,5.977 0,0 0.16,0.95 0.4,1.83 0.26,0.87 -0.61,1.49 -1.86,1.24 -1.24,-0.25 -1.24,-1.98 -0.5,-2.49 0.75,-0.5 1.56,-0.67 1.96,-0.58" id="path29" />
		<path d="m 23.23,10.63 c -1.4,-0.28 -2.42,-0.57 -3.07,0.18 -0.66,0.75 -2.9,1.58 -0.84,2.33 2.04,0.74 2.04,-1.87 0.84,-2.33" id="path31" />
		<path d="m 22.77,8.853 c 0.37,-1.687 -0.37,-1.956 0.66,-2.24 1.03,-0.283 1.77,-1.493 2.15,0 0.37,1.493 -0.75,2.703 -1.6,0" id="path33" />
		<path d="m 20.9,7.076 c -1.21,0 -3.51,-0.388 -4.01,1.12 -0.18,0.567 -0.84,1.03 0.15,1.687 0.94,0.647 2.8,-0.746 1.03,-2.523" id="path35" />
		<path d="M 20.44,5.21 C 18.95,5.031 17.66,4.837 17.42,4.463 16.8,3.523 14.4,2.373 16.17,1.358 c 1.78,-1.0301 2.37,1.493 0.25,2.105" id="path37" />
		<path d="m 15.47,15.38 c 1.39,-1.33 4.22,1.37 2.03,2.42 -2.2,1.04 -0.78,-1.51 -2.03,-2.42 -1.26,-0.93 -2.41,-2.53 -2.29,-3.78 0,0 -1.66,-2.762 0.17,-2.658 1.83,0.15 1.7,2.348 -0.17,2.658" id="path39" />
		<path d="m 38.91,5.494 c -1.12,1.672 0.56,3.165 1.4,2.523 1.11,-0.866 -0.37,-2.15 -1.4,-2.523 -1.88,-0.687 -0.84,-2.703 -1.03,-4.106 0,0 -0.18,-0.7466 -1.12,-0.657 -0.93,0.1493 -1.67,1.209 -0.75,2.15 0.94,0.926 1.69,1.12 1.78,0.284" id="path41" />
		<path d="m 1.959,1.104 c 1.493,0.284 2.642,0.523 3.762,2.21 1.12,1.672 3.173,3.359 4.849,2.523 1.68,-0.851 3.64,-1.687 2.15,-3.18 -1.49,-1.493 -1.96,0.836 -1.4,2.523" id="path43" />
		<path d="M 5.909,3.687 C 5.999,4.717 3.618,4.673 2.707,5.494 1.774,6.33 1.027,6.613 0.4972,5.494 -0.2971,3.762 1.866,3.09 2.707,5.494" id="path45" />
		<path d="M 6.656,4.434 C 7.776,4.434 7.683,4.15 8.335,3.03 8.988,1.91 10.48,1.254 8.709,0.507 6.935,-0.2394 6.377,1.627 8.055,2.851" id="path47" />
		<path d="m 28.28,5.21 c -0.15,0.463 -0.94,1.583 -1.87,0.194 -0.94,-1.403 -0.37,-2.717 0.55,-2.717 0.94,0 1.21,1.971 1.32,2.523 0.15,0.567 1.03,0.941 2.15,1.209 1.12,0.284 1.95,0.194 2.13,1.493 0.2,1.314 0.85,2.148 2.06,2.328 1.21,0.2 1.39,1.69 1.96,2.81 0,0 0.15,-0.15 0.66,-0.84 0.55,-0.74 1.03,-0.19 1.77,-0.15 0.75,0.15 0.75,-1.68 0.75,-1.68 0,0 -2.52,-2.527 -1.78,1.4" id="path49" />
		<path d="M 35.26,10.63 C 35.12,9.405 35,9.226 35.46,8.763 35.92,8.286 37.13,6.703 36.01,6.151 34.89,5.583 33.97,7.733 35.46,8.763" id="path51" />
		<path d="m 32.19,6.987 c 0,-1.21 -1.78,-3.18 -1.12,-3.449 C 31.73,3.254 31.64,1.104 30.41,0.9251 29.2,0.731 29.4,3.254 30.79,3.807" id="path53" />
		<path d="M 33.59,9.973 C 32.28,9.779 32.01,9.405 31.44,10.15 30.89,10.9 29.86,11.38 29.58,10.35 29.29,9.316 30.52,7.823 31.73,9.779" id="path55" />
		<path d="m 36.29,12.5 c -0.92,-0.15 -1.2,-0.29 -1.67,0.64 -0.48,0.94 -1.03,2.24 -1.86,0.94 -0.85,-1.32 0,-2.81 2.04,-1.21" id="path57" />
		<path d="m 34.59,37.26 c 0.3,0.37 1.57,0.96 1.73,-0.71 0.17,-1.67 -0.94,-2.57 -1.76,-2.14 -0.82,0.45 -0.15,2.31 0,2.85 0.18,0.54 0.27,2.33 -0.58,3.11 -0.87,0.77 -1.64,1.08 -1.19,2.32 0.44,1.24 0.27,2.29 -0.72,3.03 -0.99,0.73 -0.45,2.13 -0.42,3.39 0,0 -0.15,0 -0.97,-0.44 -0.85,-0.39 -0.98,0.32 -1.61,0.75 -0.61,0.44 -1.45,-1.13 -1.45,-1.13 0,0 1.05,-3.41 2.23,0.4" id="path59" />
		<path d="m 31.7,46.35 c -0.5,-1.11 -0.42,-1.37 -1.05,-1.56 -0.63,-0.19 -2.45,-1.02 -1.72,-2.04 0.74,-1.02 2.56,0.43 1.72,2.04" id="path61" />
		<path d="m 32.71,41.69 c -0.58,-1.07 -0.74,-2.76 -1.45,-2.7 -0.71,0.1 -1.64,-1.88 -0.65,-2.61 0.98,-0.74 2,1.57 1.03,2.73" id="path63" />
		<path d="m 32.88,44.99 c 1.06,-0.78 1.13,-1.24 1.98,-0.85 0.84,0.4 1.96,0.33 1.73,-0.71 -0.24,-1.04 -2.01,-1.78 -2.16,0.51" id="path65" />
		<path d="m 31.67,48.48 c 0.77,-0.52 0.94,-0.82 1.79,-0.21 0.85,0.6 1.95,1.49 2.09,-0.1 0.15,-1.54 -1.32,-2.47 -2.39,-0.1" id="path67" />
		<path d="m 43.48,0.8206 c -1.12,0.7464 0.15,2.8064 2.06,3.0754 1.95,0.284 2.15,0.478 2.33,1.598 0.19,1.119 -1.59,4.105 -0.47,5.036 1.12,0.94 2.33,-0.18 1.96,-1.408 -0.37,-1.21 -1.67,-1.299 -2.24,-1.299" id="path69" />
		<path d="m 43.67,3.06 c -0.57,1.493 -1.49,3.27 -2.7,2.06 -1.21,-1.224 0.55,-2.433 1.12,-1.866 0.55,0.553 0.65,1.493 0.65,1.493" id="path71" />
		<path d="m 45.54,3.911 c 0.74,-0.373 0.92,-0.941 1.21,-2.06 0.28,-1.12 0.94,-1.8665 1.86,-0.9408 0.94,0.9408 0.2,1.8808 -0.65,1.9708 -0.84,0.149 -1.3,-0.463 -1.3,-0.463" id="path73" />
		<path d="m 44.88,3.807 c 0.19,0.656 0.46,1.403 0.46,2.06 0,0.642 -0.27,1.866 -1.3,1.672 C 43.01,7.36 43.39,4.463 45.25,5.12" id="path75" />
		<path d="m 25.13,28.49 c -0.18,1.71 -0.63,2.53 0.97,3.71 1.6,1.17 1.67,1.42 1.3,2.5 -0.36,1.07 -2.57,2.27 -2.02,3.62 0.54,1.36 2.14,0.95 2.39,-0.3 0.24,-1.24 -0.99,-1.83 -1.55,-1.73" id="path77" />
		<path d="m 24.86,30.58 c -1.21,1.04 -2.87,2.16 -3.36,0.52 -0.49,-1.64 1.64,-1.87 1.87,-1.12 0.22,0.76 -0.15,1.63 -0.15,1.63" id="path79" />
		<path d="m 26.1,32.19 c 0.83,0 1.27,-0.37 2.04,-1.23 0.78,-0.85 1.71,-1.21 2.08,0 0.39,1.27 -0.72,1.74 -1.49,1.42 -0.8,-0.31 -0.95,-1.03 -0.95,-1.03" id="path81" />
		<path d="m 25.56,31.8 c -0.15,0.67 -0.46,2.27 -0.78,2.84 -0.29,0.58 -1.12,1.51 -1.94,0.86 -0.82,-0.65 0.88,-3.03 2.21,-1.56" id="path83" />
		<path d="m 15.56,31.26 c -0.42,1.66 -0.98,2.41 0.42,3.81 1.4,1.39 1.44,1.65 0.92,2.66 -0.52,1.01 -3.7,1 -3.36,2.42 0.34,1.42 1.52,0.96 2.41,0.1 0.28,-0.29 0.23,-1.2 -0.21,-1.53" id="path85" />
		<path d="m 14.99,33.28 c -1.34,0.85 -3.15,1.72 -3.4,0 -0.25,-1.69 1.9,-1.6 2.01,-0.82 0.12,0.79 -0.37,1.58 -0.37,1.58" id="path87" />
		<path d="m 15.98,35.07 c 0.82,0.15 1.88,0.92 2.77,0.19 0.9,-0.73 1.87,-0.94 2.06,0.37 0.18,1.3 -0.97,1.6 -1.7,1.17 -0.73,-0.42 -0.76,-1.15 -0.76,-1.15" id="path89" />
		<path d="m 15.51,34.59 c -0.24,0.64 -0.46,1.41 -0.85,1.93 -0.39,0.53 -1.34,1.33 -2.05,0.57 -0.72,-0.77 1.32,-2.86 2.42,-1.22" id="path91" />
		<path d="m 28.55,15 c -0.93,-0.18 -1.77,-0.46 -1.3,-1.86 0.46,-1.41 0.74,-1.03 1.4,0.37 0.66,1.4 -0.19,1.21 0.18,2.33 0.37,1.12 0.75,2.43 0.57,3.36 -0.2,0.94 -0.29,2.52 0.18,3.93 0.46,1.4 0.56,0.65 0.37,1.68 -0.18,1.02 1.78,2.51 -0.28,2.79 -2.05,0.29 -1.3,-2.61 0.28,-2.79" id="path93" />
		<path d="m 29.2,21.08 c 0.94,0 1.69,-0.48 2.33,-0.19 0.66,0.28 3.36,-0.84 2.35,-2.05 -1.03,-1.22 -3.09,0.75 -2.35,2.05" id="path95" />
		<path d="m 29.29,19.86 c -0.46,-0.47 -0.83,-1.03 -1.49,-0.84 -0.64,0.19 -2.05,-0.18 -1.87,-1.49 0.2,-1.3 1.41,-0.93 2.06,-0.18 0.66,0.74 0.29,1.21 -0.19,1.67" id="path97" />
		<path d="m 29.4,22.2 c -1.12,0 -1.96,-0.15 -2.15,0.37 -0.2,0.47 0.46,2.71 -1.12,2.33 -1.59,-0.37 -0.29,-2.8 1.12,-2.33" id="path99" />
		<path d="m 46.57,14.82 c -0.29,0.75 1.4,1.96 1.77,1.87 0.99,-0.25 0.93,-1.21 0.75,-1.78 -0.39,-1.15 -1.31,-0.37 -2.52,-0.14 -1.21,0.28 -1.78,-3.27 -2.15,-4.2 0,0 -2.06,-1.777 -2.44,-0.19 -0.37,1.58 0.2,2.52 1.23,2.24 1.01,-0.29 1.21,-1.59 1.21,-2.05" id="path101" />
		<path d="m 38.44,18.18 c -2.06,-0.19 -2.23,-2.61 -0.37,-2.7 1.87,-0.15 0,2.05 0.37,2.7 0.38,0.66 0.84,1.41 2.62,1.68 1.77,0.28 2.61,1.97 3.73,3.18 0,0 1.12,1.58 2.9,0.55" id="path103" />
		<path d="m 44.04,22.2 c -0.15,1.02 -1.03,1.49 -0.28,2.33 0.75,0.84 2.06,3.07 0.46,3.27 -1.58,0.18 -1.95,-3.09 -0.46,-3.27" id="path105" />
		<path d="m 40.31,19.77 c 0.55,0.94 0.46,1.86 -0.28,2.52 -0.75,0.66 -2.9,2.52 -0.29,2.61 2.62,0.15 2.35,-2.52 0.29,-2.61" id="path107" />
		<path d="m 39.65,19.39 c 1.21,-0.18 2.99,0.2 2.99,-0.92 0,-1.12 0.19,-2.81 1.4,-2.72 1.21,0.15 1.41,3.36 -1.4,2.7" id="path109" />
		<path d="m 39.1,19.02 c -1.4,-0.15 -1.31,0 -1.58,0.94 -0.28,0.93 0,2.99 -1.49,2.05 -1.5,-0.93 0.15,-2.53 1.49,-2.05" id="path111" />
		<path d="m 44.04,21.92 c 1.3,-0.29 1.68,-0.57 2.53,-0.47 0.83,0.15 1.86,-0.94 0.74,-1.77 -1.12,-0.84 -2.33,0.28 -1.49,1.86" id="path113" />
		<path d="m 15.32,45.46 c -0.72,1.93 -3.11,1.48 -2.72,-0.35 0.4,-1.82 1.99,0.54 2.72,0.35 0.71,-0.2 3.91,2.09 4.64,0.45 0.72,-1.65 2.57,-2.02 4.02,-2.79 0,0 1.82,-0.67 1.3,-2.65" id="path115" />
		<path d="m 22.98,43.62 c 0.97,0.36 1.4,0.53 1.4,0.53 1.02,-0.5 3.58,-0.36 2.75,1 -1,1.61 -2.96,0.49 -2.75,-1" id="path117" />
		<path d="m 19.04,46.52 c 0.15,-1.22 1.06,-2.22 0,-2.51 -1.08,-0.29 -2.65,-0.9 -2.24,-2.05 0.4,-1.15 3.59,-0.49 2.24,2.05" id="path119" />
		<path d="m 16.99,45.89 c -0.75,0.1 -0.64,1.23 -0.85,1.31 0,0 3.43,0.76 2.15,1.96 -1.28,1.2 -2.14,-0.28 -1.31,-1.51" id="path121" />
		<path d="m 22.71,43.55 c 0,-1.33 -0.15,-1.77 0.19,-2.55 0.32,-0.79 -0.42,-2.05 -1.51,-1.18 -1.1,0.86 -0.34,2.32 1.42,1.92" id="path123" />
		<path d="m 45.27,47.13 c -0.64,1.96 1.52,3.08 2.34,1.4 0.82,-1.67 -1.89,-0.8 -2.34,-1.4 -0.47,-0.6 -0.96,-1.32 -0.52,-3.06 0.43,-1.74 -0.78,-3.17 -1.45,-4.68 0,0 -0.75,-3.82 -1.38,-4.2 0,0 -1.12,-1.87 -2.12,-1.87 -0.98,0 -1.61,0.38 -1.24,1.38 0.38,0.99 1.38,1.74 1.87,1.49 0.49,-0.25 1.49,-1 1.49,-1" id="path125" />
		<path d="m 43.77,40.41 c -0.98,-0.32 -1.77,0.35 -2.25,-0.66 -0.48,-1.02 -2.03,-3.1 -2.82,-1.71 -0.79,1.39 2.06,3.01 2.82,1.71" id="path127" />
		<path d="M 44.54,44.79 C 43.89,43.91 43,43.63 42.12,44.06 c -0.9,0.43 -3.47,1.67 -2.53,-0.77 0.94,-2.44 3.24,-1.15 2.53,0.77" id="path129" />
		<path d="m 44.63,45.54 c 0.64,-1.04 1,-2.82 2.03,-2.38 1.03,0.44 2.64,0.92 3.03,-0.23 0.4,-1.15 -2.54,-2.6 -3.03,0.23" id="path131" />
		<path d="m 44.75,46.2 c -0.47,1.32 -0.51,1.2 -1.48,1.09 -0.97,-0.1 -2.75,-1.17 -2.48,0.57 0.28,1.74 2.36,0.9 2.48,-0.57" id="path133" />
		<path d="m 44.03,40.52 c 0.77,-1.1 1.18,-1.33 1.42,-2.14 0.24,-0.81 1.58,-1.35 1.92,0 0.33,1.36 -1.18,2.04 -2.3,0.64" id="path135" />
		<path d="m 32.01,34.41 c 0.46,-1.21 3.82,-3.27 3.27,-5.13 -0.57,-1.87 -3.36,-4.94 -1.22,-5.23 2.15,-0.27 1.77,2.9 0.37,3.27" id="path137" />
		<path d="m 35.26,30.5 c 0.95,-0.37 3.56,-2.98 4.48,-0.83 0.94,2.13 -2.33,2.23 -2.5,1.38 -0.2,-0.83 -0.2,-1.67 -0.2,-1.67" id="path139" />
		<path d="m 34.06,31.99 c -0.29,-1.12 -0.93,-4.56 -2.05,-4.01 -1.12,0.55 -0.57,2.04 0.46,2.42 1.03,0.37 1.03,-0.18 1.03,-0.18" id="path141" />
		<path d="m 18.01,32.83 c 1.31,-1.31 1.68,-2.52 1.49,-4.02 -0.18,-1.49 0.66,-4.47 2.15,-5.88 1.49,-1.39 3.16,-2.24 0.94,-3.45 -2.24,-1.21 -2.34,0.66 -1.78,1.21 0.55,0.57 0.93,1.23 1.87,1.23" id="path143" />
		<path d="m 20.07,25.28 c -0.29,-0.66 -0.29,-0.47 -0.47,-1.41 -0.19,-0.92 -0.19,-1.58 -1.12,-1.4 -1.04,0.21 -1.97,1.03 -0.15,1.95 0.86,0.44 1.23,-0.55 1.23,-0.55" id="path145" />
		<path d="m 19.69,26.49 c 1.03,-0.47 2.15,-2.05 3.27,-1.3 1.12,0.74 0.84,1.58 -0.28,1.95 -1.12,0.38 -1.69,-0.85 -1.4,-1.77" id="path147" />
		<path d="m 15.12,21.72 c -0.56,0.38 -0.94,0.15 -1.78,-0.55 -0.84,-0.66 0.19,-2.06 1.59,-1.78 1.4,0.29 0.66,2.53 -1.03,4.2 -1.68,1.69 0.19,3.93 0.19,5.13 0,0 -0.56,2.44 -2.33,0.84 -1.775,-1.58 0.28,-2.04 0.93,-1.67 0.65,0.37 1.4,0.83 1.4,0.83" id="path149" />
		<path d="M 13.16,25.65 C 11.85,25.5 11.2,25.83 10.82,24.99 10.45,24.16 12.99,20.96 10.54,20.8 9.143,20.65 9.984,23.59 11.1,23.69" id="path151" />
		<path d="m 18.86,31.43 c -0.2,-1.41 -0.51,-1.36 -0.75,-2.53 -0.28,-1.3 -1.12,-2.13 -1.78,-1.58 -1.3,1.11 0.29,3.73 1.78,1.58" id="path153" />
		<path d="m 1.027,22.38 c 2.706,0.57 2.8,2.9 2.894,4.66 0.09,1.77 0.09,2.15 -0.281,2.98 -0.373,0.85 0.09,1.03 1.212,1.5 1.12,0.47 1.774,0.37 1.867,1.12 0.09,0.74 2.146,1.97 2.612,1.22 C 9.797,33.11 8.865,30.5 6.719,32.64" id="path155" />
		<path d="m 4.013,27.41 c 1.027,0.48 1.493,0.48 1.866,1.12 0.374,0.66 1.867,0.48 1.867,-0.75 0,-1.21 -2.426,-1.58 -1.867,0.75" id="path157" />
		<path d="m 3.733,25.56 c -0.747,-0.1 -1.68,-0.37 -1.959,0.55 -0.28,0.93 0.746,1.96 -0.281,2.53 -1.0272,0.55 -2.52,-1.32 0.281,-2.53" id="path159" />
		<path d="m 3.452,30.68 c -0.373,0.46 -2.7996,1.21 -1.774,2.24 1.026,1.03 2.428,0.66 2.147,-0.37 -0.281,-1.03 -0.654,-1.3 -0.933,-1.5" id="path161" />
		<path d="m 44.7,36.47 c 0,-1.49 -0.37,-4.19 0.93,-5.13 1.31,-0.94 1.95,-1.59 2.43,-2.33 0.46,-0.75 1.49,-2.81 0.75,-3.64 -0.75,-0.84 -2.33,1.86 -0.75,3.64" id="path163" />
		<path d="m 44.88,32.46 c -0.28,-1.03 -1.67,-3.56 -2.52,-2.33 -0.84,1.21 0.28,2.98 1.86,1.12" id="path165" />
		<path d="m 44.6,34.23 c 0.65,-0.28 1.12,-1.68 2.61,-1.4 1.51,0.28 2.43,-0.15 2.52,0.93 0.15,1.03 -0.37,1.22 -1.39,1.12 -1.03,-0.15 -1.77,-1.21 -1.13,-2.05" id="path167" />
		<path d="m 19.96,45.91 c 1.14,-0.2 1.51,-0.29 2.35,0.92 0.83,1.21 -0.47,1.21 -0.2,1.86 0.28,0.66 2.24,1.4 2.43,0.66 0.18,-0.75 -0.94,-2.71 -2.06,-1.96" id="path169" />
	</g>
</svg>
