<?xml version="1.0" encoding="UTF-8" standalone="no"?>
<svg xmlns:dc="http://purl.org/dc/elements/1.1/" xmlns:cc="http://creativecommons.org/ns#" xmlns:rdf="http://www.w3.org/1999/02/22-rdf-syntax-ns#" xmlns:svg="http://www.w3.org/2000/svg" xmlns="http://www.w3.org/2000/svg" version="1.1" x="0px" y="0px" xml:space="preserve" width="50.00" height="50.00" viewBox="0 0 50.00 50.00">
	<metadata id="metadata2">
		<rdf:RDF>
			<ns:item rdf:ID="biblio1">
				<ns:link>rdf:resource=&quot;http://pubs.usgs.gov/tm/2006/11A02/</ns:link>
				<ns:title>U.S. Geological Survey, 2006, FGDC Digital Cartographic Standard for Geologic Map Symbolization (PostScript Implementation): U.S. Geological Survey Techniques and Methods 11-A2</ns:title>
			</ns:item>
			<ns:item rdf:ID="biblio2">
				<ns:link>https://davenquinn.com/projects/geologic-patterns/</ns:link>
				<ns:title>FGDC Geologic Patterns for the Web</ns:title>
			</ns:item>
			<rdf:Description>
				<dc:description>
					Converted from 'FGDC Geologic Patterns for the Web' to QGIS compatible svg symbols, with customisable fill colour/stroke colour/stroke width (when appropriate).
					SVG scaled to 50x50 pixels so that base outline-width is 0.387 px and width is 90 in the QGIS xml definition file. 
					Some of the original FGDC symbols have been omitted from this set because they can be generated from other symbols using the 'texture width' and/or 'stroke width' fields in QGIS symbology form.
				</dc:description>
				<dc:date>01 MARCH 2019</dc:date>
				<dc:creator>GeoProc.com</dc:creator>
				<dc:publisher rdf:resource="https://github.com/BC-Consulting/QGIS-FGDC-Fill" />
			</rdf:Description>
			<cc:Work rdf:about="">
				<dc:format>image/svg+xml</dc:format>
				<dc:type rdf:resource="http://purl.org/dc/dcmitype/StillImage" />
				<dc:title>FGDC fill symbol: Misc. and Metamorphic - 431</dc:title>
			</cc:Work>
		</rdf:RDF>
	</metadata>
	<path style="fill:none;stroke:none;stroke-width:0;" id="rect1500" width="50.00" height="50.00" x="0.0" y="0.0" />
	<g style="fill:none;" stroke="param(outline) #000000" stroke-width="param(outline-width) 0.43">
		<path d="M 0.2203,20.25 C 0.1411,20.32 0.068,20.37 3.16e-4,20.44" id="path175" />
		<path d="M 0.2203,45.25 C 0.1411,45.31 0.068,45.37 3.16e-4,45.44" id="path407" />
		<path d="M 0.6823,33.34 C 1.386,32.89 2.061,31.84 2.942,30.34 3.733,29 5.64,26.37 6.572,25.01 v 0 c 0.101,-0.16 0.195,-0.3 0.275,-0.42 0,0 0.262,-0.69 0.657,-1.35" id="path317" />
		<path d="M 0.6823,8.332 C 1.386,7.896 2.061,6.836 2.942,5.341 3.733,3.999 5.64,1.37 6.572,0.0018" id="path103" />
		<path d="M 1.207,48.42 C 0.9425,48.85 0.7313,49.43 0.465,50" id="path399" />
		<path d="M 1.357,36.39 C 1.086,36.69 0.5301,37.37 3.16e-4,38.14" id="path371" />
		<path d="M 10.06,9.693 C 9.221,10.71 7.987,12.28 7.638,13.47 7.283,14.66 7.021,15.41 6.8,15.72" id="path157" />
		<path d="M 10.58,34.68 C 9.751,35.7 7.987,37.29 7.638,38.47 7.283,39.66 7.021,40.41 6.8,40.71" id="path387" />
		<path d="M 11.03,0.0018 C 10.48,0.706 9.563,1.692 8.718,2.597 L 8.302,3.094" id="path183" />
		<path d="M 11.55,5.649 C 12.6,4.388 13.96,1.591 15.22,0.0018" id="path121" />
		<path d="M 12.08,13.78 C 12.52,13.02 13.82,11.5 14.7,10.6" id="path161" />
		<path d="M 12.53,0.0018 C 11.82,0.7597 11.33,1.39 10.94,1.933 v 0 C 10.29,2.872 9.979,3.557 9.483,4.234" id="path181" />
		<path d="M 13.27,9.633 C 12.48,10.29 10.98,12.02 10.36,13.12 9.744,14.22 8.316,15.41 6.747,18.1" id="path159" />
		<path d="M 13.62,10.27 C 16.91,8.6 17.68,4.415 20.61,2.423" id="path91" />
		<path d="M 13.84,13.64 C 12.61,14.92 9.791,17.56 9,19.06 8.208,20.56 6.552,23.19 5.633,24.92" id="path147" />
		<path d="M 13.84,38.65 C 12.61,39.92 9.791,42.56 9,44.06 8.208,45.56 7.196,47.41 6.049,48.24" id="path377" />
		<path d="M 14.94,11.62 C 16.66,8.848 19.03,8.453 21.37,5.193 21.81,4.583 23.91,2.155 24.62,1.363 24.76,1.216 24.89,1.048 25,0.8737" id="path107" />
		<path d="M 16.85,1.819 C 17.63,1.377 18.41,0.7396 19.19,0.0018" id="path123" />
		<path d="M 16.87,0.0018 C 15.69,1.296 13.59,4.073 12.77,5.723 12.27,6.736 11.41,7.849 10.59,8.587" id="path97" />
		<path d="M 17.44,48.07 C 16.65,48.4 15.91,49.12 15.22,50" id="path311" />
		<path d="M 18.5,6.387 C 21.24,4.844 22.69,1.444 23.85,0.0018" id="path87" />
		<path d="M 2.613,35.65 C 3.878,34.11 5.848,30.99 6.317,30.18 6.525,29.81 7.82,28.55 8.658,27.65" id="path315" />
		<path d="M 2.707,20.47 C 2.355,20.95 1.695,22.01 1.519,22.54 1.343,23.07 1.211,23.42 1.211,23.42 0.9465,23.85 0.7353,24.42 0.4691,25" id="path129" />
		<path d="M 2.707,45.47 C 2.355,45.95 1.694,47.01 1.518,47.54 1.342,48.07 1.211,48.42 1.211,48.42 0.9465,48.85 0.7346,49.43 0.4691,50" id="path359" />
		<path d="M 22.22,0.0018 C 21.75,0.7128 21.35,1.41 21.25,1.585" id="path89" />
		<path d="M 22.54,37.86 C 23.06,37.29 24.48,36.34 25,36 v 0 c 0.12,-0.1 0.19,-0.12 0.19,-0.12 1.08,-0.73 1.86,-1.68 2.34,-2.34 0.48,-0.66 1.95,-2.48 2.24,-2.92" id="path403" />
		<path d="M 24.01,4.019 C 24.37,3.536 24.63,3.04 25,2.443 v 0 c 0.4,-0.65 0.93,-1.422 1.85,-2.4345" id="path127" />
		<path d="M 24.27,49.56 C 24.14,49.67 23.99,49.82 23.85,50" id="path301" />
		<path d="M 24.27,7.836 C 24.52,7.44 25.01,6.803 25.01,6.803 26.42,5.039 27.7,4.683 29.25,1.102" id="path109" />
		<path d="M 25.01,0.867 C 25.18,0.592 25.34,0.2969 25.47,0.0018" id="path73" />
		<path d="M 26.21,48.42 C 25.95,48.85 25.74,49.43 25.47,50" id="path281" />
		<path d="M 3.16e-4,0.867 C 0.1787,0.592 0.3289,0.2969 0.465,0.0018" id="path167" />
		<path d="M 3.16e-4,18.49 C 0.5683,17.88 1.12,17.34 1.651,16.9" id="path177" />
		<path d="M 3.16e-4,2.436 C 0.402,1.786 0.9298,1.015 1.854,0.0018" id="path125" />
		<path d="M 3.16e-4,25.87 C 0.1787,25.59 0.3289,25.29 0.465,25" id="path397" />
		<path d="M 3.16e-4,27.43 C 0.402,26.78 0.9298,26.01 1.854,25.01 v 0 c 0.205,-0.23 0.429,-0.47 0.676,-0.72 0,0 0.448,-0.52 0.624,-1.05 0.176,-0.53 0.484,-2.64 0.88,-3.39 0.396,-0.75 2.069,-2.64 2.29,-3.17" id="path353" />
		<path d="M 3.16e-4,29.73 C 1.092,28.37 2.424,26.65 3.136,25.01" id="path325" />
		<path d="M 3.16e-4,31.81 C 1.415,30.04 2.702,29.68 4.247,26.11" id="path327" />
		<path d="M 3.16e-4,4.724 C 1.092,3.375 2.424,1.652 3.136,0.0018" id="path111" />
		<path d="M 3.16e-4,43.5 C 0.5683,42.88 1.12,42.34 1.651,41.91" id="path409" />
		<path d="M 3.16e-4,6.803 C 1.415,5.039 2.702,4.683 4.247,1.102" id="path113" />
		<path d="M 3.278,49.65 C 3.235,49.77 3.186,49.89 3.135,50" id="path357" />
		<path d="M 3.308,10.65 C 2.237,12.15 1.535,14.82 0.8882,15.37 0.6213,15.61 0.3202,15.9 9.866e-4,16.23" id="path179" />
		<path d="M 3.326,9.432 C 4.939,8.137 5.848,5.85 6.317,5.025 6.525,4.663 7.142,3.127 7.98,2.229" id="path101" />
		<path d="M 3.384,36.05 C 2.314,37.54 1.535,39.81 0.8875,40.38 0.6206,40.61 0.3195,40.9 3.16e-4,41.24" id="path411" />
		<path d="M 3.954,23.8 C 4.393,22.93 5.049,21.01 5.566,20.38 6.405,19.36 8.034,18.49 8.913,17.13 9.791,15.77 10.8,14.67 11.16,14.23" id="path151" />
		<path d="M 32.77,5.334 C 32.04,6.192 31.12,7.842 30.4,9.727 29.65,11.67 27.87,14.07 27.31,15.75" id="path69" />
		<path d="M 33.56,8.768 C 35.37,6.648 35.9,2.779 38.48,0.5585" id="path17" />
		<path d="M 34.01,4.885 C 33.56,6.119 33.03,7.661 32.07,9.197 31.1,10.74 30.3,12.9 30.04,13.87 c -0.26,0.96 -2.59,4.29 -3.95,5.35" id="path71" />
		<path d="M 34.7,0.0018 C 34.29,0.4914 33.86,1.041 33.6,1.457" id="path83" />
		<path d="M 35.92,1.96 C 35.27,2.899 34.96,3.583 34.46,4.254" id="path19" />
		<path d="M 35.95,1.933 C 36.33,1.39 36.83,0.7597 37.54,0.0018" id="path79" />
		<path d="M 36.04,0.0018 C 35.48,0.706 34.56,1.692 33.72,2.597 l -0.1,0.07 c -0.83,0.899 -1.96,1.838 -2.17,2.2 -0.47,0.825 -1.47,3.334 -3.08,4.622" id="path81" />
		<path d="M 38.49,9.271 C 40.61,6.367 42.43,3.966 44.36,1.954" id="path11" />
		<path d="M 38.63,10.27 C 41.91,8.6 42.69,4.415 45.62,2.423" id="path9" />
		<path d="M 39.95,11.62 C 41.66,8.848 44.04,8.453 46.37,5.193" id="path27" />
		<path d="M 4.06,47.89 C 4.499,47.02 5.05,46.01 5.566,45.38 6.405,44.37 7.853,43.36 8.738,41.99 9.617,40.63 10.76,39.44 11.11,39" id="path381" />
		<path d="M 4.313,5.153 C 4.027,5.589 3.015,7.883 2.53,8.54 2.046,9.197 1.276,10.15 0.1981,10.87 c 0,0 -0.074,0.1 -0.197784,0.13" id="path169" />
		<path d="M 4.401,25.25 C 4.797,24.2 5.288,22.55 6.17,21.54 7.048,20.53 7.491,19.94 7.752,19.55" id="path149" />
		<path d="M 4.555,49.61 C 4.951,48.55 5.289,47.55 6.17,46.54 7.048,45.53 7.491,44.94 7.752,44.55" id="path379" />
		<path d="M 41.85,1.819 C 42.63,1.377 43.41,0.7396 44.19,0.0018" id="path35" />
		<path d="M 41.87,0.0018 C 40.7,1.296 38.6,4.073 37.78,5.723 36.86,7.54 34.52,8.272 33.6,10.36" id="path15" />
		<path d="M 42.44,48.07 C 41.65,48.4 40.92,49.12 40.22,50" id="path203" />
		<path d="M 45.67,12.28 C 46.72,11.05 47.78,7.923 48.35,6.87 48.58,6.447 49.23,5.683 50,4.724" id="path23" />
		<path d="M 46.78,8.278 C 46.08,9.07 45.3,12.21 43.37,14.03" id="path45" />
		<path d="M 47.22,0.0018 C 46.75,0.7128 46.35,1.41 46.25,1.585" id="path7" />
		<path d="M 47.55,12.85 C 48.07,12.28 49.48,11.34 50,11" id="path75" />
		<path d="M 47.55,37.86 C 48.07,37.29 49.48,36.34 50,36" id="path283" />
		<path d="M 49.28,32.84 C 49.52,32.44 49.77,32.1 50,31.81" id="path215" />
		<path d="M 49.28,49.56 C 49.14,49.67 48.99,49.82 48.85,50" id="path191" />
		<path d="M 49.28,7.836 C 49.52,7.44 49.77,7.098 50,6.803" id="path29" />
		<path d="M 5.149,29.43 C 5.855,28.77 6.934,27.13 6.934,27.13 7.538,26.31 7.92,25.61 8.175,25 v 0 c 0.583,-1.39 0.483,-2.31 0.785,-3.17 0.442,-1.23 2.47,-3.91 3.57,-5.24" id="path421" />
		<path d="M 5.149,4.428 C 5.855,3.764 6.934,2.128 6.934,2.128 7.538,1.31 7.92,0.6121 8.175,0.0018" id="path187" />
		<path d="M 50,0.8737 C 49.89,1.048 49.77,1.216 49.62,1.363 48.91,2.155 46.81,4.576 46.37,5.193" id="path25" />
		<path d="M 50,2.443 C 49.63,3.04 49.37,3.536 49.01,4.019" id="path37" />
		<path d="M 6.317,41.69 C 6.096,42.21 4.423,44.11 4.027,44.85 3.631,45.6 3.322,47.71 3.147,48.24 2.971,48.77 2.523,49.29 2.523,49.29 2.276,49.54 2.052,49.78 1.847,50" id="path351" />
		<path d="M 7.947,9.781 C 10.64,8.077 10.48,3.141 13.47,0.5585" id="path99" />
		<path d="M 7.96,34.81 C 10.19,32.56 10.95,28 13.95,25.42" id="path313" />
		<path d="M 8.202,29.73 C 7.592,30.69 5.835,33.9 4.91,35.87 4.027,37.75 3.634,39.28 2.27,40.38" id="path393" />
		<path d="M 8.43,4.18 C 7.685,5.059 6.143,7.795 5.391,9.727 4.643,11.67 3.191,14.13 1.826,15.23" id="path163" />
		<path d="M 8.604,26.45 C 8.852,26.05 9.281,25.49 9.697,25 v 0 c 0.121,-0.14 0.242,-0.28 0.353,-0.41 0,0 0,0 0.32,-0.47 0.36,-0.48 0.41,-1.1 1.46,-2.33 1.05,-1.23 2.11,-2.23 2.68,-3.95 0.58,-1.71 1.65,-3.87 2.88,-5.57" id="path419" />
		<path d="M 8.718,27.59 C 9.556,26.69 11.02,25 11.02,25 c 0.14,-0.18 3.79,-3.7 4.93,-5.5" id="path417" />
		<path d="M 8.872,12.82 C 10.78,11.47 14.24,5.461 14.88,4.583 15.52,3.697 16.33,2.752 17.3,2.047" id="path95" />
		<path d="M 9.255,30.24 C 8.812,31.46 8.034,32.66 7.062,34.2 6.096,35.74 5.303,37.9 5.039,38.87 4.775,39.83 3.367,41.73 2.003,42.79" id="path395" />
		<path d="M 9.322,4.683 C 8.879,5.917 8.034,7.661 7.062,9.197 6.096,10.74 5.303,12.9 5.039,13.87 4.774,14.84 3.366,16.73 2.002,17.78" id="path165" />
		<path d="M 9.697,0.0018 C 9.281,0.4914 8.852,1.041 8.604,1.457" id="path185" />
		<path d="m 1.357,11.38 c -0.271,0.31 -0.8269,1 -1.356684,1.75" id="path141" />
		<path d="m 11.25,40.16 c 0.43,-0.57 0.87,-1.25 1.36,-2.08 0.44,-0.77 1.23,-1.68 2.11,-2.59" id="path391" />
		<path d="m 11.6,30.53 c 1.11,-1.49 2.13,-3.65 3.62,-5.52 0.69,-0.88 1.43,-1.61 2.22,-1.94" id="path339" />
		<path d="m 12.52,41.6 c -1.1,1.31 -3.125,4 -3.567,5.23 C 8.651,47.69 8.752,48.61 8.168,50" id="path413" />
		<path d="m 12.52,50 c 0.15,-0.15 0.3,-0.3 0.46,-0.47" id="path343" />
		<path d="m 12.96,35.04 c -0.79,0.66 -1.98,1.98 -2.59,3.08 -0.619,1.1 -1.592,2.77 -3.831,4.31" id="path389" />
		<path d="m 13.12,24.36 c -0.71,0.76 -1.49,1.93 -1.87,2.47 l -0.47,0.59 c -0.65,0.93 -0.828,1.16 -1.324,1.84" id="path415" />
		<path d="m 13.45,41.33 c -0.58,1.32 -1.41,3.3 -2.34,4.36 -0.92,1.06 -1.01,1.76 -1.453,2.73" id="path373" />
		<path d="m 13.71,16.78 c -0.57,1.32 -1.67,2.85 -2.6,3.91 -0.92,1.06 -1.01,1.76 -1.453,2.73" id="path143" />
		<path d="m 13.79,40.5 c 0.45,-0.89 1.33,-2.95 2.6,-4.01 1.28,-1.06 1.85,-1.67 2.42,-2.29" id="path375" />
		<path d="m 13.89,8.808 c 1.04,-2.79 3.54,-4.842 5.47,-6.854" id="path93" />
		<path d="m 13.93,15.8 c 0.44,-0.88 1.32,-2.95 2.59,-4 1.28,-1.06 1.85,-1.68 2.42,-2.294" id="path145" />
		<path d="m 14.18,34.93 c 2.96,-3.42 3.86,-4.98 6.76,-7.33" id="path305" />
		<path d="m 14.94,36.62 c 1.72,-2.77 4.09,-3.16 6.43,-6.42" id="path321" />
		<path d="m 15.2,19.31 c 0.22,-0.31 0.84,-1.79 1.19,-2.32 0.77,-1.15 1.81,-4.36 2.33,-5.72 0.53,-1.362 3.09,-4.313 3.92,-5.373" id="path155" />
		<path d="m 15.2,44.31 c 0.22,-0.31 0.84,-1.79 1.19,-2.32 0.77,-1.15 1.81,-4.36 2.33,-5.72 0.53,-1.36 3.09,-4.32 3.92,-5.37" id="path385" />
		<path d="m 15.95,44.5 c -1.14,1.81 -3.65,4.14 -4.13,4.62 -0.49,0.49 -0.46,0.41 -0.46,0.41 -0.1,0.14 -0.2,0.3 -0.34,0.47" id="path345" />
		<path d="m 16.85,26.82 c 0.78,-0.45 1.56,-1.08 2.34,-1.81" id="path341" />
		<path d="m 16.87,50 c 0.12,-0.13 0.23,-0.25 0.33,-0.35 0,0 0.82,-0.62 1.19,-1.36 0.38,-0.75 3.06,-4.35 3.43,-4.79" id="path337" />
		<path d="m 17.32,17.3 c 1.54,-2.86 4.49,-3.93 7.31,-8.505" id="path135" />
		<path d="m 17.32,42.3 c 1.54,-2.86 4.52,-4.15 7.33,-8.73" id="path365" />
		<path d="m 17.38,37.27 c -1.24,1.7 -2.3,3.86 -2.88,5.57 -0.57,1.72 -1.63,2.72 -2.68,3.95 -1.06,1.23 -1.1,1.85 -1.45,2.33 -0.36,0.49 -0.33,0.47 -0.33,0.47 C 9.925,49.72 9.804,49.86 9.684,50" id="path347" />
		<path d="m 18.5,31.38 c 2.74,-1.53 4.98,-5.47 6.13,-6.91" id="path299" />
		<path d="m 19.19,25 c 2.01,-1.92 4,-4.56 5.81,-6.51 v 0 c 0.56,-0.61 1.12,-1.15 1.65,-1.59" id="path119" />
		<path d="m 19.19,50 c 2.01,-1.92 4,-4.56 5.81,-6.51 v 0 c 0.56,-0.61 1.74,-2.07 2.27,-2.5" id="path335" />
		<path d="m 19.72,23.02 c 0,0 3.35,-4.78 5.27,-6.79 v 0 c 0.32,-0.33 0.62,-0.62 0.89,-0.86 0.64,-0.55 2.25,-3.6 3.32,-5.09" id="path173" />
		<path d="m 20.43,43.78 c 1.3,-0.96 3,-3.27 3.49,-3.76 -0.92,0.93 0.47,-0.43 0.92,-1.08 l 0.71,-0.76 c 0.54,-0.77 1.05,-2 1.31,-2.31" id="path369" />
		<path d="m 20.44,46.68 c 0,0 2.63,-3.44 4.56,-5.44 v 0 c 0.32,-0.34 0.62,-0.63 0.89,-0.86 0.64,-0.57 1.34,-3.23 2.42,-4.72" id="path405" />
		<path d="m 20.82,10.14 c -0.49,1.05 -0.81,2.34 -1.89,3.64" id="path137" />
		<path d="m 20.94,15 c -0.96,0.96 -3.01,3.14 -4.06,5.16 -1.06,2.02 -2.07,2.78 -2.94,3.57" id="path133" />
		<path d="m 20.98,0.0018 c -0.44,0.664 -1,1.3082 -1.62,1.9522" id="path117" />
		<path d="m 20.98,25 c -0.44,0.66 -1,1.31 -1.62,1.95 v 0 c -1.93,2.02 -4.43,4.06 -5.47,6.86" id="path333" />
		<path d="m 21.02,18.37 c 1.8,-1.55 1.96,-1.84 2.57,-2.53 0.54,-0.63 0.93,-1.12 1.38,-1.77 l 0.5,-0.92 c 0.53,-0.76 1.58,-2.01 1.84,-2.32" id="path139" />
		<path d="m 21.25,26.59 c 0.1,-0.18 0.36,-0.6 0.83,-1.32 0.1,-0.11 0.75,-0.8 0.83,-0.92 0,0 0.82,-0.52 1.23,-0.79" id="path303" />
		<path d="m 21.41,10.77 c 0.96,-1.767 1.36,-2.847 1.93,-3.9 0.23,-0.423 0.88,-1.187 1.65,-2.146 v 0 c 1.09,-1.349 2.42,-3.072 3.14,-4.7222" id="path105" />
		<path d="m 21.41,39.14 c -0.98,0.97 -3.48,3.99 -4.53,6.02 -1.06,2.03 -2.69,3.17 -3.57,3.96" id="path363" />
		<path d="m 21.46,34.17 c -0.7,0.79 -1.15,2.75 -2.78,4.89" id="path367" />
		<path d="m 21.46,36.11 c 1.05,-1.24 1.31,-3.18 1.88,-4.24 0.23,-0.42 0.88,-1.19 1.65,-2.14 v 0 c 1.09,-1.36 3.16,-3.5 3.87,-5.15" id="path319" />
		<path d="m 22.16,13.74 c 0.52,-0.57 2.32,-2.4 2.83,-2.74 v 0 c 0.12,-0.1 0.2,-0.13 0.2,-0.13 1.08,-0.72 1.85,-1.673 2.33,-2.33 C 28,7.883 29.39,5.951 29.67,5.515" id="path171" />
		<path d="m 22.22,50 c 0.1,-0.11 0.15,-0.23 0.23,-0.35 0,0 0.87,-1.1 1.29,-1.36" id="path329" />
		<path d="m 24.01,29.02 c 0.36,-0.49 0.62,-0.98 0.99,-1.57 v 0 c 0.4,-0.65 0.93,-1.43 1.85,-2.43 v 0 c 0.21,-0.23 0.43,-0.46 0.68,-0.72 0,0 0.45,-0.52 0.62,-1.05 0.18,-0.52 0.48,-2.64 0.88,-3.38 0.4,-0.75 2.07,-2.64 2.29,-3.17" id="path355" />
		<path d="m 24.18,37.78 c -0.49,0.55 -3.31,3.26 -3.93,4.59 -0.53,1.15 -2.85,4.58 -3.99,5.29" id="path361" />
		<path d="m 24.22,13.11 c -0.62,0.71 -3.15,3.23 -3.97,4.26 -0.78,0.99 -2.85,4.58 -3.99,5.29" id="path131" />
		<path d="m 24.27,32.84 c 0.25,-0.4 0.49,-0.74 0.73,-1.03 v 0 c 1.42,-1.77 2.7,-2.13 4.25,-5.7" id="path323" />
		<path d="m 25,20.44 c -0.84,0.76 -0.89,1.5 -1.83,2.27 -1.01,0.84 -2.01,2 -2.01,2 -0.1,0.1 -0.12,0.19 -0.18,0.3" id="path115" />
		<path d="m 25,45.44 c -0.84,0.76 -0.89,1.5 -1.83,2.27 -1.01,0.84 -2.01,2 -2.01,2 -0.1,0.1 -0.12,0.2 -0.18,0.29" id="path331" />
		<path d="m 25.52,34.19 c 0.67,-1.11 2.14,-2.63 3.02,-4.13 0.79,-1.35 3.57,-6.16 3.97,-6.82" id="path207" />
		<path d="m 25.68,8.332 c 0.71,-0.436 1.39,-1.496 2.26,-2.991 0.8,-1.342 2.7,-3.971 3.63,-5.3392" id="path21" />
		<path d="m 27.71,20.47 c -0.35,0.48 -1.01,1.54 -1.19,2.07 0,0 -0.31,0.88 -0.53,1.59 C 25.76,24.84 25,25.88 25,25.88 v 0 0 c -0.11,0.17 -0.24,0.33 -0.38,0.49 -0.71,0.79 -2.81,3.21 -3.25,3.83" id="path423" />
		<path d="m 27.71,45.47 c -0.35,0.48 -1.01,1.54 -1.19,2.07 -0.17,0.53 -0.31,0.88 -0.31,0.88 -0.26,0.43 -0.47,1.01 -0.73,1.58" id="path245" />
		<path d="m 28.28,49.65 c -0.1,0.12 -0.1,0.24 -0.14,0.35" id="path243" />
		<path d="m 28.65,34.77 c 1.2,-1.95 2.76,-4.22 3.22,-5.04 0.21,-0.36 0.96,-1.18 1.79,-2.08 l 0.1,-0.1 c 0.84,-0.9 1.76,-1.89 2.32,-2.59 v 0 c 0.13,-0.18 0.31,-0.4 0.8,-0.88 0.48,-0.49 2.99,-2.82 4.13,-4.62" id="path291" />
		<path d="m 29.06,47.89 c 0.44,-0.87 1,-1.88 1.51,-2.51 0.83,-1.01 2.29,-2.02 3.17,-3.39 0.88,-1.36 2.02,-2.55 2.38,-2.99" id="path265" />
		<path d="m 29.33,22.91 c 0.43,-0.88 0.73,-1.9 1.24,-2.53 0.83,-1.01 2.29,-2.02 3.17,-3.39 0.88,-1.36 2.02,-2.55 2.38,-2.99" id="path57" />
		<path d="m 29.44,25.59 c 0.4,-1.05 0.85,-3.04 1.73,-4.05 0.88,-1.01 1.32,-1.6 1.59,-1.99" id="path55" />
		<path d="m 29.56,49.61 c 0.4,-1.06 0.73,-2.06 1.61,-3.07 0.88,-1.01 1.32,-1.6 1.59,-1.99" id="path263" />
		<path d="m 30.15,29.43 c 0.7,-0.66 1.78,-2.3 1.78,-2.3 0.61,-0.82 1,-1.52 1.24,-2.13 v 0 c 0.59,-1.39 0.49,-2.31 0.8,-3.17 0.44,-1.23 2.46,-3.91 3.56,-5.24" id="path295" />
		<path d="m 30.15,4.428 c 0.7,-0.664 1.78,-2.3 1.78,-2.3 0.61,-0.818 1,-1.5159 1.24,-2.1262" id="path85" />
		<path d="m 31.32,41.69 c -0.22,0.52 -1.89,2.42 -2.29,3.16 -0.4,0.75 -0.7,2.86 -0.88,3.39 -0.17,0.53 -0.62,1.05 -0.62,1.05 -0.25,0.25 -0.47,0.49 -0.68,0.71" id="path239" />
		<path d="m 31.57,50 c 0.11,-0.15 0.2,-0.29 0.28,-0.41 0,0 0.26,-0.69 0.65,-1.35" id="path237" />
		<path d="m 32.38,36.14 c -0.71,0.79 -0.75,1.98 -1.55,3.92 -0.79,1.93 -2.94,3.95 -3.86,4.79 0,0 -0.69,0.73 -1.08,1.35 -0.4,0.61 -0.69,1.49 -0.76,1.78" id="path267" />
		<path d="m 32.73,10.53 c -0.71,0.79 -1.1,2.59 -1.9,4.52 -0.79,1.94 -2.95,3.97 -3.86,4.8 0,0 -0.69,0.73 -1.08,1.35 -0.4,0.61 -0.69,1.49 -0.76,1.78" id="path59" />
		<path d="m 33.43,33.87 c 2.4,-2.37 2.34,-5.36 4.87,-7.8" id="path205" />
		<path d="m 33.48,35.58 c 1.36,-2.06 3.38,-3.04 4.3,-4.85 0.82,-1.65 2.92,-4.44 4.09,-5.73 v 0 c 0.12,-0.14 1.18,-1.24 1.28,-1.34 0,0 1.64,-2.18 2.02,-2.93" id="path201" />
		<path d="m 33.61,26.45 c 0.25,-0.4 0.68,-0.96 1.09,-1.45 v 0 c 0.12,-0.14 0.25,-0.28 0.36,-0.41 0,0 0,0 0.32,-0.47 0.36,-0.48 0.4,-1.1 1.46,-2.33 1.05,-1.23 2.11,-2.23 2.68,-3.95 0.58,-1.71 1.64,-3.87 2.88,-5.57" id="path293" />
		<path d="m 33.68,28.94 c -0.75,0.88 -2.54,3.85 -3.28,5.79 -0.75,1.94 -1.96,3.54 -2.78,5.42" id="path277" />
		<path d="m 33.92,13.03 c 1.9,-1.35 5.32,-7.569 5.97,-8.447 0.64,-0.886 1.25,-1.576 2.22,-2.281" id="path13" />
		<path d="m 33.92,38.03 c 1.9,-1.35 5.32,-7.57 5.97,-8.45 0.67,-0.93 1.35,-1.39 2.34,-2.11" id="path199" />
		<path d="m 34.19,30.29 c -0.44,1.23 -1.16,2.37 -2.12,3.91 -0.97,1.54 -1.77,3.7 -2.03,4.67 -0.26,0.96 -2.71,4.2 -4.07,5.26" id="path279" />
		<path d="m 34.46,29.26 c 0.5,-0.67 0.81,-1.36 1.46,-2.3 v 0 c 0.38,-0.54 0.88,-1.16 1.59,-1.92 v 0 c 0.14,-0.16 0.29,-0.31 0.45,-0.47" id="path289" />
		<path d="m 35.59,34.68 c -0.84,1.02 -2.6,2.61 -2.95,3.79 -0.35,1.19 -0.62,1.94 -0.83,2.24" id="path271" />
		<path d="m 35.59,9.687 c -0.84,1.013 -2.6,2.593 -2.95,3.783 -0.35,1.19 -0.62,1.94 -0.83,2.25" id="path63" />
		<path d="m 36.03,31.51 c 1.06,-1.52 3.43,-5.62 4.91,-7.5" id="path227" />
		<path d="m 36.25,5.549 c 1.2,-1.08 2.49,-3.669 3.97,-5.5472" id="path33" />
		<path d="m 36.66,14.56 c 1.01,-1.33 0.97,-1.52 0.95,-1.49 0.44,-0.75 0.81,-1.12 1.69,-2.03" id="path67" />
		<path d="m 36.72,39.39 c 0.42,-0.56 0.41,-0.48 0.89,-1.31 0.44,-0.77 0.63,-0.95 1.51,-1.86" id="path275" />
		<path d="m 37.53,41.6 c -1.78,2.12 -3.42,4.83 -3.57,5.23 -0.31,0.86 -0.21,1.78 -0.79,3.17" id="path287" />
		<path d="m 37.53,50 c 0.14,-0.15 0.29,-0.3 0.45,-0.47" id="path231" />
		<path d="m 37.96,10.04 c -0.79,0.66 -1.98,1.98 -2.59,3.08 -0.62,1.1 -1.59,2.09 -3.35,4.26" id="path65" />
		<path d="m 37.96,35.04 c -0.79,0.66 -2.51,2.49 -3.12,3.59 -0.62,1.1 -1.12,1.64 -2.88,3.81" id="path273" />
		<path d="m 38.53,16.74 c -0.57,1.32 -1.49,2.89 -2.41,3.95 -0.93,1.06 -1.01,1.76 -1.46,2.73" id="path49" />
		<path d="m 38.63,35.27 c 3.28,-1.67 4.54,-5.74 6.99,-7.85" id="path195" />
		<path d="m 38.8,15.49 c 0.44,-0.87 1.32,-2.95 2.6,-4 1.27,-1.06 1.85,-1.676 2.42,-2.293" id="path51" />
		<path d="m 38.8,40.5 c 0.44,-0.89 1.32,-2.95 2.6,-4.01 1.27,-1.06 1.85,-1.67 2.42,-2.29" id="path259" />
		<path d="m 38.84,13.64 c -1.23,1.28 -4.04,3.92 -4.83,5.42 -0.79,1.5 -2.34,3.73 -3.12,5.19" id="path53" />
		<path d="m 38.84,38.65 c -1.23,1.27 -4.04,3.91 -4.83,5.41 -0.79,1.5 -1.81,3.35 -2.95,4.18" id="path261" />
		<path d="m 38.89,33.81 c 1.76,-2.69 3.54,-4.84 5.47,-6.86" id="path197" />
		<path d="m 38.94,41.5 c -0.57,1.32 -1.9,3.13 -2.82,4.19 -0.93,1.06 -1.01,1.76 -1.46,2.73" id="path257" />
		<path d="m 39.95,36.62 c 1.71,-2.77 4.09,-3.16 6.42,-6.42" id="path213" />
		<path d="m 4.313,30.15 c -0.286,0.44 -1.298,2.73 -1.783,3.39 -0.484,0.66 -1.254,1.61 -2.3319,2.34 0,0 -0.074,0.1 -0.197784,0.12" id="path401" />
		<path d="m 40.21,19.31 c 0.22,-0.31 0.84,-1.79 1.19,-2.32 0.76,-1.15 1.8,-4.36 2.33,-5.72 0.53,-1.362 3.08,-4.313 3.92,-5.373" id="path61" />
		<path d="m 40.21,44.31 c 0.22,-0.31 0.84,-1.79 1.19,-2.32 0.76,-1.15 1.8,-4.36 2.33,-5.72 0.53,-1.36 3.08,-4.32 3.92,-5.37" id="path269" />
		<path d="m 40.96,44.5 c -1.15,1.81 -3.65,4.14 -4.14,4.62 -0.49,0.49 -0.45,0.41 -0.45,0.41 -0.1,0.14 -0.2,0.3 -0.35,0.47" id="path233" />
		<path d="m 41.85,26.82 c 0.78,-0.45 1.56,-1.08 2.34,-1.81 2.02,-1.93 4,-4.57 5.81,-6.52" id="path229" />
		<path d="m 41.87,50 c 0.12,-0.13 0.24,-0.25 0.33,-0.35 0,0 0.83,-0.62 1.2,-1.36 0.38,-0.75 2.15,-3.7 2.53,-4.14" id="path225" />
		<path d="m 42.32,17.3 c 1.54,-2.86 4.52,-4.15 7.34,-8.733" id="path43" />
		<path d="m 42.32,42.3 c 1.54,-2.86 4.52,-4.15 7.34,-8.73" id="path251" />
		<path d="m 42.38,37.27 c -1.23,1.7 -2.3,3.86 -2.87,5.57 -0.57,1.72 -1.63,2.72 -2.69,3.95 -1.06,1.23 -1.1,1.85 -1.45,2.33 -0.35,0.49 -0.32,0.47 -0.32,0.47 -0.12,0.13 -0.24,0.27 -0.36,0.41" id="path235" />
		<path d="m 42.85,7.48 c 2.35,-2.119 4.85,-6.036 6,-7.4782" id="path5" />
		<path d="m 43.87,31.29 c 2.48,-2.09 3.83,-4.85 4.98,-6.29 0.14,-0.18 0.29,-0.33 0.43,-0.44" id="path189" />
		<path d="m 44.19,50 c 2.02,-1.92 4,-4.56 5.81,-6.51" id="path223" />
		<path d="m 44.36,26.95 c 0.62,-0.64 1.18,-1.29 1.62,-1.95 0.1,-0.1 0.12,-0.2 0.18,-0.29 0,0 1,-1.16 2.02,-2 0.93,-0.77 0.98,-1.51 1.82,-2.27" id="path221" />
		<path d="m 45.43,43.78 c 2,-1.46 3.14,-2.83 3.46,-3.7 0.23,-0.58 0.66,-1.29 1.11,-1.94" id="path255" />
		<path d="m 45.51,15.15 c -0.96,0.97 -2.57,2.99 -3.63,5.01 -1.05,2.02 -2.68,3.17 -3.56,3.96" id="path41" />
		<path d="m 45.51,19.2 c 1.77,-1.7 3.06,-3.25 3.38,-4.11 0.23,-0.59 0.66,-1.31 1.11,-1.95" id="path47" />
		<path d="m 45.51,40.27 c -0.96,0.97 -2.57,2.86 -3.63,4.89 -1.05,2.03 -2.68,3.17 -3.56,3.96" id="path249" />
		<path d="m 45.98,0.0018 c -0.44,0.664 -1,1.3082 -1.62,1.9522" id="path31" />
		<path d="m 46.25,26.59 c 0.1,-0.18 0.5,-0.87 0.97,-1.58 0.1,-0.13 0.16,-0.25 0.23,-0.36 0,0 0.88,-1.1 1.3,-1.36" id="path193" />
		<path d="m 46.45,36.11 c 1.06,-1.24 1.33,-3.18 1.9,-4.24 0.23,-0.42 0.88,-1.19 1.65,-2.14" id="path209" />
		<path d="m 46.78,33.28 c -0.7,0.79 -1.44,3.23 -2.79,5.23" id="path253" />
		<path d="m 47.22,50 c 0.1,-0.11 0.16,-0.23 0.24,-0.35 0,0 0.87,-1.1 1.29,-1.36" id="path217" />
		<path d="m 48.66,13.21 c -0.62,0.7 -2.68,3.12 -3.41,4.16 -0.72,1.04 -2.84,4.58 -3.99,5.28" id="path39" />
		<path d="m 48.66,38.2 c -0.62,0.71 -2.88,3.03 -3.41,4.17 -0.52,1.15 -2.84,4.58 -3.99,5.29" id="path247" />
		<path d="m 50,16.23 c -1.93,2.01 -4.55,5.45 -4.55,5.45" id="path77" />
		<path d="m 50,25.87 c -0.11,0.18 -0.23,0.34 -0.38,0.5 -0.71,0.78 -2.81,3.21 -3.25,3.83" id="path211" />
		<path d="m 50,27.45 c -0.37,0.59 -0.63,1.08 -0.99,1.57" id="path241" />
		<path d="m 50,41.24 c -1.93,2 -4.55,5.44 -4.55,5.44" id="path285" />
		<path d="m 50,45.44 c -0.84,0.76 -0.89,1.5 -1.82,2.27 -1.02,0.84 -2.02,2 -2.02,2 -0.1,0.1 -0.12,0.2 -0.18,0.29" id="path219" />
		<path d="m 6.572,50 c 0.101,-0.15 0.195,-0.29 0.268,-0.41 0,0 0.269,-0.69 0.664,-1.35" id="path349" />
		<path d="m 7.37,11.14 c -0.704,0.79 -0.744,1.98 -1.535,3.91 -0.796,1.94 -2.952,3.97 -3.877,4.8 0,0 -0.682,0.73 -1.0779,1.35 -0.3963,0.61 -0.682,1.49 -0.7483,1.77" id="path153" />
		<path d="m 7.37,36.14 c -0.704,0.79 -0.744,1.98 -1.535,3.92 -0.796,1.93 -2.952,3.95 -3.877,4.79 0,0 -0.682,0.73 -1.0779,1.35 -0.3956,0.61 -0.682,1.49 -0.7477,1.78" id="path383" />
		<path d="m 8.899,35.27 c 0.905,-2.08 2.961,-2.73 3.871,-4.54 0.82,-1.65 2.92,-4.44 4.1,-5.72 v 0 c 0.12,-0.14 0.23,-0.26 0.33,-0.36 0,0 0.82,-0.62 1.19,-1.36 0.38,-0.75 2.16,-3.7 2.54,-4.14" id="path309" />
		<path d="m 8.913,38.03 c 1.907,-1.35 5.327,-7.57 5.967,-8.45 0.64,-0.88 2.3,-2.06 3.27,-2.76" id="path307" />
	</g>
</svg>
